<svg width="445" height="296" viewBox="0 0 445 296" fill="none" xmlns="http://www.w3.org/2000/svg">
<path d="M62.8281 143.045C63.1275 143.018 63.4153 142.917 63.6647 142.749C63.958 142.537 64.1679 142.229 64.258 141.879C64.3071 141.651 64.325 141.418 64.3114 141.186C64.3114 140.937 64.3114 140.671 64.3114 140.387C64.3114 138.102 64.3648 134.822 64.4004 130.779C64.4004 129.764 64.4123 128.705 64.436 127.6C64.436 127.043 64.436 126.481 64.436 125.907C64.4602 125.627 64.4602 125.346 64.436 125.066C64.3821 124.798 64.2523 124.552 64.0622 124.356C63.8712 124.156 63.6221 124.021 63.3502 123.971C63.0519 123.949 62.7525 123.949 62.4543 123.971H60.5793H56.6515H39.1718C38.8207 123.978 38.4848 124.116 38.2294 124.357C37.974 124.597 37.8172 124.924 37.7894 125.273L37.7538 127.535C37.7538 129.044 37.7063 130.495 37.6826 131.986C37.6411 134.905 37.5995 137.717 37.558 140.399V141.399C37.5366 141.703 37.6113 142.005 37.7716 142.264C37.9245 142.518 38.1585 142.714 38.4361 142.82C38.7277 142.91 39.034 142.942 39.338 142.915H43.0404H49.6917L59.3155 142.962L61.9321 142.992H62.6145H62.8458C62.7689 142.999 62.6914 142.999 62.6145 142.992H61.9321H59.3155L49.6917 143.045H43.0404H39.3202C38.9845 143.075 38.6463 143.041 38.3234 142.944C37.9888 142.815 37.7056 142.58 37.5165 142.275C37.3281 141.97 37.2389 141.615 37.2613 141.257C37.2613 140.926 37.2613 140.594 37.2613 140.257C37.2969 137.575 37.3325 134.763 37.3681 131.844C37.3681 130.388 37.4097 128.884 37.4334 127.393C37.4334 126.635 37.4334 125.877 37.469 125.107C37.5359 124.707 37.742 124.342 38.0512 124.078C38.3604 123.814 38.753 123.667 39.16 123.663H56.6396H62.4483C62.7632 123.654 63.0783 123.666 63.3917 123.698C63.7164 123.759 64.0135 123.921 64.2402 124.16C64.4623 124.392 64.6144 124.681 64.6793 124.995C64.7055 125.292 64.7055 125.591 64.6793 125.889C64.6793 126.481 64.6793 127.031 64.6793 127.582C64.6793 128.689 64.6437 129.755 64.6258 130.767C64.5428 134.81 64.4834 138.084 64.436 140.369C64.436 140.653 64.436 140.92 64.436 141.174C64.4432 141.413 64.4193 141.652 64.3648 141.885C64.2574 142.251 64.0269 142.568 63.7121 142.785C63.52 142.912 63.3005 142.993 63.0713 143.021C62.9923 143.044 62.9099 143.052 62.8281 143.045Z" fill="#455A64"/>
<path d="M52.0116 131.797L55.2512 133.757L51.9404 135.698L48.6296 137.634L48.7008 133.733L48.772 129.832L52.0116 131.797Z" fill="#455A64"/>
<path d="M352.143 75.184C353.213 74.7117 354.121 73.9366 354.753 72.9549C355.386 71.9732 355.716 70.8278 355.703 69.6607C355.703 66.3632 353.211 63.6756 350.108 63.6578C347.005 63.64 344.483 66.31 344.472 69.6074C344.447 70.7837 344.772 71.9409 345.406 72.9333C346.039 73.9256 346.953 74.7088 348.032 75.184C339.393 76.4864 339.784 85.84 339.784 85.84L360.213 85.9348C360.213 85.9348 360.711 76.4983 352.143 75.184Z" fill="#08A9A0"/>
<path d="M231.065 54.1056L197.934 57.2421L200.053 79.5255L233.184 76.3891L231.065 54.1056Z" fill="white"/>
<path d="M233.18 76.368C233.18 76.368 233.18 76.2259 233.127 75.9536L233.002 74.7696C232.895 73.7218 232.741 72.2122 232.545 70.2763C232.159 66.4047 231.608 60.8517 230.943 54.0911L231.074 54.2035L197.954 57.424L198.09 57.2583V57.424V57.6135L198.126 57.9805L198.197 58.7264L198.339 60.2005L198.612 63.1191C198.794 65.049 198.974 66.9473 199.152 68.8141C199.502 72.5437 199.841 76.1312 200.161 79.5234L200.007 79.3991L223.859 77.2087L230.688 76.6167L232.51 76.4568L232.984 76.4213H233.18H233.032L232.575 76.4687L230.795 76.6581L224.007 77.3389L200.078 79.6714H199.936V79.5293C199.609 76.1312 199.265 72.5496 198.903 68.82C198.725 66.9572 198.545 65.0588 198.363 63.125C198.268 62.16 198.173 61.1832 198.084 60.2064L197.942 58.7323L197.853 58.016L197.817 57.649V57.4595V57.2879L197.96 57.1162L231.091 54.0082H231.216V54.1325C231.809 60.9287 232.343 66.5112 232.699 70.4125C232.866 72.3306 233.002 73.8343 233.091 74.8762C233.133 75.3735 233.162 75.7642 233.186 76.0602C233.21 76.3562 233.18 76.368 233.18 76.368Z" fill="#455A64"/>
<path d="M231.068 54.1088C230.995 54.2373 230.908 54.3566 230.807 54.464L230.023 55.3698C229.317 56.1749 228.327 57.2997 227.104 58.6791L217.302 69.6192L217.213 69.7139L217.107 69.6429L216.223 69.0805L203.252 60.7925L199.36 58.2114L198.304 57.5069C198.178 57.4305 198.059 57.3433 197.948 57.2464C198.085 57.3025 198.216 57.3719 198.339 57.4536L199.425 58.1107L203.389 60.5735L216.406 68.7963L217.291 69.3883H217.089L226.95 58.5133L229.946 55.2691L230.765 54.3989C230.859 54.2957 230.961 54.1988 231.068 54.1088Z" fill="#455A64"/>
<path d="M157.411 80.7015C157.347 79.9803 157.234 79.2643 157.073 78.5584C156.863 77.7392 156.529 76.9567 156.082 76.2378C155.505 75.2789 154.748 74.4406 153.851 73.7691C152.689 72.8911 151.324 72.3187 149.882 72.1045C148.439 71.8904 146.966 72.0414 145.598 72.5437C143.985 73.1364 142.583 74.1883 141.563 75.5688C140.465 77.0534 139.872 78.8502 139.872 80.6955C139.872 82.5409 140.465 84.3377 141.563 85.8223C142.58 87.2068 143.983 88.2611 145.598 88.8533C147.504 89.5473 149.592 89.5582 151.505 88.8842C153.418 88.2102 155.036 86.8933 156.082 85.1592C156.529 84.4403 156.863 83.6578 157.073 82.8386C157.234 82.1345 157.347 81.4206 157.411 80.7015C157.418 80.7486 157.418 80.7964 157.411 80.8435V81.2639C157.411 81.4918 157.393 81.7194 157.358 81.9447C157.325 82.2561 157.27 82.5648 157.192 82.8682C156.995 83.7011 156.673 84.4995 156.237 85.2362C155.186 87.0343 153.535 88.407 151.574 89.1147C149.612 89.8223 147.463 89.8199 145.503 89.1079C144.687 88.8335 143.918 88.434 143.225 87.9239C142.492 87.3967 141.848 86.755 141.32 86.0235C140.18 84.4879 139.564 82.6274 139.564 80.7163C139.564 78.8051 140.18 76.9446 141.32 75.409C141.848 74.6775 142.492 74.0359 143.225 73.5087C143.918 72.9985 144.687 72.5991 145.503 72.3247C146.913 71.8138 148.43 71.667 149.912 71.8978C151.395 72.1286 152.795 72.7296 153.982 73.6448C154.891 74.3413 155.654 75.208 156.231 76.1963C156.671 76.9317 156.995 77.7304 157.192 78.5643C157.27 78.8677 157.325 79.1764 157.358 79.4879C157.393 79.7131 157.411 79.9407 157.411 80.1687V80.589C157.415 80.6264 157.415 80.6641 157.411 80.7015Z" fill="#263238"/>
<path d="M169.296 95.4304C169.248 95.5014 166.116 93.4886 162.306 90.9371C158.497 88.3856 155.441 86.2544 155.489 86.2011C155.536 86.1478 158.663 88.1429 162.478 90.7003C166.294 93.2578 169.343 95.3594 169.296 95.4304Z" fill="#263238"/>
<path d="M195.521 111.71L188.591 104.269L190.834 102.191L195.622 107.324L205.667 97.461L207.815 99.6396L195.521 111.71Z" fill="#08A9A0"/>
<path d="M389.945 104.589H390.277H390.692L391.286 104.666C392.552 104.871 393.746 105.392 394.757 106.181C396.377 107.455 397.424 109.318 397.67 111.361C397.729 111.953 397.729 112.575 397.729 113.202C397.729 113.83 397.729 114.487 397.729 115.162C397.729 116.506 397.729 117.932 397.729 119.424C397.729 120.916 397.729 122.497 397.729 124.16C397.729 124.977 397.729 125.818 397.729 126.67C397.771 127.552 397.683 128.436 397.468 129.293C397.105 130.677 396.367 131.935 395.333 132.927C394.3 133.92 393.012 134.608 391.612 134.917C390.633 135.085 389.638 135.147 388.645 135.1H362.159L362.266 135.059L356.291 141.02L356.024 141.287V134.976L356.178 135.13C355.523 135.153 354.866 135.129 354.214 135.059C353.561 134.976 352.921 134.811 352.31 134.567C351.106 134.084 350.041 133.31 349.213 132.313C348.384 131.317 347.817 130.13 347.563 128.861C347.453 128.241 347.401 127.613 347.409 126.984V125.143C347.409 122.704 347.409 120.3 347.409 117.956V114.475C347.373 113.335 347.408 112.194 347.515 111.059C347.693 109.944 348.11 108.88 348.738 107.939C349.342 107.044 350.126 106.282 351.04 105.704C351.954 105.125 352.978 104.741 354.048 104.577C355.064 104.481 356.084 104.449 357.104 104.482H368.163L384.136 104.535L368.163 104.589H357.104C356.098 104.557 355.091 104.591 354.09 104.689C352.508 104.928 351.045 105.664 349.912 106.791C348.78 107.918 348.038 109.376 347.794 110.953C347.691 112.074 347.659 113.201 347.699 114.327V117.808C347.699 120.176 347.699 122.544 347.699 124.995C347.647 126.216 347.697 127.44 347.848 128.653C348.104 129.862 348.645 130.992 349.426 131.951C350.64 133.416 352.366 134.366 354.256 134.609C354.894 134.675 355.536 134.697 356.178 134.674H356.332V140.896L356.071 140.784L362.052 134.822L362.094 134.781H362.159H388.645C389.628 134.83 390.613 134.77 391.582 134.603C392.513 134.402 393.397 134.027 394.187 133.496C395.703 132.474 396.797 130.939 397.266 129.174C397.472 128.362 397.562 127.525 397.533 126.688C397.533 125.836 397.533 124.995 397.533 124.178C397.533 122.538 397.533 120.963 397.533 119.442C397.533 117.92 397.533 116.523 397.533 115.179C397.533 114.505 397.533 113.853 397.533 113.22C397.533 112.587 397.533 111.977 397.492 111.397C397.262 109.387 396.244 107.551 394.662 106.288C393.672 105.496 392.499 104.964 391.25 104.743L390.686 104.648H390.277L389.945 104.589Z" fill="#263238"/>
<path d="M366.413 120.768C366.413 120.768 366.377 120.62 366.3 120.365C366.189 120.017 365.969 119.714 365.671 119.501C365.457 119.349 365.209 119.251 364.948 119.217C364.687 119.183 364.422 119.213 364.176 119.306C363.876 119.415 363.616 119.614 363.433 119.876C363.25 120.137 363.152 120.449 363.152 120.768C363.152 121.087 363.25 121.399 363.433 121.66C363.616 121.922 363.876 122.121 364.176 122.23C364.422 122.323 364.687 122.353 364.948 122.319C365.209 122.285 365.457 122.187 365.671 122.035C365.969 121.822 366.189 121.519 366.3 121.171C366.377 120.922 366.383 120.768 366.413 120.768C366.452 120.909 366.452 121.059 366.413 121.2C366.346 121.597 366.135 121.955 365.82 122.207C365.582 122.4 365.298 122.529 364.995 122.581C364.693 122.633 364.382 122.606 364.093 122.503C363.734 122.377 363.422 122.142 363.202 121.832C362.981 121.522 362.863 121.151 362.863 120.771C362.863 120.391 362.981 120.02 363.202 119.71C363.422 119.4 363.734 119.165 364.093 119.039C364.382 118.935 364.692 118.907 364.995 118.958C365.297 119.009 365.581 119.137 365.82 119.329C366.136 119.582 366.347 119.943 366.413 120.342C366.451 120.481 366.451 120.629 366.413 120.768Z" fill="#263238"/>
<path d="M374.275 120.709C374.231 120.579 374.195 120.446 374.168 120.312C374.056 119.963 373.836 119.658 373.539 119.442C373.324 119.289 373.075 119.191 372.813 119.157C372.551 119.123 372.285 119.154 372.038 119.247C371.741 119.36 371.485 119.561 371.304 119.822C371.124 120.084 371.027 120.394 371.027 120.712C371.027 121.029 371.124 121.339 371.304 121.601C371.485 121.863 371.741 122.063 372.038 122.177C372.286 122.267 372.552 122.296 372.813 122.261C373.075 122.226 373.324 122.128 373.539 121.976C373.834 121.761 374.055 121.458 374.168 121.111C374.196 120.975 374.232 120.841 374.275 120.709C374.275 120.709 374.328 120.863 374.275 121.141C374.203 121.536 373.993 121.893 373.681 122.147C373.443 122.341 373.16 122.47 372.857 122.522C372.554 122.574 372.244 122.547 371.955 122.443C371.595 122.317 371.284 122.083 371.063 121.773C370.843 121.463 370.725 121.092 370.725 120.712C370.725 120.332 370.843 119.961 371.063 119.651C371.284 119.34 371.595 119.106 371.955 118.98C372.243 118.876 372.554 118.848 372.856 118.899C373.159 118.95 373.443 119.078 373.681 119.27C373.993 119.527 374.204 119.886 374.275 120.283C374.328 120.555 374.292 120.709 374.275 120.709Z" fill="#263238"/>
<path d="M382.142 120.709C382.098 120.579 382.06 120.446 382.03 120.312C381.929 119.967 381.721 119.662 381.436 119.442C381.221 119.289 380.972 119.191 380.71 119.157C380.448 119.123 380.182 119.154 379.935 119.247C379.638 119.36 379.382 119.561 379.202 119.822C379.021 120.084 378.925 120.394 378.925 120.712C378.925 121.029 379.021 121.339 379.202 121.601C379.382 121.863 379.638 122.063 379.935 122.177C380.183 122.267 380.449 122.296 380.711 122.261C380.972 122.226 381.221 122.128 381.436 121.976C381.719 121.756 381.927 121.454 382.03 121.111C382.113 120.863 382.119 120.709 382.142 120.709C382.166 120.709 382.196 120.863 382.142 121.141C382.071 121.536 381.86 121.893 381.549 122.147C381.311 122.341 381.027 122.47 380.725 122.522C380.422 122.574 380.111 122.547 379.822 122.443C379.463 122.317 379.151 122.083 378.931 121.773C378.711 121.463 378.592 121.092 378.592 120.712C378.592 120.332 378.711 119.961 378.931 119.651C379.151 119.34 379.463 119.106 379.822 118.98C380.111 118.876 380.421 118.848 380.724 118.899C381.026 118.95 381.311 119.078 381.549 119.27C381.861 119.527 382.071 119.886 382.142 120.283C382.196 120.555 382.16 120.709 382.142 120.709Z" fill="#263238"/>
<path d="M92.2337 80.0621C92.2337 74.9827 86.8937 71.7741 81.4291 74.3078C80.1959 74.8846 79.1869 75.8498 78.5573 77.0547C77.1808 79.7069 77.7919 82.7379 79.032 85.2539L83.2803 95.9928C83.4152 96.3345 83.65 96.6278 83.9543 96.8344C84.2585 97.0411 84.618 97.1517 84.9861 97.1517C85.3542 97.1517 85.7137 97.0411 86.018 96.8344C86.3222 96.6278 86.557 96.3345 86.6919 95.9928L90.8453 85.1947C92.2989 81.8973 92.2337 80.0621 92.2337 80.0621ZM87.1073 84.4902C83.4405 86.6155 79.7262 82.6846 81.7317 78.8011C81.9993 78.2847 82.4116 77.8569 82.9183 77.5698C86.5851 75.4386 90.3053 79.3754 88.2939 83.253C88.0266 83.7712 87.6144 84.201 87.1073 84.4902Z" fill="#08A9A0"/>
<path d="M111.096 97.6089C111.096 97.6089 111.096 97.6741 111.173 97.8043C111.25 97.9345 111.28 98.1299 111.369 98.3963L112.104 100.634C112.751 102.605 113.695 105.5 114.905 109.212L114.941 109.331H114.822L102.86 107.146H102.783V107.063L102.943 107.14C97.7208 111.033 91.3658 113.117 84.8467 113.072C83.3706 113.048 81.8978 112.926 80.4382 112.705C78.9269 112.478 77.4338 112.144 75.9704 111.704L73.7573 110.899C73.3821 110.769 73.0172 110.61 72.6655 110.426L71.5857 109.911C68.6293 108.426 65.9325 106.475 63.5994 104.133C61.1538 101.66 59.167 98.7733 57.7313 95.608C55.5943 90.9707 54.6855 85.8638 55.0919 80.7759C55.4983 75.688 57.2063 70.7893 60.0526 66.5483C62.8988 62.3072 66.788 58.8658 71.3483 56.5531C75.9085 54.2404 80.9872 53.1338 86.0986 53.3392C93.5076 53.6039 100.552 56.6127 105.858 61.7789C111.164 66.945 114.352 73.8979 114.798 81.2816C115.024 84.3405 114.75 87.4157 113.985 90.3865C113.514 92.2634 112.854 94.088 112.015 95.8329C111.725 96.4249 111.493 96.8808 111.327 97.1649L111.072 97.6149L111.297 97.1649C111.458 96.8512 111.683 96.4013 111.962 95.8033C112.775 94.0541 113.415 92.23 113.873 90.3569C114.611 87.3959 114.865 84.3354 114.626 81.2934C114.342 76.8243 113.045 72.4777 110.833 68.581C108.622 64.6844 105.553 61.3392 101.858 58.7974C96.9533 55.4402 91.1547 53.6231 85.2073 53.5799C79.2598 53.5366 73.4353 55.2691 68.4825 58.5547C62.6293 62.468 58.3631 68.3321 56.4476 75.0973C54.5321 81.8625 55.0923 89.0871 58.028 95.4777C59.4488 98.6126 61.4132 101.472 63.8308 103.926C66.1401 106.245 68.8087 108.178 71.734 109.65L72.8079 110.165C73.1545 110.352 73.5156 110.51 73.8878 110.639L76.0713 111.438C77.5226 111.877 79.0039 112.212 80.5035 112.439C81.9494 112.658 83.4081 112.783 84.8704 112.811C91.336 112.854 97.6385 110.788 102.819 106.927L102.979 106.809V107.01L102.902 106.909L114.846 109.147L114.763 109.242L112.033 100.64L111.327 98.3904C111.25 98.1417 111.197 97.9464 111.155 97.7984C111.114 97.6504 111.096 97.5971 111.096 97.5971V97.6089Z" fill="#263238"/>
<path d="M303.46 72.7627C303.378 72.4195 303.338 72.0676 303.342 71.7148C303.322 71.2896 303.273 70.8662 303.193 70.448C303.123 69.8765 303.012 69.3107 302.861 68.7548C302.49 67.2179 301.89 65.7452 301.081 64.3859C300.036 62.582 298.654 60.9945 297.011 59.7091C295.032 58.1449 292.714 57.0662 290.241 56.5596C287.406 55.9777 284.467 56.1595 281.727 57.0865C280.241 57.5712 278.84 58.2821 277.573 59.194C276.236 60.1097 275.057 61.2375 274.084 62.5329C271.982 65.2399 270.803 68.547 270.72 71.9705C270.636 75.394 271.653 78.7543 273.622 81.5598C274.099 82.2326 274.622 82.8715 275.188 83.472C275.745 84.0451 276.34 84.581 276.968 85.0763C278.185 86.0448 279.544 86.8215 280.997 87.3792C283.687 88.4368 286.612 88.7617 289.47 88.3204C291.965 87.9321 294.335 86.9649 296.388 85.4966C298.093 84.2942 299.551 82.777 300.684 81.027C301.55 79.7055 302.216 78.2631 302.659 76.7468C302.836 76.1986 302.975 75.6388 303.075 75.0715C303.174 74.6589 303.241 74.2393 303.276 73.8164C303.292 73.4616 303.35 73.1099 303.448 72.7686C303.489 73.1207 303.489 73.4762 303.448 73.8283C303.444 74.259 303.404 74.6886 303.33 75.1129C303.259 75.6966 303.146 76.2743 302.992 76.8416C302.597 78.4137 301.96 79.9154 301.105 81.2934C299.849 83.3321 298.171 85.0801 296.184 86.4205C294.197 87.7609 291.946 88.6629 289.582 89.0664C286.588 89.5595 283.515 89.2469 280.682 88.1606C279.152 87.5905 277.718 86.7921 276.428 85.7926C275.759 85.274 275.125 84.7123 274.529 84.1113C273.944 83.4783 273.401 82.8079 272.904 82.1044C270.815 79.1477 269.736 75.5991 269.824 71.9829C269.913 68.3668 271.165 64.8751 273.396 62.0238C273.924 61.343 274.499 60.7001 275.117 60.0998C275.734 59.5148 276.392 58.9747 277.087 58.4836C278.42 57.5321 279.893 56.7931 281.454 56.2932C284.336 55.3388 287.422 55.1753 290.389 55.8196C292.729 56.33 294.933 57.3336 296.853 58.763C298.772 60.1924 300.364 62.0146 301.52 64.1076C302.314 65.5324 302.878 67.0726 303.193 68.672C303.325 69.2563 303.411 69.8502 303.448 70.448C303.503 70.8738 303.523 71.3035 303.508 71.7326C303.53 72.0767 303.514 72.4221 303.46 72.7627Z" fill="#455A64"/>
<path d="M300.144 62.4264C300.179 62.4797 299.877 62.7401 299.301 63.1664L298.233 63.9301C298.025 64.0721 297.8 64.2379 297.557 64.3918L296.738 64.8181C293.773 66.5069 290.402 67.3544 286.989 67.2689L285.512 67.2038L284.1 66.9789C283.868 66.9433 283.637 66.9137 283.412 66.8664L282.747 66.6888C282.314 66.5704 281.881 66.4697 281.471 66.3395C280.023 65.8533 278.631 65.2143 277.318 64.4333C275.099 63.0953 274.013 61.8758 274.096 61.7989C274.179 61.7219 275.396 62.7165 277.656 63.8768C278.964 64.5476 280.328 65.1022 281.732 65.5344C282.124 65.6528 282.539 65.7416 282.961 65.8481L283.595 66.0021L284.254 66.1027L285.607 66.304L287.013 66.3573C290.285 66.4272 293.525 65.7019 296.453 64.2438L297.284 63.8827C297.533 63.7525 297.764 63.6163 297.984 63.492L299.111 62.9C299.734 62.5389 300.102 62.379 300.144 62.4264Z" fill="#455A64"/>
<path d="M273.61 82.5425C273.574 82.4952 273.877 82.2347 274.452 81.8025L275.52 81.0389C275.728 80.8968 275.953 80.731 276.197 80.5771L277.015 80.1509C279.981 78.4641 283.352 77.6186 286.764 77.7059L288.241 77.771L289.653 77.9901C289.885 78.0315 290.116 78.0611 290.342 78.1085L291.006 78.2801C291.439 78.4045 291.873 78.5051 292.282 78.6353C293.731 79.1172 295.124 79.7544 296.435 80.5357C298.654 81.8795 299.74 83.099 299.657 83.176C299.574 83.2529 298.358 82.2584 296.097 81.0981C294.791 80.4227 293.427 79.8659 292.021 79.4345C291.623 79.3221 291.208 79.2333 290.793 79.1267L290.158 78.9669L289.499 78.8662L288.146 78.6709L286.74 78.6117C283.466 78.5426 280.224 79.27 277.294 80.731L276.493 81.104C276.244 81.2342 276.013 81.3763 275.793 81.4947L274.666 82.1222C274.019 82.436 273.645 82.5958 273.61 82.5425Z" fill="#455A64"/>
<path d="M303.448 73.1475C303.448 73.4021 296.014 73.4258 286.835 73.2008C277.656 72.9758 270.263 72.6088 270.269 72.3424C270.275 72.076 277.698 72.0701 286.883 72.295C296.067 72.52 303.454 72.8989 303.448 73.1475Z" fill="#455A64"/>
<path d="M286.105 88.8888C285.856 88.8888 285.832 81.4769 286.052 72.3424C286.271 63.2078 286.645 55.8078 286.912 55.8137C287.179 55.8196 287.185 63.2315 286.966 72.3897C286.746 81.548 286.355 88.8947 286.105 88.8888Z" fill="#455A64"/>
<path d="M286.105 88.8651C286.046 88.9598 284.219 87.7226 282.106 84.9283C280.875 83.2831 279.876 81.4763 279.14 79.5589C278.243 77.1923 277.808 74.6765 277.858 72.147C277.918 69.6131 278.487 67.1168 279.531 64.8062C280.369 62.9331 281.459 61.1824 282.771 59.6026C285.002 56.909 286.841 55.719 286.924 55.8138C287.007 55.9085 285.346 57.2701 283.293 59.9992C282.1 61.5862 281.103 63.3116 280.326 65.1378C279.371 67.3594 278.85 69.7423 278.79 72.1589C278.754 74.5788 279.156 76.9852 279.976 79.2629C280.652 81.1302 281.559 82.9061 282.676 84.5494C284.551 87.3733 286.2 88.7645 286.105 88.8651Z" fill="#455A64"/>
<path d="M287.28 55.8197C287.345 55.725 289.173 56.9622 291.279 59.7565C292.511 61.4017 293.509 63.2085 294.246 65.1259C295.137 67.4961 295.572 70.0127 295.527 72.5437C295.465 75.0754 294.896 77.5691 293.854 79.8786C293.012 81.7494 291.922 83.4994 290.615 85.0822C288.384 87.7758 286.538 88.9717 286.461 88.871C286.384 88.7704 288.04 87.4147 290.087 84.6856C291.28 83.0986 292.276 81.3731 293.053 79.547C294.003 77.3241 294.523 74.9417 294.584 72.5259C294.619 70.106 294.217 67.6996 293.397 65.4219C292.718 63.5548 291.809 61.7791 290.692 60.1354C288.835 57.3115 287.173 55.9203 287.28 55.8197Z" fill="#455A64"/>
<path d="M270.305 97.0051L270.103 97.0584L269.51 97.2005L267.208 97.7392L258.391 99.752L258.272 99.7816L258.308 99.6632L261.547 87.9771V87.8942H261.66L261.565 88.0482C258.888 83.7523 257.354 78.8456 257.109 73.7928C257.044 72.3794 257.075 70.9631 257.204 69.5541C257.361 68.0905 257.614 66.6389 257.964 65.2088C258.323 63.7268 258.789 62.2727 259.358 60.8576C259.69 60.1531 260.022 59.4427 260.361 58.7323C260.531 58.3701 260.729 58.0218 260.954 57.6904C261.156 57.347 261.357 57.0037 261.547 56.6603C263.293 53.8559 265.478 51.3494 268.021 49.2366C270.707 47.0264 273.764 45.3087 277.051 44.1632C281.872 42.4502 287.053 42.0005 292.098 42.8574C297.143 43.7142 301.884 45.8488 305.865 49.0568C309.847 52.2649 312.936 56.4389 314.838 61.1794C316.74 65.9199 317.391 71.0681 316.727 76.1312C315.807 83.4723 312.178 90.2079 306.549 95.024C300.921 99.84 293.695 102.391 286.283 102.179C283.209 102.132 280.163 101.586 277.265 100.563C275.436 99.9257 273.675 99.1087 272.008 98.124C271.414 97.7806 271.005 97.532 270.738 97.3189L270.311 97.0229L270.738 97.2893C271.035 97.4728 271.468 97.7392 272.037 98.0707C273.714 99.0259 275.478 99.8189 277.306 100.439C280.197 101.436 283.231 101.961 286.289 101.996C291.496 102.11 296.642 100.858 301.211 98.3643C305.78 95.8705 309.612 92.2228 312.324 87.7865C315.035 83.3502 316.531 78.2808 316.661 73.0862C316.792 67.8915 315.552 62.7539 313.066 58.1877C309.69 52.0149 304.22 47.2434 297.638 44.7279C291.056 42.2123 283.792 42.1171 277.146 44.4592C273.887 45.5921 270.855 47.2895 268.187 49.4734C265.669 51.5677 263.506 54.0523 261.779 56.832C261.577 57.1694 261.375 57.5128 261.185 57.8502C260.974 58.1805 260.786 58.5247 260.622 58.8803L259.613 60.976C259.044 62.3784 258.58 63.8209 258.225 65.2917C257.874 66.7077 257.618 68.1455 257.459 69.5955C257.328 70.9946 257.295 72.4009 257.358 73.8046C257.588 78.8176 259.095 83.6893 261.737 87.9594L261.844 88.131H261.642L261.749 88.06C260.473 92.5651 259.376 96.5078 258.45 99.7342L258.367 99.6395L267.196 97.68L269.504 97.1827L270.097 97.0584C270.166 97.0425 270.235 97.0306 270.305 97.0229V97.0051Z" fill="#263238"/>
<path d="M295.302 111.237C292.401 111.912 290.555 114.842 289.92 117.749C289.286 120.656 289.606 123.669 289.327 126.629C289.048 129.589 288.01 132.732 285.512 134.325L287.998 135.047C287.507 136.6 286.47 137.925 285.079 138.777C286.05 139.526 287.244 139.933 288.473 139.931C287.013 140.316 286.61 142.4 287.417 143.673C288.224 144.945 289.76 145.549 291.226 145.922C292.94 146.447 294.764 146.503 296.506 146.082C298.88 145.366 300.707 143.258 301.627 140.926C302.547 138.593 302.719 136.048 302.814 133.543C302.992 127.274 302.624 120.94 301.034 114.872C300.642 113.404 300.108 111.847 298.856 110.982C297.604 110.118 295.468 110.467 295.088 111.935" fill="black"/>
<path d="M360.883 201.73C360.195 199.113 356.184 184.373 352.576 174.747C348.595 164.061 340.383 161.853 340.383 161.853C321.901 155.56 305.294 155.524 287.577 161.657C286.983 161.835 286.455 162.025 285.927 162.249H285.874C272.72 167.4 271.361 181.265 271.361 181.265L265.813 214.896C265.755 215.162 265.712 215.431 265.683 215.701L265.629 216.021C265.535 217.593 265.916 219.157 266.722 220.511C267.528 221.865 268.722 222.946 270.151 223.616C277.864 227.168 285.245 226.322 291.582 223.711L286.978 230.401H341.796L338.2 221.574L339.387 216.246L347.877 226.44C348.895 227.66 350.257 228.545 351.787 228.98C361.577 230.116 363.161 215.571 361.322 207.105" fill="#455A64"/>
<path d="M326.155 158.188C326.155 158.188 317.309 202.588 314.194 202.245C311.079 201.902 296.465 159.029 296.465 159.029C296.465 159.029 315.143 154.056 326.155 158.188Z" fill="#FFBE9D"/>
<path d="M301.069 161.462C301.022 156.353 300.879 150.972 300.879 150.972C300.879 150.972 294.275 149.924 292.851 141.34C291.499 133.159 292.739 114.232 292.739 114.232C297.41 112.328 302.553 111.895 307.478 112.99C312.403 114.085 316.874 116.657 320.293 120.36L319.991 161.871C319.955 166.689 315.772 170.496 310.604 170.419C305.377 170.342 301.111 166.352 301.069 161.462Z" fill="#FFBE9D"/>
<path d="M294.928 128.553C294.926 128.84 295.037 129.116 295.237 129.323C295.436 129.53 295.709 129.651 295.996 129.66C296.137 129.67 296.278 129.653 296.412 129.608C296.545 129.563 296.669 129.491 296.774 129.398C296.88 129.305 296.966 129.192 297.027 129.065C297.088 128.938 297.123 128.8 297.129 128.659C297.131 128.372 297.02 128.096 296.821 127.889C296.621 127.682 296.349 127.562 296.061 127.552C295.921 127.542 295.779 127.56 295.646 127.605C295.512 127.65 295.389 127.721 295.283 127.814C295.178 127.907 295.092 128.021 295.031 128.148C294.97 128.274 294.935 128.412 294.928 128.553Z" fill="#263238"/>
<path d="M293.475 127.771C293.611 127.913 294.442 127.292 295.628 127.286C296.815 127.28 297.693 127.878 297.824 127.724C297.954 127.57 297.741 127.404 297.361 127.132C296.837 126.775 296.215 126.591 295.581 126.605C294.961 126.619 294.362 126.826 293.866 127.197C293.528 127.446 293.403 127.706 293.475 127.771Z" fill="#263238"/>
<path d="M306.943 129.127C306.941 129.414 307.052 129.69 307.252 129.897C307.451 130.104 307.724 130.225 308.011 130.234C308.15 130.242 308.29 130.222 308.421 130.176C308.553 130.13 308.674 130.059 308.778 129.966C308.881 129.873 308.966 129.76 309.026 129.634C309.085 129.509 309.12 129.373 309.127 129.234C309.128 128.947 309.018 128.67 308.818 128.463C308.619 128.257 308.346 128.136 308.059 128.127C307.919 128.119 307.78 128.138 307.648 128.184C307.517 128.23 307.396 128.302 307.292 128.395C307.188 128.488 307.104 128.601 307.044 128.726C306.984 128.852 306.95 128.988 306.943 129.127Z" fill="#263238"/>
<path d="M305.869 128.127C306.012 128.269 306.842 127.647 308.029 127.641C309.216 127.635 310.094 128.233 310.218 128.079C310.343 127.925 310.141 127.76 309.762 127.487C309.238 127.131 308.615 126.946 307.982 126.96C307.361 126.969 306.76 127.177 306.267 127.552C305.929 127.801 305.804 128.061 305.869 128.127Z" fill="#263238"/>
<path d="M301.615 136.941C300.986 136.752 300.337 136.64 299.681 136.61C299.378 136.61 299.087 136.521 299.04 136.314C299.011 136.001 299.079 135.687 299.236 135.414L300.12 133.105C301.342 129.814 302.232 127.114 302.096 127.061C301.959 127.008 300.862 129.642 299.633 132.934C299.343 133.745 299.04 134.514 298.791 135.254C298.603 135.619 298.551 136.038 298.642 136.438C298.686 136.545 298.754 136.64 298.84 136.716C298.927 136.792 299.03 136.847 299.141 136.876C299.31 136.92 299.483 136.944 299.657 136.947C300.307 137.028 300.965 137.026 301.615 136.941Z" fill="#263238"/>
<path d="M300.879 150.96C304.933 150.997 308.918 149.911 312.39 147.822C312.39 147.822 309.625 153.742 301.004 152.991L300.879 150.96Z" fill="#EB996E"/>
<path d="M302.131 139.795C302.358 139.511 302.652 139.289 302.987 139.149C303.321 139.008 303.686 138.953 304.048 138.99C304.31 139.013 304.565 139.088 304.797 139.211C305.029 139.334 305.235 139.502 305.401 139.706C305.561 139.903 305.656 140.145 305.674 140.398C305.692 140.651 305.632 140.903 305.501 141.121C305.312 141.335 305.062 141.487 304.785 141.557C304.508 141.628 304.216 141.614 303.947 141.518C303.386 141.324 302.869 141.02 302.428 140.624C302.292 140.53 302.175 140.412 302.084 140.274C302.039 140.21 302.015 140.134 302.015 140.055C302.015 139.977 302.039 139.901 302.084 139.836" fill="#EB996E"/>
<path d="M305.116 137.741C304.92 137.741 304.926 139.019 303.828 139.937C302.73 140.855 301.354 140.724 301.348 140.902C301.348 140.985 301.657 141.151 302.238 141.162C302.993 141.168 303.727 140.909 304.309 140.428C304.87 139.969 305.226 139.307 305.3 138.587C305.347 138.054 305.205 137.735 305.116 137.741Z" fill="#263238"/>
<path d="M315.653 113.439C312.586 117.974 304.327 122.733 298.375 123.906C299.058 122.976 302.689 120.656 303.365 119.732C300.695 121.792 296.839 124.557 293.279 124.805C292.857 124.871 292.426 124.811 292.039 124.634C291.833 124.477 291.667 124.274 291.554 124.042C291.441 123.809 291.383 123.554 291.386 123.296C291.142 120.704 291.179 118.094 291.499 115.511C291.747 113.328 292.824 111.322 294.507 109.905C296.779 108.087 300.06 107.596 303.164 107.466C305.762 107.359 308.444 107.466 310.841 108.36C313.238 109.254 315.303 111.071 315.689 113.285" fill="black"/>
<path d="M325.829 134.212C326.199 132.311 326.453 130.39 326.588 128.458C326.766 124.018 328.095 108.01 312.805 109.597L313.672 113.901C313.672 113.901 310.818 123.87 317.386 130.595C317.386 130.595 315.517 144.637 320.085 149.172C320.085 149.172 324.986 139.002 325.829 134.212Z" fill="black"/>
<path d="M317.19 129.849C318.111 129.65 319.069 129.705 319.961 130.009C320.857 130.325 321.591 130.983 322.002 131.838C322.365 132.713 322.38 133.694 322.043 134.579C321.705 135.459 321.174 136.252 320.489 136.9C320.029 137.398 319.457 137.781 318.822 138.019C318.503 138.131 318.162 138.163 317.828 138.114C317.494 138.064 317.177 137.934 316.905 137.735" fill="#FFBE9D"/>
<path d="M317.73 135.414C317.629 135.45 318.033 136.006 318.869 135.775C319.322 135.619 319.695 135.292 319.908 134.864C320.155 134.389 320.306 133.87 320.353 133.336C320.42 132.767 320.279 132.193 319.955 131.72C319.823 131.521 319.648 131.354 319.443 131.232C319.237 131.11 319.007 131.036 318.768 131.016C317.902 131.016 317.635 131.608 317.736 131.608C317.837 131.608 318.139 131.365 318.703 131.495C319.052 131.625 319.343 131.876 319.522 132.202C319.7 132.528 319.755 132.908 319.676 133.271C319.581 134.218 319.219 135.083 318.715 135.302C318.211 135.521 317.789 135.337 317.73 135.414Z" fill="#EB996E"/>
<path d="M287.025 202.813C286.942 202.813 286.871 199.326 286.871 195.023C286.871 190.719 286.942 187.238 287.025 187.238C287.108 187.238 287.179 190.725 287.179 195.023C287.179 199.321 287.108 202.813 287.025 202.813Z" fill="#263238"/>
<path d="M309.305 186.912C309.305 186.912 301.591 187.001 301.123 188.688C300.316 191.506 301.757 206.975 301.757 206.975L308.848 209.343C308.848 209.343 312.265 208.556 310.687 201.99C309.656 197.866 308.08 193.896 306 190.186C306 190.186 315.422 190.446 315.161 188.345C314.9 186.243 309.305 186.912 309.305 186.912Z" fill="#FFBE9D"/>
<path d="M306.243 191.477C306.664 191.394 316.08 190.618 315.493 192.122C314.906 193.626 306.243 193.998 306.243 193.998V191.477Z" fill="#FFBE9D"/>
<path d="M336.497 168.732L335.334 198.071L331.038 209.337L304.647 209.882L303.579 173.539L336.497 168.732Z" fill="#263238"/>
<path d="M300.511 197.254C300.412 197.322 300.304 197.378 300.191 197.42L299.242 197.846L295.723 199.344L284.082 204.193L277.68 206.827C275.914 207.488 274.201 208.279 272.554 209.195C271.45 209.819 270.475 210.647 269.682 211.634C269.136 212.344 268.94 212.818 268.911 212.818C268.942 212.699 268.99 212.586 269.053 212.481C269.2 212.165 269.379 211.866 269.587 211.587C270.354 210.553 271.322 209.685 272.435 209.035C274.08 208.088 275.798 207.275 277.573 206.602L283.987 203.95L295.664 199.184L299.224 197.775L300.197 197.408C300.295 197.344 300.401 197.293 300.511 197.254Z" fill="#263238"/>
<path d="M309.239 208.751C309.064 209.004 308.865 209.24 308.646 209.456C308.26 209.9 307.685 210.521 306.943 211.261C305.466 212.753 303.33 214.718 300.873 216.767C298.417 218.815 296.127 220.579 294.418 221.811C293.569 222.403 292.875 222.912 292.389 223.243C292.146 223.425 291.888 223.586 291.617 223.723C291.832 223.504 292.066 223.306 292.318 223.131L294.287 221.621C295.949 220.348 298.221 218.566 300.678 216.518C303.134 214.47 305.282 212.546 306.789 211.095C307.548 210.379 308.148 209.775 308.569 209.367C308.774 209.143 308.999 208.937 309.239 208.751Z" fill="#263238"/>
<path d="M348.987 227.529C348.922 227.588 345.053 223.16 340.342 217.643C335.631 212.125 331.863 207.614 331.928 207.579C331.994 207.543 335.862 211.936 340.573 217.442C345.284 222.947 349.052 227.476 348.987 227.529Z" fill="#263238"/>
<path d="M356.445 206.211C356.152 206.134 355.867 206.033 355.591 205.909C355.045 205.696 354.262 205.365 353.306 204.939C351.396 204.08 348.797 202.801 346.032 201.203C343.267 199.605 340.852 198 339.155 196.775C338.307 196.183 337.63 195.65 337.174 195.283C336.926 195.107 336.696 194.909 336.485 194.691C336.753 194.832 337.007 194.996 337.245 195.182C337.773 195.544 338.461 196.017 339.28 196.591C341.006 197.775 343.433 199.338 346.186 200.931C348.939 202.523 351.526 203.832 353.401 204.731L355.638 205.791C355.919 205.907 356.189 206.048 356.445 206.211Z" fill="#263238"/>
<path d="M342.786 199.77C342.703 199.77 342.241 196.651 341.754 192.779C341.267 188.907 340.941 185.752 341.024 185.746C341.107 185.74 341.576 188.866 342.063 192.737C342.549 196.609 342.875 199.765 342.786 199.77Z" fill="#263238"/>
<path d="M320.465 135.361C320.397 135.493 320.316 135.618 320.222 135.734L319.468 136.74L316.733 140.292V140.103L321.189 143.596L321.587 143.915H321.373L325.23 139.096V139.274L322.328 136.906L321.533 136.237C321.434 136.161 321.345 136.073 321.266 135.977C321.266 135.977 321.385 136.036 321.581 136.178L322.417 136.77L325.384 139.043L325.485 139.12L325.402 139.221C324.304 140.63 322.999 142.287 321.593 144.075L321.498 144.199L321.373 144.105L320.993 143.856C319.385 142.577 317.872 141.37 316.561 140.334L316.454 140.245L316.537 140.144L319.362 136.675L320.169 135.71C320.347 135.461 320.453 135.349 320.465 135.361Z" fill="#263238"/>
<path d="M331.786 207.117C327.514 206.921 323.258 206.467 319.041 205.756C314.051 204.962 314.105 204.506 314.295 203.938C314.769 202.411 323.123 205.004 321.622 203.399C320.121 201.795 311.073 201.416 311.636 199.847C312.372 197.793 321.07 200.67 321.824 200.86C322.578 201.049 322.845 199.966 322.156 199.83C321.171 199.634 310.83 197.355 311.53 195.33C311.921 194.206 313.867 195.147 313.867 195.147C313.867 195.147 323.402 198 323.705 197.029C324.007 196.059 318.466 194.182 316.549 193.691C314.633 193.199 314.105 192.098 314.995 191.435C315.588 190.985 321.521 192.364 323.367 192.903C325.212 193.442 330.38 194.993 328.422 192.163L328.339 192.027C326.333 189.292 325.698 186.521 326.06 185.592C326.16 185.398 326.311 185.235 326.498 185.122C326.684 185.008 326.898 184.948 327.117 184.948C327.335 184.948 327.549 185.008 327.735 185.122C327.922 185.235 328.073 185.398 328.173 185.592C328.268 185.729 328.335 185.884 328.368 186.048C328.387 186.13 328.411 186.211 328.44 186.291C328.912 187.352 329.492 188.362 330.172 189.304C330.76 190.165 331.49 190.919 332.332 191.536C333.305 192.24 335.767 194.833 336.485 195.295" fill="#FFBE9D"/>
<path d="M155.21 172.219C152.538 172.17 149.987 171.098 148.085 169.224C146.183 167.351 145.076 164.82 144.993 162.155C144.85 157.543 144.744 153.097 144.744 153.097C144.744 153.097 136.253 152.31 135.63 143.927C135.007 135.544 135.274 116.192 135.274 116.192C139.928 113.848 145.125 112.786 150.327 113.116C155.53 113.446 160.55 115.156 164.87 118.068L166.175 118.951L165.813 161.93C165.8 163.302 165.515 164.658 164.973 165.919C164.432 167.18 163.646 168.322 162.66 169.279C161.675 170.235 160.509 170.988 159.23 171.492C157.951 171.997 156.585 172.244 155.21 172.219Z" fill="#F7BDA6"/>
<path d="M144.536 138.753C144.536 138.658 143.812 138.558 142.637 138.469C142.329 138.469 142.091 138.404 142.044 138.244C142.018 137.94 142.076 137.635 142.21 137.362L142.993 134.976C144.049 131.554 144.773 128.736 144.589 128.683C144.405 128.63 143.403 131.359 142.358 134.781C142.109 135.615 141.872 136.415 141.641 137.202C141.468 137.602 141.436 138.049 141.552 138.469C141.603 138.581 141.679 138.68 141.775 138.758C141.871 138.836 141.983 138.891 142.103 138.919C142.275 138.952 142.451 138.964 142.625 138.954C143.8 138.907 144.53 138.842 144.536 138.753Z" fill="#1D2B32"/>
<path d="M148.375 139.795C146.592 140.655 144.722 141.324 142.798 141.79C143.228 142.373 143.843 142.793 144.544 142.983C145.244 143.172 145.988 143.119 146.654 142.832C149.111 141.754 148.375 139.795 148.375 139.795Z" fill="white"/>
<path d="M144.726 152.967C148.612 152.801 152.362 151.484 155.495 149.184C155.495 149.184 153.276 155.382 144.815 155.139L144.726 152.967Z" fill="#A36957"/>
<path d="M165.706 129.305C165.704 128.981 165.826 128.67 166.046 128.433C166.267 128.196 166.57 128.053 166.893 128.032C168.465 127.99 171.046 128.624 171.272 132.928C171.616 139.102 165.665 137.563 165.647 137.385C165.629 137.208 165.688 131.702 165.706 129.305Z" fill="#F7BDA6"/>
<path d="M167.035 134.976C167.035 134.976 167.142 135.047 167.332 135.118C167.591 135.222 167.88 135.222 168.139 135.118C168.78 134.84 169.272 133.774 169.236 132.661C169.226 132.131 169.094 131.611 168.851 131.14C168.783 130.95 168.67 130.78 168.521 130.643C168.372 130.507 168.192 130.409 167.996 130.358C167.87 130.332 167.739 130.351 167.625 130.412C167.511 130.472 167.422 130.571 167.373 130.69C167.302 130.868 167.373 130.986 167.314 130.998C167.255 131.01 167.178 130.903 167.213 130.643C167.24 130.49 167.317 130.35 167.433 130.246C167.514 130.177 167.608 130.124 167.71 130.092C167.812 130.059 167.92 130.047 168.026 130.056C168.284 130.092 168.529 130.192 168.737 130.349C168.944 130.505 169.108 130.712 169.213 130.95C169.504 131.457 169.668 132.025 169.693 132.608C169.723 133.851 169.147 135.053 168.269 135.361C168.106 135.418 167.933 135.437 167.761 135.418C167.589 135.398 167.424 135.34 167.278 135.248C167.053 135.106 167.011 134.976 167.035 134.976Z" fill="#A36957"/>
<path d="M137.908 130.394C137.928 130.691 138.063 130.968 138.285 131.167C138.507 131.366 138.797 131.471 139.095 131.459C139.241 131.461 139.385 131.433 139.52 131.378C139.655 131.323 139.777 131.241 139.879 131.138C139.982 131.035 140.062 130.912 140.116 130.777C140.17 130.642 140.196 130.498 140.193 130.352C140.176 130.054 140.042 129.774 139.82 129.574C139.598 129.373 139.305 129.268 139.006 129.281C138.86 129.28 138.716 129.308 138.581 129.364C138.446 129.42 138.324 129.502 138.222 129.606C138.119 129.71 138.039 129.833 137.985 129.968C137.931 130.104 137.905 130.248 137.908 130.394Z" fill="#1D2B32"/>
<path d="M135.968 129.251C136.123 129.388 136.941 128.659 138.164 128.606C139.386 128.553 140.335 129.068 140.454 128.914C140.573 128.76 140.353 128.582 139.944 128.322C139.385 127.993 138.739 127.844 138.092 127.896C137.455 127.935 136.848 128.177 136.36 128.588C136.004 128.914 135.873 129.186 135.968 129.251Z" fill="#1D2B32"/>
<path d="M150.113 130.181C150.132 130.478 150.266 130.756 150.488 130.956C150.71 131.155 151.002 131.259 151.3 131.246C151.446 131.248 151.591 131.22 151.726 131.165C151.861 131.11 151.983 131.029 152.086 130.925C152.189 130.822 152.27 130.699 152.325 130.564C152.379 130.429 152.406 130.285 152.404 130.139C152.384 129.843 152.249 129.565 152.027 129.366C151.805 129.167 151.515 129.062 151.217 129.074C151.071 129.073 150.927 129.101 150.792 129.156C150.658 129.212 150.535 129.294 150.433 129.397C150.33 129.5 150.249 129.622 150.194 129.757C150.139 129.891 150.112 130.035 150.113 130.181Z" fill="#1D2B32"/>
<path d="M148.41 129.251C148.565 129.388 149.384 128.659 150.606 128.606C151.828 128.553 152.771 129.068 152.896 128.914C153.021 128.76 152.795 128.582 152.38 128.322C151.824 127.993 151.179 127.844 150.535 127.896C149.897 127.935 149.29 128.177 148.802 128.588C148.446 128.914 148.333 129.186 148.41 129.251Z" fill="#1D2B32"/>
<path d="M156.521 113.285C155.966 114.592 155.803 116.031 156.051 117.429C156.3 118.827 156.95 120.122 157.922 121.159C158.746 122.011 159.791 122.662 160.509 123.616C161.992 125.587 161.749 128.298 161.986 130.749C162.093 131.886 162.36 133.117 163.173 133.869C163.985 134.621 165.576 134.698 166.139 133.721C166.298 133.411 166.402 133.077 166.448 132.732C166.966 129.997 167.48 127.264 167.99 124.533C168.376 122.479 168.768 120.389 168.412 118.317C168.204 117.112 167.745 115.964 167.066 114.946C166.387 113.928 165.501 113.064 164.467 112.408C163.432 111.752 162.272 111.32 161.06 111.138C159.848 110.957 158.611 111.031 157.429 111.355" fill="#1D2B32"/>
<path d="M157.827 111.551C154.973 111.006 153.371 110.094 151.353 109.183C149.361 108.196 147.085 107.938 144.922 108.454C143.486 108.857 142.127 109.721 140.65 109.703C139.172 109.686 137.861 108.821 136.461 108.377C135.502 108.082 134.494 107.982 133.496 108.084C132.498 108.186 131.531 108.487 130.652 108.969C129.27 109.727 128.029 111.083 127.911 112.74C127.792 114.398 129.275 116.109 130.765 115.635C129.21 116.174 128.581 118.459 129.353 119.981C129.756 120.696 130.371 121.269 131.113 121.622C131.856 121.975 132.689 122.09 133.5 121.952C135.142 121.59 136.616 120.692 137.689 119.4C137.725 121.247 139.582 122.544 141.302 122.491C143.023 122.437 144.578 121.407 145.996 120.348C147.414 119.288 148.85 118.134 150.535 117.761C151.721 117.5 152.908 117.642 154.095 117.5C155.281 117.358 156.557 116.843 157.132 115.724C157.708 114.605 159.986 113.291 158.794 113.255" fill="#1D2B32"/>
<path d="M140.917 120.638C141.122 120.761 141.334 120.874 141.552 120.975C142.17 121.18 142.838 121.18 143.456 120.975C143.886 120.85 144.297 120.669 144.678 120.436C145.094 120.188 145.515 119.844 145.966 119.543C146.435 119.186 146.933 118.87 147.455 118.595C148.033 118.301 148.67 118.141 149.318 118.128C150.641 118.128 151.834 118.459 152.914 118.364C153.389 118.336 153.852 118.203 154.271 117.976C154.689 117.749 155.052 117.433 155.335 117.05C155.735 116.536 155.985 115.921 156.059 115.274C156.106 114.812 156.059 114.552 156.088 114.552C156.118 114.552 156.118 114.611 156.142 114.736C156.173 114.915 156.184 115.098 156.177 115.28C156.15 115.964 155.919 116.624 155.513 117.175C155.24 117.564 154.891 117.894 154.486 118.145C154.019 118.431 153.49 118.601 152.944 118.643C151.792 118.755 150.57 118.406 149.33 118.43C148.09 118.453 147.022 119.134 146.132 119.768C145.675 120.087 145.248 120.401 144.809 120.65C144.403 120.886 143.966 121.064 143.51 121.176C142.851 121.377 142.143 121.346 141.504 121.088C141.335 121.009 141.179 120.905 141.041 120.78C140.954 120.693 140.913 120.646 140.917 120.638Z" fill="#1D2B32"/>
<path d="M156.943 108.626C156.948 109.285 157.006 109.942 157.115 110.591C157.322 111.218 157.582 111.826 157.892 112.409C157.364 111.952 156.989 111.344 156.819 110.667C156.649 109.99 156.693 109.278 156.943 108.626Z" fill="#1D2B32"/>
<path d="M160.105 108.496C160.17 108.561 159.405 109.283 158.835 110.42C158.266 111.556 158.106 112.587 158.017 112.569C157.952 111.768 158.141 110.966 158.556 110.278C158.879 109.54 159.419 108.919 160.105 108.496Z" fill="#1D2B32"/>
<path d="M199.781 196.278L212.698 229.436H192.928L183.714 205.827L199.781 196.278Z" fill="#F7BDA6"/>
<path d="M129.768 169.353C129.768 169.353 112.733 186.847 105.376 186.847C102.967 186.847 101.08 157.709 101.051 149.308C101.441 148.224 102 147.207 102.706 146.295C103.329 145.428 104.047 144.634 104.848 143.927C105.859 143.063 106.982 142.34 108.188 141.778C109.339 141.375 109.434 139.807 108.384 139.493C107.334 139.179 104.142 140.215 101.264 142.921C98.3865 145.626 99.2587 139.57 99.5317 137.362C99.8046 135.154 100.321 128.269 99.7037 127.665C98.8019 126.777 97.6567 127.6 97.4313 129.814C97.2058 132.028 96.12 138.646 94.9333 138.475C93.7467 138.303 95.3249 127.061 95.3249 127.061C95.3249 127.061 96.0429 124.693 94.7316 124.456C92.3108 124.024 91.5573 136.077 91.5157 137.226C91.5157 138.025 90.2104 137.889 90.2875 137.03C90.3647 136.172 92.0675 125.841 89.6289 125.374C87.7481 125.019 88.9169 135.29 87.3683 137.261C85.8197 139.232 87.2793 129.358 85.4637 129.091C84.7873 128.997 84.2771 129.015 84.2771 134.781C84.2771 137.883 85.4637 142.565 85.0009 148.533C85.7841 166.151 84.9179 215.624 104.581 209.763C126.184 203.311 140.946 189.191 140.946 189.191L129.768 169.353Z" fill="#F7BDA6"/>
<path d="M177.46 185.03C177.548 185.255 177.611 185.489 177.65 185.728C177.757 186.178 177.893 186.835 178.047 187.652C178.35 189.286 178.712 191.553 178.991 194.069C179.27 196.585 179.412 198.876 179.471 200.534C179.471 201.363 179.513 202.038 179.507 202.499C179.526 202.741 179.514 202.983 179.471 203.222C179.421 202.986 179.393 202.746 179.388 202.505C179.353 201.979 179.305 201.321 179.252 200.546C179.139 198.894 178.961 196.615 178.659 194.105C178.356 191.595 178.065 189.327 177.804 187.688C177.686 186.918 177.591 186.273 177.508 185.752C177.464 185.514 177.448 185.271 177.46 185.03Z" fill="#1D2B32"/>
<path d="M126.884 229.436L181.305 229.708L179.471 218.247C179.952 212.808 179.926 207.336 179.394 201.902L182.153 209.355L204.647 198.107C204.647 198.107 196.47 176.357 189.623 168.986C180.979 159.674 165.415 160.604 165.415 160.604L154.902 167.708L145.224 160.906C140.033 161.513 134.98 162.98 130.272 165.245L129.774 165.387V165.494C124.066 168.454 115.92 175.717 108.165 182.756L117.118 191.453L127.033 200.67C127.594 200.587 128.163 200.563 128.73 200.599C128.896 201.617 126.884 229.436 126.884 229.436Z" fill="#848788"/>
<path opacity="0.2" d="M177.721 181.555L185.12 207.875L182.153 209.355L179.4 201.902C179.4 201.902 176.712 186.296 177.721 181.555Z" fill="black"/>
<path d="M144.619 160.829V157.987C144.619 157.987 153.116 157.33 154.836 167.347C154.836 167.347 157.607 157.987 165.854 157.046L167.041 161.421C167.041 161.421 163.131 173.61 162.567 173.716C162.004 173.823 154.854 175.901 154.854 175.901L150.701 174.966L146.102 169.738L144.619 160.829Z" fill="#848788"/>
<path d="M167.225 161.089C167.085 161.269 166.926 161.434 166.75 161.58C166.442 161.894 165.991 162.332 165.457 162.907C164.071 164.39 162.836 166.009 161.772 167.737C161.511 168.164 161.274 168.584 161.048 168.992L160.912 169.241L160.781 168.992C159.838 167.216 159.001 165.677 158.361 164.475C158.223 164.244 158.039 164.042 157.821 163.883C157.645 163.762 157.44 163.691 157.227 163.676C157.051 163.674 156.876 163.704 156.711 163.765C156.711 163.765 156.848 163.576 157.233 163.57C157.464 163.566 157.691 163.63 157.886 163.753C158.14 163.918 158.354 164.137 158.515 164.392C159.185 165.511 160.04 167.08 161.031 168.874H160.793C161.019 168.46 161.256 168.027 161.523 167.601C162.59 165.848 163.863 164.229 165.315 162.776C165.872 162.22 166.347 161.8 166.685 161.515C166.844 161.348 167.026 161.205 167.225 161.089Z" fill="#1D2B32"/>
<path d="M144.067 161.616C144.22 161.74 144.355 161.883 144.471 162.042C144.72 162.332 145.064 162.753 145.485 163.279C146.334 164.327 147.485 165.79 148.743 167.423L148.944 167.684H148.683C149.14 166.849 149.176 165.908 149.384 165.044C149.516 164.259 149.939 163.553 150.57 163.066C150.793 162.919 151.047 162.824 151.313 162.791C151.578 162.757 151.848 162.784 152.101 162.871C152.234 162.927 152.356 163.005 152.463 163.102C152.528 163.179 152.552 163.22 152.546 163.226C152.395 163.128 152.234 163.047 152.065 162.983C151.831 162.925 151.586 162.918 151.348 162.963C151.111 163.008 150.886 163.104 150.689 163.244C150.134 163.721 149.773 164.384 149.674 165.109C149.564 166.044 149.327 166.961 148.968 167.832L148.855 168.039L148.713 167.85L148.511 167.589C147.253 165.961 146.138 164.475 145.325 163.392C144.928 162.853 144.607 162.409 144.388 162.101C144.261 161.954 144.153 161.791 144.067 161.616Z" fill="#1D2B32"/>
<path d="M150.113 229.436C150.106 229.381 150.106 229.325 150.113 229.27C150.113 229.151 150.113 228.992 150.113 228.802C150.113 228.364 150.167 227.76 150.208 226.991C150.309 225.398 150.457 223.131 150.63 220.342C151.021 214.707 151.555 206.963 152.143 198.409L153.739 176.505C153.958 173.716 154.136 171.455 154.261 169.863C154.326 169.093 154.379 168.489 154.421 168.057C154.421 167.862 154.457 167.708 154.468 167.583C154.462 167.532 154.462 167.481 154.468 167.429C154.479 167.482 154.479 167.537 154.468 167.589V168.057C154.468 168.495 154.409 169.099 154.368 169.868C154.267 171.461 154.124 173.728 153.946 176.517C153.561 182.152 153.027 189.896 152.439 198.45C151.852 207.005 151.253 214.748 150.837 220.354C150.618 223.143 150.446 225.404 150.321 226.996C150.25 227.766 150.196 228.37 150.161 228.808C150.161 228.997 150.125 229.151 150.113 229.276C150.122 229.329 150.122 229.383 150.113 229.436Z" fill="#1D2B32"/>
<path d="M130.575 176.771C130.585 177.086 130.567 177.401 130.521 177.712C130.474 178.37 130.403 179.228 130.32 180.27C130.16 182.425 129.993 185.414 129.809 188.718C129.626 192.021 129.424 195.005 129.216 197.166C129.109 198.243 129.003 199.119 128.914 199.717C128.885 200.031 128.827 200.343 128.741 200.647C128.731 200.332 128.749 200.017 128.795 199.705C128.848 199.048 128.914 198.184 128.997 197.148C129.163 194.987 129.323 191.997 129.513 188.7C129.703 185.403 129.893 182.407 130.106 180.246C130.213 179.169 130.32 178.299 130.409 177.695C130.438 177.383 130.494 177.074 130.575 176.771Z" fill="#1D2B32"/>
<path d="M154.267 165.914C154.267 165.914 151.347 169.72 151.775 170.289L154.267 173.61H156.047C156.047 173.61 157.708 168.957 157.281 168.365C156.854 167.773 154.267 165.914 154.267 165.914Z" fill="#FAAC84"/>
<path d="M158.717 164.89L155.495 167.4L156.729 169.762L160.04 167.323L158.717 164.89Z" fill="#FAAC84"/>
<path d="M149.253 166.476L152.19 168.921L153.816 166.476L150.107 163.664L149.253 166.476Z" fill="#FAAC84"/>
<path d="M154.231 173.604L149.751 213.659L154.16 227.583L160.04 213.783L156.171 173.13L154.231 173.604Z" fill="#FAAC84"/>
<path d="M185.577 166.163C185.392 166.013 185.193 165.88 184.984 165.766C184.404 165.498 183.745 165.46 183.138 165.659C182.25 165.999 181.461 166.555 180.842 167.276C180.025 168.116 179.32 169.057 178.742 170.076C177.699 171.939 177.091 174.013 176.962 176.144C176.867 177.784 177.074 178.796 177.009 178.802C176.936 178.572 176.884 178.336 176.855 178.097C176.764 177.448 176.728 176.793 176.748 176.138C176.811 173.957 177.403 171.824 178.475 169.922C179.064 168.879 179.793 167.921 180.64 167.074C181.298 166.331 182.138 165.772 183.079 165.452C183.404 165.354 183.745 165.321 184.082 165.357C184.419 165.393 184.746 165.495 185.043 165.659C185.201 165.751 185.343 165.867 185.464 166.003C185.553 166.097 185.583 166.157 185.577 166.163Z" fill="#1D2B32"/>
<path d="M227.982 116.624C224.179 118.951 221.539 122.84 219.972 127.002C218.406 131.163 217.813 135.627 217.35 140.026C216.124 151.719 215.714 163.482 216.122 175.232C230.498 177.043 244.987 178.867 259.435 177.884C256.925 161.409 255.335 144.951 257.346 128.405" fill="#263238"/>
<path d="M260.278 253.536L249.793 232.413L253.792 216.962C254.261 220.236 254.676 223.077 254.676 223.077L277.134 221.893C277.332 221.883 277.525 221.832 277.702 221.743C277.879 221.654 278.035 221.529 278.16 221.376C278.286 221.224 278.378 221.047 278.431 220.856C278.485 220.666 278.497 220.467 278.469 220.271L274.12 189.369C274.12 189.369 272.714 175.031 259.109 169.703H259.043C258.498 169.49 257.928 169.3 257.341 169.111C239.001 162.764 221.824 162.806 202.712 169.312C202.712 169.312 194.222 171.591 190.104 182.644C185.986 193.696 181.797 209.941 181.797 209.941L200.843 216.672L200.968 213.457L205.181 229.536L195.942 252.956L228.19 253.749L260.278 253.536Z" fill="#08A9A0"/>
<path d="M181.815 209.734L179.673 219.798C177.834 228.471 184.272 237.374 193.1 238.375L240.039 243.182C242.512 243.46 245.017 243.241 247.404 242.539C249.792 241.837 252.014 240.665 253.941 239.093C255.868 237.521 257.46 235.58 258.623 233.385C259.787 231.189 260.499 228.784 260.717 226.31L201.538 220.686L201.905 215.014L181.815 209.734Z" fill="#08A9A0"/>
<path d="M240.514 220.029L244.157 219.354C244.157 219.354 252.796 209.923 254.415 209.793C255.75 209.68 263.102 209.752 265.689 209.793C265.923 209.796 266.146 209.891 266.31 210.057C266.475 210.223 266.567 210.447 266.567 210.681C266.567 210.911 266.477 211.133 266.317 211.299C266.156 211.464 265.937 211.561 265.707 211.569L257.026 211.906L256.985 212.605L265.677 212.717C266.567 212.788 267.131 214.186 264.3 214.44L257.026 214.695V215.145L264.401 216.175C264.775 216.228 265.754 216.417 265.76 216.796C265.76 216.796 266.211 217.714 264.105 217.98C263.387 218.069 256.985 217.856 256.985 217.856L257.228 218.448L263.861 219.875C264.093 219.925 264.298 220.061 264.433 220.255C264.568 220.45 264.625 220.688 264.591 220.923C264.558 221.162 264.434 221.38 264.244 221.53C264.053 221.681 263.812 221.751 263.571 221.728L256.492 221.076L249.538 226.612H240.223L240.514 220.029Z" fill="#FFBE9D"/>
<path d="M217.445 164.754C217.445 164.754 226.588 211.403 229.81 211.066C233.032 210.728 248.144 166.352 248.144 166.352C248.144 166.352 228.831 160.485 217.445 164.754Z" fill="#FAFAFA"/>
<path d="M257.904 209.911C257.821 209.911 257.75 206.691 257.75 202.724C257.75 198.758 257.821 195.544 257.904 195.544C257.987 195.544 258.058 198.758 258.058 202.724C258.058 206.691 257.993 209.911 257.904 209.911Z" fill="#263238"/>
<path d="M201.775 210.213C201.788 209.521 201.851 208.83 201.965 208.147C202.125 206.868 202.362 205.116 202.647 203.18C202.932 201.244 203.199 199.486 203.412 198.225C203.498 197.535 203.635 196.853 203.822 196.183C203.809 196.877 203.745 197.57 203.632 198.255C203.472 199.528 203.234 201.286 202.95 203.222C202.665 205.158 202.398 206.904 202.184 208.171C202.099 208.861 201.962 209.544 201.775 210.213Z" fill="#263238"/>
<path d="M228.19 253.719C228.173 253.576 228.173 253.431 228.19 253.287C228.19 252.973 228.19 252.565 228.19 252.05C228.19 250.972 228.19 249.416 228.232 247.492C228.303 243.644 228.51 238.333 228.777 232.472C229.044 226.612 229.282 221.301 229.412 217.453C229.466 215.559 229.513 214.014 229.549 212.901C229.549 212.392 229.549 211.977 229.584 211.664C229.581 211.519 229.593 211.374 229.62 211.232C229.633 211.375 229.633 211.52 229.62 211.664C229.62 211.975 229.62 212.39 229.62 212.907C229.62 213.978 229.62 215.535 229.584 217.459C229.513 221.307 229.3 226.618 229.039 232.484C228.777 238.351 228.528 243.655 228.404 247.497C228.344 249.398 228.297 250.943 228.267 252.05C228.267 252.565 228.267 252.979 228.226 253.287C228.223 253.432 228.211 253.576 228.19 253.719Z" fill="#263238"/>
<path d="M248.067 166.275C248.067 166.275 248.096 166.476 248.168 166.867C248.27 167.418 248.427 167.957 248.636 168.477C248.971 169.296 249.367 170.087 249.823 170.845C250.438 171.857 250.998 172.9 251.502 173.971C252.147 175.285 252.395 176.758 252.214 178.21C252.067 179.016 251.741 179.778 251.259 180.442C250.757 181.131 250.198 181.777 249.586 182.372C248.279 183.62 247.088 184.983 246.026 186.444C244.893 188.01 244.255 189.878 244.192 191.808C244.193 192.778 244.408 193.736 244.821 194.614C245.256 195.477 245.64 196.365 245.972 197.272C246.122 197.734 246.185 198.22 246.156 198.705C246.122 199.188 245.969 199.656 245.711 200.066C245.172 200.798 244.503 201.425 243.735 201.913L236.301 207.384L231.275 211.042L229.899 212.031L229.537 212.279L229.406 212.356C229.406 212.356 229.442 212.315 229.519 212.25L229.863 211.977L231.204 210.947L236.147 207.2L243.54 201.683C244.276 201.213 244.917 200.611 245.432 199.907C245.666 199.538 245.805 199.117 245.836 198.681C245.858 198.23 245.798 197.779 245.658 197.349C245.328 196.455 244.946 195.581 244.513 194.732C244.082 193.818 243.859 192.819 243.86 191.808C243.922 189.817 244.582 187.891 245.753 186.279C246.826 184.801 248.033 183.426 249.36 182.17C250.577 180.986 251.698 179.678 251.935 178.162C252.121 176.76 251.892 175.334 251.277 174.06C250.789 172.988 250.245 171.942 249.645 170.928C249.201 170.152 248.819 169.342 248.5 168.507C248.299 167.976 248.16 167.424 248.085 166.861C248.063 166.716 248.049 166.57 248.043 166.423C248.043 166.373 248.051 166.323 248.067 166.275Z" fill="#263238"/>
<path d="M229.774 210.586H229.632L229.211 210.509C228.674 210.398 228.145 210.254 227.626 210.077C225.714 209.432 223.944 208.427 222.411 207.117C220.119 205.15 218.455 202.557 217.623 199.658C217.132 197.955 216.932 196.182 217.029 194.413C217.078 193.481 217.203 192.554 217.403 191.642C217.63 190.735 217.656 189.79 217.48 188.872C217.357 188.436 217.107 188.047 216.762 187.753C216.394 187.484 215.98 187.284 215.54 187.161C215.101 187.013 214.644 186.894 214.199 186.711C213.757 186.528 213.355 186.263 213.013 185.929C212.37 185.254 211.944 184.403 211.79 183.484C211.626 182.629 211.578 181.754 211.648 180.886C211.925 177.912 212.579 174.986 213.594 172.177C214.271 170.286 215.105 168.455 216.086 166.701C216.436 166.109 216.721 165.612 216.929 165.304L217.16 164.949C217.183 164.905 217.213 164.865 217.249 164.831C217.249 164.831 217.249 164.878 217.19 164.961L216.982 165.334C216.792 165.653 216.525 166.139 216.187 166.76C215.259 168.528 214.465 170.362 213.814 172.248C212.845 175.048 212.218 177.954 211.945 180.903C211.887 181.747 211.939 182.595 212.099 183.425C212.246 184.284 212.642 185.08 213.238 185.716C213.56 186.02 213.937 186.261 214.348 186.427C214.763 186.598 215.214 186.717 215.671 186.871C216.147 187.008 216.594 187.233 216.988 187.534C217.382 187.867 217.667 188.31 217.807 188.807C217.998 189.769 217.973 190.761 217.736 191.713C217.54 192.614 217.415 193.528 217.362 194.448C217.274 196.186 217.474 197.926 217.955 199.599C218.761 202.453 220.379 205.013 222.613 206.969C224.117 208.285 225.851 209.315 227.727 210.006C228.392 210.243 228.914 210.397 229.288 210.492L229.697 210.598C229.723 210.593 229.748 210.589 229.774 210.586Z" fill="#263238"/>
<path d="M254.469 220.094L215.149 218.827L215.208 231.851L241.243 237.558L259.56 240.476C270.94 240.476 280.047 230.051 278.285 218.833H278.238L254.469 220.094Z" fill="#08A9A0"/>
<path d="M265.291 219.845C265.123 219.872 264.952 219.884 264.781 219.881L263.321 219.922L257.946 220.017C253.407 220.088 247.135 220.165 240.205 220.094C233.275 220.023 227.003 219.78 222.47 219.502C220.204 219.348 218.376 219.206 217.13 219.075L215.677 218.927C215.505 218.918 215.334 218.895 215.166 218.856C215.336 218.842 215.507 218.842 215.677 218.856L217.136 218.945C218.406 219.034 220.239 219.147 222.476 219.271C227.009 219.519 233.275 219.739 240.205 219.804C247.135 219.869 253.395 219.804 257.934 219.804H263.315H264.775C264.948 219.805 265.12 219.818 265.291 219.845Z" fill="#263238"/>
<path d="M214.816 220.029L211.173 219.354C211.173 219.354 202.534 209.923 200.909 209.793C199.58 209.68 192.228 209.752 189.665 209.793C189.431 209.796 189.208 209.891 189.043 210.057C188.879 210.223 188.787 210.447 188.787 210.681C188.787 210.91 188.875 211.131 189.035 211.297C189.194 211.462 189.411 211.56 189.641 211.569L198.328 211.906L198.369 212.605L189.671 212.717C188.787 212.788 188.217 214.186 191.053 214.44L198.328 214.695V215.145L190.952 216.175C190.579 216.228 189.6 216.417 189.588 216.796C189.588 216.796 189.143 217.714 191.243 217.98C191.967 218.069 198.363 217.856 198.363 217.856L198.114 218.448L191.486 219.875C191.255 219.926 191.051 220.062 190.914 220.256C190.778 220.45 190.72 220.688 190.751 220.923C190.785 221.162 190.91 221.379 191.1 221.529C191.29 221.679 191.53 221.75 191.771 221.728L198.856 221.076L205.81 226.612H215.101L214.816 220.029Z" fill="#FFBE9D"/>
<path d="M258.859 240.263C258.712 240.28 258.562 240.28 258.414 240.263L257.145 240.127C256.035 240.003 254.445 239.801 252.475 239.535C248.535 238.99 243.112 238.132 237.161 236.972C231.21 235.811 225.888 234.556 222.008 233.574C220.085 233.088 218.531 232.674 217.463 232.39L216.234 232.034C216.089 231.998 215.946 231.95 215.807 231.892C215.956 231.905 216.103 231.932 216.246 231.975L217.492 232.271L222.061 233.384C225.924 234.308 231.275 235.521 237.221 236.687C243.166 237.854 248.583 238.742 252.505 239.34L257.157 240.032L258.42 240.228C258.567 240.231 258.714 240.243 258.859 240.263Z" fill="#263238"/>
<path d="M215.564 231.904C215.391 231.299 215.276 230.678 215.22 230.051C215.066 228.867 214.899 227.292 214.804 225.522C214.71 223.752 214.715 222.136 214.751 220.97C214.743 220.341 214.792 219.713 214.899 219.093C214.97 219.718 214.994 220.347 214.971 220.976C214.971 222.16 215.024 223.735 215.113 225.505C215.202 227.275 215.338 228.867 215.439 230.022C215.523 230.646 215.564 231.275 215.564 231.904Z" fill="#263238"/>
<path d="M219.86 232.413C219.781 232.256 219.723 232.089 219.688 231.916C219.599 231.596 219.48 231.123 219.361 230.537C218.729 227.465 218.53 224.321 218.768 221.195C218.815 220.603 218.875 220.112 218.928 219.78C218.938 219.606 218.974 219.434 219.035 219.271C219.057 219.917 219.041 220.563 218.987 221.207C218.94 222.391 218.922 224.048 219.035 225.866C219.148 227.683 219.361 229.317 219.551 230.495C219.694 231.128 219.797 231.768 219.86 232.413Z" fill="#263238"/>
<path d="M216.228 221.177C216.264 221.213 216.039 221.372 216.045 221.769C216.044 221.87 216.066 221.969 216.106 222.061C216.147 222.152 216.207 222.235 216.282 222.302C216.379 222.367 216.494 222.401 216.611 222.401C216.728 222.401 216.843 222.367 216.94 222.302C217.047 222.246 217.134 222.16 217.19 222.055C217.246 221.949 217.269 221.829 217.255 221.71C217.235 221.612 217.195 221.519 217.137 221.437C217.078 221.355 217.003 221.287 216.917 221.236C216.602 221.047 216.323 221.159 216.323 221.112C216.323 221.065 216.567 220.857 217.012 221.047C217.139 221.099 217.252 221.179 217.342 221.282C217.433 221.385 217.498 221.507 217.534 221.639C217.555 221.814 217.524 221.992 217.444 222.15C217.364 222.308 217.24 222.439 217.086 222.527C216.932 222.615 216.756 222.655 216.579 222.644C216.402 222.632 216.233 222.569 216.092 222.462C215.99 222.367 215.913 222.249 215.865 222.118C215.818 221.988 215.802 221.848 215.819 221.71C215.89 221.254 216.228 221.136 216.228 221.177Z" fill="#263238"/>
<path d="M223.378 234.337C223.244 234.354 223.109 234.354 222.975 234.337C222.708 234.337 222.322 234.337 221.818 234.337C220.404 234.374 218.995 234.507 217.599 234.734C215.53 235.084 213.481 235.539 211.458 236.095C209.162 236.687 206.658 237.427 203.97 238.014C201.442 238.602 198.852 238.882 196.257 238.848C194.135 238.793 192.037 238.394 190.045 237.664C188.708 237.159 187.456 236.454 186.33 235.575C186.028 235.334 185.741 235.075 185.47 234.799C185.368 234.711 185.277 234.612 185.197 234.503C185.197 234.503 185.607 234.882 186.384 235.48C187.52 236.314 188.771 236.98 190.098 237.457C192.085 238.16 194.173 238.538 196.281 238.576C198.847 238.592 201.406 238.306 203.905 237.723C206.575 237.131 209.085 236.421 211.387 235.829C213.423 235.285 215.487 234.85 217.569 234.527C218.976 234.32 220.396 234.221 221.818 234.231C222.322 234.231 222.714 234.231 222.975 234.284C223.111 234.289 223.246 234.307 223.378 234.337Z" fill="#263238"/>
<path d="M240.674 170.247C241.605 165.05 242.685 159.591 242.685 159.591C242.685 159.591 249.603 159.656 252.54 151.155C255.341 143.045 257.364 123.533 257.364 123.533C252.932 120.784 247.764 119.453 242.553 119.719C237.341 119.985 232.336 121.834 228.208 125.019L221.313 167.394C220.512 172.313 224.114 176.919 229.4 177.73C234.735 178.553 239.784 175.232 240.674 170.247Z" fill="#FFBE9D"/>
<path d="M252.22 138.143C252.172 138.436 252.011 138.698 251.771 138.874C251.532 139.05 251.233 139.125 250.938 139.084C250.793 139.072 250.651 139.03 250.522 138.962C250.393 138.894 250.279 138.8 250.187 138.687C250.095 138.573 250.027 138.443 249.987 138.303C249.947 138.162 249.935 138.016 249.954 137.871C250.003 137.578 250.165 137.315 250.406 137.14C250.646 136.964 250.946 136.888 251.241 136.93C251.386 136.944 251.526 136.986 251.654 137.055C251.782 137.124 251.895 137.218 251.987 137.331C252.078 137.444 252.145 137.574 252.185 137.713C252.226 137.853 252.237 137.999 252.22 138.143Z" fill="#263238"/>
<path d="M254.267 137.208C254.101 137.332 253.359 136.551 252.149 136.343C250.938 136.136 249.948 136.58 249.841 136.409C249.787 136.338 249.977 136.095 250.434 135.882C251.022 135.613 251.679 135.531 252.315 135.645C252.945 135.756 253.525 136.063 253.97 136.521C254.267 136.87 254.344 137.155 254.267 137.208Z" fill="#263238"/>
<path d="M239.796 136.16C239.746 136.452 239.585 136.713 239.346 136.889C239.106 137.065 238.808 137.141 238.514 137.101C238.226 137.074 237.961 136.934 237.776 136.712C237.592 136.491 237.503 136.205 237.529 135.917C237.579 135.624 237.741 135.361 237.981 135.184C238.221 135.007 238.521 134.931 238.817 134.97C239.104 135 239.368 135.142 239.551 135.364C239.734 135.587 239.822 135.873 239.796 136.16Z" fill="#263238"/>
<path d="M241.564 135.432C241.398 135.55 240.656 134.775 239.446 134.562C238.235 134.348 237.244 134.804 237.138 134.633C237.084 134.556 237.268 134.313 237.731 134.1C238.319 133.831 238.976 133.75 239.612 133.869C240.242 133.976 240.822 134.281 241.267 134.739C241.564 135.088 241.641 135.379 241.564 135.432Z" fill="#263238"/>
<path d="M244.37 145.152C245.044 145.072 245.725 145.072 246.399 145.152C246.714 145.152 246.993 145.152 247.106 144.963C247.188 144.65 247.174 144.32 247.064 144.016C246.904 143.217 246.738 142.382 246.566 141.506C245.883 137.954 245.45 135.029 245.598 134.994C245.747 134.958 246.405 137.835 247.088 141.399C247.248 142.281 247.402 143.116 247.545 143.915C247.671 144.321 247.653 144.759 247.491 145.152C247.427 145.254 247.34 145.34 247.237 145.403C247.134 145.466 247.018 145.503 246.898 145.514C246.719 145.538 246.537 145.538 246.358 145.514C245.683 145.479 245.014 145.358 244.37 145.152Z" fill="#263238"/>
<path d="M242.673 159.591C238.534 158.925 234.661 157.128 231.483 154.399C231.483 154.399 233.263 160.911 242.163 161.634L242.673 159.591Z" fill="#EB996E"/>
<path d="M243.35 148C243.173 147.665 242.914 147.38 242.596 147.173C242.278 146.966 241.913 146.843 241.534 146.816C241.263 146.793 240.99 146.825 240.732 146.911C240.474 146.996 240.236 147.133 240.033 147.313C239.835 147.485 239.694 147.714 239.632 147.968C239.569 148.223 239.587 148.49 239.683 148.734C239.839 148.985 240.066 149.183 240.336 149.304C240.605 149.425 240.904 149.464 241.196 149.415C241.803 149.311 242.383 149.09 242.905 148.764C243.058 148.691 243.197 148.591 243.314 148.468C243.371 148.409 243.409 148.335 243.423 148.255C243.437 148.174 243.426 148.092 243.391 148.018" fill="#EB996E"/>
<path d="M240.668 145.366C240.864 145.366 240.632 146.698 241.593 147.828C242.555 148.959 243.967 149.054 243.967 149.243C243.967 149.326 243.611 149.439 243.017 149.35C242.247 149.228 241.545 148.838 241.036 148.249C240.539 147.693 240.276 146.968 240.3 146.224C240.371 145.632 240.579 145.342 240.668 145.366Z" fill="#263238"/>
<path d="M234.135 118.767C236.479 123.923 244.074 130.199 249.936 132.424C249.402 131.359 246.109 128.363 245.575 127.304C247.948 129.867 251.36 133.348 254.973 134.218C255.391 134.359 255.841 134.373 256.267 134.26C256.502 134.134 256.705 133.956 256.86 133.739C257.015 133.522 257.119 133.273 257.163 133.011C257.861 130.409 258.275 127.739 258.397 125.048C258.529 122.782 257.785 120.551 256.32 118.814C254.32 116.571 251.057 115.499 247.918 114.83C245.284 114.274 242.531 113.919 239.932 114.416C237.333 114.913 234.913 116.405 234.135 118.601" fill="#263238"/>
<path d="M220.156 138.185C220.109 136.183 220.185 134.18 220.382 132.188C220.975 127.635 222.393 111.077 237.707 115.339L236.081 119.584C236.081 119.584 237.268 130.24 229.395 135.959C229.395 135.959 229.43 146.615 223.983 150.433C223.983 150.433 220.186 143.223 220.156 138.191" fill="#263238"/>
<path d="M229.721 135.231C228.816 134.868 227.829 134.759 226.867 134.917C225.908 135.089 225.055 135.632 224.494 136.426C223.973 137.257 223.789 138.254 223.977 139.215C224.17 140.17 224.576 141.071 225.164 141.849C225.543 142.43 226.053 142.915 226.653 143.264C226.958 143.435 227.301 143.529 227.651 143.536C228.001 143.543 228.347 143.464 228.659 143.305" fill="#FFBE9D"/>
<path d="M228.202 140.813C228.303 140.866 227.798 141.364 226.98 140.979C226.765 140.862 226.575 140.704 226.421 140.514C226.268 140.324 226.153 140.106 226.084 139.872C225.91 139.346 225.846 138.79 225.894 138.238C225.925 137.647 226.167 137.086 226.576 136.657C226.75 136.475 226.963 136.334 227.2 136.245C227.436 136.157 227.69 136.124 227.941 136.148C228.825 136.284 228.991 136.941 228.884 136.941C228.777 136.941 228.516 136.628 227.917 136.663C227.54 136.735 227.202 136.94 226.964 137.24C226.725 137.539 226.602 137.915 226.618 138.297C226.552 139.28 226.766 140.227 227.241 140.535C227.715 140.843 228.16 140.724 228.202 140.813Z" fill="#EB996E"/>
<path d="M228.19 143.299C225.817 157.454 227.745 171.923 228.19 186.273C228.232 187.646 228.243 189.085 227.597 190.31C226.653 192.163 224.446 193.069 222.364 193.193C220.281 193.318 218.21 192.838 216.139 192.666C215.914 191.293 215.694 189.914 215.469 188.522C214.775 190.109 214.081 191.69 213.392 193.258C214.306 183.194 215.307 173.13 216.395 163.066" fill="#263238"/>
</svg>
