<svg width="299" height="299" viewBox="0 0 299 299" fill="none" xmlns="http://www.w3.org/2000/svg">
<path d="M243.518 129.868C243.413 123.889 245.684 118.112 249.831 113.805C253.979 109.497 259.665 107.009 265.644 106.887L265.835 118.691C263 118.785 260.315 119.99 258.359 122.044C256.403 124.099 255.332 126.84 255.378 129.676C255.423 132.513 256.581 135.218 258.602 137.209C260.623 139.2 263.345 140.317 266.182 140.321L266.367 152.125C260.388 152.194 254.626 149.89 250.343 145.718C246.06 141.546 243.606 135.846 243.518 129.868Z" fill="#E0E0E0"/>
<path d="M31.7777 42.8228V192.323C31.7777 192.323 164.097 168.702 267.222 192.323V42.8228C186.815 56.4153 108.376 57.2645 31.7777 42.8228Z" fill="white"/>
<path d="M31.7777 42.8228L36.167 43.5763L41.549 44.5091C43.6839 44.8739 46.1596 45.3404 48.9583 45.7051L58.317 47.1045C59.1721 47.23 60.0512 47.3736 60.9482 47.4872L63.7049 47.834L69.5534 48.5636C71.5806 48.8088 73.6796 49.1018 75.8563 49.335L82.6018 50.0167L89.7778 50.7343L97.3843 51.3323C99.9916 51.5177 102.659 51.7689 105.398 51.9303L113.823 52.3848L118.177 52.618C119.648 52.6898 121.131 52.7137 122.632 52.7675L131.823 53.0486C144.327 53.2459 157.824 53.3057 172.158 52.6718C200.862 51.6253 232.915 48.4021 267.198 42.6793H267.366V42.8467C267.366 88.803 267.366 139.322 267.366 192.347V192.538L267.174 192.502C256.243 190.032 245.3 188.137 234.44 186.642C223.58 185.147 212.792 184.118 202.148 183.389C196.82 182.988 191.527 182.791 186.271 182.516L178.419 182.258C175.812 182.163 173.217 182.157 170.645 182.097C160.3 181.953 150.128 181.995 140.147 182.294C130.167 182.593 120.413 183.036 110.845 183.634C101.277 184.232 91.9963 185.015 82.9306 185.888C73.865 186.761 65.0624 187.754 56.5289 188.878C47.9955 190.003 39.7311 191.145 31.7897 192.502H31.6462V192.353C31.7239 100.96 31.7717 43.8633 31.7717 42.8527C31.7717 43.8513 31.8196 100.948 31.8913 192.353L31.7478 192.233C39.7012 190.87 47.9596 189.692 56.4931 188.585C65.0265 187.479 73.8351 186.492 82.9067 185.595C91.9784 184.698 101.283 183.957 110.827 183.335C120.371 182.713 130.149 182.27 140.129 181.983C150.11 181.696 160.282 181.637 170.627 181.78C173.217 181.834 175.812 181.846 178.401 181.936L186.253 182.199C191.51 182.45 196.808 182.665 202.136 183.066C212.792 183.795 223.592 184.8 234.458 186.313C245.324 187.826 256.279 189.71 267.222 192.185L267.031 192.335C267.031 139.322 267.031 88.803 267.031 42.8347L267.198 42.9783C232.903 48.6951 200.82 51.9004 172.116 52.929C157.764 53.5569 144.273 53.4851 131.769 53.2758L122.572 52.9888C121.071 52.935 119.582 52.9051 118.117 52.8333L113.758 52.5941L105.332 52.1336C102.593 51.9782 99.9497 51.727 97.3185 51.5356L89.712 50.9376L82.536 50.2081L75.7845 49.5144C73.6078 49.2752 71.5088 48.9822 69.4876 48.737L63.6332 47.9955L60.8764 47.6427C59.9794 47.5231 59.0824 47.3795 58.2452 47.254L48.9463 45.8188C46.1357 45.4241 43.6839 44.9517 41.555 44.5809L36.173 43.6181L31.7777 42.8228Z" fill="#FF725E"/>
<path d="M253.552 64.8471C253.552 64.8112 209.33 72.6211 154.284 72.7168C99.2082 73.0517 54.8844 65.5408 54.9143 65.5408C54.8785 65.3255 99.1962 72.7646 154.29 72.4357C209.3 72.358 253.552 64.6318 253.552 64.8471Z" fill="#E0E0E0"/>
<path d="M252.954 75.1806C252.954 75.1806 208.995 81.4954 154.248 81.5612C99.4893 81.8363 55.4286 75.7666 55.4526 75.7786C55.4167 75.5872 99.4833 81.5732 154.248 81.2981C208.977 81.2204 252.954 74.9892 252.954 75.1806Z" fill="#E0E0E0"/>
<path d="M252.356 85.514C252.356 85.514 208.648 90.3458 154.224 90.4056C99.8062 90.6209 55.9788 86.0103 56.0087 85.9984C55.9668 85.8309 99.7763 90.3578 154.224 90.1425C208.63 90.0767 252.356 85.3466 252.356 85.514Z" fill="#E0E0E0"/>
<path d="M251.722 95.8474C251.722 95.8833 208.271 99.2022 154.17 99.2501C100.051 99.4055 56.499 96.2601 56.5289 96.2182C56.4931 96.0747 100.039 99.1424 154.17 98.9869C208.283 98.9331 251.758 95.68 251.722 95.8474Z" fill="#E0E0E0"/>
<path d="M251.124 106.181C251.124 106.247 207.931 108.059 154.146 108.094C100.362 108.13 57.0552 106.498 57.0791 106.444C57.103 106.39 100.338 107.933 154.146 107.837C207.955 107.742 251.16 106.061 251.124 106.181Z" fill="#E0E0E0"/>
<path d="M250.52 116.514C250.52 116.604 207.584 116.915 154.123 116.939C100.661 116.963 57.6053 116.742 57.6293 116.658C57.6532 116.574 100.631 116.712 154.123 116.658C207.614 116.604 250.562 116.425 250.52 116.514Z" fill="#E0E0E0"/>
<path d="M249.922 126.854C249.922 126.961 207.243 125.771 154.099 125.783C100.954 125.795 58.1555 126.979 58.1854 126.878C58.2153 126.776 100.924 125.496 154.099 125.52C207.273 125.544 249.964 126.776 249.922 126.854Z" fill="#E0E0E0"/>
<path d="M249.318 137.187C249.318 137.325 206.896 134.622 154.075 134.628C101.253 134.634 58.7117 137.223 58.7356 137.091C58.6997 137.05 101.194 134.275 154.075 134.365C206.908 134.353 249.366 137.145 249.318 137.187Z" fill="#E0E0E0"/>
<path d="M248.72 147.521C248.72 147.682 206.549 143.478 154.045 143.472C101.522 143.329 59.2618 147.467 59.2857 147.311C59.2498 147.311 101.516 143.06 154.045 143.209C206.561 143.209 248.768 147.503 248.72 147.521Z" fill="#E0E0E0"/>
<path d="M248.116 157.872C248.116 158.057 206.208 152.346 154.021 152.329C101.821 152.125 59.812 157.711 59.8359 157.537C59.8 157.537 101.81 151.856 154.021 152.065C185.475 152.071 216.9 154.01 248.116 157.872Z" fill="#E0E0E0"/>
<path d="M247.512 168.193C247.512 168.409 205.861 161.191 153.997 161.161C102.114 160.898 60.3681 167.948 60.392 167.739C60.3561 167.739 102.103 160.623 153.997 160.886C185.31 160.928 216.573 163.371 247.512 168.193Z" fill="#E0E0E0"/>
<path d="M250.825 111.288L250.09 110.893C249.388 110.477 248.656 110.113 247.901 109.805C244.956 108.56 241.813 107.852 238.62 107.712C236.26 107.619 233.896 107.761 231.564 108.136C228.768 108.594 226.04 109.397 223.443 110.528C222.737 110.821 222.067 111.204 221.362 111.539C220.656 111.874 220.004 112.334 219.311 112.735C218.617 113.136 217.983 113.65 217.319 114.128C216.674 114.638 216.073 115.202 215.525 115.815C213.372 118.296 211.8 121.31 210.323 124.462C208.846 127.613 207.494 130.98 206.035 134.436C204.595 138.057 202.888 141.565 200.928 144.931C199.872 146.716 198.549 148.33 197.005 149.715C196.171 150.439 195.221 151.017 194.195 151.426C193.662 151.611 193.148 151.844 192.592 151.988C192.044 152.16 191.487 152.304 190.923 152.418C188.607 152.918 186.229 153.073 183.867 152.879C181.447 152.682 179.066 152.149 176.793 151.294C174.513 150.445 172.406 149.191 170.574 147.592C170.35 147.407 170.138 147.207 169.94 146.994L169.342 146.343C168.989 145.876 168.594 145.434 168.277 144.949C167.611 143.995 167.011 142.996 166.483 141.959C164.378 137.839 163.045 133.402 161.735 128.911C160.425 124.42 159.247 119.809 157.651 115.235C156.861 112.911 155.902 110.648 154.78 108.465C153.623 106.168 152.054 104.103 150.152 102.372C147.952 100.631 145.351 99.4699 142.587 98.9929L142.061 98.8853L141.529 98.8135L140.464 98.67C139.747 98.6281 139.029 98.5444 138.317 98.5624C136.895 98.5423 135.474 98.6524 134.072 98.8913C132.706 99.1278 131.365 99.4881 130.065 99.9677C129.748 100.093 129.467 100.231 129.132 100.362L128.666 100.56L128.229 100.787L127.35 101.253L126.525 101.78C124.465 103.171 122.747 105.011 121.502 107.162C119.044 111.312 118.165 115.922 116.819 120.318C116.184 122.523 115.322 124.658 114.248 126.686C113.134 128.742 111.641 130.569 109.847 132.068C107.992 133.621 105.817 134.744 103.478 135.357C101.13 135.956 98.6581 135.863 96.3617 135.088C94.2081 134.337 92.2605 133.092 90.6747 131.452C89.1887 129.907 88.0043 128.098 87.1824 126.118C85.5439 122.273 85.0416 118.284 84.5751 114.517C84.1087 110.75 83.8874 107.084 83.5406 103.615C83.2422 100.286 82.747 96.9774 82.0576 93.7066C81.4089 90.7074 80.4406 87.7865 79.1692 84.9937C76.915 80.2092 73.6914 75.9451 69.7029 72.4716C67.0673 70.1383 64.0437 68.2844 60.7688 66.9939C60.2066 66.7906 59.7163 66.5933 59.2857 66.4498L58.1974 66.1508L57.3123 65.8936L58.1974 66.1209L59.2917 66.4079C59.7223 66.5454 60.2186 66.7368 60.7867 66.9401C64.0737 68.2174 67.11 70.0635 69.7567 72.3939C73.7821 75.8713 77.0404 80.1479 79.3247 84.9519C80.6096 87.7504 81.588 90.6797 82.2429 93.6887C82.9447 96.9645 83.4499 100.279 83.7559 103.615C84.1087 107.09 84.3539 110.732 84.8084 114.505C85.2628 118.278 85.7891 122.243 87.4156 126.04C88.2289 127.991 89.3968 129.773 90.8601 131.297C92.4183 132.913 94.3332 134.142 96.4514 134.885C98.693 135.645 101.107 135.737 103.4 135.148C105.695 134.545 107.827 133.44 109.643 131.913C111.416 130.43 112.887 128.621 113.979 126.585C115.046 124.57 115.899 122.45 116.526 120.258C117.866 115.898 118.739 111.288 121.221 107.066C122.482 104.871 124.226 102.991 126.322 101.57L127.159 101.038L128.056 100.56L128.504 100.326L128.977 100.123L129.927 99.7225C132.607 98.7388 135.445 98.2563 138.299 98.2992C139.029 98.2992 139.759 98.365 140.482 98.4069C140.847 98.4487 141.206 98.5026 141.571 98.5504L142.109 98.6281L142.647 98.7358C145.468 99.2188 148.121 100.406 150.361 102.186C152.294 103.936 153.885 106.028 155.055 108.358C156.18 110.551 157.143 112.824 157.938 115.157C159.534 119.749 160.724 124.354 162.016 128.851C163.308 133.348 164.653 137.767 166.74 141.858C167.27 142.881 167.869 143.866 168.534 144.806C168.851 145.29 169.24 145.727 169.587 146.181L170.185 146.821C170.371 147.033 170.571 147.232 170.783 147.419C172.588 148.989 174.66 150.223 176.9 151.061C179.149 151.914 181.506 152.448 183.903 152.645C186.237 152.836 188.586 152.683 190.876 152.191C193.088 151.689 195.265 150.959 196.856 149.554C198.382 148.179 199.691 146.58 200.737 144.812C202.7 141.465 204.411 137.977 205.856 134.377C207.321 130.932 208.678 127.571 210.161 124.408C211.644 121.244 213.235 118.231 215.418 115.725C215.966 115.105 216.566 114.533 217.212 114.015C217.881 113.532 218.551 113.066 219.221 112.615C219.92 112.215 220.59 111.784 221.29 111.419C221.99 111.055 222.677 110.702 223.389 110.409C226.002 109.276 228.746 108.472 231.558 108.017C233.902 107.646 236.278 107.512 238.65 107.616C241.852 107.768 245 108.497 247.943 109.769C248.695 110.084 249.423 110.456 250.119 110.881C250.562 111.138 250.825 111.288 250.825 111.288Z" fill="#455A64"/>
<path d="M186.026 153.997C186.014 154.313 185.94 154.624 185.808 154.912C185.675 155.199 185.487 155.457 185.254 155.671C185.021 155.886 184.748 156.051 184.45 156.159C184.152 156.267 183.836 156.314 183.52 156.299C182.875 156.277 182.264 156.005 181.817 155.539C181.37 155.073 181.123 154.451 181.128 153.806C181.139 153.489 181.213 153.177 181.345 152.889C181.477 152.601 181.665 152.342 181.898 152.127C182.131 151.913 182.405 151.746 182.703 151.638C183.001 151.53 183.317 151.482 183.634 151.497C184.281 151.516 184.895 151.789 185.342 152.257C185.79 152.724 186.036 153.35 186.026 153.997Z" fill="#455A64"/>
<path d="M140.369 98.4368C140.368 98.7485 140.305 99.0569 140.184 99.3441C140.063 99.6313 139.886 99.8915 139.663 100.11C139.441 100.328 139.177 100.5 138.887 100.615C138.598 100.73 138.288 100.786 137.977 100.781C137.339 100.778 136.728 100.526 136.274 100.08C135.819 99.6328 135.557 99.0262 135.543 98.3889C135.543 98.077 135.605 97.7682 135.726 97.4807C135.846 97.1931 136.023 96.9325 136.246 96.7142C136.469 96.4959 136.733 96.3242 137.023 96.2093C137.313 96.0943 137.623 96.0384 137.935 96.0448C138.573 96.0462 139.184 96.2974 139.639 96.7445C140.094 97.1916 140.356 97.7991 140.369 98.4368Z" fill="#455A64"/>
<path d="M240.085 106.193C240.025 106.929 239.694 107.617 239.156 108.124C238.618 108.631 237.912 108.921 237.173 108.938C236.827 108.961 236.48 108.911 236.155 108.791C235.83 108.671 235.533 108.484 235.285 108.242C235.037 108 234.842 107.708 234.714 107.386C234.586 107.064 234.527 106.719 234.542 106.372C234.603 105.638 234.934 104.952 235.47 104.446C236.007 103.941 236.711 103.651 237.448 103.633C237.795 103.604 238.144 103.649 238.473 103.766C238.801 103.883 239.1 104.069 239.35 104.312C239.6 104.555 239.795 104.848 239.922 105.173C240.049 105.497 240.104 105.845 240.085 106.193Z" fill="#455A64"/>
<path d="M103.986 135.028C104.017 135.534 103.896 136.038 103.639 136.475C103.382 136.912 103 137.262 102.543 137.481C102.085 137.699 101.573 137.777 101.072 137.703C100.57 137.629 100.102 137.407 99.7277 137.066C99.353 136.724 99.0886 136.279 98.9685 135.786C98.8484 135.294 98.8779 134.777 99.0533 134.301C99.2287 133.826 99.5419 133.413 99.953 133.117C100.364 132.82 100.854 132.653 101.361 132.636C102.026 132.606 102.677 132.84 103.169 133.289C103.661 133.737 103.955 134.363 103.986 135.028Z" fill="#455A64"/>
<path d="M48.2825 64.584C47.5798 64.6267 46.8747 64.5662 46.1895 64.4046C45.4667 64.3389 44.7564 64.1739 44.0786 63.9142C44.7813 63.8679 45.487 63.9284 46.1716 64.0936C46.8944 64.1593 47.6047 64.3243 48.2825 64.584Z" fill="#FF725E"/>
<path d="M48.8745 74.9772C48.1795 75.0502 47.4773 75.0138 46.7935 74.8696C46.0769 74.8269 45.3701 74.6819 44.6945 74.439C45.3903 74.3778 46.0913 74.4181 46.7756 74.5586C47.4907 74.6043 48.1966 74.745 48.8745 74.9772Z" fill="#FF725E"/>
<path d="M49.4666 85.3944C48.7783 85.4817 48.0809 85.4655 47.3975 85.3466C46.6877 85.3279 45.9845 85.2049 45.3105 84.9818C45.9991 84.8982 46.6962 84.9163 47.3796 85.0356C48.0887 85.0558 48.7914 85.1766 49.4666 85.3944Z" fill="#FF725E"/>
<path d="M50.0526 95.8056C49.3711 95.913 48.677 95.913 47.9955 95.8056C47.2932 95.8091 46.5942 95.7104 45.9204 95.5126C46.6019 95.4052 47.296 95.4052 47.9775 95.5126C48.6796 95.5125 49.3781 95.6111 50.0526 95.8056Z" fill="#FF725E"/>
<path d="M50.6446 106.223C49.9706 106.351 49.2812 106.377 48.5995 106.3C47.9043 106.327 47.2091 106.25 46.5364 106.073C47.2094 105.938 47.8996 105.91 48.5815 105.99C49.277 105.963 49.9725 106.042 50.6446 106.223Z" fill="#FF725E"/>
<path d="M51.2366 116.61C50.5699 116.759 49.8848 116.809 49.2034 116.759C48.5152 116.808 47.8235 116.752 47.1523 116.592C47.8179 116.435 48.5041 116.385 49.1855 116.443C49.8737 116.394 50.5653 116.451 51.2366 116.61Z" fill="#FF725E"/>
<path d="M51.8227 127.045C51.1633 127.217 50.4821 127.289 49.8015 127.26C49.1225 127.331 48.4367 127.297 47.7682 127.159C48.425 126.984 49.1047 126.911 49.7835 126.943C50.4645 126.875 51.1518 126.91 51.8227 127.045Z" fill="#FF725E"/>
<path d="M52.4147 137.456C51.7625 137.648 51.0852 137.741 50.4054 137.731C49.7339 137.838 49.0497 137.838 48.3782 137.731C49.0291 137.533 49.7071 137.438 50.3875 137.45C51.0597 137.351 51.7431 137.353 52.4147 137.456Z" fill="#FF725E"/>
<path d="M53.0067 147.867C52.3616 148.08 51.6884 148.195 51.0094 148.208C50.3435 148.324 49.6637 148.336 48.9941 148.244C49.6375 148.024 50.3116 147.907 50.9915 147.897C51.6579 147.786 52.3373 147.776 53.0067 147.867Z" fill="#FF725E"/>
<path d="M53.5928 158.279C52.9572 158.513 52.2899 158.65 51.6134 158.685C50.9548 158.822 50.2791 158.856 49.6101 158.787C50.2458 158.545 50.916 158.406 51.5954 158.374C52.2524 158.241 52.926 158.209 53.5928 158.279Z" fill="#FF725E"/>
<path d="M54.1848 168.69C53.5531 168.941 52.8884 169.1 52.2114 169.162C51.5617 169.317 50.8925 169.373 50.226 169.33C50.8526 169.068 51.5166 168.906 52.1934 168.851C52.8446 168.693 53.5166 168.638 54.1848 168.69Z" fill="#FF725E"/>
<path d="M173.133 70.9467H133.82V82.9486H136.709V87.8462L141.893 82.9486H173.133V70.9467Z" fill="white"/>
<path d="M173.133 70.9467C173.133 70.9467 173.133 71.0125 173.133 71.1441C173.133 71.2756 173.133 71.4909 173.133 71.7421C173.133 72.2862 173.133 73.0756 173.133 74.0922C173.133 76.1673 173.163 79.1752 173.187 82.9426V83.0383H173.091L141.852 83.0921L141.953 83.0502L136.775 87.9479L136.511 88.199V82.9426L136.667 83.0981H133.623V82.9426C133.623 78.7566 133.623 74.732 133.623 70.9407V70.7912H133.773L162.016 70.863L170.179 70.9049H172.344H172.9H173.085H172.882H172.284H170.083L161.891 70.9467L133.749 71.0125L133.898 70.863C133.898 74.6543 133.898 78.6848 133.898 82.8649L133.743 82.7094H136.787V87.7625L136.523 87.6489L141.708 82.7512L141.75 82.7094H141.816L173.055 82.7632L172.954 82.8649C172.954 79.1214 172.995 76.1374 173.007 74.0683C173.007 73.0457 173.007 72.2743 173.007 71.6763C173.007 71.4132 173.007 71.2098 173.007 71.0783C173.045 71.0304 173.087 70.9863 173.133 70.9467Z" fill="#FF725E"/>
<path d="M168.277 75.6948C168.277 75.7786 161.657 75.8503 153.495 75.8503C145.332 75.8503 138.712 75.7786 138.712 75.6948C138.712 75.6111 145.332 75.5394 153.495 75.5394C161.657 75.5394 168.277 75.6051 168.277 75.6948Z" fill="#FF725E"/>
<path d="M168.277 78.936C168.277 79.0197 161.657 79.0915 153.495 79.0915C145.332 79.0915 138.736 79.0137 138.736 78.936C138.736 78.8583 145.356 78.7805 153.519 78.7805C161.681 78.7805 168.277 78.8463 168.277 78.936Z" fill="#FF725E"/>
<path d="M217.032 87.5352V99.5371H219.92H225.105H256.345V87.5352H217.032Z" fill="white"/>
<path d="M217.032 87.5353H217.218H217.774H219.962L228.167 87.4934L256.345 87.4216H256.494V87.5771C256.494 91.3864 256.494 95.4169 256.494 99.567C256.183 99.8839 256.399 99.6567 256.327 99.7285H244.797H234.195L217.032 99.6926H216.931V99.5969C216.931 95.8176 216.972 92.8096 216.984 90.7345C216.984 89.7239 216.984 88.9405 216.984 88.3904V87.7924C216.979 87.7267 216.979 87.6607 216.984 87.595C216.984 87.595 216.984 87.6728 216.984 87.8103V88.4083C216.984 88.9645 216.984 89.7538 216.984 90.8003C216.984 92.8634 217.014 95.8474 217.038 99.6029L216.942 99.5012L234.105 99.4594H256.231C256.165 99.5252 256.398 99.3039 256.088 99.6089V87.5412L256.243 87.6907L228.173 87.619L220.064 87.5771H217.845H217.247C217.174 87.5734 217.102 87.5593 217.032 87.5353Z" fill="#FF725E"/>
<path d="M251.489 92.2834C251.489 92.3671 244.869 92.4388 236.706 92.4388C228.544 92.4388 221.924 92.3671 221.924 92.2834C221.924 92.1996 228.544 92.1279 236.706 92.1279C244.869 92.1279 251.489 92.1996 251.489 92.2834Z" fill="#FF725E"/>
<path d="M251.489 95.5185C251.489 95.6082 244.869 95.674 236.706 95.674C228.544 95.674 221.924 95.6082 221.924 95.5185C221.924 95.4288 228.544 95.3631 236.706 95.3631C244.869 95.3631 251.489 95.4348 251.489 95.5185Z" fill="#FF725E"/>
<path d="M281.233 285.844C281.233 285.934 222.277 285.999 149.566 285.999C76.8549 285.999 17.8862 285.934 17.8862 285.844C17.8862 285.754 76.831 285.689 149.566 285.689C222.301 285.689 281.233 285.754 281.233 285.844Z" fill="#263238"/>
<path d="M88.9525 253.588C89.389 252.063 90.3279 250.598 91.781 249.958C93.2342 249.318 95.0521 249.671 96.6009 250.227C98.1497 250.783 99.6746 251.537 101.325 251.632C102.976 251.728 104.823 250.945 105.314 249.372C105.804 247.799 104.877 246.316 103.759 245.246C102.577 244.111 101.129 243.293 99.5473 242.866C97.9658 242.44 96.3023 242.419 94.7104 242.805C93.1186 243.191 91.6497 243.972 90.4395 245.076C89.2293 246.18 88.3169 247.571 87.7864 249.121" fill="#087872" fill-opacity="0.99"/>
<g opacity="0.5">
<path d="M88.9525 253.588C89.389 252.063 90.3279 250.598 91.781 249.958C93.2342 249.318 95.0521 249.671 96.6009 250.227C98.1497 250.783 99.6746 251.537 101.325 251.632C102.976 251.728 104.823 250.945 105.314 249.372C105.804 247.799 104.877 246.316 103.759 245.246C102.577 244.111 101.129 243.293 99.5473 242.866C97.9658 242.44 96.3023 242.419 94.7104 242.805C93.1186 243.191 91.6497 243.972 90.4395 245.076C89.2293 246.18 88.3169 247.571 87.7864 249.121" fill="black"/>
</g>
<path d="M75.946 260.232C73.554 257.941 73.6377 253.947 74.8337 250.843C76.0297 247.739 78.6549 245.341 81.5851 243.763C84.4486 242.25 87.6176 241.406 90.8541 241.293C94.0906 241.18 97.3107 241.801 100.273 243.111C98.8218 243.174 97.4087 243.593 96.1574 244.33C94.9062 245.067 93.8552 246.1 93.0966 247.339C91.7751 249.539 91.488 252.212 90.3997 254.515C89.1732 257.135 86.9899 259.185 84.2984 260.245C81.6068 261.305 78.6115 261.294 75.9281 260.214" fill="#087872" fill-opacity="0.99"/>
<path d="M74.75 246.454C72.071 243.302 71.7002 238.237 72.0889 234.117C72.4776 229.997 73.4165 225.853 72.7527 221.768C72.364 219.346 71.4191 217.038 71.0962 214.592C70.7733 212.146 71.2158 209.414 73.0935 207.841C75.2583 206.047 78.6669 206.454 80.9214 208.14C83.1758 209.826 84.5094 212.481 85.4422 215.13C87.5532 220.949 88.3366 227.401 86.6382 233.352C84.9399 239.302 80.9094 244.624 74.9892 246.43" fill="#087872" fill-opacity="0.99"/>
<path d="M73.5121 272.347C73.5032 272.228 73.5032 272.108 73.5121 271.988C73.5121 271.749 73.5121 271.39 73.5121 270.942C73.548 270.039 73.6317 268.729 73.8291 267.121C74.0622 265.236 74.3996 263.365 74.8397 261.517C75.39 259.252 76.2449 257.071 77.3812 255.035C78.527 252.997 79.9343 251.117 81.5672 249.444C82.8869 248.073 84.3505 246.848 85.9326 245.79C86.6024 245.329 87.2422 244.977 87.7984 244.648C88.3545 244.319 88.8688 244.104 89.2754 243.906L90.2382 243.5C90.3472 243.449 90.4591 243.406 90.5731 243.368C90.4721 243.438 90.3638 243.496 90.2502 243.541L89.3113 243.984C88.9106 244.193 88.4203 244.45 87.8582 244.755C87.296 245.06 86.6622 245.455 86.0223 245.922C84.4621 246.989 83.0171 248.215 81.7107 249.581C80.1117 251.255 78.7294 253.124 77.5965 255.143C75.1507 259.448 74.4869 263.969 74.0085 267.139C73.7872 268.741 73.6796 270.045 73.6258 270.948C73.6258 271.384 73.5779 271.731 73.566 271.988C73.5559 272.109 73.538 272.229 73.5121 272.347Z" fill="#263238"/>
<path d="M50.3576 234.057C45.4181 237.047 45.442 239.774 46.2732 242.334C47.1045 244.893 50.1483 246.669 52.6599 245.706C54.0831 245.156 55.1117 243.912 55.9848 242.674C56.8578 241.437 57.6891 240.097 58.9209 239.2C60.1528 238.303 61.9109 237.962 63.1787 238.841" fill="#087872" fill-opacity="0.99"/>
<g opacity="0.5">
<path d="M50.3576 234.057C45.4181 237.047 45.442 239.774 46.2732 242.334C47.1045 244.893 50.1483 246.669 52.6599 245.706C54.0831 245.156 55.1117 243.912 55.9848 242.674C56.8578 241.437 57.6891 240.097 58.9209 239.2C60.1528 238.303 61.9109 237.962 63.1787 238.841" fill="black"/>
</g>
<path d="M46.644 237.34C47.9357 235.546 51.129 235.026 53.1502 235.911C55.1715 236.796 56.6485 238.566 57.9761 240.324C59.3037 242.082 60.5953 243.948 62.4312 245.174C64.2671 246.4 66.8265 246.836 68.6504 245.593C69.2321 245.158 69.7189 244.609 70.0808 243.98C70.4428 243.351 70.6723 242.654 70.7554 241.933C70.913 240.489 70.8117 239.029 70.4564 237.621C70.0138 235.546 69.2962 233.381 67.6338 232.066C65.78 230.601 63.2086 230.535 60.8465 230.619C58.1376 230.714 55.3927 230.924 52.8512 231.869C50.3097 232.813 47.7204 234.859 46.644 237.34Z" fill="#087872" fill-opacity="0.99"/>
<path d="M69.368 268.4C69.3633 268.363 69.3633 268.324 69.368 268.287C69.368 268.203 69.368 268.101 69.368 267.97C69.368 267.671 69.368 267.264 69.3202 266.744C69.3202 265.656 69.2424 264.119 69.1826 262.229C69.1228 260.339 69.0331 258.043 68.8896 255.537C68.7461 253.032 68.5487 250.251 68.16 247.375C67.9939 245.973 67.7159 244.588 67.3288 243.231C66.9346 241.978 66.4241 240.764 65.8039 239.607C65.2527 238.556 64.6104 237.555 63.8843 236.617C63.2492 235.798 62.5493 235.032 61.7913 234.326C60.6857 233.311 59.4363 232.465 58.0837 231.815C57.8386 231.701 57.6293 231.593 57.4439 231.516L56.9595 231.33L56.6605 231.211C56.5947 231.211 56.5588 231.169 56.5648 231.163L56.6665 231.193L56.9715 231.288L57.4678 231.456C57.6592 231.528 57.8744 231.629 58.1196 231.737C59.4998 232.362 60.7748 233.197 61.899 234.213C62.6688 234.918 63.3807 235.684 64.0279 236.503C64.765 237.441 65.4193 238.442 65.9833 239.493C66.6145 240.66 67.1351 241.883 67.5381 243.147C67.9312 244.517 68.2132 245.917 68.3813 247.333C68.77 250.221 68.9793 252.996 69.0929 255.513C69.2065 258.031 69.2903 260.297 69.3381 262.211C69.3859 264.125 69.3979 265.661 69.4099 266.726V268.275C69.4021 268.318 69.388 268.361 69.368 268.4Z" fill="#263238"/>
<path d="M71.162 270.631C70.9237 269.939 70.7397 269.229 70.6118 268.508C70.2616 266.535 70.1812 264.523 70.3726 262.528C70.6666 259.579 71.2925 256.672 72.2384 253.863C73.243 250.676 74.6304 247.285 75.7845 243.607C76.9088 240.173 77.6116 236.615 77.8775 233.011C78.0943 230.068 78.1402 227.115 78.0151 224.166C77.9254 221.649 77.7819 219.61 77.6981 218.186C77.6563 217.493 77.6204 216.948 77.5965 216.566C77.5965 216.386 77.5965 216.249 77.5965 216.141C77.5886 216.094 77.5886 216.045 77.5965 215.998C77.599 216.045 77.599 216.093 77.5965 216.141C77.5965 216.249 77.5965 216.386 77.6383 216.56C77.6383 216.942 77.7161 217.487 77.7759 218.18C77.8895 219.586 78.051 221.619 78.1646 224.16C78.3138 227.116 78.2839 230.077 78.0749 233.029C77.9426 234.772 77.7151 236.507 77.3932 238.225C77.0343 240.068 76.5651 241.887 75.9879 243.673C74.7919 247.351 73.4404 250.753 72.3999 253.923C71.4728 256.723 70.8571 259.617 70.564 262.552C70.3628 264.53 70.4191 266.526 70.7314 268.49C70.857 269.184 70.9706 269.722 71.0663 270.075L71.168 270.487C71.1698 270.535 71.1678 270.583 71.162 270.631Z" fill="#263238"/>
<path d="M83.4449 272.837L60.2186 272.891L59.6804 268.424L83.4389 268.364L83.4449 272.837Z" fill="#455A64"/>
<path d="M62.7123 272.377L65.6484 285.778L78.2662 285.748L80.9513 272.329L62.7123 272.377Z" fill="#455A64"/>
<path d="M83.4449 272.838C83.4449 272.897 78.338 272.945 72.0411 272.939C65.7441 272.933 60.6372 272.885 60.6372 272.826C60.6372 272.766 65.7441 272.718 72.0411 272.718C78.338 272.718 83.4449 272.772 83.4449 272.838Z" fill="#455A64"/>
<path d="M79.4742 279.463C78.8427 278.993 78.1558 278.601 77.429 278.297C76.6352 277.988 75.7932 277.82 74.9414 277.801C73.8954 277.809 72.859 278.002 71.8796 278.369C70.8271 278.734 69.8344 279.152 68.8896 279.386C68.0349 279.572 67.1533 279.6 66.2883 279.469C65.7067 279.388 65.1428 279.21 64.6199 278.943C64.4767 278.87 64.3405 278.784 64.2132 278.686C64.1255 278.622 64.0837 278.586 64.0877 278.578C64.0877 278.578 64.285 278.692 64.6857 278.865C65.2125 279.096 65.7708 279.247 66.3421 279.314C67.1885 279.418 68.0465 279.373 68.8776 279.182C69.8045 278.949 70.7912 278.524 71.8676 278.16C72.8671 277.783 73.9271 277.592 74.9952 277.598C75.8712 277.626 76.7346 277.814 77.5427 278.154C78.0842 278.377 78.5931 278.673 79.0556 279.033C79.1843 279.128 79.3062 279.232 79.4204 279.344C79.4443 279.416 79.4802 279.457 79.4742 279.463Z" fill="#263238"/>
<path d="M79.3008 280.36C78.6899 279.904 78.03 279.517 77.3334 279.206C76.5728 278.898 75.7618 278.734 74.9414 278.722C73.9206 278.722 72.9081 278.904 71.9514 279.26C70.9288 279.601 69.972 280.002 69.057 280.253C68.2458 280.488 67.4008 280.585 66.5574 280.54C65.9872 280.508 65.4296 280.359 64.9189 280.103C64.7808 280.033 64.6488 279.951 64.5242 279.858C64.4405 279.792 64.3986 279.756 64.4046 279.75C64.4106 279.744 64.596 279.864 64.9548 280.025C65.4647 280.242 66.0098 280.364 66.5634 280.384C67.3889 280.404 68.2124 280.293 69.0032 280.055C69.9002 279.798 70.851 279.398 71.8856 279.051C72.8559 278.692 73.883 278.512 74.9174 278.518C76.338 278.557 77.708 279.054 78.8224 279.936C78.9443 280.03 79.0601 280.132 79.1692 280.241C79.2709 280.312 79.3068 280.354 79.3008 280.36Z" fill="white"/>
<path d="M79.7074 278.572C79.0532 278.085 78.3473 277.672 77.6025 277.34C76.792 276.996 75.9282 276.794 75.049 276.742C73.9718 276.722 72.901 276.913 71.8975 277.305C70.8804 277.707 69.84 278.049 68.7819 278.327C67.8934 278.48 66.9854 278.48 66.0969 278.327C65.4966 278.238 64.9137 278.056 64.3687 277.789C64.2221 277.713 64.082 277.625 63.9501 277.526C63.8544 277.46 63.8126 277.424 63.8186 277.418C63.8245 277.412 64.0219 277.538 64.4166 277.711C64.9652 277.942 65.5425 278.097 66.1328 278.172C67.0029 278.299 67.8879 278.28 68.7521 278.118C69.7974 277.825 70.8272 277.48 71.8377 277.083C72.8676 276.682 73.9681 276.493 75.0729 276.527C76.5947 276.637 78.0505 277.192 79.2589 278.124C79.3882 278.223 79.512 278.328 79.6297 278.441C79.6603 278.482 79.6864 278.526 79.7074 278.572Z" fill="white"/>
<path d="M83.6542 272.855C83.6542 272.915 78.4277 272.975 71.9813 272.993C65.5348 273.011 60.3143 272.993 60.3143 272.909C60.3143 272.826 65.5348 272.784 71.9813 272.772C78.4277 272.76 83.6542 272.79 83.6542 272.855Z" fill="#263238"/>
<path d="M171.034 266.582L171.853 285.832L182.246 285.599L181.469 266.313L171.034 266.582Z" fill="#08A9A0"/>
<path d="M176.954 284.995C177.044 284.995 176.882 280.773 176.595 275.576C176.308 270.38 175.997 266.176 175.926 266.182C175.854 266.188 175.997 270.398 176.284 275.594C176.571 280.791 176.87 284.995 176.954 284.995Z" fill="#263238"/>
<path d="M171.799 284.504L182.193 284.241L182.246 285.599L171.853 285.832L171.799 284.504Z" fill="#263238"/>
<path d="M182.001 279.433C181.928 279.283 181.831 279.146 181.714 279.027C181.42 278.682 181.094 278.365 180.74 278.082C180.219 277.649 179.636 277.296 179.011 277.035C178.242 276.697 177.405 276.543 176.565 276.587C175.805 276.618 175.06 276.808 174.378 277.144C173.695 277.479 173.09 277.954 172.601 278.536C172.309 278.887 172.07 279.278 171.889 279.697C171.812 279.846 171.763 280.008 171.746 280.175C172.046 279.65 172.388 279.15 172.768 278.68C173.753 277.601 175.125 276.956 176.583 276.886C178.04 276.868 179.46 277.347 180.608 278.243C181.505 278.925 181.959 279.475 182.001 279.433Z" fill="#263238"/>
<g opacity="0.3">
<path d="M181.69 271.803L181.774 273.92L171.357 274.111L171.285 272.515L181.69 271.803Z" fill="black"/>
</g>
<path opacity="0.3" d="M171.285 274.362L171.441 276.073H181.864L181.792 274.362H171.285Z" fill="black"/>
<path d="M147.108 267.473L148.029 279.164C148.029 279.164 136.499 283.781 136.464 285.958L159.122 285.246L158.434 266.971L147.108 267.473Z" fill="#08A9A0"/>
<path d="M154.84 277.926C155.063 277.984 155.258 278.123 155.385 278.314C155.513 278.506 155.566 278.739 155.534 278.967C155.485 279.192 155.351 279.389 155.161 279.518C154.971 279.647 154.738 279.698 154.511 279.661C154.275 279.6 154.07 279.454 153.935 279.25C153.801 279.047 153.746 278.801 153.782 278.56C153.859 278.331 154.021 278.141 154.235 278.03C154.449 277.918 154.698 277.894 154.93 277.962" fill="#E0E0E0"/>
<path d="M159.122 285.246L159.068 283.787L137.062 284.935C136.871 285.069 136.71 285.239 136.587 285.436C136.463 285.634 136.381 285.854 136.344 286.083L159.122 285.246Z" fill="#263238"/>
<path d="M147.802 279.266C147.802 279.38 148.4 279.404 148.938 279.738C149.476 280.073 149.817 280.534 149.913 280.486C150.008 280.438 149.823 279.798 149.129 279.404C148.436 279.009 147.772 279.146 147.802 279.266Z" fill="#263238"/>
<path d="M145.44 280.342C145.44 280.456 145.912 280.623 146.313 281.078C146.713 281.532 146.845 282.029 146.953 282.023C147.06 282.017 147.108 281.377 146.6 280.827C146.091 280.277 145.44 280.235 145.44 280.342Z" fill="#263238"/>
<path d="M144.202 283.279C144.303 283.279 144.435 282.728 144.124 282.13C143.813 281.532 143.275 281.311 143.233 281.407C143.191 281.503 143.526 281.813 143.777 282.31C144.028 282.806 144.118 283.273 144.202 283.279Z" fill="#263238"/>
<path d="M147.885 276.539C147.939 276.641 148.448 276.467 149.081 276.479C149.715 276.491 150.212 276.677 150.277 276.575C150.343 276.473 149.841 276.103 149.081 276.091C148.322 276.079 147.832 276.455 147.885 276.539Z" fill="#263238"/>
<path d="M147.371 274.034C147.751 274.124 148.149 274.105 148.519 273.98C148.934 273.891 149.336 273.75 149.715 273.561C149.937 273.448 150.153 273.322 150.361 273.184C150.486 273.105 150.599 273.009 150.696 272.897C150.761 272.811 150.796 272.706 150.796 272.598C150.796 272.49 150.761 272.385 150.696 272.299C150.635 272.225 150.559 272.165 150.472 272.125C150.385 272.085 150.29 272.064 150.194 272.066C150.049 272.073 149.907 272.099 149.769 272.144C149.526 272.213 149.289 272.305 149.063 272.419C148.684 272.611 148.337 272.862 148.035 273.16C147.527 273.675 147.365 274.099 147.401 274.117C147.437 274.135 147.7 273.794 148.22 273.364C148.527 273.124 148.863 272.923 149.219 272.766C149.43 272.672 149.648 272.596 149.871 272.539C150.11 272.461 150.313 272.455 150.379 272.539C150.445 272.622 150.379 272.598 150.379 272.67C150.308 272.751 150.225 272.822 150.134 272.879C149.619 273.243 149.053 273.527 148.454 273.723C148.086 273.8 147.724 273.904 147.371 274.034Z" fill="#263238"/>
<path d="M147.527 274.189C147.728 273.853 147.816 273.461 147.778 273.071C147.783 272.645 147.712 272.222 147.568 271.821C147.487 271.582 147.378 271.354 147.246 271.139C147.179 270.99 147.074 270.86 146.942 270.764C146.81 270.667 146.655 270.607 146.492 270.589C146.39 270.596 146.292 270.631 146.209 270.692C146.127 270.752 146.063 270.835 146.026 270.93C145.975 271.067 145.94 271.209 145.924 271.354C145.896 271.612 145.908 271.872 145.96 272.126C146.045 272.552 146.234 272.95 146.51 273.286C146.982 273.884 147.455 273.974 147.467 273.932C147.479 273.89 147.102 273.675 146.731 273.125C146.52 272.804 146.381 272.44 146.325 272.06C146.295 271.84 146.295 271.617 146.325 271.396C146.325 271.151 146.432 270.954 146.522 270.972C146.612 270.99 146.839 271.139 146.941 271.331C147.06 271.521 147.164 271.721 147.252 271.929C147.395 272.292 147.486 272.675 147.521 273.065C147.562 273.752 147.461 274.177 147.527 274.189Z" fill="#263238"/>
<g opacity="0.3">
<path d="M158.727 273.98L158.799 276.575L147.832 276.964L147.748 274.608L158.727 273.98Z" fill="black"/>
</g>
<path d="M156.497 117.621L169.82 117.453L168.337 106.091C168.337 106.091 169.246 105.894 169.306 100.96C169.366 96.0268 169.593 87.6369 169.593 87.6369C166.787 86.429 163.709 85.9928 160.678 86.3734C157.647 86.754 154.773 87.9376 152.352 89.8016L151.623 90.3638L156.497 117.621Z" fill="#FFBE9D"/>
<path d="M153.166 96.4514C153.082 96.4096 149.775 95.4468 149.883 98.8434C149.99 102.24 153.357 101.415 153.363 101.319C153.369 101.223 153.166 96.4514 153.166 96.4514Z" fill="#FFBE9D"/>
<path d="M169.019 95.7458C169.102 95.7099 172.116 94.8966 172.009 98.2693C171.901 101.642 168.534 100.841 168.528 100.745C168.522 100.649 169.019 95.7458 169.019 95.7458Z" fill="#FFBE9D"/>
<path d="M152.071 96.0747C152.58 98.8972 152.478 100.386 152.944 102.276C153.686 105.266 155.169 107.556 157.86 109.051C160.551 110.546 164.199 110.516 166.513 108.453C168.116 107.042 169.252 105.463 169.503 103.328C169.754 101.194 169.982 97.4441 169.993 95.3033C170.023 91.4521 170.281 87.7685 170.281 87.7685L159.271 85.7771L153.004 89.5027L152.071 96.0747Z" fill="#263238"/>
<path d="M163.427 110.756C162.814 110.989 162.147 111.047 161.502 110.923C160.843 110.897 160.203 110.69 159.654 110.325C159.69 110.241 160.503 110.498 161.538 110.606C162.572 110.714 163.415 110.666 163.427 110.756Z" fill="#263238"/>
<path d="M152.604 100.883C152.281 97.9823 152.071 94.6694 151.623 91.6136C151.449 90.4654 151.025 88.809 151.145 87.6548C151.177 86.49 151.422 85.3409 151.868 84.2642C152.192 83.6079 152.662 83.0347 153.242 82.5887C153.822 82.1426 154.497 81.8355 155.214 81.6911C155.932 81.5467 156.673 81.5688 157.38 81.7557C158.088 81.9426 158.743 82.2893 159.295 82.7692C159.702 82.171 160.28 81.7097 160.954 81.446C161.628 81.1823 162.365 81.1283 163.07 81.2913C163.775 81.4543 164.414 81.8265 164.904 82.3592C165.393 82.8918 165.71 83.56 165.813 84.2761C166.208 83.8994 166.716 83.6634 167.259 83.6045C167.801 83.5457 168.348 83.6673 168.815 83.9506C169.281 84.2339 169.641 84.663 169.839 85.1715C170.037 85.6801 170.062 86.2397 169.91 86.7638C170.307 86.8301 170.681 86.9941 170.999 87.2411C171.317 87.488 171.569 87.8101 171.731 88.1784C171.894 88.5468 171.962 88.9497 171.93 89.351C171.898 89.7523 171.767 90.1394 171.548 90.4774C171.034 91.2608 170.119 91.6734 169.557 92.4448C169.238 92.8817 169.052 93.4013 169.022 93.9412C168.991 94.4811 169.117 95.0184 169.384 95.4886" fill="#263238"/>
<path d="M167.894 90.4056C167.879 90.5189 167.838 90.6272 167.775 90.7226C167.616 91.0066 167.397 91.2533 167.135 91.4462C166.719 91.75 166.215 91.9077 165.7 91.8947C165.365 91.8863 165.035 91.8087 164.731 91.6667C164.428 91.5246 164.157 91.3213 163.936 91.0694L164.169 91.0036C164.088 91.3875 163.91 91.7443 163.653 92.0404C163.395 92.3366 163.067 92.5622 162.698 92.696C162.291 92.8541 161.851 92.9085 161.418 92.8542C160.984 92.7999 160.572 92.6387 160.216 92.385C159.569 91.9373 159.079 91.297 158.817 90.5551H159.086C158.809 90.9642 158.438 91.3013 158.004 91.5384C157.57 91.7755 157.086 91.9059 156.592 91.9186C156.203 91.927 155.815 91.8555 155.454 91.7084C155.093 91.5613 154.766 91.3418 154.493 91.0634C154.132 90.7065 153.87 90.2612 153.734 89.7718C153.674 89.6012 153.651 89.4196 153.668 89.2395C153.668 89.2395 153.716 89.4249 153.835 89.7419C154 90.1974 154.271 90.6072 154.625 90.9379C154.886 91.1841 155.193 91.3759 155.529 91.5022C155.864 91.6285 156.222 91.6867 156.58 91.6734C157.029 91.6532 157.467 91.528 157.858 91.3078C158.25 91.0876 158.584 90.7786 158.835 90.4056L158.996 90.1485L159.098 90.4355C159.342 91.1137 159.791 91.699 160.384 92.1099C160.7 92.334 161.066 92.4777 161.451 92.5288C161.835 92.5798 162.226 92.5366 162.59 92.403C162.914 92.2892 163.204 92.0961 163.434 91.8412C163.664 91.5862 163.826 91.2777 163.906 90.9438L163.954 90.6628L164.139 90.8781C164.336 91.107 164.576 91.2943 164.846 91.4288C165.116 91.5634 165.411 91.6424 165.712 91.6614C166.184 91.6871 166.652 91.5591 167.045 91.2967C167.385 91.0598 167.674 90.7568 167.894 90.4056Z" fill="#455A64"/>
<path d="M167.877 89.0661C167.812 88.6275 167.651 88.2088 167.404 87.8402C167.126 87.4503 166.716 87.1742 166.25 87.0628C165.963 86.9951 165.666 86.9884 165.376 87.043C165.087 87.0976 164.812 87.2123 164.57 87.3798L164.301 87.5771L164.33 87.2422C164.354 86.915 164.316 86.5863 164.217 86.2735C164.109 85.9329 163.933 85.6178 163.7 85.3474C163.466 85.077 163.18 84.857 162.859 84.7007C162.322 84.4525 161.716 84.3976 161.143 84.5452C160.612 84.7028 160.123 84.9789 159.714 85.3525C159.777 85.2099 159.871 85.0832 159.989 84.9818C160.297 84.6787 160.675 84.4568 161.089 84.3359C161.711 84.1453 162.381 84.1813 162.979 84.4376C163.34 84.6071 163.662 84.8491 163.925 85.1485C164.189 85.4479 164.388 85.7982 164.51 86.1778C164.623 86.5309 164.663 86.903 164.629 87.2721L164.39 87.1346C164.667 86.9443 164.983 86.8164 165.314 86.7596C165.645 86.7028 165.985 86.7185 166.31 86.8057C166.829 86.9436 167.278 87.2725 167.566 87.7266C167.759 88.0178 167.876 88.353 167.906 88.7013C167.929 88.8234 167.919 88.9494 167.877 89.0661Z" fill="#455A64"/>
<path d="M160.862 89.1678C160.82 89.1678 160.862 88.9764 160.862 88.7013C160.831 88.3476 160.714 88.0069 160.521 87.7087C160.325 87.3981 160.111 87.0986 159.881 86.8117C159.714 86.6382 159.552 86.7578 159.528 86.7399C159.505 86.722 159.528 86.6681 159.606 86.6083C159.668 86.5682 159.739 86.5468 159.813 86.5468C159.886 86.5468 159.958 86.5682 160.019 86.6083C160.159 86.7228 160.286 86.8533 160.396 86.997C160.54 87.159 160.67 87.3331 160.784 87.5173C161.01 87.8621 161.116 88.2723 161.083 88.6834C161.023 89.0302 160.862 89.1857 160.862 89.1678Z" fill="#455A64"/>
<path d="M154.326 84.916C154.29 84.916 154.326 84.6529 154.529 84.318C154.657 84.1086 154.828 83.9291 155.032 83.7918C155.296 83.6183 155.615 83.5481 155.929 83.5944C156.464 83.6922 156.941 83.9919 157.262 84.4316C157.507 84.7426 157.621 84.9579 157.591 84.9878C157.561 85.0177 157.382 84.8442 157.101 84.5811C156.779 84.2393 156.362 84.0018 155.905 83.8994C155.675 83.8748 155.443 83.9123 155.232 84.008C155.022 84.1038 154.841 84.2542 154.709 84.4436C154.475 84.7246 154.368 84.916 154.326 84.916Z" fill="#455A64"/>
<path d="M156.036 99.268C155.494 98.6454 155.098 97.91 154.876 97.1152C154.56 96.3592 154.421 95.5411 154.469 94.7232C154.559 94.7232 154.733 95.7876 155.169 97.0375C155.606 98.2873 156.114 99.1903 156.036 99.268Z" fill="#455A64"/>
<path d="M157.513 100.045C157.136 99.5987 156.859 99.0768 156.7 98.5145C156.445 97.9863 156.308 97.4087 156.299 96.8222C156.6 97.3167 156.831 97.8498 156.987 98.4069C157.238 98.9257 157.415 99.4772 157.513 100.045Z" fill="#455A64"/>
<path d="M166.788 100.279C166.898 101.284 166.769 102.3 166.411 103.246C166.054 104.191 165.478 105.039 164.731 105.72C165.264 104.896 165.73 104.03 166.124 103.131C166.42 102.199 166.642 101.245 166.788 100.279Z" fill="#455A64"/>
<path d="M168.271 97.8149C168.625 98.6604 168.7 99.5966 168.487 100.488C168.374 101.398 167.972 102.247 167.338 102.91C167.693 102.112 167.976 101.283 168.182 100.434C168.286 99.5652 168.316 98.6889 168.271 97.8149Z" fill="#455A64"/>
<path d="M164.283 193.154L167.643 225.56L170.059 274.362H182.934L183.263 177.462L181.559 170.681L147.03 173.426L138.772 227.617L145.392 275.313H159.522L156.21 229.961L164.283 193.154Z" fill="#263238"/>
<path d="M164.283 193.154C163.523 194.052 162.684 194.881 161.777 195.63C160.94 196.455 160.029 197.201 159.056 197.86C160.653 196.137 162.402 194.562 164.283 193.154Z" fill="#455A64"/>
<path d="M164.247 192.502C164.189 191.107 164.211 189.709 164.312 188.316C164.316 186.929 164.396 185.544 164.552 184.166C164.717 185.555 164.745 186.957 164.635 188.352C164.639 189.745 164.509 191.134 164.247 192.502Z" fill="#455A64"/>
<path d="M168.504 180.405C168.574 180.4 168.644 180.4 168.714 180.405L169.348 180.363L171.793 180.243L180.524 179.878H180.668V179.998C180.668 182.725 180.668 185.805 180.668 189.064V189.351L180.566 189.387L174.891 191.665H174.837H174.783L169.76 189.919H169.683V189.835C169.318 187.007 169.013 184.65 168.791 182.964C168.696 182.175 168.618 181.541 168.558 181.074C168.525 180.858 168.505 180.641 168.498 180.423C168.516 180.483 168.53 180.545 168.54 180.608C168.54 180.751 168.588 180.919 168.624 181.122C168.702 181.595 168.803 182.234 168.929 183.036C169.18 184.698 169.527 187.019 169.946 189.799L169.856 189.692L174.891 191.402H174.789L180.458 189.117L180.363 189.261V189.088C180.363 185.828 180.363 182.749 180.363 180.022L180.512 180.165L171.877 180.381L169.395 180.429H168.726C168.651 180.427 168.577 180.419 168.504 180.405Z" fill="#455A64"/>
<path d="M149.913 180.596C149.974 180.587 150.037 180.587 150.098 180.596L150.696 180.566L152.909 180.5L160.868 180.315H161.017V180.464C160.934 183.155 160.832 186.259 160.724 189.56V189.566L160.653 189.608L159.732 190.206L155.061 193.25L154.984 193.303L154.9 193.256L149.638 190.05L149.572 190.009V189.931C149.673 187.108 149.757 184.752 149.817 183.066C149.847 182.276 149.877 181.648 149.895 181.176C149.913 180.704 149.937 180.524 149.943 180.536C149.951 180.598 149.951 180.66 149.943 180.722V181.23C149.943 181.708 149.943 182.348 149.943 183.149C149.943 184.818 149.883 187.144 149.841 189.937L149.775 189.823L155.055 192.987H154.882L159.546 189.931L160.467 189.333L160.396 189.458C160.515 186.157 160.629 183.054 160.724 180.369L160.868 180.512L152.992 180.554H150.146L149.913 180.596Z" fill="#455A64"/>
<path d="M179.304 195.247C178.722 195.284 178.137 195.263 177.558 195.187C176.488 195.109 175.005 194.966 173.372 194.751C171.74 194.535 170.275 194.302 169.216 194.105C168.637 194.029 168.066 193.899 167.512 193.716C168.094 193.719 168.674 193.776 169.246 193.884L173.432 194.434L177.618 194.966C178.187 195.008 178.752 195.102 179.304 195.247Z" fill="#455A64"/>
<path d="M179.005 231.366C179.005 231.366 178.957 231.558 178.7 231.779C178.328 232.078 177.862 232.237 177.385 232.227C176.678 232.202 176 231.941 175.459 231.486C174.821 230.943 174.235 230.342 173.707 229.692C172.728 228.55 171.856 227.321 171.1 226.02C170.761 225.497 170.488 224.935 170.286 224.346C170.65 224.845 170.985 225.364 171.291 225.9C172.096 227.155 172.985 228.354 173.952 229.488C174.466 230.117 175.032 230.701 175.645 231.235C176.13 231.667 176.743 231.929 177.391 231.982C177.827 232.008 178.26 231.895 178.629 231.659C178.886 231.504 178.987 231.354 179.005 231.366Z" fill="#455A64"/>
<path d="M153.572 232.508C153.551 232.659 153.492 232.801 153.399 232.921C153.174 233.269 152.868 233.559 152.508 233.764C151.973 234.077 151.363 234.238 150.744 234.231C149.986 234.205 149.249 233.971 148.615 233.555C147.505 232.783 146.619 231.731 146.05 230.505C145.779 230.025 145.567 229.516 145.416 228.986C145.73 229.435 146.01 229.907 146.253 230.397C146.851 231.55 147.719 232.541 148.782 233.286C149.372 233.668 150.049 233.892 150.75 233.938C151.323 233.959 151.891 233.831 152.4 233.567C152.864 233.304 153.264 232.943 153.572 232.508Z" fill="#455A64"/>
<path d="M154.392 227.617C154.08 227.882 153.721 228.084 153.333 228.215C151.487 228.987 149.424 229.072 147.521 228.454C147.12 228.355 146.744 228.176 146.414 227.928C149.016 228.855 151.875 228.737 154.392 227.599V227.617Z" fill="#455A64"/>
<path d="M154.129 115.259L154.942 112.454L169.587 111.856L171.004 114.362L184.31 118.96L181.373 149.35L180.446 161.849L181.379 164.839L180.034 167.518L180.859 172.451C180.859 172.451 172.08 174.933 167.512 175.31C162.943 175.686 154.828 174.754 154.828 174.754L147.054 173.402L147.568 166.112L146.97 164.749L147.622 163.374V154.404L143.191 136.942L143.412 118.852L154.129 115.259Z" fill="#08A9A0"/>
<path d="M143.412 118.841C143.412 118.841 120.407 143.813 120.401 148.902C120.401 152.705 129.371 167.314 134.67 170.639L139.077 174.257L144.178 168.475L139.932 165.263C139.932 165.263 140.123 161.586 139.047 160.557C137.971 159.528 132.26 151.144 132.26 151.144C132.731 150.988 133.153 150.712 133.486 150.343C133.838 149.835 143.652 138.802 143.652 138.802L143.939 129.485L143.412 118.841Z" fill="#08A9A0"/>
<path d="M132.284 151.719C131.948 151.87 131.594 151.977 131.231 152.036C130.376 152.195 129.537 152.433 128.725 152.747C127.96 153.16 127.226 153.629 126.531 154.152C126.251 154.396 125.936 154.597 125.598 154.75C125.828 154.464 126.098 154.213 126.399 154.003C127.063 153.418 127.792 152.911 128.57 152.49C129.403 152.164 130.276 151.949 131.165 151.85C131.529 151.749 131.906 151.704 132.284 151.719Z" fill="#263238"/>
<path d="M139.932 165.263C139.589 166.505 138.944 167.643 138.054 168.576C137.461 169.261 136.788 169.873 136.051 170.4C135.76 170.64 135.431 170.828 135.076 170.956C136.04 170.149 136.957 169.286 137.821 168.373C138.607 167.395 139.313 166.355 139.932 165.263Z" fill="#263238"/>
<path d="M140.375 167.404C140.333 167.404 140.608 167.063 141.194 167.129C141.367 167.146 141.533 167.204 141.679 167.299C141.825 167.394 141.945 167.522 142.031 167.673C142.122 167.86 142.169 168.064 142.169 168.271C142.165 168.388 142.136 168.502 142.082 168.606C142.028 168.71 141.951 168.8 141.858 168.869C141.691 169.001 141.492 169.086 141.282 169.115C141.072 169.144 140.858 169.117 140.662 169.037C140.507 168.958 140.375 168.842 140.276 168.698C140.178 168.555 140.117 168.39 140.099 168.217C140.046 167.619 140.381 167.362 140.392 167.398C140.304 167.649 140.277 167.918 140.315 168.182C140.342 168.311 140.399 168.432 140.481 168.536C140.563 168.639 140.668 168.723 140.787 168.78C140.936 168.834 141.096 168.849 141.252 168.822C141.409 168.796 141.555 168.73 141.678 168.63C141.738 168.586 141.787 168.53 141.822 168.464C141.857 168.399 141.877 168.327 141.881 168.253C141.884 168.097 141.854 167.942 141.792 167.799C141.732 167.683 141.648 167.581 141.544 167.502C141.441 167.422 141.321 167.366 141.194 167.338C140.919 167.292 140.638 167.314 140.375 167.404Z" fill="#263238"/>
<path d="M148.454 160.061C148.41 159.963 148.378 159.861 148.358 159.756L148.137 158.877L147.395 155.623C146.797 152.879 145.948 149.081 145.051 144.86C144.154 140.638 143.359 136.852 142.796 134.096C142.527 132.75 142.306 131.644 142.145 130.824C142.079 130.466 142.031 130.173 141.983 129.933C141.963 129.829 141.951 129.723 141.947 129.616C141.996 129.713 142.03 129.815 142.049 129.921C142.105 130.153 142.176 130.446 142.264 130.801C142.45 131.614 142.701 132.708 143.012 134.048C143.61 136.792 144.459 140.59 145.356 144.812C146.253 149.034 147.048 152.819 147.61 155.576C147.873 156.921 148.095 158.027 148.256 158.847C148.322 159.206 148.376 159.499 148.418 159.738C148.446 159.843 148.458 159.952 148.454 160.061Z" fill="#263238"/>
<path d="M177.767 162.925C177.448 163.048 177.12 163.148 176.787 163.224C176.153 163.403 175.22 163.625 174.066 163.864C168.034 165.118 161.851 165.484 155.713 164.952C154.517 164.845 153.59 164.737 152.939 164.635C152.597 164.6 152.259 164.538 151.928 164.45C152.27 164.444 152.612 164.464 152.95 164.51C153.608 164.576 154.553 164.653 155.731 164.731C158.787 164.927 161.853 164.939 164.91 164.767C167.966 164.579 171.008 164.206 174.018 163.649C175.178 163.433 176.111 163.248 176.751 163.104C177.084 163.014 177.424 162.954 177.767 162.925Z" fill="#263238"/>
<path d="M170.478 168.636C170.305 168.728 170.12 168.792 169.928 168.827C169.563 168.929 169.037 169.061 168.385 169.21C167.075 169.503 165.245 169.808 163.206 170.071C161.167 170.334 159.313 170.388 157.968 170.4C157.298 170.4 156.772 170.4 156.383 170.4C156.182 170.41 155.98 170.39 155.785 170.34C156.504 170.256 157.226 170.21 157.95 170.203C159.289 170.137 161.131 170.017 163.158 169.784C165.186 169.551 167.009 169.252 168.325 169.019C169.035 168.853 169.754 168.725 170.478 168.636Z" fill="#263238"/>
<path d="M175.31 131.387C175.324 131.498 175.324 131.61 175.31 131.721C175.31 131.973 175.274 132.29 175.256 132.678C175.256 132.888 175.226 133.121 175.208 133.366C175.19 133.611 175.136 133.892 175.094 134.185C175.009 134.849 174.889 135.508 174.736 136.159L174.461 137.295C174.365 137.689 174.221 138.09 174.09 138.491C173.809 139.38 173.482 140.255 173.109 141.11C172.235 143.062 171.163 144.92 169.91 146.654C168.621 148.362 167.163 149.934 165.556 151.348C164.848 151.955 164.11 152.526 163.344 153.058C162.979 153.303 162.644 153.56 162.291 153.77L161.287 154.368C160.659 154.762 160.031 155.026 159.493 155.295C159.223 155.42 158.984 155.546 158.751 155.641L158.099 155.893L157.202 156.222C157.103 156.271 156.996 156.304 156.885 156.317C156.979 156.256 157.079 156.206 157.184 156.168C157.412 156.06 157.705 155.934 158.057 155.779L158.685 155.51C158.919 155.402 159.158 155.271 159.415 155.133C160.013 154.845 160.596 154.526 161.161 154.176L162.154 153.578C162.495 153.363 162.823 153.1 163.182 152.855C163.906 152.37 164.6 151.76 165.353 151.139C168.557 148.334 171.11 144.865 172.834 140.973C173.21 140.129 173.544 139.267 173.833 138.389C173.964 137.977 174.12 137.588 174.221 137.193C174.323 136.798 174.413 136.434 174.508 136.075C174.712 135.363 174.795 134.699 174.909 134.119C174.957 133.832 175.017 133.563 175.053 133.312C175.088 133.061 175.1 132.84 175.124 132.63C175.168 132.232 175.204 131.915 175.232 131.68C175.247 131.579 175.273 131.481 175.31 131.387Z" fill="#263238"/>
<path d="M170.902 114.738C170.714 114.846 170.513 114.93 170.304 114.989C169.898 115.133 169.306 115.306 168.558 115.498C166.614 115.974 164.626 116.249 162.626 116.317C160.623 116.381 158.619 116.234 156.646 115.88C155.893 115.743 155.283 115.605 154.852 115.486C154.634 115.44 154.422 115.372 154.218 115.282C154.218 115.229 155.157 115.444 156.664 115.665C158.626 115.95 160.609 116.064 162.59 116.006C164.571 115.932 166.541 115.69 168.481 115.282C169.981 114.965 170.89 114.69 170.902 114.738Z" fill="#263238"/>
<g opacity="0.3">
<path d="M155.905 115.689C157.898 117.204 160.359 117.972 162.859 117.86C165.328 117.824 167.701 116.896 169.539 115.247C165.062 116.244 160.437 116.394 155.905 115.689Z" fill="black"/>
</g>
<g opacity="0.3">
<path d="M147.503 173.683C151.731 171.746 156.814 173.235 161.436 172.762C164.115 172.487 166.704 171.65 169.354 171.172C172.003 170.693 174.843 170.609 177.277 171.77C177.682 172.011 178.135 172.162 178.605 172.212C179.071 172.212 179.579 171.853 179.544 171.381C179.503 171.219 179.429 171.067 179.326 170.935C179.223 170.803 179.093 170.694 178.946 170.615C177.155 169.44 175.039 168.86 172.9 168.959C170.776 169.062 168.662 169.312 166.573 169.706C162.997 170.234 159.38 170.434 155.767 170.304C154.114 170.143 152.447 170.202 150.81 170.478C149.189 170.849 147.61 171.823 146.982 173.366" fill="black"/>
</g>
<path d="M184.31 118.966C184.31 118.966 205.491 142.826 205.479 147.909C205.479 151.707 197.041 166.352 192.113 169.694L187.999 173.33L183.275 167.572L187.258 164.348C187.258 164.348 187.09 160.671 188.101 159.642C189.112 158.614 194.452 150.2 194.452 150.2C194.007 150.044 193.614 149.768 193.315 149.404C192.993 148.902 182.097 137.911 182.097 137.911L182.641 130.005L184.31 118.966Z" fill="#08A9A0"/>
<path d="M194.452 150.2C194.815 150.213 195.174 150.282 195.516 150.403C196.356 150.636 197.176 150.936 197.968 151.3C198.781 151.649 199.52 152.151 200.145 152.777C200.617 153.291 200.659 153.764 200.623 153.758C200.442 153.457 200.227 153.178 199.983 152.927C199.339 152.373 198.615 151.92 197.836 151.581C196.012 150.744 194.422 150.301 194.452 150.2Z" fill="#263238"/>
<path d="M187.401 164.378C187.954 165.432 188.575 166.449 189.261 167.422C190.028 168.333 190.857 169.19 191.743 169.987C190.652 169.425 189.716 168.604 189.016 167.595C188.233 166.664 187.68 165.562 187.401 164.378Z" fill="#263238"/>
<path d="M186.498 166.842C186.498 166.908 186.199 166.621 185.769 166.728C185.647 166.776 185.536 166.846 185.441 166.937C185.347 167.027 185.271 167.135 185.219 167.255C185.138 167.38 185.104 167.529 185.12 167.677C185.136 167.825 185.203 167.963 185.308 168.068C185.414 168.174 185.55 168.245 185.697 168.272C185.845 168.299 185.997 168.28 186.133 168.217C186.243 168.154 186.337 168.067 186.41 167.964C186.483 167.861 186.534 167.743 186.558 167.619C186.584 167.363 186.564 167.103 186.498 166.854C186.498 166.824 186.815 167.081 186.773 167.655C186.762 167.823 186.711 167.986 186.623 168.129C186.536 168.273 186.415 168.393 186.271 168.481C186.08 168.584 185.86 168.624 185.644 168.592C185.429 168.561 185.229 168.461 185.075 168.307C184.906 168.153 184.805 167.938 184.794 167.709C184.789 167.499 184.843 167.292 184.949 167.111C185.026 166.965 185.132 166.837 185.261 166.734C185.389 166.631 185.538 166.556 185.697 166.513C185.808 166.493 185.921 166.496 186.031 166.523C186.14 166.55 186.242 166.599 186.331 166.669C186.462 166.758 186.51 166.842 186.498 166.842Z" fill="#263238"/>
<path d="M187.999 173.33C187.999 173.33 185.942 176.069 184.04 174.628C184.04 174.628 181.379 174.066 180.01 172.655C178.641 171.243 178.425 170.382 177.457 170.316C176.244 170.115 175.046 169.837 173.869 169.485C173.736 169.451 173.613 169.385 173.511 169.293C173.409 169.201 173.331 169.086 173.283 168.957C173.236 168.828 173.22 168.69 173.237 168.554C173.255 168.418 173.305 168.288 173.384 168.176C173.492 168.042 173.635 167.943 173.797 167.888C174.664 167.595 178.521 167.96 178.521 167.96L179.645 168.026L179.843 166.376L181.152 165.323C181.152 165.323 181.983 165.831 181.942 166.519C182.099 166.499 182.258 166.51 182.411 166.553C182.564 166.595 182.707 166.667 182.831 166.765C182.956 166.863 183.06 166.985 183.137 167.123C183.214 167.262 183.263 167.414 183.281 167.572L187.999 173.33Z" fill="#FFBE9D"/>
<path d="M139.077 174.251C139.077 174.251 141.272 176.978 143.323 175.531C143.323 175.531 146.187 174.933 147.664 173.54C149.141 172.146 149.38 171.255 150.415 171.189C151.449 171.124 154.434 170.699 154.487 170.723C154.541 170.747 155.301 169.037 154.368 168.744C153.435 168.451 149.297 168.839 149.297 168.839L148.101 168.911L147.897 167.255L147.562 166.136C147.562 166.136 145.601 166.734 145.637 167.41C145.307 167.371 144.975 167.459 144.708 167.655C144.44 167.852 144.257 168.142 144.196 168.469L139.077 174.251Z" fill="#FFBE9D"/>
<g opacity="0.3">
<path d="M158.069 155.582C158.099 153.513 159.648 151.766 161.352 150.588C163.057 149.41 165.006 148.585 166.549 147.204C169.593 144.483 170.52 140.159 172.577 136.631C172.9 136.075 173.558 135.465 174.09 135.836C174.461 136.093 174.425 136.649 174.335 137.091C173.436 141.389 171.442 145.382 168.546 148.682C165.65 151.982 161.951 154.478 157.806 155.928" fill="black"/>
</g>
<path d="M183.484 124.45C183.568 124.45 182.958 132.822 182.121 143.161C181.284 153.501 180.53 161.861 180.447 161.855C180.363 161.849 180.973 153.483 181.81 143.137C182.647 132.792 183.401 124.438 183.484 124.45Z" fill="#263238"/>
<g opacity="0.3">
<path d="M184.74 140.53C184.936 139.723 184.921 138.878 184.698 138.078C184.208 135.598 183.636 133.139 182.982 130.699C182.982 131.979 182.677 133.88 182.641 135.393C182.641 136.284 182.474 138.287 182.474 138.287L184.74 140.53Z" fill="black"/>
</g>
<g opacity="0.3">
<path d="M194.35 150.164C195.811 149.884 197.304 149.804 198.787 149.925C199.161 149.942 199.529 150.014 199.882 150.14C200.236 150.271 200.525 150.535 200.689 150.875C200.761 151.068 200.794 151.273 200.786 151.478C200.778 151.684 200.729 151.885 200.641 152.071C200.583 152.257 200.476 152.424 200.331 152.554C200.185 152.684 200.007 152.771 199.816 152.807C199.415 152.807 199.086 152.508 198.787 152.209C198.28 151.757 197.689 151.409 197.047 151.186C196.126 150.863 195.062 150.774 194.362 150.098" fill="black"/>
</g>
<path d="M201.4 149.984C200.189 149.818 198.969 149.733 197.747 149.727C196.528 149.831 195.317 150.015 194.123 150.277C196.417 149.23 199.03 149.125 201.4 149.984Z" fill="#263238"/>
<g opacity="0.3">
<path d="M132.302 151.174C131.085 150.841 129.824 150.704 128.564 150.768C128.028 150.724 127.489 150.814 126.997 151.031C126.764 151.104 126.566 151.26 126.44 151.469C126.313 151.678 126.268 151.926 126.311 152.167C126.354 152.407 126.483 152.624 126.675 152.776C126.866 152.928 127.106 153.005 127.35 152.992C127.757 152.997 128.162 152.93 128.546 152.795L131.536 151.928C131.745 151.885 131.94 151.79 132.104 151.653C132.189 151.58 132.242 151.477 132.253 151.366C132.264 151.254 132.232 151.143 132.164 151.055" fill="black"/>
</g>
<g opacity="0.3">
<path d="M143.52 137.097C143.296 134.928 142.669 132.819 141.672 130.878C141.565 130.669 141.415 130.442 141.188 130.418C140.829 130.388 140.656 130.848 140.626 131.207C140.394 133.791 141.043 136.377 142.468 138.545C142.635 138.796 142.922 139.071 143.191 138.927C143.46 138.784 143.412 138.521 143.394 138.276C143.335 137.45 143.269 136.625 143.209 135.8" fill="black"/>
</g>
<path d="M158.763 115.916C158.707 115.753 158.679 115.581 158.679 115.408C158.613 114.586 158.688 113.759 158.901 112.962C158.932 112.793 158.989 112.63 159.068 112.478C159.104 112.478 158.895 113.237 158.811 114.188C158.727 115.139 158.799 115.91 158.763 115.916Z" fill="#FAFAFA"/>
<path d="M168.176 115.061C168.134 115.061 168.02 114.35 167.763 113.494C167.506 112.639 167.225 111.975 167.261 111.958C167.356 112.085 167.433 112.226 167.488 112.376C167.797 113.083 168.016 113.827 168.14 114.589C168.172 114.744 168.184 114.903 168.176 115.061Z" fill="#FAFAFA"/>
<path d="M155.683 164.988C155.683 164.988 155.683 164.815 155.624 164.498C155.564 164.181 155.528 163.673 155.468 163.087C155.331 161.831 155.139 160.097 154.87 157.908C154.392 153.531 153.704 147.491 152.897 140.823C152.089 134.155 151.294 128.127 150.708 123.768C150.415 121.609 150.182 119.851 150.008 118.601C149.931 118.003 149.871 117.549 149.823 117.196C149.775 116.843 149.769 116.706 149.769 116.706C149.769 116.706 149.799 116.873 149.847 117.196C149.895 117.519 149.972 118.009 150.056 118.595L150.798 123.756C151.396 128.116 152.203 134.143 153.016 140.811C153.83 147.479 154.499 153.519 154.96 157.896C155.181 160.061 155.354 161.825 155.486 163.081C155.54 163.679 155.582 164.139 155.618 164.492C155.653 164.845 155.683 164.988 155.683 164.988Z" fill="#FAFAFA"/>
<path d="M158.111 169.987C158.111 169.987 158.069 169.928 158.016 169.814C157.946 169.648 157.886 169.479 157.836 169.306C157.668 168.723 157.591 168.118 157.609 167.512C157.622 166.915 157.729 166.323 157.926 165.76C157.985 165.588 158.055 165.42 158.135 165.257C158.195 165.144 158.231 165.084 158.237 165.09C158.243 165.096 158.141 165.353 158.01 165.784C157.665 166.912 157.634 168.113 157.92 169.258C158.027 169.718 158.129 169.982 158.111 169.987Z" fill="#FAFAFA"/>
<path d="M156.515 174.67C156.373 174.512 156.258 174.332 156.174 174.138C155.71 173.212 155.504 172.18 155.576 171.148C155.58 170.944 155.616 170.742 155.683 170.55C155.683 170.55 155.683 170.795 155.683 171.177C155.665 172.184 155.869 173.183 156.281 174.102C156.413 174.455 156.527 174.664 156.515 174.67Z" fill="#FAFAFA"/>
<path d="M170.544 174.55C170.457 174.286 170.387 174.016 170.334 173.743C170.221 173.241 170.053 172.547 169.856 171.793C169.659 171.04 169.461 170.358 169.312 169.862C169.221 169.601 169.151 169.333 169.102 169.061C169.139 169.125 169.169 169.193 169.192 169.264C169.246 169.395 169.318 169.593 169.401 169.862C169.563 170.346 169.772 171.028 169.999 171.787C170.227 172.547 170.352 173.241 170.448 173.749C170.496 174 170.532 174.209 170.55 174.347C170.557 174.415 170.555 174.483 170.544 174.55Z" fill="#FAFAFA"/>
<path d="M174.431 163.529C174.528 163.717 174.596 163.919 174.634 164.127C174.747 164.635 174.783 165.157 174.742 165.676C174.696 166.195 174.575 166.705 174.383 167.189C174.306 167.389 174.206 167.58 174.084 167.757C174.356 167.087 174.535 166.383 174.616 165.664C174.656 165.157 174.634 164.647 174.55 164.145C174.484 163.768 174.413 163.535 174.431 163.529Z" fill="#FAFAFA"/>
<path d="M171.207 145.248C171.207 145.248 171.207 145.314 171.207 145.44C171.207 145.565 171.207 145.786 171.178 145.99C171.148 146.534 171.112 147.186 171.07 148.011C170.986 149.721 170.92 152.083 170.956 154.691C170.992 157.298 171.124 159.66 171.249 161.364C171.315 162.172 171.369 162.847 171.411 163.386C171.411 163.595 171.441 163.774 171.459 163.936C171.464 163.999 171.464 164.063 171.459 164.127C171.439 164.065 171.427 164.001 171.423 163.936L171.357 163.392C171.303 162.913 171.231 162.196 171.154 161.376C171.004 159.672 170.861 157.31 170.825 154.697C170.789 152.083 170.873 149.715 170.974 148.011C171.028 147.156 171.082 146.462 171.124 145.99C171.124 145.78 171.16 145.601 171.178 145.44C171.179 145.375 171.189 145.31 171.207 145.248Z" fill="#FAFAFA"/>
<path d="M173.133 114.977C173.169 114.977 172.954 121.077 172.655 128.6C172.356 136.123 172.057 142.216 172.057 142.216C172.057 142.216 172.236 136.117 172.535 128.594C172.834 121.071 173.097 114.977 173.133 114.977Z" fill="#FAFAFA"/>
<path d="M183.323 127.129C183.323 127.165 174.257 127.649 163.075 128.211C151.892 128.773 142.82 129.198 142.82 129.162C142.82 129.126 151.88 128.648 163.069 128.086C174.257 127.523 183.317 127.099 183.323 127.129Z" fill="#FAFAFA"/>
<path d="M166.399 149.5C166.336 149.524 166.27 149.541 166.202 149.548L165.604 149.655C165.108 149.745 164.408 149.865 163.493 149.996C161.699 150.259 159.223 150.594 156.473 150.756C153.722 150.917 151.222 150.995 149.416 150.983C148.513 150.983 147.784 150.983 147.275 150.941H146.677H146.474C146.542 150.936 146.61 150.936 146.677 150.941H149.398C151.192 150.941 153.698 150.869 156.449 150.678C159.2 150.487 161.675 150.2 163.463 149.954L165.58 149.655L166.178 149.572L166.399 149.5Z" fill="#FAFAFA"/>
<path d="M181.194 144.83C181.194 144.86 178.916 145.075 176.093 145.302C173.271 145.529 170.986 145.691 170.98 145.661C170.974 145.631 173.265 145.41 176.087 145.182C178.91 144.955 181.194 144.794 181.194 144.83Z" fill="#FAFAFA"/>
<path d="M181.595 164.534C181.595 164.534 179.753 165.084 176.715 165.73C172.756 166.574 168.744 167.146 164.707 167.44C160.669 167.715 156.618 167.715 152.58 167.44C149.482 167.219 147.58 166.926 147.58 166.926H147.927L148.926 167.027C149.787 167.123 151.037 167.225 152.586 167.326C156.621 167.578 160.668 167.566 164.701 167.29C168.732 167.007 172.739 166.457 176.697 165.646C178.216 165.335 179.442 165.048 180.285 164.839L181.254 164.605L181.595 164.534Z" fill="#FAFAFA"/>
<path d="M197.902 135.979C197.902 135.979 197.872 136.015 197.806 136.063L197.507 136.284C197.25 136.47 196.874 136.745 196.425 137.097C195.245 138.018 194.129 139.017 193.082 140.087C192.037 141.147 191.063 142.274 190.164 143.46C189.817 143.921 189.566 144.297 189.369 144.561L189.159 144.865L189.076 144.967C189.076 144.967 189.076 144.925 189.135 144.854L189.327 144.537C189.5 144.262 189.757 143.879 190.092 143.412C190.962 142.195 191.926 141.047 192.975 139.98C194.027 138.913 195.156 137.926 196.353 137.026C196.814 136.685 197.191 136.428 197.466 136.242L197.777 136.045L197.902 135.979Z" fill="#FAFAFA"/>
<path d="M199.218 149.5C199.162 149.44 199.11 149.376 199.062 149.309L198.632 148.747L197.071 146.665C195.743 144.907 193.89 142.479 191.779 139.89C189.668 137.301 187.706 134.963 186.265 133.312L184.561 131.345L184.094 130.807L183.939 130.615C183.939 130.615 184.005 130.675 184.112 130.789L184.597 131.309L186.331 133.252C187.79 134.903 189.763 137.211 191.874 139.83C193.985 142.45 195.833 144.86 197.143 146.63L198.674 148.735L199.08 149.333C199.176 149.434 199.218 149.5 199.218 149.5Z" fill="#FAFAFA"/>
<path d="M201.275 150.098C201.353 150.608 201.254 151.129 200.994 151.574C200.734 152.02 200.328 152.362 199.846 152.544C200.266 152.282 200.621 151.928 200.886 151.509C201.117 151.073 201.25 150.591 201.275 150.098Z" fill="#FAFAFA"/>
<path d="M187.527 165.108C187.547 165.055 187.573 165.005 187.605 164.958C187.682 164.839 187.766 164.701 187.856 164.552C188.119 164.145 188.454 163.649 188.801 163.069C189.608 161.825 190.744 160.114 192.024 158.249C193.303 156.383 194.494 154.709 195.367 153.507L196.413 152.089L196.7 151.713C196.733 151.666 196.769 151.622 196.808 151.581C196.808 151.581 196.808 151.635 196.724 151.725L196.449 152.119L195.438 153.554C194.547 154.84 193.399 156.491 192.125 158.338C190.852 160.186 189.733 161.849 188.878 163.122L187.898 164.582L187.628 164.976C187.599 165.023 187.565 165.067 187.527 165.108Z" fill="#FAFAFA"/>
<path d="M189.817 168.211C189.273 168.732 188.698 169.219 188.095 169.671C187.522 170.157 186.923 170.612 186.301 171.034C186.848 170.517 187.423 170.03 188.023 169.575C188.968 168.797 189.799 168.187 189.817 168.211Z" fill="#FAFAFA"/>
<path d="M198.07 163.176C197.932 163.135 197.798 163.083 197.669 163.021C197.305 162.877 196.951 162.707 196.61 162.512C195.478 161.89 194.445 161.1 193.549 160.168C192.651 159.237 191.897 158.177 191.312 157.023C191.132 156.674 190.974 156.315 190.84 155.946C190.781 155.816 190.736 155.68 190.708 155.54C190.776 155.666 190.835 155.796 190.888 155.928C190.989 156.186 191.163 156.527 191.39 156.981C191.99 158.116 192.747 159.161 193.638 160.085C194.522 161.002 195.529 161.792 196.628 162.435C197.059 162.68 197.412 162.865 197.663 162.979C197.804 163.032 197.94 163.098 198.07 163.176Z" fill="#FAFAFA"/>
<path d="M141.475 130.077L141.266 130.31L140.668 130.968L138.395 133.36L130.86 141.277L128.708 143.526C128.014 144.256 127.332 144.943 126.746 145.655C125.55 147.042 124.761 148.609 124.803 150.014C124.791 150.562 124.892 151.106 125.097 151.614C125.303 152.122 125.609 152.583 125.999 152.968C126.297 153.233 126.644 153.437 127.021 153.566L126.728 153.471C126.447 153.355 126.188 153.191 125.963 152.986C125.559 152.601 125.238 152.137 125.022 151.623C124.806 151.108 124.699 150.554 124.707 149.996C124.647 148.561 125.448 146.964 126.644 145.559C127.242 144.848 127.918 144.154 128.612 143.424L130.759 141.17L138.317 133.282C139.262 132.302 140.04 131.488 140.62 130.89L141.218 130.244C141.391 130.149 141.475 130.077 141.475 130.077Z" fill="#FAFAFA"/>
<path d="M140.016 143.036L139.932 142.922C139.878 142.808 139.812 142.689 139.747 142.557C139.591 142.24 139.352 141.78 139.053 141.218C137.493 138.284 135.579 135.552 133.354 133.085C132.929 132.612 132.577 132.236 132.325 131.985L132.044 131.686C132.009 131.651 131.977 131.613 131.949 131.572L132.062 131.668L132.361 131.949C132.618 132.194 132.959 132.547 133.42 133.025C134.555 134.245 135.608 135.54 136.571 136.9C137.529 138.262 138.394 139.686 139.161 141.164C139.454 141.732 139.675 142.198 139.818 142.527L139.986 142.904C140.002 142.946 140.012 142.991 140.016 143.036Z" fill="#FAFAFA"/>
<path d="M132.624 150.337L132.499 150.373L132.14 150.445C131.823 150.511 131.369 150.588 130.801 150.66C129.319 150.845 127.825 150.901 126.333 150.828C124.842 150.759 123.359 150.559 121.902 150.23C121.346 150.098 120.898 149.978 120.593 149.883L120.24 149.769C120.197 149.76 120.157 149.744 120.12 149.721H120.246L120.605 149.811C120.916 149.895 121.364 150.002 121.92 150.122C123.376 150.436 124.853 150.636 126.339 150.72C127.824 150.794 129.311 150.75 130.789 150.588C131.357 150.529 131.817 150.469 132.128 150.415L132.493 150.367C132.535 150.35 132.579 150.34 132.624 150.337Z" fill="#FAFAFA"/>
<path d="M136.661 157.872C136.548 157.955 136.431 158.031 136.308 158.099C136.075 158.231 135.74 158.44 135.339 158.697C134.28 159.386 133.28 160.162 132.349 161.017C131.429 161.876 130.579 162.808 129.808 163.804C129.515 164.187 129.282 164.504 129.132 164.725C129.057 164.844 128.971 164.956 128.875 165.06C128.939 164.934 129.011 164.812 129.09 164.695C129.234 164.468 129.455 164.145 129.742 163.75C130.492 162.732 131.337 161.787 132.266 160.928C133.188 160.069 134.19 159.298 135.256 158.625C135.668 158.368 136.009 158.171 136.248 158.027C136.38 157.961 136.518 157.909 136.661 157.872Z" fill="#FAFAFA"/>
<path d="M139.053 166.382C139.053 166.382 136.876 163.254 134.269 159.349C131.662 155.444 129.545 152.257 129.575 152.239C129.605 152.221 131.751 155.372 134.359 159.277C136.966 163.182 139.083 166.364 139.053 166.382Z" fill="#FAFAFA"/>
<path d="M140.357 172.266C139.775 171.888 139.216 171.477 138.682 171.034C138.122 170.626 137.589 170.182 137.086 169.706C137.666 170.086 138.225 170.497 138.76 170.938C139.32 171.347 139.853 171.79 140.357 172.266Z" fill="#FAFAFA"/>
</svg>
