<svg width="434" height="251" viewBox="0 0 434 251" fill="none" xmlns="http://www.w3.org/2000/svg">
<path d="M345.81 247.799L316.168 124.766L318.239 119.923L347.604 247.787C347.68 248.114 347.43 248.426 347.096 248.426H346.605C346.228 248.426 345.898 248.167 345.81 247.799Z" fill="#77A4E5"/>
<path d="M212.032 248.426C211.423 248.426 210.96 247.88 211.058 247.279L219.789 194.36H223.53L213.119 247.533C213.016 248.051 212.563 248.426 212.032 248.426Z" fill="#77A4E5"/>
<path d="M295.782 248.426C295.173 248.426 294.71 247.88 294.808 247.279L303.539 194.36H307.281L296.869 247.533C296.768 248.051 296.313 248.426 295.782 248.426Z" fill="#77A4E5"/>
<path d="M316.09 194.471H211.822L233.423 59.041H337.694L316.09 194.471Z" fill="#F5FBFF"/>
<path d="M323.893 197.422H204.141V193.439H323.893V197.422Z" fill="#77A4E5"/>
<path d="M274.717 87.3775C274.637 88.4518 274.478 89.5036 274.249 90.5301C272.075 100.21 263.458 107.625 253.718 107.642C242.944 107.66 234.875 98.617 235.697 87.4454C236.52 76.2713 245.923 67.2007 256.697 67.1806C258.956 67.1781 261.098 67.5731 263.06 68.3028C263.943 68.6299 264.794 69.0249 265.601 69.4828C267.345 70.4717 268.898 71.7473 270.206 73.2545C270.936 74.0949 271.59 75.0057 272.161 75.9794C272.493 76.5405 272.795 77.1243 273.067 77.7281C273.824 79.4039 274.347 81.223 274.599 83.1428C274.727 84.1065 274.785 85.0953 274.773 86.1043C274.765 86.5245 274.748 86.9497 274.717 87.3775Z" fill="#BDD1F9"/>
<path d="M273.067 77.7278L255.208 87.4098C255.208 87.4098 262.578 74.4342 265.602 69.4825C267.346 70.4713 268.898 71.747 270.207 73.2542C270.936 74.0945 271.591 75.0054 272.162 75.9791C272.494 76.5402 272.796 77.1239 273.067 77.7278Z" fill="white"/>
<path d="M274.921 75.2798L258.609 84.124C258.609 84.124 265.34 72.2705 268.103 67.7465C269.695 68.6498 271.115 69.8148 272.31 71.1936C272.976 71.9585 273.573 72.7939 274.094 73.6795C274.398 74.1953 274.672 74.7288 274.921 75.2798Z" fill="#0169EE"/>
<path d="M222.659 183.671L307.269 183.676L315.783 135.156L231.174 135.151L222.659 183.671ZM307.787 184.177L221.965 184.17L230.653 134.652L316.478 134.657L307.787 184.177Z" fill="#BDD1F9"/>
<path d="M302.669 177.386L226.556 177.381C226.556 177.381 240.058 170.14 243.762 170.52C247.465 170.9 252.787 173.831 256.211 173.944C259.633 174.06 263.339 163.782 267.151 164.267C270.961 164.75 272.395 173.841 274.368 172.953C276.34 172.065 282.266 171.68 285.678 172.953C289.089 174.226 294.061 168.907 297.06 169.075C300.06 169.242 302.669 177.386 302.669 177.386Z" fill="#0169EE"/>
<path d="M244.859 162.832L230.321 162.83L230.456 162.06H244.992L244.859 162.832Z" fill="#263238"/>
<path d="M244.569 164.478H230.031L230.167 163.706L244.705 163.708L244.569 164.478Z" fill="#263238"/>
<path d="M230.912 152.56L307.025 152.565C307.025 152.565 296.065 145.323 292.228 145.701C288.39 146.081 282.04 149.012 278.578 149.125C275.113 149.238 275.015 138.96 271.034 139.446C267.054 139.929 262.429 149.019 260.769 148.131C259.105 147.243 253.318 146.856 249.459 148.129C245.601 149.402 242.497 144.083 239.437 144.249C236.38 144.415 230.912 152.56 230.912 152.56Z" fill="#BDD1F9"/>
<path d="M248.965 139.425H234.427L234.563 138.655H249.101L248.965 139.425Z" fill="#BDD1F9"/>
<path d="M248.676 141.073H234.138L234.274 140.301H248.812L248.676 141.073Z" fill="#BDD1F9"/>
<path d="M235.846 127.746H232.507L235.408 112.103H238.747L235.846 127.746Z" fill="#BDD1F9"/>
<path d="M240.392 127.746H237.053L239.3 115.629H242.639L240.392 127.746Z" fill="#BDD1F9"/>
<path d="M244.942 127.746H241.604L243.946 115.108H247.285L244.942 127.746Z" fill="#BDD1F9"/>
<path d="M249.488 127.746H246.15L247.933 118.135H251.272L249.488 127.746Z" fill="#BDD1F9"/>
<path d="M254.038 127.746H250.699L252.611 117.435H255.95L254.038 127.746Z" fill="#BDD1F9"/>
<path d="M258.584 127.746H255.245L256.729 119.75H260.066L258.584 127.746Z" fill="#BDD1F9"/>
<path d="M280.505 127.746H277.166L280.067 112.103H283.406L280.505 127.746Z" fill="#0169EE"/>
<path d="M285.051 127.746H281.714L283.961 115.629H287.297L285.051 127.746Z" fill="#0169EE"/>
<path d="M289.6 127.746H286.261L288.604 115.108H291.943L289.6 127.746Z" fill="#0169EE"/>
<path d="M294.146 127.746H290.807L292.591 118.135H295.93L294.146 127.746Z" fill="#0169EE"/>
<path d="M298.696 127.746H295.358L297.27 117.435H300.609L298.696 127.746Z" fill="#0169EE"/>
<path d="M303.242 127.746H299.904L301.388 119.75H304.727L303.242 127.746Z" fill="#0169EE"/>
<path d="M296.577 76.6787H285.709L285.989 75.1916H296.856L296.577 76.6787Z" fill="#BDD1F9"/>
<path d="M309.911 76.6787H297.909L298.191 75.1916H310.19L309.911 76.6787Z" fill="#BDD1F9"/>
<path d="M318.462 76.6787H310.811L311.09 75.1916H318.742L318.462 76.6787Z" fill="#BDD1F9"/>
<path d="M325.604 76.6787H319.701L319.98 75.1916H325.883L325.604 76.6787Z" fill="#BDD1F9"/>
<path d="M295.384 83.0312H284.517L284.797 81.5416H295.664L295.384 83.0312Z" fill="#BDD1F9"/>
<path d="M308.715 83.0312H296.716L296.995 81.5416H308.997L308.715 83.0312Z" fill="#BDD1F9"/>
<path d="M317.27 83.0312H309.619L309.898 81.5416H317.549L317.27 83.0312Z" fill="#BDD1F9"/>
<path d="M324.41 83.0312H318.508L318.787 81.5416H324.69L324.41 83.0312Z" fill="#BDD1F9"/>
<path d="M303.036 73.206H286.362L286.641 71.7164H303.315L303.036 73.206Z" fill="#BDD1F9"/>
<path d="M314.236 73.206H304.625L304.904 71.7164H314.515L314.236 73.206Z" fill="#BDD1F9"/>
<path d="M326.264 73.206H315.591L315.87 71.7164H326.544L326.264 73.206Z" fill="#BDD1F9"/>
<path d="M301.768 79.9591H285.094L285.373 78.4696H302.048L301.768 79.9591Z" fill="#BDD1F9"/>
<path d="M312.967 79.9591H303.356L303.635 78.4696H313.247L312.967 79.9591Z" fill="#BDD1F9"/>
<path d="M324.997 79.9591H314.323L314.603 78.4696H325.276L324.997 79.9591Z" fill="#BDD1F9"/>
<path d="M294.191 89.3826H283.324L283.603 87.8931H294.471L294.191 89.3826Z" fill="#BDD1F9"/>
<path d="M307.522 89.3826H295.523L295.802 87.8931H307.801L307.522 89.3826Z" fill="#BDD1F9"/>
<path d="M316.077 89.3826H308.425L308.705 87.8931H316.356L316.077 89.3826Z" fill="#BDD1F9"/>
<path d="M323.218 89.3826H317.316L317.595 87.8931H323.498L323.218 89.3826Z" fill="#BDD1F9"/>
<path d="M300.575 86.3106H283.901L284.18 84.8236H300.854L300.575 86.3106Z" fill="#BDD1F9"/>
<path d="M311.775 86.3106H302.164L302.443 84.8236H312.054L311.775 86.3106Z" fill="#BDD1F9"/>
<path d="M323.801 86.3106H313.128L313.41 84.8236H324.083L323.801 86.3106Z" fill="#BDD1F9"/>
<path d="M293.075 95.3378H282.205L282.485 93.8483H293.354L293.075 95.3378Z" fill="#BDD1F9"/>
<path d="M306.405 95.3378H294.405L294.684 93.8483H306.684L306.405 95.3378Z" fill="#BDD1F9"/>
<path d="M314.958 95.3378H307.309L307.588 93.8483H315.237L314.958 95.3378Z" fill="#BDD1F9"/>
<path d="M322.101 95.3378H316.198L316.477 93.8483H322.38L322.101 95.3378Z" fill="#BDD1F9"/>
<path d="M299.456 92.2657H282.784L283.064 90.7762H299.735L299.456 92.2657Z" fill="#BDD1F9"/>
<path d="M310.655 92.2657H301.044L301.326 90.7762H310.935L310.655 92.2657Z" fill="#BDD1F9"/>
<path d="M322.685 92.2657H312.011L312.291 90.7762H322.964L322.685 92.2657Z" fill="#BDD1F9"/>
<path d="M268.341 114.428H263.022L263.16 113.701H268.479L268.341 114.428Z" fill="#BDD1F9"/>
<path d="M274.869 114.428H268.996L269.132 113.701H275.005L274.869 114.428Z" fill="#BDD1F9"/>
<path d="M267.758 117.538H262.438L262.577 116.808H267.896L267.758 117.538Z" fill="#BDD1F9"/>
<path d="M274.285 117.538H268.412L268.548 116.808H274.42L274.285 117.538Z" fill="#BDD1F9"/>
<path d="M271.505 112.729H263.342L263.481 112H271.64L271.505 112.729Z" fill="#BDD1F9"/>
<path d="M276.985 112.729H272.282L272.418 112H277.123L276.985 112.729Z" fill="#BDD1F9"/>
<path d="M270.883 116.036H262.724L262.859 115.306H271.019L270.883 116.036Z" fill="#BDD1F9"/>
<path d="M276.365 116.036H271.66L271.796 115.306H276.501L276.365 116.036Z" fill="#BDD1F9"/>
<path d="M310.952 114.428H305.633L305.771 113.701H311.09L310.952 114.428Z" fill="#BDD1F9"/>
<path d="M317.478 114.428H311.603L311.742 113.701H317.614L317.478 114.428Z" fill="#BDD1F9"/>
<path d="M310.369 117.538H305.05L305.188 116.808H310.507L310.369 117.538Z" fill="#BDD1F9"/>
<path d="M316.895 117.538H311.02L311.159 116.808H317.031L316.895 117.538Z" fill="#BDD1F9"/>
<path d="M314.115 112.729H305.953L306.091 112H314.251L314.115 112.729Z" fill="#BDD1F9"/>
<path d="M319.595 112.729H314.892L315.028 112H319.733L319.595 112.729Z" fill="#BDD1F9"/>
<path d="M313.493 116.036H305.331L305.469 115.306H313.629L313.493 116.036Z" fill="#BDD1F9"/>
<path d="M318.976 116.036H314.271L314.406 115.306H319.112L318.976 116.036Z" fill="#BDD1F9"/>
<path d="M339.254 246.418C339.065 248.964 335.474 248.992 331.398 248.519C327.322 248.046 328.407 249.078 322.7 249.156C316.994 249.236 315.026 247.349 314.749 246.534C314.503 245.812 317.253 245.203 320.192 244.486C320.561 244.398 320.934 244.304 321.304 244.209C324.62 243.366 326.817 240.885 329.652 238.719C332.339 236.666 335.804 229.238 335.804 229.238L343.599 228.886C343.599 228.886 340.318 235.546 339.085 238.414C338.358 240.105 338.667 242.178 338.982 243.771C339.15 244.637 339.319 245.522 339.254 246.418Z" fill="#FFCEAC"/>
<path d="M331.398 248.519C327.322 248.046 328.407 249.078 322.7 249.156C316.994 249.236 315.026 247.349 314.749 246.534C314.503 245.812 317.253 245.203 320.192 244.486L320.227 244.541C320.227 244.541 323.903 246.511 328.6 246.041C332.432 245.656 336.34 244.058 338.982 243.771C339.15 244.637 339.319 245.522 339.254 246.418C339.065 248.964 335.474 248.992 331.398 248.519Z" fill="#233862"/>
<path d="M393.093 246.946C392.909 249.493 389.316 249.523 385.24 249.055C381.164 248.587 382.249 249.616 376.542 249.702C370.835 249.787 368.868 247.903 368.591 247.087C368.342 246.363 371.092 245.751 374.031 245.034C374.401 244.944 374.771 244.851 375.143 244.757C378.457 243.909 380.651 241.426 383.484 239.257C386.169 237.202 383.486 225.034 383.486 225.034L392.061 224.201C392.061 224.201 391.651 234.444 391.656 239.101C391.659 240.94 392.504 242.707 392.821 244.299C392.99 245.165 393.158 246.051 393.093 246.946Z" fill="#FFCEAC"/>
<path d="M385.24 249.055C381.164 248.587 382.249 249.616 376.542 249.702C370.835 249.787 368.868 247.903 368.591 247.087C368.342 246.363 371.092 245.751 374.031 245.034L374.066 245.087C374.066 245.087 377.742 247.055 382.442 246.579C386.272 246.192 390.177 244.589 392.821 244.299C392.99 245.165 393.158 246.051 393.093 246.946C392.909 249.493 389.316 249.523 385.24 249.055Z" fill="#233862"/>
<path d="M368.07 36.6592C366.593 30.5878 368.732 27.7597 370.664 26.2551C371.58 24.0208 372.624 22.4104 373.693 21.8041C375.641 20.6944 377.976 20.5737 379.609 20.6718C379.189 20.2365 378.361 20.078 378.361 20.078C379.375 19.9296 381.637 20.9335 381.637 20.9335C395.725 15.5037 397.939 36.2491 397.644 41.07C397.35 45.8883 397.388 51.5647 404.72 55.3615C418.704 62.6079 400.07 89.9128 400.07 89.9128C400.427 86.0179 382.455 65.4637 373.08 59.3068C370.797 55.9478 369.987 50.0122 369.927 49.5442C370.319 54.2519 371.125 56.8913 371.844 58.3783C367.572 54.4457 366.938 45.0001 368.07 36.6592Z" fill="#263238"/>
<path d="M373.637 59.6134C373.589 59.636 378.163 62.0113 381.603 61.0677C384.838 60.1871 386.955 55.9902 386.909 55.9801C385.538 55.7084 385.143 53.8263 385.173 45.732L384.554 45.8553L374.135 47.9185C374.135 47.9185 374.374 51.197 374.379 54.2843C374.387 56.8784 374.231 59.3366 373.637 59.6134Z" fill="#FFCEAC"/>
<path d="M374.134 47.9187C374.134 47.9187 374.373 51.1972 374.378 54.2845C380.208 54.1209 383.29 48.8018 384.553 45.8555L374.134 47.9187Z" fill="#FFAF79"/>
<path d="M331.751 233.367C331.24 234.968 332.39 236.618 334.068 236.696L338.137 236.887L342.444 237.018C343.521 237.051 344.55 236.58 345.23 235.745C348.667 231.531 359.247 217.476 365.665 197.057C365.847 196.484 366.035 195.905 366.237 195.319C370.476 182.96 379.263 167.448 383.892 153.408C384.629 151.171 385.291 149.065 385.885 147.075C386.074 146.436 386.26 145.809 386.436 145.193C389.848 133.337 390.837 125.552 391.748 117.233L358.313 117.503C358.313 117.503 351.273 172.211 331.751 233.367Z" fill="#263238"/>
<path d="M362.993 98.2894C363.076 114.201 360.658 121.025 360.658 121.025C360.658 121.025 374.975 128.299 391.989 122.945C392.188 122.882 404.159 119.493 404.159 119.493C403.875 118.849 401.51 108.203 401.233 107.612C397.64 99.8972 396.661 96.6589 396.236 94.2887C395.446 89.8604 395.428 85.2785 395.821 80.9583C396.86 69.52 399.947 60.0268 399.947 60.0268C395.313 58.97 390.97 57.1181 386.147 55.309C385.037 56.6904 381.643 58.1372 378.699 58.0692C375.31 57.9963 374.213 56.5444 374.386 54.9618C370.776 56.9697 367.895 58.8693 367.895 58.8693C364.825 64.201 358.6 69.3792 358.147 77.5565C358.037 79.5669 362.991 97.844 362.993 98.2894Z" fill="white"/>
<path d="M391.747 100.063C393.209 102.131 396.009 114.704 402.981 116.284C399.388 107.324 396.661 103.394 396.236 100.639C395.446 95.4983 395.428 90.1768 395.82 85.1571C393.488 81.0659 391.747 78.2629 391.747 78.2629C391.563 77.6012 388.038 66.7014 386.908 76.4438C385.781 86.1887 390.114 97.7503 391.747 100.063Z" fill="#5F9AA8"/>
<path d="M372.19 50.8425C372.19 50.8425 385.981 51.069 385.991 42.4789C386.001 33.8864 387.787 28.132 378.981 27.6213C370.177 27.113 368.461 30.389 367.761 33.2574C367.059 36.1232 368.602 50.5632 372.19 50.8425Z" fill="#FFCEAC"/>
<path d="M372.7 27.413C372.7 27.413 376.474 37.4925 382.271 38.9821C388.066 40.4716 390.58 38.9192 390.58 38.9192C390.58 38.9192 386.134 35.3891 385.213 29.2246C385.213 29.2246 375.548 22.6147 372.7 27.413Z" fill="#263238"/>
<path d="M373.636 28.2301C373.636 28.2301 370.815 30.4795 370.128 32.6685C369.439 34.855 369.13 39.3589 367.819 39.2054C367.819 39.2054 364.973 32.3565 368.171 28.4792C371.56 24.3704 373.636 28.2301 373.636 28.2301Z" fill="#263238"/>
<path d="M350.488 109.333L343.974 129.195L347.688 130.684L358.459 113.137L350.488 109.333Z" fill="#FFCEAC"/>
<path d="M368.049 57.6991C368.049 57.6991 360.368 60.7462 358.146 65.4991C355.922 70.252 352.555 102.126 351.217 105.4C349.876 108.673 348.867 111.265 348.867 111.265C348.867 111.265 352.739 114.528 356.634 114.767C360.529 115.009 368.049 57.6991 368.049 57.6991Z" fill="#088C85"/>
<path d="M374.386 54.9614C374.386 54.9614 366.408 74.6726 366.174 78.6632C365.94 82.6512 365.235 143.904 365.235 143.904C365.235 143.904 365.703 146.719 360.306 145.544C354.909 144.372 353.5 143.199 353.5 143.199C353.5 143.199 358.663 105.417 357.257 92.2729C355.848 79.1312 368.051 57.6989 368.051 57.6989L374.386 54.9614Z" fill="#08A9A0"/>
<path d="M338.136 236.887L342.811 237.028C343.647 237.056 344.449 236.696 344.98 236.049C348.123 232.245 359.083 217.999 365.665 197.057C365.846 196.483 366.035 195.905 366.236 195.318C370.476 182.959 379.262 167.447 383.892 153.407C384.629 151.171 385.291 149.065 385.885 147.074C386.074 146.435 386.26 145.809 386.436 145.192L381.512 141.456C381.512 141.456 366.73 165.392 362.153 187.919C358.177 207.486 342.258 231.03 338.136 236.887Z" fill="#2D424D"/>
<path d="M380.998 190.017C380.917 200.381 381.408 223.479 382.671 234.771C382.787 235.803 383.66 236.583 384.699 236.583H388.189C389.658 236.583 390.758 236.572 391.49 236.562C392.121 236.552 392.662 236.099 392.783 235.478C396.253 217.825 398.736 203.158 400.553 190.485C402.073 179.879 403.426 170.784 404.465 162.956C405.512 155.078 406.239 148.481 406.498 142.908C406.539 142.029 406.569 141.176 406.587 140.346C406.602 139.513 406.607 138.706 406.602 137.918L377.712 135.103C378.076 154.295 381.045 183.648 380.998 190.017Z" fill="#263238"/>
<path d="M388.189 236.583C389.51 236.583 390.531 236.575 391.254 236.565C392.023 236.555 392.68 236.004 392.829 235.252C396.273 217.699 398.744 203.103 400.553 190.485C402.073 179.879 403.427 170.784 404.466 162.956C405.512 155.078 406.24 148.481 406.499 142.908L395.898 149.142C395.898 149.142 402.664 151.53 400.083 169.598C397.501 187.669 391.782 234.026 388.189 236.583Z" fill="#2D424D"/>
<path d="M386.822 142.728C386.822 142.728 388.858 150.08 395.898 149.142C402.938 148.203 412.95 143.979 412.95 143.979C412.95 143.979 409.941 134.473 406.202 121.983C401.673 106.864 396.064 87.3713 393.422 75.0775C392.68 71.6305 392.174 68.7545 391.986 66.6938L386.146 55.3612C386.146 55.3612 377.437 74.909 376.967 79.8355C376.499 84.7646 386.822 142.728 386.822 142.728Z" fill="#08A9A0"/>
<path d="M393.853 79.1013L386.146 55.3618C386.166 55.3718 395.881 58.2528 400.77 60.7211C400.77 60.7211 403.825 64.6613 405.714 73.747C405.714 73.747 407.709 95.5593 403.251 103.538C403.251 103.538 389.171 106.356 366.641 98.6113V93.4482C366.641 93.4482 391.284 94.739 396.329 95.3252L393.853 79.1013Z" fill="#FFCEAC"/>
<path d="M387.135 90.163C387.449 98.1416 389.329 113.631 406.066 121.921C406.111 121.944 406.157 121.967 406.202 121.984C401.673 106.865 396.065 87.3726 393.423 75.0789C390.348 79.6733 386.964 85.7698 387.135 90.163Z" fill="#08A9A0"/>
<path d="M386.146 55.3615C386.146 55.3615 400.435 56.368 403.877 64.0346C407.319 71.7012 408.413 97.202 404.033 104.713C404.033 104.713 398.002 106.429 387.336 104.436C387.205 104.411 387.074 104.386 386.941 104.36C386.941 104.36 383.539 96.0295 386.589 94.3865C386.589 94.3865 395.584 94.8545 394.645 91.883C393.707 88.9114 386.146 55.3615 386.146 55.3615Z" fill="#088C85"/>
<path d="M350.317 96.6386L350.737 97.9898L374.185 90.6956C374.185 90.6956 374.499 90.3408 374.343 89.8678C374.175 89.3444 373.764 89.3444 373.764 89.3444L350.317 96.6386Z" fill="#263238"/>
<path d="M348.62 97.9168L350.316 96.6386L350.736 97.9898L348.62 97.9168Z" fill="#182328"/>
<path d="M344.899 128.651C344.899 128.651 338.948 131.937 338.166 134.443C337.383 136.947 337.922 142.19 338.865 142.112C339.811 142.034 341.221 136.476 342.003 136.086C342.786 135.694 343.88 134.521 343.88 135.382C343.88 136.242 343.098 137.807 343.49 138.044C343.88 138.278 345.133 135.852 345.994 135.382C346.854 134.911 347.216 131.041 348.052 130.002C348.89 128.963 344.899 128.651 344.899 128.651Z" fill="#FFCEAC"/>
<path d="M366.641 93.4486C366.641 93.4486 361.322 90.1726 359.09 90.6758C356.858 91.179 351.172 95.2979 353.907 96.1911C356.642 97.0818 358.858 96.1484 359.91 96.795C360.962 97.4442 361.739 98.6267 366.641 98.6116C371.545 98.594 366.641 93.4486 366.641 93.4486Z" fill="#FFCEAC"/>
<path d="M109.005 248.418H108.917C108.658 248.418 108.421 248.31 108.255 248.139H109.697C109.519 248.313 109.272 248.418 109.005 248.418Z" fill="#A6C4EF"/>
<path d="M108.256 248.14C108.09 247.969 107.989 247.735 107.997 247.476L109.328 189.733H113.318L109.999 247.481C109.984 247.74 109.871 247.971 109.698 248.14H108.256Z" fill="#A1C0ED"/>
<path d="M85.0298 248.418H84.9418C84.6826 248.418 84.4486 248.313 84.2825 248.142H85.7192C85.5406 248.313 85.2965 248.418 85.0298 248.418Z" fill="#A6C4EF"/>
<path d="M84.2833 248.142C84.1172 247.971 84.014 247.734 84.0216 247.475L85.3551 189.627C85.6495 189.695 85.9565 189.733 86.2735 189.733H89.3432L86.0244 247.48C86.0093 247.742 85.8961 247.973 85.72 248.142H84.2833Z" fill="#A1C0ED"/>
<path d="M151.277 248.418H151.189C150.92 248.418 150.673 248.31 150.492 248.134H151.944C151.775 248.31 151.539 248.418 151.277 248.418Z" fill="#A6C4EF"/>
<path d="M150.492 248.134C150.321 247.966 150.21 247.737 150.195 247.48L146.876 189.733H150.867L152.198 247.475C152.205 247.732 152.107 247.963 151.943 248.134H150.492Z" fill="#A1C0ED"/>
<path d="M138.625 183.184H82.3022V141.701C82.3022 134.401 88.2201 128.483 95.5193 128.483H125.408C132.708 128.483 138.625 134.401 138.625 141.701V183.184Z" fill="#A1C0ED"/>
<path d="M107.237 189.733H86.2726C85.9556 189.733 85.6486 189.695 85.3542 189.627C83.6055 189.212 82.3022 187.639 82.3022 185.765V183.183H138.625H143.98H107.237C105.616 183.183 104.303 184.497 104.303 186.117V186.799C104.303 188.419 105.616 189.733 107.237 189.733Z" fill="#A1C0ED"/>
<path d="M150.894 189.733H107.237C105.617 189.733 104.303 188.419 104.303 186.799V186.117C104.303 184.497 105.617 183.183 107.237 183.183H143.98H150.894C152.517 183.183 153.831 184.497 153.831 186.117V186.799C153.831 188.419 152.517 189.733 150.894 189.733Z" fill="#A1C0ED"/>
<path d="M183.559 224.278C183.977 226.364 186.948 226.017 190.27 225.204C193.591 224.394 192.801 225.358 197.526 224.835C202.254 224.311 203.686 222.55 203.829 221.848C203.957 221.224 201.622 221.005 199.119 220.716C198.802 220.68 198.487 220.64 198.17 220.602C195.342 220.248 193.271 218.423 190.702 216.924C188.269 215.505 184.639 209.72 184.639 209.72L178.157 210.234C178.157 210.234 181.559 215.399 182.875 217.646C183.647 218.967 183.607 220.713 183.511 222.062C183.461 222.796 183.413 223.544 183.559 224.278Z" fill="#FFCEAC"/>
<path d="M190.27 225.204C193.591 224.394 192.801 225.358 197.527 224.835C202.254 224.311 203.686 222.55 203.83 221.848C203.958 221.224 201.623 221.005 199.119 220.716L199.094 220.763C199.094 220.763 196.261 222.774 192.328 222.867C189.12 222.945 185.726 222.027 183.512 222.062C183.462 222.796 183.414 223.544 183.56 224.278C183.977 226.364 186.949 226.017 190.27 225.204Z" fill="#233862"/>
<path d="M127.862 233.606C126.573 235.299 128.8 237.297 131.605 239.25C134.411 241.205 133.165 241.25 136.683 244.448C140.203 247.646 142.47 247.556 143.094 247.198C143.648 246.881 142.266 244.987 140.827 242.916C140.643 242.657 140.465 242.392 140.284 242.131C138.678 239.776 138.678 237.015 138.102 234.097C137.559 231.334 142.07 221.177 142.07 221.177L134.821 220.263C134.821 220.263 133.873 226.397 133.06 228.871C132.579 230.325 130.566 231.284 129.492 232.102C128.908 232.549 128.314 233.01 127.862 233.606Z" fill="#FFCEAC"/>
<path d="M131.605 239.25C134.411 241.205 133.165 241.25 136.683 244.448C140.203 247.646 142.47 247.556 143.094 247.198C143.648 246.881 142.266 244.987 140.827 242.916L140.774 242.931C140.774 242.931 137.393 242.133 134.72 239.247C132.541 236.895 130.981 233.74 129.492 232.102C128.908 232.549 128.314 233.01 127.862 233.606C126.573 235.299 128.8 237.297 131.605 239.25Z" fill="#233862"/>
<path d="M157.471 181.681L150.848 199.5L142.203 222.767C142.203 222.767 139.858 222.993 137.611 222.347C135.543 221.748 133.17 220.185 133.17 220.185C133.17 220.185 135.57 195.203 140.049 180.863C141.196 177.182 142.482 174.206 143.901 172.528C150.843 164.325 157.471 181.681 157.471 181.681Z" fill="#2D424D"/>
<path d="M150.739 153.383C146.401 151.984 133.327 152.819 120.9 155.252L118.995 151.921L92.1485 149.825C92.1485 149.825 83.2892 169.471 88.1403 181.988C88.8524 183.828 90.269 185.008 92.6844 185.048H93.077C93.077 185.048 109.054 185.038 114.243 185.038C127.596 185.038 142.499 175.859 144.428 175.474C147.584 174.843 148.847 181.156 152.002 187.783C155.157 194.411 181.667 217.134 181.667 217.134C181.667 217.134 185.743 217.174 187.426 216.542C189.235 215.863 189.897 214.982 189.897 214.982C189.897 214.982 160.524 156.538 150.739 153.383Z" fill="#263238"/>
<path d="M109.592 70.6564C105.816 69.7557 100.683 70.8124 99.8323 70.9105C89.637 72.1007 87.3574 87.9396 88.1147 92.368C89.5137 100.533 85.591 102.833 80.9111 109.362C71.531 122.453 78.01 133.235 85.6489 135.907C90.2308 137.51 96.4733 133.144 96.4733 133.144C96.589 133.187 112.685 117.821 120.648 110.356C134.031 104.84 119.224 72.9486 109.592 70.6564Z" fill="#263238"/>
<path d="M111.775 107.997C111.823 108.012 107.624 110.754 104.202 110.178C100.984 109.637 97.5769 105.438 97.6197 105.423C98.9205 105.028 100.07 103.508 99.2577 95.6751L99.8691 95.733L110.157 96.7193C110.157 96.7193 110.246 99.9173 110.537 102.909C110.781 105.42 111.174 107.785 111.775 107.997Z" fill="#FFCEAC"/>
<path d="M110.158 96.7197C110.158 96.7197 110.246 99.9177 110.538 102.909C104.879 103.314 101.379 98.4659 99.8696 95.7334L110.158 96.7197Z" fill="#FFAF79"/>
<path d="M112.324 99.3644C112.324 99.3644 98.994 100.922 98.1511 92.6036C97.3082 84.2878 95.0211 78.8857 103.498 77.5396C111.975 76.1935 113.952 79.2002 114.908 81.9076C115.865 84.6149 115.771 98.7429 112.324 99.3644Z" fill="#FFCEAC"/>
<path d="M113.319 77.635C113.319 77.635 106.88 86.8516 101.415 88.8569C95.9478 90.8623 93.3637 89.6017 93.3637 89.6017C93.3637 89.6017 95.9704 86.0112 96.8309 81.072C97.0851 79.6152 98.0966 78.4024 99.4905 77.9143C103.411 76.5455 110.969 74.4496 113.319 77.635Z" fill="#263238"/>
<path d="M107.997 78.3136C107.997 78.3136 111.439 80.2787 112.813 82.0375C114.139 83.7333 115.558 88.2397 115.352 90.2249C115.352 90.2249 117.521 80.7643 114.049 77.3222C110.368 73.6714 107.997 78.3136 107.997 78.3136Z" fill="#263238"/>
<path d="M122.027 130.063C121.624 156.993 121.916 151.367 118.97 153.92C118.26 154.537 116.265 154.902 113.638 155.075C105.383 155.624 90.8674 154.263 90.3139 152.738C88.4092 147.457 89.7553 145.816 88.1651 137.734C87.999 136.874 87.7952 135.943 87.5537 134.929C86.2302 129.378 84.9394 127.489 89.6395 118.569C93.9044 110.49 98.5063 104.036 98.9039 104.272C110.151 110.948 110.883 105.234 110.883 105.234C110.883 105.234 122.223 116.929 122.027 130.063Z" fill="#08A9A0"/>
<path d="M150.849 199.499L142.007 223.734C142.007 223.734 138.832 224.769 136.517 224.434C134.162 224.089 132.869 222.803 132.869 222.803C132.869 222.803 135.571 195.202 140.05 180.862L150.849 199.499Z" fill="#263238"/>
<path d="M110.883 105.231C110.883 105.231 122.454 107.193 123.813 112.175C125.174 117.157 135.11 144.613 135.11 144.613C135.11 144.613 127.288 147.504 124.568 144.786C121.85 142.069 115.112 119.572 115.112 119.572L110.883 105.231Z" fill="#088C85"/>
<path d="M113.638 155.075C105.382 155.624 90.8667 154.263 90.3132 152.738C88.4085 147.457 89.7546 145.816 88.1644 137.734L92.0392 128.915C92.0392 128.915 91.4882 139.007 95.1718 142.291C98.8504 145.577 110.251 148.632 112.042 151.377C112.905 152.695 113.474 154.016 113.638 155.075Z" fill="#088C85"/>
<path d="M114.312 149.328C114.312 149.328 116.77 151.449 117.47 151.623C118.169 151.792 118.569 151.633 118.569 151.633L116.775 149.535L114.312 149.328Z" fill="#FFCEAC"/>
<path d="M113.336 146.83L119.563 148.438C119.563 148.438 119.402 148.881 118.698 148.989C117.993 149.1 116.101 148.81 116.101 148.81L113.336 146.83Z" fill="#FFCEAC"/>
<path d="M102.779 150.263C102.779 150.263 111.668 146.307 113.336 146.831C115.007 147.354 119.284 149.619 119.956 150.572C120.628 151.526 116.451 150.454 115.148 150.373C114.302 150.321 112.342 151.478 111.369 152.039C107.272 154.392 104.429 154.183 104.429 154.183L102.779 150.263Z" fill="#FFCEAC"/>
<path d="M98.9046 104.273C98.9046 104.273 86.3291 106.633 83.9992 110.117C78.9166 117.724 68.0948 149.236 74.1536 153.46C80.9798 158.221 105.215 154.706 105.215 154.706C105.215 154.706 106.02 150.936 104.898 149.112C103.778 147.288 85.5415 144.344 84.7012 143.501C83.8583 142.661 93.0144 130.49 92.0407 128.161C88.9157 120.7 98.9046 104.273 98.9046 104.273Z" fill="#088C85"/>
<path d="M148.62 148.919C148.62 148.919 157.422 151.296 158.325 152.663C159.231 154.029 161.002 158.206 160.927 159.295C160.851 160.385 158.448 157.139 157.55 156.309C156.966 155.77 154.855 155.456 153.816 155.287C151.202 154.862 149.939 153.664 148.96 153.068C148.301 152.668 147.503 152.743 147.503 152.743L148.62 148.919Z" fill="#FFCEAC"/>
<path d="M157.556 155.056C157.556 155.056 158.09 158.052 158.497 158.588C158.908 159.127 159.29 159.248 159.29 159.248L159.227 156.661L157.556 155.056Z" fill="#FFCEAC"/>
<path d="M158.325 152.663L161.906 157.511C161.906 157.511 161.526 157.738 160.947 157.401C160.371 157.063 159.166 155.737 159.166 155.737L158.325 152.663Z" fill="#FFCEAC"/>
<path d="M148.959 153.068C148.959 153.068 149.774 155.048 151.402 155.757C153.033 156.469 154.228 157.536 154.489 157.151C154.751 156.769 153.256 154.748 153.256 154.748L148.959 153.068Z" fill="#FFCEAC"/>
<path d="M132.773 138.122L151.284 149.825C151.284 149.825 149.339 152.424 148.69 152.663C145.263 153.918 129.849 152.716 124.568 144.787L132.773 138.122Z" fill="#088C85"/>
<path d="M125.438 150.838C126.53 150.838 137.395 150.086 137.395 150.086C137.395 150.086 137.08 152.01 137.752 153.042L127.164 155.068L124.99 154.428L125.438 150.838Z" fill="#F9DDBF"/>
<path d="M107.317 152.584L125.438 150.838C125.438 150.838 124.801 154.192 127.164 155.068L107.189 156.53C107.189 156.53 105.578 154.263 107.317 152.584Z" fill="#0169EE"/>
<path d="M137.364 150.325L125.118 151.269C125.118 151.269 125.208 150.846 125.437 150.839C125.666 150.834 137.603 149.968 137.603 149.968L137.56 150.303L137.364 150.325Z" fill="#0169EE"/>
<path d="M127.165 155.068L137.952 153.017L137.851 152.738L126.357 154.939L127.165 155.068Z" fill="#0169EE"/>
<path d="M21.5552 151.623C21.5552 151.623 24.9442 149.882 25.9081 148.89C26.0299 148.767 26.2357 148.792 26.329 148.941C26.5874 149.348 26.8292 150.133 25.6404 150.916C23.9294 152.043 21.5552 151.623 21.5552 151.623Z" fill="#FFCEAC"/>
<path d="M432.628 251H50.097C49.7999 251 49.5569 250.627 49.5569 250.17V249.413C49.5569 248.955 49.7999 248.581 50.097 248.581H432.628C432.926 248.581 433.169 248.955 433.169 249.413V250.17C433.169 250.627 432.926 251 432.628 251Z" fill="#2E3552"/>
<path d="M0.316026 0.110436C0.636076 -0.0958856 1.06306 -0.0053252 1.26963 0.316738C1.4762 0.636285 1.38412 1.06152 1.06407 1.27036C0.743765 1.47668 0.316776 1.38358 0.110203 1.06403C-0.0963704 0.744483 -0.00402446 0.316758 0.316026 0.110436Z" fill="#77A4E5"/>
<path d="M2.67785 5.97343C3.05879 5.97343 3.36777 6.2829 3.36777 6.66283C3.36777 7.04528 3.05879 7.35477 2.67785 7.35477C2.29691 7.35477 1.98793 7.04528 1.98793 6.66283C1.98793 6.2829 2.29691 5.97343 2.67785 5.97343Z" fill="#77A4E5"/>
<path d="M1.47264 12.7796C1.74211 13.0489 1.74211 13.4867 1.47264 13.7559C1.20316 14.0251 0.766368 14.0251 0.496892 13.7559C0.227416 13.4867 0.227416 13.0489 0.496892 12.7796C0.766368 12.5104 1.20316 12.5104 1.47264 12.7796Z" fill="#77A4E5"/>
</svg>
