<svg width="91" height="29" viewBox="0 0 91 29" fill="none" xmlns="http://www.w3.org/2000/svg">
<g clip-path="url(#clip0_1334_130)">
<path fill-rule="evenodd" clip-rule="evenodd" d="M41.5361 0.360216H39.4663V0.420214C39.4213 1.92017 39.4363 3.42013 39.4663 4.90509V17.1748C39.2264 19.5447 37.8915 21.5246 35.1018 21.6146C33.8434 21.5936 32.975 21.3747 32.3901 21.2112C32.0601 21.0807 31.7302 20.9037 31.3072 20.6397C30.6623 21.7196 30.0323 22.8146 29.3874 23.8946C29.3994 23.8946 29.4114 23.8961 29.4219 23.8976C29.4144 23.9066 29.4084 23.9156 29.4024 23.9246C34.5019 28.3795 41.1762 25.5745 43.081 20.7897C44.2958 17.7447 43.9059 4.18511 43.6659 0.285218L41.5361 0.360216ZM0.290512 25.3945V25.9195L5.19499 26.0695L7.11478 21.8246L19.1135 21.8696L20.9433 26.2045L25.7578 25.8745L12.9192 0.915201L0.290512 25.3945ZM9.48453 17.5198L12.7242 9.82496L16.7288 17.5198H9.48453ZM77.2623 0.22522C70.0781 0.22522 64.2587 6.04506 64.2587 13.2299C64.2587 20.4147 70.0781 26.2345 77.2623 26.2345C84.4465 26.2345 90.2809 20.4147 90.2809 13.2299C90.2809 6.04506 84.4465 0.22522 77.2623 0.22522ZM77.2623 21.7946C72.5378 21.7946 68.6982 17.9547 68.6982 13.2299C68.6982 8.505 72.5378 4.6651 77.2623 4.6651C81.9868 4.6651 85.8264 8.505 85.8264 13.2299C85.8264 17.9547 82.0018 21.7946 77.2623 21.7946Z" fill="#435F74"/>
<path d="M52.7549 0.285217H56.7895V26.2495H52.7549V0.285217Z" fill="#435F74"/>
</g>
<defs>
<clipPath id="clip0_1334_130">
<rect width="90" height="28.1542" fill="white" transform="translate(0.285706 0.22522)"/>
</clipPath>
</defs>
</svg>
