<svg width="91" height="28" viewBox="0 0 91 28" fill="none" xmlns="http://www.w3.org/2000/svg">
<path d="M56.6919 21.9516C51.4618 25.8066 43.8812 27.8633 37.3544 27.8633C28.2027 27.8633 19.9639 24.4785 13.7309 18.8488C13.2412 18.4061 13.68 17.8028 14.2676 18.1475C20.9942 22.0613 29.3114 24.4158 37.9028 24.4158C43.697 24.4158 50.071 23.217 55.9318 20.7293C56.8172 20.3532 57.5577 21.3091 56.6919 21.9516Z" fill="#FF9900"/>
<path d="M58.8662 19.4638C58.2002 18.6097 54.4471 19.0602 52.7625 19.26C52.2493 19.3227 52.1709 18.8761 52.6332 18.5549C55.6224 16.4511 60.5273 17.0583 61.0993 17.7635C61.6712 18.4726 60.9504 23.3892 58.1414 25.7359C57.7105 26.0963 57.2991 25.9044 57.4911 25.4264C58.1218 23.8515 59.5361 20.3217 58.8662 19.4638Z" fill="#FF9900"/>
<path d="M52.8799 3.70304V1.65802C52.8799 1.34853 53.115 1.14089 53.397 1.14089H62.5526C62.8464 1.14089 63.0815 1.35245 63.0815 1.65802V3.40921C63.0775 3.70304 62.8307 4.08697 62.3919 4.69421L57.6477 11.4678C59.4106 11.4247 61.2715 11.6872 62.8699 12.5883C63.2303 12.792 63.3283 13.0897 63.3557 13.3836V15.5657C63.3557 15.8635 63.0266 16.2121 62.6819 16.0319C59.8651 14.555 56.1237 14.3943 53.0092 16.0476C52.6918 16.22 52.3588 15.8752 52.3588 15.5775V13.505C52.3588 13.172 52.3628 12.604 52.6958 12.0986L58.1922 4.21625H53.4088C53.115 4.21625 52.8799 4.00862 52.8799 3.70304Z" fill="#221F1F"/>
<path d="M19.4815 16.4629H16.6961C16.4297 16.4434 16.2181 16.2436 16.1985 15.9889V1.69338C16.1985 1.40739 16.4375 1.18017 16.7352 1.18017H19.3326C19.603 1.19191 19.8184 1.39956 19.838 1.65812V3.52685H19.889C20.5667 1.7208 21.8399 0.878508 23.5559 0.878508C25.2992 0.878508 26.3883 1.7208 27.1719 3.52685C27.8457 1.7208 29.3775 0.878508 31.019 0.878508C32.1865 0.878508 33.4636 1.36038 34.2432 2.44165C35.1247 3.64437 34.9445 5.39165 34.9445 6.92346L34.9406 15.9458C34.9406 16.2318 34.7016 16.4629 34.4038 16.4629H31.6223C31.3442 16.4434 31.1208 16.2201 31.1208 15.9458V8.36907C31.1208 7.76575 31.1757 6.26137 31.0425 5.68939C30.8349 4.72957 30.212 4.45925 29.4049 4.45925C28.7311 4.45925 28.0259 4.90978 27.7399 5.63063C27.4539 6.35148 27.4814 7.55811 27.4814 8.36907V15.9458C27.4814 16.2318 27.2424 16.4629 26.9446 16.4629H24.1631C23.881 16.4434 23.6616 16.2201 23.6616 15.9458L23.6577 8.36907C23.6577 6.77458 23.9202 4.42791 21.9418 4.42791C19.9399 4.42791 20.0182 6.71582 20.0182 8.36907V15.9458C20.0182 16.2318 19.7793 16.4629 19.4815 16.4629Z" fill="#221F1F"/>
<path d="M70.9635 0.878508C75.0966 0.878508 77.3335 4.42791 77.3335 8.94105C77.3335 13.3014 74.8615 16.7607 70.9635 16.7607C66.9048 16.7607 64.6952 13.2113 64.6952 8.78826C64.6952 4.3378 66.9322 0.878508 70.9635 0.878508ZM70.987 3.79716C68.9341 3.79716 68.8048 6.59437 68.8048 8.33773C68.8048 10.085 68.7774 13.8146 70.9635 13.8146C73.1221 13.8146 73.2239 10.8059 73.2239 8.97239C73.2239 7.76575 73.173 6.32405 72.8087 5.1801C72.4953 4.18501 71.8724 3.79716 70.987 3.79716Z" fill="#221F1F"/>
<path d="M82.6928 16.4629H79.9191C79.6409 16.4434 79.4176 16.2201 79.4176 15.9458L79.4137 1.64637C79.4372 1.38389 79.6684 1.18017 79.9504 1.18017H82.5322C82.7751 1.19191 82.9749 1.35646 83.0297 1.57977V3.76582H83.0806C83.8602 1.81091 84.9533 0.878508 86.8768 0.878508C88.1266 0.878508 89.345 1.32904 90.1285 2.5631C90.8572 3.70706 90.8572 5.63063 90.8572 7.01356V16.0124C90.8258 16.2631 90.5947 16.4629 90.3204 16.4629H87.5272C87.2725 16.4434 87.061 16.2553 87.0335 16.0124V8.24762C87.0335 6.68448 87.2138 4.39656 85.2902 4.39656C84.6124 4.39656 83.9895 4.85101 83.68 5.54052C83.2883 6.41416 83.2374 7.28388 83.2374 8.24762V15.9458C83.2334 16.2318 82.9905 16.4629 82.6928 16.4629Z" fill="#221F1F"/>
<path d="M45.581 9.63442V9.0311C43.5674 9.0311 41.4401 9.46204 41.4401 11.8361C41.4401 13.0389 42.063 13.8537 43.1325 13.8537C43.916 13.8537 44.6173 13.3719 45.06 12.5883C45.6085 11.6246 45.581 10.7196 45.581 9.63442ZM48.39 16.4237C48.2059 16.5883 47.9395 16.6 47.7318 16.4903C46.8073 15.7225 46.6427 15.366 46.1334 14.6334C44.6055 16.1926 43.5243 16.6588 41.542 16.6588C39.1992 16.6588 37.3736 15.2132 37.3736 12.318C37.3736 10.0575 38.5998 8.51788 40.3432 7.76569C41.8554 7.09969 43.967 6.98216 45.581 6.79803V6.43761C45.581 5.77552 45.632 4.99199 45.2441 4.42002C44.9033 3.9068 44.253 3.69525 43.681 3.69525C42.6193 3.69525 41.6712 4.2398 41.4401 5.36809C41.3931 5.61882 41.2089 5.86563 40.9582 5.87738L38.255 5.58747C38.0278 5.53655 37.7771 5.35242 37.8398 5.00375C38.4627 1.72859 41.4205 0.741333 44.0688 0.741333C45.4243 0.741333 47.1951 1.10176 48.2646 2.12818C49.6201 3.39359 49.4909 5.0821 49.4909 6.91948V11.2602C49.4909 12.5648 50.0315 13.1368 50.5408 13.842C50.721 14.0927 50.7602 14.3944 50.533 14.5824C49.9649 15.0565 48.9541 15.9379 48.3978 16.4316L48.39 16.4237Z" fill="#221F1F"/>
<path d="M9.06465 9.63442V9.0311C7.05098 9.0311 4.9237 9.46204 4.9237 11.8361C4.9237 13.0389 5.5466 13.8537 6.61612 13.8537C7.39965 13.8537 8.10091 13.3719 8.5436 12.5883C9.09207 11.6246 9.06465 10.7196 9.06465 9.63442ZM11.8736 16.4237C11.6895 16.5883 11.4231 16.6 11.2154 16.4903C10.2909 15.7225 10.1263 15.366 9.61704 14.6334C8.08915 16.1926 7.00789 16.6588 5.02555 16.6588C2.6828 16.6588 0.857178 15.2132 0.857178 12.318C0.857178 10.0575 2.0834 8.51788 3.82675 7.76569C5.33897 7.09969 7.45058 6.98216 9.06465 6.79803V6.43761C9.06465 5.77552 9.11558 4.99199 8.72773 4.42002C8.3869 3.9068 7.73657 3.69525 7.16459 3.69525C6.10291 3.69525 5.15484 4.2398 4.9237 5.36809C4.87668 5.61882 4.69255 5.86563 4.44183 5.87738L1.73865 5.58747C1.51142 5.53655 1.26069 5.35242 1.32338 5.00375C1.94628 1.72859 4.90411 0.741333 7.55244 0.741333C8.90794 0.741333 10.6787 1.10176 11.7482 2.12818C13.1037 3.39359 12.9745 5.0821 12.9745 6.91948V11.2602C12.9745 12.5648 13.5151 13.1368 14.0244 13.842C14.2046 14.0927 14.2438 14.3944 14.0166 14.5824C13.4485 15.0565 12.4377 15.9379 11.8814 16.4316L11.8736 16.4237Z" fill="#221F1F"/>
</svg>
