<svg width="342" height="342" viewBox="0 0 342 342" fill="none" xmlns="http://www.w3.org/2000/svg">
<path d="M90.2538 163.449H107.696L144.42 221.418H126.985L90.2538 163.449Z" fill="#37474F"/>
<path d="M184.42 130.767H201.855L238.586 188.743H221.144L184.42 130.767Z" fill="#37474F"/>
<path d="M107.668 163.449H90.2333L42.0113 239.557H59.4533L107.668 163.449Z" fill="#455A64"/>
<path d="M201.883 130.767H184.447L127.012 221.418H144.447L201.883 130.767Z" fill="#455A64"/>
<path d="M295.926 98.0854H278.491L221.055 188.743H238.497L295.926 98.0854Z" fill="#455A64"/>
<path d="M274.441 98.0856H300.05L293.477 85.9719L274.441 98.0856Z" fill="#455A64"/>
<path d="M96.6629 239.557H57.0046V304.873H96.6629V239.557Z" fill="#0FB6AC"/>
<path opacity="0.6" d="M96.6629 239.557H57.0046V304.873H96.6629V239.557Z" fill="white"/>
<path d="M42.0113 304.879H57.0046L57.0046 239.564H42.0113L42.0113 304.879Z" fill="#0FB6AC"/>
<path opacity="0.4" d="M42.0113 304.879H57.0046L57.0046 239.564H42.0113L42.0113 304.879Z" fill="white"/>
<path d="M164.44 150.207H124.782V304.873H164.44V150.207Z" fill="#0FB6AC"/>
<path opacity="0.6" d="M164.44 150.207H124.782V304.873H164.44V150.207Z" fill="white"/>
<path d="M109.782 304.873H124.775L124.775 150.206H109.782L109.782 304.873Z" fill="#0FB6AC"/>
<path opacity="0.4" d="M109.782 304.873H124.775L124.775 150.206H109.782L109.782 304.873Z" fill="white"/>
<path d="M232.211 188.23H192.553V304.879H232.211V188.23Z" fill="#0FB6AC"/>
<path opacity="0.6" d="M232.211 188.23H192.553V304.879H232.211V188.23Z" fill="white"/>
<path d="M177.566 304.873H192.56L192.56 188.223H177.566V304.873Z" fill="#0FB6AC"/>
<path opacity="0.4" d="M177.566 304.873H192.56L192.56 188.223H177.566V304.873Z" fill="white"/>
<path d="M299.989 174.242H260.33V304.872H299.989V174.242Z" fill="#0FB6AC"/>
<path opacity="0.6" d="M299.989 174.242H260.33V304.872H299.989V174.242Z" fill="white"/>
<path d="M245.337 304.879H260.33V174.249H245.337L245.337 304.879Z" fill="#0FB6AC"/>
<path opacity="0.4" d="M245.337 304.879H260.33V174.249H245.337L245.337 304.879Z" fill="white"/>
<path d="M157.874 79.8776C158.325 87.9556 158.647 96.2936 157.874 104.331C157.258 110.603 154.618 115.774 148.093 117.327C142.039 118.756 133.421 118.647 128.305 114.638C125.918 112.764 125.09 110.124 125.247 107.169C125.466 103.065 128.729 80.5342 129.7 73.5096C130.288 69.2346 130.856 64.898 132.204 60.7666C135.015 52.0935 139.344 51.9294 139.94 51.7584C140.453 51.43 143.708 50.192 148.394 51.69C149.618 52.0764 150.748 52.7174 151.707 53.5708C152.667 54.4243 153.435 55.4709 153.962 56.6421C157.32 63.6121 157.45 72.3194 157.874 79.8776Z" fill="#263238"/>
<path d="M138.537 53.1811C133.373 55.5888 132.149 61.2249 130.897 66.2728C129.16 73.3044 127.539 80.3701 126.26 87.4768C125.644 90.9105 125.115 94.3533 124.673 97.8052C124.262 101.116 123.612 104.645 123.838 107.983C124.208 113.51 129.262 116.027 134.16 116.814C134.209 116.823 134.259 116.812 134.3 116.784C134.341 116.755 134.37 116.712 134.379 116.663C134.388 116.614 134.377 116.564 134.349 116.523C134.321 116.481 134.277 116.453 134.228 116.444C131.437 115.89 128.592 115.117 126.519 113.024C123.852 110.37 124.167 106.909 124.467 103.448C125.001 97.5795 125.835 91.745 126.95 85.9515C128.065 80.158 129.317 74.3851 130.692 68.6463C131.998 63.1743 132.949 55.9923 138.558 53.2153C138.619 53.2426 138.592 53.1537 138.537 53.1811Z" fill="#263238"/>
<path d="M156.308 62.5313C155.33 58.3042 153.134 54.1934 148.688 52.9553C154.434 54.809 155.836 61.0881 156.636 66.348C157.443 71.8679 158.004 77.4152 158.435 82.9829C158.818 88.3318 159.119 93.7286 158.982 99.0911C158.873 104.885 157.826 110.309 154.406 115.083C154.396 115.092 154.387 115.103 154.381 115.116C154.376 115.128 154.373 115.142 154.373 115.156C154.372 115.17 154.375 115.183 154.381 115.196C154.387 115.208 154.395 115.22 154.406 115.229C154.416 115.238 154.429 115.244 154.442 115.248C154.455 115.252 154.469 115.253 154.483 115.251C154.497 115.248 154.51 115.243 154.521 115.236C154.533 115.228 154.543 115.218 154.55 115.206C157.915 111.348 159.03 106.027 159.304 101.047C159.544 94.4525 159.35 87.849 158.722 81.2798C158.202 75.0485 157.724 68.6121 156.308 62.5313Z" fill="#263238"/>
<path d="M235.009 216.828C233.49 217.717 186.725 227.492 184.707 226.739C183.941 226.459 182.122 219.728 180.152 211.541C179.721 209.769 179.297 207.943 178.873 206.069C176.096 193.996 173.435 181.116 173.435 181.116L204.701 174.489L209.304 199.626L210.316 205.139C210.316 205.139 229.892 209.407 232.02 210.474C234.147 211.541 236.527 215.932 235.009 216.828Z" fill="#EB9481"/>
<path d="M180.911 214.66C182.573 221.377 184.037 226.486 184.707 226.732C186.725 227.492 233.49 217.71 235.009 216.821C236.527 215.932 234.099 211.541 231.985 210.467C230.672 209.817 222.717 207.943 216.814 206.595C221.972 207.833 231.589 211.329 211.698 212.751C195.248 213.962 184.4 214.502 180.911 214.66Z" fill="#263238"/>
<path d="M193.121 239.277C191.424 239.749 143.715 237.28 141.951 236.042C141.567 235.768 142.005 229.359 142.546 223.586C142.949 219.297 153.373 189.536 153.373 189.536L185.289 191.096L172.183 221.678C172.183 221.678 190.029 230.788 191.814 232.362C193.599 233.935 194.81 238.805 193.121 239.277Z" fill="#EB9481"/>
<path d="M141.951 236.035C143.715 237.287 191.417 239.749 193.121 239.277C194.824 238.805 193.586 233.935 191.814 232.362C190.98 231.63 186.664 229.27 182.3 226.951C187.772 230.036 196.465 236.924 142.45 224.646C141.957 230.111 141.588 235.789 141.951 236.035Z" fill="#263238"/>
<path d="M118.79 146.376C128.298 156.971 160.248 148.606 162.156 152.819C163.839 156.54 142.039 216.24 142.039 216.24L176.923 220.002C176.923 220.002 207.019 154.064 196.281 135.015C190.46 124.755 164.817 128.859 149.379 126.944C144.714 126.376 142.539 116.759 142.539 116.759H114.912C114.912 116.759 107.922 134.269 118.79 146.376Z" fill="#263238"/>
<path d="M186.582 129.112L157.279 151.533C147.552 151.328 126.253 154.7 118.79 146.376C107.922 134.269 114.891 116.759 114.891 116.759H142.518C142.518 116.759 144.714 126.383 149.358 126.95C160.227 128.264 176.075 126.643 186.582 129.112Z" fill="#37474F"/>
<path d="M178.257 212.218C177.293 211.917 168.25 210.912 166.253 210.693C162.258 210.262 149.687 209.085 147.409 209.092C147.394 209.092 147.38 209.098 147.37 209.108C147.36 209.118 147.354 209.132 147.354 209.147C147.354 209.161 147.36 209.175 147.37 209.185C147.38 209.196 147.394 209.202 147.409 209.202C149.392 209.612 157.416 210.57 159.406 210.754C163.408 211.165 177.142 212.498 178.257 212.389C178.276 212.384 178.292 212.372 178.304 212.357C178.315 212.342 178.322 212.323 178.322 212.303C178.322 212.284 178.315 212.265 178.304 212.25C178.292 212.234 178.276 212.223 178.257 212.218Z" fill="#37474F"/>
<path d="M166.39 149.324C164.146 148.209 147.142 148.763 134.926 147.621C130.952 147.245 126.964 146.397 123.927 143.791C121.282 141.405 119.394 138.297 118.496 134.851C117.327 130.678 117.443 126.328 117.648 122.06C117.696 121.007 117.764 119.96 117.833 118.907C117.833 118.852 117.73 118.838 117.723 118.907C116.793 126.554 116.082 135.097 121.061 141.725C123.269 144.631 126.408 146.691 129.953 147.559C137.313 149.502 164.981 149.016 165.952 149.762C167.122 150.651 149.228 205.111 148.852 206.151C148.784 206.342 149.126 206.472 149.208 206.281C151.014 202.095 168.339 150.295 166.39 149.324Z" fill="#37474F"/>
<path d="M197.532 136.862C195.884 132.682 192.129 130.083 186.588 129.091C186.499 129.091 186.506 129.208 186.588 129.235C191.376 130.644 194.851 132.58 196.739 136.643C197.628 138.544 198.107 141.212 198.312 144.782C199.454 162.614 183.9 203.086 183.586 203.791C183.579 203.797 183.574 203.804 183.571 203.812C183.568 203.82 183.566 203.828 183.567 203.837C183.568 203.845 183.57 203.854 183.575 203.861C183.579 203.868 183.585 203.874 183.593 203.879C183.6 203.883 183.608 203.886 183.617 203.887C183.625 203.888 183.634 203.886 183.642 203.883C183.65 203.88 183.657 203.875 183.663 203.868C183.668 203.862 183.672 203.854 183.675 203.846C185.898 200.152 204.318 154.092 197.532 136.862Z" fill="#37474F"/>
<path d="M210.145 198.025L183.722 203.647C183.722 203.647 204.564 141.403 194.776 133.414C192.04 131.191 186.151 130.412 179.119 133.414C168.62 137.949 156.472 147.19 145.015 150.576C134.29 153.736 121.554 150.829 117.176 146.007C107.969 135.87 114.891 116.718 114.891 116.718L152.888 115.288C152.888 115.288 152.32 115.753 154.133 117.34C154.133 117.34 176.465 112.279 186.164 118.202C203.668 128.955 210.145 198.025 210.145 198.025Z" fill="#263238"/>
<path d="M131.328 118.975C131.328 118.957 131.321 118.94 131.308 118.927C131.295 118.914 131.278 118.907 131.26 118.907C131.241 118.907 131.224 118.914 131.211 118.927C131.198 118.94 131.191 118.957 131.191 118.975C131.226 120.403 131.116 121.831 130.863 123.236C130.568 124.57 129.907 125.794 128.955 126.773C126.868 128.879 123.879 129.598 121.15 130.459C121.006 130.507 121.034 130.76 121.198 130.733C124.228 130.268 127.409 129.502 129.625 127.224C130.644 126.178 131.328 124.851 131.588 123.414C131.869 121.936 131.779 120.411 131.328 118.975Z" fill="#37474F"/>
<path d="M194.119 132.224C190.063 129.68 183.709 131.615 180.672 132.778C180.61 132.778 180.638 132.908 180.672 132.881C183.469 131.875 190.432 130.357 194.147 132.99C202.744 139.078 191.24 180.727 183.695 203.647C183.579 204.003 183.866 203.907 184.023 203.565C185.268 200.829 194.967 171.882 197.526 152.724C197.943 149.796 199.981 135.904 194.119 132.224Z" fill="#37474F"/>
<path d="M207.129 191C206.335 191 199.489 192.491 197.977 192.833C194.961 193.517 187.97 195.323 186.349 195.946C186.308 195.946 186.349 196.048 186.383 196.048C187.95 195.898 191.595 195.097 193.1 194.749C196.11 194.065 206.438 191.568 207.19 191.164C207.252 191.13 207.211 191.007 207.129 191Z" fill="#37474F"/>
<path d="M192.826 131.143C190.09 129.652 186.841 129.406 183.811 129.775C180.607 130.273 177.497 131.258 174.591 132.696C168.435 135.528 162.525 138.975 156.335 141.786C150.145 144.598 143.619 146.773 136.834 146.978C131.041 147.156 123.708 146.137 119.98 140.925C114.235 132.888 117.58 119.037 117.648 118.141C117.648 118.072 117.559 118.079 117.545 118.141C113.086 135.165 118.818 141.773 122.689 144.557C125.76 146.759 130.172 147.293 133.086 147.566C139.83 148.134 146.595 146.486 152.847 143.996C159.256 141.438 165.261 138.004 171.404 134.864C177.286 131.855 183.846 128.749 190.556 130.473C191.319 130.674 192.066 130.93 192.792 131.239C192.84 131.225 192.888 131.164 192.826 131.143Z" fill="#37474F"/>
<path d="M137.484 83.3249C141.451 94.522 148.51 107.682 151.102 109.652C154.386 112.142 172.163 114.166 173.148 114.16C175.59 114.125 177.416 97.7847 174.803 97.7095C170.822 97.5932 159.878 97.7915 158.927 97.0255C157.977 96.2594 151.061 89.3373 143.879 81.4918C138.934 76.0608 134.994 76.3755 137.484 83.3249Z" fill="#EB9481"/>
<path d="M172.19 114.166C174.419 115.01 176.705 115.696 179.03 116.218C180.877 116.526 186.226 117.285 186.773 115.281C187.142 113.913 184.037 113.106 181.882 112.477C180.733 112.149 179.256 111.164 179.502 110.425C179.919 109.132 182.874 110.042 184.844 110.897C188.661 112.566 193.859 115.76 195.829 113.695C196.575 112.908 195.474 111.772 193.935 110.712C196.37 111.875 198.935 112.764 199.796 111.93C200.019 111.717 200.152 111.427 200.168 111.119C200.183 110.811 200.079 110.508 199.878 110.275C200.181 110.374 200.506 110.381 200.813 110.296C201.119 110.211 201.394 110.037 201.602 109.796C202.286 108.934 201.759 107.833 200.816 106.759C200.952 106.725 201.079 106.661 201.187 106.571C201.295 106.481 201.381 106.367 201.438 106.239C202.724 103.667 194.099 97.7163 191.308 97.3879C185.794 96.8374 180.235 96.9523 174.748 97.7299C171.93 100.548 172.183 114.16 172.19 114.166Z" fill="#EB9481"/>
<path d="M183.073 105.473C185.006 105.551 186.902 106.038 188.634 106.902C190.809 108.004 192.327 109.413 194.208 110.794C194.256 110.829 194.208 110.904 194.153 110.87C193.257 110.186 189.584 107.792 188.647 107.251C186.946 106.252 185.04 105.653 183.073 105.5C183.073 105.5 183.052 105.466 183.073 105.473Z" fill="#263238"/>
<path d="M184.167 101.916C186.358 102.171 188.517 102.65 190.61 103.346C192.861 104.187 194.714 105.76 196.568 107.279C197.669 108.188 198.757 109.119 199.81 110.076C199.858 110.117 199.81 110.192 199.755 110.151C197.895 108.587 195.984 107.078 194.023 105.623C192.217 104.261 190.156 103.273 187.963 102.716C186.711 102.395 185.439 102.176 184.167 101.95C184.14 101.95 184.146 101.916 184.167 101.916Z" fill="#263238"/>
<path d="M186.048 98.6943C188.134 98.879 189.954 99.0295 191.883 99.9119C194.06 101.025 196.091 102.404 197.929 104.016C198.935 104.871 199.906 105.753 200.87 106.649C200.911 106.69 200.87 106.759 200.809 106.718C198.617 104.759 196.303 102.943 193.88 101.28C192.736 100.474 191.477 99.847 190.145 99.4194C188.799 99.0665 187.427 98.8262 186.041 98.7012L186.048 98.6943Z" fill="#263238"/>
<path d="M174.721 96.485L170.904 116.212C170.904 116.212 154.105 113.441 150.76 110.575C147.416 107.709 140.028 91.7928 137.484 83.9541C134.94 76.1155 139.03 75.8419 143.339 80.4726C147.648 85.1033 158.346 96.2935 158.9 96.5055C159.454 96.7176 174.721 96.485 174.721 96.485Z" fill="#0FB6AC"/>
<path d="M168.373 107.935C168.839 105.603 169.331 103.277 169.741 100.938C169.953 99.6041 170.179 98.2703 170.384 96.9365C170.384 96.8818 170.309 96.8612 170.295 96.9365C169.735 99.2552 169.174 101.581 168.715 103.92C168.257 106.259 167.785 108.585 167.347 110.917C167.108 112.285 166.903 113.578 166.746 114.926H166.793C167.423 112.614 167.901 110.281 168.373 107.935Z" fill="#263238"/>
<path opacity="0.1" d="M171.287 114.228L170.911 116.191C170.911 116.191 154.105 113.421 150.76 110.562C147.416 107.703 140.022 91.7928 137.484 83.9542C135.63 78.2223 137.313 76.5328 140.035 77.8529C147.901 86.868 162.73 103.879 171.287 114.228Z" fill="black"/>
<path d="M114.023 116.663L153.832 117.347L150.713 105.425C151.761 103.928 152.467 102.219 152.781 100.419C153.096 98.6187 153.011 96.7714 152.532 95.0077C151.581 91.4988 147.06 86.2389 144.269 82.901C137.505 74.7682 131.629 78.4481 129.755 80.5343C122.566 88.5234 114.023 116.663 114.023 116.663Z" fill="#EBEBEB"/>
<path d="M132.799 78.2498C132.799 78.2498 136.704 88.6192 138.23 90.9858C139.755 93.3525 144.242 97.5933 144.242 97.5933C144.242 97.5933 144.762 91.4783 144.242 87.9831C143.722 84.4878 140.754 79.5083 140.754 79.5083C141.548 79.9249 142.26 80.4836 142.853 81.1568C146.226 84.5768 152.087 91.3484 152.97 95.9722C153.304 97.5748 153.317 99.2279 153.007 100.835C152.697 102.443 152.07 103.973 151.164 105.336L155.651 119.652L149.365 121.602L146.273 117.935L143.079 122.005L111.232 117.566L116.526 107.58C116.526 107.58 124.105 87.8942 127.115 83.585C130.541 78.6602 132.799 78.2498 132.799 78.2498Z" fill="#0FB6AC"/>
<path d="M140.063 104.693C141.766 104.539 143.478 104.512 145.186 104.611C146.034 104.673 146.868 104.768 147.71 104.885C148.127 104.946 148.551 104.987 148.968 105.035C149.409 105.086 149.854 105.086 150.295 105.035C150.336 105.035 150.343 105.083 150.295 105.097C149.887 105.187 149.474 105.253 149.057 105.295C148.654 105.322 148.25 105.322 147.847 105.295C146.985 105.24 146.123 105.151 145.268 105.09C143.531 104.96 141.8 104.837 140.063 104.837C139.987 104.837 139.981 104.7 140.063 104.693Z" fill="#263238"/>
<path d="M136.191 106.93C137.54 106.535 138.91 106.218 140.295 105.979C140.979 105.863 141.663 105.781 142.395 105.726C142.73 105.726 143.079 105.671 143.401 105.657C143.722 105.644 144.146 105.657 144.516 105.657C144.516 105.657 144.563 105.712 144.516 105.712C144.167 105.746 143.832 105.842 143.483 105.897L142.436 106.054L140.384 106.382C139.016 106.588 137.607 106.807 136.219 107.066C136.116 107.06 136.116 106.95 136.191 106.93Z" fill="#263238"/>
<path d="M132.628 78.489C132.231 81.225 131.773 84.0021 131.307 86.7517L131.164 86.526C132.785 86.9501 134.399 87.4152 136.013 87.8598L136.287 87.9351L136.171 88.195C135.692 89.2552 135.213 90.3222 134.714 91.3756L134.652 91.0815C136.362 92.5726 138.072 94.0363 139.782 95.5548C141.492 97.0733 143.202 98.5713 144.837 100.124C143.052 98.7559 141.294 97.2853 139.543 95.8421C137.792 94.3989 136.068 92.9214 134.324 91.4645L134.18 91.3414L134.262 91.1704C134.734 90.1033 135.234 89.05 135.726 87.9898L135.883 88.3249C134.276 87.853 132.662 87.4015 131.054 86.9091L130.877 86.8543V86.6765C131.458 83.9473 132.012 81.2113 132.628 78.489Z" fill="#263238"/>
<path d="M141.588 80.1169C142.491 81.054 143.12 81.7243 143.989 82.6819C144.858 83.6395 145.754 84.5835 146.602 85.5616L146.78 85.7668L146.547 85.9036L144.864 86.9501L144.912 86.5739C145.596 87.2579 146.28 87.9419 146.964 88.6601L147.053 88.7559V88.879C146.697 90.7531 146.369 92.641 146 94.5083C145.63 96.3756 145.254 98.2566 144.83 100.124C145.063 98.2224 145.343 96.3346 145.637 94.4467C145.931 92.5589 146.253 90.6779 146.554 88.7969L146.622 89.0158C145.938 88.3318 145.254 87.6478 144.57 86.9159L144.351 86.697L144.611 86.5397L146.314 85.5205L146.26 85.8625C145.412 84.8844 144.598 83.8721 143.763 82.8803C142.929 81.8885 142.395 81.1429 141.588 80.1169Z" fill="#263238"/>
<path d="M144.837 100.124C145.076 101.034 145.323 101.943 145.521 102.86C145.719 103.777 145.952 104.686 146.15 105.596C146.219 107.648 146.232 109.7 146.267 111.752C146.301 113.804 146.267 115.856 146.267 117.908C146.143 115.856 146.061 113.804 145.993 111.752C145.925 109.7 145.87 107.648 145.849 105.596V105.63C145.658 104.707 145.473 103.783 145.309 102.86C145.145 101.937 145.008 101.047 144.837 100.124Z" fill="#263238"/>
<path d="M144.324 102.6C144.328 102.758 144.277 102.913 144.18 103.037C144.082 103.162 143.945 103.249 143.791 103.284C143.692 103.3 143.591 103.294 143.495 103.267C143.399 103.24 143.31 103.192 143.234 103.127C143.159 103.062 143.098 102.981 143.057 102.89C143.016 102.799 142.996 102.7 142.997 102.6C142.996 102.496 143.02 102.394 143.065 102.3C143.11 102.206 143.175 102.124 143.257 102.06C143.332 102.002 143.418 101.961 143.51 101.939C143.602 101.916 143.697 101.913 143.791 101.93C143.942 101.964 144.078 102.049 144.175 102.171C144.272 102.293 144.325 102.444 144.324 102.6ZM144.324 102.6C144.325 102.531 144.31 102.462 144.279 102.401C144.248 102.339 144.202 102.285 144.146 102.244C144.094 102.211 144.035 102.189 143.974 102.18C143.913 102.171 143.85 102.174 143.791 102.19C143.707 102.22 143.636 102.276 143.587 102.35C143.537 102.424 143.513 102.511 143.517 102.6C143.513 102.688 143.538 102.774 143.587 102.847C143.637 102.92 143.708 102.974 143.791 103.004C143.85 103.021 143.913 103.025 143.974 103.016C144.036 103.006 144.095 102.984 144.146 102.949C144.201 102.909 144.246 102.857 144.277 102.796C144.308 102.735 144.324 102.668 144.324 102.6Z" fill="#263238"/>
<path d="M145.097 108.489C145.101 108.647 145.05 108.802 144.952 108.927C144.855 109.051 144.718 109.138 144.563 109.173C144.47 109.19 144.375 109.187 144.283 109.164C144.191 109.142 144.105 109.101 144.03 109.043C143.949 108.979 143.883 108.898 143.838 108.805C143.793 108.712 143.77 108.61 143.77 108.506C143.77 108.403 143.793 108.301 143.838 108.208C143.883 108.115 143.949 108.033 144.03 107.969C144.105 107.912 144.191 107.871 144.283 107.849C144.375 107.826 144.47 107.823 144.563 107.839C144.712 107.873 144.845 107.955 144.942 108.073C145.038 108.19 145.093 108.337 145.097 108.489ZM145.097 108.489C145.098 108.419 145.081 108.35 145.049 108.288C145.017 108.226 144.97 108.173 144.912 108.134C144.861 108.1 144.804 108.078 144.744 108.069C144.684 108.059 144.622 108.063 144.563 108.079C144.481 108.111 144.409 108.167 144.359 108.24C144.309 108.314 144.283 108.4 144.283 108.489C144.278 108.565 144.294 108.64 144.33 108.706C144.366 108.773 144.42 108.828 144.486 108.864C144.552 108.901 144.628 108.918 144.703 108.913C144.779 108.909 144.851 108.883 144.912 108.838C144.969 108.8 145.016 108.748 145.048 108.687C145.081 108.626 145.097 108.558 145.097 108.489Z" fill="#263238"/>
<path d="M145.377 113.913C145.381 114.072 145.329 114.228 145.23 114.353C145.132 114.477 144.993 114.564 144.837 114.597C144.744 114.614 144.648 114.611 144.557 114.588C144.465 114.566 144.379 114.525 144.303 114.467C144.222 114.403 144.157 114.322 144.112 114.229C144.067 114.136 144.043 114.034 144.043 113.93C144.043 113.827 144.067 113.725 144.112 113.632C144.157 113.539 144.222 113.457 144.303 113.393C144.379 113.336 144.465 113.295 144.557 113.273C144.648 113.25 144.744 113.247 144.837 113.264C144.987 113.296 145.122 113.377 145.22 113.495C145.318 113.613 145.373 113.76 145.377 113.913ZM145.377 113.913C145.376 113.844 145.358 113.776 145.326 113.714C145.294 113.653 145.248 113.599 145.193 113.558C145.14 113.524 145.082 113.502 145.021 113.493C144.959 113.483 144.897 113.487 144.837 113.503C144.754 113.533 144.682 113.59 144.633 113.663C144.584 113.737 144.559 113.825 144.563 113.913C144.56 114.001 144.585 114.087 144.634 114.16C144.683 114.233 144.754 114.288 144.837 114.317C144.897 114.335 144.96 114.339 145.021 114.33C145.083 114.32 145.141 114.297 145.193 114.262C145.248 114.221 145.293 114.169 145.325 114.109C145.356 114.048 145.375 113.982 145.377 113.913Z" fill="#263238"/>
<path d="M134.461 78.7286C134.461 79.4673 136.513 84.8846 139.769 85.5686C140.822 85.7943 142.32 80.0966 142.32 80.0966L142.532 79.6999L145.418 74.1868L139.714 67.9145L138.852 67.1143C138.852 67.1143 138.168 68.6738 137.32 70.6232C137.279 70.7121 137.238 70.801 137.197 70.9036C137.156 71.0062 137.101 71.1157 137.06 71.2183C136.93 71.5055 136.793 71.7997 136.67 72.1006C136.547 72.4016 136.485 72.5452 136.39 72.7846C136.294 73.024 136.205 73.2566 136.102 73.4686C135.441 75.1841 134.892 76.9412 134.461 78.7286Z" fill="#EB9481"/>
<path d="M137.347 70.6232C137.496 72.4296 138.037 74.1819 138.932 75.7578C139.828 77.3337 141.056 78.6954 142.532 79.7477L145.418 74.2347L139.714 67.9624L138.852 67.1143C138.852 67.1143 138.168 68.6738 137.347 70.6232Z" fill="#263238"/>
<path d="M156.102 66.9021C154.871 77.7503 148.236 78.2428 145.897 77.976C143.77 77.7366 136.567 76.608 136.67 65.7187C136.773 54.8295 142.197 51.9361 147.06 52.2371C151.923 52.5381 157.32 56.047 156.102 66.9021Z" fill="#EB9481"/>
<path d="M154.782 64.857C154.529 64.7886 154.31 64.6928 154.098 64.6039C153.834 64.5481 153.594 64.4091 153.414 64.2072C153.371 64.1328 153.354 64.0461 153.365 63.9607C153.376 63.8754 153.415 63.7961 153.476 63.7352C153.615 63.6331 153.78 63.5703 153.952 63.5534C154.124 63.5366 154.297 63.5663 154.454 63.6395C154.789 63.739 155.076 63.9581 155.261 64.2551C155.304 64.3268 155.325 64.4099 155.319 64.4934C155.314 64.577 155.283 64.6568 155.231 64.7223C155.179 64.7878 155.108 64.8358 155.028 64.8599C154.948 64.8839 154.862 64.8829 154.782 64.857Z" fill="#263238"/>
<path d="M147.361 63.4958C147.613 63.4914 147.864 63.4732 148.113 63.4411C148.381 63.4596 148.648 63.3899 148.873 63.2428C148.934 63.1819 148.973 63.1026 148.984 63.0173C148.995 62.9319 148.977 62.8452 148.934 62.7708C148.828 62.636 148.688 62.5324 148.527 62.471C148.367 62.4096 148.193 62.3926 148.024 62.422C147.671 62.4198 147.33 62.5546 147.074 62.7982C147.017 62.8555 146.979 62.9281 146.964 63.007C146.949 63.0858 146.957 63.1675 146.987 63.2417C147.018 63.316 147.07 63.3797 147.136 63.4249C147.202 63.47 147.281 63.4947 147.361 63.4958Z" fill="#263238"/>
<path d="M148.715 66.7176C148.715 66.6834 148.654 66.7176 148.654 66.7723C148.592 67.5178 148.401 68.3523 147.703 68.5233V68.5712C148.537 68.5438 148.784 67.4289 148.715 66.7176Z" fill="#263238"/>
<path d="M148.141 65.8694C146.964 65.6436 146.609 68.0171 147.696 68.2292C148.784 68.4412 149.112 66.054 148.141 65.8694Z" fill="#263238"/>
<path d="M147.662 65.924C147.429 66.0266 147.19 66.2318 146.937 66.2181C146.684 66.2044 146.465 65.924 146.314 65.6572C146.314 65.6572 146.273 65.6572 146.267 65.6572C146.197 65.8689 146.21 66.0992 146.304 66.3013C146.398 66.5034 146.566 66.662 146.773 66.7448C147.21 66.8747 147.587 66.5191 147.771 66.0608C147.806 66.0197 147.744 65.8829 147.662 65.924Z" fill="#263238"/>
<path d="M152.826 67.1758C152.826 67.1758 152.881 67.2237 152.874 67.251C152.737 67.9829 152.696 68.8447 153.319 69.1936C153.319 69.1936 153.319 69.2415 153.319 69.2346C152.532 68.9884 152.58 67.8461 152.826 67.1758Z" fill="#263238"/>
<path d="M153.606 66.519C154.803 66.6148 154.516 68.9951 153.408 68.9062C152.299 68.8173 152.607 66.4301 153.606 66.519Z" fill="#263238"/>
<path d="M154.085 66.7312C154.256 66.8817 154.42 67.1348 154.639 67.1758C154.858 67.2168 155.124 66.9911 155.323 66.7586C155.323 66.7586 155.364 66.7586 155.357 66.7928C155.316 67.251 155.111 67.7025 154.673 67.7367C154.235 67.7709 154.023 67.3468 153.989 66.8817C153.934 66.7928 154.016 66.6696 154.085 66.7312Z" fill="#263238"/>
<path d="M151.164 70.5067C151.166 71.0526 151.141 71.5982 151.089 72.1415C151.089 72.1962 150.952 72.1962 150.774 72.1825C150.317 72.2015 149.864 72.094 149.465 71.8719C149.065 71.6498 148.735 71.3218 148.51 70.924C148.51 70.8693 148.551 70.8282 148.599 70.8693C149.198 71.4124 149.956 71.7482 150.76 71.8269C150.815 71.6901 150.699 69.9048 150.76 69.9117C151.159 70.0033 151.543 70.1483 151.903 70.3426C151.971 68.0033 151.663 65.6777 151.773 63.3521C151.773 63.334 151.78 63.3166 151.793 63.3037C151.806 63.2909 151.823 63.2837 151.841 63.2837C151.859 63.2837 151.877 63.2909 151.89 63.3037C151.902 63.3166 151.91 63.334 151.91 63.3521C152.314 65.8384 152.467 68.3591 152.368 70.8761C152.382 71.136 151.362 70.623 151.164 70.5067Z" fill="#263238"/>
<path d="M150.74 71.9227C150.397 72.3146 149.959 72.6114 149.468 72.7846C149.199 72.8733 148.909 72.8733 148.64 72.7846C148.052 72.5931 148.072 72.039 148.216 71.5807C148.292 71.3405 148.398 71.1107 148.531 70.8967C149.138 71.4663 149.913 71.8259 150.74 71.9227Z" fill="#263238"/>
<path d="M149.468 72.7844C149.199 72.8731 148.909 72.8731 148.64 72.7844C148.052 72.5929 148.072 72.0388 148.216 71.5806C148.532 71.6053 148.829 71.7388 149.057 71.9584C149.286 72.1779 149.431 72.4699 149.468 72.7844Z" fill="#FF9BBC"/>
<path d="M136.697 67.0321C137.451 66.8154 138.135 66.4072 138.684 65.8475C139.233 65.2877 139.628 64.5954 139.83 63.8378C141.863 63.3444 143.729 62.3227 145.241 60.8761C145.124 61.0882 144.324 62.6066 143.873 63.3727C150.966 63.2838 154.009 58.4 154.009 58.4C155.113 59.8358 155.875 61.5034 156.239 63.277C156.239 63.277 157.026 59.0704 155.35 55.8761C154.821 54.7736 154.009 53.8318 152.995 53.1478C151.982 52.4637 150.804 52.062 149.584 51.9841C147.96 51.2758 146.175 51.0188 144.418 51.2403C142.66 51.4618 140.995 52.1536 139.598 53.2427C134.29 57.3056 136.697 67.0321 136.697 67.0321Z" fill="#263238"/>
<path d="M149.304 63.1265C148.094 63.5374 146.831 63.7679 145.555 63.8105C147.595 63.6231 149.539 62.8618 151.164 61.6149C151.853 61.0908 152.474 60.4817 153.011 59.8023C153.624 59.0817 154.089 58.2473 154.379 57.3467C154.383 57.3362 154.39 57.3272 154.399 57.3208C154.408 57.3145 154.419 57.311 154.43 57.311C154.441 57.311 154.452 57.3145 154.461 57.3208C154.471 57.3272 154.478 57.3362 154.481 57.3467C154.291 58.2689 153.947 59.1523 153.462 59.9596C152.951 60.7411 152.3 61.4207 151.54 61.9637C150.864 62.445 150.122 62.8273 149.338 63.0992L149.304 63.1265Z" fill="#263238"/>
<path d="M136.02 69.4055C136.167 69.5014 136.326 69.5773 136.492 69.6312C136.652 69.6943 136.82 69.7334 136.992 69.7475C137.222 69.7777 137.457 69.7518 137.676 69.6722C137.841 69.6185 137.998 69.5401 138.141 69.4397C138.349 69.3011 138.53 69.1248 138.674 68.9198V65.9445C138.674 65.9445 137.012 62.1277 135.329 62.6612C133.647 63.1948 134.372 68.4 136.02 69.4055Z" fill="#EB9481"/>
<path d="M135.541 64.1387C135.541 64.1387 135.5 64.1387 135.541 64.1866C136.684 64.9458 137.108 66.2386 137.327 67.5245C137.279 67.3854 137.202 67.2582 137.101 67.1516C137 67.0451 136.877 66.9616 136.741 66.9071C136.604 66.8525 136.457 66.8281 136.311 66.8354C136.164 66.8428 136.021 66.8819 135.89 66.9499C135.883 66.9531 135.877 66.9584 135.872 66.9651C135.868 66.9717 135.866 66.9795 135.866 66.9875C135.866 66.9955 135.868 67.0033 135.872 67.01C135.877 67.0167 135.883 67.022 135.89 67.0252C136.123 66.9995 136.358 67.047 136.563 67.161C136.768 67.2749 136.932 67.4498 137.033 67.6613C137.203 68.0152 137.334 68.3868 137.422 68.7694C137.457 68.8925 137.669 68.872 137.655 68.7352C138.004 67.1209 137.217 64.6448 135.541 64.1387Z" fill="#263238"/>
<path d="M126.581 81.9843C120.11 87.6546 103.544 109.953 107.614 114.727C111.684 119.502 137.251 116.191 144.604 113.551C146.793 112.764 140.165 98.9543 137.764 98.4071C135.747 97.9488 124.823 101.677 124.577 101.047C124.331 100.418 126.472 95.4864 129.892 86.6834C133.818 76.4918 129.433 79.4808 126.581 81.9843Z" fill="#EB9481"/>
<path d="M148.537 95.2401C153.681 95.0486 155.035 95.7873 159.29 93.3113C162.081 91.6902 164.317 92.7777 162.532 95.6163C159.611 100.274 153.024 101.923 150.576 101.834L148.537 95.2401Z" fill="#EB9481"/>
<path d="M134.57 98.7764C138.256 97.2278 142.107 96.1056 146.048 95.4317C149.83 94.905 158.175 94.693 165.241 103.64C166.917 105.753 167.806 109.96 163.811 107.497C160.973 105.746 159.707 103.783 157.867 103.065C157.867 103.065 158.367 108.537 156.178 110.145C154.268 111.541 152.261 112.801 150.172 113.913C149.882 113.577 149.612 113.223 149.365 112.853C149.365 112.853 147.183 114.146 143.394 113.4L134.57 98.7764Z" fill="#EB9481"/>
<path d="M149.734 95.5071C151.403 96.6015 154.912 98.9886 157.094 101.93C159.529 105.206 163.326 112.19 160.89 113.934C159.105 115.227 157.423 112.696 157.423 112.696C157.423 112.696 158.387 115.904 156.52 116.725C154.817 117.47 153.626 115.439 153.626 115.439C153.626 115.439 153.879 117.491 152.101 117.888C149.96 118.366 149.789 114.002 147.197 112.621C146.615 112.313 149.734 95.5071 149.734 95.5071Z" fill="#EB9481"/>
<path d="M153.216 103.92C155.482 106.322 156.964 109.357 157.464 112.621C157.464 112.703 157.416 112.757 157.388 112.682C156.355 109.62 154.954 106.694 153.216 103.968C153.216 103.968 153.216 103.907 153.216 103.92Z" fill="#263238"/>
<path d="M149.981 106.471C151.075 107.71 153.401 111.677 153.702 115.411C153.702 115.493 153.647 115.541 153.62 115.466C152.738 112.346 151.506 109.335 149.946 106.492C149.946 106.492 149.967 106.458 149.981 106.471Z" fill="#263238"/>
<path d="M157.874 103.004C159.319 103.666 160.638 104.573 161.773 105.685C162.406 106.247 163.073 106.77 163.77 107.251C164.406 107.682 165.343 108.332 166.116 107.833C166.302 107.673 166.441 107.466 166.519 107.233C166.597 107.001 166.612 106.752 166.561 106.513C166.422 105.823 166.177 105.158 165.836 104.543C165.836 104.543 165.836 104.495 165.877 104.543C166.215 105.105 166.492 105.701 166.704 106.321C166.838 106.746 166.838 107.202 166.704 107.628C166.369 108.51 165.282 108.524 164.543 108.195C164.105 107.986 163.69 107.731 163.305 107.436C162.929 107.169 162.566 106.882 162.204 106.581C161.472 105.972 160.774 105.322 160.049 104.7C159.342 104.117 158.599 103.578 157.826 103.086C157.812 103.038 157.84 102.997 157.874 103.004Z" fill="#263238"/>
<path d="M134.57 98.7764L140.904 116.403C140.904 116.403 108.92 120.288 106.766 114.577C104.611 108.865 118.9 88.7627 124.994 83.1128C132.06 76.5533 132.628 79.0841 130.589 85.3221C128.455 91.8475 124.666 101.218 124.666 101.218L134.57 98.7764Z" fill="#0FB6AC"/>
<path d="M114.679 104.734C117.768 103.018 121.098 101.778 124.556 101.054C125.535 100.835 126.519 100.664 127.504 100.493C127.504 100.493 127.539 100.534 127.504 100.534C125.781 100.91 124.079 101.383 122.409 101.95C120.747 102.504 119.098 103.079 117.456 103.695C116.526 104.037 115.617 104.426 114.72 104.803C114.711 104.808 114.701 104.81 114.69 104.807C114.68 104.805 114.671 104.798 114.666 104.789C114.66 104.78 114.659 104.769 114.661 104.759C114.664 104.748 114.67 104.74 114.679 104.734Z" fill="#263238"/>
<path d="M134.488 98.7219C134.331 98.7219 125.487 100.712 125.199 100.815C125.247 100.685 127.251 96.2937 127.532 95.6507C127.557 95.585 127.587 95.5211 127.621 95.4592C127.805 95.1719 127.99 94.8915 128.168 94.6042C128.346 94.3169 128.613 93.8655 128.852 93.4893L128.134 94.57C128.024 94.7342 127.922 94.9052 127.819 95.0762C128.017 94.6247 128.209 94.1665 128.4 93.7082C128.708 92.9763 128.989 92.2307 129.269 91.492C129.269 91.492 129.269 91.4578 129.235 91.492C128.647 92.7711 128.017 94.0365 127.429 95.3156C126.841 96.5947 124.591 101.301 124.604 101.294C124.618 101.287 134.358 98.9202 134.55 98.8587C134.559 98.8546 134.567 98.8489 134.573 98.8417C134.58 98.8345 134.586 98.8261 134.589 98.8169C134.592 98.8077 134.594 98.7979 134.594 98.788C134.594 98.7782 134.591 98.7685 134.587 98.7595C134.583 98.7505 134.577 98.7424 134.57 98.7357C134.563 98.7289 134.555 98.7237 134.545 98.7202C134.536 98.7167 134.526 98.715 134.517 98.7153C134.507 98.7156 134.497 98.7178 134.488 98.7219Z" fill="#263238"/>
<path d="M133.968 109.755C133.284 107.785 132.6 105.815 131.834 103.872C131.396 102.771 130.972 101.663 130.521 100.569C130.521 100.527 130.432 100.569 130.446 100.569C131.061 102.573 131.684 104.577 132.395 106.547C133.106 108.517 133.763 110.48 134.515 112.436C134.933 113.544 135.377 114.638 135.883 115.726H135.924C135.35 113.708 134.666 111.731 133.968 109.755Z" fill="#263238"/>
<path d="M141.253 116.704C140.993 116.157 140.671 115.336 140.391 114.837C140.316 114.693 140.206 114.707 140.268 114.837C140.459 115.329 140.603 115.876 140.788 116.383L139.42 116.513L137.867 116.677C136.848 116.779 135.815 116.875 134.816 116.957C132.76 117.13 130.708 117.258 128.66 117.34C124.521 117.531 120.375 117.506 116.239 117.265C115.083 117.19 113.927 117.094 112.778 116.964C111.629 116.834 110.35 116.677 109.392 116.458C109.358 116.458 109.351 116.499 109.392 116.513C110.346 116.818 111.323 117.047 112.313 117.197C113.352 117.354 114.365 117.484 115.439 117.573C117.525 117.757 119.611 117.833 121.704 117.853C125.849 117.89 129.99 117.748 134.126 117.429C135.282 117.347 136.437 117.244 137.593 117.128C138.182 117.073 138.763 117.012 139.344 116.944C139.986 116.92 140.625 116.84 141.253 116.704Z" fill="#263238"/>
<path d="M184.447 118.572H144.174V120.377H184.447V118.572Z" fill="#C7C7C7"/>
<path d="M184.447 118.572V120.377H157.067L158.449 118.572H184.447Z" fill="#A6A6A6"/>
<path d="M162.607 120.377H197.854L202.956 95.5071H167.71L162.607 120.377Z" fill="#A6A6A6"/>
<path d="M164.256 120.377H199.502L204.605 95.5071H169.352L164.256 120.377Z" fill="#C7C7C7"/>
<path d="M187.608 107.019C187.636 107.572 187.478 108.12 187.16 108.573C186.841 109.027 186.38 109.361 185.85 109.522C184.844 109.734 183.996 108.954 183.962 107.778C183.931 107.223 184.087 106.674 184.406 106.218C184.725 105.763 185.187 105.428 185.72 105.268C186.732 105.056 187.566 105.842 187.608 107.019Z" fill="white"/>
<path d="M275.426 295.194H231.616V304.873H275.426V295.194Z" fill="#0FB6AC"/>
<g opacity="0.1">
<path d="M233.422 296.083C233.878 298.644 233.878 301.265 233.422 303.826C233.176 302.551 233.061 301.253 233.08 299.955C233.065 298.656 233.179 297.359 233.422 296.083Z" fill="black"/>
<path d="M236.664 296.083C237.12 298.644 237.12 301.265 236.664 303.826C236.208 301.265 236.208 298.644 236.664 296.083Z" fill="black"/>
<path d="M238.278 296.083C238.734 298.644 238.734 301.265 238.278 303.826C238.032 302.551 237.918 301.253 237.936 299.955C237.921 298.656 238.036 297.359 238.278 296.083Z" fill="black"/>
<path d="M247.027 296.083C247.266 297.36 247.38 298.656 247.369 299.955C247.384 301.253 247.269 302.55 247.027 303.826C246.781 302.551 246.666 301.253 246.685 299.955C246.669 298.656 246.784 297.359 247.027 296.083Z" fill="black"/>
<path d="M249.393 296.083C249.633 297.36 249.747 298.656 249.735 299.955C249.75 301.253 249.636 302.55 249.393 303.826C249.147 302.551 249.033 301.253 249.051 299.955C249.039 298.656 249.154 297.36 249.393 296.083Z" fill="black"/>
<path d="M259.181 296.083C259.637 298.644 259.637 301.265 259.181 303.826C258.935 302.551 258.821 301.253 258.839 299.955C258.824 298.656 258.939 297.359 259.181 296.083Z" fill="black"/>
<path d="M261.438 296.083C261.894 298.644 261.894 301.265 261.438 303.826C260.983 301.265 260.983 298.644 261.438 296.083Z" fill="black"/>
<path d="M265.59 296.083C266.046 298.644 266.046 301.265 265.59 303.826C265.143 301.265 265.143 298.645 265.59 296.083Z" fill="black"/>
<path d="M257.287 296.083C257.743 298.644 257.743 301.265 257.287 303.826C256.831 301.265 256.831 298.644 257.287 296.083Z" fill="black"/>
<path d="M241.172 296.083C241.627 298.644 241.627 301.265 241.172 303.826C240.716 301.265 240.716 298.644 241.172 296.083Z" fill="black"/>
<path d="M252.505 296.083C252.961 298.644 252.961 301.265 252.505 303.826C252.049 301.265 252.049 298.644 252.505 296.083Z" fill="black"/>
<path d="M254.14 296.083C254.596 298.644 254.596 301.265 254.14 303.826C253.684 301.265 253.684 298.644 254.14 296.083Z" fill="black"/>
<path d="M271.008 296.083C271.464 298.644 271.464 301.265 271.008 303.826C270.762 302.551 270.647 301.253 270.666 299.955C270.65 298.656 270.765 297.359 271.008 296.083Z" fill="black"/>
<path d="M273.456 296.083C273.903 298.645 273.903 301.265 273.456 303.826C273 301.265 273 298.644 273.456 296.083Z" fill="black"/>
<path d="M267.519 296.083C267.975 298.644 267.975 301.265 267.519 303.826C267.063 301.265 267.063 298.644 267.519 296.083Z" fill="black"/>
<path d="M245.132 296.083C245.588 298.644 245.588 301.265 245.132 303.826C244.685 301.265 244.685 298.645 245.132 296.083Z" fill="black"/>
</g>
<path opacity="0.1" d="M275.419 295.194V297.253L231.616 298.635V295.194H275.419Z" fill="black"/>
<path d="M271.767 285.515H227.957V295.194H271.767V285.515Z" fill="#0FB6AC"/>
<g opacity="0.1">
<path d="M269.797 294.12C269.558 292.844 269.443 291.547 269.455 290.249C269.439 288.95 269.554 287.653 269.797 286.377C270.043 287.653 270.158 288.95 270.139 290.249C270.151 291.547 270.036 292.844 269.797 294.12Z" fill="black"/>
<path d="M266.534 294.12C266.295 292.844 266.18 291.547 266.192 290.249C266.177 288.95 266.291 287.653 266.534 286.377C266.781 287.653 266.895 288.95 266.876 290.249C266.892 291.547 266.777 292.844 266.534 294.12Z" fill="black"/>
<path d="M264.941 294.12C264.701 292.844 264.587 291.547 264.599 290.249C264.583 288.95 264.698 287.653 264.941 286.377C265.187 287.653 265.302 288.95 265.283 290.249C265.294 291.547 265.18 292.844 264.941 294.12Z" fill="black"/>
<path d="M256.192 294.12C255.953 292.844 255.838 291.547 255.85 290.249C255.831 288.95 255.946 287.653 256.192 286.377C256.435 287.653 256.55 288.95 256.534 290.249C256.546 291.547 256.431 292.844 256.192 294.12Z" fill="black"/>
<path d="M253.826 294.12C253.583 292.844 253.468 291.547 253.484 290.249C253.465 288.95 253.579 287.653 253.826 286.377C254.069 287.653 254.183 288.95 254.168 290.249C254.179 291.547 254.065 292.844 253.826 294.12Z" fill="black"/>
<path d="M244.038 294.12C243.798 292.844 243.684 291.547 243.696 290.249C243.677 288.95 243.791 287.653 244.038 286.377C244.284 287.653 244.398 288.95 244.38 290.249C244.391 291.547 244.277 292.844 244.038 294.12Z" fill="black"/>
<path d="M241.773 294.12C241.318 291.559 241.318 288.938 241.773 286.377C242.229 288.938 242.229 291.559 241.773 294.12Z" fill="black"/>
<path d="M237.622 294.12C237.166 291.559 237.166 288.938 237.622 286.377C238.078 288.938 238.078 291.559 237.622 294.12Z" fill="black"/>
<path d="M245.925 294.12C245.469 291.559 245.469 288.938 245.925 286.377C246.381 288.938 246.381 291.559 245.925 294.12Z" fill="black"/>
<path d="M262.047 294.12C261.591 291.559 261.591 288.938 262.047 286.377C262.503 288.938 262.503 291.559 262.047 294.12Z" fill="black"/>
<path d="M250.713 294.12C250.257 291.559 250.257 288.938 250.713 286.377C251.169 288.938 251.169 291.559 250.713 294.12Z" fill="black"/>
<path d="M249.079 294.12C248.839 292.844 248.725 291.547 248.737 290.249C248.721 288.95 248.836 287.653 249.079 286.377C249.325 287.653 249.44 288.95 249.421 290.249C249.436 291.547 249.321 292.844 249.079 294.12Z" fill="black"/>
<path d="M232.211 294.12C231.972 292.844 231.857 291.547 231.869 290.249C231.854 288.95 231.968 287.653 232.211 286.377C232.458 287.653 232.572 288.95 232.553 290.249C232.565 291.547 232.45 292.844 232.211 294.12Z" fill="black"/>
<path d="M229.762 294.12C229.307 291.559 229.307 288.938 229.762 286.377C230.218 288.938 230.218 291.559 229.762 294.12Z" fill="black"/>
<path d="M235.7 294.12C235.244 291.559 235.244 288.938 235.7 286.377C236.146 288.939 236.146 291.558 235.7 294.12Z" fill="black"/>
<path d="M258.08 294.12C257.624 291.559 257.624 288.938 258.08 286.377C258.536 288.938 258.536 291.559 258.08 294.12Z" fill="black"/>
</g>
<path opacity="0.1" d="M271.767 285.515V287.574L227.957 288.956V285.515H271.767Z" fill="black"/>
<path d="M275.146 275.912H231.336V285.591H275.146V275.912Z" fill="#0FB6AC"/>
<g opacity="0.1">
<path d="M233.141 276.801C233.597 279.362 233.597 281.983 233.141 284.544C232.895 283.269 232.78 281.972 232.799 280.673C232.784 279.374 232.899 278.077 233.141 276.801Z" fill="black"/>
<path d="M236.404 276.801C236.86 279.362 236.86 281.983 236.404 284.544C235.948 281.983 235.948 279.362 236.404 276.801Z" fill="black"/>
<path d="M238.032 276.801C238.488 279.362 238.488 281.983 238.032 284.544C237.786 283.269 237.671 281.972 237.69 280.673C237.675 279.374 237.79 278.077 238.032 276.801Z" fill="black"/>
<path d="M246.746 276.801C246.985 278.078 247.1 279.374 247.088 280.673C247.104 281.971 246.989 283.268 246.746 284.544C246.5 283.269 246.385 281.972 246.404 280.673C246.389 279.374 246.504 278.077 246.746 276.801Z" fill="black"/>
<path d="M249.113 276.801C249.352 278.078 249.466 279.374 249.455 280.673C249.47 281.971 249.356 283.268 249.113 284.544C248.866 283.269 248.752 281.972 248.771 280.673C248.759 279.374 248.874 278.078 249.113 276.801Z" fill="black"/>
<path d="M258.901 276.801C259.357 279.362 259.357 281.983 258.901 284.544C258.654 283.269 258.54 281.972 258.559 280.673C258.544 279.374 258.658 278.077 258.901 276.801Z" fill="black"/>
<path d="M261.158 276.801C261.614 279.362 261.614 281.983 261.158 284.544C260.702 281.983 260.702 279.362 261.158 276.801Z" fill="black"/>
<path d="M265.31 276.801C265.766 279.362 265.766 281.983 265.31 284.544C264.854 281.983 264.854 279.362 265.31 276.801Z" fill="black"/>
<path d="M257.006 276.801C257.462 279.362 257.462 281.983 257.006 284.544C256.55 281.983 256.55 279.362 257.006 276.801Z" fill="black"/>
<path d="M240.891 276.801C241.347 279.362 241.347 281.983 240.891 284.544C240.435 281.983 240.435 279.362 240.891 276.801Z" fill="black"/>
<path d="M252.225 276.801C252.681 279.362 252.681 281.983 252.225 284.544C251.769 281.983 251.769 279.362 252.225 276.801Z" fill="black"/>
<path d="M253.86 276.801C254.316 279.362 254.316 281.983 253.86 284.544C253.404 281.983 253.404 279.362 253.86 276.801Z" fill="black"/>
<path d="M270.727 276.801C271.183 279.362 271.183 281.983 270.727 284.544C270.271 281.983 270.271 279.362 270.727 276.801Z" fill="black"/>
<path d="M273.169 276.801C273.625 279.362 273.625 281.983 273.169 284.544C272.722 281.983 272.722 279.363 273.169 276.801Z" fill="black"/>
<path d="M267.239 276.801C267.695 279.362 267.695 281.983 267.239 284.544C266.783 281.983 266.783 279.362 267.239 276.801Z" fill="black"/>
<path d="M244.872 276.801C245.328 279.362 245.328 281.983 244.872 284.544C244.416 281.983 244.416 279.362 244.872 276.801Z" fill="black"/>
</g>
<path opacity="0.1" d="M275.139 275.919V277.971L231.336 279.353V275.919H275.139Z" fill="black"/>
<path d="M141.602 295.194H97.7915V304.873H141.602V295.194Z" fill="#0FB6AC"/>
<g opacity="0.1">
<path d="M99.5972 296.083C99.8399 297.359 99.9545 298.656 99.9392 299.955C99.9579 301.253 99.8433 302.551 99.5972 303.826C99.3546 302.55 99.24 301.253 99.2552 299.955C99.2434 298.656 99.358 297.36 99.5972 296.083Z" fill="black"/>
<path d="M102.86 296.083C103.103 297.359 103.217 298.656 103.202 299.955C103.221 301.253 103.106 302.551 102.86 303.826C102.617 302.55 102.503 301.253 102.518 299.955C102.506 298.656 102.621 297.36 102.86 296.083Z" fill="black"/>
<path d="M104.454 296.083C104.696 297.359 104.811 298.656 104.796 299.955C104.814 301.253 104.7 302.551 104.454 303.826C103.998 301.265 103.998 298.644 104.454 296.083Z" fill="black"/>
<path d="M113.202 296.083C113.658 298.644 113.658 301.265 113.202 303.826C112.746 301.265 112.746 298.644 113.202 296.083Z" fill="black"/>
<path d="M115.596 296.083C116.052 298.644 116.052 301.265 115.596 303.826C115.14 301.265 115.14 298.644 115.596 296.083Z" fill="black"/>
<path d="M125.357 296.083C125.599 297.359 125.714 298.656 125.699 299.955C125.717 301.253 125.603 302.551 125.357 303.826C124.901 301.265 124.901 298.644 125.357 296.083Z" fill="black"/>
<path d="M127.621 296.083C128.077 298.644 128.077 301.265 127.621 303.826C127.375 302.551 127.26 301.253 127.279 299.955C127.263 298.656 127.378 297.359 127.621 296.083Z" fill="black"/>
<path d="M131.773 296.083C132.229 298.644 132.229 301.265 131.773 303.826C131.527 302.551 131.412 301.253 131.431 299.955C131.415 298.656 131.53 297.359 131.773 296.083Z" fill="black"/>
<path d="M123.469 296.083C123.925 298.644 123.925 301.265 123.469 303.826C123.013 301.265 123.013 298.644 123.469 296.083Z" fill="black"/>
<path d="M107.347 296.083C107.586 297.36 107.701 298.656 107.689 299.955C107.704 301.253 107.59 302.55 107.347 303.826C107.101 302.551 106.986 301.253 107.005 299.955C106.99 298.656 107.104 297.359 107.347 296.083Z" fill="black"/>
<path d="M118.688 296.083C119.144 298.644 119.144 301.265 118.688 303.826C118.232 301.265 118.232 298.644 118.688 296.083Z" fill="black"/>
<path d="M120.316 296.083C120.555 297.36 120.669 298.656 120.658 299.955C120.676 301.253 120.562 302.551 120.316 303.826C120.073 302.55 119.958 301.253 119.974 299.955C119.962 298.656 120.076 297.36 120.316 296.083Z" fill="black"/>
<path d="M137.183 296.083C137.426 297.359 137.54 298.656 137.525 299.955C137.544 301.253 137.429 302.551 137.183 303.826C136.94 302.55 136.826 301.253 136.841 299.955C136.829 298.656 136.944 297.36 137.183 296.083Z" fill="black"/>
<path d="M139.632 296.083C140.088 298.644 140.088 301.265 139.632 303.826C139.386 302.551 139.271 301.253 139.29 299.955C139.275 298.656 139.389 297.359 139.632 296.083Z" fill="black"/>
<path d="M133.701 296.083C134.157 298.644 134.157 301.265 133.701 303.826C133.246 301.265 133.246 298.644 133.701 296.083Z" fill="black"/>
<path d="M111.314 296.083C111.77 298.644 111.77 301.265 111.314 303.826C111.068 302.551 110.953 301.253 110.972 299.955C110.957 298.656 111.071 297.359 111.314 296.083Z" fill="black"/>
</g>
<path opacity="0.1" d="M141.595 295.194V297.253L97.7915 298.635V295.194H141.595Z" fill="black"/>
<path d="M138.606 285.515H94.7956V295.194H138.606V285.515Z" fill="#0FB6AC"/>
<g opacity="0.1">
<path d="M96.6013 286.405C96.8443 287.68 96.9588 288.977 96.9433 290.276C96.962 291.575 96.8474 292.872 96.6013 294.147C96.3586 292.872 96.2441 291.575 96.2593 290.276C96.2472 288.977 96.3617 287.681 96.6013 286.405Z" fill="black"/>
<path d="M99.864 286.405C100.107 287.68 100.222 288.977 100.206 290.276C100.223 291.566 100.108 292.854 99.864 294.12C99.6213 292.844 99.5067 291.547 99.522 290.249C99.5116 288.959 99.6262 287.672 99.864 286.405Z" fill="black"/>
<path d="M101.458 286.405C101.701 287.68 101.815 288.977 101.8 290.276C101.818 291.575 101.704 292.872 101.458 294.147C101.215 292.872 101.1 291.575 101.116 290.276C101.104 288.977 101.218 287.681 101.458 286.405Z" fill="black"/>
<path d="M110.206 286.405C110.662 288.965 110.662 291.587 110.206 294.147C109.75 291.587 109.75 288.965 110.206 286.405Z" fill="black"/>
<path d="M112.573 286.405C113.029 288.965 113.029 291.587 112.573 294.147C112.117 291.587 112.117 288.965 112.573 286.405Z" fill="black"/>
<path d="M122.361 286.405C122.604 287.68 122.718 288.977 122.703 290.276C122.721 291.575 122.607 292.872 122.361 294.147C122.118 292.872 122.004 291.575 122.019 290.276C122.007 288.977 122.121 287.681 122.361 286.405Z" fill="black"/>
<path d="M124.625 286.405C125.081 288.965 125.081 291.587 124.625 294.147C124.169 291.587 124.169 288.965 124.625 286.405Z" fill="black"/>
<path d="M128.777 286.405C129.233 288.965 129.233 291.587 128.777 294.147C128.531 292.872 128.416 291.575 128.435 290.276C128.419 288.977 128.534 287.68 128.777 286.405Z" fill="black"/>
<path d="M120.473 286.405C120.929 288.965 120.929 291.587 120.473 294.147C120.017 291.587 120.017 288.965 120.473 286.405Z" fill="black"/>
<path d="M104.351 286.405C104.591 287.681 104.705 288.977 104.693 290.276C104.708 291.575 104.594 292.872 104.351 294.147C104.105 292.872 103.99 291.575 104.009 290.276C103.994 288.977 104.108 287.68 104.351 286.405Z" fill="black"/>
<path d="M115.692 286.405C116.148 288.965 116.148 291.587 115.692 294.147C115.236 291.587 115.236 288.965 115.692 286.405Z" fill="black"/>
<path d="M117.32 286.405C117.559 287.681 117.674 288.977 117.662 290.276C117.68 291.575 117.566 292.872 117.32 294.147C117.077 292.872 116.962 291.575 116.978 290.276C116.966 288.977 117.08 287.681 117.32 286.405Z" fill="black"/>
<path d="M134.187 286.405C134.43 287.68 134.545 288.977 134.529 290.276C134.548 291.575 134.433 292.872 134.187 294.147C133.944 292.872 133.83 291.575 133.845 290.276C133.833 288.977 133.948 287.681 134.187 286.405Z" fill="black"/>
<path d="M136.636 286.405C137.092 288.965 137.092 291.587 136.636 294.147C136.39 292.872 136.275 291.575 136.294 290.276C136.278 288.977 136.393 287.68 136.636 286.405Z" fill="black"/>
<path d="M130.706 286.405C131.162 288.965 131.162 291.587 130.706 294.147C130.25 291.587 130.25 288.965 130.706 286.405Z" fill="black"/>
<path d="M108.318 286.405C108.774 288.965 108.774 291.587 108.318 294.147C108.072 292.872 107.958 291.575 107.976 290.276C107.961 288.977 108.075 287.68 108.318 286.405Z" fill="black"/>
</g>
<path opacity="0.1" d="M138.599 285.515V287.574L94.7956 288.956V285.515H138.599Z" fill="black"/>
<path d="M145.377 266.233H101.567V275.912H145.377V266.233Z" fill="#0FB6AC"/>
<g opacity="0.1">
<path d="M103.373 267.123C103.829 269.683 103.829 272.305 103.373 274.865C102.917 272.305 102.917 269.683 103.373 267.123Z" fill="black"/>
<path d="M106.629 267.123C107.085 269.683 107.085 272.305 106.629 274.865C106.182 272.304 106.182 269.684 106.629 267.123Z" fill="black"/>
<path d="M108.229 267.123C108.685 269.683 108.685 272.305 108.229 274.865C107.773 272.305 107.773 269.683 108.229 267.123Z" fill="black"/>
<path d="M116.964 267.123C117.42 269.683 117.42 272.305 116.964 274.865C116.508 272.305 116.508 269.683 116.964 267.123Z" fill="black"/>
<path d="M119.344 267.123C119.8 269.683 119.8 272.305 119.344 274.865C118.888 272.305 118.888 269.683 119.344 267.123Z" fill="black"/>
<path d="M129.132 267.123C129.588 269.683 129.588 272.305 129.132 274.865C128.676 272.305 128.676 269.683 129.132 267.123Z" fill="black"/>
<path d="M131.39 267.123C131.632 268.398 131.747 269.695 131.732 270.994C131.751 272.293 131.636 273.59 131.39 274.865C130.934 272.305 130.934 269.683 131.39 267.123Z" fill="black"/>
<path d="M135.541 267.123C135.997 269.683 135.997 272.305 135.541 274.865C135.086 272.305 135.086 269.683 135.541 267.123Z" fill="black"/>
<path d="M127.224 267.123C127.467 268.398 127.581 269.695 127.566 270.994C127.585 272.293 127.47 273.59 127.224 274.865C126.768 272.305 126.768 269.683 127.224 267.123Z" fill="black"/>
<path d="M111.116 267.123C111.572 269.683 111.572 272.305 111.116 274.865C110.66 272.305 110.66 269.683 111.116 267.123Z" fill="black"/>
<path d="M122.436 267.123C122.675 268.399 122.79 269.695 122.778 270.994C122.794 272.293 122.679 273.59 122.436 274.865C122.19 273.59 122.075 272.293 122.094 270.994C122.082 269.695 122.197 268.399 122.436 267.123Z" fill="black"/>
<path d="M124.084 267.123C124.54 269.683 124.54 272.305 124.084 274.865C123.629 272.305 123.629 269.683 124.084 267.123Z" fill="black"/>
<path d="M140.959 267.123C141.406 269.684 141.406 272.304 140.959 274.865C140.503 272.305 140.503 269.683 140.959 267.123Z" fill="black"/>
<path d="M143.401 267.123C143.857 269.683 143.857 272.305 143.401 274.865C142.945 272.305 142.945 269.683 143.401 267.123Z" fill="black"/>
<path d="M137.484 267.123C137.723 268.399 137.838 269.695 137.826 270.994C137.845 272.293 137.73 273.59 137.484 274.865C137.241 273.59 137.126 272.293 137.142 270.994C137.13 269.695 137.245 268.399 137.484 267.123Z" fill="black"/>
<path d="M115.083 267.123C115.539 269.683 115.539 272.305 115.083 274.865C114.627 272.305 114.627 269.683 115.083 267.123Z" fill="black"/>
</g>
<path opacity="0.1" d="M145.371 266.233V268.292L101.567 269.674V266.233H145.371Z" fill="black"/>
<path d="M144.269 256.555H100.459V266.234H144.269V256.555Z" fill="#0FB6AC"/>
<g opacity="0.1">
<path d="M142.272 265.187C141.816 262.626 141.816 260.005 142.272 257.444C142.728 260.005 142.728 262.626 142.272 265.187Z" fill="black"/>
<path d="M139.037 265.187C138.581 262.626 138.581 260.005 139.037 257.444C139.493 260.005 139.493 262.626 139.037 265.187Z" fill="black"/>
<path d="M137.443 265.187C136.987 262.626 136.987 260.005 137.443 257.444C137.899 260.005 137.899 262.626 137.443 265.187Z" fill="black"/>
<path d="M128.688 265.187C128.232 262.626 128.232 260.005 128.688 257.444C129.144 260.005 129.144 262.626 128.688 265.187Z" fill="black"/>
<path d="M126.321 265.187C125.865 262.626 125.865 260.005 126.321 257.444C126.777 260.005 126.777 262.626 126.321 265.187Z" fill="black"/>
<path d="M116.54 265.187C116.084 262.626 116.084 260.005 116.54 257.444C116.996 260.005 116.996 262.626 116.54 265.187Z" fill="black"/>
<path d="M114.276 265.187C114.033 263.911 113.919 262.614 113.934 261.316C113.915 260.017 114.03 258.719 114.276 257.444C114.519 258.72 114.633 260.017 114.618 261.316C114.63 262.614 114.515 263.911 114.276 265.187Z" fill="black"/>
<path d="M110.124 265.187C109.881 263.911 109.767 262.614 109.782 261.316C109.763 260.017 109.878 258.719 110.124 257.444C110.367 258.72 110.482 260.017 110.466 261.316C110.478 262.614 110.363 263.911 110.124 265.187Z" fill="black"/>
<path d="M118.428 265.187C118.188 263.911 118.074 262.614 118.086 261.316C118.067 260.017 118.181 258.719 118.428 257.444C118.671 258.72 118.785 260.017 118.77 261.316C118.782 262.614 118.667 263.911 118.428 265.187Z" fill="black"/>
<path d="M134.55 265.187C134.307 263.911 134.192 262.614 134.208 261.316C134.189 260.017 134.303 258.719 134.55 257.444C135.006 260.005 135.006 262.626 134.55 265.187Z" fill="black"/>
<path d="M123.209 265.187C122.97 263.911 122.855 262.614 122.867 261.316C122.851 260.017 122.966 258.72 123.209 257.444C123.455 258.719 123.57 260.017 123.551 261.316C123.566 262.614 123.452 263.911 123.209 265.187Z" fill="black"/>
<path d="M121.581 265.187C121.125 262.626 121.125 260.005 121.581 257.444C122.037 260.005 122.037 262.626 121.581 265.187Z" fill="black"/>
<path d="M104.714 265.187C104.258 262.626 104.258 260.005 104.714 257.444C105.17 260.005 105.17 262.626 104.714 265.187Z" fill="black"/>
<path d="M102.265 265.187C102.018 263.902 101.901 262.596 101.916 261.288C101.897 259.989 102.012 258.692 102.258 257.417C102.501 258.693 102.616 259.99 102.6 261.288C102.616 262.596 102.504 263.901 102.265 265.187Z" fill="black"/>
<path d="M108.195 265.187C107.956 263.911 107.841 262.614 107.853 261.316C107.838 260.017 107.952 258.72 108.195 257.444C108.441 258.719 108.556 260.017 108.537 261.316C108.549 262.614 108.434 263.911 108.195 265.187Z" fill="black"/>
<path d="M130.582 265.187C130.34 263.911 130.225 262.614 130.24 261.316C130.221 260.017 130.336 258.719 130.582 257.444C130.825 258.72 130.94 260.017 130.924 261.316C130.936 262.614 130.822 263.911 130.582 265.187Z" fill="black"/>
</g>
<path opacity="0.1" d="M144.262 256.555V258.614L100.459 259.995V256.555H144.262Z" fill="black"/>
<path d="M141.602 246.876H97.7915V256.555H141.602V246.876Z" fill="#0FB6AC"/>
<g opacity="0.1">
<path d="M99.5972 247.765C100.053 250.326 100.053 252.947 99.5972 255.508C99.1413 252.947 99.1413 250.326 99.5972 247.765Z" fill="black"/>
<path d="M102.86 247.765C103.103 249.041 103.217 250.338 103.202 251.637C103.22 252.936 103.106 254.233 102.86 255.508C102.404 252.947 102.404 250.326 102.86 247.765Z" fill="black"/>
<path d="M104.454 247.765C104.91 250.326 104.91 252.947 104.454 255.508C103.998 252.947 103.998 250.326 104.454 247.765Z" fill="black"/>
<path d="M113.202 247.765C113.658 250.326 113.658 252.947 113.202 255.508C112.746 252.947 112.746 250.326 113.202 247.765Z" fill="black"/>
<path d="M115.596 247.765C116.052 250.326 116.052 252.947 115.596 255.508C115.14 252.947 115.14 250.326 115.596 247.765Z" fill="black"/>
<path d="M125.357 247.765C125.813 250.326 125.813 252.947 125.357 255.508C124.901 252.947 124.901 250.326 125.357 247.765Z" fill="black"/>
<path d="M127.621 247.765C127.86 249.042 127.975 250.338 127.963 251.637C127.978 252.935 127.863 254.232 127.621 255.508C127.375 254.233 127.26 252.936 127.279 251.637C127.263 250.338 127.378 249.041 127.621 247.765Z" fill="black"/>
<path d="M131.773 247.765C132.012 249.042 132.127 250.338 132.115 251.637C132.13 252.935 132.015 254.232 131.773 255.508C131.527 254.233 131.412 252.936 131.431 251.637C131.418 250.338 131.533 249.042 131.773 247.765Z" fill="black"/>
<path d="M123.469 247.765C123.708 249.042 123.823 250.338 123.811 251.637C123.826 252.935 123.711 254.232 123.469 255.508C123.223 254.233 123.109 252.936 123.127 251.637C123.111 250.338 123.226 249.041 123.469 247.765Z" fill="black"/>
<path d="M107.347 247.765C107.587 249.042 107.701 250.338 107.689 251.637C107.707 252.936 107.593 254.233 107.347 255.508C107.105 254.232 106.99 252.935 107.005 251.637C106.993 250.338 107.107 249.042 107.347 247.765Z" fill="black"/>
<path d="M118.688 247.765C119.144 250.326 119.144 252.947 118.688 255.508C118.232 252.947 118.232 250.326 118.688 247.765Z" fill="black"/>
<path d="M120.316 247.765C120.559 249.041 120.673 250.338 120.658 251.637C120.676 252.936 120.561 254.233 120.316 255.508C119.86 252.947 119.86 250.326 120.316 247.765Z" fill="black"/>
<path d="M137.183 247.765C137.639 250.326 137.639 252.947 137.183 255.508C136.727 252.947 136.727 250.326 137.183 247.765Z" fill="black"/>
<path d="M139.632 247.765C139.871 249.042 139.986 250.338 139.974 251.637C139.989 252.935 139.874 254.232 139.632 255.508C139.386 254.233 139.271 252.936 139.29 251.637C139.278 250.338 139.392 249.042 139.632 247.765Z" fill="black"/>
<path d="M133.701 247.765C134.157 250.326 134.157 252.947 133.701 255.508C133.456 254.233 133.341 252.936 133.359 251.637C133.344 250.338 133.459 249.041 133.701 247.765Z" fill="black"/>
<path d="M111.314 247.765C111.554 249.042 111.668 250.338 111.656 251.637C111.671 252.935 111.557 254.232 111.314 255.508C111.068 254.233 110.954 252.936 110.972 251.637C110.96 250.338 111.075 249.042 111.314 247.765Z" fill="black"/>
</g>
<path opacity="0.1" d="M141.595 246.876V248.935L97.7915 250.317V246.876H141.595Z" fill="black"/>
<path d="M141.602 275.912H97.7915V285.591H141.602V275.912Z" fill="#0FB6AC"/>
<g opacity="0.1">
<path d="M139.632 284.544C139.389 283.268 139.274 281.971 139.29 280.673C139.271 279.374 139.386 278.077 139.632 276.801C139.874 278.077 139.989 279.374 139.974 280.673C139.986 281.971 139.871 283.268 139.632 284.544Z" fill="black"/>
<path d="M136.369 284.544C136.129 283.268 136.015 281.971 136.027 280.673C136.009 279.374 136.123 278.077 136.369 276.801C136.611 278.077 136.726 279.374 136.711 280.673C136.723 281.971 136.609 283.268 136.369 284.544Z" fill="black"/>
<path d="M134.748 284.544C134.505 283.268 134.39 281.971 134.406 280.673C134.388 279.374 134.502 278.077 134.748 276.801C134.99 278.077 135.105 279.374 135.09 280.673C135.102 281.971 134.988 283.268 134.748 284.544Z" fill="black"/>
<path d="M126.027 284.544C125.784 283.268 125.669 281.971 125.685 280.673C125.667 279.374 125.781 278.077 126.027 276.801C126.483 279.362 126.483 281.983 126.027 284.544Z" fill="black"/>
<path d="M123.66 284.544C123.204 281.983 123.204 279.362 123.66 276.801C124.116 279.362 124.116 281.983 123.66 284.544Z" fill="black"/>
<path d="M113.872 284.544C113.629 283.268 113.515 281.971 113.53 280.673C113.512 279.374 113.627 278.077 113.872 276.801C114.115 278.077 114.229 279.374 114.214 280.673C114.226 281.971 114.112 283.268 113.872 284.544Z" fill="black"/>
<path d="M111.608 284.544C111.152 281.983 111.152 279.362 111.608 276.801C112.064 279.362 112.064 281.983 111.608 284.544Z" fill="black"/>
<path d="M107.456 284.544C107 281.983 107 279.362 107.456 276.801C107.702 278.077 107.817 279.374 107.798 280.673C107.814 281.971 107.699 283.268 107.456 284.544Z" fill="black"/>
<path d="M115.76 284.544C115.304 281.983 115.304 279.362 115.76 276.801C116.216 279.362 116.216 281.983 115.76 284.544Z" fill="black"/>
<path d="M131.882 284.544C131.426 281.983 131.426 279.362 131.882 276.801C132.128 278.077 132.242 279.374 132.224 280.673C132.24 281.971 132.125 283.268 131.882 284.544Z" fill="black"/>
<path d="M120.541 284.544C120.085 281.983 120.085 279.362 120.541 276.801C120.997 279.362 120.997 281.983 120.541 284.544Z" fill="black"/>
<path d="M118.913 284.544C118.674 283.268 118.559 281.971 118.571 280.673C118.553 279.374 118.668 278.077 118.913 276.801C119.156 278.077 119.27 279.374 119.255 280.673C119.268 281.971 119.153 283.268 118.913 284.544Z" fill="black"/>
<path d="M102.046 284.544C101.803 283.268 101.688 281.971 101.704 280.673C101.686 279.374 101.8 278.077 102.046 276.801C102.288 278.077 102.403 279.374 102.388 280.673C102.4 281.971 102.286 283.268 102.046 284.544Z" fill="black"/>
<path d="M99.5972 284.544C99.1413 281.983 99.1413 279.362 99.5972 276.801C99.843 278.077 99.9576 279.374 99.9392 280.673C99.9548 281.971 99.8402 283.268 99.5972 284.544Z" fill="black"/>
<path d="M105.528 284.544C105.072 281.983 105.072 279.362 105.528 276.801C105.983 279.362 105.983 281.983 105.528 284.544Z" fill="black"/>
<path d="M127.908 284.544C127.452 281.983 127.452 279.362 127.908 276.801C128.154 278.077 128.268 279.374 128.25 280.673C128.266 281.971 128.151 283.268 127.908 284.544Z" fill="black"/>
</g>
<path opacity="0.1" d="M141.595 275.919V277.971L97.7915 279.353V275.919H141.595Z" fill="black"/>
<path d="M94.1389 261.733C122.976 266.904 115.343 309.613 86.4713 304.442C57.5996 299.271 65.2536 256.548 94.1389 261.733Z" fill="#0FB6AC"/>
<path opacity="0.1" d="M94.1389 261.733C122.976 266.904 115.343 309.613 86.4713 304.442C57.5996 299.271 65.2536 256.548 94.1389 261.733Z" fill="black"/>
<path d="M91.4303 261.247C118.913 266.172 111.266 308.894 83.7695 303.956C56.2727 299.018 63.9061 256.302 91.4303 261.247Z" fill="#0FB6AC"/>
<path opacity="0.1" d="M70.1716 283.607C70.3152 291.213 74.7475 298.587 84.4193 300.324C107.265 304.428 113.592 268.969 90.7805 264.872L90.3359 264.804C111.718 269.086 105.589 302.636 83.8105 298.73C74.9254 297.137 70.6435 290.563 70.1716 283.607Z" fill="black"/>
<g opacity="0.1">
<path d="M89.9734 269.305C90.1595 269.353 90.319 269.473 90.4176 269.638C90.5162 269.803 90.5458 270 90.5 270.187L90.2128 271.357C92.079 271.979 93.7159 273.146 94.9118 274.708C95.0153 274.807 95.0921 274.93 95.1351 275.066C95.1782 275.203 95.1861 275.348 95.1581 275.488C95.1037 275.684 94.974 275.851 94.7972 275.952C94.6205 276.053 94.411 276.081 94.2142 276.028C94.1158 276.008 94.0225 275.968 93.9402 275.91C93.8579 275.852 93.7882 275.779 93.7354 275.693C92.7529 274.328 91.3895 273.284 89.816 272.69L87.764 280.898C91.9912 282.95 93.4481 285.084 92.7299 287.957C91.957 291.063 88.7969 292.608 85.1033 291.815L84.5356 294.1C84.5127 294.192 84.4717 294.279 84.4152 294.356C84.3586 294.433 84.2875 294.497 84.2059 294.547C84.1243 294.596 84.0337 294.629 83.9395 294.643C83.8453 294.657 83.7491 294.653 83.6566 294.63C83.5641 294.607 83.477 294.566 83.4003 294.509C83.3236 294.453 83.2588 294.382 83.2095 294.3C83.1603 294.218 83.1276 294.128 83.1134 294.034C83.0992 293.939 83.1036 293.843 83.1265 293.751L83.7079 291.432C81.3001 290.633 79.2276 289.054 77.8187 286.945C77.714 286.823 77.6505 286.67 77.6373 286.51C77.6241 286.349 77.6619 286.189 77.7452 286.051C77.8285 285.913 77.9532 285.805 78.1014 285.742C78.2497 285.679 78.414 285.664 78.5711 285.7C78.7665 285.745 78.9361 285.866 79.043 286.035C80.2094 287.938 81.9902 289.386 84.091 290.139L86.184 281.808C82.0321 279.756 80.6162 277.704 81.3481 274.749C82.08 271.794 85.2264 270.173 88.8242 270.98L89.1047 269.865C89.1457 269.676 89.2602 269.511 89.423 269.405C89.5859 269.3 89.7838 269.264 89.9734 269.305ZM86.5534 280.249L88.5438 272.246C85.6915 271.596 83.3864 272.827 82.8666 274.934C82.3673 276.965 82.9966 278.429 86.5534 280.283V280.249ZM87.3947 282.355L85.3427 290.447C88.2907 291.131 90.6163 289.893 91.1704 287.663C91.7107 285.68 90.972 284.188 87.3947 282.39V282.355Z" fill="black"/>
</g>
<path d="M32.449 304.873L67.0867 304.708L101.724 304.647L171 304.531L240.276 304.647L274.913 304.708L309.551 304.873L274.913 305.044L240.276 305.105L171 305.215L101.724 305.105L67.0867 305.044L32.449 304.873Z" fill="#263238"/>
<path d="M238.148 33.9058H237.464V56.0058H238.148V33.9058Z" fill="#263238"/>
<path d="M237.806 34.2478C237.431 34.2492 237.064 34.1391 236.751 33.9314C236.438 33.7237 236.195 33.4279 236.05 33.0814C235.906 32.7349 235.868 32.3534 235.941 31.9852C236.014 31.6171 236.194 31.2788 236.46 31.0134C236.725 30.748 237.063 30.5675 237.431 30.4946C237.8 30.4217 238.181 30.4598 238.528 30.604C238.874 30.7483 239.17 30.9922 239.378 31.3048C239.585 31.6174 239.695 31.9847 239.694 32.36C239.692 32.8601 239.493 33.3393 239.139 33.6929C238.786 34.0466 238.306 34.246 237.806 34.2478ZM237.806 31.1493C237.567 31.148 237.332 31.2178 237.132 31.35C236.932 31.4822 236.776 31.6708 236.683 31.8919C236.59 32.113 236.565 32.3567 236.611 32.592C236.657 32.8273 236.772 33.0436 236.941 33.2136C237.11 33.3836 237.326 33.4996 237.561 33.5469C237.796 33.5942 238.04 33.5706 238.261 33.4792C238.483 33.3877 238.672 33.2326 238.806 33.0333C238.939 32.8341 239.01 32.5997 239.01 32.36C239.01 32.0401 238.884 31.7332 238.658 31.5063C238.432 31.2795 238.126 31.1511 237.806 31.1493Z" fill="#263238"/>
<path d="M259.667 30.8074H242.499V31.5803H259.667V30.8074Z" fill="#263238"/>
<path d="M252.218 32.3601H242.499V33.133H252.218V32.3601Z" fill="#263238"/>
<path d="M244.106 69.248H244.031H243.969L242.601 68.7761H242.526L241.76 68.5093H241.671L240.467 68.0921L240.364 68.051L239.653 67.7159H239.55L238.182 67.2371L238.066 67.1892L237.232 66.9019L237.102 66.854L236.062 66.4915L235.918 66.4436L235.009 66.129L234.858 66.0811L233.6 65.6365L233.47 65.5955L232.505 65.2603L232.382 65.2124L231.459 64.8978L231.349 64.8568L230.303 64.4874H230.193L229.284 64.1728L229.195 64.1386L227.881 63.6119H227.793L226.425 63.1399H226.349L225.316 62.7842H225.248L223.88 62.3123H223.825L222.697 61.9224H222.649L221.466 61.512L222.587 61.1495H222.635L223.935 60.7322H223.996L225.104 60.3766H225.173L226.589 59.9183H226.671L227.622 59.6173H227.71L229.762 58.9333H229.865L230.392 58.7692H230.501L232.553 58.0852L232.683 58.0441L233.128 57.9005L233.265 57.8594L235.358 57.1754L235.515 57.1276L235.987 56.9771L236.137 56.9292L238.34 56.2452L238.504 56.1905L238.757 56.1152L238.908 56.0605L241.452 54.973L241.589 54.9319L241.815 54.8635L241.944 54.8225L244.325 54.0359L244.386 54.2411C244.386 54.2958 244.386 54.3505 244.434 54.4052V54.4531C244.434 54.5215 244.475 54.5899 244.496 54.6583C244.977 56.373 245.275 58.1339 245.385 59.9114C245.385 59.9798 245.385 60.0482 245.385 60.1235C245.429 60.9346 245.429 61.7475 245.385 62.5585C245.385 62.7227 245.385 62.8732 245.385 63.0305C245.218 65.148 244.788 67.2365 244.106 69.248Z" fill="#C7C7C7"/>
<path d="M222.683 60.9991L222.745 61.8062H222.697L222.635 61.0333L222.683 60.9991ZM223.983 60.5819L223.873 62.1961H223.928L224.044 60.5408L223.983 60.5819ZM225.221 60.1852H225.152L225.269 62.6681H225.337L225.221 60.1852ZM226.637 59.7269L226.404 63.0648H226.479L226.753 59.6448L226.637 59.7269ZM227.772 59.3712H227.683L227.806 63.5368H227.895L227.772 59.3712ZM229.516 61.4232L229.14 64.0429L229.229 64.0771L229.571 61.4164L229.92 58.6804H229.817L229.516 61.4232ZM230.597 58.482H230.487L230.18 64.3781H230.289L230.597 58.482ZM231.336 64.8158L231.445 64.8569L232.765 57.7843L232.635 57.8254L231.336 64.8158ZM233.21 57.6338L232.368 65.1578L232.492 65.2057L233.347 57.5791L233.21 57.6338ZM235.44 56.9498L233.456 65.5819L233.586 65.623L235.604 56.8951L235.446 56.943L235.44 56.9498ZM236.076 56.7446L234.845 66.0676L234.995 66.1154L236.226 56.6968L236.076 56.7446ZM238.429 55.9854L235.905 66.4301L236.048 66.478L238.579 55.8828L238.429 55.9854ZM238.846 55.8555L237.074 66.7926L237.204 66.8405L238.983 55.7528L238.846 55.8555ZM241.452 54.9731L238.032 67.1278L238.148 67.1756L241.568 54.932L241.452 54.9731ZM241.815 54.8568L239.585 67.6545H239.687L241.944 54.7747L241.815 54.8568ZM244.468 54.4122C244.468 54.3575 244.434 54.3028 244.421 54.248L240.426 67.928L240.529 67.9691L244.468 54.3985V54.4122ZM244.468 54.4738L241.732 68.4068H241.821L244.557 54.6448C244.489 54.6106 244.475 54.5422 244.448 54.4738H244.468ZM245.433 60.151C245.433 60.0757 245.433 60.0073 245.433 59.9389L242.587 68.7078H242.663L245.412 60.192L245.433 60.151ZM245.433 62.5928L243.996 69.2003H244.058L245.426 63.0443C245.385 62.928 245.399 62.757 245.406 62.5928H245.433Z" fill="#DBDBDB"/>
<path d="M244.106 69.2414L242.191 69.0362L219.598 61.1702L221.513 61.3754L244.106 69.2414Z" fill="#A6A6A6"/>
<path d="M221.513 61.3753L219.598 61.1701L242.41 53.8308L244.325 54.036L221.513 61.3753Z" fill="#A6A6A6"/>
<path d="M208.88 36.7786L208.723 61.4026L231.821 53.947C228.579 43.5707 219.564 36.8538 208.88 36.7786Z" fill="#37474F"/>
<path d="M209.591 36.7922L208.873 38.0029V37.8593L209.509 36.7922H209.591ZM210.323 36.8264L208.859 40.0823V40.267L210.405 36.847L210.323 36.8264ZM212.984 37.1411L208.839 43.9811V44.1521L213.093 37.1958L212.984 37.1411ZM213.558 37.2505L208.812 47.3806V47.6268L213.661 37.271L213.558 37.2505ZM215.823 40.1438L217.108 38.2355L216.999 38.1944L215.727 40.0754L211.931 45.6842L208.791 50.3286V50.5338L212.033 45.7458L215.823 40.1438ZM217.279 38.297L208.777 53.174V53.4408L217.403 38.3381L217.279 38.297ZM220.173 39.6035L208.764 54.5694V54.7951L220.303 39.6719L220.173 39.6035ZM220.44 39.7471L208.743 57.6269V57.9142L220.569 39.8155L220.44 39.7471ZM222.929 41.334L208.743 58.3724V58.6255L223.073 41.4366L222.929 41.334ZM223.223 41.5529L209.988 60.9853L210.275 60.8896L223.381 41.6623L223.223 41.5529ZM225.399 43.4065L210.631 60.7733L210.959 60.6638L225.522 43.5638L225.399 43.4065ZM225.638 43.6391L214.01 59.672L214.263 59.5968L225.761 43.7759C225.72 43.728 225.679 43.6801 225.638 43.6391ZM227.546 45.78L215.234 59.2822L215.528 59.1864L227.635 45.8963L227.546 45.78ZM227.847 46.163L218.955 58.0783L219.174 58.0099L227.916 46.2793L227.847 46.163ZM229.366 48.4271L220.932 57.4559L221.178 57.3738L229.386 48.5434C229.384 48.5039 229.377 48.4649 229.366 48.4271ZM229.591 48.8101L223.504 56.6214L223.689 56.5598L229.653 48.9196L229.591 48.8101ZM230.871 51.3614L226.664 55.6022L226.869 55.5338L230.912 51.4298L230.871 51.3614ZM231.089 51.8881L228.572 54.9866L228.73 54.9319L231.124 51.9839C231.115 51.9509 231.104 51.9189 231.089 51.8881Z" fill="#263238"/>
<path d="M208.723 61.3889L185.624 68.8445C187.132 73.7677 190.167 78.0836 194.29 81.1686C198.413 84.2535 203.41 85.9476 208.558 86.0061C213.71 86.0231 218.733 84.3976 222.898 81.3656C227.062 78.3337 230.152 74.0531 231.719 69.1455L208.723 61.3889Z" fill="#0FB6AC"/>
<path d="M185.624 68.8445H183.695C185.204 73.7677 188.239 78.0836 192.361 81.1686C196.484 84.2535 201.481 85.9476 206.63 86.006H208.558C203.41 85.9476 198.413 84.2535 194.29 81.1686C190.167 78.0836 187.132 73.7677 185.624 68.8445Z" fill="#0FB6AC"/>
<g opacity="0.1">
<path d="M185.624 68.8445H183.695C185.204 73.7677 188.239 78.0836 192.361 81.1686C196.484 84.2535 201.481 85.9476 206.63 86.006H208.558C203.41 85.9476 198.413 84.2535 194.29 81.1686C190.167 78.0836 187.132 73.7677 185.624 68.8445Z" fill="black"/>
</g>
<path opacity="0.1" d="M186.677 68.5026L186.411 71.006L186.677 68.5368V68.5026ZM189.29 67.6613L187.354 73.0238L189.297 67.6339L189.29 67.6613ZM190.214 67.3671L189.037 75.7667L190.214 67.3193V67.3671ZM191.869 66.8268L189.42 76.2865L191.883 66.7789L191.869 66.8268ZM192.519 66.6216L191.226 78.4274C191.238 78.4428 191.252 78.4565 191.267 78.4685L192.56 66.6079L192.519 66.6216ZM194.468 65.9855L191.609 78.8241C191.621 78.8395 191.635 78.8533 191.65 78.8652L194.53 65.9718L194.468 65.9855ZM194.947 65.835L193.784 80.7735L193.846 80.8214L195.008 65.8145L194.947 65.835ZM194.133 81.0471L194.194 81.095L196.889 65.2057H196.814L194.133 81.0471ZM197.443 65.0279L197.231 83.0581L197.32 83.106L197.526 65.0005L197.443 65.0279ZM197.498 83.2017L197.587 83.2496L199.687 64.296H199.584L197.498 83.2017ZM200.145 64.1592H200.043L200.207 84.3987L200.316 84.4466L200.145 64.1592ZM200.419 84.515L200.528 84.5561L202.211 63.4889L202.088 63.5299L200.419 84.515ZM202.573 63.3726L202.45 63.4136L203.134 85.3358H203.271L202.573 63.3726ZM203.36 85.3974H203.497L205.05 62.5449L204.899 62.5928L203.36 85.3974ZM206.431 85.8557L205.398 62.4629L205.248 62.5107L206.274 85.883H206.431H206.589L207.402 61.7857L207.231 61.8404L206.431 85.8557ZM209.53 85.8557L207.779 61.7036L207.608 61.7583L209.379 86.0061C209.429 86.013 209.48 86.013 209.53 86.0061H209.694L210.262 61.9293L210.104 61.8815L209.53 85.8557ZM210.569 62.0251L210.412 61.9772L212.608 85.6983H212.745L210.569 62.0251ZM212.3 62.6133L212.745 85.671H212.888L212.437 62.6749L212.3 62.6133ZM212.724 62.7501L212.587 62.7091L216.007 84.8775H216.082H216.117L212.724 62.7501ZM215.898 80.5683L215.405 74.1045L214.578 63.3794H214.468L215.289 74.1456L215.781 80.6162L216.035 83.8447L216.144 84.816L216.26 84.7749L216.144 83.79L215.898 80.5683ZM214.961 63.5094L214.844 63.4683L219.564 83.448C219.595 83.4385 219.625 83.4247 219.653 83.4069L214.961 63.5094ZM217.512 64.3644L219.844 83.2701L219.933 83.2291L217.601 64.3917L217.512 64.3644ZM217.984 64.5217H217.895L222.3 81.8337L222.362 81.7859L217.984 64.5217ZM223.723 66.4574L225.31 79.4534C225.322 79.4362 225.339 79.4221 225.357 79.4124L223.771 66.4916L223.723 66.4574ZM224.277 66.6489H224.229L227.574 76.9637H227.608L224.277 66.6489ZM220.508 65.3699L222.717 81.5396L222.786 81.4986L220.569 65.3972L220.508 65.3699ZM222.669 71.3685L221.178 66.1154L221.014 65.5477H220.953L221.124 66.1565L222.615 71.4164L225.036 79.7202H225.077L222.669 71.3685ZM225.829 67.1688L227.861 76.608V76.5738L225.864 67.1688H225.829ZM226.315 67.3329H226.281L229.14 74.7407L226.315 67.3329ZM227.813 67.8323L229.414 74.2413L227.813 67.8665V67.8323ZM230.139 68.6189L231.007 71.006L230.139 68.6394V68.6189ZM231.507 69.0908C231.554 69.1472 231.597 69.2066 231.637 69.2687L231.507 69.0908Z" fill="black"/>
<path d="M208.88 36.7785C195.494 36.6965 184.571 47.6405 184.488 61.2315C184.447 63.8143 184.83 66.3863 185.624 68.8445L208.723 61.3889L208.88 36.7785Z" fill="#455A64"/>
<path d="M208.75 56.2794V56.4641L187.416 49.6583L187.498 49.5009L208.75 56.2794ZM187.279 49.9319L208.736 59.1317V58.9607L187.354 49.7745C187.325 49.8248 187.3 49.8774 187.279 49.9319ZM189.256 46.7376C189.222 46.7855 189.181 46.8333 189.153 46.8812L208.77 53.7623V53.5981L189.256 46.7376ZM188.962 47.148L208.757 55.869V55.6706L189.064 46.9975C189.03 47.0385 188.996 47.0933 188.962 47.1411V47.148ZM193.969 41.8743L193.866 41.9564L208.805 47.8046V47.6952L193.969 41.8743ZM193.442 42.2984L208.791 49.9319V49.7951L193.572 42.2027L193.442 42.2984ZM191.52 44.0905C191.479 44.1247 191.445 44.1657 191.411 44.1999L208.818 50.568V50.4243L191.52 44.0905ZM191.048 44.583L208.832 53.1535V52.9825L191.123 44.4599L191.048 44.583ZM201.308 37.9755H201.219L208.9 41.7717V41.7239L201.308 37.9755ZM200.227 38.3517L208.887 43.6596V43.5707L200.262 38.3039L200.227 38.3517ZM197.095 39.8223L196.992 39.8771L208.88 44.8087V44.7129L197.095 39.8223ZM196.329 40.2738L208.866 46.9907V46.8812L196.424 40.2122L196.329 40.2738ZM205.419 37.0111H205.344L208.921 38.9126V38.8716L205.419 37.0111ZM203.805 37.3052L208.907 40.8005V40.7321L203.873 37.3121C203.833 37.2999 203.791 37.2976 203.75 37.3052H203.805ZM207.792 36.8059H207.731L208.928 37.6883V37.6199L207.792 36.8059ZM184.577 63.6529L194.256 66.0674L194.372 66.0264L184.571 63.6119C184.572 63.6257 184.574 63.6394 184.577 63.6529ZM184.536 63.1399C184.536 63.1399 184.536 63.1878 184.536 63.2151L197.628 64.9799L197.813 64.9251L184.536 63.1399ZM185.07 66.813L188.832 67.8116H188.921L185.056 66.7925C185.056 66.7925 185.063 66.7925 185.07 66.813ZM185.008 66.5257C185.004 66.5437 185.004 66.5624 185.008 66.5804L190.754 67.1823L190.891 67.1413L185.008 66.5257ZM184.509 60.3355L199.605 64.3301L199.728 64.2959L184.482 60.2534L184.509 60.3355ZM184.509 59.9251C184.509 59.9251 184.509 59.9867 184.509 60.0277L203.928 62.9279L204.16 62.8526L184.509 59.9251ZM188.784 57.3533L185.556 56.341L185.008 56.17C185.004 56.2086 185.004 56.2476 185.008 56.2862L185.542 56.4504L188.784 57.4559L195.241 59.5079L205.029 62.5927L205.207 62.5311L195.275 59.3984L188.784 57.3533ZM185.043 55.9853C185.043 55.9853 185.043 56.0605 185.043 56.1015L208.237 61.5599L208.476 61.4778L185.043 55.9853ZM185.932 52.9141L208.47 61.4436L208.675 61.382L186.007 52.791C185.988 52.8355 185.972 52.8812 185.959 52.9278L185.932 52.9141ZM186.062 52.5721C186.039 52.616 186.021 52.6617 186.007 52.7089L208.729 59.5079V59.3437L186.062 52.5721Z" fill="#37474F"/>
<path d="M208.88 36.7787H206.951C193.572 36.6829 182.628 47.6269 182.56 61.218C182.517 63.8008 182.901 66.3729 183.695 68.8309H185.624C184.83 66.3728 184.447 63.8008 184.488 61.218C184.571 47.6406 195.494 36.6966 208.88 36.7787Z" fill="#37474F"/>
<path d="M271.472 110.55L276.636 105.9L258.342 85.5825L253.178 90.2325L271.472 110.55Z" fill="#C7C7C7"/>
<path d="M285.775 129.085L293.586 122.053L274.633 101.006L266.828 108.038L285.775 129.085Z" fill="#263238"/>
<path d="M258.408 50.753C261.913 55.9634 263.502 62.228 262.904 68.4788C262.307 74.7297 259.56 80.5798 255.132 85.0319C250.703 89.484 244.868 92.2625 238.621 92.8936C232.373 93.5248 226.1 91.9696 220.871 88.4931C215.642 85.0167 211.78 79.8342 209.944 73.8291C208.109 67.8241 208.412 61.3683 210.804 55.5622C213.196 49.7561 217.527 44.9592 223.06 41.9893C228.592 39.0194 234.984 38.0603 241.144 39.2754C248.192 40.6647 254.4 44.7923 258.408 50.753Z" fill="white"/>
<path d="M229.776 96.9092C223.631 95.6975 217.982 92.6906 213.546 88.2687C209.109 83.8468 206.084 78.2086 204.852 72.0671C203.62 65.9257 204.237 59.5567 206.624 53.7659C209.012 47.975 213.063 43.0222 218.266 39.534C223.469 36.0458 229.589 34.1787 235.853 34.169C242.117 34.1592 248.243 36.0072 253.456 39.4793C258.67 42.9513 262.737 47.8914 265.142 53.6749C267.548 59.4583 268.185 65.8252 266.972 71.9705C265.337 80.2052 260.504 87.4553 253.53 92.1305C246.557 96.8058 238.015 98.5243 229.776 96.9092ZM230.46 93.3524C235.902 94.4275 241.541 93.8645 246.663 91.7348C251.785 89.605 256.16 86.0041 259.235 81.3874C262.31 76.7708 263.948 71.3458 263.939 65.7987C263.931 60.2515 262.278 54.8314 259.189 50.2239C256.1 45.6163 251.714 42.0284 246.586 39.9138C241.458 37.7991 235.818 37.2529 230.379 38.3441C224.94 39.4353 219.947 42.1149 216.031 46.044C212.116 49.9732 209.453 54.9753 208.381 60.4178C207.669 64.0333 207.678 67.7536 208.405 71.366C209.132 74.9784 210.564 78.412 212.619 81.4706C214.674 84.5293 217.312 87.153 220.381 89.1917C223.451 91.2304 226.892 92.6443 230.508 93.3524H230.46Z" fill="#37474F"/>
<path d="M264.024 58.9267C262.914 54.4005 260.728 50.2091 257.651 46.7085C254.575 43.2078 250.699 40.5013 246.353 38.8187C242.007 37.1362 237.319 36.5273 232.687 37.0438C228.056 37.5604 223.617 39.187 219.749 41.7856C216.586 43.9017 213.872 46.6207 211.762 49.7868C209.651 52.9531 208.186 56.5044 207.45 60.2375C206.713 63.9707 206.72 67.8124 207.471 71.5428C208.221 75.2732 209.699 78.8191 211.821 81.9775C215.614 87.6345 221.278 91.7747 227.819 93.6712C234.36 95.5677 241.361 95.0993 247.591 92.3482C253.821 89.5971 258.883 84.7392 261.889 78.6274C264.894 72.5156 265.65 65.5405 264.024 58.9267ZM262.458 71.0882C261.253 77.245 257.951 82.7935 253.113 86.7882C248.276 90.7829 242.203 92.9765 235.93 92.9953C229.656 93.0141 223.57 90.8568 218.709 86.8911C213.848 82.9254 210.512 77.3967 209.271 71.2473C208.029 65.0978 208.959 58.7081 211.901 53.1671C214.843 47.6261 219.615 43.2767 225.404 40.8602C231.194 38.4436 237.642 38.1094 243.65 39.9146C249.658 41.7197 254.855 45.5525 258.354 50.7597C262.37 56.721 263.855 64.0323 262.485 71.0882H262.458ZM264.024 58.9267C262.914 54.4005 260.728 50.2091 257.651 46.7085C254.575 43.2078 250.699 40.5013 246.353 38.8187C242.007 37.1362 237.319 36.5273 232.687 37.0438C228.056 37.5604 223.617 39.187 219.749 41.7856C216.586 43.9017 213.872 46.6207 211.762 49.7868C209.651 52.9531 208.186 56.5044 207.45 60.2375C206.713 63.9707 206.72 67.8124 207.471 71.5428C208.221 75.2732 209.699 78.8191 211.821 81.9775C215.614 87.6345 221.278 91.7747 227.819 93.6712C234.36 95.5677 241.361 95.0993 247.591 92.3482C253.821 89.5971 258.883 84.7392 261.889 78.6274C264.894 72.5156 265.65 65.5405 264.024 58.9267ZM262.458 71.0882C261.253 77.245 257.951 82.7935 253.113 86.7882C248.276 90.7829 242.203 92.9765 235.93 92.9953C229.656 93.0141 223.57 90.8568 218.709 86.8911C213.848 82.9254 210.512 77.3967 209.271 71.2473C208.029 65.0978 208.959 58.7081 211.901 53.1671C214.843 47.6261 219.615 43.2767 225.404 40.8602C231.194 38.4436 237.642 38.1094 243.65 39.9146C249.658 41.7197 254.855 45.5525 258.354 50.7597C262.37 56.721 263.855 64.0323 262.485 71.0882H262.458ZM267.553 58.058C265.642 50.249 260.915 43.4206 254.279 38.8826C247.643 34.3445 239.565 32.4163 231.594 33.4679C223.624 34.5195 216.322 38.4767 211.09 44.5807C205.858 50.6846 203.064 58.5053 203.243 66.5428C203.423 74.5802 206.563 82.2684 212.063 88.1327C217.562 93.997 225.033 97.6244 233.043 98.3191C241.052 99.0139 249.036 96.727 255.463 91.8973C261.89 87.0675 266.307 80.0349 267.868 72.1484C268.8 67.4868 268.702 62.6778 267.581 58.058H267.553ZM266.076 71.8201C264.613 79.25 260.457 85.8781 254.408 90.4328C248.358 94.9876 240.839 97.1484 233.294 96.5006C225.75 95.8529 218.709 92.4423 213.524 86.923C208.34 81.4037 205.375 74.1645 205.199 66.5938C205.024 59.0231 207.649 51.6542 212.573 45.9004C217.496 40.1467 224.371 36.4133 231.878 35.4165C239.384 34.4196 246.995 36.2294 253.249 40.4988C259.504 44.7681 263.962 51.1964 265.768 58.5505C266.843 62.8976 266.948 67.4278 266.076 71.8201ZM259.995 49.7474C257.877 46.5878 255.157 43.8765 251.99 41.7681C248.824 39.6598 245.273 38.1958 241.541 37.4596C237.809 36.7235 233.968 36.7296 230.239 37.4778C226.509 38.2259 222.963 39.7013 219.803 41.8198C216.644 43.9383 213.932 46.6584 211.824 49.8248C209.716 52.9911 208.252 56.5417 207.516 60.2739C206.779 64.0061 206.786 67.8467 207.534 71.5764C208.282 75.3062 209.757 78.8521 211.876 82.0117C213.994 85.1712 216.714 87.8826 219.881 89.9909C223.047 92.0993 226.598 93.5633 230.33 94.2995C234.062 95.0356 237.903 95.0294 241.632 94.2813C245.362 93.5332 248.908 92.0577 252.068 89.9392C255.227 87.8207 257.939 85.1007 260.047 81.9343C262.155 78.7679 263.619 75.2173 264.355 71.4852C265.092 67.753 265.085 63.9124 264.337 60.1826C263.589 56.4529 262.114 52.907 259.995 49.7474ZM262.512 71.1224C261.308 77.2792 258.005 82.8277 253.168 86.8224C248.331 90.8171 242.258 93.0107 235.984 93.0295C229.711 93.0483 223.625 90.891 218.764 86.9253C213.903 82.9596 210.567 77.4309 209.326 71.2815C208.084 65.132 209.014 58.7423 211.955 53.2013C214.897 47.6603 219.67 43.3109 225.459 40.8944C231.248 38.4778 237.697 38.1436 243.705 39.9488C249.713 41.7539 254.909 45.5867 258.408 50.7939C262.396 56.7539 263.862 64.0505 262.485 71.0882L262.512 71.1224Z" fill="#37474F"/>
<path d="M246.158 40.7733V56.1976H245.474V40.5134C245.727 40.5955 245.939 40.6844 246.158 40.7733Z" fill="#263238"/>
<g opacity="0.3">
<path d="M230.658 92.4222C224.502 91.2175 218.953 87.9151 214.958 83.0778C210.964 78.2405 208.77 72.1676 208.751 65.8941C208.733 59.6206 210.89 53.5347 214.856 48.6736C218.821 43.8125 224.35 40.4769 230.499 39.2355C236.649 37.994 243.039 38.9234 248.58 41.8652C254.121 44.8071 258.47 49.5794 260.887 55.3688C263.303 61.1583 263.637 67.6065 261.832 73.6148C260.027 79.623 256.194 84.8193 250.987 88.3182C245.022 92.3246 237.711 93.8006 230.658 92.4222Z" fill="white"/>
</g>
<path d="M216.664 77.2921C215.126 74.8304 214.119 72.0742 213.709 69.2004C213.488 67.7409 213.41 66.2633 213.476 64.7886C213.561 63.2949 213.79 61.8128 214.16 60.3631C214.927 57.4506 216.292 54.7297 218.169 52.374C220.018 50.0595 222.279 48.1069 224.838 46.6147C222.8 48.6241 220.967 50.8306 219.366 53.2017C218.601 54.3731 217.931 55.6036 217.362 56.8816C216.781 58.1365 216.323 59.4445 215.994 60.7872C215.309 63.4662 215.044 66.235 215.207 68.9952C215.358 71.8093 215.847 74.5949 216.664 77.2921Z" fill="white"/>
<path d="M252.765 70.7599H252.683H252.615L251.144 70.2469H251.055L250.221 69.9528L250.118 69.9186L248.791 69.4535L248.682 69.4125L247.868 69.132L247.752 69.091L246.219 68.5575L246.09 68.5096L245.173 68.1949L245.029 68.1471L243.887 67.7435L243.73 67.6956L242.724 67.3399L242.56 67.2852L241.192 66.8064L241.048 66.7517L239.988 66.3823L239.851 66.3345L238.839 65.9856L238.716 65.9446L237.56 65.541L237.444 65.5L236.445 65.1511H236.343L234.933 64.6587H234.831L233.347 64.1388H233.265L232.129 63.7421H232.054L230.583 63.2291H230.522L229.277 62.7982H229.222L227.922 62.3467L229.161 61.95H229.215L230.645 61.4917H230.706L231.931 61.095H231.999L233.565 60.5957H233.648L234.694 60.2605H234.79L237.095 59.5218L237.204 59.4808L237.779 59.2961L237.902 59.2619L240.132 58.1401L240.269 58.0991L240.768 57.9418L240.912 57.8939L243.224 57.1552L243.395 57.1073L243.914 56.9363L244.085 56.8816L246.507 56.0881L246.685 56.0334L246.965 55.9445L247.136 55.8898L249.804 55.0279L249.961 54.9801L250.207 54.9048L250.351 54.8638L253.005 54.0361C253.005 54.1114 253.053 54.1866 253.073 54.2619C253.095 54.3224 253.113 54.3841 253.128 54.4465V54.5013L253.189 54.7201C253.72 56.6088 254.048 58.5486 254.168 60.5068C254.168 60.582 254.168 60.6573 254.168 60.7393C254.219 61.6346 254.219 62.5322 254.168 63.4275C254.168 63.5985 254.168 63.7695 254.133 63.9473C253.957 66.2654 253.497 68.5533 252.765 70.7599Z" fill="#C7C7C7"/>
<path d="M252.615 70.7051H252.69L254.161 63.9403C254.161 63.7625 254.161 63.5983 254.195 63.4205L252.615 70.7051ZM254.188 60.5203L251.028 70.1579L251.117 70.1921L254.174 60.7529C254.195 60.6708 254.195 60.5956 254.188 60.5203ZM253.148 54.5011L250.118 69.8364L250.221 69.8706L253.217 54.72C253.196 54.6516 253.169 54.5832 253.148 54.5011ZM253.073 54.2549L248.689 69.3029H248.743H248.791L253.128 54.3712C253.113 54.3318 253.098 54.293 253.08 54.2549H253.073ZM250.207 54.9389L247.752 69.0224H247.793H247.854L250.344 54.8773L250.207 54.9389ZM249.804 55.0688L246.09 68.4L246.219 68.4479L249.961 54.9799L249.804 55.0688ZM247.068 55.9444L246.945 55.9854L245.029 68.058L245.173 68.1127L247.136 55.9102L247.068 55.9444ZM246.486 56.129L243.709 67.6271L243.867 67.6818L246.664 56.0538L246.486 56.129ZM243.894 56.9635L242.526 67.2235L242.683 67.2782L244.051 56.9225L243.894 56.9635ZM243.292 57.155H243.21L241.021 66.649L241.165 66.7037L243.381 57.1277L243.292 57.155ZM240.768 57.9622L239.838 66.2522L239.988 66.2933L240.918 57.9143L240.768 57.9622ZM240.139 58.1674L238.716 65.8555L238.832 65.8966L240.269 58.14L240.139 58.1674ZM237.861 58.8992H237.772L237.437 65.3904H237.56L237.895 58.8308L237.861 58.8992ZM237.081 59.1523L236.712 62.1209L236.343 65.0347H236.438L236.814 62.1072L237.198 59.0839L237.081 59.1523ZM234.79 59.891H234.687L234.824 64.4807H234.927L234.79 59.891ZM233.627 60.2604H233.559L233.244 63.9608H233.326L233.627 60.2262V60.2604ZM231.999 60.7871H231.924L232.047 63.5231H232.122L231.999 60.7871ZM230.631 61.2248L230.515 63.0032H230.576L230.7 61.1838L230.631 61.2248ZM229.208 61.6831H229.154L229.222 62.5313H229.27L229.208 61.6831Z" fill="#DBDBDB"/>
<path d="M252.765 70.7531L250.659 70.5274L225.802 61.8748L227.909 62.1005L252.765 70.7531Z" fill="#A6A6A6"/>
<path d="M227.909 62.1004L225.802 61.8747L250.898 53.7966L253.005 54.0224L227.909 62.1004Z" fill="#A6A6A6"/>
<path d="M239.25 53.913L235.83 55.0074L235.665 55.0621L233.791 55.6709L233.565 55.7393L230.31 56.7721L230.111 56.8337L227.58 57.6476L227.321 57.7297L225.371 58.3522L225.125 58.4274L221.356 59.6449L221.035 59.7544L219.974 60.0964L219.687 60.1784L216.322 61.266L215.973 61.3823L215.569 61.5191L215.255 61.6148L213.887 62.0663V60.0143V59.4192V56.6832V55.8214V53.7146V52.8665V50.2057V50.0074C214.201 49.5628 214.537 49.125 214.885 48.7009C215.961 47.4074 217.154 46.2167 218.449 45.1441C218.545 45.0567 218.645 44.9745 218.75 44.8979C220.305 43.6244 221.998 42.53 223.798 41.6352L224.126 41.4642C224.386 41.3342 224.66 41.2111 224.92 41.1017L225.2 40.9717C226.404 40.4461 227.645 40.0117 228.914 39.6721L229.468 40.062C229.523 40.0952 229.573 40.1342 229.619 40.1783L229.79 40.3014L229.947 40.4245C230.73 41.0184 231.477 41.6579 232.184 42.3397L232.245 42.4081C232.272 42.4298 232.295 42.4551 232.314 42.4834C232.362 42.5214 232.406 42.565 232.444 42.6133H232.478H232.512L232.574 42.6886C233.275 43.3842 233.933 44.122 234.544 44.8979C234.584 44.9371 234.616 44.9835 234.639 45.0347C234.722 45.126 234.8 45.2219 234.872 45.322C234.906 45.3636 234.938 45.407 234.968 45.4519C235.542 46.2294 236.069 47.0402 236.548 47.8801C236.574 47.9165 236.597 47.9555 236.616 47.9964C236.685 48.099 236.739 48.2084 236.794 48.311L236.835 48.3658V48.4205C237.331 49.2923 237.777 50.1921 238.169 51.1154C238.189 51.1475 238.205 51.182 238.217 51.218C238.285 51.3754 238.353 51.5395 238.415 51.6968L238.456 51.7926C238.771 52.4629 239.017 53.1811 239.25 53.913Z" fill="#37474F"/>
<path d="M238.442 51.6627L235.706 55.0827L235.871 55.0279L238.511 51.7858L238.442 51.6627ZM238.203 51.0813L233.586 55.7325L233.812 55.6641L238.251 51.1839L238.203 51.0813ZM236.835 48.3453L236.801 48.2837L230.111 56.8611L230.316 56.7927L236.869 48.3931L236.835 48.3453ZM236.548 47.8596L227.307 57.7639L227.567 57.675L236.616 47.9622C236.595 47.9331 236.573 47.9057 236.548 47.8801V47.8596ZM234.872 45.3699L225.111 58.4685L225.357 58.3932L234.933 45.493C234.915 45.4487 234.894 45.4054 234.872 45.363V45.3699ZM234.544 44.9458L221.021 59.7954L221.342 59.686L234.612 45.0757C234.593 45.0284 234.57 44.9826 234.544 44.9389V44.9458ZM232.492 42.6612H232.457L219.673 60.1921L219.961 60.1032L232.56 42.7296L232.492 42.6612ZM232.225 42.4013L232.163 42.3329L215.932 61.4302L216.274 61.3207L232.28 42.4765L232.225 42.4013ZM229.824 40.2877L215.214 61.6627L215.528 61.567L229.947 40.4109L229.824 40.2877ZM229.503 40.0483L213.859 58.8241V59.1046L229.591 40.192C229.556 40.1398 229.514 40.0916 229.468 40.0483H229.503ZM224.954 41.0743L213.866 57.976V58.2975L225.2 40.9444L224.954 41.0743ZM223.832 41.6079L213.921 54.6039V54.8501L224.181 41.43L223.832 41.6079ZM218.449 45.1441L213.9 53.0785V53.3521L218.757 44.85C218.649 44.9419 218.546 45.0401 218.449 45.1441ZM213.921 50.0279V50.1989L214.92 48.7215C214.571 49.1182 214.236 49.5559 213.921 50.0005V50.0279Z" fill="#263238"/>
<path d="M239.14 70.6436C239.133 70.6909 239.119 70.7369 239.099 70.7804C238.894 71.4644 238.654 72.0527 238.415 72.6751C238.292 72.9692 238.169 73.2634 238.039 73.5506C237.632 74.4533 237.176 75.3325 236.671 76.184C236.568 76.3619 236.466 76.5397 236.356 76.7107C235.925 77.3947 235.467 78.0787 234.988 78.7627C234.906 78.879 234.824 78.9884 234.735 79.091V79.1321C233.985 80.084 233.169 80.9822 232.293 81.8202L232.239 81.8612L231.944 82.1348C231.944 82.1348 231.91 82.169 231.89 82.1759C231.124 82.8779 230.312 83.5291 229.461 84.1253H229.42C229.42 84.1253 229.42 84.1253 229.386 84.1253C229.263 84.221 229.133 84.31 229.003 84.3989L228.928 84.4468C228.093 85.013 227.223 85.5248 226.322 85.9789C226.292 85.9989 226.26 86.015 226.226 86.0268C226.157 86.07 226.084 86.1067 226.007 86.1362H225.959C224.766 86.725 223.531 87.2279 222.266 87.641L222.136 87.6821H222.095H222.013C221.637 87.7984 221.253 87.9146 220.884 88.0104C220.074 87.4695 219.297 86.8802 218.559 86.2457L218.408 86.1157C218.341 86.0647 218.277 86.0099 218.217 85.9516L218.046 85.8011C217.035 84.901 216.095 83.9245 215.234 82.8804L215.056 82.6615L214.413 81.8407C214.345 81.7381 214.277 81.6492 214.208 81.5534C213.996 81.2662 213.784 80.972 213.593 80.6711C213.028 79.8313 212.51 78.9613 212.04 78.065C211.985 77.9556 211.924 77.8461 211.869 77.723C211.515 77.0389 211.2 76.3356 210.925 75.6163C210.85 75.4522 210.788 75.288 210.727 75.117C210.178 73.67 209.757 72.1778 209.468 70.6573C209.427 70.4384 209.393 70.2264 209.359 70.0144C208.999 67.8449 208.91 65.6394 209.092 63.448L209.913 63.1812H209.974L210.145 63.1265H210.2L210.364 63.0786L212.375 62.3946L212.574 62.333L212.799 62.2578L212.984 62.2031L213.49 62.0389L213.757 61.95L213.983 61.8816L215.679 62.4493L215.85 62.5109L216.021 62.5724L217.922 63.2154L218.073 63.2633L218.244 63.3111L218.394 63.3659L220.316 64.0499L220.433 64.0909L220.727 64.1867L220.857 64.2277L223.689 65.1921L223.791 65.2264L224.113 65.329H224.208L226.985 66.2592H227.054L227.471 66.4028H227.539L230.371 67.7161H230.426L230.932 67.8871H230.98L232.717 68.4754L233.176 68.6327H233.217L234.858 69.1867L235.72 69.474L237.362 70.028L238.887 70.541L239.14 70.6436Z" fill="#0FB6AC"/>
<path opacity="0.1" d="M238.962 70.5888C239.015 70.6498 239.061 70.7163 239.099 70.7872C239.057 70.7187 239.011 70.6525 238.962 70.5888ZM233.223 68.6531H233.182L236.301 76.8132L233.223 68.6531ZM232.724 68.4821H232.69L234.892 78.8652L232.724 68.4821ZM229.215 73.0922L227.574 67.3124L227.396 66.6832H227.327L227.512 67.3672L229.161 73.147L231.773 82.3194C231.773 82.3194 231.808 82.3194 231.828 82.2784L229.215 73.0922ZM226.903 66.519H226.835L229.263 84.303C229.263 84.303 229.263 84.303 229.297 84.303H229.338L226.903 66.519ZM231.007 67.887H230.959L234.639 79.2414V79.2004L231.007 67.887ZM230.453 67.6955H230.399L232.143 81.9706L232.197 81.9295L230.453 67.6955ZM224.085 65.5546H223.989L228.832 84.6313L228.907 84.5834L224.085 65.5546ZM223.668 65.4178L223.565 65.3836L226.13 86.1772C226.164 86.1654 226.196 86.1493 226.226 86.1293L223.668 65.4178ZM220.734 64.4191L220.604 64.3781L225.816 86.3345H225.864L220.734 64.4191ZM222.102 87.8461L222.013 86.7586L221.739 83.1949L221.192 76.0813L220.282 64.296L220.166 64.255L221.062 76.1018L221.602 83.2154L221.883 86.7791L221.965 87.9008L222.102 87.8461ZM218.244 63.612L218.093 63.5573L221.828 87.9556H221.91H221.951L218.244 63.612ZM217.922 63.5094L217.772 63.4615L218.223 86.3892L218.374 86.5192L217.922 63.5094ZM215.87 62.8254L215.699 62.7638L217.861 86.0814L218.032 86.2319L215.87 62.8254ZM212.799 62.4697L212.615 62.5244L214.024 81.8338C214.092 81.9295 214.16 82.0184 214.229 82.121L212.799 62.4697ZM215.357 62.6544L214.872 82.9418L215.05 83.1607L215.528 62.7023L215.357 62.6544ZM209.776 63.441H209.728L209.632 63.482L209.174 70.2742C209.208 70.4862 209.242 70.6982 209.283 70.9171L209.79 63.3931L209.776 63.441ZM210.18 63.3179L210.015 63.3658L210.542 75.3905C210.604 75.5615 210.665 75.7256 210.74 75.8898L210.18 63.3179ZM212.19 62.6339L211.684 77.976C211.739 78.0991 211.801 78.2086 211.855 78.318L212.389 62.586L212.19 62.6339ZM209.776 63.4136H209.728L209.632 63.4547L209.174 70.2468C209.208 70.4588 209.242 70.6709 209.283 70.8898L209.79 63.3658L209.776 63.4136ZM209.776 63.4136H209.728L209.632 63.4547L209.174 70.2468C209.208 70.4588 209.242 70.6709 209.283 70.8898L209.79 63.3658L209.776 63.4136Z" fill="black"/>
<path d="M213.887 50.0484V50.0073V50.2057V52.8664V53.7146V55.8213V56.6968V59.4328V60.0279V62.0799L213.661 62.1483L213.394 62.2372L212.888 62.4014L212.703 62.4561L212.478 62.5314L212.279 62.5929L210.05 63.2769L209.879 63.3316H209.817L208.996 63.5984C208.996 63.4206 208.996 63.2427 209.044 63.0649C209.041 63.0262 209.041 62.9873 209.044 62.9486C209.099 62.3672 209.174 61.7995 209.277 61.2181V61.0813C209.311 60.8829 209.345 60.6914 209.386 60.493C209.386 60.4452 209.386 60.3973 209.42 60.3426C209.53 59.7954 209.653 59.255 209.803 58.7215C209.811 58.6631 209.824 58.6058 209.844 58.5505C209.906 58.3248 209.974 58.099 210.043 57.8665C210.043 57.8186 210.043 57.7639 210.091 57.7023C210.309 57.0183 210.556 56.2933 210.836 55.6093C210.836 55.5546 210.877 55.493 210.898 55.4314C211 55.1989 211.096 54.9663 211.199 54.7474C211.22 54.6835 211.248 54.6216 211.281 54.5628C211.527 54.0224 211.78 53.4889 212.067 52.969C212.088 52.9133 212.115 52.8604 212.149 52.8117C212.245 52.6202 212.355 52.4287 212.457 52.244C212.483 52.1959 212.513 52.1501 212.546 52.1072C212.943 51.4232 213.381 50.7392 213.846 50.0552C213.859 50.0525 213.873 50.0502 213.887 50.0484Z" fill="#455A64"/>
<path d="M209.796 58.6394C209.776 58.6947 209.763 58.752 209.755 58.8104L213.859 60.0279V59.8432L209.796 58.6394ZM209.372 60.4315C209.372 60.4862 209.372 60.5341 209.338 60.5819L213.586 62.1893L213.812 62.1209L209.372 60.4315ZM209.229 61.1839V61.3207L213.333 62.2851L213.6 62.1962L209.229 61.1839ZM208.976 63.0512C208.973 63.0899 208.973 63.1287 208.976 63.1675L209.776 63.4274L209.947 63.3658L208.976 63.0512ZM212.498 52.1961C212.465 52.239 212.435 52.2848 212.409 52.3329L213.894 53.0169V52.8322L212.498 52.1961ZM213.866 50.0483C213.833 50.0838 213.803 50.1228 213.777 50.1646L213.894 50.2057V50.0552L213.866 50.0483ZM211.212 54.6517C211.179 54.7105 211.152 54.7724 211.13 54.8363L213.866 56.0402V55.8213L211.212 54.6517ZM212.081 52.9006C212.047 52.9493 212.019 53.0022 211.999 53.0579L213.866 53.7419V53.5573L212.081 52.9006ZM210.029 57.7981C210.029 57.8596 209.995 57.9143 209.981 57.9622L213.832 59.6243V59.4328L210.029 57.7981ZM210.836 55.5272C210.836 55.5887 210.788 55.6503 210.775 55.705L213.853 56.6968V56.4916L210.836 55.5272Z" fill="#37474F"/>
</svg>
