<svg width="448" height="299" viewBox="0 0 448 299" fill="none" xmlns="http://www.w3.org/2000/svg">
<path d="M380.645 53.2579C381.663 52.6443 382.758 52.1678 383.9 51.8406L384.569 48.6174L390.011 48.5217L390.793 51.721C391.947 52.0042 393.058 52.4407 394.097 53.0187L396.844 51.2247L400.757 55.016L399.055 57.8326C399.67 58.8509 400.146 59.947 400.47 61.0917L403.69 61.7614L403.785 67.2092L400.59 67.9926C400.303 69.1447 399.867 70.2544 399.293 71.2936L401.085 74.0504L397.31 77.9673L394.497 76.2629C393.479 76.8758 392.384 77.3503 391.241 77.6742L390.572 80.8974L385.131 80.9931L384.348 77.7938C383.196 77.5116 382.087 77.0751 381.051 76.4962L378.297 78.2902L374.385 74.5048L376.087 71.6882C375.473 70.6725 374.998 69.5782 374.677 68.4351L371.458 67.7654L371.362 62.3176L374.552 61.5342C374.837 60.3787 375.275 59.2666 375.854 58.2273L374.062 55.4765L377.843 51.5596L380.651 53.2639L380.645 53.2579ZM383.548 60.5116C382.746 61.3429 382.209 62.3935 382.004 63.5304C381.799 64.6674 381.935 65.8397 382.395 66.8991C382.856 67.9586 383.619 68.8577 384.59 69.4827C385.56 70.1077 386.694 70.4306 387.848 70.4105C389.002 70.3904 390.124 70.0283 391.073 69.37C392.021 68.7116 392.753 67.7865 393.176 66.7117C393.599 65.6369 393.695 64.4605 393.45 63.3314C393.206 62.2023 392.633 61.1711 391.803 60.3681C390.689 59.2921 389.193 58.7029 387.646 58.7298C386.098 58.7567 384.624 59.3976 383.548 60.5116Z" fill="#EBEBEB"/>
<path d="M202.705 66.2105C203.524 65.7146 204.406 65.3305 205.327 65.0683L205.865 62.473L210.255 62.3953L210.883 64.9726C211.813 65.2015 212.709 65.5534 213.547 66.0191L215.763 64.566L218.917 67.6158L217.543 69.8882C218.041 70.7072 218.425 71.5904 218.684 72.5134L221.282 73.0516L221.36 77.4469L218.785 78.0748C218.555 79.0066 218.201 79.9035 217.734 80.7419L219.191 82.9605L216.139 86.1119L213.875 84.7365C213.056 85.2328 212.174 85.617 211.253 85.8787L210.709 88.48L206.325 88.5578L205.692 85.9804C204.762 85.7467 203.868 85.3886 203.034 84.9159L200.811 86.3751L197.658 83.3193L199.031 81.0529C198.538 80.2315 198.155 79.3489 197.891 78.4276L195.298 77.8835L195.22 73.4941L197.795 72.8603C198.023 71.9303 198.374 71.0352 198.84 70.1992L197.389 67.9746L200.435 64.8172L202.705 66.1926V66.2105ZM205.041 72.0589C204.393 72.729 203.959 73.5762 203.793 74.4933C203.627 75.4104 203.736 76.3563 204.107 77.2112C204.478 78.0662 205.094 78.7919 205.876 79.2964C206.659 79.801 207.574 80.0619 208.505 80.046C209.436 80.0301 210.341 79.7382 211.106 79.2071C211.871 78.6761 212.462 77.9299 212.803 77.0627C213.145 76.1956 213.222 75.2466 213.025 74.3357C212.827 73.4248 212.365 72.5929 211.695 71.9453C210.797 71.0787 209.592 70.604 208.344 70.6253C207.097 70.6466 205.909 71.1622 205.041 72.0589Z" fill="#F5F5F5"/>
<path d="M205.041 72.0588C205.288 71.756 205.585 71.4972 205.919 71.2934C206.827 70.7019 207.912 70.4441 208.989 70.5638C209.79 70.6508 210.557 70.9393 211.217 71.4025C211.877 71.8657 212.409 72.4885 212.764 73.2129C212.972 73.6292 213.115 74.0749 213.188 74.5345C213.279 75.0118 213.289 75.501 213.218 75.9817C213.095 77.0109 212.64 77.9721 211.924 78.7205C211.208 79.469 210.268 79.9643 209.246 80.1318C208.765 80.2123 208.275 80.2123 207.794 80.1318C207.333 80.0766 206.884 79.9494 206.462 79.7551C205.674 79.3976 204.996 78.8361 204.497 78.1285C204.071 77.5134 203.794 76.8068 203.691 76.0654C203.524 74.9947 203.735 73.8993 204.288 72.9678C204.481 72.6262 204.729 72.3191 205.023 72.0588C205.023 72.0588 204.742 72.3698 204.378 73.0156C203.874 73.9366 203.692 74.999 203.858 76.0355C203.978 76.7955 204.288 77.5131 204.757 78.1223C205.227 78.7315 205.842 79.2127 206.546 79.5218C207.373 79.887 208.289 79.9993 209.18 79.8448C210.14 79.6811 211.022 79.2144 211.698 78.513C212.374 77.8115 212.808 76.9119 212.937 75.9458C213.009 75.4922 213.009 75.03 212.937 74.5764C212.87 74.1394 212.735 73.7157 212.537 73.3206C212.202 72.6266 211.699 72.0279 211.072 71.5796C210.446 71.1314 209.717 70.8479 208.953 70.7552C207.916 70.6261 206.865 70.8471 205.966 71.3831C205.339 71.7598 205.064 72.0887 205.041 72.0588Z" fill="#F5F5F5"/>
<path d="M202.705 66.2105C202.653 66.1899 202.603 66.1638 202.556 66.1327L202.12 65.8816L200.411 64.871H200.465L197.437 68.0463V67.9626L198.894 70.1752L198.924 70.2171V70.2589C198.465 71.0931 198.118 71.9837 197.891 72.9081V72.9559H197.843L195.268 73.5958L195.34 73.5001C195.364 74.8795 195.392 76.3426 195.424 77.8894L195.34 77.7878L197.938 78.32H198.004V78.3858C198.269 79.2962 198.65 80.1686 199.139 80.9811L199.175 81.0409L199.139 81.1007L197.765 83.3731V83.2236C198.757 84.1804 199.826 85.2149 200.925 86.2674H200.77L202.986 84.8083L203.051 84.7664L203.117 84.8023C203.943 85.2633 204.827 85.6112 205.745 85.8368H205.823V85.9146C206.026 86.7219 206.241 87.6069 206.456 88.492L206.331 88.3963L210.715 88.3126L210.584 88.4202C210.757 87.6009 210.942 86.7159 211.127 85.8249V85.7412H211.211C212.119 85.4798 212.989 85.0998 213.798 84.6109L213.869 84.5691L213.941 84.6109L216.205 85.9863H216.038L219.084 82.8289V82.9904L217.632 80.7718L217.585 80.706L217.626 80.6342C218.088 79.8077 218.435 78.9227 218.66 78.003V77.9253H218.731L221.312 77.3273L221.21 77.4529C221.187 75.9539 221.163 74.4908 221.139 73.0636L221.24 73.1832L218.642 72.639H218.57V72.5672C218.308 71.6529 217.924 70.778 217.429 69.9659L217.393 69.9061L217.429 69.8403L218.803 67.5739V67.7174L215.655 64.6557H215.787L213.565 66.1088H213.517H213.463C212.633 65.6482 211.748 65.2965 210.829 65.0623H210.775V65.0085C210.548 64.0756 210.345 63.2145 210.178 62.4311L210.255 62.4909L205.865 62.5507L205.925 62.5029C205.704 63.5374 205.518 64.3866 205.369 65.0982C204.677 65.2912 204.005 65.5495 203.362 65.8696L202.89 66.1208C202.842 66.1533 202.79 66.1795 202.735 66.1985L202.878 66.0969C202.98 66.0371 203.129 65.9474 203.344 65.8337C203.981 65.4923 204.652 65.2178 205.345 65.0145L205.315 65.0504C205.459 64.3387 205.626 63.4836 205.835 62.4491V62.4012H205.883L210.267 62.2996H210.333V62.3653L210.972 64.9367L210.906 64.8769C211.845 65.1051 212.749 65.457 213.594 65.9234H213.493C214.198 65.457 214.926 64.9726 215.709 64.4643L215.775 64.4165L215.834 64.4763L218.994 67.5201L219.06 67.5799L219.012 67.6576L217.644 69.93V69.8045C218.144 70.6352 218.534 71.5278 218.803 72.4596L218.708 72.3759L221.306 72.9141H221.402V73.0157C221.402 74.4449 221.455 75.91 221.479 77.405V77.5067L221.378 77.5366L218.803 78.1705L218.899 78.0748C218.665 79.016 218.31 79.9227 217.841 80.7718V80.6342L219.293 82.8528L219.353 82.9425L219.281 83.0203L216.235 86.1777L216.157 86.2554L216.067 86.2016L213.798 84.8262H213.935C213.106 85.3265 212.214 85.7146 211.283 85.9804L211.378 85.8787C211.193 86.7697 211.008 87.6727 210.835 88.474V88.5817H210.727L206.337 88.6594H206.235L206.205 88.5577C205.99 87.6667 205.775 86.7637 205.578 85.9804L205.674 86.076C204.733 85.8414 203.827 85.4835 202.98 85.0116H203.093L200.877 86.4647L200.794 86.5186L200.722 86.4528L197.568 83.397L197.502 83.3312L197.55 83.2475L198.924 80.9811V81.1007C198.427 80.2696 198.042 79.3769 197.777 78.4456L197.867 78.5233L195.268 77.9791H195.185V77.8954C195.185 76.3526 195.137 74.9054 195.119 73.5001V73.4224H195.197L197.771 72.8244L197.711 72.8901C197.944 71.9515 198.302 71.0484 198.775 70.2051V70.2888L197.329 68.0643L197.299 68.0164L197.341 67.9806L200.405 64.8351L202.072 65.8756C202.257 65.9892 202.4 66.0789 202.502 66.1507L202.705 66.2105Z" fill="#F5F5F5"/>
<path d="M79.9889 50.9495C79.8827 50.4845 79.8286 50.0092 79.8276 49.5322C79.8032 48.9604 79.7393 48.3909 79.6365 47.8279C79.5431 47.0565 79.3934 46.293 79.1885 45.5436C78.6906 43.4735 77.8852 41.49 76.7991 39.6593C75.3932 37.2302 73.5383 35.0911 71.3335 33.3563C68.4783 31.098 65.1037 29.5914 61.5175 28.9741C57.9314 28.3568 54.2479 28.6483 50.8032 29.8222C48.8181 30.4783 46.9447 31.4341 45.248 32.6567C44.3762 33.2771 43.5461 33.9543 42.7631 34.6839C41.9805 35.456 41.252 36.2812 40.5828 37.1536C37.7626 40.8032 36.1832 45.2606 36.0758 49.8735C35.9683 54.4864 37.3384 59.0127 39.9855 62.7899C40.6164 63.6906 41.3048 64.5495 42.0463 65.3613C42.7936 66.1336 43.5918 66.8548 44.4356 67.5201C46.0602 68.8213 47.8729 69.8678 49.8116 70.6237C54.5291 72.4734 59.7408 72.6311 64.5613 71.0701C69.3818 69.5091 73.5139 66.3256 76.2556 62.0603C77.4195 60.282 78.3152 58.3415 78.9137 56.3016C79.1499 55.5596 79.3355 54.8024 79.4692 54.0352C79.5996 53.4783 79.6894 52.9127 79.738 52.3428C79.764 51.8673 79.8421 51.396 79.971 50.9375C80.026 51.4123 80.026 51.8919 79.971 52.3668C79.9676 52.9464 79.9136 53.5247 79.8097 54.095C79.7175 54.8832 79.5637 55.663 79.3498 56.4272C78.8223 58.5406 77.9678 60.5583 76.8171 62.4072C75.1336 65.1562 72.882 67.5129 70.2136 69.3189C67.5452 71.1249 64.5217 72.3385 61.3461 72.8782C57.3287 73.5557 53.2033 73.1427 49.3995 71.6822C47.3377 70.9037 45.4077 69.8125 43.677 68.447C42.78 67.7504 41.9299 66.9953 41.1324 66.1865C40.3444 65.3368 39.6159 64.4337 38.9521 63.4836C36.1485 59.499 34.6989 54.7176 34.8172 49.8452C34.9355 44.9728 36.6155 40.2676 39.6092 36.4241C40.3192 35.5068 41.0916 34.6396 41.9208 33.8288C42.7643 33.0581 43.6583 32.3449 44.5969 31.6939C46.3896 30.4159 48.368 29.4216 50.4627 28.7458C54.3339 27.4628 58.4778 27.2419 62.4631 28.1059C65.6058 28.8017 68.5637 30.1615 71.1391 32.0941C73.7145 34.0268 75.8478 36.4877 77.3965 39.3124C78.4648 41.2269 79.2267 43.2972 79.6544 45.4479C79.8263 46.2219 79.9421 47.0073 80.0008 47.798C80.0744 48.373 80.0984 48.9532 80.0725 49.5322C80.0994 50.0063 80.0713 50.4819 79.9889 50.9495Z" fill="#EBEBEB"/>
<path d="M75.5328 37.016C75.5806 37.0878 75.1804 37.4346 74.4038 38.0147L72.9702 39.0432C72.6835 39.2406 72.3729 39.4618 72.0563 39.6412L70.9632 40.2392C66.982 42.5168 62.4535 43.6584 57.8696 43.5402L55.8865 43.4565L53.981 43.1575C53.6704 43.1036 53.3837 43.0618 53.0551 43.002L52.1711 42.7628C51.5738 42.6013 50.9764 42.4638 50.4567 42.2904C48.5195 41.6345 46.6574 40.7745 44.9015 39.7249C41.9149 37.9309 40.4634 36.2745 40.5769 36.1369C40.6903 35.9994 42.3211 37.3748 45.3257 38.9416C47.0712 39.8564 48.8942 40.6149 50.7733 41.208C51.305 41.3635 51.8605 41.4831 52.422 41.6266L53.2762 41.8359L54.1602 41.9734L55.9821 42.2425L57.8696 42.3143C62.2728 42.4126 66.6336 41.4356 70.5749 39.4678L71.68 38.9834C72.0205 38.81 72.3251 38.6186 72.6238 38.4512L74.141 37.614C74.9892 37.1655 75.485 36.9502 75.5328 37.016Z" fill="#EBEBEB"/>
<path d="M39.9019 64.1294C39.8481 64.0576 40.2543 63.7108 41.0249 63.1307L42.4585 62.1022C42.7452 61.9108 43.0558 61.6896 43.3724 61.5042L44.4715 60.9062C48.4535 58.6306 52.9814 57.4891 57.565 57.6052L59.5482 57.6949L61.4477 57.9939C61.7583 58.0477 62.045 58.0836 62.3736 58.1494L63.2576 58.3826C63.855 58.5441 64.4224 58.6816 64.972 58.861C66.9089 59.5151 68.771 60.3731 70.5272 61.4205C73.5138 63.2145 74.9654 64.8709 74.8519 65.0085C74.7384 65.146 73.1076 63.7706 70.0732 62.2098C68.3208 61.3027 66.4918 60.5523 64.6076 59.9673C64.07 59.8118 63.5145 59.6982 62.953 59.5487L62.1227 59.3095L61.2446 59.2019L59.4526 58.9328L57.5591 58.855C53.1655 58.7644 48.8158 59.7433 44.8836 61.7075L43.7726 62.1859C43.4321 62.3653 43.1275 62.5567 42.8348 62.7181L41.3116 63.5553C40.4455 63.9859 39.9497 64.2012 39.9019 64.1294Z" fill="#EBEBEB"/>
<path d="M79.9769 51.4697C79.9769 51.8046 69.9895 51.8405 57.6904 51.5415C45.3913 51.2425 35.4278 50.7222 35.4398 50.3874C35.4517 50.0525 45.4212 50.0166 57.7203 50.3156C70.0194 50.6146 79.9829 51.1289 79.9769 51.4697Z" fill="#EBEBEB"/>
<path d="M56.681 72.6809C56.3405 72.6809 56.3106 62.6883 56.6093 50.3815C56.9079 38.0746 57.4217 28.106 57.7621 28.106C58.1026 28.106 58.1325 38.0926 57.8338 50.4054C57.5351 62.7182 57.0155 72.6869 56.681 72.6809Z" fill="#EBEBEB"/>
<path d="M56.681 72.6449C56.5973 72.7764 54.1423 71.114 51.305 67.3406C49.6527 65.1234 48.314 62.6885 47.3267 60.1048C46.1272 56.9128 45.5435 53.522 45.6064 50.1122C45.6903 46.6979 46.456 43.3348 47.8584 40.2213C48.9857 37.6996 50.4485 35.342 52.2069 33.2128C55.1936 29.5829 57.6785 27.9743 57.7621 28.1058C57.8458 28.2374 55.6416 30.0673 52.8879 33.745C51.2854 35.8837 49.9438 38.2065 48.8917 40.6638C47.6111 43.6619 46.9118 46.8765 46.8309 50.1362C46.7731 53.3933 47.3012 56.6343 48.39 59.7041C49.2985 62.2197 50.5165 64.6122 52.0158 66.8263C54.5963 70.6416 56.8064 72.5133 56.681 72.6449Z" fill="#EBEBEB"/>
<path d="M58.2579 28.1058C58.3415 27.9743 60.7966 29.6427 63.6339 33.4101C65.2898 35.6315 66.6287 38.0728 67.6121 40.6638C68.8145 43.855 69.3983 47.2464 69.3324 50.6564C69.2504 54.0704 68.4868 57.4334 67.0865 60.5473C65.9502 63.0738 64.4817 65.4369 62.72 67.5738C59.7333 71.2037 57.2424 72.8123 57.1588 72.6808C57.0752 72.5492 59.2793 70.7193 62.033 67.0416C63.6359 64.901 64.9775 62.5762 66.0292 60.1168C67.3173 57.1146 68.0189 53.8931 68.096 50.6265C68.1566 47.3692 67.6285 44.1277 66.5369 41.0585C65.6284 38.543 64.4104 36.1505 62.9111 33.9363C60.3306 30.1211 58.1384 28.2494 58.2579 28.1058Z" fill="#EBEBEB"/>
<path d="M106.726 74.0682C108.576 72.9502 110.567 72.0835 112.645 71.4909L113.84 65.6305L123.732 65.457L125.153 71.2756C127.253 71.7994 129.272 72.604 131.156 73.6676L136.156 70.3846L143.276 77.2675L140.176 82.3864C141.293 84.2367 142.159 86.2276 142.751 88.3066L148.605 89.5026L148.778 99.4055L142.966 100.835C142.448 102.924 141.655 104.935 140.606 106.815L143.886 111.82L137.034 119.002L131.921 115.898C130.073 117.014 128.084 117.879 126.007 118.47L124.813 124.33L114.921 124.51L113.493 118.661C111.395 118.133 109.377 117.329 107.49 116.269L102.467 119.6L95.3463 112.723L98.4465 107.604C97.3291 105.753 96.4652 103.76 95.878 101.678L90.0241 100.482L89.8449 90.579L95.657 89.1558C96.1828 87.0645 96.9864 85.0532 98.0463 83.1758L94.7729 78.1705L101.642 71.0424L106.755 74.146L106.726 74.0682ZM112 87.2601C110.542 88.7721 109.565 90.683 109.191 92.7511C108.818 94.8193 109.066 96.9517 109.903 98.8789C110.74 100.806 112.13 102.441 113.895 103.578C115.661 104.715 117.724 105.302 119.823 105.265C121.922 105.229 123.963 104.569 125.687 103.372C127.412 102.174 128.743 100.491 129.513 98.5352C130.282 96.5798 130.455 94.44 130.01 92.3862C129.565 90.3325 128.521 88.457 127.011 86.997C126.008 86.0274 124.824 85.265 123.527 84.7535C122.23 84.2419 120.845 83.9912 119.451 84.0156C118.057 84.0401 116.682 84.3392 115.403 84.8959C114.125 85.4526 112.968 86.2559 112 87.2601Z" fill="#E0E0E0"/>
<path d="M112 87.2601C112.559 86.5768 113.227 85.9908 113.977 85.5259C116.025 84.1928 118.473 83.6136 120.9 83.8874C122.58 84.0645 124.193 84.6384 125.607 85.5618C127.239 86.6239 128.553 88.1073 129.412 89.8554C129.89 90.7948 130.217 91.8039 130.38 92.8454C130.577 93.9273 130.597 95.0341 130.44 96.1225C130.139 98.4279 129.106 100.575 127.492 102.248C125.879 103.92 123.771 105.029 121.48 105.409C120.401 105.605 119.298 105.625 118.212 105.469C117.179 105.335 116.172 105.045 115.226 104.608C113.452 103.806 111.925 102.542 110.805 100.948C109.836 99.5637 109.205 97.9698 108.966 96.2959C108.608 93.8758 109.102 91.4066 110.363 89.3112C110.801 88.5445 111.362 87.8555 112.024 87.2721C112.084 87.3199 111.385 87.9717 110.566 89.4308C109.42 91.4999 109 93.8937 109.372 96.2301C109.648 97.9428 110.347 99.5592 111.406 100.933C112.465 102.306 113.85 103.393 115.435 104.094C117.31 104.922 119.389 105.176 121.408 104.823C123.57 104.453 125.558 103.401 127.082 101.821C128.605 100.241 129.585 98.2153 129.878 96.0387C130.032 95.0107 130.018 93.9646 129.836 92.9411C129.683 91.9581 129.381 91.0043 128.94 90.1126C128.186 88.5452 127.049 87.1931 125.636 86.1805C124.223 85.1679 122.578 84.5274 120.852 84.3179C118.508 84.0218 116.131 84.5207 114.103 85.7352C112.675 86.5963 112.054 87.3079 112 87.2601Z" fill="#E0E0E0"/>
<path d="M106.726 74.0682C106.726 74.0682 106.618 74.0144 106.397 73.8948L105.417 73.3267L101.547 71.0483H101.666L94.8326 78.2243V78.0329L98.1299 83.0202L98.1896 83.1099L98.1359 83.2056C97.1025 85.0882 96.3213 87.0988 95.8123 89.1856V89.2992L95.6928 89.3291L89.8867 90.7703L90.054 90.561C90.1137 93.6766 90.1794 96.9895 90.2511 100.464L90.0599 100.231L95.9138 101.427H96.0631L96.105 101.576C96.6938 103.633 97.5536 105.601 98.6615 107.431L98.7452 107.568L98.6615 107.706C97.6998 109.29 96.6426 111.043 95.5674 112.825L95.5255 112.49L102.652 119.361L102.299 119.331L107.299 116.042L107.442 115.946L107.598 116.03C109.463 117.067 111.457 117.852 113.529 118.362L113.702 118.404L113.744 118.577C114.192 120.401 114.682 122.387 115.172 124.396L114.879 124.169L124.771 123.989L124.478 124.228C124.867 122.375 125.279 120.377 125.673 118.368L125.709 118.189L125.888 118.135C127.937 117.552 129.899 116.699 131.724 115.599L131.885 115.504L132.041 115.599L137.148 118.703L136.777 118.751L143.647 111.629L143.611 112.005L140.373 107L140.278 106.851L140.361 106.689C141.402 104.825 142.187 102.83 142.697 100.757L142.745 100.583L142.918 100.542L148.724 99.1184L148.503 99.4054C148.451 96.0287 148.397 92.7278 148.342 89.5026L148.563 89.7717L142.709 88.5458L142.548 88.5099L142.506 88.3544C141.924 86.2947 141.07 84.3219 139.967 82.488L139.889 82.3505L139.967 82.2189L143.079 77.106L143.121 77.417L136.013 70.522H136.305L131.294 73.7871L131.186 73.8649L131.067 73.7991C129.19 72.7474 127.181 71.953 125.094 71.437L124.974 71.4071V71.2875C124.46 69.1765 124 67.2689 123.57 65.4689L123.744 65.6065L113.852 65.738L113.983 65.6304C113.481 67.9686 113.069 69.8882 112.729 71.4848V71.5446H112.675C111.114 71.976 109.599 72.5609 108.153 73.2908L107.084 73.8469C106.971 73.9153 106.853 73.9753 106.732 74.0263C106.732 74.0263 106.845 73.9426 107.06 73.7991C107.275 73.6556 107.657 73.4522 108.105 73.2011C109.541 72.4277 111.055 71.8102 112.621 71.3592L112.556 71.431C112.872 69.8284 113.26 67.9088 113.75 65.5586V65.457H113.858L123.75 65.2417H123.893L123.929 65.3852C124.377 67.1792 124.849 69.0809 125.374 71.1978L125.225 71.0483C127.343 71.5717 129.382 72.3761 131.288 73.4403H131.061L136.055 70.1513L136.21 70.0436L136.341 70.1752L143.473 77.0402L143.623 77.1838L143.515 77.3572L140.427 82.4761V82.207C141.558 84.0748 142.434 86.0861 143.031 88.187L142.828 87.9896L148.682 89.1856L148.903 89.2335V89.4547C148.963 92.6759 149.023 95.9789 149.082 99.3636V99.5908L148.855 99.6506L143.049 101.08L143.264 100.865C142.743 102.989 141.939 105.035 140.875 106.946V106.635C141.958 108.294 143.051 109.962 144.154 111.641L144.286 111.844L144.119 112.017L137.249 119.145L137.082 119.319L136.873 119.193L131.76 116.09H132.07C130.203 117.218 128.194 118.093 126.097 118.691L126.312 118.464C125.888 120.473 125.476 122.47 125.117 124.324L125.07 124.557H124.831L114.933 124.725H114.688L114.628 124.492C114.138 122.488 113.655 120.497 113.207 118.679L113.422 118.894C111.302 118.368 109.262 117.563 107.353 116.502H107.651L102.646 119.779L102.455 119.905L102.293 119.743L95.1851 112.854L95.0297 112.705L95.1432 112.52C96.2244 110.726 97.2817 108.991 98.2494 107.407V107.682C97.1243 105.812 96.2526 103.801 95.657 101.702L95.8481 101.881L89.9942 100.649L89.8091 100.607V100.464C89.7613 96.9895 89.7075 93.6766 89.6597 90.561V90.3876L89.827 90.3457L95.639 88.9345L95.4957 89.084C96.02 86.9694 96.8235 84.9342 97.885 83.0322V83.2176L94.6295 78.2004L94.5638 78.0927L94.6475 78.009L101.547 70.8988L101.606 70.839L101.672 70.8808L105.435 73.225L106.403 73.823C106.517 73.8952 106.625 73.9773 106.726 74.0682Z" fill="#E0E0E0"/>
<path d="M159.231 34.4446C160.618 33.6054 162.11 32.9558 163.669 32.5131L164.589 28.1058L172.032 27.9802L173.101 32.3456C174.677 32.7406 176.194 33.3439 177.611 34.1396L181.362 31.6759L186.708 36.8426L184.373 40.6638C185.212 42.0539 185.861 43.5503 186.302 45.1129L190.699 46.0458L190.83 53.4849L186.47 54.5553C186.073 56.1325 185.47 57.6505 184.678 59.0702L187.139 62.8257L181.996 68.1718L178.155 65.8456C176.766 66.6853 175.271 67.3349 173.711 67.7771L172.797 72.1784L165.366 72.31L164.297 67.9446C162.721 67.5472 161.205 66.944 159.787 66.1506L156.035 68.6143L150.659 63.4476L152.983 59.6025C152.144 58.2124 151.495 56.716 151.054 55.1533L146.657 54.2384L146.526 46.7993L150.886 45.7289C151.281 44.151 151.884 42.6327 152.678 41.214L150.217 37.4585L155.378 32.1064L159.219 34.4326L159.231 34.4446ZM163.191 44.3535C162.095 45.4891 161.36 46.9246 161.079 48.4786C160.798 50.0325 160.984 51.635 161.612 53.0833C162.241 54.5316 163.285 55.7607 164.612 56.615C165.938 57.4694 167.488 57.9107 169.065 57.8831C170.643 57.8555 172.176 57.3602 173.472 56.4599C174.768 55.5596 175.768 54.2948 176.346 52.8253C176.924 51.3559 177.053 49.7479 176.718 48.2048C176.383 46.6616 175.598 45.2527 174.463 44.1561C172.942 42.6866 170.9 41.8819 168.787 41.919C166.673 41.956 164.66 42.8316 163.191 44.3535Z" fill="#EBEBEB"/>
<path d="M74.0693 234.051C74.2011 233.863 74.3534 233.691 74.5233 233.537L75.8255 232.227C76.9306 231.133 78.4777 229.632 80.198 227.987L80.2398 227.951V228.173C78.5075 226.564 76.9485 225.093 75.8315 224.017L74.5233 222.731C74.3553 222.582 74.2031 222.415 74.0693 222.235C74.2639 222.348 74.4426 222.487 74.601 222.647L75.9808 223.843C77.1337 224.878 78.7106 226.319 80.4429 227.934L80.5623 228.041L80.4429 228.155L80.407 228.191C78.6867 229.835 77.1157 231.306 75.9689 232.377L74.601 233.621C74.4406 233.784 74.2622 233.928 74.0693 234.051Z" fill="#E0E0E0"/>
<path d="M60.707 222.235C60.5721 222.418 60.4201 222.588 60.253 222.743L58.9508 224.053C57.8458 225.147 56.2987 226.648 54.5784 228.292L54.5365 228.328V228.107C56.2688 229.722 57.8279 231.187 58.9449 232.263L60.253 233.549C60.424 233.697 60.5764 233.866 60.707 234.051C60.5152 233.931 60.337 233.791 60.1754 233.632C59.7991 233.304 59.3391 232.903 58.7955 232.436C57.6427 231.408 56.0657 229.961 54.3335 228.346L54.214 228.239L54.3335 228.125L54.3693 228.089C56.0896 226.445 57.6606 224.973 58.8075 223.903L60.1754 222.665C60.3336 222.5 60.5122 222.355 60.707 222.235Z" fill="#E0E0E0"/>
<path d="M64.1357 236.808C64.058 236.778 65.4618 232.825 67.2717 227.981C69.0816 223.138 70.6168 219.233 70.6944 219.263C70.7721 219.293 69.3683 223.245 67.5584 228.089C65.7485 232.933 64.2193 236.862 64.1357 236.808Z" fill="#E0E0E0"/>
<path d="M89.2894 245.288C89.2894 245.288 89.2894 245.06 89.2894 244.624C89.2894 244.187 89.2894 243.553 89.2894 242.728C89.2894 241.054 89.2894 238.626 89.2536 235.552C89.2536 229.351 89.2177 220.494 89.1938 209.808L89.3193 209.94H45.8035L45.9529 209.784C45.9529 222.623 45.9529 234.739 45.9529 245.288L45.8155 245.15L77.2412 245.222L86.1474 245.258H88.5368H86.1952L77.3188 245.293L45.8095 245.365H45.6721V245.228C45.6721 234.679 45.6721 222.564 45.6721 209.724V209.575H45.8274H89.3432H89.4686V209.701C89.4387 220.417 89.4148 229.303 89.4029 235.522C89.4029 238.608 89.4029 241.03 89.3671 242.698C89.3671 243.511 89.3671 244.139 89.3671 244.576C89.3671 245.012 89.2894 245.288 89.2894 245.288Z" fill="#E0E0E0"/>
<path d="M89.6299 215.053C89.6299 215.136 79.8037 215.208 67.6898 215.208C55.5759 215.208 45.7498 215.136 45.7498 215.053C45.7498 214.969 55.5699 214.903 67.6898 214.903C79.8097 214.903 89.6299 214.969 89.6299 215.053Z" fill="#E0E0E0"/>
<path d="M49.3218 212.463C49.3218 212.622 49.2589 212.774 49.1468 212.886C49.0348 212.998 48.8829 213.061 48.7245 213.061C48.566 213.061 48.4141 212.998 48.3021 212.886C48.1901 212.774 48.1271 212.622 48.1271 212.463C48.1271 212.305 48.1901 212.153 48.3021 212.04C48.4141 211.928 48.566 211.865 48.7245 211.865C48.8829 211.865 49.0348 211.928 49.1468 212.04C49.2589 212.153 49.3218 212.305 49.3218 212.463Z" fill="#E0E0E0"/>
<path d="M50.8689 213.049C51.1922 213.049 51.4543 212.787 51.4543 212.463C51.4543 212.14 51.1922 211.877 50.8689 211.877C50.5456 211.877 50.2835 212.14 50.2835 212.463C50.2835 212.787 50.5456 213.049 50.8689 213.049Z" fill="#E0E0E0"/>
<path d="M53.5927 212.463C53.5927 212.582 53.5577 212.697 53.4921 212.795C53.4264 212.894 53.3331 212.97 53.224 213.016C53.1148 213.061 52.9947 213.073 52.8789 213.05C52.763 213.027 52.6566 212.97 52.573 212.886C52.4895 212.802 52.4326 212.696 52.4095 212.58C52.3865 212.464 52.3983 212.344 52.4435 212.234C52.4888 212.125 52.5653 212.032 52.6635 211.966C52.7618 211.9 52.8773 211.865 52.9954 211.865C53.1538 211.865 53.3058 211.928 53.4178 212.04C53.5298 212.153 53.5927 212.305 53.5927 212.463Z" fill="#E0E0E0"/>
<path d="M207.968 69.1467C217.172 69.1467 224.633 61.677 224.633 52.4625C224.633 43.2481 217.172 35.7783 207.968 35.7783C198.763 35.7783 191.302 43.2481 191.302 52.4625C191.302 61.677 198.763 69.1467 207.968 69.1467Z" fill="#F5F5F5"/>
<path d="M52.6489 248.032C61.8531 248.032 69.3145 240.563 69.3145 231.348C69.3145 222.134 61.8531 214.664 52.6489 214.664C43.4448 214.664 35.9833 222.134 35.9833 231.348C35.9833 240.563 43.4448 248.032 52.6489 248.032Z" fill="#F5F5F5"/>
<path d="M435.456 268.544C435.456 268.634 344.369 268.699 232.034 268.699C119.7 268.699 28.6003 268.634 28.6003 268.544C28.6003 268.454 119.664 268.388 232.034 268.388C344.404 268.388 435.456 268.46 435.456 268.544Z" fill="#263238"/>
<path d="M372.569 267.515H419.728V122.883H372.569V267.515Z" fill="#EBEBEB"/>
<path d="M335.361 267.515H372.569L372.634 122.883H335.361V267.515Z" fill="#E0E0E0"/>
<path d="M377.114 157.304H417.118V146.026H377.114V157.304Z" fill="#263238"/>
<path d="M413.761 156.078H416.001V147.449H413.761V156.078Z" fill="#455A64"/>
<path d="M411.121 149.261C411.119 149.403 411.161 149.543 411.239 149.662C411.317 149.781 411.429 149.873 411.56 149.929C411.692 149.984 411.836 149.998 411.976 149.971C412.115 149.943 412.244 149.875 412.344 149.774C412.445 149.673 412.513 149.545 412.541 149.405C412.568 149.265 412.553 149.121 412.498 148.989C412.444 148.858 412.351 148.746 412.232 148.668C412.113 148.589 411.974 148.548 411.831 148.549C411.643 148.551 411.464 148.626 411.331 148.759C411.198 148.892 411.122 149.072 411.121 149.261Z" fill="white"/>
<path d="M411.121 152.311C411.119 152.453 411.161 152.593 411.239 152.711C411.317 152.83 411.429 152.923 411.56 152.978C411.692 153.033 411.836 153.048 411.976 153.021C412.115 152.993 412.244 152.925 412.344 152.824C412.445 152.723 412.513 152.595 412.541 152.455C412.568 152.315 412.553 152.17 412.498 152.039C412.444 151.908 412.351 151.796 412.232 151.717C412.113 151.639 411.974 151.598 411.831 151.599C411.738 151.599 411.646 151.617 411.559 151.653C411.473 151.689 411.395 151.741 411.329 151.807C411.263 151.873 411.21 151.952 411.175 152.038C411.139 152.125 411.121 152.217 411.121 152.311Z" fill="white"/>
<path d="M406.073 155.181H408.277V148.549H406.073V155.181Z" fill="#455A64"/>
<path d="M402.889 155.181H405.094V148.549H402.889V155.181Z" fill="#455A64"/>
<path d="M399.712 155.181H401.916V148.549H399.712V155.181Z" fill="#455A64"/>
<path d="M396.534 155.181H398.738V148.549H396.534V155.181Z" fill="#455A64"/>
<path d="M393.35 155.181H395.554V148.549H393.35V155.181Z" fill="#455A64"/>
<path d="M390.172 155.181H392.376V148.549H390.172V155.181Z" fill="#455A64"/>
<path d="M386.994 155.181H389.199V148.549H386.994V155.181Z" fill="#455A64"/>
<path d="M383.811 155.181H386.015V148.549H383.811V155.181Z" fill="#455A64"/>
<path d="M380.633 155.181H382.837V148.549H380.633V155.181Z" fill="#455A64"/>
<path d="M377.455 155.181H379.659V148.549H377.455V155.181Z" fill="#455A64"/>
<path d="M377.114 173.504H417.118V162.225H377.114V173.504Z" fill="#263238"/>
<path d="M413.761 172.272H416.001V163.643H413.761V172.272Z" fill="#455A64"/>
<path d="M411.121 165.461C411.119 165.603 411.161 165.743 411.239 165.862C411.317 165.98 411.429 166.073 411.56 166.128C411.692 166.184 411.836 166.198 411.976 166.171C412.115 166.143 412.244 166.075 412.344 165.974C412.445 165.873 412.513 165.745 412.541 165.605C412.568 165.465 412.553 165.321 412.498 165.189C412.444 165.058 412.351 164.946 412.232 164.867C412.113 164.789 411.974 164.748 411.831 164.749C411.738 164.749 411.646 164.767 411.559 164.803C411.473 164.839 411.395 164.891 411.329 164.957C411.263 165.024 411.21 165.102 411.175 165.188C411.139 165.275 411.121 165.367 411.121 165.461Z" fill="white"/>
<path d="M411.121 168.51C411.119 168.653 411.161 168.792 411.239 168.911C411.317 169.03 411.429 169.123 411.56 169.178C411.692 169.233 411.836 169.248 411.976 169.221C412.115 169.193 412.244 169.125 412.344 169.024C412.445 168.923 412.513 168.795 412.541 168.655C412.568 168.515 412.553 168.37 412.498 168.239C412.444 168.108 412.351 167.996 412.232 167.917C412.113 167.839 411.974 167.798 411.831 167.799C411.738 167.799 411.646 167.817 411.559 167.853C411.473 167.889 411.395 167.941 411.329 168.007C411.263 168.073 411.21 168.152 411.175 168.238C411.139 168.324 411.121 168.417 411.121 168.51Z" fill="white"/>
<path d="M406.073 171.375H408.277V164.749H406.073V171.375Z" fill="#455A64"/>
<path d="M402.889 171.375H405.094V164.749H402.889V171.375Z" fill="#455A64"/>
<path d="M399.712 171.375H401.916V164.749H399.712V171.375Z" fill="#455A64"/>
<path d="M396.534 171.375H398.738V164.749H396.534V171.375Z" fill="#455A64"/>
<path d="M393.35 171.375H395.554V164.749H393.35V171.375Z" fill="#455A64"/>
<path d="M390.172 171.375H392.376V164.749H390.172V171.375Z" fill="#455A64"/>
<path d="M386.994 171.375H389.199V164.749H386.994V171.375Z" fill="#455A64"/>
<path d="M383.811 171.375H386.015V164.749H383.811V171.375Z" fill="#455A64"/>
<path d="M380.633 171.375H382.837V164.749H380.633V171.375Z" fill="#455A64"/>
<path d="M377.455 171.375H379.659V164.749H377.455V171.375Z" fill="#455A64"/>
<path d="M377.114 189.835H417.118V178.557H377.114V189.835Z" fill="#263238"/>
<path d="M413.761 188.603H416.001V179.974H413.761V188.603Z" fill="#455A64"/>
<path d="M411.121 181.792C411.121 181.934 411.163 182.073 411.242 182.191C411.321 182.31 411.433 182.401 411.565 182.456C411.696 182.51 411.84 182.524 411.979 182.495C412.119 182.467 412.246 182.398 412.346 182.297C412.446 182.196 412.514 182.068 412.541 181.928C412.568 181.789 412.553 181.644 412.498 181.513C412.443 181.382 412.35 181.271 412.231 181.193C412.113 181.114 411.973 181.073 411.831 181.074C411.642 181.076 411.462 181.152 411.328 181.287C411.195 181.421 411.121 181.603 411.121 181.792Z" fill="white"/>
<path d="M411.121 184.836C411.119 184.978 411.161 185.118 411.239 185.237C411.317 185.356 411.429 185.449 411.56 185.504C411.692 185.559 411.836 185.573 411.976 185.546C412.115 185.518 412.244 185.45 412.344 185.349C412.445 185.249 412.513 185.12 412.541 184.98C412.568 184.841 412.553 184.696 412.498 184.565C412.444 184.433 412.351 184.321 412.232 184.243C412.113 184.164 411.974 184.123 411.831 184.124C411.643 184.126 411.464 184.201 411.331 184.334C411.198 184.468 411.122 184.648 411.121 184.836Z" fill="white"/>
<path d="M406.073 187.706H408.277V181.08H406.073V187.706Z" fill="#455A64"/>
<path d="M402.889 187.706H405.094V181.08H402.889V187.706Z" fill="#455A64"/>
<path d="M399.712 187.706H401.916V181.08H399.712V187.706Z" fill="#455A64"/>
<path d="M396.534 187.706H398.738V181.08H396.534V187.706Z" fill="#455A64"/>
<path d="M393.35 187.706H395.554V181.08H393.35V187.706Z" fill="#455A64"/>
<path d="M390.172 187.706H392.376V181.08H390.172V187.706Z" fill="#455A64"/>
<path d="M386.994 187.706H389.199V181.08H386.994V187.706Z" fill="#455A64"/>
<path d="M383.811 187.706H386.015V181.08H383.811V187.706Z" fill="#455A64"/>
<path d="M380.633 187.706H382.837V181.08H380.633V187.706Z" fill="#455A64"/>
<path d="M377.455 187.706H379.659V181.08H377.455V187.706Z" fill="#455A64"/>
<path d="M377.114 207.47H417.118V196.192H377.114V207.47Z" fill="#263238"/>
<path d="M413.761 206.238H416.001V197.609H413.761V206.238Z" fill="#455A64"/>
<path d="M411.121 199.427C411.119 199.569 411.161 199.709 411.239 199.828C411.317 199.947 411.429 200.04 411.56 200.095C411.692 200.15 411.836 200.165 411.976 200.137C412.115 200.11 412.244 200.041 412.344 199.94C412.445 199.84 412.513 199.711 412.541 199.571C412.568 199.432 412.553 199.287 412.498 199.156C412.444 199.024 412.351 198.912 412.232 198.834C412.113 198.755 411.974 198.714 411.831 198.715C411.738 198.715 411.646 198.734 411.559 198.77C411.473 198.805 411.395 198.858 411.329 198.924C411.263 198.99 411.21 199.068 411.175 199.155C411.139 199.241 411.121 199.334 411.121 199.427Z" fill="white"/>
<path d="M411.121 202.477C411.119 202.619 411.161 202.759 411.239 202.878C411.317 202.997 411.429 203.09 411.56 203.145C411.692 203.2 411.836 203.214 411.976 203.187C412.115 203.159 412.244 203.091 412.344 202.99C412.445 202.889 412.513 202.761 412.541 202.621C412.568 202.482 412.553 202.337 412.498 202.205C412.444 202.074 412.351 201.962 412.232 201.884C412.113 201.805 411.974 201.764 411.831 201.765C411.738 201.765 411.646 201.784 411.559 201.819C411.473 201.855 411.395 201.908 411.329 201.974C411.263 202.04 411.21 202.118 411.175 202.204C411.139 202.291 411.121 202.383 411.121 202.477Z" fill="white"/>
<path d="M406.073 205.341H408.277V198.715H406.073V205.341Z" fill="#455A64"/>
<path d="M402.889 205.341H405.094V198.715H402.889V205.341Z" fill="#455A64"/>
<path d="M399.712 205.341H401.916V198.715H399.712V205.341Z" fill="#455A64"/>
<path d="M396.534 205.341H398.738V198.715H396.534V205.341Z" fill="#455A64"/>
<path d="M393.35 205.341H395.554V198.715H393.35V205.341Z" fill="#455A64"/>
<path d="M390.172 205.341H392.376V198.715H390.172V205.341Z" fill="#455A64"/>
<path d="M386.994 205.341H389.199V198.715H386.994V205.341Z" fill="#455A64"/>
<path d="M383.811 205.341H386.015V198.715H383.811V205.341Z" fill="#455A64"/>
<path d="M380.633 205.341H382.837V198.715H380.633V205.341Z" fill="#455A64"/>
<path d="M377.455 205.341H379.659V198.715H377.455V205.341Z" fill="#455A64"/>
<path d="M377.114 225.285H417.118V214.006H377.114V225.285Z" fill="#263238"/>
<path d="M413.761 224.059H416.001V215.429H413.761V224.059Z" fill="#455A64"/>
<path d="M411.121 217.241C411.119 217.384 411.161 217.523 411.239 217.642C411.317 217.761 411.429 217.854 411.56 217.909C411.692 217.964 411.836 217.979 411.976 217.951C412.115 217.924 412.244 217.856 412.344 217.755C412.445 217.654 412.513 217.526 412.541 217.386C412.568 217.246 412.553 217.101 412.498 216.97C412.444 216.839 412.351 216.727 412.232 216.648C412.113 216.57 411.974 216.529 411.831 216.53C411.738 216.53 411.646 216.548 411.559 216.584C411.473 216.62 411.395 216.672 411.329 216.738C411.263 216.804 411.21 216.883 411.175 216.969C411.139 217.055 411.121 217.148 411.121 217.241Z" fill="white"/>
<path d="M411.121 220.291C411.119 220.434 411.161 220.573 411.239 220.692C411.317 220.811 411.429 220.904 411.56 220.959C411.692 221.014 411.836 221.029 411.976 221.001C412.115 220.974 412.244 220.905 412.344 220.805C412.445 220.704 412.513 220.575 412.541 220.436C412.568 220.296 412.553 220.151 412.498 220.02C412.444 219.888 412.351 219.776 412.232 219.698C412.113 219.62 411.974 219.578 411.831 219.58C411.738 219.58 411.646 219.598 411.559 219.634C411.473 219.67 411.395 219.722 411.329 219.788C411.263 219.854 411.21 219.933 411.175 220.019C411.139 220.105 411.121 220.198 411.121 220.291Z" fill="white"/>
<path d="M406.073 223.156H408.277V216.53H406.073V223.156Z" fill="#455A64"/>
<path d="M402.889 223.156H405.094V216.53H402.889V223.156Z" fill="#455A64"/>
<path d="M399.712 223.156H401.916V216.53H399.712V223.156Z" fill="#455A64"/>
<path d="M396.534 223.156H398.738V216.53H396.534V223.156Z" fill="#455A64"/>
<path d="M393.35 223.156H395.554V216.53H393.35V223.156Z" fill="#455A64"/>
<path d="M390.172 223.156H392.376V216.53H390.172V223.156Z" fill="#455A64"/>
<path d="M386.994 223.156H389.199V216.53H386.994V223.156Z" fill="#455A64"/>
<path d="M383.811 223.156H386.015V216.53H383.811V223.156Z" fill="#455A64"/>
<path d="M380.633 223.156H382.837V216.53H380.633V223.156Z" fill="#455A64"/>
<path d="M377.455 223.156H379.659V216.53H377.455V223.156Z" fill="#455A64"/>
<path d="M377.114 260.734H417.118V249.456H377.114V260.734Z" fill="#263238"/>
<path d="M413.761 259.502H416.001V250.873H413.761V259.502Z" fill="#455A64"/>
<path d="M411.121 252.691C411.119 252.833 411.161 252.973 411.239 253.092C411.317 253.211 411.429 253.304 411.56 253.359C411.692 253.414 411.836 253.428 411.976 253.401C412.115 253.373 412.244 253.305 412.344 253.204C412.445 253.104 412.513 252.975 412.541 252.835C412.568 252.696 412.553 252.551 412.498 252.419C412.444 252.288 412.351 252.176 412.232 252.098C412.113 252.019 411.974 251.978 411.831 251.979C411.738 251.979 411.646 251.998 411.559 252.033C411.473 252.069 411.395 252.122 411.329 252.188C411.263 252.254 411.21 252.332 411.175 252.419C411.139 252.505 411.121 252.597 411.121 252.691Z" fill="white"/>
<path d="M411.121 255.741C411.119 255.883 411.161 256.023 411.239 256.142C411.317 256.261 411.429 256.353 411.56 256.408C411.692 256.464 411.836 256.478 411.976 256.451C412.115 256.423 412.244 256.355 412.344 256.254C412.445 256.153 412.513 256.025 412.541 255.885C412.568 255.745 412.553 255.601 412.498 255.469C412.444 255.338 412.351 255.226 412.232 255.148C412.113 255.069 411.974 255.028 411.831 255.029C411.738 255.029 411.646 255.047 411.559 255.083C411.473 255.119 411.395 255.171 411.329 255.238C411.263 255.304 411.21 255.382 411.175 255.468C411.139 255.555 411.121 255.647 411.121 255.741Z" fill="white"/>
<path d="M406.073 258.605H408.277V251.979H406.073V258.605Z" fill="#455A64"/>
<path d="M402.889 258.605H405.094V251.979H402.889V258.605Z" fill="#455A64"/>
<path d="M399.712 258.605H401.916V251.979H399.712V258.605Z" fill="#455A64"/>
<path d="M396.534 258.605H398.738V251.979H396.534V258.605Z" fill="#455A64"/>
<path d="M393.35 258.605H395.554V251.979H393.35V258.605Z" fill="#455A64"/>
<path d="M390.172 258.605H392.376V251.979H390.172V258.605Z" fill="#455A64"/>
<path d="M386.994 258.605H389.199V251.979H386.994V258.605Z" fill="#455A64"/>
<path d="M383.811 258.605H386.015V251.979H383.811V258.605Z" fill="#455A64"/>
<path d="M380.633 258.605H382.837V251.979H380.633V258.605Z" fill="#455A64"/>
<path d="M377.455 258.605H379.659V251.979H377.455V258.605Z" fill="#455A64"/>
<path d="M377.114 243.027H417.118V231.749H377.114V243.027Z" fill="#263238"/>
<path d="M413.761 241.795H416.001V233.166H413.761V241.795Z" fill="#455A64"/>
<path d="M411.121 235.014C411.121 235.156 411.163 235.295 411.242 235.413C411.321 235.531 411.433 235.623 411.565 235.678C411.696 235.732 411.84 235.746 411.979 235.717C412.119 235.689 412.246 235.62 412.346 235.519C412.446 235.418 412.514 235.29 412.541 235.15C412.568 235.011 412.553 234.866 412.498 234.735C412.443 234.604 412.35 234.493 412.231 234.414C412.113 234.336 411.973 234.295 411.831 234.296C411.642 234.298 411.462 234.374 411.328 234.509C411.195 234.643 411.121 234.825 411.121 235.014Z" fill="white"/>
<path d="M411.121 238.004C411.119 238.147 411.161 238.286 411.239 238.405C411.317 238.524 411.429 238.617 411.56 238.672C411.692 238.727 411.836 238.742 411.976 238.714C412.115 238.687 412.244 238.618 412.344 238.518C412.445 238.417 412.513 238.288 412.541 238.149C412.568 238.009 412.553 237.864 412.498 237.733C412.444 237.601 412.351 237.489 412.232 237.411C412.113 237.333 411.974 237.291 411.831 237.293C411.643 237.294 411.464 237.37 411.331 237.503C411.198 237.636 411.122 237.816 411.121 238.004Z" fill="white"/>
<path d="M406.073 240.898H408.277V234.273H406.073V240.898Z" fill="#455A64"/>
<path d="M402.889 240.898H405.094V234.273H402.889V240.898Z" fill="#455A64"/>
<path d="M399.712 240.898H401.916V234.273H399.712V240.898Z" fill="#455A64"/>
<path d="M396.534 240.898H398.738V234.273H396.534V240.898Z" fill="#455A64"/>
<path d="M393.35 240.898H395.554V234.273H393.35V240.898Z" fill="#455A64"/>
<path d="M390.172 240.898H392.376V234.273H390.172V240.898Z" fill="#455A64"/>
<path d="M386.994 240.898H389.199V234.273H386.994V240.898Z" fill="#455A64"/>
<path d="M383.811 240.898H386.015V234.273H383.811V240.898Z" fill="#455A64"/>
<path d="M380.633 240.898H382.837V234.273H380.633V240.898Z" fill="#455A64"/>
<path d="M377.455 240.898H379.659V234.273H377.455V240.898Z" fill="#455A64"/>
<path d="M392.376 146.032C392.404 145.918 392.418 145.802 392.418 145.685C392.418 145.45 392.43 145.115 392.454 144.68C392.454 144.244 392.454 143.711 392.508 143.095C392.526 142.402 392.616 141.713 392.777 141.038C393.006 140.233 393.367 139.471 393.846 138.784C394.391 137.989 395.151 137.366 396.038 136.99C397.038 136.625 398.087 136.411 399.15 136.356L402.597 136.057C407.316 135.65 411.599 135.387 414.705 135.327C416.258 135.327 417.512 135.327 418.378 135.327H419.382C419.497 135.34 419.613 135.34 419.728 135.327L419.382 135.292L418.384 135.232C417.512 135.196 416.258 135.16 414.699 135.166C411.593 135.166 407.298 135.411 402.573 135.824L399.126 136.129C398.039 136.185 396.967 136.409 395.948 136.793C395.025 137.178 394.235 137.824 393.673 138.652C393.185 139.363 392.824 140.152 392.603 140.984C392.449 141.674 392.369 142.377 392.364 143.083C392.364 143.681 392.364 144.232 392.364 144.668C392.364 145.105 392.364 145.416 392.364 145.667C392.359 145.789 392.363 145.911 392.376 146.032Z" fill="#263238"/>
<path d="M404.514 146.032C404.524 145.922 404.524 145.812 404.514 145.703C404.514 145.458 404.514 145.147 404.514 144.758C404.514 144.369 404.514 143.849 404.556 143.275C404.586 142.627 404.755 141.992 405.052 141.415C405.483 140.769 406.111 140.28 406.844 140.022C407.684 139.698 408.596 139.605 409.484 139.753C409.958 139.836 410.415 139.993 410.84 140.219C411.282 140.442 411.649 140.789 411.897 141.218C412.019 141.434 412.083 141.678 412.083 141.926C412.083 142.175 412.019 142.419 411.897 142.635C411.77 142.859 411.598 143.054 411.393 143.21C411.187 143.365 410.952 143.477 410.703 143.538C410.453 143.593 410.194 143.585 409.949 143.514C409.703 143.443 409.48 143.311 409.299 143.131C408.932 142.788 408.706 142.32 408.667 141.819C408.627 141.317 408.776 140.819 409.084 140.422C409.358 140.031 409.723 139.711 410.147 139.489C410.563 139.298 411.01 139.183 411.467 139.149C411.921 139.077 412.357 139.017 412.781 138.975C413.635 138.88 414.43 138.82 415.171 138.79C416.628 138.736 417.811 138.76 418.629 138.76H419.567C419.676 138.768 419.786 138.768 419.895 138.76C419.79 138.732 419.682 138.72 419.573 138.724L418.629 138.676C417.817 138.646 416.628 138.598 415.165 138.628C414.436 138.628 413.629 138.694 412.775 138.778C412.345 138.826 411.903 138.88 411.449 138.945C411.216 138.981 410.995 139.005 410.756 139.053C410.511 139.101 410.274 139.184 410.051 139.298C409.592 139.535 409.196 139.879 408.899 140.303C408.556 140.748 408.391 141.305 408.435 141.865C408.479 142.425 408.729 142.949 409.137 143.335C409.35 143.541 409.61 143.692 409.894 143.773C410.179 143.855 410.479 143.864 410.768 143.801C411.055 143.734 411.325 143.608 411.56 143.431C411.796 143.254 411.992 143.03 412.136 142.772C412.277 142.52 412.352 142.236 412.352 141.947C412.352 141.658 412.277 141.374 412.136 141.122C411.863 140.652 411.461 140.27 410.977 140.022C410.527 139.783 410.041 139.622 409.538 139.543C408.61 139.393 407.658 139.496 406.784 139.842C406.006 140.119 405.342 140.647 404.896 141.343C404.601 141.948 404.44 142.608 404.425 143.281C404.389 143.879 404.425 144.369 404.425 144.776C404.425 145.182 404.425 145.475 404.46 145.721C404.467 145.826 404.485 145.93 404.514 146.032Z" fill="#263238"/>
<path d="M389.109 146.032C389.148 145.909 389.176 145.783 389.193 145.655C389.234 145.41 389.306 145.057 389.402 144.584C389.679 143.276 390.079 141.997 390.596 140.763C391.323 138.923 392.525 137.31 394.079 136.087C395.019 135.412 396.122 134.999 397.274 134.891C398.52 134.752 399.772 134.684 401.026 134.688C406.193 134.586 410.882 134.61 414.269 134.478C415.965 134.418 417.333 134.341 418.283 134.275L419.37 134.179C419.497 134.176 419.623 134.16 419.746 134.131C419.619 134.124 419.491 134.124 419.364 134.131L418.277 134.173C417.327 134.209 415.959 134.263 414.263 134.299C410.876 134.383 406.193 134.335 401.02 134.43C399.756 134.427 398.494 134.496 397.239 134.64C396.045 134.765 394.907 135.207 393.941 135.919C393.089 136.574 392.345 137.359 391.737 138.246C391.218 139.021 390.782 139.849 390.435 140.715C389.931 141.963 389.558 143.259 389.324 144.584C389.24 145.051 389.187 145.416 389.157 145.667C389.135 145.788 389.119 145.909 389.109 146.032Z" fill="#263238"/>
<path d="M377.664 130.334H416.568V124.683H377.664V130.334Z" fill="#263238"/>
<path d="M386.833 130.34H408.014V127.512H386.833V130.34Z" fill="#455A64"/>
<path d="M361.787 241.945C361.787 241.975 362.217 242.017 362.982 242.232C364.032 242.552 365.024 243.038 365.92 243.673C366.54 244.107 367.097 244.624 367.575 245.21C367.835 245.534 368.062 245.885 368.25 246.256C368.431 246.66 368.573 247.081 368.674 247.512C369.122 249.306 368.985 251.345 368.895 253.492C368.806 255.639 368.949 257.744 369.785 259.472C370.167 260.28 370.707 261.002 371.374 261.595C371.954 262.107 372.611 262.525 373.321 262.833C373.906 263.09 374.52 263.275 375.149 263.383C375.624 263.454 376.104 263.474 376.583 263.443C376.883 263.423 377.181 263.374 377.473 263.299C377.577 263.28 377.679 263.25 377.777 263.21C377.777 263.18 377.353 263.311 376.583 263.341C376.113 263.356 375.642 263.322 375.179 263.24C374.561 263.125 373.959 262.934 373.387 262.672C372.702 262.357 372.068 261.942 371.505 261.44C370.865 260.86 370.349 260.156 369.988 259.371C369.188 257.714 369.05 255.645 369.14 253.528C369.23 251.411 369.361 249.342 368.889 247.5C368.782 247.054 368.632 246.62 368.441 246.203C368.243 245.816 368.003 245.453 367.724 245.12C367.229 244.527 366.655 244.006 366.016 243.571C365.107 242.94 364.097 242.468 363.029 242.178C362.737 242.103 362.439 242.047 362.139 242.011C362.024 241.977 361.906 241.955 361.787 241.945Z" fill="#263238"/>
<path d="M376.529 265.303H379.725V261.416H376.529V265.303Z" fill="#263238"/>
<path d="M343.885 251.764H361.793V232.12H343.885V251.764Z" fill="#455A64"/>
<path d="M358.297 244.284C359.535 241.27 358.098 237.821 355.087 236.581C352.076 235.341 348.631 236.779 347.392 239.794C346.153 242.808 347.59 246.257 350.601 247.498C353.613 248.738 357.058 247.299 358.297 244.284Z" fill="#263238"/>
<path d="M349.888 242.023C349.887 242.607 350.059 243.179 350.383 243.666C350.707 244.153 351.167 244.532 351.707 244.757C352.246 244.981 352.84 245.04 353.413 244.926C353.986 244.812 354.512 244.531 354.925 244.117C355.338 243.704 355.62 243.177 355.733 242.603C355.847 242.03 355.788 241.435 355.564 240.895C355.34 240.355 354.961 239.894 354.475 239.57C353.988 239.246 353.417 239.073 352.833 239.074C352.052 239.076 351.304 239.387 350.752 239.94C350.2 240.492 349.89 241.241 349.888 242.023Z" fill="#455A64"/>
<path d="M358.818 235.175C358.818 235.284 358.85 235.391 358.911 235.481C358.971 235.572 359.057 235.642 359.157 235.684C359.258 235.725 359.368 235.736 359.475 235.715C359.582 235.694 359.679 235.641 359.756 235.564C359.833 235.487 359.885 235.389 359.907 235.283C359.928 235.176 359.917 235.065 359.875 234.965C359.834 234.864 359.763 234.778 359.673 234.718C359.583 234.657 359.476 234.625 359.368 234.625C359.222 234.625 359.082 234.683 358.979 234.786C358.876 234.89 358.818 235.029 358.818 235.175Z" fill="#263238"/>
<path d="M346.621 235.726C346.924 235.726 347.17 235.479 347.17 235.175C347.17 234.872 346.924 234.625 346.621 234.625C346.317 234.625 346.071 234.872 346.071 235.175C346.071 235.479 346.317 235.726 346.621 235.726Z" fill="#263238"/>
<path d="M346.501 250.227C346.805 250.227 347.051 249.981 347.051 249.677C347.051 249.373 346.805 249.127 346.501 249.127C346.198 249.127 345.952 249.373 345.952 249.677C345.952 249.981 346.198 250.227 346.501 250.227Z" fill="#263238"/>
<path d="M358.818 249.904C358.818 250.013 358.85 250.119 358.911 250.21C358.971 250.3 359.057 250.371 359.157 250.412C359.258 250.454 359.368 250.465 359.475 250.444C359.582 250.423 359.679 250.37 359.756 250.293C359.833 250.216 359.885 250.118 359.907 250.011C359.928 249.905 359.917 249.794 359.875 249.694C359.834 249.593 359.763 249.507 359.673 249.447C359.583 249.386 359.476 249.354 359.368 249.354C359.222 249.354 359.082 249.412 358.979 249.515C358.876 249.618 358.818 249.758 358.818 249.904Z" fill="#263238"/>
<path d="M342.433 251.764H343.879V232.12H342.433V251.764Z" fill="#263238"/>
<path d="M82.9756 96.4575H330.785C331.853 96.4575 332.877 96.8822 333.632 97.638C334.387 98.3939 334.811 99.4191 334.811 100.488V257.535C334.811 258.679 334.586 259.812 334.149 260.869C333.711 261.926 333.07 262.887 332.262 263.696C331.454 264.505 330.495 265.147 329.439 265.584C328.383 266.022 327.251 266.248 326.108 266.248H87.0494C84.7412 266.248 82.5275 265.33 80.8953 263.696C79.2632 262.062 78.3463 259.846 78.3463 257.535V101.092C78.3463 99.8629 78.834 98.6841 79.7021 97.8149C80.5703 96.9458 81.7478 96.4575 82.9756 96.4575Z" fill="#455A64"/>
<path d="M67.6241 253.69H345.486V260.339C345.486 261.417 345.274 262.484 344.862 263.479C344.45 264.475 343.846 265.379 343.085 266.141C342.324 266.903 341.421 267.507 340.426 267.919C339.432 268.332 338.366 268.544 337.29 268.544H75.8195C74.7433 268.544 73.6776 268.332 72.6832 267.919C71.6889 267.507 70.7855 266.903 70.0245 266.141C69.2635 265.379 68.6598 264.475 68.2479 263.479C67.8361 262.484 67.6241 261.417 67.6241 260.339V253.69Z" fill="#455A64"/>
<path d="M327.213 103.203H85.2335V246.585H327.213V103.203Z" fill="#E0E0E0"/>
<path d="M181.297 253.69L184.749 259.179H233.265L236.466 253.69H181.297Z" fill="#263238"/>
<path d="M320.619 111.509H92.4135V246.586H320.619V111.509Z" fill="#263238"/>
<path d="M109.909 242.627C109.79 242.627 109.694 213.857 109.694 178.378C109.694 142.898 109.79 114.123 109.909 114.123C110.029 114.123 110.124 142.886 110.124 178.378C110.124 213.869 110.041 242.627 109.909 242.627Z" fill="#E0E0E0"/>
<path d="M105.316 125.771C105.316 125.885 103.655 125.981 101.612 125.981C99.5695 125.981 97.9029 125.885 97.9029 125.771C97.9029 125.658 99.5635 125.556 101.612 125.556C103.661 125.556 105.316 125.652 105.316 125.771Z" fill="#E0E0E0"/>
<path d="M105.603 118.476C105.603 118.595 103.942 118.691 101.893 118.691C99.8442 118.691 98.1896 118.595 98.1896 118.476C98.1896 118.356 99.8502 118.26 101.893 118.26C103.936 118.26 105.603 118.356 105.603 118.476Z" fill="#E0E0E0"/>
<path d="M105.316 133.629C105.316 133.749 103.655 133.844 101.612 133.844C99.5695 133.844 97.9029 133.749 97.9029 133.629C97.9029 133.509 99.5635 133.414 101.612 133.414C103.661 133.414 105.316 133.509 105.316 133.629Z" fill="#E0E0E0"/>
<path d="M105.316 141.487C105.316 141.607 103.655 141.702 101.612 141.702C99.5695 141.702 97.9029 141.607 97.9029 141.487C97.9029 141.367 99.5635 141.272 101.612 141.272C103.661 141.272 105.316 141.367 105.316 141.487Z" fill="#E0E0E0"/>
<path d="M105.316 149.345C105.316 149.464 103.655 149.56 101.612 149.56C99.5695 149.56 97.9029 149.464 97.9029 149.345C97.9029 149.225 99.5635 149.135 101.612 149.135C103.661 149.135 105.316 149.231 105.316 149.345Z" fill="#E0E0E0"/>
<path d="M105.316 157.208C105.316 157.328 103.655 157.424 101.612 157.424C99.5695 157.424 97.9029 157.328 97.9029 157.208C97.9029 157.089 99.5635 156.993 101.612 156.993C103.661 156.993 105.316 157.089 105.316 157.208Z" fill="#E0E0E0"/>
<path d="M105.316 165.048C105.316 165.168 103.655 165.263 101.612 165.263C99.5695 165.263 97.9029 165.168 97.9029 165.048C97.9029 164.928 99.5635 164.833 101.612 164.833C103.661 164.833 105.316 164.946 105.316 165.048Z" fill="#E0E0E0"/>
<path d="M105.316 172.924C105.316 173.044 103.655 173.139 101.612 173.139C99.5695 173.139 97.9029 173.044 97.9029 172.924C97.9029 172.804 99.5635 172.715 101.612 172.715C103.661 172.715 105.316 172.822 105.316 172.924Z" fill="#E0E0E0"/>
<path d="M105.316 180.788C105.316 180.901 103.655 180.997 101.612 180.997C99.5695 180.997 97.9029 180.901 97.9029 180.788C97.9029 180.674 99.5635 180.572 101.612 180.572C103.661 180.572 105.316 180.668 105.316 180.788Z" fill="#E0E0E0"/>
<path d="M105.316 188.645C105.316 188.765 103.655 188.86 101.612 188.86C99.5695 188.86 97.9029 188.765 97.9029 188.645C97.9029 188.526 99.5635 188.43 101.612 188.43C103.661 188.43 105.316 188.526 105.316 188.645Z" fill="#E0E0E0"/>
<path d="M105.316 196.503C105.316 196.622 103.655 196.718 101.612 196.718C99.5695 196.718 97.9029 196.622 97.9029 196.503C97.9029 196.383 99.5635 196.288 101.612 196.288C103.661 196.288 105.316 196.383 105.316 196.503Z" fill="#E0E0E0"/>
<path d="M105.316 204.367C105.316 204.48 103.655 204.576 101.612 204.576C99.5695 204.576 97.9029 204.48 97.9029 204.367C97.9029 204.253 99.5635 204.151 101.612 204.151C103.661 204.151 105.316 204.247 105.316 204.367Z" fill="#E0E0E0"/>
<path d="M105.316 212.224C105.316 212.344 103.655 212.44 101.612 212.44C99.5695 212.44 97.9029 212.344 97.9029 212.224C97.9029 212.105 99.5635 212.009 101.612 212.009C103.661 212.009 105.316 212.105 105.316 212.224Z" fill="#E0E0E0"/>
<path d="M105.316 220.064C105.316 220.184 103.655 220.279 101.612 220.279C99.5695 220.279 97.9029 220.184 97.9029 220.064C97.9029 219.945 99.5635 219.849 101.612 219.849C103.661 219.849 105.316 219.962 105.316 220.064Z" fill="#E0E0E0"/>
<path d="M105.316 227.94C105.316 228.059 103.655 228.155 101.612 228.155C99.5695 228.155 97.9029 228.059 97.9029 227.94C97.9029 227.82 99.5635 227.73 101.612 227.73C103.661 227.73 105.316 227.838 105.316 227.94Z" fill="#E0E0E0"/>
<path d="M105.316 235.803C105.316 235.923 103.655 236.019 101.612 236.019C99.5695 236.019 97.9029 235.923 97.9029 235.803C97.9029 235.684 99.5635 235.588 101.612 235.588C103.661 235.588 105.316 235.684 105.316 235.803Z" fill="#E0E0E0"/>
<path d="M135.033 235.803C135.033 235.923 130.726 236.019 125.41 236.019C120.094 236.019 115.793 235.923 115.793 235.803C115.793 235.684 120.1 235.588 125.41 235.588C130.72 235.588 135.033 235.684 135.033 235.803Z" fill="#0FB6AC"/>
<path d="M141.681 124.593C141.681 124.713 137.375 124.809 132.064 124.809C126.754 124.809 122.441 124.713 122.441 124.593C122.441 124.474 126.748 124.378 132.064 124.378C137.381 124.378 141.681 124.474 141.681 124.593Z" fill="#0FB6AC"/>
<path d="M161.83 141.487C161.83 141.607 153.766 141.702 143.832 141.702C133.898 141.702 125.828 141.607 125.828 141.487C125.828 141.367 133.886 141.272 143.832 141.272C153.777 141.272 161.83 141.367 161.83 141.487Z" fill="#0FB6AC"/>
<path d="M203.452 141.487C203.452 141.607 195.394 141.702 185.454 141.702C175.514 141.702 167.456 141.607 167.456 141.487C167.456 141.367 175.514 141.272 185.454 141.272C195.394 141.272 203.452 141.367 203.452 141.487Z" fill="#E0E0E0"/>
<path d="M187.563 149.345C187.563 149.464 175.688 149.56 161.035 149.56C146.382 149.56 134.508 149.464 134.508 149.345C134.508 149.225 146.382 149.135 161.035 149.135C175.688 149.135 187.563 149.231 187.563 149.345Z" fill="#E0E0E0"/>
<path d="M187.563 157.208C187.563 157.328 175.688 157.424 161.035 157.424C146.382 157.424 134.508 157.328 134.508 157.208C134.508 157.089 146.382 156.993 161.035 156.993C175.688 156.993 187.563 157.089 187.563 157.208Z" fill="#E0E0E0"/>
<path d="M224.066 180.788C224.066 180.901 212.185 180.997 197.538 180.997C182.892 180.997 171.011 180.901 171.011 180.788C171.011 180.674 182.886 180.572 197.538 180.572C212.191 180.572 224.066 180.668 224.066 180.788Z" fill="#E0E0E0"/>
<path d="M208.308 165.048C208.308 165.168 196.427 165.263 181.781 165.263C167.134 165.263 155.253 165.168 155.253 165.048C155.253 164.928 167.128 164.833 181.781 164.833C196.433 164.833 208.308 164.946 208.308 165.048Z" fill="#E0E0E0"/>
<path d="M273.137 165.048C273.137 165.168 261.262 165.263 246.609 165.263C231.956 165.263 220.081 165.168 220.081 165.048C220.081 164.928 231.956 164.833 246.609 164.833C261.262 164.833 273.137 164.946 273.137 165.048Z" fill="#E0E0E0"/>
<path d="M250.593 149.345C250.593 149.464 238.712 149.56 224.066 149.56C209.419 149.56 197.538 149.464 197.538 149.345C197.538 149.225 209.413 149.135 224.066 149.135C238.718 149.135 250.593 149.231 250.593 149.345Z" fill="#FAFAFA"/>
<path d="M287.24 180.788C287.24 180.901 275.359 180.997 260.712 180.997C246.065 180.997 234.185 180.901 234.185 180.788C234.185 180.674 246.059 180.572 260.712 180.572C275.365 180.572 287.24 180.668 287.24 180.788Z" fill="#FAFAFA"/>
<path d="M279.922 157.208C279.922 157.328 261.477 157.424 238.706 157.424C215.936 157.424 197.49 157.328 197.49 157.208C197.49 157.089 215.93 156.993 238.706 156.993C261.483 156.993 279.922 157.089 279.922 157.208Z" fill="#455A64"/>
<path d="M135.033 227.94C135.033 228.059 130.726 228.155 125.41 228.155C120.094 228.155 115.793 228.059 115.793 227.94C115.793 227.82 120.1 227.73 125.41 227.73C130.72 227.73 135.033 227.838 135.033 227.94Z" fill="#FAFAFA"/>
<path d="M144.555 165.048C144.555 165.168 140.248 165.263 134.932 165.263C129.615 165.263 125.315 165.168 125.315 165.048C125.315 164.928 129.621 164.833 134.932 164.833C140.242 164.833 144.555 164.946 144.555 165.048Z" fill="#FAFAFA"/>
<path d="M298.768 165.048C298.768 165.168 294.461 165.263 289.151 165.263C283.841 165.263 279.552 165.186 279.552 165.048C279.552 164.91 283.859 164.833 289.175 164.833C294.491 164.833 298.768 164.946 298.768 165.048Z" fill="#0FB6AC"/>
<path d="M161.83 196.461C161.83 196.575 153.766 196.67 143.832 196.67C133.898 196.67 125.828 196.575 125.828 196.461C125.828 196.348 133.886 196.246 143.832 196.246C153.777 196.246 161.83 196.342 161.83 196.461Z" fill="#0FB6AC"/>
<path d="M203.452 196.461C203.452 196.575 195.394 196.67 185.454 196.67C175.514 196.67 167.456 196.575 167.456 196.461C167.456 196.348 175.514 196.246 185.454 196.246C195.394 196.246 203.452 196.342 203.452 196.461Z" fill="#E0E0E0"/>
<path d="M187.563 204.319C187.563 204.438 175.688 204.534 161.035 204.534C146.382 204.534 134.508 204.438 134.508 204.319C134.508 204.199 146.382 204.104 161.035 204.104C175.688 204.104 187.563 204.199 187.563 204.319Z" fill="#E0E0E0"/>
<path d="M187.563 212.176C187.563 212.296 175.688 212.392 161.035 212.392C146.382 212.392 134.508 212.296 134.508 212.176C134.508 212.057 146.382 211.961 161.035 211.961C175.688 211.961 187.563 212.057 187.563 212.176Z" fill="#E0E0E0"/>
<path d="M208.308 220.064C208.308 220.184 196.427 220.279 181.781 220.279C167.134 220.279 155.253 220.184 155.253 220.064C155.253 219.944 167.128 219.855 181.781 219.855C196.433 219.855 208.308 219.921 208.308 220.064Z" fill="#E0E0E0"/>
<path d="M273.137 220.064C273.137 220.184 261.262 220.279 246.609 220.279C231.956 220.279 220.081 220.184 220.081 220.064C220.081 219.944 231.956 219.855 246.609 219.855C261.262 219.855 273.137 219.921 273.137 220.064Z" fill="#E0E0E0"/>
<path d="M197.072 227.742C197.072 227.862 185.197 227.958 170.551 227.958C155.904 227.958 144.017 227.862 144.017 227.742C144.017 227.623 155.892 227.527 170.551 227.527C185.209 227.527 197.072 227.623 197.072 227.742Z" fill="#E0E0E0"/>
<path d="M178.716 131.56C178.716 131.68 166.835 131.775 152.189 131.775C137.542 131.775 125.661 131.68 125.661 131.56C125.661 131.44 137.536 131.345 152.189 131.345C166.841 131.345 178.716 131.458 178.716 131.56Z" fill="#E0E0E0"/>
<path d="M250.593 204.319C250.593 204.438 238.712 204.534 224.066 204.534C209.419 204.534 197.538 204.438 197.538 204.319C197.538 204.199 209.413 204.104 224.066 204.104C238.718 204.104 250.593 204.199 250.593 204.319Z" fill="#FAFAFA"/>
<path d="M279.922 212.176C279.922 212.296 261.477 212.392 238.706 212.392C215.936 212.392 197.49 212.296 197.49 212.176C197.49 212.057 215.93 211.961 238.706 211.961C261.483 211.961 279.922 212.057 279.922 212.176Z" fill="#455A64"/>
<path d="M144.555 220.064C144.555 220.184 140.248 220.279 134.932 220.279C129.615 220.279 125.315 220.184 125.315 220.064C125.315 219.944 129.621 219.855 134.932 219.855C140.242 219.855 144.555 219.921 144.555 220.064Z" fill="#FAFAFA"/>
<path d="M298.768 220.064C298.768 220.184 294.461 220.279 289.151 220.279C283.841 220.279 279.552 220.154 279.552 220.064C279.552 219.974 283.859 219.855 289.175 219.855C294.491 219.855 298.768 219.921 298.768 220.064Z" fill="#0FB6AC"/>
<path d="M225.75 73.8649C225.75 73.8649 225.75 73.6735 225.75 73.2669C225.75 72.8603 225.75 72.3101 225.75 71.5686C225.75 70.8271 225.75 69.8942 225.75 68.8058C225.728 68.2093 225.829 67.6147 226.049 67.0597C226.313 66.4308 226.737 65.8823 227.279 65.469C227.882 64.9978 228.613 64.7204 229.376 64.6736C230.17 64.6736 230.989 64.6736 231.855 64.6736H237.464H251.131L330.242 64.5839H373.847H384.802C385.202 64.5694 385.602 64.5935 385.997 64.6557C386.785 64.8015 387.511 65.1838 388.077 65.752C388.644 66.3202 389.025 67.0474 389.169 67.8371C389.228 68.2188 389.252 68.6051 389.24 68.9912V70.1154C389.24 76.0954 389.24 81.6269 389.24 86.704C389.24 96.87 389.204 105.039 389.193 110.72C389.193 113.548 389.193 115.749 389.193 117.25C389.193 117.991 389.193 118.559 389.193 118.948C389.193 119.337 389.193 119.546 389.193 119.546C389.193 119.546 389.193 119.349 389.193 118.948C389.193 118.547 389.193 117.991 389.193 117.25C389.193 115.749 389.193 113.548 389.163 110.72C389.163 105.039 389.163 96.8401 389.115 86.704C389.115 81.6269 389.115 76.0775 389.115 70.1154V68.9912C389.129 68.6212 389.107 68.2506 389.049 67.8849C388.916 67.1408 388.558 66.4555 388.024 65.9209C387.49 65.3864 386.806 65.0283 386.063 64.8949C385.683 64.8366 385.299 64.8145 384.916 64.8291H373.829H330.224L251.065 64.7813H237.398H231.789C230.929 64.7813 230.099 64.7813 229.322 64.7813C228.583 64.8262 227.874 65.0906 227.285 65.5407C226.762 65.9417 226.35 66.471 226.091 67.0776C225.876 67.6193 225.774 68.1993 225.792 68.7819C225.792 69.8703 225.792 70.7912 225.792 71.5447C225.792 72.2862 225.792 72.8483 225.792 73.243C225.792 73.6377 225.75 73.8649 225.75 73.8649Z" fill="#263238"/>
<path d="M390.656 119.558C390.656 119.862 390.566 120.159 390.397 120.412C390.229 120.665 389.989 120.862 389.708 120.978C389.428 121.094 389.119 121.125 388.821 121.065C388.524 121.006 388.25 120.86 388.035 120.645C387.821 120.43 387.674 120.156 387.615 119.858C387.556 119.56 387.586 119.251 387.703 118.97C387.819 118.689 388.016 118.449 388.268 118.28C388.52 118.111 388.817 118.021 389.121 118.021C389.528 118.021 389.918 118.183 390.206 118.471C390.494 118.76 390.656 119.15 390.656 119.558Z" fill="#263238"/>
<path d="M227.285 73.8649C227.286 74.1691 227.197 74.4668 227.03 74.7203C226.862 74.9738 226.622 75.1718 226.342 75.289C226.061 75.4062 225.753 75.4375 225.454 75.3789C225.156 75.3203 224.882 75.1744 224.667 74.9597C224.451 74.745 224.305 74.4712 224.245 74.1729C224.185 73.8746 224.215 73.5653 224.331 73.2841C224.447 73.0029 224.644 72.7626 224.897 72.5934C225.149 72.4243 225.446 72.334 225.75 72.334C226.156 72.334 226.546 72.4951 226.834 72.782C227.121 73.0689 227.284 73.4583 227.285 73.8649Z" fill="#263238"/>
<path d="M146.651 80.3892V211.824H264.637H279.313H364.146V80.3892H146.651Z" fill="#FAFAFA"/>
<path d="M364.146 80.3892H146.651V90.1067H364.146V80.3892Z" fill="#E0E0E0"/>
<path d="M152.23 86.6801C152.926 86.6801 153.491 86.1151 153.491 85.4183C153.491 84.7214 152.926 84.1565 152.23 84.1565C151.534 84.1565 150.97 84.7214 150.97 85.4183C150.97 86.1151 151.534 86.6801 152.23 86.6801Z" fill="#263238"/>
<path d="M158.18 85.4183C158.18 85.6678 158.106 85.9118 157.967 86.1193C157.829 86.3268 157.632 86.4885 157.402 86.584C157.172 86.6795 156.918 86.7045 156.674 86.6558C156.429 86.6071 156.205 86.487 156.028 86.3105C155.852 86.134 155.732 85.9092 155.683 85.6644C155.635 85.4197 155.66 85.166 155.755 84.9354C155.85 84.7049 156.012 84.5078 156.219 84.3691C156.427 84.2305 156.67 84.1565 156.919 84.1565C157.085 84.1565 157.249 84.1891 157.402 84.2525C157.555 84.316 157.694 84.4089 157.811 84.5261C157.928 84.6432 158.021 84.7823 158.084 84.9354C158.147 85.0885 158.18 85.2526 158.18 85.4183Z" fill="#263238"/>
<path d="M161.609 86.6801C162.305 86.6801 162.869 86.1151 162.869 85.4183C162.869 84.7214 162.305 84.1565 161.609 84.1565C160.912 84.1565 160.348 84.7214 160.348 85.4183C160.348 86.1151 160.912 86.6801 161.609 86.6801Z" fill="#263238"/>
<path d="M252.075 101.301C252.075 101.373 247.636 101.433 242.165 101.433C236.693 101.433 232.249 101.373 232.249 101.301C232.249 101.229 236.687 101.17 242.165 101.17C247.642 101.17 252.075 101.229 252.075 101.301Z" fill="#263238"/>
<path d="M278.447 101.301C278.447 101.373 274.009 101.433 268.531 101.433C263.054 101.433 258.621 101.373 258.621 101.301C258.621 101.229 263.06 101.17 268.531 101.17C274.003 101.17 278.447 101.229 278.447 101.301Z" fill="#0FB6AC"/>
<path d="M304.813 101.301C304.813 101.373 300.375 101.433 294.903 101.433C289.432 101.433 284.994 101.373 284.994 101.301C284.994 101.229 289.426 101.17 294.903 101.17C300.381 101.17 304.813 101.229 304.813 101.301Z" fill="#263238"/>
<path d="M331.418 101.301C331.418 101.373 326.98 101.433 321.509 101.433C316.037 101.433 311.593 101.373 311.593 101.301C311.593 101.229 316.031 101.17 321.509 101.17C326.986 101.17 331.418 101.229 331.418 101.301Z" fill="#263238"/>
<path d="M354.529 104.459C354.529 104.459 354.697 104.459 355.001 104.375C355.445 104.267 355.844 104.022 356.142 103.675C356.356 103.44 356.515 103.16 356.608 102.856C356.687 102.463 356.711 102.06 356.68 101.66C356.626 100.829 356.877 99.7464 356.124 98.957C355.76 98.5541 355.256 98.306 354.714 98.2633C354.117 98.2633 353.52 98.2633 352.922 98.2633H348.884H339.596C339.213 98.2667 338.839 98.3742 338.513 98.5744C338.186 98.7745 337.921 99.0598 337.744 99.3995C337.576 99.7389 337.498 100.116 337.517 100.494V101.69C337.489 102.062 337.513 102.437 337.589 102.802C337.679 103.148 337.858 103.463 338.109 103.717C338.352 103.967 338.654 104.152 338.987 104.255C339.325 104.337 339.673 104.367 340.02 104.345L347.57 104.375L352.666 104.417H354.045H354.41C354.449 104.409 354.49 104.409 354.529 104.417H354.41H354.045H352.666L347.57 104.459H340.02C339.649 104.483 339.276 104.449 338.915 104.357C338.542 104.243 338.203 104.038 337.929 103.759C337.506 103.325 337.267 102.745 337.26 102.138C337.26 101.947 337.26 101.75 337.26 101.54V100.344C337.245 99.9305 337.333 99.5194 337.517 99.1484C337.717 98.7669 338.017 98.4465 338.384 98.2213C338.751 97.996 339.172 97.8742 339.602 97.8687H348.849H352.887C353.52 97.8687 354.117 97.8687 354.72 97.8687C355.314 97.9173 355.865 98.1963 356.256 98.6461C356.624 99.0419 356.836 99.5583 356.853 100.099C356.853 100.584 356.853 101.044 356.853 101.469C356.876 101.87 356.844 102.272 356.757 102.665C356.662 102.996 356.493 103.301 356.262 103.556C355.946 103.905 355.527 104.143 355.067 104.237C354.901 104.341 354.72 104.415 354.529 104.459Z" fill="#263238"/>
<path d="M191.433 97.7729H168.275C165.998 97.7729 164.153 99.6203 164.153 101.899C164.153 104.178 165.998 106.025 168.275 106.025H191.433C193.71 106.025 195.555 104.178 195.555 101.899C195.555 99.6203 193.71 97.7729 191.433 97.7729Z" fill="#E0E0E0"/>
<path d="M211.36 125.143H165.103V169.945H211.36V125.143Z" fill="#0FB6AC"/>
<g opacity="0.3">
<path d="M168.693 166.112L181.488 143.053L191.959 157.794L198.315 149.966L207.776 166.112H168.693Z" fill="black"/>
</g>
<g opacity="0.3">
<path d="M196.415 138.568C196.416 139.229 196.222 139.875 195.856 140.425C195.49 140.974 194.97 141.403 194.36 141.656C193.751 141.909 193.08 141.976 192.433 141.847C191.786 141.719 191.192 141.401 190.725 140.934C190.259 140.467 189.941 139.872 189.813 139.224C189.684 138.576 189.751 137.905 190.004 137.295C190.257 136.685 190.685 136.164 191.234 135.797C191.783 135.431 192.428 135.236 193.088 135.238C193.97 135.239 194.815 135.591 195.439 136.215C196.063 136.839 196.414 137.686 196.415 138.568Z" fill="black"/>
</g>
<path opacity="0.3" d="M207.776 128.66L168.699 128.63L168.472 128.857V138.915C168.472 142.208 168.472 145.427 168.472 148.573C168.472 154.846 168.472 160.778 168.472 166.238V166.429H168.663L197.048 166.328L204.975 166.28H207.048H207.579H207.747C207.683 166.271 207.619 166.271 207.555 166.28H207.006H204.891L196.923 166.232L168.848 166.136C168.848 160.754 168.848 154.864 168.848 148.663V138.915C168.848 137.273 168.848 135.61 168.848 133.928V129.072L207.526 129.042C207.561 140.147 207.597 149.374 207.621 155.904C207.621 159.169 207.657 161.735 207.669 163.511C207.669 164.378 207.669 165.054 207.669 165.532C207.669 165.747 207.669 165.915 207.669 166.052C207.669 166.19 207.669 166.232 207.669 166.238C207.674 166.182 207.674 166.126 207.669 166.07C207.669 165.945 207.669 165.777 207.669 165.568C207.669 165.102 207.669 164.444 207.669 163.589C207.669 161.825 207.669 159.271 207.723 156.024C207.723 149.446 207.776 140.093 207.818 128.851V128.66H207.776Z" fill="black"/>
<path d="M205.566 176.829C205.566 176.912 197.801 176.984 188.196 176.984C178.591 176.984 170.837 176.912 170.837 176.829C170.837 176.745 178.603 176.673 188.208 176.673C197.813 176.673 205.566 176.739 205.566 176.829Z" fill="#263238"/>
<path d="M212.525 182.013C212.525 182.103 201.911 182.175 188.823 182.175C175.735 182.175 165.127 182.103 165.127 182.013C165.127 181.923 175.735 181.858 188.823 181.858C201.911 181.858 212.525 181.929 212.525 182.013Z" fill="#263238"/>
<path d="M212.525 187.042C212.525 187.126 201.911 187.198 188.823 187.198C175.735 187.198 165.127 187.126 165.127 187.042C165.127 186.959 175.735 186.887 188.823 186.887C201.911 186.887 212.525 186.953 212.525 187.042Z" fill="#263238"/>
<path d="M212.525 192.066C212.525 192.149 201.911 192.221 188.823 192.221C175.735 192.221 165.127 192.149 165.127 192.066C165.127 191.982 175.735 191.91 188.823 191.91C201.911 191.91 212.525 191.958 212.525 192.066Z" fill="#263238"/>
<path d="M184.689 197.089C184.689 197.173 180.305 197.244 174.905 197.244C169.505 197.244 165.127 197.173 165.127 197.089C165.127 197.005 169.505 196.933 174.905 196.933C180.305 196.933 184.689 196.999 184.689 197.089Z" fill="#263238"/>
<path d="M278.662 125.143H232.404V169.945H278.662V125.143Z" fill="#0FB6AC"/>
<g opacity="0.3">
<path d="M235.994 166.112L248.789 143.053L259.255 157.794L265.616 149.966L275.078 166.112H235.994Z" fill="black"/>
</g>
<g opacity="0.3">
<path d="M263.717 138.568C263.718 139.229 263.523 139.875 263.157 140.425C262.792 140.974 262.271 141.403 261.662 141.656C261.053 141.909 260.382 141.976 259.735 141.847C259.088 141.719 258.493 141.401 258.027 140.934C257.56 140.467 257.243 139.872 257.114 139.224C256.986 138.576 257.052 137.905 257.305 137.295C257.558 136.685 257.986 136.164 258.536 135.797C259.085 135.431 259.73 135.236 260.39 135.238C261.272 135.239 262.117 135.591 262.74 136.215C263.364 136.839 263.715 137.686 263.717 138.568Z" fill="black"/>
</g>
<path opacity="0.3" d="M275.078 128.66L236 128.63L235.773 128.857V138.915C235.773 142.208 235.773 145.427 235.773 148.573C235.773 154.846 235.773 160.778 235.773 166.238V166.429H235.965L264.35 166.328L272.276 166.28H274.349H274.881H275.048C274.985 166.271 274.92 166.271 274.857 166.28H274.307H272.193L264.224 166.232L236.15 166.136C236.15 160.754 236.15 154.864 236.15 148.663V138.915C236.15 137.273 236.15 135.61 236.15 133.928V129.072L274.827 129.042C274.863 140.147 274.899 149.374 274.923 155.904C274.923 159.169 274.958 161.735 274.97 163.511C274.97 164.378 274.97 165.054 274.97 165.532C274.97 165.747 274.97 165.915 274.97 166.052C274.97 166.19 274.97 166.232 274.97 166.238C274.976 166.182 274.976 166.126 274.97 166.07C274.97 165.945 274.97 165.777 274.97 165.568C274.97 165.102 274.97 164.444 274.97 163.589C274.97 161.825 275 159.271 275.024 156.024C275.024 149.446 275.078 140.093 275.12 128.851V128.66H275.078Z" fill="black"/>
<path d="M272.868 176.829C272.868 176.912 265.103 176.984 255.497 176.984C245.892 176.984 238.127 176.912 238.127 176.829C238.127 176.745 245.892 176.673 255.497 176.673C265.103 176.673 272.868 176.739 272.868 176.829Z" fill="#263238"/>
<path d="M279.827 182.013C279.827 182.103 269.212 182.175 256.125 182.175C243.037 182.175 232.428 182.103 232.428 182.013C232.428 181.923 243.037 181.858 256.125 181.858C269.212 181.858 279.827 181.929 279.827 182.013Z" fill="#263238"/>
<path d="M279.827 187.042C279.827 187.126 269.212 187.198 256.125 187.198C243.037 187.198 232.428 187.126 232.428 187.042C232.428 186.959 243.037 186.887 256.125 186.887C269.212 186.887 279.827 186.953 279.827 187.042Z" fill="#263238"/>
<path d="M279.827 192.066C279.827 192.149 269.212 192.221 256.125 192.221C243.037 192.221 232.428 192.149 232.428 192.066C232.428 191.982 243.037 191.91 256.125 191.91C269.212 191.91 279.827 191.958 279.827 192.066Z" fill="#263238"/>
<path d="M251.991 197.089C251.991 197.173 247.607 197.244 242.207 197.244C236.807 197.244 232.428 197.173 232.428 197.089C232.428 197.005 236.807 196.933 242.207 196.933C247.607 196.933 251.991 196.999 251.991 197.089Z" fill="#263238"/>
<path d="M344.715 125.143H298.458V169.945H344.715V125.143Z" fill="#0FB6AC"/>
<g opacity="0.3">
<path d="M302.042 166.112L314.842 143.053L325.308 157.794L331.669 149.966L341.131 166.112H302.042Z" fill="black"/>
</g>
<g opacity="0.3">
<path d="M329.764 138.568C329.764 139.227 329.569 139.871 329.203 140.419C328.838 140.967 328.318 141.394 327.71 141.646C327.102 141.898 326.433 141.964 325.788 141.835C325.142 141.707 324.549 141.39 324.084 140.924C323.619 140.458 323.302 139.864 323.173 139.218C323.045 138.572 323.111 137.902 323.363 137.294C323.615 136.685 324.041 136.165 324.588 135.799C325.135 135.433 325.779 135.238 326.437 135.238C327.319 135.238 328.165 135.588 328.789 136.213C329.413 136.838 329.764 137.685 329.764 138.568Z" fill="black"/>
</g>
<path opacity="0.3" d="M341.131 128.66L302.048 128.63L301.827 128.857V138.915C301.827 142.208 301.827 145.427 301.827 148.573C301.827 154.846 301.827 160.778 301.827 166.238V166.429H302.018L330.403 166.328L338.33 166.28H340.408H340.934H341.107C341.044 166.272 340.979 166.272 340.916 166.28H340.366H338.252L330.325 166.142L302.251 166.047C302.251 160.665 302.251 154.774 302.251 148.573C302.251 145.435 302.251 142.216 302.251 138.915V129.072L340.928 129.042C340.97 140.147 341 149.374 341.024 155.904C341.024 159.169 341.065 161.735 341.077 163.511C341.077 164.378 341.077 165.054 341.077 165.532C341.077 165.747 341.077 165.915 341.077 166.052C341.073 166.114 341.073 166.176 341.077 166.238C341.077 166.238 341.077 166.184 341.077 166.07C341.077 165.957 341.077 165.777 341.077 165.568C341.077 165.102 341.077 164.444 341.077 163.589C341.077 161.825 341.107 159.271 341.125 156.024C341.125 149.446 341.185 140.093 341.227 128.851V128.66H341.131Z" fill="black"/>
<path d="M338.915 176.829C338.915 176.912 331.15 176.984 321.551 176.984C311.951 176.984 304.18 176.912 304.18 176.829C304.18 176.745 311.945 176.673 321.551 176.673C331.156 176.673 338.915 176.739 338.915 176.829Z" fill="#263238"/>
<path d="M345.856 182.013C345.856 182.103 335.247 182.175 322.16 182.175C309.072 182.175 298.464 182.103 298.464 182.013C298.464 181.923 309.072 181.858 322.16 181.858C335.247 181.858 345.856 181.929 345.856 182.013Z" fill="#263238"/>
<path d="M345.856 187.042C345.856 187.126 335.247 187.198 322.16 187.198C309.072 187.198 298.464 187.126 298.464 187.042C298.464 186.959 309.072 186.887 322.16 186.887C335.247 186.887 345.856 186.953 345.856 187.042Z" fill="#263238"/>
<path d="M345.856 192.066C345.856 192.149 335.247 192.221 322.16 192.221C309.072 192.221 298.464 192.149 298.464 192.066C298.464 191.982 309.072 191.91 322.16 191.91C335.247 191.91 345.856 191.958 345.856 192.066Z" fill="#263238"/>
<path d="M318.038 197.089C318.038 197.173 313.66 197.244 308.26 197.244C302.86 197.244 298.482 197.173 298.482 197.089C298.482 197.005 302.854 196.933 308.26 196.933C313.666 196.933 318.038 196.999 318.038 197.089Z" fill="#263238"/>
<path d="M364.146 111.646C364.146 111.73 315.494 111.802 255.497 111.802C195.501 111.802 146.836 111.73 146.836 111.646C146.836 111.563 195.477 111.491 255.497 111.491C315.517 111.491 364.146 111.563 364.146 111.646Z" fill="#E0E0E0"/>
<path d="M146.651 80.389L364.146 80.2395H364.29V80.389C364.29 120.82 364.29 165.251 364.29 211.805V211.979H364.134L146.639 211.943H146.52V211.823C146.592 131.303 146.639 81.3697 146.639 80.389C146.639 81.3697 146.687 131.303 146.765 211.823L146.639 211.698L364.146 211.692L363.991 211.847C363.991 165.293 363.991 120.862 363.991 80.4309L364.134 80.5744L146.651 80.389Z" fill="#263238"/>
</svg>
