<svg width="90" height="25" viewBox="0 0 90 25" fill="none" xmlns="http://www.w3.org/2000/svg">
<g clip-path="url(#clip0_1334_99)">
<path d="M89.9825 4.55292C89.9725 4.51939 89.9623 4.48586 89.949 4.45233C82.0031 4.45568 74.0606 4.45233 66.1181 4.45568C66.098 4.47916 66.0846 4.50263 66.0812 4.53281C66.0812 10.6925 66.0812 16.8487 66.0778 23.0084C66.1281 23.337 66.3093 23.6354 66.5508 23.8601C66.5609 23.8634 66.5844 23.8667 66.5944 23.8701C66.7185 24.0008 66.8963 24.0646 67.064 24.1249C67.1881 24.1183 67.3088 24.1719 67.4329 24.1585H77.294C77.3879 24.1551 77.4851 24.1719 77.5757 24.135C77.5791 24.1217 77.5824 24.0981 77.5857 24.0847C77.5891 24.068 77.5924 24.0311 77.5958 24.011C77.8072 22.8307 78.0117 21.6471 78.2365 20.4668L78.2566 20.3159C77.3443 20.3125 76.4286 20.3159 75.5163 20.3125C75.2949 20.3058 75.0669 20.3125 74.8455 20.2856C74.4666 20.2689 74.0842 20.2823 73.7052 20.2454C73.2356 20.2454 72.7694 20.2018 72.2998 20.2018C71.9309 20.1649 71.5585 20.1784 71.1862 20.1616C70.9448 20.1315 70.6965 20.1448 70.4518 20.1347C70.0526 20.0912 69.6468 20.1214 69.2476 20.0778C68.825 20.0812 68.4024 20.0442 67.9798 20.0342C67.9831 20.0308 67.9865 20.0174 67.9865 20.014C68.1274 20.0174 68.2649 20.0074 68.4058 20.004C68.7177 19.9637 69.033 19.9906 69.3449 19.947C69.6703 19.947 69.9923 19.9034 70.3176 19.9034C70.6061 19.8631 70.8979 19.8867 71.1862 19.8464C71.5251 19.8464 71.8571 19.8028 72.1959 19.7994C72.4743 19.7626 72.756 19.7827 73.0344 19.7458C73.3598 19.7491 73.6818 19.6988 74.0071 19.7022C74.3257 19.6653 74.651 19.6753 74.9697 19.6418C74.9395 19.5178 74.916 19.3937 74.8892 19.2696C74.8658 19.1925 74.7718 19.2093 74.7115 19.1992C73.9836 19.0952 73.2591 18.9913 72.5347 18.8907C72.5816 18.8538 72.6453 18.8705 72.699 18.8639C73.2625 18.8202 73.8226 18.7699 74.3861 18.7297C74.5136 18.7231 74.6377 18.6996 74.7651 18.6962C74.7081 18.5219 74.6746 18.3307 74.5974 18.1698C73.3934 17.9854 72.1892 17.8211 70.9884 17.6232C71.3004 17.5729 71.6156 17.5495 71.9276 17.5159L71.9544 17.5058C72.9506 17.4018 73.9501 17.2845 74.9463 17.1873C76.2107 17.1806 77.4719 17.1839 78.7364 17.1873C78.7766 17.1806 78.8471 17.2007 78.8538 17.1437C78.9578 16.6005 79.0584 16.0573 79.1623 15.5141C79.3065 14.7597 79.5346 14.0153 79.8868 13.3279C80.4402 12.2214 81.3156 11.2825 82.3822 10.6589C83.3783 10.0754 84.5322 9.79375 85.6793 9.7401C86.0516 9.70657 86.4273 9.71663 86.7962 9.76357C87.0377 9.82058 87.2859 9.88764 87.4771 10.0519C87.6347 10.1794 87.7286 10.3671 87.7991 10.5549C87.9534 11.0009 88.0406 11.4636 88.1144 11.9297C88.1177 12.1175 88.1513 12.3287 88.0506 12.4997C87.9567 12.6674 87.769 12.7478 87.5912 12.7981C86.9438 12.9658 86.2663 12.8082 85.6189 12.9658C85.0857 13.0798 84.5892 13.3748 84.2504 13.8007C83.8513 14.2969 83.64 14.9138 83.5226 15.5309C83.4321 16.0808 83.318 16.6307 83.2274 17.184C83.8647 17.1874 84.5054 17.1806 85.146 17.1874C85.4009 17.1874 85.6625 17.3282 85.7665 17.5696C85.9007 17.8781 85.8705 18.2268 85.8269 18.5521C85.7732 18.9175 85.686 19.2796 85.5217 19.615C85.3841 19.9 85.1561 20.1615 84.8441 20.2621C84.6831 20.3258 84.5087 20.3124 84.3377 20.3124C83.7741 20.3124 83.2106 20.3191 82.6472 20.3124C82.5566 20.7249 82.4963 21.1474 82.4158 21.5665C82.2682 22.3813 82.124 23.1994 81.9764 24.0176C81.973 24.0445 81.9697 24.1014 81.9697 24.1316C82.2346 24.145 82.4996 24.1316 82.7646 24.1383C84.7301 24.1383 86.6989 24.1349 88.6678 24.1383C88.8791 24.145 89.0938 24.0947 89.2782 23.9907C89.3889 23.9505 89.456 23.8533 89.5533 23.7997C89.6472 23.746 89.674 23.6354 89.7545 23.5649C89.8417 23.4107 89.9323 23.2498 89.939 23.0686C89.9491 23.0686 89.9759 23.0653 89.9893 23.062C89.9791 16.8923 89.9892 10.7226 89.9825 4.55292Z" fill="url(#paint0_linear_1334_99)" stroke="#FCD109" stroke-width="0.094"/>
<path d="M69.2072 0.49571C69.4923 0.405177 69.7909 0.465532 70.0827 0.445414C75.56 0.448767 81.0372 0.445414 86.5144 0.445414C86.8397 0.432001 87.1248 0.616422 87.4267 0.710309C87.6682 0.807549 87.9198 0.88467 88.1612 0.988616C88.2116 1.00873 88.2485 1.05233 88.2853 1.08921C88.2819 1.53182 88.2853 1.97778 88.2853 2.42374C88.2887 2.5411 88.2685 2.66181 88.3088 2.77582C88.3793 2.78588 88.4161 2.83953 88.4631 2.88312C88.6845 2.98371 88.8722 3.14801 89.0735 3.28214C89.3754 3.49674 89.6974 3.68451 89.9925 3.90581C90.0059 3.99299 89.9959 4.08353 89.969 4.164C89.9389 4.25789 89.959 4.35848 89.9489 4.45237C82.0031 4.45572 74.0606 4.45237 66.1181 4.45572C66.1013 4.34507 66.1315 4.23442 66.0845 4.13047C66.0778 4.04329 66.0476 3.92929 66.1315 3.86893C66.4669 3.63421 66.8224 3.42297 67.1511 3.17484C67.3557 3.04407 67.5535 2.90994 67.7514 2.77582C67.7917 2.70876 67.7783 2.62493 67.7783 2.55116C67.7783 2.06496 67.7783 1.57876 67.7816 1.09256C67.8957 0.945026 68.0936 0.92826 68.2512 0.854492C68.57 0.733781 68.892 0.616422 69.2072 0.49571ZM69.2274 0.552713C68.798 0.717015 68.3654 0.874611 67.936 1.03891C67.879 1.04897 67.8488 1.09927 67.8187 1.14286C67.822 1.16968 67.8254 1.21663 67.8254 1.24345C67.8219 1.64582 67.8254 2.0482 67.8219 2.45057C67.8254 2.55116 67.8119 2.65175 67.8488 2.74229C67.8052 2.78588 67.7583 2.82947 67.7045 2.863C67.2182 3.17819 66.7486 3.52021 66.2623 3.83205C66.1784 3.88234 66.0845 3.9494 66.1114 4.06006C66.0946 4.12041 66.1248 4.17071 66.1885 4.15394C67.2417 4.14724 68.2915 4.16065 69.3448 4.14388C70.9111 4.14388 72.4741 4.14724 74.0405 4.14388L74.064 4.13383C74.1344 4.15059 74.2048 4.14388 74.2786 4.14388C77.1161 4.14388 79.9537 4.14724 82.7946 4.14388C83.6868 4.14724 84.5824 4.14388 85.4779 4.14388C86.9537 4.14388 88.4329 4.1573 89.9087 4.15059C89.9523 4.14053 89.9657 4.11035 89.9489 4.0567C89.9455 4.00305 89.9657 3.92929 89.9087 3.89575C89.6739 3.7851 89.4726 3.61409 89.2479 3.47997C89.1675 3.41291 89.0634 3.37602 89.0031 3.28549C88.7716 3.15472 88.557 2.99377 88.3289 2.84959C88.2852 2.82276 88.2517 2.77917 88.2148 2.74229C88.235 2.67187 88.2417 2.59475 88.2417 2.52098C88.2383 2.09514 88.2417 1.6693 88.2383 1.24345C88.2484 1.17639 88.245 1.09927 88.1846 1.05568C87.7821 0.911495 87.383 0.757252 86.9838 0.609716C86.8597 0.54936 86.7222 0.515829 86.588 0.49571H69.4453C69.3716 0.499063 69.3012 0.535948 69.2274 0.552713Z" fill="#F8F3B5" stroke="#F8F3B5" stroke-width="0.094"/>
<path d="M67.8254 1.24341C68.1205 1.36747 68.4358 1.43789 68.7343 1.5586C68.8953 1.62231 68.9456 1.79667 69.0161 1.9375C68.9456 2.00792 68.8617 2.06492 68.7779 2.11857C68.4693 2.32646 68.154 2.52765 67.8488 2.74224C67.8119 2.65171 67.8254 2.55112 67.822 2.45052C67.8254 2.04815 67.822 1.64578 67.8254 1.24341ZM87.3294 1.5586C87.6279 1.44124 87.9398 1.36077 88.2384 1.24341C88.2418 1.66925 88.2384 2.0951 88.2418 2.52094C88.2418 2.59471 88.2351 2.67183 88.2149 2.74224C87.9533 2.56118 87.6883 2.39017 87.4267 2.21245C87.2993 2.11857 87.1584 2.04815 87.0444 1.93415C87.1148 1.79332 87.1685 1.62231 87.3294 1.5586Z" fill="#F7B402" stroke="#F7B402" stroke-width="0.094"/>
<path d="M72.9438 1.69608C73.3127 1.6089 73.7253 1.9375 73.6951 2.32311C73.6984 2.70201 73.2992 3.01049 72.9337 2.92331C72.7861 2.87302 72.6452 2.7959 72.5547 2.66513C72.4373 2.48741 72.4104 2.24934 72.5044 2.05486C72.5714 1.86709 72.7526 1.73967 72.9438 1.69608ZM82.513 1.90732C82.6673 1.73632 82.9121 1.63908 83.1402 1.69943C83.3113 1.74973 83.479 1.86038 83.5528 2.02804C83.7003 2.3164 83.5863 2.70536 83.2978 2.85625C83.0429 2.99708 82.7209 2.93002 82.5264 2.72548C82.3285 2.50082 82.315 2.13198 82.513 1.90732Z" fill="#BDA727" stroke="#BDA727" stroke-width="0.094"/>
<path d="M68.7779 2.11856C68.8618 2.06491 68.9456 2.00791 69.0161 1.9375L69.0395 1.96097C69.063 2.13533 69.0463 2.31304 69.053 2.4874C69.0429 3.01049 69.063 3.53692 69.0395 4.06001C68.0635 4.06001 67.0875 4.0533 66.1114 4.06001C66.0846 3.94936 66.1785 3.88229 66.2624 3.832C66.7487 3.52016 67.2183 3.17814 67.7046 2.86295C67.7583 2.82942 67.8052 2.78583 67.8488 2.74224C68.1541 2.52764 68.4694 2.32646 68.7779 2.11856ZM87.0107 2.0515C87.0107 2.00791 87.0209 1.97103 87.0443 1.93414C87.1583 2.04815 87.2993 2.11856 87.4266 2.21245C87.6883 2.39016 87.9532 2.56117 88.2149 2.74224C88.2517 2.77912 88.2853 2.82271 88.3289 2.84954C88.557 2.99372 88.7716 3.15467 89.0031 3.28544C89.0634 3.37598 89.1674 3.41286 89.2479 3.47992C89.4726 3.61405 89.6739 3.78505 89.9087 3.89571C89.9657 3.92924 89.9456 4.00301 89.9489 4.05666C88.9728 4.06001 88.0001 4.0533 87.0241 4.06001C87.0074 3.92588 87.0174 3.79176 87.0141 3.66099C87.0142 3.12449 87.0074 2.588 87.0107 2.0515Z" fill="#F7E62D" stroke="#F7E62D" stroke-width="0.094"/>
<path d="M89.949 4.05666C88.9729 4.06001 88.0002 4.05331 87.0242 4.06001C87.0074 3.92589 87.0175 3.79176 87.0141 3.66099C87.0141 3.1245 87.0074 2.588 87.0107 2.05151C87.0107 2.00791 87.0208 1.97103 87.0442 1.93415C87.1147 1.79332 87.1683 1.62231 87.3293 1.5586C87.6279 1.44124 87.9398 1.36077 88.2384 1.24341C88.2484 1.17635 88.2451 1.09922 88.1846 1.05563C87.7821 0.911451 87.3831 0.757208 86.9839 0.609672C86.8598 0.549316 86.7223 0.515785 86.5881 0.495667H69.4453C69.3715 0.49902 69.3011 0.535904 69.2273 0.552669C68.798 0.716971 68.3653 0.874567 67.936 1.03887C67.8789 1.04893 67.8487 1.09922 67.8186 1.14282C67.8219 1.16964 67.8253 1.21658 67.8253 1.24341C68.1204 1.36747 68.4356 1.43789 68.7342 1.5586C68.8952 1.62231 68.9455 1.79667 69.016 1.9375L69.0394 1.96097C69.0629 2.13533 69.0461 2.31305 69.0528 2.48741C69.0427 3.01049 69.0629 3.53693 69.0394 4.06001C68.0633 4.06001 67.0874 4.05331 66.1113 4.06001C66.0945 4.12037 66.1247 4.17066 66.1884 4.1539C67.2416 4.14719 68.2914 4.16061 69.3447 4.14384C70.911 4.14384 72.474 4.14719 74.0404 4.14384L74.0639 4.13378C74.1343 4.15055 74.2047 4.14384 74.2785 4.14384C77.1161 4.14384 79.9536 4.14719 82.7945 4.14384C83.6867 4.14719 84.5823 4.14384 85.4778 4.14384C86.9536 4.14384 88.4328 4.15725 89.9086 4.15055C89.9523 4.14049 89.9657 4.11031 89.949 4.05666ZM72.5043 2.05486C72.5714 1.86708 72.7524 1.73967 72.9437 1.69608C73.3126 1.6089 73.7252 1.9375 73.695 2.32311C73.6984 2.70201 73.2992 3.01049 72.9336 2.92331C72.786 2.87301 72.6451 2.79589 72.5546 2.66512C72.4372 2.48741 72.4104 2.24934 72.5043 2.05486ZM82.5129 1.90732C82.6672 1.73631 82.9121 1.63907 83.1401 1.69943C83.3112 1.74973 83.4789 1.86038 83.5527 2.02803C83.7003 2.3164 83.5862 2.70536 83.2978 2.85625C83.0428 2.99708 82.7209 2.93002 82.5263 2.72548C82.3285 2.50082 82.315 2.13198 82.5129 1.90732Z" fill="url(#paint1_radial_1334_99)" stroke="#FCD109" stroke-width="0.094"/>
<path d="M83.3678 5.53025C83.4147 5.54031 83.1234 5.2504 83.1804 5.23699C83.2341 5.2437 83.4375 5.0858 83.6835 5.21463C83.9294 5.34345 83.8685 5.64493 83.8406 5.75672C83.8074 5.88977 83.7226 5.97467 83.6555 6.04174C83.6187 6.07191 83.5359 6.11886 83.4856 6.1155C83.5158 5.9512 83.4185 5.92438 83.4118 5.75672L83.3678 5.53025Z" fill="url(#paint2_linear_1334_99)" stroke="#FCD109" stroke-width="0.094"/>
<path d="M72.6457 5.712C72.639 5.87966 72.5417 5.90648 72.5719 6.07079C72.5216 6.07414 72.4388 6.0272 72.402 5.99702C72.3349 5.92996 72.2503 5.84506 72.217 5.712C72.1891 5.60025 72.1281 5.29877 72.374 5.16991C72.62 5.04105 72.8235 5.19895 72.8772 5.19227C72.9342 5.20569 72.6428 5.49559 72.6897 5.48554L72.6457 5.712Z" fill="url(#paint3_linear_1334_99)" stroke="#FCD109" stroke-width="0.094"/>
<path d="M82.9287 7.67825C82.9792 7.63446 83.0127 7.63446 83.0798 7.63446C82.6773 8.50627 82.2077 9.37807 81.5017 10.0568C81.4262 10.1242 81.3464 10.1867 81.2629 10.2439C81.1821 10.303 81.1029 10.3585 81.0241 10.415C80.9469 10.4685 80.8703 10.5224 80.7956 10.5785C80.6044 10.6825 80.4367 10.8267 80.2254 10.8904C79.8397 11.0748 79.4238 11.1988 79.0046 11.286C78.8402 11.3129 78.6725 11.3531 78.5048 11.3564C78.2969 11.4168 78.0755 11.3732 77.8642 11.3866C77.7468 11.4067 77.6428 11.3397 77.5288 11.3531C77.4298 11.3391 77.3311 11.3223 77.233 11.3028C77.1335 11.2824 77.0346 11.2589 76.9365 11.2324C75.3989 10.7528 73.8896 9.57926 73.4498 7.99207C73.43 7.88518 73.42 7.7767 73.42 7.66799C73.4669 7.76188 73.5156 7.85509 73.5659 7.94744C74.1914 9.31101 75.4324 10.384 76.8986 10.7075C77.0176 10.7618 77.1464 10.7428 77.2605 10.7897C77.3644 10.7897 77.4651 10.7864 77.5657 10.8199C77.9112 10.8266 78.2566 10.8233 78.6021 10.8233C78.649 10.8266 78.6926 10.8031 78.7396 10.7931C79.3154 10.7736 79.8795 10.6166 80.4048 10.3785C80.5099 10.3309 80.6134 10.28 80.7152 10.2264C80.8042 10.1795 80.8912 10.1287 80.9757 10.0742C81.0588 10.0207 81.1395 9.96368 81.2178 9.90334C81.8388 9.4116 82.3754 8.77451 82.7398 8.0419C82.8092 7.91005 82.8727 7.78797 82.9287 7.67825Z" fill="#BDA727" stroke="#BDA727" stroke-width="0.094"/>
<path d="M82.3821 10.659C83.3782 10.0755 84.5321 9.79385 85.6792 9.7402C86.0515 9.70667 86.4272 9.71673 86.7961 9.76368C87.0376 9.82068 87.2858 9.88774 87.477 10.052C87.3798 10.0587 87.2858 10.0152 87.1886 10.0017C86.9135 9.9481 86.6284 9.96821 86.35 9.96151C85.5416 9.96151 84.7267 10.0252 83.9452 10.2465C83.536 10.3706 83.1268 10.5148 82.7545 10.7294C82.1105 11.0848 81.5302 11.5542 81.0606 12.1176C80.2221 13.0799 79.7291 14.3004 79.4909 15.5445C79.3769 16.2117 79.246 16.8755 79.1421 17.5462C78.9744 17.5629 78.8033 17.5529 78.6356 17.5529C77.8977 17.5495 77.1598 17.5462 76.4219 17.5395C76.2643 17.5462 76.1099 17.5094 75.9523 17.5194C74.6107 17.526 73.2691 17.516 71.9274 17.516L71.9543 17.5059C72.9504 17.4019 73.9499 17.2845 74.9461 17.1874C76.2105 17.1807 77.4718 17.184 78.7362 17.1874C78.7764 17.1807 78.8469 17.2007 78.8536 17.1437C78.9576 16.6006 79.0582 16.0574 79.1621 15.5141C79.3064 14.7598 79.5345 14.0154 79.8867 13.328C80.4401 12.2215 81.3155 11.2826 82.3821 10.659Z" fill="#0D69B3" stroke="#0D69B3" stroke-width="0.094"/>
<path d="M83.9452 10.2465C84.7267 10.0252 85.5417 9.96149 86.35 9.96149C86.6284 9.96819 86.9135 9.94807 87.1886 10.0017C87.2858 10.0151 87.3797 10.0587 87.477 10.052C87.6347 10.1794 87.7286 10.3672 87.799 10.555C87.9534 11.0009 88.0405 11.4637 88.1143 11.9298C88.1177 12.1175 88.1512 12.3288 88.0506 12.4998C87.9567 12.6674 87.7689 12.7479 87.5911 12.7982C86.9437 12.9659 86.2662 12.8082 85.6189 12.9659C85.0856 13.0799 84.5892 13.3749 84.2504 13.8008C83.8513 14.297 83.6399 14.9139 83.5225 15.531C83.432 16.0809 83.3179 16.6308 83.2274 17.184C83.1871 17.3081 83.1637 17.4423 83.1402 17.5731C83.774 17.5832 84.408 17.5731 85.0419 17.5797C85.2834 17.5731 85.5249 17.5864 85.7664 17.5696C85.9006 17.8782 85.8704 18.2269 85.8268 18.5521C85.7731 18.9176 85.6859 19.2797 85.5216 19.615C85.384 19.9 85.156 20.1616 84.8441 20.2622C84.6831 20.3259 84.5086 20.3125 84.3376 20.3125C83.774 20.3125 83.2105 20.3192 82.6471 20.3125C82.5566 20.725 82.4962 21.1474 82.4157 21.5666C82.2682 22.3813 82.1239 23.1995 81.9763 24.0177C81.9729 24.0445 81.9696 24.1015 81.9696 24.1317V24.135C80.5039 24.135 79.0415 24.1385 77.5757 24.135C77.5791 24.1217 77.5824 24.0982 77.5858 24.0847C77.5892 24.068 77.5925 24.0311 77.5959 24.011C77.5993 24.0379 77.6026 24.0882 77.606 24.1116C77.6965 24.1217 77.8609 24.1686 77.8844 24.0379C78.1124 22.8039 78.3238 21.5632 78.5585 20.3293C78.468 20.3092 78.3741 20.3092 78.2802 20.3259C78.2668 20.3729 78.2533 20.4198 78.2366 20.4667L78.2567 20.3158C77.3444 20.3124 76.4287 20.3158 75.5164 20.3124C75.295 20.3058 75.067 20.3124 74.8456 20.2856C74.4666 20.2688 74.0842 20.2823 73.7052 20.2453C73.2357 20.2453 72.7694 20.2018 72.2999 20.2018C71.9309 20.1649 71.5586 20.1783 71.1863 20.1615C70.9449 20.1314 70.6966 20.1448 70.4518 20.1347C70.0527 20.0911 69.6468 20.1214 69.2477 20.0777C68.8251 20.0811 68.4025 20.0442 67.9799 20.0341C67.9832 20.0308 67.9866 20.0174 67.9866 20.014C68.1274 20.0174 68.265 20.0073 68.4058 20.0039C68.7178 19.9637 69.033 19.9905 69.345 19.947C69.6703 19.947 69.9923 19.9033 70.3177 19.9033C70.6061 19.8631 70.8979 19.8866 71.1863 19.8464C71.5251 19.8464 71.8571 19.8027 72.196 19.7994C72.4743 19.7625 72.7561 19.7827 73.0345 19.7458C73.3598 19.7491 73.6818 19.6988 74.0072 19.7021C74.3258 19.6652 74.6511 19.6753 74.9697 19.6418C74.9396 19.5177 74.9161 19.3937 74.8893 19.2696C74.8658 19.1924 74.7719 19.2092 74.7115 19.1991C73.9837 19.0951 73.2592 18.9912 72.5347 18.8906C72.5817 18.8537 72.6454 18.8704 72.6991 18.8638C73.2626 18.8201 73.8227 18.7698 74.3862 18.7297C74.5136 18.723 74.6377 18.6995 74.7652 18.6962C74.7082 18.5218 74.6746 18.3307 74.5975 18.1697C73.3934 17.9853 72.1892 17.821 70.9885 17.6232C71.3004 17.5729 71.6157 17.5494 71.9276 17.5159C73.2693 17.5159 74.6109 17.5259 75.9525 17.5192C76.1101 17.5092 76.2645 17.5461 76.4221 17.5394C77.16 17.5461 77.8979 17.5495 78.6358 17.5527C78.8035 17.5527 78.9746 17.5628 79.1423 17.5461C79.2463 16.8754 79.3771 16.2115 79.4911 15.5443C79.7293 14.3002 80.2223 13.0798 81.0608 12.1175C81.5304 11.5541 82.1107 11.0847 82.7547 10.7292C83.1268 10.5147 83.536 10.3706 83.9452 10.2465Z" fill="#107BD4" stroke="#107BD4" stroke-width="0.094"/>
<path d="M83.2274 17.1841C83.8646 17.1875 84.5053 17.1807 85.1459 17.1875C85.4008 17.1875 85.6624 17.3283 85.7664 17.5697C85.5249 17.5865 85.2834 17.5731 85.0419 17.5798C84.408 17.5731 83.774 17.5832 83.1401 17.5731C83.1636 17.4423 83.187 17.3082 83.2274 17.1841ZM78.2801 20.326C78.374 20.3092 78.468 20.3092 78.5585 20.3293C78.3237 21.5633 78.1124 22.8039 77.8843 24.0379C77.8608 24.1686 77.6964 24.1217 77.6059 24.1117C77.6025 24.0882 77.5992 24.0379 77.5958 24.0111C77.8071 22.8308 78.0117 21.6471 78.2365 20.4669C78.2532 20.4198 78.2666 20.3729 78.2801 20.326Z" fill="#0D69B3" stroke="#0D69B3" stroke-width="0.094"/>
<path d="M83.5207 5.62411C83.4939 5.57381 83.4906 5.51346 83.4906 5.45645L83.4637 5.45981C83.4235 5.31227 83.2994 5.17144 83.1384 5.16473C83.0176 5.15468 82.8667 5.15803 82.7963 5.27203C82.6622 5.4531 82.7258 5.68447 82.7191 5.889C82.7191 5.90242 82.7225 5.92589 82.7225 5.9393C82.7225 6.07678 82.7058 6.2109 82.6823 6.34503C82.6622 6.38526 82.6521 6.42885 82.6521 6.4758C82.5951 6.79099 82.481 7.10283 82.3268 7.38784C82.2966 7.42808 82.2731 7.47167 82.2631 7.51861C82.1625 7.69297 82.0417 7.85392 81.9176 8.01487C81.8975 8.03164 81.8807 8.05175 81.8639 8.07187C81.7767 8.17917 81.6828 8.26971 81.5855 8.36359C81.5621 8.37701 81.5453 8.39377 81.5251 8.40718C81.4111 8.51784 81.2836 8.62178 81.1461 8.70561C81.1293 8.71567 81.1126 8.72908 81.0924 8.74249C80.2337 9.30917 79.1907 9.54388 78.1743 9.55394C77.3124 9.58077 76.4436 9.39635 75.6654 9.02415C75.6521 9.01745 75.6186 9.00403 75.6051 8.99733C75.4743 8.92691 75.3401 8.86656 75.2194 8.77938C75.1925 8.76596 75.1657 8.7492 75.1355 8.73579C75.0114 8.66202 74.894 8.58154 74.7833 8.48766C74.7464 8.45413 74.7062 8.4273 74.6659 8.39712C74.5452 8.29988 74.4211 8.19594 74.3172 8.07858C74.2903 8.0484 74.2634 8.02158 74.2367 7.99475C73.8711 7.61585 73.586 7.15312 73.4351 6.65016C73.2908 6.25114 73.311 5.81524 73.2942 5.3961C73.1734 5.21168 72.9186 5.10773 72.7173 5.22174C72.6335 5.28209 72.6234 5.39275 72.5597 5.46987C72.4557 6.57639 72.9286 7.67956 73.6833 8.4776C73.6833 8.50442 73.6967 8.52119 73.7203 8.53125C73.8544 8.65531 73.9852 8.78273 74.1193 8.90344C74.1428 8.92691 74.1697 8.95039 74.1998 8.9705C74.334 9.08116 74.4782 9.18175 74.6191 9.2857C74.6459 9.30581 74.6728 9.32258 74.703 9.33935C74.8874 9.44664 75.0618 9.57406 75.2597 9.64783C75.2732 9.65789 75.2966 9.67465 75.31 9.68136C75.9473 9.98649 76.6349 10.1944 77.3393 10.2614C77.4164 10.2614 77.4936 10.2682 77.5707 10.2849C77.9061 10.305 78.2415 10.295 78.5769 10.2883C79.6133 10.1977 80.6833 9.94626 81.5487 9.33599L81.5587 9.3494C81.5856 9.32593 81.609 9.30581 81.6359 9.2857C81.7735 9.1851 81.9076 9.0778 82.0418 8.96715C82.0719 8.94368 82.1054 8.91685 82.1357 8.88668C82.2832 8.72573 82.4543 8.57819 82.5784 8.39377L82.5986 8.40383C82.6086 8.38707 82.6254 8.35353 82.6355 8.33677C82.7495 8.18253 82.8535 8.02158 82.9542 7.86063C82.9608 7.85057 82.9776 7.8338 82.9843 7.82374L82.9709 7.81033C82.981 7.79692 83.0045 7.77009 83.0145 7.75668C83.199 7.38113 83.3633 6.98882 83.4204 6.57304C83.4439 6.56298 83.4573 6.54286 83.4573 6.51939C83.4607 6.38526 83.5076 6.25785 83.4942 6.12372C83.5241 5.95942 83.5275 5.79176 83.5207 5.62411Z" fill="white" stroke="white" stroke-width="0.094"/>
<mask id="mask0_1334_99" style="mask-type:luminance" maskUnits="userSpaceOnUse" x="72" y="5" width="12" height="6">
<path d="M83.5207 5.62411C83.4939 5.57381 83.4906 5.51346 83.4906 5.45645L83.4637 5.45981C83.4235 5.31227 83.2994 5.17144 83.1384 5.16473C83.0176 5.15468 82.8667 5.15803 82.7963 5.27203C82.6622 5.4531 82.7258 5.68447 82.7191 5.889C82.7191 5.90242 82.7225 5.92589 82.7225 5.9393C82.7225 6.07678 82.7058 6.2109 82.6823 6.34503C82.6622 6.38526 82.6521 6.42885 82.6521 6.4758C82.5951 6.79099 82.481 7.10283 82.3268 7.38784C82.2966 7.42808 82.2731 7.47167 82.2631 7.51861C82.1625 7.69297 82.0417 7.85392 81.9176 8.01487C81.8975 8.03164 81.8807 8.05175 81.8639 8.07187C81.7767 8.17917 81.6828 8.26971 81.5855 8.36359C81.5621 8.37701 81.5453 8.39377 81.5251 8.40718C81.4111 8.51784 81.2836 8.62178 81.1461 8.70561C81.1293 8.71567 81.1126 8.72908 81.0924 8.74249C80.2337 9.30917 79.1907 9.54388 78.1743 9.55394C77.3124 9.58077 76.4436 9.39635 75.6654 9.02415C75.6521 9.01745 75.6186 9.00403 75.6051 8.99733C75.4743 8.92691 75.3401 8.86656 75.2194 8.77938C75.1925 8.76596 75.1657 8.7492 75.1355 8.73579C75.0114 8.66202 74.894 8.58154 74.7833 8.48766C74.7464 8.45413 74.7062 8.4273 74.6659 8.39712C74.5452 8.29988 74.4211 8.19594 74.3172 8.07858C74.2903 8.0484 74.2634 8.02158 74.2367 7.99475C73.8711 7.61585 73.586 7.15312 73.4351 6.65016C73.2908 6.25114 73.311 5.81524 73.2942 5.3961C73.1734 5.21168 72.9186 5.10773 72.7173 5.22174C72.6335 5.28209 72.6234 5.39275 72.5597 5.46987C72.4557 6.57639 72.9286 7.67956 73.6833 8.4776C73.6833 8.50442 73.6967 8.52119 73.7203 8.53125C73.8544 8.65531 73.9852 8.78273 74.1193 8.90344C74.1428 8.92691 74.1697 8.95039 74.1998 8.9705C74.334 9.08116 74.4782 9.18175 74.6191 9.2857C74.6459 9.30581 74.6728 9.32258 74.703 9.33935C74.8874 9.44664 75.0618 9.57406 75.2597 9.64783C75.2732 9.65789 75.2966 9.67465 75.31 9.68136C75.9473 9.98649 76.6349 10.1944 77.3393 10.2614C77.4164 10.2614 77.4936 10.2682 77.5707 10.2849C77.9061 10.305 78.2415 10.295 78.5769 10.2883C79.6133 10.1977 80.6833 9.94626 81.5487 9.33599L81.5587 9.3494C81.5856 9.32593 81.609 9.30581 81.6359 9.2857C81.7735 9.1851 81.9076 9.0778 82.0418 8.96715C82.0719 8.94368 82.1054 8.91685 82.1357 8.88668C82.2832 8.72573 82.4543 8.57819 82.5784 8.39377L82.5986 8.40383C82.6086 8.38707 82.6254 8.35353 82.6355 8.33677C82.7495 8.18253 82.8535 8.02158 82.9542 7.86063C82.9608 7.85057 82.9776 7.8338 82.9843 7.82374L82.9709 7.81033C82.981 7.79692 83.0045 7.77009 83.0145 7.75668C83.199 7.38113 83.3633 6.98882 83.4204 6.57304C83.4439 6.56298 83.4573 6.54286 83.4573 6.51939C83.4607 6.38526 83.5076 6.25785 83.4942 6.12372C83.5241 5.95942 83.5275 5.79176 83.5207 5.62411Z" fill="white"/>
</mask>
<g mask="url(#mask0_1334_99)">
<path d="M72.302 5.51087C72.5739 5.59614 73.1985 5.3816 73.3753 5.57793M72.4585 6.33794C72.7191 6.24731 73.2778 6.03271 73.5095 6.15912M72.7269 7.16505C72.8528 7.20582 73.1011 6.98462 73.2244 6.91981C73.4079 6.82334 73.5961 6.7494 73.8002 6.71798M73.1294 8.03686C73.2593 7.8523 73.4148 7.69903 73.6024 7.56793C73.7884 7.43803 74.2973 7.09095 74.5157 7.20975M73.5095 8.66278C73.6569 8.54559 73.717 8.3383 73.8718 8.21517C74.0591 8.06623 74.346 8.03951 74.5381 7.94743M74.1412 9.12658C74.1853 8.8024 74.5145 8.4112 74.8287 8.4392M74.6275 9.57928C74.7935 9.56265 74.934 9.19113 75.0463 9.06522C75.2145 8.87661 75.3888 8.8186 75.6113 8.75217M75.589 9.98166C75.5782 9.74707 75.8207 9.07447 76.1033 9.10985M76.3045 10.2052C76.2928 9.92797 76.4362 9.09409 76.7741 9.06515M77.0424 10.6523C76.9784 10.2646 76.9825 9.70375 77.2884 9.42279M77.9593 10.7417C77.9251 10.4185 77.6039 9.76525 77.9593 9.51222M78.9431 10.5182C78.7897 10.3404 78.7006 9.63927 78.7642 9.44516M79.8822 10.3617C79.764 10.147 79.6174 9.94534 79.5726 9.6961C79.5458 9.54716 79.5927 9.33498 79.5692 9.22161M80.6649 10.0264C80.4083 9.8586 80.3371 9.24203 80.4189 8.97573M81.4251 9.69104C81.2426 9.2997 81.0481 8.99628 81.045 8.55099M82.163 8.97573C81.8795 8.78503 81.5176 8.43839 81.5593 8.05922M82.9457 8.37217C82.5148 8.27674 81.9978 7.89137 81.7382 7.54506M83.3034 7.63449C82.9926 7.56786 81.9657 7.16733 82.0288 6.76268M83.6388 6.85211C83.2058 6.6934 82.5758 6.55073 82.2301 6.24855M83.8624 6.13676C83.5896 6.16009 83.1989 6.02808 82.9217 5.98027C82.6138 5.92719 82.3284 5.82348 82.0288 5.75672M83.5941 5.4438C83.068 5.47529 82.5744 5.29533 82.0959 5.13086" stroke="#D1D1D1" stroke-width="2"/>
</g>
<path d="M16.2788 7.05604C16.7649 6.9827 17.3243 6.93687 17.7369 7.23938C17.9937 7.43185 18.0854 7.7802 18.067 8.09198C18.0854 8.60534 17.847 9.15541 17.3885 9.42131C16.985 9.64134 16.499 9.65958 16.0496 9.61378C15.747 9.57717 15.4444 9.41219 15.2885 9.13714C14.9399 8.33954 15.3709 7.21189 16.2788 7.05604ZM1.73445 7.63361C1.76192 7.35855 2.00956 7.11103 2.29382 7.12025C4.41226 7.12025 6.52146 7.12937 8.63068 7.12025C8.85993 7.10191 9.10756 7.2027 9.21754 7.40439C9.37341 7.67944 9.23589 7.98196 9.21754 8.2662C9.15341 8.65117 9.17169 9.16463 8.72241 9.31126C7.18174 9.3571 5.64107 9.31126 4.1004 9.32961C3.95369 10.3013 3.81614 11.2639 3.66937 12.2266C3.66937 12.2632 3.67859 12.3458 3.67859 12.3824C4.80654 12.3732 5.93449 12.3824 7.06244 12.3732C7.37427 12.3549 7.70435 12.6209 7.67684 12.9508C7.64937 13.2901 7.57598 13.6201 7.53017 13.9593C7.4934 14.1885 7.31004 14.3993 7.07159 14.4452C5.81522 14.4727 4.54049 14.4177 3.28425 14.4727C3.08243 15.857 2.84399 17.2412 2.63305 18.6256C2.60561 18.9007 2.38545 19.139 2.11035 19.1481C1.58769 19.1573 1.0649 19.1573 0.542242 19.1481C0.202942 19.1573 -0.0721968 18.7814 0.0194707 18.4605C0.579035 14.8486 1.15674 11.2457 1.73445 7.63361ZM11.0516 7.13849C11.5285 7.10187 12.0145 7.12937 12.4914 7.12025C12.7849 7.10191 13.0783 7.33106 13.1058 7.63361C13.1058 7.87191 13.0416 8.11032 13.0141 8.34866C12.6289 10.8056 12.2346 13.2626 11.8494 15.7196C11.7944 16.1138 11.6935 16.5355 11.8128 16.9389C11.9503 17.3422 12.5647 17.168 12.7114 17.5897C12.8031 17.9289 12.7022 18.2864 12.6747 18.6349C12.6472 19.0932 12.1245 19.194 11.7669 19.295C10.9875 19.4417 10.0428 19.3316 9.48342 18.6898C9.07993 18.2224 9.05239 17.5622 9.135 16.9755C9.62101 13.8585 10.107 10.7415 10.6023 7.61527C10.6298 7.38605 10.8132 7.17521 11.0516 7.13849ZM29.255 7.63361C29.2824 7.35855 29.5301 7.12025 29.8052 7.12025H31.1991C31.5476 7.11103 31.8319 7.48694 31.7494 7.81692C31.4284 9.85219 31.0983 11.8875 30.7773 13.9226C31.2633 13.8493 31.8136 13.7576 32.1529 13.3634C32.7214 12.7216 33.1892 11.9792 33.5376 11.1999C33.6568 10.8973 33.721 10.4573 34.1154 10.4023C34.6381 10.3839 35.1699 10.3931 35.6927 10.4023C36.0504 10.3931 36.3163 10.7965 36.1971 11.1265C36.0595 11.6125 35.8303 12.0616 35.5918 12.4925C35.0599 13.3543 34.4731 14.2069 33.7027 14.8853C34.042 15.9029 34.473 16.893 34.849 17.8923C34.959 18.2223 35.2251 18.6073 34.9774 18.9283C34.693 19.3133 34.1612 19.1207 33.7669 19.1665C33.3542 19.1207 32.7581 19.3316 32.5289 18.864C32.0978 17.8647 31.7402 16.838 31.3 15.8387C31.0432 15.8478 30.7773 15.8571 30.5205 15.8296C30.5022 15.8662 30.4655 15.9395 30.4471 15.9763C30.3095 16.893 30.1629 17.8098 30.0161 18.7265C29.9611 18.9465 29.7868 19.1391 29.5484 19.1574C29.0624 19.1758 28.5672 19.1665 28.072 19.1665C27.861 19.1665 27.6685 19.0291 27.5768 18.8457C27.4851 18.6623 27.54 18.4515 27.5677 18.2498C28.1362 14.7111 28.6956 11.1723 29.255 7.63361ZM54.7397 8.6329C54.8039 8.37612 55.0514 8.20199 55.3083 8.21111C55.6751 8.22033 56.0511 8.20199 56.427 8.22033C56.7297 8.22945 56.9681 8.532 56.9314 8.82537C56.8764 9.34795 56.7479 9.87053 56.7113 10.393C57.0689 10.393 57.4357 10.3839 57.7934 10.393C58.1144 10.393 58.3804 10.7231 58.3253 11.0347C58.2794 11.319 58.2152 11.5941 58.1694 11.8782C58.1235 12.1166 57.9218 12.3091 57.6926 12.3458C57.2524 12.3732 56.8214 12.3274 56.3904 12.3732C56.207 13.6017 56.0052 14.8301 55.8126 16.0587C55.785 16.3429 55.7668 16.6637 55.9318 16.9113C56.1795 17.2138 56.6104 17.1037 56.9589 17.1405C57.2341 17.2229 57.4083 17.5256 57.3624 17.8006C57.3165 18.1122 57.3074 18.424 57.2341 18.7265C57.124 19.0656 56.7297 19.1299 56.427 19.2123C55.5925 19.4324 54.6296 19.4324 53.8869 18.9465C53.1991 18.4789 53.089 17.5713 53.1623 16.8012C53.3549 15.316 53.6576 13.8401 53.8226 12.3457C53.5659 12.3548 53.254 12.3916 53.0615 12.1623C52.8414 11.9332 52.9515 11.594 52.9881 11.3097C53.0432 11.0072 53.034 10.613 53.3642 10.4479C53.63 10.347 53.9327 10.4205 54.217 10.3838C54.3912 9.79713 54.5563 9.21044 54.7397 8.6329ZM49.5584 11.6032C50.1361 11.0256 50.833 10.5489 51.6309 10.3106C51.9793 10.1547 52.4287 10.4481 52.4196 10.8331C52.3554 11.3374 52.2361 11.8324 52.1536 12.3274C52.1168 12.575 51.906 12.7858 51.6583 12.8133C50.7596 12.9691 49.9802 13.51 49.3566 14.1518C49.2007 14.3444 48.9714 14.5277 48.9439 14.7935C48.7514 16.077 48.5496 17.3605 48.3479 18.6439C48.3204 18.9189 48.0819 19.1849 47.7976 19.1666H46.4037C46.0828 19.1849 45.7985 18.8641 45.8352 18.5432C46.2387 16.0036 46.6422 13.4734 47.0365 10.9339C47.0548 10.6773 47.2383 10.4297 47.5042 10.4022C47.8435 10.3839 48.1828 10.393 48.5313 10.393C48.8064 10.393 49.0631 10.6405 49.0631 10.9248C49.0631 11.319 49.0265 11.7223 49.0173 12.1257C49.2374 11.9883 49.375 11.7682 49.5584 11.6032ZM15.2792 10.4389C15.7744 10.3381 16.2879 10.4206 16.7831 10.393C17.0675 10.3564 17.3701 10.5397 17.4159 10.824C17.4527 11.0806 17.3792 11.3282 17.3517 11.5757C16.9757 13.9319 16.5997 16.288 16.2329 18.644C16.2054 18.91 15.9854 19.1758 15.701 19.1666C15.2058 19.1666 14.7106 19.1758 14.2063 19.1575C13.8945 19.1208 13.6652 18.7633 13.7478 18.4607C14.1421 16.013 14.5181 13.5743 14.9124 11.1265C14.9308 10.8606 15.0041 10.5489 15.2792 10.4389ZM44.9548 10.5581C43.5883 10.3014 42.1945 10.118 40.8097 10.2555C39.5717 10.4114 38.3245 10.9707 37.5634 11.9883C36.5088 13.3267 36.1511 15.1237 36.3895 16.7922C36.518 17.5898 36.8664 18.3966 37.5176 18.8916C38.1228 19.3592 38.939 19.4233 39.6726 19.3041C40.6996 19.1024 41.5708 18.4425 42.2862 17.709C42.3228 18.0206 42.2495 18.3324 42.2678 18.6349C42.2862 18.919 42.5429 19.1849 42.8272 19.1666H43.7627C44.0378 19.1666 44.267 18.91 44.2854 18.644C44.6797 16.1596 45.074 13.6842 45.4592 11.209C45.5141 10.8973 45.2666 10.5948 44.9548 10.5581ZM42.378 14.8761C42.0111 15.5637 41.4975 16.1871 40.9198 16.7187C40.5897 16.9938 40.1678 17.278 39.7185 17.1864C39.2783 17.0947 39.0674 16.6363 38.9665 16.2421C38.7373 15.2153 38.9482 14.0968 39.5259 13.2076C39.7827 12.795 40.1953 12.4833 40.6722 12.3549C41.3416 12.1899 42.0478 12.2724 42.6989 12.4558L42.7356 12.4925C42.6531 13.2901 42.4971 14.0785 42.378 14.8761ZM26.9532 13.501C26.944 12.5842 26.6964 11.6216 26.0545 10.934C25.6144 10.4481 24.9541 10.2006 24.3122 10.2097C23.2483 10.1731 22.2488 10.6957 21.4693 11.3923C21.295 11.5299 21.1758 11.7316 20.9833 11.8416C20.9833 11.539 21.0108 11.2365 21.0016 10.9248C21.0108 10.6405 20.7448 10.393 20.4697 10.393H19.5343C19.2409 10.393 19.0024 10.6498 18.9841 10.9339C18.4063 14.601 17.8195 18.2681 17.2417 21.9353C17.1592 22.2744 17.4527 22.6228 17.8012 22.6137C18.3147 22.6045 18.8374 22.6503 19.3418 22.5769C19.7453 22.4669 19.7361 21.9993 19.8003 21.6602C19.947 20.8534 20.048 20.0466 20.1396 19.2307C21.9462 19.579 24.0462 19.3408 25.3943 17.9747C26.4947 16.7738 27.0082 15.1144 26.9532 13.501ZM24.3855 14.4269C24.3305 15.2703 24.0279 16.1229 23.441 16.7371C22.6799 17.4614 21.5243 17.3605 20.5889 17.1131C20.5707 17.0855 20.5431 17.0305 20.5339 17.003C20.6806 16.2054 20.754 15.3987 20.9375 14.6102C21.451 13.7669 22.0745 12.9142 22.9641 12.4467C23.2942 12.2909 23.7436 12.3275 23.982 12.6301C24.3855 13.1343 24.4222 13.8127 24.3855 14.4269Z" fill="#107BD4" stroke="#107BD4" stroke-width="0.101"/>
</g>
<defs>
<linearGradient id="paint0_linear_1334_99" x1="78.0336" y1="4.4523" x2="78.0336" y2="24.1606" gradientUnits="userSpaceOnUse">
<stop stop-color="#F7E830"/>
<stop offset="1" stop-color="#FDCB06"/>
</linearGradient>
<radialGradient id="paint1_radial_1334_99" cx="0" cy="0" r="1" gradientUnits="userSpaceOnUse" gradientTransform="translate(77.9307 13.4412) scale(16.0353 16.0305)">
<stop offset="0.596" stop-color="#F29405"/>
<stop offset="0.736" stop-color="#F7D01E"/>
<stop offset="1" stop-color="#FDCB06"/>
</radialGradient>
<linearGradient id="paint2_linear_1334_99" x1="83.5191" y1="5.16363" x2="83.5247" y2="6.09689" gradientUnits="userSpaceOnUse">
<stop stop-color="#FADA1C"/>
<stop offset="1" stop-color="#FDCB06"/>
</linearGradient>
<linearGradient id="paint3_linear_1334_99" x1="72.5384" y1="5.11891" x2="72.5328" y2="6.05218" gradientUnits="userSpaceOnUse">
<stop stop-color="#FADA1C"/>
<stop offset="1" stop-color="#FDCB06"/>
</linearGradient>
<clipPath id="clip0_1334_99">
<rect width="90" height="23.7198" fill="white" transform="translate(0 0.442444)"/>
</clipPath>
</defs>
</svg>
