<svg width="91" height="26" viewBox="0 0 91 26" fill="none" xmlns="http://www.w3.org/2000/svg">
<g clip-path="url(#clip0_1334_122)">
<path d="M84.0975 10.462C85.6838 9.92664 87.4485 9.57964 89.0942 10.1051C90.036 10.4223 90.5417 11.4237 90.5317 12.3754C90.5516 14.3285 90.5714 16.2816 90.502 18.2346C89.9369 18.2346 89.3718 18.2346 88.8166 18.2247C88.7472 17.9174 88.6877 17.61 88.6183 17.3027C87.5674 18.1355 86.1695 18.7303 84.8212 18.2346C83.2945 17.6299 83.1061 15.3397 84.2561 14.2789C85.4161 13.2082 87.0816 13.1983 88.539 12.8711C88.4498 12.3754 88.3705 11.7409 87.7855 11.6021C86.6157 11.2551 85.4359 11.7806 84.3156 12.0978C84.2264 11.5625 84.157 11.0172 84.0975 10.462ZM85.9614 14.9927C85.4161 15.4289 85.3863 16.4898 86.1002 16.7673C86.9627 17.0945 87.7955 16.5096 88.4696 16.0436C88.4696 15.4091 88.4696 14.7746 88.4597 14.1401C87.6071 14.2888 86.6454 14.388 85.9614 14.9927ZM40.1187 6.55585C41.0605 6.49636 42.0122 6.49636 42.964 6.51619C44.0843 9.36153 44.808 12.3655 46.0175 15.1811C47.0189 12.306 47.9409 9.4111 48.9224 6.53602C49.8642 6.50628 50.806 6.50628 51.7479 6.53602C52.0255 10.4422 52.422 14.3483 52.5906 18.2545H50.4095C50.1517 15.4686 50.0327 12.6629 49.7551 9.87706C48.6349 12.6134 47.8417 15.4884 46.8206 18.2644C46.1365 18.2941 45.4524 18.2842 44.7684 18.2545C43.7869 15.4785 42.9937 12.6233 41.8239 9.91672C41.5859 12.6927 41.4769 15.4884 41.2191 18.2644C40.5648 18.2644 39.9105 18.2644 39.2561 18.2545C39.4445 14.3384 39.851 10.4521 40.1187 6.55585ZM72.5079 7.4382C73.1623 7.2994 73.8364 7.21018 74.5007 7.15069C74.5205 8.09253 74.5205 9.03437 74.5205 9.98612C75.0658 9.99603 75.621 10.0258 76.1762 10.0357C76.2852 10.5711 76.3744 11.1163 76.4538 11.6616C75.8093 11.6913 75.1748 11.7211 74.5403 11.731C74.5502 13.1586 74.4412 14.5962 74.5899 16.0238C74.7981 16.7178 75.7003 16.5195 76.2456 16.6484C76.3546 17.1937 76.4339 17.7488 76.4934 18.304C75.4524 18.4131 74.2826 18.5519 73.3506 17.957C72.736 17.5506 72.5476 16.7872 72.5179 16.1031C72.4386 14.6557 72.5377 13.2082 72.4782 11.7607C72.1015 11.7211 71.7148 11.6814 71.3381 11.6418C71.348 11.1163 71.3678 10.6008 71.3877 10.0753C71.7545 10.0456 72.1213 10.0059 72.498 9.97621C72.4782 9.12359 72.4881 8.2809 72.5079 7.4382ZM53.8298 10.2042C54.5337 10.0654 55.2475 9.98612 55.9614 9.94646C56.6058 11.8301 57.1709 13.7436 57.8351 15.6173C58.5093 13.7931 59.0347 11.9095 59.6296 10.0555C60.3136 10.0159 60.9878 9.99603 61.6719 10.0059C60.9085 12.5043 59.9171 14.9233 59.0744 17.4019C58.6282 18.542 58.3506 19.8308 57.4187 20.6933C56.6553 21.3873 55.5549 21.4171 54.5932 21.2485C54.504 20.7032 54.4148 20.158 54.3255 19.6226C54.8014 19.6127 55.2773 19.6424 55.7432 19.5631C56.3777 19.345 56.9329 18.5816 56.6454 17.9075C55.7234 15.3298 54.7122 12.7918 53.8298 10.2042ZM63.0004 10.0159C63.5754 10.0159 64.1504 10.0258 64.7155 10.0357C64.7948 10.3926 64.8642 10.7495 64.9435 11.1064C65.8259 10.3827 66.8768 9.67878 68.0863 9.87706C69.1372 9.91672 69.9699 10.8685 69.9898 11.8896C70.0393 14.0013 70.0096 16.1229 69.9997 18.2346C69.3454 18.2445 68.691 18.2545 68.0466 18.2644C67.8582 16.341 68.0863 14.4078 67.9475 12.4944C67.8582 11.7013 66.8768 11.503 66.2621 11.8202C65.7366 12.078 65.0327 12.4448 65.0724 13.1289C65.0327 14.8341 65.0922 16.5393 65.0625 18.2445C64.3685 18.2545 63.6844 18.2545 62.9904 18.2346C63.0003 15.4884 62.9904 12.7521 63.0004 10.0159ZM78.0301 10.0159C78.615 10.0159 79.2 10.0159 79.7849 10.0258C79.8543 10.5017 79.9336 10.9775 80.0129 11.4633C80.7366 10.7098 81.5298 9.92664 82.6401 9.83741C82.8186 10.4917 82.9177 11.1659 82.9376 11.8401C81.847 12.0879 80.6078 12.544 80.122 13.6246C80.0228 15.1613 80.1418 16.7079 80.0823 18.2445C79.3982 18.2545 78.7142 18.2545 78.0301 18.2346V10.0159Z" fill="#231F20"/>
<path d="M8.1656 3.34366C8.85958 2.51087 9.61305 1.61861 10.6838 1.28153C11.8834 0.964278 12.9045 1.90612 13.658 2.70916C15.6309 4.96957 17.0684 7.63645 18.4068 10.3133C19.1306 8.68735 20.0327 7.14075 20.9647 5.63381C21.8569 4.26567 22.7789 2.8777 24.0678 1.83672C24.6626 1.38067 25.4855 0.94445 26.229 1.3311C27.2799 1.88629 28.0731 2.8083 28.8166 3.71048C30.393 5.74286 31.6322 8.01319 32.7525 10.3232C34.1504 13.2974 35.3599 16.4005 35.8655 19.6622C36.0142 21.1692 36.153 22.8645 35.2409 24.1831C34.537 25.2141 33.1986 25.571 32.009 25.3628C30.9779 24.996 30.0757 24.3218 29.4015 23.4692C27.7955 21.4864 26.8437 19.0872 25.9614 16.7177C25.8325 16.3014 25.6739 15.8949 25.5351 15.4884C25.4458 15.9048 25.3269 16.3212 25.1881 16.7277C24.2859 19.1269 23.3242 21.5756 21.6686 23.5684C21.0043 24.3813 20.1319 25.0059 19.1405 25.3628C17.7129 25.6602 16.3348 24.9167 15.4128 23.8658C13.6084 21.9028 12.6071 19.3648 11.6851 16.8962C11.5066 16.3906 11.3282 15.885 11.1993 15.3595C11.0506 15.885 10.8721 16.4104 10.6838 16.916C9.85099 19.1864 8.89924 21.4765 7.3923 23.3899C6.56943 24.3714 5.49871 25.3331 4.16031 25.4025C2.92105 25.5115 1.72144 24.7085 1.24557 23.5783C0.571411 22.0119 0.769693 20.2472 1.06712 18.6113C1.71153 15.4884 2.90122 12.5043 4.30902 9.65893C5.38965 7.44809 6.619 5.28682 8.1656 3.34366ZM8.86949 4.03764C7.34273 5.9808 6.12329 8.1619 5.03275 10.3727C3.67452 13.2379 2.44517 16.222 1.91973 19.3648C1.73136 20.2372 1.73136 21.1394 1.82059 22.0218C1.92964 22.8546 2.2568 23.7468 3.02019 24.1731C3.75383 24.5994 4.69567 24.4309 5.35991 23.955C6.5496 23.1222 7.34273 21.8532 8.0268 20.5942C9.49408 17.7885 10.4557 14.7448 11.1795 11.6814C11.9528 14.8242 12.9244 17.957 14.4709 20.8222C15.0856 21.883 15.73 22.9834 16.7314 23.7171C17.237 24.1731 17.9012 24.4904 18.5952 24.4111C19.3685 24.3318 20.0129 23.8361 20.5582 23.3106C21.4802 22.3589 22.1544 21.189 22.7492 20.0191C24.0182 17.4216 24.8906 14.6457 25.5747 11.8499C26.4273 15.2406 27.4881 18.6411 29.3123 21.655C29.9964 22.7059 30.7994 23.7964 31.999 24.2921C32.8417 24.6391 33.9125 24.3318 34.3982 23.5485C34.9832 22.6067 35.0327 21.4369 34.9435 20.3661C34.8246 18.6312 34.3189 16.9458 33.7637 15.3C32.6534 12.1275 31.196 9.074 29.4214 6.22865C28.5985 4.95965 27.7459 3.68074 26.5959 2.6695C26.1894 2.31259 25.5846 1.9656 25.0691 2.32251C24.0777 2.92727 23.3936 3.88893 22.6996 4.80103C21.0142 7.20023 19.6263 9.81755 18.4861 12.5142C18.4564 12.5538 18.3771 12.6331 18.3474 12.6728C18.2482 12.3655 18.1491 12.068 18.0202 11.7706C16.8503 9.24253 15.5516 6.7541 13.8959 4.51352C13.3308 3.76996 12.7459 3.01649 11.9825 2.47122C11.6554 2.24319 11.2191 2.035 10.8325 2.23328C10.0096 2.61002 9.4346 3.35357 8.86949 4.03764Z" fill="#FEFEFE"/>
<path d="M8.86948 4.03766C9.43458 3.35359 10.0195 2.61995 10.8424 2.24321C11.229 2.04493 11.6652 2.24321 11.9924 2.48115C12.7558 3.02642 13.3407 3.78981 13.9058 4.52345C15.5516 6.77395 16.8602 9.25247 18.0301 11.7806C18.1689 12.0681 18.268 12.3754 18.3573 12.6827C16.8305 10.0952 15.4425 7.40845 13.539 5.06872C12.9838 4.4144 12.3989 3.72041 11.5959 3.37342C11.1398 3.17514 10.6738 3.4329 10.2971 3.68075C8.92897 4.83079 7.91773 6.32781 6.96598 7.81492C4.7254 11.384 3.04 15.3001 1.92963 19.3648C2.45507 16.2221 3.6745 13.2379 5.04265 10.3728C6.12328 8.16192 7.34271 5.98082 8.86948 4.03766ZM25.0691 2.31261C25.5846 1.9557 26.1894 2.3027 26.5958 2.6596C27.7459 3.66093 28.5985 4.93984 29.4214 6.21876C31.196 9.07401 32.6633 12.1176 33.7637 15.2901C34.3189 16.9359 34.8245 18.6114 34.9435 20.3562C34.7551 19.1467 34.4379 17.957 34.0314 16.807C32.9805 13.6444 31.5231 10.6107 29.7584 7.78518C28.9851 6.57566 28.1623 5.37606 27.1709 4.345C26.7743 3.94843 26.348 3.53204 25.8027 3.35359C25.3764 3.22471 24.9898 3.52213 24.6428 3.73032C23.7208 4.45405 23.007 5.38598 22.3229 6.32781C21.1134 8.04295 20.0327 9.84731 19.0612 11.7012C18.9025 11.9987 18.7042 12.2763 18.4861 12.5241C19.6263 9.81757 21.0142 7.21017 22.6996 4.81096C23.3936 3.88895 24.0876 2.91737 25.0691 2.31261Z" fill="#9E242E"/>
<path d="M10.2971 3.68074C10.6739 3.43289 11.1398 3.17512 11.5959 3.3734C12.3989 3.72039 12.9838 4.41438 13.539 5.06871C15.4425 7.40843 16.8305 10.0951 18.3474 12.6827C17.3956 15.3893 16.2654 18.1057 16.196 21.0105C16.1464 21.9425 16.3943 22.8546 16.7413 23.7171C15.7399 22.9834 15.0856 21.883 14.4809 20.8222C12.9442 17.957 11.9627 14.8341 11.1894 11.6814C10.6342 9.06408 10.1187 6.38728 10.2971 3.68074Z" fill="#FF912E"/>
<path d="M24.6527 3.72042C24.9997 3.51222 25.3863 3.2148 25.8127 3.34368C26.3579 3.52214 26.7842 3.93853 27.1808 4.33509C28.1722 5.37607 28.9951 6.56576 29.7684 7.77528C31.5331 10.6008 32.9904 13.6345 34.0413 16.7971C34.4577 17.9471 34.7651 19.1368 34.9534 20.3463C35.0427 21.417 34.9931 22.5869 34.4082 23.5287C33.9224 24.3219 32.8616 24.6193 32.009 24.2723C30.8093 23.7865 30.0063 22.686 29.3222 21.6352C27.498 18.6312 26.4372 15.2307 25.5846 11.8301C25.0096 9.18308 24.4743 6.46662 24.6527 3.72042ZM6.96599 7.81493C7.91774 6.32782 8.92898 4.8308 10.2971 3.68076C10.1187 6.37739 10.6342 9.06411 11.1993 11.6814C10.4756 14.7548 9.504 17.7885 8.04663 20.5942C7.36256 21.8533 6.56943 23.1223 5.37974 23.955C4.7155 24.4309 3.77366 24.5995 3.04002 24.1732C2.27663 23.7469 1.94947 22.8447 1.84041 22.0218C1.74127 21.1395 1.75119 20.2373 1.93955 19.3648C3.0301 15.3001 4.72541 11.384 6.96599 7.81493Z" fill="#F41CB2"/>
<path d="M22.3328 6.31789C23.0169 5.37605 23.7307 4.44413 24.6527 3.7204C24.4742 6.45668 25.0096 9.18305 25.5945 11.84C24.9105 14.6457 24.0281 17.4117 22.769 20.0092C22.1742 21.189 21.5 22.3489 20.578 23.3007C20.0426 23.8261 19.3883 24.3218 18.615 24.4012C17.921 24.4805 17.2568 24.1632 16.7512 23.7072C16.4042 22.8447 16.1563 21.9326 16.2059 21.0006C16.2753 18.0958 17.4055 15.3694 18.3573 12.6728C18.387 12.6332 18.4663 12.5538 18.4961 12.5142C18.7142 12.2564 18.9124 11.9887 19.0711 11.6913C20.0526 9.83738 21.1233 8.03302 22.3328 6.31789Z" fill="#F25511"/>
</g>
<defs>
<clipPath id="clip0_1334_122">
<rect width="90" height="24.912" fill="white" transform="translate(0.571411 0.846375)"/>
</clipPath>
</defs>
</svg>
