<svg width="91" height="30" viewBox="0 0 91 30" fill="none" xmlns="http://www.w3.org/2000/svg">
<path d="M26.6464 2.07192C27.6182 0.206171 24.4697 0.730912 24.4697 0.730912C23.3425 0.730912 22.8372 2.09135 22.604 2.48005L19.2029 9.18506C18.5616 10.2929 16.4432 15.0349 15.7435 16.0844C15.6852 15.0155 15.7629 12.8777 15.7824 12.3724C15.9184 10.3512 16.0545 8.8158 16.2682 6.96949C16.4237 5.53132 16.7347 3.91822 16.4432 2.48005C16.2488 1.58604 15.9573 1.52774 14.6746 1.3917C13.3336 1.25565 12.4201 3.19914 11.9731 4.11257C10.3406 7.49423 8.51375 10.7982 7.05613 14.2576C6.62857 15.2682 6.10383 16.2788 5.65683 17.27C5.13208 18.4749 4.64621 19.6604 4.0826 20.846C3.48012 22.0898 1.59494 26.1711 1.0702 27.4538C0.487159 28.8531 0.37055 29.9803 2.70273 29.922C3.07199 29.922 3.88826 29.9998 4.89887 28.9114C5.69569 28.0563 5.85117 27.2595 6.31761 26.0739C7.98901 21.876 9.17453 19.0968 11.0014 14.9378C11.1763 14.5296 11.5844 13.3441 11.9926 12.4307C11.9731 13.7328 11.7594 15.2876 11.6622 16.3176C11.3512 20.088 11.1374 23.7223 10.8071 27.4538C10.7682 27.9591 10.6321 28.5616 10.8654 29.028C11.0986 29.4945 11.6816 29.6111 12.1481 29.6694C14.0138 29.9026 14.2082 28.9697 14.7912 27.687C15.3159 26.5404 15.6269 25.6075 16.0933 24.4414C17.5315 20.846 19.0474 17.2894 20.7188 13.7911C21.1464 12.8971 21.574 12.0226 22.0404 11.148C22.8955 9.53489 23.5952 8.01897 24.528 6.23097C25.2277 4.94827 25.9079 3.49066 26.6464 2.07192ZM90.6842 12.1975C90.4704 10.0402 87.5163 11.1285 85.7478 11.4589C85.087 11.5756 83.0463 11.9642 80.6947 12.4112C80.5976 9.98189 80.6364 10.4678 80.617 8.99072C80.5587 6.85288 80.4421 5.18149 80.3255 3.29631C80.2477 2.11078 80.0728 0.458824 77.935 0.769781C75.4473 1.11961 75.0392 2.36344 74.3784 3.85992C72.6487 7.76632 72.707 7.78576 70.7441 12.1392C70.5886 12.4696 69.8695 14.2187 69.7529 14.5685C69.6752 14.5879 69.5197 14.6268 69.3253 14.6851C68.5285 14.86 67.5568 15.0738 66.4879 15.307L66.5073 15.2099C66.7599 13.2275 67.0709 11.2452 67.343 9.2628C67.5956 7.45536 67.8677 4.50127 68.0815 2.69383C68.3147 0.750347 66.0603 0.789216 66.0603 0.789216C64.6804 0.711477 64.1557 1.11961 63.2811 2.24683C61.7846 4.19031 59.9772 6.28927 58.3835 8.42711C55.4877 12.2946 53.3693 15.2099 50.7456 19.0968C49.9877 20.2241 48.8216 21.9343 47.811 23.2753C47.1308 21.9343 46.5477 20.4573 45.9841 19.0968C45.1678 17.1533 44.5654 15.9484 44.1767 14.6657C43.8268 13.5385 44.2544 13.383 45.0901 12.7416C47.5 10.9148 50.2209 9.6515 52.6891 7.90237C54.4383 6.65854 56.5372 5.27866 58.2475 3.99596C58.2475 3.99596 59.2387 3.41292 59.7828 2.6744C60.4631 1.74152 58.539 0.769781 58.539 0.769781C57.4507 0.594868 56.8482 0.847521 56.0902 1.19735C55.3128 1.54717 54.3022 2.344 53.6414 2.86874C52.1838 3.99596 50.3375 5.33697 48.8993 6.46419C47.3451 7.7099 45.7017 8.84014 43.9823 9.84585L48.9188 2.46061C50.5319 0.381085 46.2562 -0.20196 44.6237 1.99418C43.1078 3.95709 42.0777 5.6868 40.8922 7.4748C38.0353 11.731 35.6836 16.201 33.332 20.8848C32.438 22.6728 31.5635 24.5386 30.7472 26.3849C30.3585 27.2789 29.2118 29.339 30.7861 29.5528C34.1483 29.9803 34.6925 28.3867 35.4504 26.4626C36.6943 23.2948 37.1024 22.7117 37.8992 20.7488C38.5445 19.164 39.2843 17.6194 40.1148 16.1233C40.1342 16.1039 40.3869 15.6957 40.3869 15.6957C40.5424 16.0261 41.5724 19.4467 41.7084 19.8354C42.4081 21.6817 43.6325 25.9962 44.3321 27.9591C44.8375 29.5916 44.9735 30.0581 47.1696 29.9998C48.258 29.9803 48.7244 29.5528 49.4435 28.1923C50.1626 26.8319 53.2722 21.0403 53.2722 21.0403C54.205 20.8848 55.5461 20.6516 56.4206 20.4961C56.5761 20.4767 56.9259 20.399 57.4118 20.3018C57.6874 20.2703 57.9602 20.2184 58.2281 20.1463C58.2475 20.1463 58.2475 20.1463 58.2669 20.1269C59.1221 19.952 60.2104 19.7382 61.3959 19.505C61.1821 20.5739 60.5214 22.9255 60.3853 23.528C60.3853 23.528 58.9471 29.1252 60.8129 29.4167C61.979 29.5916 62.5815 29.3973 62.5815 29.3973C64.7582 29.1446 64.797 26.21 64.797 26.21L65.9826 18.611C66.8377 18.436 67.6928 18.2611 68.5285 18.1057L65.9631 26.7736C65.5939 27.998 65.3218 29.5722 67.5179 29.5722C69.3059 29.6694 69.4225 28.5422 69.4225 28.5422C69.4614 28.3672 70.8801 23.8001 71.23 22.1675C71.4632 21.1181 72.2989 18.4166 72.6293 17.3283C73.5621 17.1533 74.2618 17.0173 74.5922 16.959C74.9809 16.9007 75.7388 16.7647 76.73 16.6092C76.7106 17.6198 76.73 19.0191 76.7495 19.2134C76.9632 22.2841 76.73 25.4715 77.3714 28.4839C77.4685 28.9697 77.6629 29.5916 78.2848 29.5916C79.0233 29.5916 79.2566 29.5139 80.0339 29.4556C82.2884 29.2612 81.8802 26.9874 81.7442 25.5492C81.5887 23.9555 81.4332 22.6145 81.2195 21.0209C81.0141 19.3378 80.9102 17.6439 80.9085 15.9484V15.9095C84.6011 15.2876 88.5853 14.6074 89.1683 14.5102C90.1012 14.2576 90.8786 14.3353 90.6842 12.1975ZM61.8235 16.2788C61.8235 16.2982 61.8041 16.2982 61.8041 16.3176C59.2192 16.8813 56.7899 17.4254 55.4294 17.7364C56.7899 15.4625 62.7758 7.18328 63.6892 6.21153C63.1839 8.77693 62.3677 13.5385 61.8235 16.2788ZM76.7495 13.0137V13.1498C75.5056 13.383 74.3395 13.6162 73.4067 13.7911C74.5922 10.7204 75.836 6.95006 76.5745 5.04544C76.5162 6.46419 76.8078 11.6144 76.7495 13.0137ZM40.5035 3.85992C40.8922 3.14083 41.7667 1.72209 40.6784 1.17791C40.037 0.866956 39.1819 0.672607 38.5211 1.003C37.977 1.29452 37.5688 1.85813 37.2967 2.38287L33.1377 8.93241C32.4575 9.86528 31.8161 11.0314 30.4362 11.1869C29.5228 11.284 28.862 10.8953 28.8815 10.0791C28.9009 9.24337 29.3868 8.13558 29.756 7.4165C30.8444 5.3564 30.9804 4.65675 32.0299 2.61609C33.0405 0.653172 29.7366 0.206171 28.9203 1.62491C28.3373 2.63553 27.2101 4.54014 26.9574 5.18149C26.491 6.34758 22.9927 11.9059 24.5086 14.1021C26.4521 16.5897 31.6218 12.6639 28.9786 17.1922C26.8408 20.8265 25.4998 22.9061 23.634 26.2683C23.2259 26.9874 22.7206 27.7065 22.5846 28.5616C22.3902 29.7666 24.0422 29.7471 24.7613 29.7082C26.0245 29.6111 26.627 29.028 27.1323 27.8814C27.4044 27.2789 27.7737 26.5404 28.0458 25.9379C30.4945 20.5933 33.0988 15.9484 36.325 10.7787C37.8603 8.32993 39.2208 6.23097 40.5035 3.85992Z" fill="#FC2779"/>
</svg>
