<svg width="91" height="27" viewBox="0 0 91 27" fill="none" xmlns="http://www.w3.org/2000/svg">
<path d="M19.7605 5.29287C19.7425 5.16687 19.6345 5.09487 19.5445 5.09487C19.4545 5.09487 17.6725 5.05887 17.6725 5.05887C17.6725 5.05887 16.1785 3.61887 16.0345 3.45687C15.8905 3.31287 15.6025 3.34887 15.4945 3.38487C15.4945 3.38487 15.2066 3.47487 14.7386 3.61887C14.6666 3.36687 14.5405 3.06087 14.3785 2.73687C13.8566 1.72888 13.0646 1.18888 12.1286 1.18888C12.0566 1.18888 12.0026 1.18888 11.9306 1.20688C11.8946 1.17088 11.8766 1.13488 11.8406 1.11688C11.4266 0.684879 10.9046 0.468879 10.2746 0.486879C9.06855 0.522879 7.86255 1.40488 6.87255 2.95287C6.18856 4.05087 5.66656 5.41887 5.50456 6.48087C4.11856 6.91287 3.14656 7.21887 3.11056 7.21887C2.40856 7.43487 2.39056 7.45286 2.30056 8.11886C2.26456 8.62286 0.428558 22.8248 0.428558 22.8248L15.8365 25.4888L22.5145 23.8328C22.4965 23.8328 19.7785 5.41887 19.7605 5.29287ZM13.9646 3.87087C13.6046 3.97887 13.2086 4.10487 12.7766 4.24887C12.7766 3.63687 12.6866 2.77287 12.4166 2.05288C13.3346 2.19688 13.7846 3.24087 13.9646 3.87087ZM11.9666 4.48287C11.1566 4.73487 10.2746 5.00487 9.39255 5.27487C9.64455 4.32087 10.1126 3.38487 10.6886 2.75487C10.9046 2.52088 11.2106 2.26888 11.5526 2.12488C11.9126 2.82687 11.9846 3.81687 11.9666 4.48287ZM10.3106 1.29688C10.5986 1.29688 10.8326 1.35088 11.0306 1.49488C10.7066 1.65688 10.3826 1.90888 10.0946 2.23288C9.32055 3.06087 8.72655 4.33887 8.49255 5.58087C7.75455 5.81487 7.03455 6.03087 6.38655 6.22887C6.81855 4.26687 8.45655 1.35088 10.3106 1.29688Z" fill="#95BF47"/>
<path d="M19.5445 5.09487C19.4545 5.09487 17.6725 5.05887 17.6725 5.05887C17.6725 5.05887 16.1785 3.61887 16.0345 3.45687C15.9805 3.40287 15.9085 3.36686 15.8365 3.36686L15.8365 25.4888L22.5145 23.8328C22.5145 23.8328 19.7965 5.41885 19.7785 5.29285C19.7425 5.16685 19.6345 5.09487 19.5445 5.09487Z" fill="#5E8E3E"/>
<path d="M12.1286 8.53286L11.3546 11.4309C11.3546 11.4309 10.4906 11.0349 9.46455 11.1069C7.95256 11.1969 7.95256 12.1509 7.95256 12.3849C8.04256 13.6809 11.4446 13.9689 11.6426 17.0108C11.7866 19.4048 10.3826 21.0428 8.33056 21.1688C5.88256 21.2948 4.53256 19.8548 4.53256 19.8548L5.05456 17.6408C5.05456 17.6408 6.42256 18.6668 7.50256 18.5948C8.20456 18.5588 8.47456 17.9648 8.43856 17.5688C8.33056 15.8769 5.55856 15.9848 5.37856 13.1949C5.23456 10.8549 6.76456 8.49686 10.1486 8.28086C11.4626 8.19086 12.1286 8.53286 12.1286 8.53286Z" fill="white"/>
<path d="M31.5505 14.7069C30.7765 14.2929 30.3805 13.9329 30.3805 13.4469C30.3805 12.8349 30.9385 12.4389 31.8025 12.4389C32.8105 12.4389 33.7105 12.8529 33.7105 12.8529L34.4125 10.6929C34.4125 10.6929 33.7645 10.1889 31.8565 10.1889C29.1925 10.1889 27.3385 11.7189 27.3385 13.8609C27.3385 15.0849 28.2025 16.0028 29.3545 16.6688C30.2905 17.1908 30.6145 17.5688 30.6145 18.1268C30.6145 18.7028 30.1465 19.1708 29.2825 19.1708C28.0045 19.1708 26.7805 18.5048 26.7805 18.5048L26.0245 20.6648C26.0245 20.6648 27.1405 21.4208 29.0305 21.4208C31.7665 21.4208 33.7465 20.0708 33.7465 17.6408C33.7285 16.3268 32.7385 15.3909 31.5505 14.7069Z" fill="#000008"/>
<path d="M42.4585 10.1529C41.1085 10.1529 40.0465 10.8009 39.2365 11.7729L39.2005 11.7549L40.3705 5.63487H37.3285L34.3585 21.2228H37.4005L38.4085 15.8949C38.8045 13.8789 39.8485 12.6369 40.8205 12.6369C41.5045 12.6369 41.7745 13.1049 41.7745 13.7709C41.7745 14.1849 41.7385 14.7069 41.6485 15.1209L40.4965 21.2228H43.5385L44.7265 14.9229C44.8525 14.2569 44.9425 13.4649 44.9425 12.9249C44.9605 11.1969 44.0605 10.1529 42.4585 10.1529Z" fill="#000008"/>
<path d="M51.8546 10.1528C48.1826 10.1528 45.7526 13.4648 45.7526 17.1548C45.7526 19.5128 47.2106 21.4208 49.9466 21.4208C53.5466 21.4208 55.9766 18.1988 55.9766 14.4188C55.9946 12.2408 54.7166 10.1528 51.8546 10.1528ZM50.3606 19.0988C49.3166 19.0988 48.8846 18.2168 48.8846 17.1008C48.8846 15.3548 49.7846 12.5108 51.4406 12.5108C52.5206 12.5108 52.8806 13.4468 52.8806 14.3468C52.8806 16.2188 51.9626 19.0988 50.3606 19.0988Z" fill="#000008"/>
<path d="M63.7886 10.1528C61.7366 10.1528 60.5666 11.9708 60.5666 11.9708H60.5306L60.7106 10.3328H58.0106C57.8846 11.4308 57.6326 13.1228 57.3986 14.3828L55.2746 25.5428H58.3166L59.1626 21.0248H59.2346C59.2346 21.0248 59.8646 21.4208 61.0166 21.4208C64.5986 21.4208 66.9386 17.7488 66.9386 14.0408C66.9386 11.9888 66.0206 10.1528 63.7886 10.1528ZM60.8726 19.1348C60.0806 19.1348 59.6126 18.6848 59.6126 18.6848L60.1166 15.8408C60.4766 13.9328 61.4666 12.6728 62.5286 12.6728C63.4646 12.6728 63.7526 13.5368 63.7526 14.3468C63.7526 16.3268 62.5826 19.1348 60.8726 19.1348Z" fill="#000008"/>
<path d="M71.2945 5.77887C70.3225 5.77887 69.5485 6.55287 69.5485 7.54286C69.5485 8.44286 70.1245 9.07286 70.9885 9.07286H71.0245C71.9785 9.07286 72.7885 8.42486 72.8065 7.30887C72.8065 6.42687 72.2125 5.77887 71.2945 5.77887Z" fill="#000008"/>
<path d="M67.0285 21.2048H70.0705L72.1405 10.4049H69.0805L67.0285 21.2048Z" fill="#000008"/>
<path d="M79.8985 10.3869H77.7745L77.8825 9.88286C78.0625 8.83886 78.6745 7.92087 79.7005 7.92087C80.2405 7.92087 80.6725 8.08286 80.6725 8.08286L81.2665 5.68887C81.2665 5.68887 80.7445 5.41887 79.6105 5.41887C78.5305 5.41887 77.4505 5.72487 76.6225 6.42687C75.5785 7.30887 75.0925 8.58686 74.8585 9.88286L74.7685 10.3869H73.3465L72.8965 12.6909H74.3185L72.6985 21.2228H75.7405L77.3605 12.6909H79.4665L79.8985 10.3869Z" fill="#000008"/>
<path d="M87.2426 10.4049C87.2426 10.4049 85.3346 15.2109 84.4886 17.8388H84.4526C84.3986 16.9928 83.6966 10.4049 83.6966 10.4049H80.4926L82.3286 20.3228C82.3646 20.5388 82.3466 20.6828 82.2566 20.8268C81.8966 21.5108 81.3026 22.1768 80.6006 22.6628C80.0246 23.0768 79.3766 23.3468 78.8726 23.5268L79.7186 26.1188C80.3306 25.9928 81.6266 25.4708 82.7066 24.4628C84.0926 23.1668 85.3886 21.1508 86.7026 18.4148L90.4286 10.4049H87.2426Z" fill="#000008"/>
</svg>
