<svg width="91" height="19" viewBox="0 0 91 19" fill="none" xmlns="http://www.w3.org/2000/svg">
<path d="M26.6075 5.10232C24.6695 5.10232 23.5032 6.05016 23.5032 7.61103C23.5032 8.81915 24.1616 9.65538 26.2878 10.3986L26.9838 10.6404C28.3007 11.105 28.6959 11.4951 28.6959 12.1456C28.6959 12.9634 27.981 13.4651 26.7768 13.4651C25.7985 13.4651 25.0271 13.1678 24.2933 12.4801C23.9923 12.1828 23.5973 12.1828 23.2963 12.4801L23.2774 12.4988C23.0329 12.7403 23.0329 13.2234 23.2774 13.4651C24.2746 14.4128 25.3657 14.8032 26.7768 14.8032C28.9028 14.8032 30.201 13.8181 30.201 12.1269C30.201 10.8076 29.5425 10.0642 27.4917 9.33933L26.8144 9.09781C25.4223 8.59607 25.0082 8.20574 25.0082 7.55545C25.0082 6.8864 25.6292 6.4403 26.6075 6.4403C27.4165 6.4403 28.0562 6.71915 28.7335 7.31393C29.0345 7.59259 29.4484 7.57389 29.7494 7.27653L29.7683 7.25809C30.0128 7.01651 30.0128 6.53327 29.7494 6.31019C28.8276 5.47396 27.8869 5.10232 26.6075 5.10232ZM46.8703 10.789V11.0121C46.8703 12.4243 45.8543 13.4649 44.2174 13.4649C42.9381 13.4649 42.1667 12.8889 42.1667 11.8296C42.1667 10.8077 42.9946 10.213 44.4244 10.213H46.8703V10.789ZM44.6691 5.10232C43.5025 5.10232 42.4112 5.41812 41.3577 6.47744C41.1132 6.73766 41.1132 7.2394 41.3577 7.48092L41.3953 7.51831C41.6776 7.79697 42.0915 7.79697 42.3736 7.49962C43.145 6.68182 43.8977 6.4403 44.6691 6.4403C46.0424 6.4403 46.8703 7.20226 46.8703 8.46596V8.93056H44.4244C42.0539 8.93056 40.6618 9.98988 40.6618 11.8296C40.6618 13.5579 41.9974 14.8032 43.8789 14.8032C45.2146 14.8032 46.2495 14.2827 46.8892 13.4465V13.8553C46.8892 14.2269 47.2089 14.5429 47.6041 14.5429H47.6417C48.0179 14.5429 48.3379 14.2269 48.3379 13.8368V8.46596C48.3379 6.36602 46.9644 5.10232 44.6691 5.10232ZM84.7431 10.789V11.0121C84.7431 12.4243 83.7271 13.4649 82.0902 13.4649C80.8109 13.4649 80.0395 12.8889 80.0395 11.8296C80.0395 10.8077 80.8674 10.213 82.2972 10.213H84.7431V10.789ZM82.5417 5.10232C80.5663 5.10232 79.0235 6.25461 79.0235 7.01631C79.0235 7.20226 79.08 7.3882 79.2118 7.51831L79.2494 7.55545C79.3811 7.68556 79.5315 7.74114 79.7198 7.74114C80.0395 7.74114 80.2653 7.49961 80.5664 7.20226C80.9426 6.83063 81.5447 6.4403 82.5417 6.4403C83.9152 6.4403 84.7431 7.20226 84.7431 8.46596V8.93056H82.2972C79.9267 8.93056 78.5346 9.98988 78.5346 11.8296C78.5346 13.5579 79.8702 14.8032 81.7517 14.8032C83.0875 14.8032 84.1223 14.2827 84.762 13.4465V13.8553C84.762 14.2269 85.0817 14.5429 85.4769 14.5429H85.5145C85.8907 14.5429 86.2107 14.2269 86.2107 13.8368V8.46596C86.2107 6.36602 84.8371 5.10232 82.5417 5.10232ZM66.1923 10.7518C66.0041 12.4614 65.1388 13.4651 63.5584 13.4651C61.7712 13.4651 60.8867 12.164 60.8867 9.95268C60.8867 7.74114 61.7711 6.4403 63.5584 6.4403C65.1575 6.4403 66.023 7.48111 66.1923 9.22785V10.7518ZM67.66 12.1084V1.08821C67.66 0.698073 67.34 0.382019 66.9449 0.382019H66.9072C66.5123 0.382019 66.1923 0.698073 66.1923 1.08821V6.42186C65.5338 5.56693 64.5555 5.10232 63.2573 5.10232C60.755 5.10232 59.3817 6.88646 59.3817 9.95274C59.3817 13.019 60.755 14.8032 63.2574 14.8032C64.6496 14.8032 65.6844 14.2643 66.324 13.2792C66.5875 14.0597 67.2083 14.673 67.8104 14.673C68.2055 14.673 68.5441 14.3944 68.5441 13.9854C68.5441 13.2421 67.66 13.3534 67.66 12.1084ZM54.0196 13.4651C52.2324 13.4651 51.3481 12.1642 51.3481 10.0271V9.87834C51.3481 7.74127 52.2324 6.44043 54.0197 6.44043C55.7694 6.44043 56.6911 7.74127 56.6911 9.95261C56.6911 12.1642 55.7694 13.4651 54.0196 13.4651ZM54.3207 5.1022C53.0224 5.1022 52.0254 5.5855 51.3668 6.45887V6.0501C51.3668 5.67847 51.0471 5.36241 50.6706 5.36241H50.633C50.2381 5.36241 49.9181 5.67847 49.9181 6.0501V17.5348C49.9181 17.9251 50.2381 18.2412 50.633 18.2412H50.6706C51.0658 18.2412 51.3857 17.9251 51.3857 17.5348V13.4651C52.0441 14.3384 53.0224 14.803 54.3207 14.803C56.8229 14.803 58.1964 13.0191 58.1964 9.95261C58.1964 6.88633 56.8229 5.1022 54.3207 5.1022ZM73.3794 6.44036C75.0539 6.44036 75.9005 7.42534 75.9946 9.15364H70.8018C70.99 7.44378 71.8366 6.44036 73.3794 6.44036ZM77.067 12.7217C76.766 12.443 76.3519 12.4057 76.0133 12.6659C75.2795 13.2235 74.6211 13.465 73.6804 13.465C71.8742 13.465 70.8959 12.3314 70.783 10.4358H76.5589C77.1046 10.4358 77.4998 10.0455 77.4998 9.50664C77.4998 6.75616 76.1639 5.10239 73.3794 5.10239C70.6703 5.10239 69.2592 6.90497 69.2592 9.9528C69.2592 13.0004 70.783 14.8032 73.6804 14.8032C75.0539 14.8032 76.0133 14.4687 77.0294 13.6509C77.3115 13.4278 77.3302 12.9819 77.0857 12.7404L77.067 12.7217ZM33.0231 13.8367V9.24649C33.0231 7.49955 33.9073 6.44024 35.5629 6.44024C37.1622 6.44024 37.8584 7.3323 37.8584 9.11638V13.8367C37.8584 14.227 38.1781 14.5429 38.5733 14.5429H38.6109C39.006 14.5429 39.3258 14.227 39.3258 13.8367V9.07924C39.3258 6.38459 38.2722 5.10226 35.9018 5.10226C34.6035 5.10226 33.6252 5.5855 33.0041 6.45893V6.05016C33.0041 5.67847 32.6845 5.36248 32.3082 5.36248H32.2706C31.8755 5.36248 31.5555 5.67847 31.5555 6.0501V13.8367C31.5555 14.227 31.8755 14.5429 32.2706 14.5429H32.3082C32.7032 14.5429 33.0231 14.2271 33.0231 13.8367ZM89.409 14.673C89.8041 14.673 90.1428 14.3943 90.1428 13.9853C90.1428 13.242 89.2585 13.3534 89.2585 12.1084V1.08821C89.2585 0.698073 88.9386 0.382019 88.5434 0.382019H88.5058C88.1107 0.382019 87.7909 0.698073 87.7909 1.08821V12.4988C87.7909 13.5953 88.6 14.673 89.409 14.673Z" fill="#E40046"/>
<path d="M4.20034 17.7765C4.40727 18.1297 4.63315 18.2598 5.04696 18.2598H12.7607C13.1747 18.2598 13.4003 18.1481 13.6638 17.8137L19.4963 10.38C19.6278 10.2128 19.4774 9.9341 19.2705 9.9341H9.9198C9.50599 9.9341 9.28012 9.80399 9.07325 9.45106L4.36966 1.4227C4.25682 1.23682 3.95579 1.27415 3.88037 1.45983L0.249464 10.1385C0.0801398 10.5288 0.117753 10.789 0.32469 11.142L4.20034 17.7765Z" fill="#E40046"/>
<path d="M13.9083 8.18727C14.1153 8.54046 14.3412 8.6705 14.755 8.6705H19.2704C19.4962 8.6705 19.6655 8.39165 19.5527 8.18727L15.2443 0.828149C15.0373 0.474958 14.8114 0.344849 14.3976 0.344849H5.7806C5.55498 0.344849 5.38566 0.623507 5.4985 0.828149L7.73745 4.65639C7.94439 5.00932 8.17001 5.13943 8.58407 5.13943H12.1398L13.9083 8.18727Z" fill="#E40046"/>
</svg>
