<svg width="39" height="36" viewBox="0 0 39 36" fill="none" xmlns="http://www.w3.org/2000/svg">
<path fill-rule="evenodd" clip-rule="evenodd" d="M18.9916 0.0989994C18.3609 0.295688 18.3284 0.350393 15.6223 5.76062C14.2267 8.55103 13.0801 10.8389 13.0744 10.8448C13.0687 10.8507 10.5355 11.2425 7.44505 11.7153C4.3545 12.1883 1.75254 12.6031 1.66284 12.6372C1.38475 12.743 0.951966 13.1717 0.811674 13.4805C0.645279 13.8467 0.637411 14.378 0.79263 14.766C0.882776 14.9912 1.87865 16.0117 5.00214 19.0794C8.56018 22.5737 9.09062 23.1225 9.07099 23.2893C9.05856 23.3947 8.65077 25.8633 8.16482 28.7751C7.18322 34.657 7.17402 34.755 7.55608 35.2992C7.86975 35.7459 8.31997 35.9783 8.87297 35.979C9.31025 35.9795 9.35863 35.9564 14.3567 33.3515C17.1302 31.9061 19.4439 30.7236 19.4984 30.7236C19.5528 30.7236 21.8498 31.8966 24.6027 33.3304C27.6515 34.9182 29.7242 35.9556 29.9052 35.9843C30.4668 36.0735 31.1348 35.7748 31.463 35.2878C31.8539 34.7078 31.8766 34.95 30.8517 28.7793L29.9115 23.1189L34.0036 19.0686C36.8195 16.2814 38.1308 14.9341 38.2084 14.7484C38.3709 14.3595 38.352 13.775 38.1643 13.3874C37.9889 13.0251 37.5517 12.6705 37.1517 12.5661C37.0063 12.5282 34.4223 12.1271 31.4095 11.6747C28.3966 11.2224 25.927 10.8481 25.9213 10.8431C25.9156 10.8382 24.7793 8.56757 23.3961 5.79739C21.5815 2.16324 20.8067 0.683257 20.6136 0.482745C20.4416 0.30407 20.216 0.166131 19.9821 0.09672C19.5461 -0.0327638 19.4133 -0.0324696 18.9916 0.0989994Z" fill="#08A9A0"/>
<path fill-rule="evenodd" clip-rule="evenodd" d="M18.9916 0.0989994C18.3609 0.295688 18.3284 0.350393 15.6223 5.76062C14.2267 8.55103 13.0801 10.8389 13.0744 10.8448C13.0687 10.8507 10.5355 11.2425 7.44505 11.7153C4.3545 12.1883 1.75254 12.6031 1.66284 12.6372C1.38475 12.743 0.951966 13.1717 0.811674 13.4805C0.645279 13.8467 0.637411 14.378 0.79263 14.766C0.882776 14.9912 1.87865 16.0117 5.00214 19.0794C8.56018 22.5737 9.09062 23.1225 9.07099 23.2893C9.05856 23.3947 8.65077 25.8633 8.16482 28.7751C7.18322 34.657 7.17402 34.755 7.55608 35.2992C7.86975 35.7459 8.31997 35.9783 8.87297 35.979C9.31025 35.9795 9.35863 35.9564 14.3567 33.3515C17.1302 31.9061 19.4439 30.7236 19.4984 30.7236C19.5528 30.7236 21.8498 31.8966 24.6027 33.3304C27.6515 34.9182 29.7242 35.9556 29.9052 35.9843C30.4668 36.0735 31.1348 35.7748 31.463 35.2878C31.8539 34.7078 31.8766 34.95 30.8517 28.7793L29.9115 23.1189L34.0036 19.0686C36.8195 16.2814 38.1308 14.9341 38.2084 14.7484C38.3709 14.3595 38.352 13.775 38.1643 13.3874C37.9889 13.0251 37.5517 12.6705 37.1517 12.5661C37.0063 12.5282 34.4223 12.1271 31.4095 11.6747C28.3966 11.2224 25.927 10.8481 25.9213 10.8431C25.9156 10.8382 24.7793 8.56757 23.3961 5.79739C21.5815 2.16324 20.8067 0.683257 20.6136 0.482745C20.4416 0.30407 20.216 0.166131 19.9821 0.09672C19.5461 -0.0327638 19.4133 -0.0324696 18.9916 0.0989994Z" fill="black" fill-opacity="0.2"/>
</svg>
