<svg width="37" height="36" viewBox="0 0 37 36" fill="none" xmlns="http://www.w3.org/2000/svg">
<path fill-rule="evenodd" clip-rule="evenodd" d="M33.7126 0.0477422C28.7195 0.475102 23.4088 2.6382 19.1031 5.99836C18.093 6.78656 16.7711 7.98117 16.165 8.65357L15.673 9.19934L15.1303 9.24258C11.9801 9.49352 9.83664 10.0735 7.30905 11.3587C5.37524 12.342 2.66005 14.4251 2.39687 15.1272C2.27341 15.4569 2.46747 15.8918 2.79611 16.0219C2.90052 16.0632 4.23583 16.2734 5.76337 16.4889C7.29091 16.7045 8.58381 16.8957 8.63648 16.9139C8.70159 16.9364 8.60455 17.0924 8.33357 17.401C7.8861 17.9107 7.79104 18.2037 7.96605 18.534C8.14977 18.8809 17.8665 28.5323 18.0856 28.5855C18.3914 28.6597 18.591 28.5737 19.0846 28.155C19.3851 27.8999 19.5557 27.7962 19.5751 27.8566C19.5914 27.9075 19.7825 29.2148 19.9996 30.7617C20.414 33.7136 20.4391 33.8137 20.817 34.0164C21.1414 34.1904 21.4968 34.0776 21.9165 33.6675C23.078 32.5327 24.3771 30.6913 25.2355 28.9629C26.3866 26.6451 26.9945 24.4481 27.2086 21.832L27.2892 20.8477L28.08 20.0742C29.4716 18.7132 30.5797 17.383 31.6825 15.75C34.6454 11.3625 36.3336 6.47213 36.4692 1.88395L36.5101 0.498305L36.261 0.249187L36.0118 0L35.0028 0.0118125C34.4478 0.0183516 33.8673 0.0344531 33.7126 0.0477422ZM27.4728 6.80737C28.0367 7.02162 28.4074 7.26342 28.8392 7.69873C29.5465 8.4117 29.8853 9.25432 29.8853 10.3008C29.8853 11.3598 29.5439 12.197 28.8146 12.9262C28.0853 13.6555 27.2482 13.9969 26.1891 13.9969C25.1301 13.9969 24.293 13.6555 23.5637 12.9262C22.8344 12.197 22.493 11.3598 22.493 10.3008C22.493 8.69667 23.402 7.38042 24.9063 6.80646C25.628 6.53105 26.7467 6.53147 27.4728 6.80737ZM6.92352 24.0806C6.09327 24.2634 5.33144 24.6543 4.70073 25.2212C4.07038 25.7878 3.34778 27.1297 2.4321 29.4344C1.78396 31.0657 0.489929 34.9177 0.489929 35.2158C0.489929 35.6721 0.812734 36 1.26203 36C1.57148 36 5.36842 34.7283 7.02491 34.0699C8.50141 33.483 9.99534 32.7645 10.6175 32.3421C12.0091 31.397 12.7574 29.4915 12.413 27.7702C12.2711 27.0617 11.8682 26.195 11.445 25.6883C10.3459 24.3723 8.53066 23.7268 6.92352 24.0806Z" fill="#08A9A0"/>
<path fill-rule="evenodd" clip-rule="evenodd" d="M33.7126 0.0477422C28.7195 0.475102 23.4088 2.6382 19.1031 5.99836C18.093 6.78656 16.7711 7.98117 16.165 8.65357L15.673 9.19934L15.1303 9.24258C11.9801 9.49352 9.83664 10.0735 7.30905 11.3587C5.37524 12.342 2.66005 14.4251 2.39687 15.1272C2.27341 15.4569 2.46747 15.8918 2.79611 16.0219C2.90052 16.0632 4.23583 16.2734 5.76337 16.4889C7.29091 16.7045 8.58381 16.8957 8.63648 16.9139C8.70159 16.9364 8.60455 17.0924 8.33357 17.401C7.8861 17.9107 7.79104 18.2037 7.96605 18.534C8.14977 18.8809 17.8665 28.5323 18.0856 28.5855C18.3914 28.6597 18.591 28.5737 19.0846 28.155C19.3851 27.8999 19.5557 27.7962 19.5751 27.8566C19.5914 27.9075 19.7825 29.2148 19.9996 30.7617C20.414 33.7136 20.4391 33.8137 20.817 34.0164C21.1414 34.1904 21.4968 34.0776 21.9165 33.6675C23.078 32.5327 24.3771 30.6913 25.2355 28.9629C26.3866 26.6451 26.9945 24.4481 27.2086 21.832L27.2892 20.8477L28.08 20.0742C29.4716 18.7132 30.5797 17.383 31.6825 15.75C34.6454 11.3625 36.3336 6.47213 36.4692 1.88395L36.5101 0.498305L36.261 0.249187L36.0118 0L35.0028 0.0118125C34.4478 0.0183516 33.8673 0.0344531 33.7126 0.0477422ZM27.4728 6.80737C28.0367 7.02162 28.4074 7.26342 28.8392 7.69873C29.5465 8.4117 29.8853 9.25432 29.8853 10.3008C29.8853 11.3598 29.5439 12.197 28.8146 12.9262C28.0853 13.6555 27.2482 13.9969 26.1891 13.9969C25.1301 13.9969 24.293 13.6555 23.5637 12.9262C22.8344 12.197 22.493 11.3598 22.493 10.3008C22.493 8.69667 23.402 7.38042 24.9063 6.80646C25.628 6.53105 26.7467 6.53147 27.4728 6.80737ZM6.92352 24.0806C6.09327 24.2634 5.33144 24.6543 4.70073 25.2212C4.07038 25.7878 3.34778 27.1297 2.4321 29.4344C1.78396 31.0657 0.489929 34.9177 0.489929 35.2158C0.489929 35.6721 0.812734 36 1.26203 36C1.57148 36 5.36842 34.7283 7.02491 34.0699C8.50141 33.483 9.99534 32.7645 10.6175 32.3421C12.0091 31.397 12.7574 29.4915 12.413 27.7702C12.2711 27.0617 11.8682 26.195 11.445 25.6883C10.3459 24.3723 8.53066 23.7268 6.92352 24.0806Z" fill="black" fill-opacity="0.2"/>
</svg>
