<svg width="43" height="36" viewBox="0 0 43 36" fill="none" xmlns="http://www.w3.org/2000/svg">
<path fill-rule="evenodd" clip-rule="evenodd" d="M20.653 0.0694951C17.6524 0.461881 15.2293 2.6997 14.6275 5.63435C14.1743 7.84424 14.8349 10.1657 16.3798 11.792C17.3357 12.7983 18.3024 13.395 19.6256 13.7955C20.2521 13.9851 20.4675 14.0097 21.5 14.0097C22.5325 14.0097 22.748 13.9851 23.3744 13.7955C24.7002 13.3943 25.6368 12.8212 26.578 11.8354C27.8562 10.4966 28.4997 8.88583 28.4997 7.0256C28.4997 5.10245 27.8143 3.48254 26.4062 2.07753C25.2479 0.92185 23.9198 0.271763 22.3067 0.0706215C21.5534 -0.0232712 21.3632 -0.0234321 20.653 0.0694951ZM6.6921 5.2175C6.06671 5.3134 5.413 5.57328 4.84771 5.95078C2.99528 7.1878 2.37488 9.6842 3.42098 11.6921C3.76171 12.346 4.66186 13.2293 5.32828 13.5635C7.07394 14.4391 9.05478 14.1221 10.4338 12.7465C11.0792 12.1026 11.4584 11.4531 11.6409 10.6789C12.0035 9.14072 11.5731 7.59378 10.4789 6.50263C9.46623 5.49274 8.04433 5.01016 6.6921 5.2175ZM35.0128 5.2175C34.3874 5.3134 33.7337 5.57328 33.1684 5.95078C31.3159 7.1878 30.6955 9.6842 31.7416 11.6921C32.0824 12.346 32.9825 13.2293 33.6489 13.5635C35.3946 14.4391 37.3754 14.1221 38.7545 12.7465C39.3999 12.1026 39.7791 11.4531 39.9616 10.6789C40.3242 9.14072 39.8937 7.59378 38.7996 6.50263C37.7869 5.49274 36.365 5.01016 35.0128 5.2175ZM5.6501 16.8009C4.96301 16.8929 4.5349 17.0308 3.87411 17.3733C2.45293 18.1101 1.44891 19.3594 1.06184 20.8729C0.912348 21.4574 0.903176 21.7801 0.903176 26.4544C0.903176 32.0176 0.887567 31.8536 1.48262 32.5296C1.66188 32.7333 1.99408 32.9978 2.22081 33.1174L2.63299 33.3348H5.43223H8.23139L8.22729 29.9959C8.22206 25.724 8.32971 24.5195 8.87794 22.7146C9.3305 21.2248 10.147 19.7812 11.2513 18.5185C11.4895 18.2462 11.6843 18.0061 11.6843 17.9849C11.6843 17.9636 11.4511 17.7944 11.166 17.6086C10.4974 17.173 9.72418 16.9075 8.82363 16.8044C8.01955 16.7122 6.32642 16.7104 5.6501 16.8009ZM19.0596 16.8409C16.6041 17.2431 14.6288 18.3102 12.9901 20.1196C11.8415 21.3879 11.1459 22.8996 10.7911 24.8985C10.5862 26.0528 10.5035 29.5124 10.6163 32.2085L10.687 33.898L10.9588 34.407C11.2728 34.9951 11.701 35.399 12.328 35.6983L12.7705 35.9095L19.1668 35.9667C30.7398 36.0704 31.1886 36.0189 32.004 34.4922L32.3214 33.898L32.3443 29.766C32.3696 25.2074 32.3431 24.8515 31.8733 23.4496C30.7845 20.1997 27.8872 17.5672 24.6781 16.912C23.8261 16.7381 19.9841 16.6895 19.0596 16.8409ZM34.0688 16.8041C33.2849 16.9026 32.4645 17.1979 31.8341 17.6086C31.5489 17.7944 31.3157 17.9636 31.3157 17.9849C31.3157 18.0061 31.5106 18.2462 31.7487 18.5185C33.024 19.9767 33.8519 21.5112 34.2911 23.2315C34.6738 24.7306 34.7144 25.2571 34.7662 29.3925L34.8156 33.3348H37.5511H40.2866L40.7117 33.1109C41.2872 32.8076 41.7344 32.3263 41.9324 31.7971C42.0915 31.372 42.0969 31.1957 42.0969 26.4254C42.0969 21.7799 42.0876 21.4572 41.9382 20.8729C41.6863 19.888 41.2795 19.1941 40.4917 18.4055C39.7426 17.6557 38.943 17.1738 38.0338 16.9242C37.4565 16.7657 34.974 16.6905 34.0688 16.8041Z" fill="#08A9A0"/>
<path fill-rule="evenodd" clip-rule="evenodd" d="M20.653 0.0694951C17.6524 0.461881 15.2293 2.6997 14.6275 5.63435C14.1743 7.84424 14.8349 10.1657 16.3798 11.792C17.3357 12.7983 18.3024 13.395 19.6256 13.7955C20.2521 13.9851 20.4675 14.0097 21.5 14.0097C22.5325 14.0097 22.748 13.9851 23.3744 13.7955C24.7002 13.3943 25.6368 12.8212 26.578 11.8354C27.8562 10.4966 28.4997 8.88583 28.4997 7.0256C28.4997 5.10245 27.8143 3.48254 26.4062 2.07753C25.2479 0.92185 23.9198 0.271763 22.3067 0.0706215C21.5534 -0.0232712 21.3632 -0.0234321 20.653 0.0694951ZM6.6921 5.2175C6.06671 5.3134 5.413 5.57328 4.84771 5.95078C2.99528 7.1878 2.37488 9.6842 3.42098 11.6921C3.76171 12.346 4.66186 13.2293 5.32828 13.5635C7.07394 14.4391 9.05478 14.1221 10.4338 12.7465C11.0792 12.1026 11.4584 11.4531 11.6409 10.6789C12.0035 9.14072 11.5731 7.59378 10.4789 6.50263C9.46623 5.49274 8.04433 5.01016 6.6921 5.2175ZM35.0128 5.2175C34.3874 5.3134 33.7337 5.57328 33.1684 5.95078C31.3159 7.1878 30.6955 9.6842 31.7416 11.6921C32.0824 12.346 32.9825 13.2293 33.6489 13.5635C35.3946 14.4391 37.3754 14.1221 38.7545 12.7465C39.3999 12.1026 39.7791 11.4531 39.9616 10.6789C40.3242 9.14072 39.8937 7.59378 38.7996 6.50263C37.7869 5.49274 36.365 5.01016 35.0128 5.2175ZM5.6501 16.8009C4.96301 16.8929 4.5349 17.0308 3.87411 17.3733C2.45293 18.1101 1.44891 19.3594 1.06184 20.8729C0.912348 21.4574 0.903176 21.7801 0.903176 26.4544C0.903176 32.0176 0.887567 31.8536 1.48262 32.5296C1.66188 32.7333 1.99408 32.9978 2.22081 33.1174L2.63299 33.3348H5.43223H8.23139L8.22729 29.9959C8.22206 25.724 8.32971 24.5195 8.87794 22.7146C9.3305 21.2248 10.147 19.7812 11.2513 18.5185C11.4895 18.2462 11.6843 18.0061 11.6843 17.9849C11.6843 17.9636 11.4511 17.7944 11.166 17.6086C10.4974 17.173 9.72418 16.9075 8.82363 16.8044C8.01955 16.7122 6.32642 16.7104 5.6501 16.8009ZM19.0596 16.8409C16.6041 17.2431 14.6288 18.3102 12.9901 20.1196C11.8415 21.3879 11.1459 22.8996 10.7911 24.8985C10.5862 26.0528 10.5035 29.5124 10.6163 32.2085L10.687 33.898L10.9588 34.407C11.2728 34.9951 11.701 35.399 12.328 35.6983L12.7705 35.9095L19.1668 35.9667C30.7398 36.0704 31.1886 36.0189 32.004 34.4922L32.3214 33.898L32.3443 29.766C32.3696 25.2074 32.3431 24.8515 31.8733 23.4496C30.7845 20.1997 27.8872 17.5672 24.6781 16.912C23.8261 16.7381 19.9841 16.6895 19.0596 16.8409ZM34.0688 16.8041C33.2849 16.9026 32.4645 17.1979 31.8341 17.6086C31.5489 17.7944 31.3157 17.9636 31.3157 17.9849C31.3157 18.0061 31.5106 18.2462 31.7487 18.5185C33.024 19.9767 33.8519 21.5112 34.2911 23.2315C34.6738 24.7306 34.7144 25.2571 34.7662 29.3925L34.8156 33.3348H37.5511H40.2866L40.7117 33.1109C41.2872 32.8076 41.7344 32.3263 41.9324 31.7971C42.0915 31.372 42.0969 31.1957 42.0969 26.4254C42.0969 21.7799 42.0876 21.4572 41.9382 20.8729C41.6863 19.888 41.2795 19.1941 40.4917 18.4055C39.7426 17.6557 38.943 17.1738 38.0338 16.9242C37.4565 16.7657 34.974 16.6905 34.0688 16.8041Z" fill="black" fill-opacity="0.2"/>
</svg>
