<svg width="39" height="36" viewBox="0 0 39 36" fill="none" xmlns="http://www.w3.org/2000/svg">
<path fill-rule="evenodd" clip-rule="evenodd" d="M20.4134 0.0612904C16.5867 0.49901 13.1351 2.11354 10.5942 4.65453C9.47405 5.77467 8.76658 6.74107 8.76658 7.15106C8.76658 7.67716 8.92503 7.73142 10.4621 7.7317C12.7323 7.73216 14.3495 8.0241 16.075 8.74506C16.999 9.13111 17.7696 9.57003 19.7119 10.8165C21.3075 11.8405 22.152 12.1775 23.2765 12.2388C23.9031 12.273 24.2523 12.2445 24.6632 12.1259C25.2245 11.9638 26.237 11.4688 26.6371 11.1612L26.8603 10.9896L26.6371 10.8741C25.9634 10.5252 17.677 5.6679 17.7061 5.63887C17.7739 5.57111 19.681 5.79796 20.6363 5.98738C21.8772 6.23347 23.0461 6.62191 24.1251 7.14662C26.7064 8.402 28.8972 10.8011 30.0658 13.6524C30.376 14.4094 30.5263 14.5722 30.9152 14.5722C31.2974 14.5722 31.578 14.2536 31.5072 13.8999C31.3283 13.0053 30.1906 10.9276 29.2085 9.70176L28.5825 8.92043L28.8714 8.07901C29.4418 6.41761 29.3313 4.83101 28.5324 3.21278C27.8055 1.74043 26.4585 0.581378 25.027 0.196351C24.3612 0.0171951 21.5247 -0.0658194 20.4134 0.0612904ZM9.20856 12.9751C8.47354 13.7682 7.39823 15.5769 6.89026 16.8748C6.69936 17.3626 6.5056 17.7881 6.45975 17.8205C6.4139 17.853 6.17872 17.9058 5.93716 17.9378C5.32759 18.0186 4.27115 18.3906 3.64429 18.745C3.35503 18.9087 2.78318 19.3783 2.37365 19.7887C1.17152 20.9933 0.580434 22.3551 0.577476 23.9276C0.575442 24.962 0.712443 25.4956 1.27265 26.6361C2.78632 29.7179 5.22646 32.35 8.12216 34.0248C9.70775 34.942 11.9591 35.7011 13.7894 35.9358C14.5245 36.0301 14.6513 36.0248 14.8553 35.8912C15.2903 35.6061 15.253 35.3813 14.5876 34.28C13.5675 32.5914 12.9278 30.9353 12.6531 29.2708C12.4738 28.1847 12.4567 27.484 12.5438 24.7872C12.6221 22.3622 12.5458 21.763 12.0235 20.702C11.6303 19.9034 10.7873 19.0594 9.93581 18.612C9.57787 18.4239 9.25986 18.27 9.22917 18.27C9.19848 18.27 9.17334 20.6703 9.17334 23.604C9.17334 27.2066 9.14292 28.9075 9.07969 28.8443C8.88685 28.6515 7.96112 26.3698 7.70561 25.4574C7.30219 24.0173 7.19347 23.2452 7.19467 21.8291C7.19717 18.9257 7.90492 16.9742 10.0912 13.8419C10.4227 13.3669 10.4444 13.1625 10.1902 12.9083C9.92185 12.6399 9.49208 12.6691 9.20856 12.9751ZM35.9606 16.3056C35.8822 16.3946 35.7034 16.6961 35.5633 16.9758C34.5457 19.0056 32.7909 21.0339 31.0502 22.1922C30.6255 22.4748 29.5559 23.0846 28.6733 23.5476C26.8372 24.5104 26.4059 24.7835 25.7819 25.378C25.1792 25.9523 24.8344 26.4666 24.5557 27.2071C24.3076 27.8662 24.1693 29.0873 24.2774 29.6637L24.3388 29.991L28.4733 27.6364C30.7472 26.3414 32.8366 25.1513 33.1162 24.9917L33.6246 24.7015L33.4499 24.9756C32.2763 26.8158 30.657 28.4996 28.9683 29.636C28.0782 30.2349 26.58 30.915 25.6066 31.162C23.9305 31.5871 22.603 31.6538 20.2096 31.4329C19.6161 31.3782 19.5325 31.3915 19.3545 31.5695C19.1152 31.8088 19.1011 32.1395 19.319 32.4076C19.5397 32.6792 20.3156 32.7831 22.1616 32.7884C23.4595 32.792 24.7136 32.6922 25.1763 32.5483C25.277 32.517 25.4559 32.6714 25.7291 33.0256C26.8139 34.4317 28.813 35.3739 30.7044 35.3706C32.8256 35.367 34.4787 34.4037 35.6736 32.475C36.8465 30.5818 37.7363 28.3916 38.175 26.3179C38.3968 25.2699 38.4208 24.9638 38.4225 23.1695C38.4241 21.357 38.4023 21.0788 38.1746 20.0103C37.7961 18.2335 37.1092 16.4437 36.7272 16.2393C36.4579 16.0952 36.1202 16.1244 35.9606 16.3056Z" fill="#08A9A0"/>
<path fill-rule="evenodd" clip-rule="evenodd" d="M20.4134 0.0612904C16.5867 0.49901 13.1351 2.11354 10.5942 4.65453C9.47405 5.77467 8.76658 6.74107 8.76658 7.15106C8.76658 7.67716 8.92503 7.73142 10.4621 7.7317C12.7323 7.73216 14.3495 8.0241 16.075 8.74506C16.999 9.13111 17.7696 9.57003 19.7119 10.8165C21.3075 11.8405 22.152 12.1775 23.2765 12.2388C23.9031 12.273 24.2523 12.2445 24.6632 12.1259C25.2245 11.9638 26.237 11.4688 26.6371 11.1612L26.8603 10.9896L26.6371 10.8741C25.9634 10.5252 17.677 5.6679 17.7061 5.63887C17.7739 5.57111 19.681 5.79796 20.6363 5.98738C21.8772 6.23347 23.0461 6.62191 24.1251 7.14662C26.7064 8.402 28.8972 10.8011 30.0658 13.6524C30.376 14.4094 30.5263 14.5722 30.9152 14.5722C31.2974 14.5722 31.578 14.2536 31.5072 13.8999C31.3283 13.0053 30.1906 10.9276 29.2085 9.70176L28.5825 8.92043L28.8714 8.07901C29.4418 6.41761 29.3313 4.83101 28.5324 3.21278C27.8055 1.74043 26.4585 0.581378 25.027 0.196351C24.3612 0.0171951 21.5247 -0.0658194 20.4134 0.0612904ZM9.20856 12.9751C8.47354 13.7682 7.39823 15.5769 6.89026 16.8748C6.69936 17.3626 6.5056 17.7881 6.45975 17.8205C6.4139 17.853 6.17872 17.9058 5.93716 17.9378C5.32759 18.0186 4.27115 18.3906 3.64429 18.745C3.35503 18.9087 2.78318 19.3783 2.37365 19.7887C1.17152 20.9933 0.580434 22.3551 0.577476 23.9276C0.575442 24.962 0.712443 25.4956 1.27265 26.6361C2.78632 29.7179 5.22646 32.35 8.12216 34.0248C9.70775 34.942 11.9591 35.7011 13.7894 35.9358C14.5245 36.0301 14.6513 36.0248 14.8553 35.8912C15.2903 35.6061 15.253 35.3813 14.5876 34.28C13.5675 32.5914 12.9278 30.9353 12.6531 29.2708C12.4738 28.1847 12.4567 27.484 12.5438 24.7872C12.6221 22.3622 12.5458 21.763 12.0235 20.702C11.6303 19.9034 10.7873 19.0594 9.93581 18.612C9.57787 18.4239 9.25986 18.27 9.22917 18.27C9.19848 18.27 9.17334 20.6703 9.17334 23.604C9.17334 27.2066 9.14292 28.9075 9.07969 28.8443C8.88685 28.6515 7.96112 26.3698 7.70561 25.4574C7.30219 24.0173 7.19347 23.2452 7.19467 21.8291C7.19717 18.9257 7.90492 16.9742 10.0912 13.8419C10.4227 13.3669 10.4444 13.1625 10.1902 12.9083C9.92185 12.6399 9.49208 12.6691 9.20856 12.9751ZM35.9606 16.3056C35.8822 16.3946 35.7034 16.6961 35.5633 16.9758C34.5457 19.0056 32.7909 21.0339 31.0502 22.1922C30.6255 22.4748 29.5559 23.0846 28.6733 23.5476C26.8372 24.5104 26.4059 24.7835 25.7819 25.378C25.1792 25.9523 24.8344 26.4666 24.5557 27.2071C24.3076 27.8662 24.1693 29.0873 24.2774 29.6637L24.3388 29.991L28.4733 27.6364C30.7472 26.3414 32.8366 25.1513 33.1162 24.9917L33.6246 24.7015L33.4499 24.9756C32.2763 26.8158 30.657 28.4996 28.9683 29.636C28.0782 30.2349 26.58 30.915 25.6066 31.162C23.9305 31.5871 22.603 31.6538 20.2096 31.4329C19.6161 31.3782 19.5325 31.3915 19.3545 31.5695C19.1152 31.8088 19.1011 32.1395 19.319 32.4076C19.5397 32.6792 20.3156 32.7831 22.1616 32.7884C23.4595 32.792 24.7136 32.6922 25.1763 32.5483C25.277 32.517 25.4559 32.6714 25.7291 33.0256C26.8139 34.4317 28.813 35.3739 30.7044 35.3706C32.8256 35.367 34.4787 34.4037 35.6736 32.475C36.8465 30.5818 37.7363 28.3916 38.175 26.3179C38.3968 25.2699 38.4208 24.9638 38.4225 23.1695C38.4241 21.357 38.4023 21.0788 38.1746 20.0103C37.7961 18.2335 37.1092 16.4437 36.7272 16.2393C36.4579 16.0952 36.1202 16.1244 35.9606 16.3056Z" fill="black" fill-opacity="0.2"/>
</svg>
