<svg width="184" height="35" viewBox="0 0 184 35" fill="none" xmlns="http://www.w3.org/2000/svg">
<path d="M49.2604 24.8401C47.8985 24.8401 46.6304 24.581 45.456 24.0682C44.2871 23.5554 43.3414 22.8056 42.6219 21.8186C41.9079 20.8261 41.5522 19.6131 41.5522 18.1796V5.29951H45.6875V18.0913C45.6875 19.1224 46.0432 19.8971 46.7572 20.4181C47.4685 20.9419 48.3038 21.2011 49.2604 21.2011C50.2143 21.2011 51.0469 20.9419 51.7526 20.4181C52.4584 19.8971 52.8113 19.1224 52.8113 18.0913V5.29951H56.8804V18.1796C56.8804 19.6131 56.5275 20.8261 55.8217 21.8186C55.116 22.8056 54.1842 23.5554 53.0318 24.0682C51.8767 24.581 50.6196 24.8401 49.2604 24.8401Z" fill="#08A9A0"/>
<path d="M49.2604 24.8401C47.8985 24.8401 46.6304 24.581 45.456 24.0682C44.2871 23.5554 43.3414 22.8056 42.6219 21.8186C41.9079 20.8261 41.5522 19.6131 41.5522 18.1796V5.29951H45.6875V18.0913C45.6875 19.1224 46.0432 19.8971 46.7572 20.4181C47.4685 20.9419 48.3038 21.2011 49.2604 21.2011C50.2143 21.2011 51.0469 20.9419 51.7526 20.4181C52.4584 19.8971 52.8113 19.1224 52.8113 18.0913V5.29951H56.8804V18.1796C56.8804 19.6131 56.5275 20.8261 55.8217 21.8186C55.116 22.8056 54.1842 23.5554 53.0318 24.0682C51.8767 24.581 50.6196 24.8401 49.2604 24.8401Z" fill="black" fill-opacity="0.2"/>
<path d="M65.2712 13.5589V24.5643H61.169V5.21112H62.4592L73.2771 16.2275V5.29934H77.4124V24.6194H76.1663L65.2712 13.5589Z" fill="#08A9A0"/>
<path d="M65.2712 13.5589V24.5643H61.169V5.21112H62.4592L73.2771 16.2275V5.29934H77.4124V24.6194H76.1663L65.2712 13.5589Z" fill="black" fill-opacity="0.2"/>
<path d="M90.4489 21.2893V24.5644H80.866V21.2893H83.5898V8.48644H81.0866V5.29951H90.2283V8.48644H87.7251V21.2893H90.4489Z" fill="#08A9A0"/>
<path d="M90.4489 21.2893V24.5644H80.866V21.2893H83.5898V8.48644H81.0866V5.29951H90.2283V8.48644H87.7251V21.2893H90.4489Z" fill="black" fill-opacity="0.2"/>
<path d="M108.168 11.0227C108.168 11.7229 107.997 12.3983 107.66 13.0517C107.321 13.6996 106.847 14.2068 106.238 14.5735C107.142 14.9429 107.826 15.5053 108.289 16.2607C108.757 17.0106 108.995 17.879 108.995 18.8632C108.995 20.5559 108.457 21.9288 107.385 22.9874C106.309 24.0406 104.81 24.5644 102.885 24.5644H93.9421V5.32149H102.113C103.288 5.32149 104.33 5.55031 105.234 6.00519C106.144 6.45456 106.861 7.10242 107.385 7.94602C107.906 8.7841 108.168 9.80965 108.168 11.0227ZM98.0443 8.85027V13.2282H101.816C102.505 13.2282 103.056 13.0462 103.47 12.6768C103.889 12.3101 104.104 11.8029 104.12 11.155C104.142 10.4658 103.938 9.9089 103.514 9.48986C103.095 9.0653 102.527 8.85027 101.816 8.85027H98.0443ZM98.0443 16.5805V20.9915H102.61C103.307 20.9915 103.859 20.8013 104.264 20.418C104.666 20.0293 104.887 19.511 104.925 18.8632C104.939 18.4827 104.873 18.1216 104.727 17.7825C104.578 17.4462 104.358 17.1732 104.065 16.9665C103.828 16.8066 103.572 16.7018 103.293 16.6577C103.02 16.6081 102.725 16.5805 102.411 16.5805H98.0443Z" fill="#08A9A0"/>
<path d="M108.168 11.0227C108.168 11.7229 107.997 12.3983 107.66 13.0517C107.321 13.6996 106.847 14.2068 106.238 14.5735C107.142 14.9429 107.826 15.5053 108.289 16.2607C108.757 17.0106 108.995 17.879 108.995 18.8632C108.995 20.5559 108.457 21.9288 107.385 22.9874C106.309 24.0406 104.81 24.5644 102.885 24.5644H93.9421V5.32149H102.113C103.288 5.32149 104.33 5.55031 105.234 6.00519C106.144 6.45456 106.861 7.10242 107.385 7.94602C107.906 8.7841 108.168 9.80965 108.168 11.0227ZM98.0443 8.85027V13.2282H101.816C102.505 13.2282 103.056 13.0462 103.47 12.6768C103.889 12.3101 104.104 11.8029 104.12 11.155C104.142 10.4658 103.938 9.9089 103.514 9.48986C103.095 9.0653 102.527 8.85027 101.816 8.85027H98.0443ZM98.0443 16.5805V20.9915H102.61C103.307 20.9915 103.859 20.8013 104.264 20.418C104.666 20.0293 104.887 19.511 104.925 18.8632C104.939 18.4827 104.873 18.1216 104.727 17.7825C104.578 17.4462 104.358 17.1732 104.065 16.9665C103.828 16.8066 103.572 16.7018 103.293 16.6577C103.02 16.6081 102.725 16.5805 102.411 16.5805H98.0443Z" fill="black" fill-opacity="0.2"/>
<path d="M115.783 21.3665L114.294 24.5645H110.004V24.0131L118.871 5.13411H120.767L129.578 24.0131V24.5645H125.311L123.8 21.3665H115.783ZM117.128 17.9039H122.477L119.808 11.5411L117.128 17.9039Z" fill="#08A9A0"/>
<path d="M115.783 21.3665L114.294 24.5645H110.004V24.0131L118.871 5.13411H120.767L129.578 24.0131V24.5645H125.311L123.8 21.3665H115.783ZM117.128 17.9039H122.477L119.808 11.5411L117.128 17.9039Z" fill="black" fill-opacity="0.2"/>
<path d="M145.01 5.90602L136.288 20.8813H145.088V24.5644H130.035V23.991L138.868 8.90549H130.807V5.29951H145.01V5.90602Z" fill="#08A9A0"/>
<path d="M145.01 5.90602L136.288 20.8813H145.088V24.5644H130.035V23.991L138.868 8.90549H130.807V5.29951H145.01V5.90602Z" fill="black" fill-opacity="0.2"/>
<path d="M151.687 21.3665L150.198 24.5645H145.908V24.0131L154.774 5.13411H156.671L165.482 24.0131V24.5645H161.214L159.704 21.3665H151.687ZM153.032 17.9039H158.38L155.712 11.5411L153.032 17.9039Z" fill="#08A9A0"/>
<path d="M151.687 21.3665L150.198 24.5645H145.908V24.0131L154.774 5.13411H156.671L165.482 24.0131V24.5645H161.214L159.704 21.3665H151.687ZM153.032 17.9039H158.38L155.712 11.5411L153.032 17.9039Z" fill="black" fill-opacity="0.2"/>
<path d="M183.528 23.9579V24.5424H179.117L175.158 18.1795H171.718V24.5424H167.593V5.26641C168.966 5.26641 170.339 5.26365 171.706 5.25538C173.074 5.24986 174.444 5.25262 175.82 5.26641C177.289 5.26641 178.527 5.58069 179.536 6.20374C180.542 6.82955 181.306 7.64833 181.83 8.66286C182.351 9.67187 182.613 10.7415 182.613 11.8718C182.613 13.1069 182.315 14.229 181.719 15.2352C181.124 16.2442 180.275 17.0161 179.172 17.551L183.528 23.9579ZM175.787 14.7941C176.652 14.7941 177.347 14.5019 177.871 13.9119C178.392 13.3247 178.646 12.6189 178.632 11.7946C178.632 10.9869 178.378 10.3004 177.871 9.73252C177.364 9.15909 176.669 8.87238 175.787 8.87238H171.662V14.7941H175.787Z" fill="#08A9A0"/>
<path d="M183.528 23.9579V24.5424H179.117L175.158 18.1795H171.718V24.5424H167.593V5.26641C168.966 5.26641 170.339 5.26365 171.706 5.25538C173.074 5.24986 174.444 5.25262 175.82 5.26641C177.289 5.26641 178.527 5.58069 179.536 6.20374C180.542 6.82955 181.306 7.64833 181.83 8.66286C182.351 9.67187 182.613 10.7415 182.613 11.8718C182.613 13.1069 182.315 14.229 181.719 15.2352C181.124 16.2442 180.275 17.0161 179.172 17.551L183.528 23.9579ZM175.787 14.7941C176.652 14.7941 177.347 14.5019 177.871 13.9119C178.392 13.3247 178.646 12.6189 178.632 11.7946C178.632 10.9869 178.378 10.3004 177.871 9.73252C177.364 9.15909 176.669 8.87238 175.787 8.87238H171.662V14.7941H175.787Z" fill="black" fill-opacity="0.2"/>
<path d="M170.638 34.8195C170.395 34.8195 170.197 34.7423 170.042 34.5879C169.894 34.4335 169.822 34.2433 169.822 34.0145C169.822 33.7801 169.894 33.5899 170.042 33.441C170.197 33.2949 170.395 33.2205 170.638 33.2205C170.894 33.2205 171.096 33.2949 171.244 33.441C171.399 33.5899 171.476 33.7801 171.476 34.0145C171.476 34.2433 171.399 34.4335 171.244 34.5879C171.096 34.7423 170.894 34.8195 170.638 34.8195Z" fill="#08A9A0"/>
<path d="M170.638 34.8195C170.395 34.8195 170.197 34.7423 170.042 34.5879C169.894 34.4335 169.822 34.2433 169.822 34.0145C169.822 33.7801 169.894 33.5899 170.042 33.441C170.197 33.2949 170.395 33.2205 170.638 33.2205C170.894 33.2205 171.096 33.2949 171.244 33.441C171.399 33.5899 171.476 33.7801 171.476 34.0145C171.476 34.2433 171.399 34.4335 171.244 34.5879C171.096 34.7423 170.894 34.8195 170.638 34.8195Z" fill="black" fill-opacity="0.2"/>
<path d="M173.459 34.7201V26.1959H174.529V34.7201H173.459Z" fill="#08A9A0"/>
<path d="M173.459 34.7201V26.1959H174.529V34.7201H173.459Z" fill="black" fill-opacity="0.2"/>
<path d="M177.015 34.7201V26.1959H178.019L182.739 32.8675V26.1959H183.786V34.7201H182.783L178.074 28.0375V34.7201H177.015Z" fill="#08A9A0"/>
<path d="M177.015 34.7201V26.1959H178.019L182.739 32.8675V26.1959H183.786V34.7201H182.783L178.074 28.0375V34.7201H177.015Z" fill="black" fill-opacity="0.2"/>
<mask id="mask0_328_37" style="mask-type:luminance" maskUnits="userSpaceOnUse" x="0" y="0" width="38" height="31">
<path d="M0 0.180542H37.1569V30.9636H0V0.180542Z" fill="white"/>
</mask>
<g mask="url(#mask0_328_37)">
<mask id="mask1_328_37" style="mask-type:luminance" maskUnits="userSpaceOnUse" x="0" y="0" width="38" height="31">
<path d="M6.88112 0.180542H30.2317C32.054 0.180542 33.8046 0.905597 35.0948 2.19581C36.3878 3.48877 37.1128 5.23662 37.1128 7.06166V24.0825C37.1128 25.9076 36.3878 27.6582 35.0948 28.9484C33.8046 30.2386 32.054 30.9636 30.2317 30.9636H6.88112C5.05608 30.9636 3.30547 30.2386 2.01526 28.9484C0.725054 27.6582 0 25.9076 0 24.0825V7.06166C0 5.23662 0.725054 3.48877 2.01526 2.19581C3.30547 0.905597 5.05608 0.180542 6.88112 0.180542Z" fill="white"/>
</mask>
<g mask="url(#mask1_328_37)">
<path d="M0 0.180542H37.1569V30.9636H0V0.180542Z" fill="#08A9A0"/>
<path d="M0 0.180542H37.1569V30.9636H0V0.180542Z" fill="black" fill-opacity="0.2"/>
</g>
</g>
<path d="M23.4749 13.9948C24.732 14.0775 25.8458 14.3036 26.8162 14.6785C27.7866 15.0479 28.542 15.6352 29.0878 16.4429C29.6392 17.2534 29.9149 18.3672 29.9149 19.7842C29.9149 21.3805 29.551 22.6045 28.8232 23.4564C28.0954 24.3027 27.1084 24.8761 25.8678 25.1766C24.6328 25.4716 23.2461 25.6288 21.7105 25.6508H14.6088V4.51123H19.7917C21.2915 4.51123 22.6533 4.67113 23.8829 4.98541C25.1097 5.30245 26.0801 5.81247 26.7941 6.51822C27.5137 7.21847 27.8748 8.14477 27.8748 9.29714C27.8748 10.637 27.4448 11.6901 26.5846 12.462C25.73 13.2284 24.6934 13.7384 23.4749 13.9948ZM27.5771 19.7842C27.5771 18.4472 27.3951 17.3995 27.0367 16.6414C26.6756 15.8778 26.2014 15.3154 25.6142 14.9542C25.0242 14.5958 24.3902 14.3698 23.7065 14.2815C23.0283 14.1933 22.3639 14.1492 21.7105 14.1492C21.0103 14.1492 20.3458 13.9562 19.7145 13.5648C19.0887 13.176 18.5566 12.644 18.1156 11.9658C17.8564 11.5633 17.6331 11.1056 17.4429 10.5984C17.2499 10.0911 17.0955 9.54801 16.9797 8.96631V25.4082H21.4679C22.1433 25.4082 22.8353 25.3641 23.541 25.2759C24.2523 25.1877 24.914 24.9726 25.526 24.6253C26.1353 24.2724 26.6287 23.7155 27.0037 22.9491C27.3841 22.1772 27.5771 21.1241 27.5771 19.7842ZM25.537 9.29714C25.537 8.15856 25.2558 7.25431 24.6989 6.58439C24.1393 5.91723 23.4197 5.43754 22.5376 5.15082C21.6609 4.86411 20.7456 4.72075 19.7917 4.72075H16.9797V6.69466C16.9797 7.73124 17.0955 8.68512 17.3326 9.55077C17.5752 10.4192 17.9171 11.1718 18.3582 11.8114C19.2321 13.2091 20.3486 13.9066 21.7105 13.9066C22.3859 13.9066 23.0145 13.7495 23.5962 13.4324C24.1751 13.1099 24.6438 12.6109 24.9967 11.9327C25.3551 11.2573 25.537 10.3778 25.537 9.29714Z" fill="white"/>
<mask id="mask2_328_37" style="mask-type:luminance" maskUnits="userSpaceOnUse" x="11" y="3" width="11" height="26">
<path d="M11.6367 3.70924H21.294V28.1157H11.6367V3.70924Z" fill="white"/>
</mask>
<g mask="url(#mask2_328_37)">
<mask id="mask3_328_37" style="mask-type:luminance" maskUnits="userSpaceOnUse" x="11" y="3" width="11" height="26">
<path d="M16.4667 3.70924C19.1326 3.70924 21.294 5.87062 21.294 8.5365V23.2636C21.294 25.9323 19.1326 28.0937 16.4667 28.0937C13.7981 28.0937 11.6367 25.9323 11.6367 23.2636V8.5365C11.6367 5.87062 13.7981 3.70924 16.4667 3.70924Z" fill="white"/>
</mask>
<g mask="url(#mask3_328_37)">
<path d="M11.6367 3.70924H21.294V28.0771H11.6367V3.70924Z" fill="#08A9A0"/>
<path d="M11.6367 3.70924H21.294V28.0771H11.6367V3.70924Z" fill="black" fill-opacity="0.2"/>
</g>
</g>
<path d="M5.53653 4.43422V18.8471C5.53653 20.1704 5.78465 21.3917 6.28639 22.5082C6.79366 23.6275 7.48011 24.5538 8.34852 25.2871C9.22245 26.0232 10.2287 26.4946 11.37 26.6986C12.5086 26.8971 13.7189 26.762 14.9981 26.2906C16.5336 25.7392 17.7329 24.8212 18.593 23.5337C19.4587 22.2408 19.8942 20.6776 19.8942 18.8471C19.8942 17.6561 19.875 16.3714 19.8391 14.9875C19.8088 13.598 19.7233 12.2279 19.5855 10.8742C19.4449 9.52338 19.2243 8.28279 18.9238 7.158C18.6289 6.02768 18.2181 5.11792 17.6888 4.43422H20.181V18.8471C20.181 20.6197 19.7454 22.1939 18.8797 23.5668C18.0196 24.9342 16.7459 25.9322 15.0642 26.5553C13.6362 27.0625 12.2081 27.2445 10.7746 27.1066C9.34651 26.9688 8.05078 26.5497 6.88188 25.8495C5.71297 25.1437 4.77564 24.1954 4.06988 23.0044C3.36412 21.8135 3.01125 20.4295 3.01125 18.8471V4.43422H5.53653Z" fill="white"/>
<path d="M32.0375 23.5366L30.9347 23.1976L31.2738 24.3003L31.5302 24.0412L31.8996 24.4106L32.145 24.1625L31.7783 23.7958L32.0375 23.5366Z" fill="#BFFA31"/>
<mask id="mask4_328_37" style="mask-type:luminance" maskUnits="userSpaceOnUse" x="29" y="21" width="4" height="5">
<path d="M29.8678 21.0278H32.9941V25.4057H29.8678V21.0278Z" fill="white"/>
</mask>
<g mask="url(#mask4_328_37)">
<path d="M32.4455 22.0782V21.9376C32.4455 21.4359 32.0403 21.0306 31.5413 21.0306C31.0423 21.0306 30.6343 21.4386 30.6343 21.9376V22.0782H29.8734V25.4168H33.2092V22.0782H32.4455ZM30.9513 21.9349C30.9513 21.6123 31.216 21.3477 31.5413 21.3477C31.8666 21.3477 32.1285 21.6123 32.1285 21.9349V22.0755H30.9513V21.9349ZM32.8921 25.0997H30.1904V22.3953H30.6343V22.569H30.9513V22.3953H32.1313V22.569H32.4483V22.3953H32.8921V25.0997Z" fill="white"/>
</g>
</svg>
