<svg width="73" height="60" viewBox="0 0 73 60" fill="none" xmlns="http://www.w3.org/2000/svg">
<mask id="mask0_401_717" style="mask-type:luminance" maskUnits="userSpaceOnUse" x="0" y="0" width="73" height="60">
<path d="M0 0H73V60H0V0Z" fill="white"/>
</mask>
<g mask="url(#mask0_401_717)">
<mask id="mask1_401_717" style="mask-type:luminance" maskUnits="userSpaceOnUse" x="0" y="0" width="73" height="60">
<path d="M14.4101 0H58.503C62.3254 0 65.9898 1.50617 68.693 4.18671C71.3949 6.86726 72.9131 10.504 72.9131 14.2962V45.7038C72.9131 49.496 71.3949 53.1314 68.693 55.8133C65.9898 58.4938 62.3254 60 58.503 60H14.4101C10.589 60 6.92329 58.4938 4.22139 55.8133C1.51949 53.1314 0 49.496 0 45.7038V14.2962C0 10.504 1.51949 6.86726 4.22139 4.18671C6.92329 1.50617 10.589 0 14.4101 0Z" fill="white"/>
</mask>
<g mask="url(#mask1_401_717)">
<path d="M0 0H73V60H0V0Z" fill="#08A9A0"/>
<path d="M0 0H73V60H0V0Z" fill="black" fill-opacity="0.2"/>
</g>
</g>
<path d="M46.7102 27.1348C48.9986 27.2811 51.0226 27.6907 52.7819 28.3637C54.5437 29.0343 55.9238 30.1048 56.9224 31.5776C57.9233 33.0504 58.4244 35.0767 58.4244 37.6542C58.4244 40.5608 57.7612 42.7871 56.4347 44.3306C55.1082 45.8754 53.3183 46.9203 51.0652 47.4665C48.8145 48.0102 46.2908 48.2992 43.4914 48.3345H30.5775V9.86084H40.0045C42.7282 9.86084 45.2081 10.1522 47.4417 10.7338C49.6778 11.3166 51.4505 12.2432 52.7575 13.5136C54.0645 14.7853 54.718 16.4739 54.718 18.5807C54.718 21.0167 53.9353 22.9333 52.3722 24.3305C50.8116 25.729 48.9243 26.6641 46.7102 27.1348ZM54.1718 37.6542C54.1718 35.2194 53.8451 33.3125 53.1915 31.9336C52.538 30.5522 51.6748 29.5342 50.6019 28.8807C49.5315 28.2272 48.3793 27.82 47.1442 27.6566C45.9079 27.4908 44.6911 27.4079 43.4914 27.4079C42.2198 27.4079 41.0115 27.0543 39.8679 26.3447C38.7231 25.6363 37.7513 24.6646 36.9515 23.4283C36.4797 22.7041 36.0713 21.8775 35.7274 20.9509C35.3824 20.0243 35.1008 19.0343 34.8837 17.9808V47.9005H43.0574C44.2925 47.9005 45.5544 47.82 46.8419 47.6567C48.1318 47.4908 49.3315 47.0909 50.441 46.457C51.5493 45.8205 52.4478 44.8025 53.1379 43.404C53.8268 42.0068 54.1718 40.0902 54.1718 37.6542ZM50.4702 18.5807C50.4702 16.5105 49.9606 14.867 48.9438 13.6502C47.9257 12.431 46.6175 11.558 45.0179 11.0313C43.4207 10.5046 41.7504 10.2412 40.0045 10.2412H34.8837V13.8404C34.8837 15.7302 35.1008 17.4639 35.5372 19.044C35.9725 20.6241 36.5906 21.997 37.3905 23.1601C38.9864 25.7034 41.0201 26.9738 43.4914 26.9738C44.7265 26.9738 45.8714 26.6836 46.9248 26.1009C47.9782 25.5193 48.8316 24.611 49.4851 23.3747C50.1411 22.1396 50.4702 20.5412 50.4702 18.5807Z" fill="white"/>
<mask id="mask2_401_717" style="mask-type:luminance" maskUnits="userSpaceOnUse" x="25" y="8" width="18" height="45">
<path d="M25.1705 8.41553H42.7394V52.7781H25.1705V8.41553Z" fill="white"/>
</mask>
<g mask="url(#mask2_401_717)">
<path d="M25.1705 8.41553H42.7394V52.7488H25.1705V8.41553Z" fill="#08A9A0"/>
<path d="M25.1705 8.41553H42.7394V52.7488H25.1705V8.41553Z" fill="black" fill-opacity="0.2"/>
</g>
<path d="M14.0791 9.74512V35.9583C14.0791 38.3651 14.5338 40.5853 15.4446 42.6202C16.3541 44.6526 17.6051 46.3388 19.1949 47.6775C20.7848 49.0138 22.6148 49.866 24.6863 50.233C26.7602 50.6012 28.9597 50.3586 31.2847 49.5063C34.0743 48.4992 36.2542 46.8228 37.8246 44.4783C39.395 42.1349 40.1801 39.2941 40.1801 35.9583C40.1801 33.7906 40.1509 31.446 40.0924 28.9259C40.0338 26.407 39.8778 23.9173 39.6242 21.4594C39.373 18.999 38.9768 16.741 38.4342 14.6854C37.8904 12.631 37.1345 10.9838 36.1665 9.74512H40.702V35.9583C40.702 39.1771 39.9168 42.0374 38.3464 44.5368C36.7785 47.0374 34.4644 48.8479 31.4017 49.9696C28.8036 50.8987 26.2054 51.2376 23.6085 50.984C21.014 50.7341 18.6499 49.9696 16.5175 48.6919C14.3875 47.4141 12.6818 45.6914 11.4017 43.5224C10.1239 41.351 9.48505 38.8296 9.48505 35.9583V9.74512H14.0791Z" fill="white"/>
<path d="M62.2847 44.4922L60.2803 43.874L60.896 45.8809L61.3654 45.4115L62.0348 46.0808L62.4859 45.6309L61.8153 44.9616L62.2847 44.4922Z" fill="#BFFA31"/>
<mask id="mask3_401_717" style="mask-type:luminance" maskUnits="userSpaceOnUse" x="58" y="39" width="7" height="9">
<path d="M58.3381 39.9263H64.4245V47.8853H58.3381V39.9263Z" fill="white"/>
</mask>
<g mask="url(#mask3_401_717)">
<path d="M63.032 41.8358V41.5798C63.032 40.669 62.2907 39.9302 61.3824 39.9302C60.4753 39.9302 59.734 40.6715 59.734 41.5798V41.8358H58.3465V47.9173H64.4194V41.8358H63.032ZM60.3107 41.5773C60.3107 40.9872 60.7923 40.5056 61.3824 40.5056C61.9737 40.5056 62.454 40.9872 62.454 41.5773V41.8334H60.3107V41.5773ZM63.8415 47.3394H58.9244V42.4125H59.734V42.7283H60.3107V42.4125H62.4565V42.7283H63.0332V42.4125H63.844V47.3394H63.8415Z" fill="white"/>
</g>
</svg>
