<svg width="330" height="330" viewBox="0 0 330 330" fill="none" xmlns="http://www.w3.org/2000/svg">
<path d="M78.474 72.0522C87.8382 72.0522 95.4294 64.461 95.4294 55.0968C95.4294 45.7325 87.8382 38.1414 78.474 38.1414C69.1098 38.1414 61.5186 45.7325 61.5186 55.0968C61.5186 64.461 69.1098 72.0522 78.474 72.0522Z" fill="#F5F5F5"/>
<path d="M237.478 274.242C244.099 267.621 244.099 256.885 237.478 250.264C230.856 243.642 220.121 243.642 213.499 250.264C206.878 256.885 206.878 267.621 213.499 274.242C220.121 280.864 230.856 280.864 237.478 274.242Z" fill="#F5F5F5"/>
<path d="M157.054 27.5946H144.679C140.895 27.5946 137.828 30.6618 137.828 34.4454V46.827C137.828 50.6106 140.895 53.6778 144.679 53.6778H157.054C160.837 53.6778 163.904 50.6106 163.904 46.827V34.4454C163.904 30.6618 160.837 27.5946 157.054 27.5946Z" fill="white"/>
<path d="M157.08 53.6778C157.08 53.6778 157.41 53.6778 158.011 53.5656C158.898 53.4459 159.751 53.14 160.512 52.668C161.73 51.9452 162.691 50.8578 163.258 49.5594C163.603 48.7532 163.794 47.8888 163.819 47.0118C163.819 46.0746 163.819 45.078 163.819 44.0286C163.819 41.9364 163.819 39.6462 163.819 37.1844C163.819 36.5706 163.819 35.9436 163.819 35.3034C163.825 34.6649 163.779 34.0269 163.68 33.396C163.584 32.7534 163.388 32.1298 163.099 31.548C162.813 30.9416 162.432 30.3846 161.971 29.898C161.017 28.8877 159.774 28.1963 158.413 27.918C157.702 27.8067 156.981 27.7626 156.262 27.786H144.685C143.156 27.7863 141.673 28.3104 140.483 29.2711C139.292 30.2317 138.467 31.5711 138.145 33.066C138.018 33.7914 137.967 34.528 137.993 35.2638V37.455C137.993 38.907 137.993 40.326 137.993 41.712C137.993 43.098 137.993 44.4444 137.993 45.7578C137.974 46.3963 137.991 47.0354 138.046 47.6718C138.124 48.2787 138.279 48.8731 138.508 49.4406C138.944 50.4755 139.632 51.3851 140.509 52.0869C141.386 52.7888 142.425 53.2607 143.53 53.46C144.512 53.5706 145.5 53.6103 146.487 53.5788H149.127H153.391H156.09H156.79C156.869 53.5702 156.948 53.5702 157.027 53.5788H156.79H156.09L153.391 53.6118H149.127H146.487C145.487 53.656 144.485 53.6229 143.491 53.5128C142.334 53.32 141.244 52.8393 140.321 52.115C139.398 51.3908 138.673 50.4461 138.211 49.368C137.963 48.7771 137.797 48.1555 137.716 47.52C137.656 46.8618 137.634 46.2008 137.65 45.54C137.65 44.22 137.65 42.9 137.65 41.4942C137.65 40.0884 137.65 38.6892 137.65 37.2372V35.2506C137.619 34.4928 137.67 33.7338 137.801 32.9868C138.136 31.4126 139.001 30.0009 140.251 28.988C141.502 27.9752 143.063 27.4227 144.672 27.423H156.235C156.977 27.3922 157.721 27.4409 158.453 27.5682C159.883 27.8678 161.184 28.6061 162.175 29.6802C162.656 30.1886 163.052 30.77 163.35 31.4028C163.651 32.014 163.854 32.6689 163.951 33.3432C164.038 33.9994 164.069 34.6618 164.043 35.3232C164.043 35.9832 164.043 36.5904 164.043 37.2042C164.043 39.666 164.043 41.9562 164.043 44.0484C164.043 45.0978 164.043 46.0944 164.043 47.0382C164.016 47.9496 163.81 48.8466 163.436 49.6782C162.829 50.9978 161.819 52.0908 160.552 52.8C159.77 53.2602 158.899 53.5503 157.997 53.6514C157.693 53.6851 157.386 53.694 157.08 53.6778Z" fill="#263238"/>
<path d="M151.998 40.4977C152.573 40.2463 153.061 39.8312 153.401 39.3042C153.742 38.7772 153.919 38.1616 153.912 37.5343C153.931 37.1276 153.867 36.7214 153.725 36.34C153.582 35.9587 153.364 35.6102 153.083 35.3157C152.802 35.0212 152.464 34.7867 152.09 34.6266C151.716 34.4664 151.313 34.3838 150.906 34.3838C150.499 34.3838 150.096 34.4664 149.722 34.6266C149.347 34.7867 149.009 35.0212 148.728 35.3157C148.447 35.6102 148.229 35.9587 148.086 36.34C147.944 36.7214 147.88 37.1276 147.899 37.5343C147.887 38.1661 148.062 38.7874 148.403 39.3195C148.744 39.8517 149.234 40.2709 149.813 40.5241C145.193 41.2237 145.405 46.2463 145.405 46.2463L156.334 46.2991C156.334 46.2991 156.585 41.1907 151.998 40.4977Z" fill="#455A64"/>
<path d="M156.347 46.2859L145.398 46.2397C145.391 45.3378 145.552 44.4425 145.873 43.5997C146.155 42.8585 146.607 42.1939 147.193 41.6593C147.921 41.0205 148.821 40.6097 149.78 40.4779C149.211 40.2182 148.731 39.7971 148.399 39.2667C148.067 38.7364 147.898 38.1202 147.913 37.4947C147.909 36.6519 148.228 35.8395 148.804 35.2243C149.075 34.9407 149.401 34.7145 149.761 34.5591C150.122 34.4038 150.51 34.3225 150.902 34.3201C151.729 34.3527 152.51 34.7111 153.074 35.3169C153.637 35.9227 153.939 36.7269 153.912 37.5541C153.92 38.1748 153.748 38.7846 153.417 39.3094C153.085 39.8343 152.608 40.2516 152.044 40.5109C152.998 40.6449 153.892 41.0583 154.612 41.6989C155.185 42.2505 155.621 42.9286 155.885 43.6789C156.2 44.5229 156.352 45.4185 156.334 46.3189L156.347 46.2859ZM145.418 46.2001L156.321 46.2463C156.324 45.3599 156.172 44.4798 155.872 43.6459C155.609 42.8948 155.173 42.2164 154.598 41.6659C153.872 41.0148 152.965 40.6004 151.998 40.4779H151.939H151.991C152.563 40.2275 153.048 39.814 153.387 39.2893C153.725 38.7646 153.901 38.1518 153.892 37.5277C153.923 36.7077 153.626 35.9092 153.068 35.3077C152.51 34.7062 151.736 34.351 150.916 34.3201C150.521 34.3216 150.131 34.4044 149.77 34.5634C149.409 34.7224 149.084 34.9541 148.817 35.2441C148.244 35.8532 147.928 36.6588 147.932 37.4947C147.912 38.1246 148.082 38.746 148.418 39.2789C148.754 39.8117 149.243 40.2317 149.82 40.4845C148.842 40.6051 147.922 41.0167 147.18 41.6659C146.594 42.1954 146.142 42.8557 145.86 43.5931C145.555 44.4279 145.405 45.3114 145.418 46.2001Z" fill="#263238"/>
<path d="M159.707 138.692H143.722C139.938 138.692 136.871 141.76 136.871 145.543V161.535C136.871 165.319 139.938 168.386 143.722 168.386H159.707C163.49 168.386 166.558 165.319 166.558 161.535V145.543C166.558 141.76 163.49 138.692 159.707 138.692Z" fill="white"/>
<path d="M159.72 168.386C159.72 168.386 160.096 168.386 160.796 168.254C162.113 168.032 163.336 167.426 164.312 166.513C165.287 165.6 165.972 164.419 166.28 163.119C166.463 162.116 166.523 161.094 166.459 160.076C166.459 158.987 166.459 157.832 166.459 156.625C166.459 154.202 166.459 151.556 166.459 148.705V146.52C166.489 145.783 166.449 145.045 166.34 144.316C166.05 142.765 165.223 141.365 164.004 140.364C162.785 139.362 161.252 138.822 159.674 138.838H143.768C142.889 138.838 142.019 139.012 141.207 139.35C140.396 139.687 139.658 140.18 139.037 140.802C138.417 141.424 137.924 142.163 137.589 142.975C137.253 143.787 137.081 144.658 137.082 145.537C137.082 149.021 137.082 152.381 137.082 155.582C137.082 157.179 137.082 158.743 137.082 160.255C137.058 160.995 137.084 161.736 137.161 162.472C137.251 163.176 137.461 163.859 137.782 164.492C138.385 165.706 139.339 166.71 140.521 167.376C141.616 167.98 142.854 168.276 144.104 168.234L155.569 168.293L158.684 168.326H159.496H159.773C159.681 168.336 159.588 168.336 159.496 168.326H158.684H155.569L144.104 168.379C142.81 168.43 141.526 168.129 140.389 167.508C139.156 166.822 138.16 165.78 137.531 164.518C137.193 163.859 136.97 163.147 136.871 162.413C136.792 161.663 136.765 160.909 136.792 160.156C136.792 158.644 136.792 157.08 136.792 155.483C136.792 152.282 136.792 148.922 136.792 145.438C136.79 144.514 136.97 143.599 137.322 142.745C137.674 141.891 138.191 141.115 138.843 140.461C139.496 139.807 140.27 139.288 141.123 138.934C141.976 138.579 142.89 138.396 143.814 138.395H159.72C161.412 138.391 163.05 138.99 164.34 140.085C165.562 141.132 166.386 142.568 166.676 144.151C166.785 144.898 166.823 145.654 166.789 146.408V148.579C166.789 151.424 166.789 154.07 166.789 156.499C166.789 157.707 166.789 158.862 166.789 159.951C166.842 160.986 166.769 162.023 166.571 163.04C166.167 164.671 165.184 166.099 163.805 167.059C162.941 167.658 161.949 168.049 160.908 168.201C160.64 168.245 160.368 168.265 160.096 168.26L159.72 168.386Z" fill="#263238"/>
<path d="M153.008 153.384C153.661 153.097 154.214 152.624 154.601 152.024C154.987 151.425 155.188 150.725 155.179 150.011C155.208 149.545 155.141 149.077 154.983 148.637C154.824 148.197 154.577 147.794 154.257 147.453C153.936 147.112 153.549 146.841 153.12 146.655C152.691 146.469 152.228 146.374 151.76 146.374C151.293 146.374 150.83 146.469 150.401 146.655C149.971 146.841 149.585 147.112 149.264 147.453C148.944 147.794 148.697 148.197 148.538 148.637C148.379 149.077 148.313 149.545 148.342 150.011C148.326 150.731 148.525 151.439 148.913 152.046C149.3 152.652 149.86 153.129 150.52 153.417C145.24 154.209 145.497 159.931 145.497 159.931L157.938 159.991C157.938 159.991 158.222 154.176 153.008 153.384Z" fill="#3EAFA9"/>
<path d="M253.493 175.039C253.585 175.039 253.664 178.339 253.664 182.47C253.664 186.602 253.585 189.902 253.493 189.902C253.4 189.902 253.321 186.602 253.321 182.47C253.321 178.339 253.394 175.039 253.493 175.039Z" fill="#263238"/>
<path d="M251.196 205.933H234.458V222.671H251.196V205.933Z" fill="#E0E0E0"/>
<path d="M272.653 206.95H255.413V208.382H272.653V206.95Z" fill="#E0E0E0"/>
<path d="M272.653 210.256H255.413V211.688H272.653V210.256Z" fill="#E0E0E0"/>
<path d="M272.653 213.569H255.413V215.002H272.653V213.569Z" fill="#E0E0E0"/>
<path d="M272.653 216.883H255.413V218.315H272.653V216.883Z" fill="#E0E0E0"/>
<path d="M272.653 220.189H255.413V221.621H272.653V220.189Z" fill="#E0E0E0"/>
<path d="M234.643 190.199H271.115C272.349 190.199 273.532 190.689 274.405 191.562C275.278 192.434 275.768 193.618 275.768 194.852V201.392H230.056V194.792C230.063 193.577 230.548 192.414 231.407 191.554C232.265 190.694 233.428 190.207 234.643 190.199Z" fill="#E0E0E0"/>
<path d="M271.504 230.426C272.059 230.398 272.606 230.277 273.121 230.069C273.74 229.804 274.287 229.397 274.718 228.881C275.307 228.179 275.648 227.302 275.689 226.387C275.689 222.215 275.689 216.196 275.649 208.765C275.649 205.042 275.649 200.97 275.649 196.594C275.649 196.046 275.649 195.492 275.649 194.938C275.68 194.39 275.62 193.842 275.471 193.314C275.225 192.507 274.741 191.793 274.081 191.267C273.421 190.742 272.617 190.429 271.775 190.37C271.207 190.337 270.593 190.37 269.999 190.37H266.356H234.346C233.657 190.366 232.977 190.531 232.366 190.852C231.771 191.177 231.265 191.644 230.894 192.212C230.518 192.772 230.29 193.42 230.234 194.093C230.201 194.753 230.234 195.479 230.234 196.159V204.329C230.234 209.682 230.234 214.85 230.234 219.773V225.199C230.204 225.776 230.23 226.355 230.314 226.928C230.428 227.472 230.648 227.988 230.962 228.446C231.276 228.905 231.676 229.297 232.142 229.601C232.597 229.897 233.106 230.101 233.64 230.201C234.177 230.281 234.721 230.308 235.264 230.281H247.434L265.063 230.34L269.854 230.373H271.102H271.524C271.524 230.373 271.379 230.373 271.102 230.373H269.854L265.063 230.406L247.434 230.459H235.264C234.704 230.487 234.143 230.463 233.587 230.386C232.714 230.217 231.91 229.794 231.275 229.171C230.64 228.548 230.202 227.752 230.017 226.882C229.927 226.29 229.896 225.691 229.924 225.093V223.311C229.924 222.11 229.924 220.895 229.924 219.668C229.924 214.744 229.924 209.576 229.924 204.224V196.159C229.924 195.499 229.924 194.786 229.924 194.066C229.981 193.337 230.219 192.634 230.617 192.02C231.021 191.407 231.57 190.901 232.214 190.549C232.87 190.205 233.599 190.026 234.34 190.027H266.35H269.993C270.6 190.027 271.174 190.027 271.788 190.027C272.397 190.067 272.991 190.236 273.53 190.522C274.056 190.793 274.522 191.166 274.902 191.62C275.281 192.073 275.567 192.597 275.741 193.162C275.899 193.718 275.964 194.295 275.933 194.872V196.528C275.933 200.904 275.933 204.976 275.933 208.699C275.933 216.143 275.933 222.163 275.867 226.327C275.812 227.268 275.45 228.165 274.837 228.881C274.388 229.402 273.823 229.809 273.187 230.069C272.799 230.223 272.389 230.319 271.973 230.353L271.504 230.426Z" fill="#263238"/>
<path d="M255.42 190.199C255.421 190.581 255.309 190.954 255.098 191.272C254.887 191.59 254.586 191.838 254.233 191.985C253.881 192.131 253.493 192.17 253.118 192.096C252.744 192.022 252.4 191.838 252.13 191.568C251.86 191.298 251.676 190.954 251.602 190.58C251.528 190.205 251.567 189.817 251.714 189.465C251.86 189.112 252.108 188.812 252.426 188.6C252.744 188.389 253.118 188.277 253.499 188.278C254.009 188.278 254.497 188.481 254.857 188.841C255.218 189.201 255.42 189.689 255.42 190.199Z" fill="#263238"/>
<path d="M178.438 125.103C178.286 125.113 178.134 125.113 177.982 125.103L176.662 125.136L171.844 125.189L155.945 125.242H153.648C153.265 125.254 152.881 125.241 152.5 125.202C152.118 125.148 151.747 125.039 151.397 124.879C150.74 124.564 150.156 124.114 149.685 123.558C149.214 123.002 148.866 122.352 148.665 121.651C148.472 121.009 148.376 120.342 148.381 119.671C148.381 119.011 148.381 118.417 148.381 117.817C148.381 116.629 148.381 115.513 148.427 114.517C148.427 112.537 148.493 110.88 148.513 109.699C148.513 109.157 148.526 108.717 148.553 108.379C148.548 108.226 148.562 108.073 148.592 107.923C148.607 108.075 148.607 108.227 148.592 108.379C148.592 108.709 148.592 109.149 148.592 109.699C148.592 110.88 148.592 112.517 148.592 114.517C148.592 115.54 148.592 116.655 148.592 117.85C148.592 119.044 148.454 120.344 148.876 121.592C149.069 122.245 149.396 122.851 149.837 123.371C150.279 123.89 150.823 124.312 151.437 124.608C151.761 124.751 152.103 124.848 152.453 124.898C152.82 124.935 153.188 124.948 153.556 124.938H155.852L171.752 124.984L176.57 125.037L177.89 125.07C178.073 125.057 178.257 125.068 178.438 125.103Z" fill="#263238"/>
<path d="M154.796 64.5414H128.271C124.487 64.5414 121.42 67.6086 121.42 71.3922V97.9176C121.42 101.701 124.487 104.768 128.271 104.768H154.796C158.58 104.768 161.647 101.701 161.647 97.9176V71.3922C161.647 67.6086 158.58 64.5414 154.796 64.5414Z" fill="white"/>
<path d="M154.79 104.762C155.291 104.723 155.789 104.654 156.281 104.557C157.691 104.227 158.96 103.457 159.905 102.359C160.588 101.576 161.077 100.642 161.33 99.6336C161.559 98.4157 161.63 97.1735 161.542 95.9376C161.542 93.258 161.542 90.2022 161.542 86.8362C161.542 83.4702 161.542 79.7676 161.542 75.801V72.7716C161.6 71.7454 161.524 70.716 161.317 69.7092C161.047 68.6783 160.535 67.7268 159.823 66.9336C159.111 66.1404 158.221 65.5285 157.225 65.1486C156.715 64.9465 156.18 64.8133 155.635 64.7526C155.075 64.7048 154.513 64.6872 153.952 64.6998H128.271C127.02 64.7084 125.797 65.0674 124.74 65.736C124.213 66.06 123.737 66.4603 123.328 66.924C122.911 67.374 122.564 67.8833 122.298 68.4354C122.026 68.9825 121.831 69.5643 121.717 70.1646C121.621 70.7645 121.581 71.3722 121.598 71.9796V75.6558C121.598 80.5068 121.598 85.1928 121.598 89.6544C121.598 91.8852 121.598 94.0566 121.598 96.1686C121.552 97.2 121.596 98.2336 121.73 99.2574C121.935 100.225 122.347 101.137 122.938 101.93C123.502 102.681 124.218 103.304 125.039 103.759C125.86 104.214 126.768 104.49 127.703 104.57C129.518 104.636 131.3 104.57 132.983 104.617L148.962 104.669L153.305 104.702L148.962 104.735L132.983 104.795C131.294 104.795 129.538 104.828 127.703 104.795C126.728 104.712 125.781 104.424 124.926 103.948C124.07 103.473 123.325 102.821 122.74 102.036C122.117 101.211 121.684 100.257 121.473 99.2442C121.326 98.2039 121.277 97.152 121.328 96.1026C121.328 93.9906 121.328 91.8192 121.328 89.5884C121.328 85.1268 121.328 80.4408 121.328 75.5898V71.9136C121.305 71.2842 121.345 70.6541 121.447 70.0326C121.567 69.4031 121.771 68.7927 122.054 68.2176C122.338 67.639 122.702 67.1036 123.136 66.627C123.568 66.1415 124.068 65.7214 124.621 65.3796C125.739 64.6801 127.031 64.3074 128.35 64.3038H153.985C154.559 64.2908 155.135 64.3106 155.707 64.3632C156.277 64.4313 156.836 64.571 157.37 64.779C158.412 65.1778 159.344 65.8203 160.087 66.6528C160.83 67.4852 161.362 68.4835 161.641 69.564C161.855 70.5943 161.93 71.6486 161.865 72.699V75.7284C161.865 79.6884 161.865 83.3844 161.865 86.7636C161.865 90.1428 161.865 93.1854 161.865 95.865C161.94 97.1158 161.855 98.371 161.614 99.6006C161.348 100.63 160.839 101.581 160.129 102.373C159.162 103.482 157.86 104.247 156.42 104.551C156.051 104.632 155.676 104.679 155.298 104.689C154.915 104.768 154.79 104.762 154.79 104.762Z" fill="#263238"/>
<path d="M132.904 92.6639H127.829V96.5513H132.904V92.6639Z" fill="#3EAFA9"/>
<path d="M139.326 83.7012H134.251V96.5514H139.326V83.7012Z" fill="#3EAFA9"/>
<path d="M146.388 89.2319H141.313V96.5447H146.388V89.2319Z" fill="#3EAFA9"/>
<path d="M153.127 79.9722H148.051V96.5448H153.127V79.9722Z" fill="#3EAFA9"/>
<path d="M130.02 88.6578C129.52 88.6578 129.031 88.5095 128.616 88.2318C128.2 87.954 127.876 87.5592 127.685 87.0973C127.493 86.6354 127.443 86.1272 127.541 85.6368C127.638 85.1465 127.879 84.6961 128.233 84.3425C128.586 83.989 129.037 83.7483 129.527 83.6507C130.017 83.5532 130.525 83.6033 130.987 83.7946C131.449 83.9859 131.844 84.3099 132.122 84.7256C132.4 85.1413 132.548 85.63 132.548 86.13C132.548 86.8004 132.281 87.4433 131.807 87.9174C131.333 88.3915 130.69 88.6578 130.02 88.6578ZM130.02 84.2688C129.65 84.2688 129.289 84.3785 128.982 84.584C128.674 84.7895 128.435 85.0816 128.294 85.4233C128.153 85.765 128.116 86.1409 128.189 86.5034C128.261 86.8659 128.44 87.1987 128.702 87.4596C128.964 87.7206 129.297 87.898 129.66 87.9693C130.022 88.0406 130.398 88.0027 130.739 87.8603C131.081 87.7179 131.372 87.4775 131.576 87.1695C131.781 86.8614 131.889 86.4997 131.888 86.13C131.886 85.6357 131.689 85.1624 131.338 84.8135C130.988 84.4647 130.514 84.2688 130.02 84.2688Z" fill="#3EAFA9"/>
<path d="M137.28 79.0482C136.78 79.0482 136.291 78.8999 135.876 78.6221C135.46 78.3444 135.136 77.9496 134.945 77.4877C134.753 77.0258 134.703 76.5175 134.801 76.0272C134.898 75.5369 135.139 75.0864 135.493 74.7329C135.846 74.3794 136.297 74.1387 136.787 74.0411C137.277 73.9436 137.785 73.9936 138.247 74.185C138.709 74.3763 139.104 74.7003 139.382 75.116C139.66 75.5317 139.808 76.0204 139.808 76.5204C139.806 77.1902 139.539 77.8322 139.066 78.3059C138.592 78.7795 137.95 79.0464 137.28 79.0482ZM137.28 74.6526C136.911 74.6526 136.549 74.7621 136.242 74.9673C135.935 75.1726 135.696 75.4643 135.554 75.8056C135.413 76.1469 135.376 76.5224 135.448 76.8847C135.52 77.2471 135.698 77.5799 135.959 77.8411C136.22 78.1023 136.553 78.2802 136.916 78.3523C137.278 78.4243 137.653 78.3873 137.995 78.246C138.336 78.1046 138.628 77.8652 138.833 77.558C139.038 77.2509 139.148 76.8898 139.148 76.5204C139.148 76.2751 139.099 76.0322 139.006 75.8056C138.912 75.579 138.774 75.3731 138.601 75.1996C138.427 75.0262 138.221 74.8886 137.995 74.7947C137.768 74.7009 137.525 74.6526 137.28 74.6526Z" fill="#3EAFA9"/>
<path d="M143.88 85.14C143.38 85.14 142.891 84.9917 142.476 84.7139C142.06 84.4362 141.736 84.0414 141.545 83.5795C141.353 83.1176 141.303 82.6094 141.401 82.119C141.498 81.6287 141.739 81.1783 142.093 80.8247C142.446 80.4712 142.897 80.2305 143.387 80.1329C143.877 80.0354 144.385 80.0854 144.847 80.2768C145.309 80.4681 145.704 80.7921 145.982 81.2078C146.26 81.6235 146.408 82.1122 146.408 82.6122C146.406 83.282 146.139 83.924 145.666 84.3977C145.192 84.8713 144.55 85.1382 143.88 85.14ZM143.88 80.751C143.51 80.751 143.149 80.8607 142.842 81.0662C142.534 81.2717 142.295 81.5638 142.154 81.9055C142.013 82.2472 141.976 82.6231 142.049 82.9856C142.121 83.3481 142.3 83.6809 142.562 83.9418C142.824 84.2028 143.157 84.3801 143.52 84.4515C143.882 84.5228 144.258 84.4849 144.599 84.3425C144.941 84.2001 145.232 83.9597 145.436 83.6516C145.641 83.3436 145.749 82.9818 145.748 82.6122C145.748 82.1168 145.551 81.6417 145.201 81.2914C144.85 80.9411 144.375 80.7444 143.88 80.7444V80.751Z" fill="#3EAFA9"/>
<path d="M150.869 76.3091C150.369 76.3091 149.881 76.1609 149.465 75.8831C149.049 75.6054 148.725 75.2106 148.534 74.7487C148.343 74.2868 148.293 73.7785 148.39 73.2882C148.488 72.7978 148.728 72.3474 149.082 71.9939C149.435 71.6404 149.886 71.3996 150.376 71.3021C150.867 71.2046 151.375 71.2546 151.837 71.446C152.299 71.6373 152.693 71.9613 152.971 72.377C153.249 72.7927 153.397 73.2814 153.397 73.7813C153.395 74.4512 153.129 75.0932 152.655 75.5668C152.181 76.0405 151.539 76.3074 150.869 76.3091ZM150.869 71.9135C150.5 71.9135 150.139 72.0231 149.832 72.2283C149.525 72.4336 149.285 72.7253 149.144 73.0666C149.002 73.4079 148.965 73.7834 149.037 74.1457C149.11 74.508 149.287 74.8409 149.549 75.1021C149.81 75.3633 150.143 75.5412 150.505 75.6133C150.867 75.6853 151.243 75.6483 151.584 75.507C151.925 75.3656 152.217 75.1262 152.422 74.819C152.628 74.5119 152.737 74.1508 152.737 73.7813C152.73 73.2906 152.53 72.8222 152.181 72.4776C151.831 72.1331 151.36 71.9399 150.869 71.9399V71.9135Z" fill="#3EAFA9"/>
<path d="M149.108 75.1954L145.033 80.9948L145.572 81.3743L149.648 75.5749L149.108 75.1954Z" fill="#3EAFA9"/>
<path d="M139.214 78.0656L138.737 78.5217L141.839 81.7653L142.316 81.3092L139.214 78.0656Z" fill="#3EAFA9"/>
<path d="M135.55 78.2063L130.977 84.0977L131.498 84.5024L136.071 78.611L135.55 78.2063Z" fill="#3EAFA9"/>
<path d="M151.298 105.237C151.3 105.619 151.188 105.992 150.976 106.31C150.765 106.628 150.464 106.876 150.112 107.023C149.759 107.17 149.371 107.208 148.997 107.134C148.622 107.06 148.278 106.876 148.008 106.606C147.739 106.336 147.555 105.992 147.481 105.618C147.407 105.244 147.445 104.855 147.592 104.503C147.739 104.151 147.987 103.85 148.305 103.638C148.623 103.427 148.996 103.315 149.378 103.316C149.887 103.316 150.376 103.519 150.736 103.879C151.096 104.239 151.298 104.728 151.298 105.237Z" fill="#263238"/>
<path d="M197.578 95.7462C197.485 95.7462 197.406 90.2022 197.406 83.3646C197.406 76.527 197.485 70.983 197.578 70.983C197.67 70.983 197.749 76.527 197.749 83.3646C197.749 90.2022 197.67 95.7462 197.578 95.7462Z" fill="#263238"/>
<path d="M209.702 30.624H183.176C179.393 30.624 176.326 33.6912 176.326 37.4748V64.0002C176.326 67.7838 179.393 70.851 183.176 70.851H209.702C213.485 70.851 216.553 67.7838 216.553 64.0002V37.4748C216.553 33.6912 213.485 30.624 209.702 30.624Z" fill="white"/>
<path d="M209.695 70.8444C210.201 70.7994 210.703 70.7245 211.2 70.62C212.61 70.2897 213.879 69.5201 214.823 68.4222C215.507 67.6386 215.995 66.7047 216.249 65.6964C216.481 64.4924 216.559 63.2637 216.48 62.04C216.48 59.3604 216.48 56.3046 216.48 52.9386C216.48 49.5726 216.48 45.8701 216.48 41.9035V38.8542C216.538 37.828 216.463 36.7986 216.256 35.7918C215.985 34.7605 215.473 33.8084 214.761 33.0142C214.049 32.22 213.159 31.6066 212.164 31.2246C211.652 31.0278 211.118 30.8969 210.573 30.8352C210.014 30.7842 209.452 30.7665 208.89 30.7824H183.176C181.922 30.7847 180.694 31.1392 179.632 31.8054C179.098 32.1299 178.615 32.5325 178.2 33C177.784 33.45 177.437 33.9594 177.17 34.5114C176.899 35.0585 176.703 35.6404 176.59 36.2406C176.493 36.8406 176.454 37.4483 176.471 38.0556V41.7318C176.471 46.5828 176.471 51.2689 176.471 55.7305C176.471 57.9547 176.471 60.1326 176.471 62.2446C176.424 63.2739 176.468 64.3053 176.603 65.3269C176.806 66.2972 177.218 67.2116 177.811 68.0065C178.376 68.7557 179.092 69.3779 179.913 69.8327C180.734 70.2875 181.641 70.5647 182.576 70.6465C184.391 70.7125 186.173 70.6465 187.856 70.6926L203.834 70.7455L208.177 70.7785H203.834L187.856 70.8312C186.166 70.8312 184.411 70.8708 182.576 70.8312C181.08 70.6959 179.666 70.0834 178.545 69.0841C177.423 68.0847 176.652 66.7514 176.345 65.2807C176.198 64.2404 176.149 63.1885 176.2 62.1391C176.2 60.0271 176.2 57.849 176.2 55.6248C176.2 51.1632 176.2 46.4772 176.2 41.6262V38.0622C176.178 37.4329 176.218 36.8028 176.319 36.1812C176.439 35.5518 176.644 34.9414 176.926 34.3662C177.21 33.7877 177.575 33.2522 178.009 32.7756C178.441 32.2902 178.941 31.87 179.494 31.5282C180.612 30.8287 181.904 30.4561 183.223 30.4524H208.857C209.432 30.4395 210.007 30.4593 210.58 30.5118C211.149 30.58 211.708 30.7197 212.243 30.9276C213.279 31.3315 214.205 31.9769 214.942 32.8103C215.679 33.6437 216.206 34.641 216.48 35.7192C216.694 36.7496 216.77 37.8039 216.704 38.8542V41.8836C216.704 45.8436 216.704 49.5396 216.704 52.9188C216.704 56.298 216.704 59.3407 216.704 62.0203C216.779 63.271 216.695 64.5263 216.454 65.7558C216.187 66.7853 215.678 67.7359 214.969 68.5279C214.002 69.6377 212.7 70.4023 211.259 70.7058C210.891 70.7876 210.515 70.834 210.137 70.8444H209.695Z" fill="#263238"/>
<path d="M199.465 70.8444C199.465 71.2243 199.353 71.5956 199.142 71.9115C198.93 72.2273 198.631 72.4735 198.28 72.6188C197.929 72.7642 197.542 72.8022 197.17 72.7281C196.797 72.654 196.455 72.4711 196.187 72.2025C195.918 71.9339 195.735 71.5917 195.661 71.2191C195.587 70.8466 195.625 70.4604 195.77 70.1094C195.916 69.7585 196.162 69.4585 196.478 69.2475C196.793 69.0365 197.165 68.9238 197.545 68.9238C198.054 68.9238 198.542 69.1262 198.903 69.4864C199.263 69.8465 199.465 70.3351 199.465 70.8444Z" fill="#263238"/>
<path d="M194.918 55.8691C193.853 55.8779 192.799 55.6546 191.829 55.215C190.86 54.7753 189.997 54.1296 189.302 53.323C188.607 52.5163 188.096 51.5679 187.805 50.5438C187.513 49.5197 187.448 48.4443 187.614 47.3926C187.781 46.3408 188.174 45.3379 188.767 44.4534C189.36 43.569 190.138 42.8243 191.048 42.2712C191.958 41.718 192.977 41.3697 194.035 41.2503C195.093 41.131 196.165 41.2435 197.175 41.5801C198.093 41.875 198.944 42.3483 199.678 42.9728C200.413 43.5972 201.017 44.3605 201.456 45.219C201.895 46.0774 202.16 47.0141 202.237 47.9752C202.313 48.9364 202.199 49.9031 201.901 50.8201C201.417 52.2898 200.481 53.5693 199.227 54.476C197.973 55.3826 196.465 55.8702 194.918 55.8691ZM194.918 42.5173C193.809 42.5174 192.721 42.8244 191.775 43.4042C190.83 43.9841 190.063 44.8143 189.56 45.803C189.057 46.7916 188.837 47.9001 188.925 49.0059C189.013 50.1117 189.405 51.1717 190.057 52.0685C190.71 52.9653 191.598 53.664 192.624 54.0874C193.649 54.5107 194.772 54.6422 195.867 54.4672C196.962 54.2922 197.988 53.8176 198.83 53.0958C199.673 52.3741 200.299 51.4334 200.64 50.3779C201.128 48.8593 200.994 47.2092 200.266 45.7897C199.538 44.3703 198.277 43.2978 196.759 42.8077C196.167 42.6152 195.547 42.5172 194.924 42.5173H194.918Z" fill="#263238"/>
<path d="M204.6 60.2713C204.509 60.2702 204.419 60.2502 204.336 60.2127C204.253 60.1753 204.179 60.121 204.118 60.0535L198.66 54.1201C198.555 53.9895 198.503 53.8238 198.516 53.6566C198.528 53.4894 198.604 53.3332 198.727 53.2198C198.851 53.1064 199.013 53.0442 199.181 53.0459C199.348 53.0477 199.509 53.1131 199.63 53.2291L205.082 59.1691C205.2 59.2979 205.262 59.4682 205.254 59.6426C205.247 59.817 205.171 59.9813 205.042 60.0997C204.921 60.2097 204.764 60.2709 204.6 60.2713Z" fill="#263238"/>
<path d="M259.36 44.4246H232.835C229.051 44.4246 225.984 47.4918 225.984 51.2754V77.8008C225.984 81.5844 229.051 84.6516 232.835 84.6516H259.36C263.144 84.6516 266.211 81.5844 266.211 77.8008V51.2754C266.211 47.4918 263.144 44.4246 259.36 44.4246Z" fill="white"/>
<path d="M259.38 84.6516C259.883 84.6129 260.383 84.5446 260.878 84.447C262.288 84.1166 263.557 83.347 264.502 82.2492C265.184 81.4625 265.672 80.5266 265.927 79.5168C266.153 78.3008 266.224 77.0612 266.138 75.8274C266.138 73.1412 266.138 70.092 266.138 66.7194C266.138 63.3468 266.138 59.6508 266.138 55.6908V52.6614C266.197 51.6349 266.12 50.605 265.907 49.599C265.64 48.5669 265.13 47.6138 264.419 46.8192C263.709 46.0247 262.818 45.4118 261.822 45.0318C261.31 44.8365 260.776 44.7056 260.231 44.6424C259.672 44.5881 259.11 44.5705 258.548 44.5896H232.841C231.587 44.5966 230.36 44.9532 229.297 45.6192C228.77 45.9408 228.294 46.3389 227.885 46.8006C227.468 47.2524 227.121 47.7641 226.855 48.3186C226.581 48.8626 226.386 49.4425 226.274 50.0412C226.178 50.6434 226.139 51.2532 226.156 51.8628V55.539C226.156 60.39 226.156 65.0694 226.156 69.531C226.156 71.7618 226.156 73.9398 226.156 76.0518C226.106 77.0811 226.15 78.1128 226.288 79.134C226.491 80.1043 226.903 81.0187 227.495 81.8136C228.06 82.5621 228.775 83.1838 229.595 83.6385C230.414 84.0933 231.32 84.371 232.254 84.4536C234.076 84.5196 235.858 84.4536 237.534 84.4998L253.513 84.5526L257.855 84.5856L253.513 84.6186L237.534 84.6714C235.844 84.6714 234.089 84.711 232.254 84.6714C231.279 84.5881 230.332 84.2992 229.477 83.8237C228.621 83.3482 227.876 82.6968 227.291 81.9126C226.666 81.0868 226.231 80.1336 226.017 79.1208C225.876 78.0799 225.828 77.0286 225.872 75.9792C225.872 73.8672 225.872 71.6892 225.872 69.4584C225.872 64.9968 225.872 60.3174 225.872 55.4664V51.8694C225.849 51.24 225.889 50.6099 225.991 49.9884C226.111 49.359 226.315 48.7485 226.598 48.1734C226.882 47.5949 227.246 47.0594 227.68 46.5828C228.112 46.0974 228.612 45.6772 229.165 45.3354C230.283 44.6339 231.575 44.259 232.894 44.253H258.529C259.103 44.2411 259.678 44.2587 260.251 44.3058C260.82 44.3771 261.379 44.5167 261.914 44.7216C262.944 45.1295 263.863 45.7749 264.596 46.6053C265.329 47.4357 265.855 48.4276 266.132 49.5C266.346 50.5326 266.421 51.5891 266.356 52.6416C266.356 53.6646 266.356 54.6744 266.356 55.671C266.356 59.631 266.356 63.327 266.356 66.6996C266.356 70.0722 266.356 73.1214 266.356 75.8076C266.436 77.0581 266.354 78.3137 266.112 79.5432C265.785 80.7661 265.127 81.8751 264.211 82.7484C263.294 83.6217 262.155 84.2254 260.918 84.4932C260.548 84.5712 260.173 84.6176 259.796 84.6318C259.486 84.6582 259.38 84.6516 259.38 84.6516Z" fill="#263238"/>
<path d="M248.523 84.9354C248.524 85.3168 248.412 85.6901 248.201 86.0079C247.99 86.3257 247.69 86.5737 247.338 86.7206C246.986 86.8675 246.598 86.9066 246.224 86.8329C245.85 86.7593 245.506 86.5763 245.235 86.307C244.965 86.0378 244.781 85.6944 244.706 85.3204C244.631 84.9464 244.669 84.5585 244.815 84.206C244.96 83.8535 245.207 83.5521 245.524 83.34C245.842 83.128 246.214 83.0148 246.596 83.0148C247.106 83.0148 247.595 83.2169 247.956 83.5769C248.317 83.9369 248.521 84.4254 248.523 84.9354Z" fill="#263238"/>
<path d="M261.307 66.1253C262.317 69.6629 259.987 73.1213 256.39 73.1213H237.329C236.598 73.1248 235.876 72.9596 235.218 72.6385C234.561 72.3175 233.987 71.8492 233.54 71.2702C233.093 70.6911 232.785 70.0168 232.641 69.2997C232.497 68.5825 232.521 67.8418 232.709 67.1351C232.753 66.9774 232.809 66.8231 232.874 66.6731C233.32 65.6369 234.102 64.7807 235.093 64.2421C236.084 63.7034 237.227 63.5136 238.339 63.7031C238.575 61.7653 239.458 59.964 240.846 58.5913C242.234 57.2187 244.046 56.3554 245.986 56.1414C247.926 55.9274 249.882 56.3754 251.536 57.4125C253.19 58.4497 254.444 60.0152 255.097 61.8551C255.097 61.8551 260.04 61.5911 261.307 66.1253Z" fill="#3EAFA9"/>
<path d="M245.183 76.5006V69.1878H242.319C242.242 69.1878 242.167 69.1666 242.102 69.1266C242.036 69.0866 241.983 69.0292 241.949 68.9609C241.914 68.8926 241.898 68.816 241.904 68.7396C241.91 68.6632 241.937 68.5899 241.982 68.5278L246.701 61.8684C246.739 61.8166 246.789 61.7744 246.846 61.7454C246.904 61.7163 246.967 61.7012 247.031 61.7012C247.096 61.7012 247.159 61.7163 247.216 61.7454C247.274 61.7744 247.323 61.8166 247.361 61.8684L252.074 68.4684C252.119 68.5305 252.146 68.6038 252.152 68.6802C252.158 68.7566 252.143 68.8332 252.108 68.9015C252.073 68.9698 252.02 69.0272 251.954 69.0672C251.889 69.1072 251.814 69.1284 251.737 69.1284H248.945V76.494L245.183 76.5006Z" fill="white"/>
<path d="M303.112 93.0006H276.586C272.803 93.0006 269.735 96.0678 269.735 99.8514V126.377C269.735 130.16 272.803 133.228 276.586 133.228H303.112C306.895 133.228 309.962 130.16 309.962 126.377V99.8514C309.962 96.0678 306.895 93.0006 303.112 93.0006Z" fill="white"/>
<path d="M303.105 133.221C303.606 133.186 304.105 133.118 304.597 133.016C306.007 132.686 307.275 131.916 308.22 130.819C308.903 130.035 309.392 129.101 309.646 128.093C309.874 126.875 309.945 125.633 309.857 124.397C309.857 121.717 309.857 118.668 309.857 115.295C309.857 111.923 309.857 108.227 309.857 104.26V101.237C309.915 100.209 309.839 99.1775 309.632 98.1684C309.362 97.1376 308.85 96.1861 308.138 95.3929C307.427 94.5997 306.536 93.9877 305.54 93.6078C305.03 93.4058 304.495 93.2726 303.95 93.2118C303.39 93.164 302.828 93.1464 302.267 93.159H276.586C275.332 93.1613 274.104 93.5157 273.042 94.182C272.516 94.508 272.041 94.9082 271.63 95.37C271.213 95.82 270.866 96.3294 270.6 96.8814C270.329 97.4289 270.134 98.0106 270.019 98.6106C269.923 99.2128 269.883 99.8227 269.9 100.432V104.102C269.9 108.953 269.9 113.639 269.9 118.1C269.9 120.331 269.9 122.503 269.9 124.615C269.854 125.646 269.898 126.68 270.032 127.703C270.236 128.672 270.648 129.584 271.24 130.376C271.802 131.131 272.517 131.76 273.338 132.22C274.159 132.681 275.068 132.963 276.005 133.049C277.82 133.109 279.602 133.049 281.285 133.089L297.264 133.142L301.607 133.175H302.735C302.993 133.175 303.125 133.175 303.125 133.175H302.735H301.607H297.264L281.285 133.234C279.596 133.234 277.84 133.274 276.005 133.234C274.509 133.096 273.096 132.482 271.975 131.482C270.853 130.482 270.082 129.148 269.775 127.677C269.628 126.637 269.579 125.585 269.63 124.535C269.63 122.423 269.63 120.252 269.63 118.021C269.63 113.56 269.63 108.874 269.63 104.023V100.353C269.607 99.7215 269.647 99.0892 269.749 98.4654C269.869 97.836 270.073 97.2256 270.356 96.6504C270.64 96.0719 271.004 95.5364 271.438 95.0598C271.87 94.5744 272.37 94.1542 272.923 93.8124C274.041 93.1129 275.333 92.7403 276.652 92.7366H302.287C302.861 92.7237 303.437 92.7435 304.009 92.796C304.579 92.8642 305.138 93.0039 305.672 93.2118C306.714 93.6107 307.646 94.2532 308.389 95.0856C309.132 95.9181 309.664 96.9163 309.943 97.9968C310.157 99.0293 310.233 100.086 310.167 101.138V104.28C310.167 108.24 310.167 111.936 310.167 115.315C310.167 118.694 310.167 121.737 310.167 124.417C310.242 125.667 310.158 126.923 309.916 128.152C309.65 129.182 309.141 130.132 308.431 130.924C307.463 132.033 306.162 132.799 304.722 133.109C304.353 133.186 303.977 133.23 303.6 133.241C303.23 133.228 303.105 133.221 303.105 133.221Z" fill="#263238"/>
<path d="M290.36 125.327C287.94 125.329 285.573 124.612 283.56 123.268C281.546 121.924 279.977 120.013 279.05 117.777C278.123 115.541 277.88 113.08 278.352 110.705C278.824 108.331 279.99 106.15 281.701 104.439C283.413 102.727 285.594 101.561 287.968 101.089C290.342 100.617 292.803 100.86 295.04 101.787C297.276 102.714 299.187 104.284 300.531 106.297C301.875 108.31 302.592 110.677 302.59 113.098C302.585 116.34 301.295 119.447 299.002 121.74C296.71 124.032 293.602 125.322 290.36 125.327ZM290.36 101.521C288.071 101.52 285.832 102.198 283.927 103.469C282.022 104.74 280.538 106.548 279.661 108.663C278.783 110.778 278.553 113.106 278.999 115.352C279.445 117.598 280.547 119.661 282.166 121.281C283.784 122.901 285.847 124.004 288.093 124.451C290.339 124.898 292.667 124.669 294.782 123.793C296.898 122.917 298.706 121.434 299.979 119.53C301.251 117.626 301.93 115.387 301.93 113.098C301.927 110.03 300.707 107.088 298.538 104.918C296.369 102.748 293.428 101.526 290.36 101.521Z" fill="#3EAFA9"/>
<path d="M289.991 125.288C288.775 124.528 287.712 123.547 286.856 122.397C284.8 119.658 283.785 116.278 283.991 112.86C284.024 109.468 285.206 106.188 287.344 103.554C288.215 102.483 289.281 101.587 290.486 100.914L290.776 101.508C290.717 101.508 284.962 104.485 284.651 112.893C284.341 121.301 290.255 124.694 290.314 124.727L289.991 125.288Z" fill="#3EAFA9"/>
<path d="M290.532 125.281L290.189 124.72C290.242 124.681 295.97 121.031 295.66 112.616C295.35 104.201 289.839 101.515 289.786 101.488L290.063 100.894C290.308 101.006 296.003 103.772 296.32 112.596C296.637 121.42 290.591 125.242 290.532 125.281Z" fill="#3EAFA9"/>
<path d="M290.519 109.217C285.569 109.217 282.374 107.534 280.566 106.121L280.975 105.6C282.698 106.953 285.754 108.557 290.519 108.557C295.139 108.557 298.056 106.96 299.699 105.62L300.115 106.128C298.393 107.54 295.33 109.217 290.519 109.217Z" fill="#3EAFA9"/>
<path d="M299.726 120.226C298.003 118.906 294.947 117.361 290.176 117.361C285.556 117.361 282.638 118.906 280.995 120.212L280.586 119.691C282.308 118.325 285.371 116.701 290.176 116.701C295.132 116.701 298.32 118.331 300.128 119.698L299.726 120.226Z" fill="#3EAFA9"/>
<path d="M302.273 112.801H278.751V113.461H302.273V112.801Z" fill="#3EAFA9"/>
<path d="M271.511 113.929C271.511 114.311 271.398 114.684 271.186 115.001C270.973 115.318 270.672 115.565 270.32 115.71C269.967 115.856 269.579 115.894 269.205 115.819C268.831 115.744 268.488 115.56 268.219 115.29C267.949 115.019 267.766 114.675 267.693 114.301C267.619 113.927 267.658 113.539 267.805 113.187C267.952 112.835 268.2 112.535 268.518 112.324C268.836 112.113 269.209 112.001 269.59 112.002C269.843 112.002 270.093 112.052 270.327 112.149C270.56 112.246 270.772 112.388 270.951 112.567C271.129 112.746 271.27 112.959 271.367 113.192C271.463 113.426 271.512 113.677 271.511 113.929Z" fill="#263238"/>
<path d="M270.666 113.929C270.666 114.022 266.099 114.101 260.469 114.101C254.839 114.101 250.272 114.022 250.272 113.929C250.272 113.837 254.839 113.758 260.469 113.758C266.099 113.758 270.666 113.83 270.666 113.929Z" fill="#263238"/>
<path d="M295.231 145.352H279.246C275.462 145.352 272.395 148.419 272.395 152.203V168.188C272.395 171.971 275.462 175.039 279.246 175.039H295.231C299.015 175.039 302.082 171.971 302.082 168.188V152.203C302.082 148.419 299.015 145.352 295.231 145.352Z" fill="white"/>
<path d="M295.231 175.039C295.231 175.039 295.614 175.039 296.307 174.913C297.327 174.736 298.295 174.332 299.138 173.732C300.464 172.77 301.4 171.365 301.778 169.772C301.961 168.769 302.021 167.747 301.957 166.729C301.957 165.64 301.957 164.485 301.957 163.277C301.957 160.855 301.957 158.202 301.957 155.357V153.186C301.988 152.449 301.946 151.71 301.831 150.982C301.554 149.47 300.761 148.1 299.587 147.107C298.354 146.064 296.787 145.497 295.172 145.51H279.266C278.386 145.511 277.515 145.685 276.702 146.023C275.89 146.361 275.152 146.856 274.531 147.48C273.91 148.103 273.418 148.843 273.083 149.657C272.748 150.471 272.577 151.342 272.58 152.222C272.58 155.701 272.58 159.06 272.58 162.261C272.58 163.867 272.58 165.427 272.58 166.94C272.554 167.678 272.578 168.417 272.653 169.151C272.748 169.855 272.96 170.537 273.28 171.171C273.879 172.386 274.832 173.391 276.012 174.055C277.11 174.66 278.35 174.959 279.602 174.92L291.067 174.973L294.182 175.006H294.994H295.264C295.174 175.014 295.084 175.014 294.994 175.006H294.182H291.067L279.602 175.065C278.308 175.109 277.025 174.806 275.887 174.187C274.654 173.503 273.656 172.463 273.022 171.204C272.688 170.543 272.465 169.832 272.362 169.099C272.284 168.349 272.256 167.595 272.276 166.841C272.276 165.323 272.276 163.764 272.276 162.162C272.276 158.961 272.276 155.602 272.276 152.123C272.304 150.287 273.049 148.534 274.353 147.24C275.657 145.946 277.416 145.214 279.253 145.2H295.159C296.85 145.195 298.487 145.791 299.779 146.883C301.004 147.928 301.829 149.364 302.115 150.949C302.229 151.695 302.269 152.451 302.234 153.206C302.234 153.945 302.234 154.664 302.234 155.377C302.234 158.222 302.234 160.875 302.234 163.297C302.234 164.505 302.234 165.66 302.234 166.749C302.293 167.781 302.222 168.817 302.023 169.831C301.619 171.464 300.636 172.894 299.257 173.857C298.393 174.457 297.401 174.845 296.36 174.992C296.091 175.034 295.82 175.056 295.548 175.058C295.442 175.061 295.336 175.054 295.231 175.039Z" fill="#263238"/>
<path d="M279.965 165.343C281.441 166.289 283.148 166.811 284.901 166.852C286.653 166.893 288.383 166.451 289.901 165.575C291.419 164.699 292.667 163.422 293.508 161.884C294.349 160.346 294.751 158.607 294.67 156.856C295.324 156.372 295.889 155.778 296.34 155.1C295.726 155.373 295.074 155.552 294.406 155.628C295.108 155.21 295.634 154.551 295.885 153.773C295.225 154.163 294.504 154.437 293.753 154.585C293.245 154.047 292.575 153.69 291.845 153.571C291.115 153.452 290.366 153.577 289.713 153.926C289.061 154.276 288.542 154.83 288.237 155.504C287.932 156.178 287.857 156.934 288.024 157.654C286.688 157.588 285.381 157.24 284.189 156.635C282.996 156.031 281.944 155.181 281.101 154.143C280.669 154.882 280.536 155.758 280.728 156.593C280.921 157.427 281.425 158.156 282.137 158.631C281.603 158.611 281.08 158.467 280.612 158.209C280.605 158.992 280.871 159.753 281.363 160.362C281.856 160.972 282.544 161.391 283.312 161.548C282.816 161.682 282.297 161.7 281.794 161.601C282.007 162.27 282.425 162.855 282.989 163.274C283.552 163.693 284.233 163.925 284.935 163.937C283.53 165.046 281.743 165.552 279.965 165.343Z" fill="#455A64"/>
<path d="M262.192 173.422L253.579 143.101H178.273L168.458 173.323C168.32 173.744 168.282 174.192 168.348 174.631C168.415 175.069 168.583 175.486 168.84 175.847C169.097 176.209 169.435 176.505 169.827 176.712C170.22 176.919 170.655 177.031 171.098 177.039H205.498L206.89 175.646H223.133L224.525 177.039H259.505C259.942 177.035 260.372 176.93 260.761 176.732C261.15 176.534 261.488 176.249 261.748 175.898C262.008 175.548 262.184 175.142 262.261 174.712C262.338 174.282 262.314 173.841 262.192 173.422Z" fill="#E0E0E0"/>
<g opacity="0.3">
<path d="M262.192 173.422L253.579 143.101H178.273L168.458 173.323C168.32 173.744 168.282 174.192 168.348 174.631C168.415 175.069 168.583 175.486 168.84 175.847C169.097 176.209 169.435 176.505 169.827 176.712C170.22 176.919 170.655 177.031 171.098 177.039H205.498L206.89 175.646H223.133L224.525 177.039H259.505C259.942 177.035 260.372 176.93 260.761 176.732C261.15 176.534 261.488 176.249 261.748 175.898C262.008 175.548 262.184 175.142 262.261 174.712C262.338 174.282 262.314 173.841 262.192 173.422Z" fill="black"/>
</g>
<path d="M178.24 142.316V97.8253C178.238 97.4069 178.319 96.9924 178.477 96.6053C178.636 96.2183 178.869 95.8663 179.164 95.5696C179.459 95.2729 179.81 95.0372 180.196 94.8762C180.582 94.7151 180.996 94.6317 181.414 94.6309H250.615C251.034 94.6317 251.448 94.7151 251.834 94.8762C252.22 95.0372 252.57 95.2729 252.865 95.5696C253.16 95.8663 253.393 96.2183 253.552 96.6053C253.711 96.9924 253.792 97.4069 253.79 97.8253V142.316H178.24Z" fill="#E0E0E0"/>
<path d="M249.223 99.0331H182.807V138.6H249.223V99.0331Z" fill="white"/>
<path d="M249.223 138.6C249.223 138.6 249.223 138.349 249.223 137.881C249.223 137.412 249.223 136.706 249.223 135.802C249.223 133.973 249.223 131.3 249.183 127.882C249.183 121.024 249.143 111.151 249.117 99.0463L249.249 99.1783L182.82 99.2047L182.992 99.0331C182.992 113.045 182.992 126.423 182.992 138.6L182.833 138.442L230.604 138.514L244.319 138.56H247.975H248.919H249.249H248.939H248.015H244.385L230.71 138.6L182.833 138.679H182.675V138.6C182.675 126.423 182.675 113.045 182.675 99.0331V98.8615H182.82L249.229 98.9011H249.361V99.0331C249.361 111.177 249.308 121.077 249.289 127.954C249.289 131.373 249.289 134.033 249.256 135.874C249.256 136.765 249.256 137.452 249.256 137.927C249.256 138.402 249.223 138.6 249.223 138.6Z" fill="#263238"/>
<path d="M217.239 96.9475C217.244 97.1916 217.177 97.4318 217.045 97.6372C216.913 97.8427 216.722 98.0041 216.498 98.1009C216.274 98.1977 216.026 98.2254 215.786 98.1806C215.546 98.1357 215.325 98.0202 215.151 97.849C214.977 97.6777 214.858 97.4585 214.809 97.2192C214.76 96.9799 214.784 96.7316 214.877 96.5058C214.97 96.2801 215.128 96.0872 215.332 95.9519C215.535 95.8166 215.774 95.745 216.018 95.7463C216.177 95.7445 216.335 95.7743 216.483 95.8338C216.63 95.8933 216.765 95.9814 216.878 96.093C216.992 96.2046 217.082 96.3376 217.144 96.4842C217.206 96.6309 217.238 96.7883 217.239 96.9475Z" fill="#263238"/>
<path d="M262.192 172.3L253.579 141.979H178.273L168.458 172.201C168.32 172.622 168.282 173.07 168.348 173.508C168.415 173.947 168.583 174.364 168.84 174.725C169.097 175.087 169.435 175.383 169.827 175.59C170.22 175.797 170.655 175.909 171.098 175.916H205.498L206.89 174.524H223.133L224.525 175.916H259.505C259.942 175.913 260.372 175.808 260.761 175.61C261.15 175.412 261.488 175.126 261.748 174.776C262.008 174.426 262.184 174.02 262.261 173.59C262.338 173.16 262.314 172.719 262.192 172.3Z" fill="#E0E0E0"/>
<path d="M248.233 143.92L182.609 143.702C182.298 143.684 181.989 143.761 181.723 143.924C181.458 144.087 181.249 144.327 181.124 144.613L175.844 159.542C175.56 160.354 176.293 161.159 177.322 161.159H253.282C254.305 161.159 255.044 160.36 254.76 159.549L249.711 144.844C249.586 144.559 249.378 144.318 249.115 144.153C248.851 143.988 248.543 143.907 248.233 143.92Z" fill="#EBEBEB"/>
<g opacity="0.1">
<path d="M227.852 172.557H201.96C201.7 172.541 201.446 172.467 201.218 172.341C200.99 172.214 200.794 172.038 200.643 171.825C200.492 171.612 200.391 171.368 200.347 171.111C200.303 170.854 200.318 170.59 200.389 170.339L201.854 164.208C201.929 163.843 202.124 163.514 202.41 163.274C202.695 163.035 203.053 162.898 203.425 162.888H226.565C226.946 162.9 227.312 163.044 227.6 163.294C227.889 163.543 228.082 163.885 228.149 164.261L229.469 170.386C229.533 170.637 229.54 170.9 229.49 171.154C229.439 171.409 229.333 171.649 229.178 171.857C229.023 172.065 228.823 172.236 228.594 172.357C228.365 172.478 228.111 172.546 227.852 172.557Z" fill="black"/>
</g>
<path d="M227.766 148.645L227.106 145.517C227.083 145.413 227.026 145.321 226.943 145.255C226.86 145.188 226.757 145.153 226.651 145.154H222.611C222.545 145.153 222.479 145.167 222.418 145.194C222.357 145.221 222.303 145.261 222.259 145.312C222.215 145.362 222.183 145.421 222.164 145.485C222.145 145.549 222.14 145.616 222.149 145.682L222.598 148.81C222.614 148.922 222.669 149.024 222.754 149.098C222.839 149.171 222.948 149.212 223.06 149.213H227.33C227.398 149.21 227.465 149.192 227.525 149.16C227.586 149.128 227.638 149.084 227.68 149.03C227.721 148.976 227.751 148.914 227.765 148.847C227.78 148.781 227.78 148.712 227.766 148.645Z" fill="#263238"/>
<path d="M215.589 148.718L215.299 145.576C215.29 145.46 215.238 145.352 215.152 145.273C215.066 145.195 214.953 145.152 214.837 145.154H210.712C210.649 145.154 210.587 145.166 210.529 145.191C210.471 145.215 210.419 145.251 210.376 145.296C210.332 145.341 210.298 145.394 210.275 145.452C210.252 145.511 210.241 145.573 210.243 145.636L210.355 148.777C210.36 148.898 210.412 149.012 210.499 149.096C210.587 149.18 210.703 149.226 210.824 149.226H215.16C215.222 149.221 215.282 149.204 215.337 149.176C215.392 149.147 215.44 149.109 215.48 149.061C215.52 149.014 215.55 148.959 215.569 148.9C215.588 148.842 215.594 148.779 215.589 148.718Z" fill="#263238"/>
<path d="M221.998 148.685L221.549 145.55C221.533 145.439 221.477 145.338 221.392 145.265C221.307 145.192 221.199 145.153 221.087 145.154H216.335C216.27 145.154 216.206 145.167 216.147 145.193C216.087 145.219 216.034 145.257 215.991 145.305C215.947 145.353 215.914 145.41 215.894 145.471C215.873 145.533 215.866 145.598 215.873 145.662L216.157 148.797C216.17 148.913 216.224 149.019 216.311 149.097C216.397 149.175 216.509 149.219 216.625 149.219H221.536C221.603 149.22 221.67 149.206 221.731 149.179C221.792 149.151 221.847 149.11 221.891 149.06C221.935 149.009 221.967 148.949 221.986 148.884C222.004 148.819 222.008 148.751 221.998 148.685Z" fill="#263238"/>
<path d="M191.862 148.764L192.522 145.913C192.536 145.822 192.531 145.729 192.507 145.641C192.483 145.552 192.441 145.469 192.383 145.398C192.325 145.326 192.253 145.268 192.171 145.226C192.09 145.184 192 145.159 191.908 145.154H187.994C187.86 145.159 187.73 145.206 187.623 145.287C187.515 145.369 187.435 145.481 187.394 145.609L186.575 148.46C186.555 148.554 186.555 148.65 186.576 148.743C186.597 148.836 186.637 148.924 186.695 149C186.753 149.075 186.826 149.138 186.91 149.183C186.995 149.228 187.087 149.254 187.183 149.259H191.275C191.412 149.248 191.542 149.195 191.648 149.106C191.753 149.017 191.828 148.897 191.862 148.764Z" fill="#263238"/>
<path d="M248.873 148.546L247.685 145.451C247.651 145.363 247.591 145.287 247.514 145.234C247.436 145.181 247.343 145.153 247.249 145.154H239.58C239.505 145.153 239.43 145.171 239.364 145.205C239.297 145.24 239.239 145.29 239.196 145.352C239.154 145.414 239.126 145.485 239.117 145.56C239.108 145.635 239.118 145.711 239.144 145.781L240.299 148.883C240.331 148.973 240.39 149.05 240.468 149.105C240.547 149.159 240.64 149.188 240.735 149.186H248.45C248.526 149.184 248.599 149.164 248.665 149.127C248.731 149.091 248.787 149.039 248.828 148.976C248.869 148.913 248.895 148.841 248.903 148.767C248.911 148.692 248.9 148.616 248.873 148.546Z" fill="#263238"/>
<path d="M209.22 145.154H204.758C204.639 145.154 204.523 145.199 204.436 145.282C204.349 145.364 204.297 145.476 204.29 145.596L204.138 148.751C204.135 148.814 204.145 148.877 204.168 148.936C204.19 148.995 204.224 149.049 204.268 149.095C204.312 149.141 204.364 149.177 204.423 149.202C204.481 149.227 204.543 149.239 204.607 149.239H209.339C209.401 149.239 209.463 149.227 209.52 149.202C209.578 149.178 209.63 149.142 209.673 149.097C209.716 149.052 209.749 148.999 209.771 148.94C209.793 148.882 209.803 148.82 209.801 148.757L209.689 145.609C209.685 145.487 209.634 145.371 209.547 145.286C209.459 145.201 209.342 145.154 209.22 145.154Z" fill="#263238"/>
<path d="M186.12 145.154H183.011C182.883 145.158 182.758 145.199 182.652 145.273C182.547 145.347 182.465 145.45 182.417 145.57L181.394 148.434C181.368 148.528 181.362 148.627 181.379 148.724C181.395 148.821 181.433 148.912 181.489 148.993C181.545 149.073 181.619 149.14 181.704 149.188C181.789 149.236 181.884 149.265 181.982 149.272H185.282C185.416 149.267 185.546 149.22 185.653 149.139C185.761 149.057 185.841 148.945 185.882 148.817L186.701 145.959C186.722 145.867 186.723 145.772 186.705 145.68C186.686 145.588 186.648 145.501 186.593 145.425C186.538 145.349 186.467 145.285 186.386 145.238C186.304 145.191 186.214 145.163 186.12 145.154Z" fill="#263238"/>
<path d="M197.637 148.843L198.053 145.675C198.061 145.61 198.056 145.543 198.036 145.48C198.017 145.417 197.984 145.359 197.94 145.309C197.897 145.26 197.843 145.221 197.782 145.194C197.722 145.167 197.657 145.153 197.591 145.154H193.631C193.525 145.154 193.423 145.19 193.34 145.256C193.257 145.322 193.199 145.414 193.175 145.517L192.469 148.685C192.453 148.753 192.453 148.824 192.468 148.893C192.484 148.961 192.515 149.025 192.559 149.08C192.602 149.134 192.658 149.178 192.722 149.208C192.785 149.238 192.854 149.253 192.925 149.252H197.195C197.306 149.25 197.412 149.207 197.493 149.131C197.575 149.056 197.626 148.954 197.637 148.843Z" fill="#263238"/>
<path d="M198.66 145.556L198.244 148.718C198.236 148.784 198.242 148.852 198.261 148.915C198.281 148.979 198.314 149.038 198.359 149.088C198.403 149.138 198.458 149.178 198.519 149.205C198.58 149.233 198.646 149.246 198.713 149.246H203.128C203.248 149.246 203.363 149.2 203.451 149.118C203.538 149.036 203.59 148.923 203.597 148.804L203.749 145.649C203.752 145.585 203.743 145.522 203.721 145.462C203.699 145.403 203.665 145.348 203.621 145.303C203.577 145.257 203.524 145.22 203.465 145.196C203.407 145.172 203.344 145.159 203.28 145.16H199.122C199.01 145.161 198.903 145.201 198.818 145.273C198.733 145.346 198.677 145.446 198.66 145.556Z" fill="#263238"/>
<path d="M233.838 148.599L232.914 145.484C232.885 145.388 232.826 145.303 232.745 145.244C232.664 145.184 232.566 145.153 232.465 145.154H228.162C228.093 145.153 228.024 145.168 227.961 145.198C227.898 145.227 227.843 145.271 227.799 145.325C227.755 145.379 227.724 145.442 227.708 145.509C227.692 145.577 227.692 145.647 227.707 145.715L228.367 148.837C228.389 148.941 228.447 149.034 228.529 149.102C228.612 149.169 228.715 149.206 228.822 149.206H233.376C233.451 149.209 233.525 149.193 233.592 149.161C233.659 149.129 233.718 149.081 233.763 149.022C233.809 148.962 233.839 148.893 233.852 148.819C233.865 148.746 233.86 148.67 233.838 148.599Z" fill="#263238"/>
<path d="M239.58 148.559L238.425 145.457C238.392 145.369 238.332 145.292 238.254 145.238C238.177 145.184 238.084 145.154 237.989 145.154H234.029C233.957 145.154 233.887 145.171 233.822 145.203C233.758 145.235 233.702 145.282 233.659 145.34C233.616 145.398 233.588 145.465 233.575 145.535C233.562 145.606 233.567 145.679 233.587 145.748L234.505 148.863C234.534 148.959 234.594 149.043 234.675 149.102C234.755 149.161 234.853 149.193 234.953 149.193H239.144C239.219 149.191 239.293 149.171 239.359 149.136C239.425 149.1 239.481 149.049 239.524 148.987C239.566 148.925 239.593 148.854 239.603 148.78C239.613 148.706 239.605 148.63 239.58 148.559Z" fill="#263238"/>
<path d="M209.392 149.939H204.521C204.401 149.939 204.286 149.984 204.198 150.067C204.111 150.149 204.059 150.261 204.052 150.381L203.894 153.641C203.891 153.705 203.901 153.768 203.924 153.827C203.946 153.886 203.98 153.94 204.024 153.986C204.068 154.031 204.12 154.068 204.178 154.092C204.237 154.117 204.299 154.13 204.362 154.13H209.51C209.573 154.129 209.636 154.116 209.693 154.091C209.751 154.065 209.803 154.029 209.847 153.984C209.89 153.938 209.925 153.885 209.947 153.826C209.97 153.767 209.981 153.704 209.979 153.641L209.86 150.394C209.857 150.272 209.806 150.156 209.718 150.071C209.631 149.986 209.514 149.939 209.392 149.939Z" fill="#263238"/>
<path d="M241.395 153.45L240.2 150.249C240.168 150.16 240.109 150.083 240.031 150.028C239.953 149.974 239.86 149.945 239.765 149.945H235.448C235.376 149.946 235.304 149.963 235.239 149.995C235.174 150.028 235.117 150.075 235.074 150.134C235.03 150.192 235.001 150.259 234.988 150.331C234.975 150.403 234.979 150.476 235 150.546L235.95 153.78C235.98 153.876 236.039 153.96 236.12 154.019C236.201 154.078 236.299 154.11 236.399 154.11H240.959C241.038 154.111 241.116 154.093 241.186 154.056C241.256 154.019 241.315 153.965 241.358 153.9C241.402 153.834 241.428 153.758 241.434 153.68C241.441 153.601 241.427 153.522 241.395 153.45Z" fill="#263238"/>
<path d="M235.29 153.49L234.333 150.275C234.306 150.18 234.247 150.095 234.168 150.036C234.088 149.976 233.99 149.944 233.891 149.945H229.198C229.129 149.945 229.06 149.96 228.997 149.989C228.934 150.019 228.879 150.062 228.835 150.116C228.792 150.17 228.761 150.233 228.745 150.301C228.729 150.368 228.728 150.439 228.743 150.506L229.436 153.727C229.459 153.831 229.517 153.924 229.6 153.991C229.682 154.058 229.785 154.095 229.891 154.097H234.841C234.915 154.097 234.987 154.08 235.053 154.047C235.119 154.014 235.176 153.966 235.219 153.907C235.263 153.848 235.292 153.779 235.304 153.707C235.317 153.634 235.312 153.56 235.29 153.49Z" fill="#263238"/>
<path d="M198.046 154.136H202.871C202.99 154.135 203.103 154.088 203.189 154.006C203.275 153.924 203.326 153.813 203.333 153.694L203.491 150.434C203.494 150.371 203.484 150.308 203.461 150.248C203.439 150.189 203.405 150.135 203.361 150.09C203.317 150.044 203.265 150.008 203.207 149.983C203.148 149.958 203.086 149.945 203.023 149.945H198.469C198.355 149.946 198.246 149.988 198.161 150.063C198.076 150.138 198.021 150.242 198.007 150.355L197.584 153.615C197.576 153.68 197.581 153.747 197.601 153.81C197.62 153.873 197.653 153.931 197.697 153.981C197.74 154.03 197.794 154.07 197.855 154.097C197.915 154.123 197.98 154.137 198.046 154.136Z" fill="#263238"/>
<path d="M211.002 154.117H215.576C215.641 154.117 215.705 154.104 215.764 154.078C215.823 154.052 215.876 154.013 215.92 153.965C215.964 153.917 215.997 153.861 216.017 153.799C216.037 153.738 216.044 153.673 216.038 153.608L215.741 150.374C215.731 150.258 215.678 150.15 215.593 150.071C215.507 149.991 215.395 149.947 215.279 149.945H210.883C210.821 149.946 210.759 149.96 210.701 149.985C210.644 150.01 210.592 150.046 210.549 150.092C210.506 150.138 210.472 150.191 210.45 150.25C210.428 150.309 210.419 150.371 210.421 150.434L210.54 153.674C210.545 153.793 210.596 153.906 210.682 153.988C210.768 154.071 210.883 154.117 211.002 154.117Z" fill="#263238"/>
<path d="M216.308 150.48L216.605 153.714C216.618 153.83 216.673 153.936 216.759 154.014C216.846 154.092 216.958 154.136 217.074 154.136H222.229C222.295 154.137 222.361 154.123 222.422 154.096C222.483 154.069 222.537 154.029 222.581 153.979C222.625 153.929 222.657 153.869 222.676 153.806C222.695 153.742 222.7 153.674 222.691 153.608L222.229 150.374C222.214 150.264 222.16 150.163 222.076 150.09C221.992 150.017 221.884 149.977 221.773 149.978H216.777C216.713 149.978 216.649 149.991 216.59 150.017C216.531 150.043 216.477 150.08 216.433 150.127C216.389 150.174 216.356 150.23 216.334 150.291C216.313 150.351 216.304 150.416 216.308 150.48Z" fill="#263238"/>
<path d="M228.822 153.529L228.122 150.308C228.1 150.205 228.042 150.112 227.959 150.046C227.876 149.98 227.773 149.945 227.667 149.945H223.278C223.211 149.945 223.145 149.959 223.085 149.986C223.024 150.013 222.969 150.053 222.926 150.103C222.882 150.153 222.849 150.212 222.83 150.276C222.811 150.34 222.806 150.407 222.816 150.473L223.278 153.701C223.294 153.812 223.349 153.914 223.434 153.988C223.519 154.062 223.627 154.103 223.74 154.103H228.36C228.431 154.104 228.501 154.089 228.565 154.059C228.63 154.028 228.686 153.984 228.731 153.929C228.775 153.873 228.806 153.809 228.822 153.739C228.838 153.67 228.838 153.598 228.822 153.529Z" fill="#263238"/>
<path d="M191.017 149.939H181.289C181.195 149.94 181.104 149.969 181.026 150.021C180.949 150.074 180.888 150.149 180.853 150.236L179.586 153.536C179.559 153.606 179.55 153.682 179.559 153.757C179.568 153.831 179.595 153.903 179.638 153.964C179.681 154.026 179.738 154.077 179.805 154.111C179.872 154.146 179.946 154.164 180.022 154.163H190.285C190.393 154.162 190.498 154.123 190.581 154.053C190.664 153.983 190.72 153.887 190.74 153.78L191.473 150.48C191.483 150.414 191.479 150.346 191.461 150.282C191.443 150.217 191.411 150.157 191.368 150.106C191.325 150.054 191.271 150.013 191.211 149.984C191.15 149.955 191.084 149.94 191.017 149.939Z" fill="#263238"/>
<path d="M191.816 154.143H196.541C196.654 154.143 196.763 154.102 196.847 154.028C196.932 153.954 196.988 153.852 197.003 153.741L197.426 150.441C197.435 150.375 197.43 150.307 197.412 150.243C197.393 150.179 197.36 150.12 197.316 150.07C197.272 150.02 197.218 149.98 197.157 149.953C197.096 149.926 197.03 149.912 196.964 149.912H192.548C192.443 149.913 192.34 149.949 192.257 150.015C192.175 150.081 192.117 150.172 192.093 150.276L191.36 153.576C191.346 153.644 191.346 153.714 191.362 153.782C191.378 153.85 191.409 153.913 191.453 153.968C191.497 154.022 191.552 154.066 191.615 154.096C191.677 154.127 191.746 154.143 191.816 154.143Z" fill="#263238"/>
<path d="M247.203 154.07H250.239C250.318 154.072 250.396 154.053 250.465 154.016C250.535 153.98 250.595 153.926 250.638 153.86C250.681 153.794 250.708 153.719 250.714 153.64C250.72 153.561 250.707 153.482 250.675 153.41L249.394 150.223C249.359 150.136 249.299 150.061 249.221 150.008C249.144 149.955 249.052 149.927 248.959 149.926H246.18C246.106 149.927 246.034 149.945 245.968 149.978C245.902 150.012 245.846 150.061 245.802 150.12C245.759 150.18 245.729 150.249 245.717 150.322C245.705 150.394 245.71 150.469 245.731 150.539L246.767 153.727C246.795 153.823 246.852 153.907 246.93 153.969C247.008 154.031 247.104 154.066 247.203 154.07Z" fill="#263238"/>
<path d="M246.074 153.463L245.038 150.269C245.008 150.175 244.949 150.094 244.869 150.036C244.79 149.978 244.694 149.946 244.596 149.945H241.355C241.281 149.946 241.207 149.965 241.141 150C241.075 150.035 241.019 150.085 240.976 150.147C240.933 150.208 240.906 150.279 240.896 150.353C240.886 150.427 240.895 150.502 240.92 150.572L242.108 153.773C242.142 153.863 242.202 153.94 242.281 153.995C242.36 154.049 242.454 154.078 242.55 154.077H245.632C245.706 154.078 245.78 154.061 245.846 154.028C245.912 153.994 245.97 153.945 246.013 153.885C246.056 153.825 246.085 153.755 246.095 153.682C246.106 153.608 246.099 153.533 246.074 153.463Z" fill="#263238"/>
<path d="M197.597 159.621H202.376C202.555 159.623 202.728 159.555 202.859 159.432C202.989 159.309 203.067 159.14 203.075 158.961L203.24 155.562C203.246 155.467 203.232 155.372 203.199 155.283C203.166 155.194 203.115 155.113 203.05 155.044C202.984 154.975 202.905 154.921 202.818 154.884C202.73 154.847 202.636 154.828 202.541 154.83H198.04C197.869 154.828 197.704 154.889 197.575 155.001C197.446 155.113 197.363 155.268 197.34 155.437L196.898 158.829C196.885 158.928 196.893 159.029 196.922 159.125C196.951 159.221 197.001 159.31 197.067 159.385C197.133 159.46 197.215 159.52 197.306 159.561C197.398 159.601 197.497 159.622 197.597 159.621Z" fill="#263238"/>
<path d="M250.853 154.829H243.54C243.427 154.829 243.315 154.856 243.214 154.908C243.114 154.96 243.027 155.035 242.962 155.128C242.897 155.221 242.856 155.328 242.842 155.441C242.827 155.553 242.84 155.667 242.88 155.773L244.2 159.238C244.249 159.374 244.339 159.491 244.457 159.574C244.575 159.657 244.716 159.701 244.86 159.7H252.272C252.386 159.7 252.499 159.672 252.6 159.619C252.701 159.566 252.788 159.489 252.853 159.395C252.918 159.301 252.959 159.192 252.973 159.079C252.986 158.965 252.972 158.85 252.932 158.743L251.572 155.258C251.515 155.119 251.413 155.002 251.284 154.924C251.154 154.847 251.003 154.814 250.853 154.829Z" fill="#263238"/>
<path d="M190.958 155.377L190.199 158.756C190.176 158.857 190.176 158.961 190.199 159.061C190.221 159.162 190.266 159.256 190.329 159.337C190.392 159.418 190.472 159.485 190.564 159.532C190.655 159.578 190.756 159.604 190.859 159.608H195.591C195.761 159.606 195.925 159.543 196.052 159.43C196.179 159.318 196.262 159.163 196.284 158.994L196.726 155.608C196.74 155.509 196.733 155.408 196.705 155.313C196.676 155.217 196.628 155.128 196.562 155.053C196.496 154.978 196.415 154.917 196.323 154.877C196.232 154.836 196.133 154.815 196.033 154.816H191.618C191.461 154.822 191.31 154.88 191.191 154.982C191.071 155.084 190.989 155.223 190.958 155.377Z" fill="#263238"/>
<path d="M184.536 155.338L183.539 158.829C183.514 158.919 183.51 159.014 183.527 159.106C183.544 159.198 183.582 159.284 183.639 159.359C183.695 159.434 183.767 159.495 183.851 159.537C183.935 159.579 184.027 159.601 184.12 159.601H188.951C189.089 159.601 189.222 159.554 189.329 159.468C189.436 159.381 189.51 159.261 189.539 159.126L190.337 155.569C190.359 155.48 190.359 155.387 190.339 155.298C190.319 155.209 190.279 155.125 190.221 155.054C190.164 154.982 190.091 154.925 190.008 154.886C189.925 154.847 189.835 154.828 189.743 154.829L185.123 154.889C184.99 154.889 184.86 154.932 184.754 155.014C184.647 155.095 184.571 155.209 184.536 155.338Z" fill="#263238"/>
<path d="M229.858 155.674L230.604 159.126C230.637 159.278 230.719 159.415 230.839 159.514C230.959 159.614 231.108 159.67 231.264 159.674H236.161C236.269 159.671 236.375 159.644 236.471 159.593C236.567 159.543 236.65 159.472 236.714 159.384C236.778 159.297 236.82 159.196 236.839 159.089C236.858 158.983 236.852 158.874 236.821 158.77L235.792 155.318C235.75 155.174 235.664 155.048 235.545 154.958C235.426 154.867 235.281 154.818 235.132 154.816H230.512C230.408 154.819 230.307 154.845 230.215 154.892C230.123 154.94 230.043 155.007 229.98 155.089C229.917 155.171 229.874 155.267 229.853 155.368C229.832 155.469 229.834 155.574 229.858 155.674Z" fill="#263238"/>
<path d="M203.808 155.496L203.643 158.895C203.638 158.99 203.652 159.085 203.684 159.175C203.717 159.264 203.768 159.346 203.833 159.416C203.899 159.485 203.978 159.54 204.065 159.577C204.153 159.615 204.247 159.634 204.343 159.634L229.277 159.674C229.38 159.669 229.48 159.643 229.571 159.596C229.662 159.548 229.742 159.482 229.805 159.401C229.867 159.32 229.912 159.226 229.935 159.126C229.958 159.026 229.959 158.923 229.937 158.822L229.192 155.377C229.158 155.226 229.075 155.09 228.955 154.99C228.836 154.891 228.687 154.835 228.532 154.829H204.508C204.328 154.829 204.154 154.898 204.024 155.023C203.894 155.147 203.816 155.316 203.808 155.496Z" fill="#263238"/>
<path d="M179.084 155.192L177.764 158.842C177.734 158.926 177.723 159.016 177.735 159.105C177.746 159.193 177.779 159.278 177.83 159.351C177.882 159.425 177.95 159.484 178.029 159.526C178.108 159.567 178.196 159.588 178.286 159.588H182.338C182.458 159.586 182.575 159.546 182.671 159.474C182.767 159.402 182.838 159.301 182.873 159.185L183.916 155.529C183.939 155.446 183.943 155.359 183.927 155.275C183.911 155.191 183.876 155.111 183.824 155.043C183.773 154.974 183.706 154.919 183.629 154.88C183.552 154.842 183.467 154.823 183.381 154.823H179.626C179.508 154.819 179.392 154.853 179.295 154.919C179.197 154.986 179.124 155.081 179.084 155.192Z" fill="#263238"/>
<path d="M236.537 155.76L237.56 159.218C237.604 159.361 237.691 159.486 237.809 159.576C237.928 159.666 238.072 159.717 238.22 159.72H242.689C242.802 159.721 242.914 159.694 243.014 159.642C243.115 159.59 243.201 159.514 243.266 159.421C243.331 159.329 243.373 159.221 243.387 159.109C243.401 158.997 243.388 158.882 243.349 158.776L242.029 155.311C241.979 155.177 241.888 155.061 241.77 154.98C241.652 154.898 241.512 154.855 241.369 154.856H237.164C237.059 154.862 236.956 154.892 236.863 154.944C236.771 154.996 236.692 155.068 236.631 155.156C236.571 155.243 236.531 155.342 236.515 155.447C236.498 155.552 236.506 155.659 236.537 155.76Z" fill="#263238"/>
<path d="M253.849 142.091C253.849 142.184 236.966 142.263 216.143 142.263C195.32 142.263 178.438 142.184 178.438 142.091C178.438 141.999 195.314 141.92 216.143 141.92C236.973 141.92 253.849 141.992 253.849 142.091Z" fill="#263238"/>
<path d="M201.412 110.398C202.103 109.824 202.869 109.347 203.689 108.979L203.828 106.491L207.887 105.831L208.831 108.134C209.733 108.218 210.621 108.42 211.471 108.735L213.325 107.085L216.678 109.474L215.714 111.764C216.289 112.457 216.768 113.223 217.14 114.041L219.622 114.18L220.282 118.239L217.978 119.183C217.901 120.086 217.699 120.975 217.378 121.823L219.034 123.677L216.645 127.03L214.342 126.06C213.65 126.631 212.887 127.108 212.071 127.479L211.926 129.961L207.867 130.621L206.923 128.317C206.02 128.24 205.131 128.038 204.283 127.717L202.455 129.36L199.102 126.971L200.066 124.681C199.494 123.986 199.015 123.221 198.64 122.404L196.159 122.258L195.499 118.199L197.802 117.256C197.886 116.353 198.088 115.466 198.403 114.616L196.746 112.761L199.135 109.408L201.432 110.372L201.412 110.398ZM204.389 115.493C203.882 116.204 203.598 117.05 203.572 117.922C203.545 118.795 203.778 119.655 204.241 120.396C204.703 121.136 205.375 121.722 206.171 122.081C206.967 122.44 207.851 122.554 208.712 122.411C209.573 122.267 210.372 121.871 211.009 121.273C211.645 120.675 212.089 119.902 212.286 119.052C212.483 118.201 212.424 117.312 212.115 116.495C211.807 115.678 211.263 114.972 210.553 114.464C210.081 114.127 209.546 113.886 208.98 113.755C208.415 113.625 207.829 113.607 207.256 113.703C206.683 113.8 206.136 114.008 205.643 114.316C205.151 114.624 204.725 115.027 204.389 115.5V115.493Z" fill="#F5F5F5"/>
<path d="M223.78 120.734C224.247 120.348 224.764 120.026 225.317 119.777L225.416 118.094L228.162 117.632L228.822 119.189C229.427 119.247 230.022 119.385 230.591 119.599L231.845 118.477L234.115 120.094L233.455 121.645C233.841 122.115 234.163 122.634 234.412 123.189L236.095 123.281L236.557 126.034L235 126.694C234.94 127.298 234.803 127.893 234.59 128.462L235.712 129.716L234.089 132L232.531 131.34C232.065 131.73 231.547 132.054 230.993 132.304L230.901 133.987L228.149 134.449L227.489 132.884C226.884 132.828 226.289 132.693 225.72 132.482L224.466 133.597L222.196 131.98L222.856 130.429C222.465 129.963 222.141 129.446 221.892 128.891L220.209 128.792L219.747 126.047L221.311 125.387C221.363 124.782 221.499 124.186 221.714 123.618L220.592 122.364L222.215 120.094L223.766 120.754L223.78 120.734ZM225.799 124.186C225.455 124.667 225.262 125.24 225.244 125.831C225.226 126.422 225.383 127.006 225.697 127.508C226.01 128.009 226.466 128.407 227.005 128.65C227.545 128.893 228.144 128.97 228.727 128.872C229.311 128.774 229.852 128.505 230.283 128.099C230.713 127.693 231.014 127.169 231.146 126.592C231.279 126.016 231.237 125.413 231.026 124.86C230.816 124.307 230.446 123.829 229.964 123.486C229.318 123.028 228.518 122.844 227.737 122.975C226.956 123.106 226.259 123.541 225.799 124.186Z" fill="#F5F5F5"/>
<path d="M222.493 104.663C222.908 104.323 223.365 104.037 223.852 103.811L223.938 102.326L226.373 101.917L226.934 103.297C227.471 103.35 227.999 103.472 228.505 103.66L229.614 102.663L231.594 104.095L231.02 105.475C231.365 105.887 231.651 106.344 231.871 106.834L233.363 106.92L233.765 109.355L232.386 109.916C232.339 110.454 232.219 110.982 232.03 111.487L233.02 112.596L231.587 114.609L230.215 114.028C229.8 114.373 229.34 114.659 228.848 114.88L228.763 116.371L226.334 116.78L225.766 115.401C225.231 115.348 224.705 115.226 224.202 115.038L223.087 116.028L221.107 114.596L221.681 113.223C221.338 112.807 221.052 112.348 220.829 111.857L219.344 111.771L218.935 109.342L220.315 108.775C220.364 108.239 220.486 107.713 220.678 107.21L219.681 106.095L221.113 104.115L222.493 104.689V104.663ZM224.275 107.719C223.972 108.144 223.802 108.649 223.786 109.17C223.771 109.692 223.91 110.206 224.186 110.649C224.463 111.091 224.864 111.442 225.34 111.656C225.815 111.871 226.344 111.94 226.858 111.854C227.373 111.769 227.851 111.532 228.231 111.175C228.612 110.818 228.878 110.357 228.996 109.849C229.115 109.34 229.08 108.809 228.896 108.32C228.712 107.832 228.388 107.409 227.964 107.105C227.682 106.902 227.362 106.757 227.024 106.679C226.685 106.6 226.335 106.589 225.992 106.646C225.649 106.703 225.321 106.827 225.026 107.011C224.732 107.195 224.476 107.436 224.275 107.719Z" fill="#F5F5F5"/>
<path d="M193.499 119.5L193.974 118.437C194.478 118.757 195.06 118.931 195.657 118.939C196.258 118.939 196.489 118.774 196.489 118.523C196.489 117.711 193.585 118.305 193.585 116.404C193.585 115.493 194.33 114.748 195.848 114.748C196.494 114.738 197.131 114.89 197.703 115.19L197.254 116.266C196.823 116.019 196.338 115.883 195.842 115.87C195.235 115.87 195.017 116.074 195.017 116.332C195.017 117.11 197.914 116.53 197.914 118.411C197.914 119.302 197.168 120.061 195.65 120.061C194.895 120.08 194.149 119.886 193.499 119.5Z" fill="#263238"/>
<path d="M198.317 117.407C198.274 116.836 198.405 116.265 198.692 115.769C198.979 115.272 199.409 114.874 199.926 114.626C200.442 114.378 201.022 114.291 201.588 114.377C202.155 114.463 202.682 114.718 203.102 115.109C203.522 115.499 203.814 116.007 203.941 116.566C204.068 117.125 204.023 117.709 203.813 118.242C203.602 118.775 203.236 119.233 202.762 119.555C202.288 119.877 201.728 120.048 201.155 120.047C200.792 120.075 200.427 120.027 200.084 119.906C199.74 119.786 199.425 119.596 199.159 119.348C198.892 119.1 198.68 118.799 198.535 118.466C198.39 118.132 198.316 117.771 198.317 117.407ZM202.534 117.407C202.519 117.138 202.425 116.88 202.264 116.664C202.104 116.448 201.883 116.283 201.63 116.191C201.377 116.098 201.103 116.082 200.84 116.144C200.578 116.206 200.34 116.343 200.155 116.539C199.97 116.734 199.846 116.98 199.799 117.245C199.752 117.51 199.783 117.784 199.89 118.031C199.996 118.279 200.173 118.49 200.397 118.638C200.622 118.786 200.885 118.866 201.155 118.866C201.343 118.868 201.53 118.831 201.704 118.758C201.878 118.684 202.034 118.576 202.164 118.439C202.293 118.302 202.393 118.139 202.457 117.962C202.521 117.784 202.547 117.596 202.534 117.407Z" fill="#263238"/>
<path d="M206.204 115.969V117.091H208.461V118.206H206.204V119.962H204.758V114.84H208.765V115.955L206.204 115.969Z" fill="#263238"/>
<path d="M210.573 115.995H209.002V114.84H213.576V115.982H212.018V119.942H210.573V115.995Z" fill="#263238"/>
<path d="M222.011 114.84L220.354 119.948H218.81L217.8 116.853L216.777 119.962H215.233L213.602 114.84H215.087L216.117 118.1L217.199 114.84H218.519L219.542 118.14L220.618 114.84H222.011Z" fill="#263238"/>
<path d="M225.779 118.965H223.621L223.219 119.962H221.76L224.011 114.853H225.436L227.7 119.962H226.182L225.779 118.965ZM225.357 117.902L224.697 116.266L224.037 117.902H225.357Z" fill="#263238"/>
<path d="M230.34 118.602H229.548V119.962H228.096V114.84H230.432C231.825 114.84 232.703 115.559 232.703 116.728C232.716 117.066 232.628 117.4 232.451 117.688C232.273 117.976 232.014 118.205 231.706 118.345L232.808 119.948H231.257L230.34 118.602ZM230.34 115.962H229.535V117.48H230.34C230.941 117.48 231.238 117.203 231.238 116.734C231.238 116.266 230.947 115.988 230.34 115.988V115.962Z" fill="#263238"/>
<path d="M237.6 118.846V119.962H233.495V114.84H237.501V115.955H234.96V116.82H237.23V117.902H234.96V118.84L237.6 118.846Z" fill="#263238"/>
<path d="M192.423 121.229H193.116V126.106H192.423V121.229Z" fill="#263238"/>
<path d="M198.772 121.229V126.106H198.205L195.274 122.47V126.106H194.581V121.229H195.149L198.079 124.865V121.229H198.772Z" fill="#263238"/>
<path d="M201.201 121.836H199.531V121.229H203.564V121.836H201.894V126.106H201.234L201.201 121.836Z" fill="#263238"/>
<path d="M207.86 125.499V126.106H204.323V121.229H207.768V121.836H205.022V123.334H207.464V123.922H205.022V125.499H207.86Z" fill="#263238"/>
<path d="M212.348 123.638H213.008V125.539C212.486 125.955 211.835 126.174 211.167 126.159C210.76 126.142 210.364 126.026 210.013 125.82C209.661 125.615 209.365 125.327 209.151 124.981C208.936 124.635 208.81 124.242 208.782 123.836C208.755 123.43 208.827 123.023 208.992 122.651C209.158 122.279 209.412 121.954 209.732 121.703C210.053 121.452 210.43 121.283 210.83 121.211C211.231 121.139 211.643 121.166 212.031 121.29C212.418 121.414 212.77 121.631 213.055 121.922L212.619 122.357C212.434 122.172 212.214 122.026 211.971 121.929C211.728 121.831 211.468 121.784 211.207 121.79C210.709 121.79 210.233 121.987 209.881 122.339C209.53 122.69 209.332 123.167 209.332 123.664C209.332 124.161 209.53 124.638 209.881 124.99C210.233 125.341 210.709 125.539 211.207 125.539C211.609 125.549 212.006 125.442 212.348 125.228V123.638Z" fill="#263238"/>
<path d="M217.609 126.106L216.553 124.608H216.249H215.041V126.093H214.348V121.216H216.249C217.516 121.216 218.282 121.876 218.282 122.912C218.298 123.251 218.202 123.586 218.009 123.865C217.816 124.144 217.536 124.352 217.213 124.456L218.368 126.093L217.609 126.106ZM217.609 122.925C217.609 122.232 217.14 121.836 216.249 121.836H215.061V124.027H216.249C217.14 124.027 217.589 123.625 217.589 122.925H217.609Z" fill="#263238"/>
<path d="M222.519 124.885H219.925L219.391 126.106H218.671L220.882 121.229H221.542L223.76 126.106H223.08L222.519 124.885ZM222.275 124.331L221.219 121.935L220.169 124.331H222.275Z" fill="#263238"/>
<path d="M225.232 121.836H223.562V121.229H227.594V121.836H225.925V126.106H225.232V121.836Z" fill="#263238"/>
<path d="M228.36 121.229H229.02V126.106H228.36V121.229Z" fill="#263238"/>
<path d="M230.116 123.664C230.096 123.147 230.231 122.636 230.504 122.197C230.777 121.758 231.174 121.41 231.646 121.198C232.118 120.987 232.642 120.921 233.152 121.01C233.661 121.098 234.133 121.337 234.506 121.696C234.878 122.054 235.135 122.516 235.244 123.022C235.352 123.527 235.307 124.054 235.114 124.533C234.921 125.013 234.589 125.424 234.16 125.714C233.732 126.004 233.227 126.159 232.709 126.159C232.373 126.175 232.037 126.122 231.721 126.004C231.406 125.886 231.118 125.704 230.875 125.471C230.632 125.237 230.439 124.956 230.309 124.646C230.178 124.335 230.113 124.001 230.116 123.664ZM234.604 123.664C234.609 123.287 234.502 122.916 234.296 122.6C234.09 122.284 233.794 122.036 233.447 121.889C233.1 121.741 232.717 121.7 232.346 121.771C231.975 121.842 231.634 122.021 231.366 122.287C231.098 122.552 230.915 122.891 230.84 123.261C230.765 123.631 230.802 124.015 230.946 124.363C231.09 124.712 231.335 125.01 231.649 125.219C231.963 125.429 232.332 125.54 232.709 125.539C232.959 125.547 233.207 125.504 233.439 125.413C233.671 125.322 233.883 125.184 234.06 125.009C234.237 124.833 234.377 124.624 234.47 124.393C234.564 124.161 234.609 123.913 234.604 123.664Z" fill="#263238"/>
<path d="M240.557 121.229V126.106H239.983L237.059 122.47V126.106H236.359V121.229H236.94L239.864 124.865V121.229H240.557Z" fill="#263238"/>
<path d="M73.6494 108.24C70.6332 106.385 69.8478 101.996 71.4186 98.8285C72.9894 95.6605 76.4082 93.6937 79.893 93.0733C82.4282 92.6509 85.0272 92.8337 87.4783 93.6068C89.9294 94.3799 92.1631 95.7213 93.9972 97.5216C95.9772 99.5016 97.5612 102.049 100.188 102.92C102.498 103.686 105.032 102.92 107.448 103.204C110.695 103.58 113.5 105.844 115.203 108.623C116.906 111.401 117.632 114.675 118.061 117.909C118.457 120.879 118.721 124.139 120.833 126.284C122.945 128.429 126.06 128.773 128.588 130.244C133.34 133.01 134.963 140.006 131.927 144.586C130.957 146.045 129.551 147.391 129.466 149.14C129.38 150.737 130.436 152.143 130.937 153.661C132.257 157.568 129.096 162.281 124.997 162.578C122.918 162.73 120.688 161.951 118.84 162.908C116.992 163.865 116.351 166.096 115.19 167.805C114.002 169.461 112.281 170.658 110.315 171.196C108.349 171.735 106.258 171.581 104.392 170.762C102.854 170.036 101.396 168.821 99.6996 168.96C98.0034 169.099 96.6966 170.564 95.04 170.94C92.862 171.395 90.7698 169.818 89.4432 168.036C88.1166 166.254 87.186 164.142 85.4832 162.69C83.2788 160.783 80.2032 160.354 77.451 159.443C74.3813 158.438 71.5639 156.784 69.1903 154.594C66.8167 152.404 64.9425 149.728 63.6952 146.748C62.4479 143.769 61.8566 140.556 61.9616 137.328C62.0666 134.1 62.8655 130.932 64.3038 128.04" fill="#263238"/>
<path d="M105.851 146.843C106.504 146.112 107.324 145.549 108.24 145.2H108.055C108.224 145.154 108.396 145.121 108.57 145.101C108.885 145.006 109.215 144.975 109.542 145.012C109.869 145.048 110.185 145.15 110.471 145.312C111.534 145.679 112.422 146.43 112.959 147.418C113.38 148.293 113.552 149.267 113.456 150.234C113.359 151.2 112.998 152.121 112.411 152.896C111.992 153.602 111.368 154.164 110.623 154.508C109.877 154.853 109.045 154.963 108.235 154.824C107.426 154.685 106.678 154.304 106.089 153.731C105.501 153.159 105.1 152.421 104.94 151.615C104.676 150.808 104.621 149.946 104.78 149.112C104.939 148.277 105.308 147.497 105.851 146.843Z" fill="#455A64"/>
<path d="M66.9504 180.18L62.9244 121.915C62.8464 120.678 63.2358 119.456 64.0155 118.491C64.7953 117.527 65.9086 116.891 67.1352 116.708L93.093 108.946C101.462 107.692 107.494 117.803 108.392 126.218C109.382 135.564 110.227 147.015 109.421 154.051C107.791 168.208 96.2214 170.518 96.2214 170.518C96.2214 170.518 96.3468 184.912 96.5052 190.021L99.9504 205.828L66.9504 180.18Z" fill="#FFBF9D"/>
<path d="M103.29 138.31C103.312 138.779 103.151 139.239 102.841 139.593C102.531 139.946 102.095 140.165 101.627 140.204C101.398 140.232 101.166 140.215 100.945 140.152C100.723 140.089 100.517 139.983 100.337 139.839C100.157 139.695 100.008 139.516 99.8989 139.314C99.7894 139.111 99.7217 138.889 99.6996 138.659C99.6739 138.189 99.8327 137.728 100.142 137.373C100.451 137.018 100.887 136.797 101.356 136.759C101.585 136.732 101.817 136.751 102.039 136.815C102.26 136.879 102.467 136.986 102.647 137.13C102.827 137.275 102.976 137.453 103.087 137.656C103.197 137.858 103.266 138.08 103.29 138.31Z" fill="#263238"/>
<path d="M106.075 131.34C105.864 131.584 104.458 130.634 102.518 130.726C100.577 130.819 99.2178 131.842 98.9736 131.617C98.868 131.512 99.0726 131.083 99.6732 130.601C100.489 129.984 101.476 129.633 102.498 129.598C103.508 129.551 104.506 129.826 105.349 130.383C105.963 130.799 106.181 131.215 106.075 131.34Z" fill="#263238"/>
<path d="M85.8 138.904C85.8256 139.373 85.6667 139.834 85.3572 140.188C85.0477 140.542 84.6121 140.761 84.1434 140.798C83.9147 140.825 83.6828 140.807 83.4613 140.744C83.2397 140.681 83.0329 140.575 82.8529 140.431C82.6729 140.287 82.5234 140.109 82.4129 139.907C82.3025 139.705 82.2334 139.483 82.2096 139.253C82.1857 138.783 82.3459 138.321 82.6563 137.966C82.9668 137.612 83.403 137.391 83.8728 137.353C84.1016 137.325 84.3336 137.344 84.5552 137.407C84.7768 137.471 84.9834 137.578 85.1629 137.722C85.3425 137.867 85.4913 138.046 85.6007 138.249C85.7101 138.452 85.7779 138.674 85.8 138.904Z" fill="#263238"/>
<path d="M87.021 132.508C86.8032 132.752 85.3908 131.802 83.457 131.888C81.5232 131.974 80.157 133.01 79.9128 132.779C79.8072 132.68 80.0118 132.244 80.619 131.769C81.4295 131.146 82.4153 130.793 83.4372 130.759C84.4467 130.713 85.445 130.988 86.2884 131.545C86.9022 132 87.12 132.396 87.021 132.508Z" fill="#263238"/>
<path d="M94.6836 146.593C94.6836 146.487 95.865 146.223 97.8054 145.886C98.3004 145.814 98.769 145.695 98.835 145.358C98.8553 144.843 98.717 144.334 98.439 143.9L96.8154 140.191C94.545 134.911 92.8554 130.555 93.0996 130.462C93.3438 130.37 95.3238 134.587 97.5876 139.867L99.1584 143.603C99.4954 144.187 99.6146 144.872 99.495 145.537C99.4307 145.715 99.3264 145.876 99.1903 146.007C99.0542 146.139 98.8897 146.237 98.7096 146.296C98.4403 146.384 98.1608 146.437 97.878 146.454C95.9112 146.645 94.6902 146.705 94.6836 146.593Z" fill="#263238"/>
<path d="M96.162 169.554C96.162 169.554 87.582 170.518 77.9658 165.284C77.9658 165.284 82.1898 175.692 96.2016 173.771L96.162 169.554Z" fill="#FF9A6C"/>
<path d="M94.5912 151.219C94.1273 150.598 93.5188 150.098 92.8184 149.765C92.118 149.431 91.3469 149.274 90.5718 149.305C90.0654 149.333 89.5735 149.484 89.1387 149.745C88.7039 150.006 88.3395 150.37 88.077 150.803C87.786 151.305 87.655 151.884 87.7013 152.462C87.7477 153.04 87.9692 153.59 88.3364 154.039C88.7035 154.488 89.1989 154.814 89.7563 154.974C90.3138 155.134 90.9068 155.121 91.4562 154.935C92.523 154.539 93.4785 153.892 94.2414 153.047C94.4864 152.838 94.6843 152.58 94.8222 152.288C94.8886 152.129 94.9126 151.956 94.8918 151.784C94.8709 151.613 94.806 151.45 94.7034 151.312" fill="#FF9A6C"/>
<path d="M89.0274 148.183C89.3442 148.15 89.4366 150.256 91.3044 151.675C93.1722 153.094 95.403 152.764 95.436 153.054C95.469 153.186 94.9542 153.49 94.0038 153.556C92.7717 153.623 91.5551 153.256 90.5652 152.519C89.613 151.809 88.976 150.756 88.7898 149.582C88.671 148.711 88.8822 148.177 89.0274 148.183Z" fill="#263238"/>
<path d="M87.5358 124.483C87.3642 125.017 85.4172 124.852 83.1534 125.222C80.8896 125.591 79.0746 126.291 78.7512 125.836C78.606 125.611 78.903 125.103 79.6224 124.562C80.5869 123.894 81.6903 123.454 82.8495 123.275C84.0087 123.095 85.1936 123.181 86.3148 123.526C87.1662 123.829 87.6018 124.225 87.5358 124.483Z" fill="#263238"/>
<path d="M105.105 124.674C104.788 125.129 103.429 124.727 101.805 124.78C100.181 124.832 98.8482 125.202 98.505 124.78C98.3598 124.562 98.5512 124.12 99.165 123.671C99.9399 123.139 100.855 122.849 101.795 122.837C102.735 122.825 103.657 123.092 104.445 123.605C105.046 124.007 105.25 124.45 105.105 124.674Z" fill="#263238"/>
<path d="M117.751 122.159C117.134 120.016 115.796 118.15 113.962 116.879C112.939 116.219 111.751 115.85 110.801 115.104C108.748 113.494 108.233 110.642 106.946 108.372C106.102 106.905 104.919 105.66 103.497 104.742C102.075 103.824 100.454 103.258 98.769 103.092C95.9772 102.848 93.1194 103.752 90.3936 103.092C88.374 102.61 86.6052 101.336 84.5658 100.98C80.6058 100.28 76.9494 103.178 74.118 106.055C74.118 108.887 76.4346 110.755 78.6324 112.543C79.744 113.431 81.0345 114.067 82.4152 114.409C83.796 114.751 85.2344 114.79 86.6316 114.523C88.7898 114.094 91.146 112.966 93.0402 114.088C94.9344 115.21 95.1522 118.246 96.921 119.737C99.4488 121.869 103.396 119.777 106.577 120.668C109.039 121.361 110.603 123.677 112.259 125.624C113.916 127.571 116.378 129.406 118.813 128.641C118.71 126.446 118.354 124.272 117.751 122.159Z" fill="#263238"/>
<path d="M87.8196 110.603C86.0376 110.121 82.3812 109.025 81.411 107.494C79.2924 104.194 75.6096 101.95 71.8806 102.214C69.9537 102.393 68.1366 103.191 66.7016 104.489C65.2665 105.787 64.2909 107.515 63.921 109.415C61.6081 109.528 59.3682 110.261 57.4368 111.539C55.5054 112.816 53.9539 114.59 52.9452 116.675C52.6887 117.214 52.4682 117.77 52.2852 118.338C51.6033 119.59 51.2022 120.975 51.1099 122.398C51.0175 123.82 51.2362 125.246 51.7506 126.575C52.4106 128.172 53.4666 129.941 52.6614 131.459C51.8562 132.977 49.7178 133.089 48.0414 133.683C46.6291 134.249 45.4596 135.291 44.7361 136.63C44.0127 137.968 43.781 139.518 44.0814 141.009C44.3256 142.078 44.8536 143.134 44.6424 144.203C44.4312 145.273 43.4874 146.124 42.768 147.002C41.8719 148.102 41.2802 149.418 41.052 150.819C40.8237 152.22 40.9669 153.656 41.4672 154.984C41.9675 156.312 42.8075 157.485 43.9032 158.387C44.9989 159.289 46.312 159.887 47.7114 160.123C48.9786 160.334 50.3514 160.261 51.4536 160.915C52.7208 161.667 53.2884 163.172 54.1926 164.333C55.0822 165.438 56.2863 166.245 57.6453 166.649C59.0042 167.054 60.454 167.036 61.8024 166.597C62.3383 166.4 62.8464 166.134 63.3138 165.805C64.1784 166.967 65.5182 167.746 67.7886 167.713L66.8316 138.059C67 138.418 67.2532 138.732 67.5693 138.972C67.8854 139.212 68.2551 139.372 68.6466 139.438C73.425 140.448 73.9794 130.627 72.8772 127.981C74.6536 126.489 76.2347 124.78 77.583 122.892C78.8634 120.912 79.9458 115.632 79.629 113.236C81.3318 113.335 88.605 110.814 87.8196 110.603Z" fill="#263238"/>
<path d="M68.1582 140.474C67.9602 137.465 64.2642 136.871 61.6704 138.422C60.2514 139.273 59.1756 140.956 59.3538 144.157C59.8356 152.684 68.2968 150.447 68.2968 150.203C68.2968 149.959 68.3826 144.005 68.1582 140.474Z" fill="#FFBF9D"/>
<path d="M65.5116 147.114C65.472 147.114 65.373 147.226 65.1288 147.358C64.7813 147.527 64.3826 147.558 64.0134 147.444C63.096 147.16 62.2578 145.774 62.1324 144.236C62.068 143.506 62.1695 142.771 62.4294 142.085C62.494 141.815 62.6233 141.564 62.8061 141.355C62.9888 141.146 63.2197 140.984 63.4788 140.884C63.6475 140.829 63.8298 140.835 63.9947 140.9C64.1596 140.965 64.2968 141.085 64.383 141.24C64.5084 141.478 64.4622 141.649 64.5084 141.662C64.5546 141.676 64.6866 141.504 64.5942 141.161C64.5386 140.95 64.41 140.765 64.2312 140.639C63.986 140.479 63.6877 140.419 63.3996 140.474C63.0511 140.564 62.7318 140.743 62.4728 140.993C62.2137 141.243 62.0237 141.555 61.9212 141.9C61.5981 142.66 61.4667 143.487 61.5384 144.309C61.6902 146.025 62.6604 147.609 63.9078 147.866C64.1361 147.917 64.3727 147.916 64.6008 147.865C64.8289 147.813 65.0429 147.713 65.2278 147.569C65.5116 147.325 65.5446 147.127 65.5116 147.114Z" fill="#FF9A6C"/>
<path d="M76.032 108.471C75.3701 108.824 74.7952 109.32 74.349 109.923C73.524 111.098 73.2402 113.329 73.8078 115.83L73.8606 116.048L73.6494 116.101C72.4263 116.449 71.3002 117.075 70.3591 117.93C69.418 118.785 68.6874 119.847 68.2242 121.031C67.9698 121.698 67.8293 122.403 67.8084 123.116C67.8411 123.874 67.9427 124.628 68.112 125.367C68.2876 126.165 68.4067 126.974 68.4684 127.789C68.5385 128.684 68.3061 129.577 67.8084 130.324C66.7722 131.954 65.076 132.772 63.624 133.564C62.1667 134.219 60.8284 135.111 59.664 136.204C57.7583 138.125 56.6562 140.7 56.5818 143.405C56.5427 145.237 56.9552 147.05 57.783 148.685C58.3704 149.846 58.8522 150.394 58.806 150.427C58.7598 150.46 58.6608 150.315 58.4364 150.051C58.1139 149.659 57.8267 149.24 57.5784 148.797C56.6431 147.161 56.1538 145.309 56.1594 143.425C56.1789 140.591 57.2927 137.874 59.268 135.841C60.465 134.685 61.8484 133.739 63.36 133.043C64.812 132.251 66.4092 131.439 67.32 130C68.244 128.68 67.8018 127.004 67.5312 125.479C67.3561 124.703 67.2566 123.912 67.2342 123.116C67.2563 122.334 67.4126 121.562 67.6962 120.833C68.1986 119.576 68.9887 118.454 70.0031 117.558C71.0175 116.662 72.2279 116.016 73.5372 115.672L73.3788 115.942C72.831 113.302 73.2006 111.005 74.151 109.778C74.4938 109.306 74.947 108.925 75.471 108.669C75.6475 108.576 75.8364 108.51 76.032 108.471Z" fill="#455A64"/>
<path d="M62.37 150.355C63.0309 149.629 63.8542 149.071 64.7724 148.724H64.5876C64.7586 148.678 64.9329 148.645 65.109 148.625C65.4237 148.531 65.7543 148.5 66.081 148.537C66.4077 148.573 66.7236 148.675 67.0098 148.837C68.0721 149.198 68.9585 149.948 69.4914 150.935C69.9137 151.81 70.0866 152.784 69.9912 153.751C69.8957 154.717 69.5355 155.638 68.9502 156.413C68.5314 157.127 67.9045 157.695 67.1537 158.042C66.4028 158.39 65.5638 158.499 64.7489 158.356C63.9341 158.214 63.1823 157.825 62.5944 157.243C62.0064 156.661 61.6104 155.913 61.4592 155.1C61.2034 154.296 61.1528 153.44 61.3119 152.612C61.4709 151.783 61.8347 151.007 62.37 150.355Z" fill="#455A64"/>
<path d="M186.074 214.711L191.888 212.48C191.888 212.48 193.479 207.405 194.528 205.92C195.578 204.435 201.194 199.868 201.524 199.749C201.854 199.63 205.544 191.354 207.227 191.618C208.91 191.882 210.065 193.07 209.596 195.314C209.128 197.558 205.399 202.039 206.428 202.778C207.259 203.288 208.18 203.634 209.141 203.795C209.141 203.795 209.603 201.214 211.015 200.383C212.428 199.551 214.045 200.93 214.045 200.93L214.084 202.046L215.483 200.765C215.483 200.765 216.955 195.584 219.179 195.611C219.702 194.485 220.45 193.479 221.377 192.654C221.616 192.474 221.894 192.352 222.188 192.298C222.483 192.244 222.785 192.26 223.073 192.344C223.36 192.428 223.623 192.578 223.842 192.782C224.061 192.986 224.23 193.238 224.334 193.519L220.341 205.26L209.339 217.378C209.339 217.378 204.184 219.358 202.871 219.965C201.557 220.572 195.611 224.704 192.971 225.588C190.331 226.472 187.262 227.812 187.262 227.812L186.074 214.711Z" fill="#FFBF9D"/>
<path d="M201.505 211.094C200.824 210.922 200.121 210.851 199.419 210.883C197.69 210.797 195.97 211.176 194.436 211.979C193.599 212.464 192.89 213.143 192.37 213.959C191.962 214.613 191.632 215.313 191.387 216.044C191.114 216.695 190.953 217.387 190.912 218.091C191.259 217.487 191.544 216.85 191.763 216.19C192.265 215.048 193.083 213.398 194.72 212.461C196.177 211.71 197.787 211.303 199.426 211.273C200.123 211.297 200.821 211.237 201.505 211.094Z" fill="#FF9A6C"/>
<path d="M206.58 203.075C206.666 202.957 206.065 202.415 205.128 202.132C204.191 201.848 203.392 201.973 203.399 202.132C203.405 202.29 204.118 202.422 204.97 202.679C205.821 202.937 206.501 203.214 206.58 203.075Z" fill="#FF9A6C"/>
<path d="M219.047 205.26C219.041 204.404 219.127 203.55 219.305 202.712C219.536 201.128 219.892 198.917 220.334 196.376L220.499 196.706C220.11 196.528 219.641 196.251 219.292 196.139C219.097 196.084 218.893 196.07 218.692 196.096C218.491 196.122 218.298 196.188 218.123 196.291C217.505 196.678 217.029 197.254 216.764 197.934C216.461 198.586 216.218 199.264 216.038 199.96C215.721 201.32 215.51 202.6 215.318 203.63C215.169 204.777 214.931 205.912 214.606 207.022C214.52 207.022 214.606 205.702 214.87 203.557C215.008 202.495 215.173 201.234 215.47 199.828C215.643 199.087 215.886 198.365 216.196 197.67C216.511 196.86 217.084 196.175 217.826 195.723C218.327 195.444 218.918 195.375 219.47 195.532C219.922 195.711 220.363 195.918 220.79 196.152L221.001 196.251L220.955 196.482C220.48 199.023 220.044 201.221 219.707 202.785C219.577 203.631 219.356 204.461 219.047 205.26Z" fill="#FF9A6C"/>
<path d="M204.6 215.285C204.6 215.285 204.6 215.107 204.653 214.784C204.764 214.329 204.921 213.887 205.121 213.464C205.872 211.925 206.846 210.506 208.012 209.253L207.946 209.359C208.712 207.108 208.019 203.848 210.058 200.937C210.316 200.629 210.641 200.384 211.008 200.22C211.375 200.056 211.775 199.979 212.177 199.993C212.916 200.031 213.629 200.28 214.229 200.713L214.375 200.812V200.99C213.965 204.29 213.589 207.134 213.292 209.154C213.227 209.969 212.974 210.757 212.553 211.457C212.269 211.946 212.065 212.17 212.032 212.117C212.116 211.843 212.229 211.577 212.368 211.325C212.703 210.614 212.888 209.841 212.909 209.055C213.094 207.029 213.391 204.178 213.761 200.891L213.886 201.175C213.38 200.828 212.789 200.628 212.177 200.594C211.868 200.584 211.561 200.645 211.28 200.772C210.998 200.899 210.75 201.088 210.553 201.326C210.088 201.905 209.763 202.582 209.603 203.306C209.409 204.015 209.255 204.733 209.141 205.458C209.022 206.177 208.989 206.837 208.903 207.55C208.815 208.208 208.672 208.857 208.474 209.491V209.55L208.435 209.596C207.272 210.784 206.265 212.115 205.438 213.556C204.805 214.619 204.673 215.305 204.6 215.285Z" fill="#FF9A6C"/>
<path d="M63.2016 178.735C63.558 178.233 65.8878 173.725 65.8878 173.725L79.1274 185.137C79.1274 185.137 92.103 196 92.103 195.301L94.1754 184.846L96.723 175.336L101.482 182.53C101.482 182.53 116.444 211.853 116.444 212.23C116.444 212.606 125.684 242.933 125.684 242.933L123.704 255.242L123.466 298.835L95.5812 297.66L90.0768 288.875L80.586 232.98L63.2016 178.735Z" fill="white"/>
<path d="M97.9968 290.182H127.71L132.416 310.154H86.724L97.9968 290.182Z" fill="#263238"/>
<path d="M97.0596 281.754C96.129 267.439 96.5184 240.425 91.0404 226.314C85.5624 212.203 63.558 177.619 63.558 177.619L58.1526 186.014L43.9956 191.327L63.2016 269.207C63.2016 269.207 55.8096 286.631 52.2852 296.809C51.2292 299.851 49.8102 305.012 48.2526 310.167H96.8682C97.2972 298.828 97.5018 288.519 97.0596 281.754Z" fill="#3EAFA9"/>
<path d="M190.146 210.428L152.671 231.257L126.72 194.198L126.496 193.901C123.539 189.988 120.635 185.684 115.856 184.609L115.13 184.444L116.516 228.802C116.516 228.802 134.996 249.157 145.339 257.572C148.421 260.08 156.235 258.515 159.958 256.456C174.867 248.226 200.343 227.126 200.343 227.126L190.146 210.428Z" fill="#3EAFA9"/>
<path d="M127.446 269.531C127.446 269.531 130.178 248.358 131.076 243.038C135.762 215.213 115.117 184.444 115.117 184.444L105.679 182.879L97.5348 176.161L101.132 186.206C101.132 186.206 112.959 219.285 115.309 229.858C117.658 240.431 118.833 272.917 119.196 272.131C119.414 271.676 120.833 291.753 122.621 310.154H142.652L127.446 269.531Z" fill="#3EAFA9"/>
<path d="M125.704 245.956C125.68 245.725 125.68 245.493 125.704 245.263C125.704 244.774 125.763 244.121 125.809 243.283C125.809 242.847 125.862 242.378 125.895 241.864C125.928 241.349 125.895 240.775 125.895 240.174C125.895 238.96 125.895 237.58 125.803 236.056C125.351 228.111 123.796 220.267 121.183 212.751C120.119 209.597 118.863 206.511 117.421 203.511C116.145 200.608 114.695 197.784 113.078 195.056C111.646 192.562 110.326 190.397 109.217 188.602L106.577 184.417C106.293 183.955 106.062 183.586 105.877 183.295C105.788 183.17 105.715 183.035 105.659 182.893C105.766 183.003 105.862 183.125 105.943 183.256C106.135 183.533 106.385 183.916 106.702 184.331C107.362 185.282 108.28 186.681 109.421 188.456C110.563 190.232 111.916 192.416 113.381 194.865C115.03 197.597 116.507 200.43 117.803 203.346C119.27 206.363 120.54 209.471 121.605 212.652C124.244 220.205 125.769 228.103 126.133 236.095C126.232 237.626 126.179 239.012 126.133 240.227C126.133 240.834 126.133 241.402 126.093 241.923C126.053 242.444 126.007 242.913 125.968 243.349C125.882 244.16 125.822 244.814 125.77 245.329C125.763 245.539 125.741 245.748 125.704 245.956Z" fill="#263238"/>
<path d="M91.8588 195.459C91.6737 195.405 91.4963 195.327 91.3308 195.228L89.9052 194.476L84.8628 191.684L85.1598 191.539C84.9156 193.802 84.4998 196.449 84.084 199.267C83.9124 200.416 83.754 201.531 83.622 202.607L83.5758 203.016L83.259 202.752C80.5662 200.455 78.2166 198.436 76.56 196.984L74.6196 195.254C74.3781 195.057 74.157 194.836 73.9596 194.594C74.2365 194.742 74.4937 194.924 74.7252 195.136L76.7514 196.759C78.4608 198.158 80.8434 200.132 83.556 202.409L83.1864 202.554C83.3118 201.472 83.4636 200.35 83.6352 199.201C84.051 196.376 84.4932 193.736 84.7704 191.492L84.81 191.189L85.0674 191.341L90.024 194.271L91.4034 195.122C91.74 195.32 91.872 195.439 91.8588 195.459Z" fill="#263238"/>
<path d="M99.561 182.53C99.6165 182.923 99.6298 183.321 99.6006 183.718C99.6006 184.576 99.6006 185.665 99.5412 186.965C99.4752 189.71 99.3432 193.492 99.1782 197.677C99.1782 197.776 99.1782 197.881 99.1782 197.98L99.1452 198.713L98.7558 198.092C96.8616 195.103 95.1258 192.364 93.7464 190.172L94.0632 190.133L92.6904 193.901C92.5406 194.375 92.3484 194.835 92.1162 195.274C92.2018 194.786 92.3321 194.307 92.5056 193.842C92.8224 192.845 93.2316 191.558 93.7266 190.021L93.8388 189.671L94.0434 189.981L99.1386 197.822L98.7228 197.934C98.7228 197.835 98.7228 197.729 98.7228 197.63C98.8878 193.453 99.066 189.664 99.2178 186.925C99.3036 185.605 99.3696 184.543 99.4224 183.685C99.4289 183.296 99.4754 182.909 99.561 182.53Z" fill="#263238"/>
<path d="M43.9956 191.327C42.8169 192.062 41.7118 192.908 40.6956 193.855C38.0921 196.359 36.1313 199.454 34.98 202.877C33.66 206.699 32.34 211.398 31.548 214.355L27.9708 268.706C27.6499 273.533 28.4308 278.369 30.2544 282.85L41.349 310.154H65.2806L52.3644 273.623L56.76 233.323L43.9956 191.327Z" fill="#3EAFA9"/>
<path d="M58.74 185.11L64.0002 200.897H69.6102L65.967 203.214L94.7496 258.212" fill="#3EAFA9"/>
<path d="M94.7496 258.212C94.7496 258.212 94.6968 258.152 94.6176 258.02L94.2876 257.44C93.9906 256.885 93.5748 256.12 93.0534 255.169L88.5852 246.787L73.9992 219.067L65.7822 203.313L65.6898 203.141L65.8548 203.036L69.498 200.726L69.6102 201.095H64.0002H63.8682L63.8286 200.97C62.2578 196.152 60.9708 192.205 60.06 189.427C59.6376 188.107 59.301 187.018 59.0568 186.252C58.9512 185.909 58.872 185.638 58.806 185.42C58.7698 185.327 58.7475 185.23 58.74 185.13C58.7863 185.217 58.826 185.308 58.8588 185.401C58.9314 185.612 59.0304 185.882 59.1558 186.219L60.258 189.361C61.1952 192.133 62.535 196.06 64.1718 200.858L64.0002 200.739H69.6102H70.2702L69.6894 201.109L66.0528 203.438L66.132 203.161C68.64 207.953 71.412 213.279 74.382 218.889C80.0184 229.726 85.1268 239.54 88.8492 246.682C90.6642 250.226 92.1492 253.103 93.1854 255.13L94.38 257.4L94.6704 258.007C94.702 258.073 94.7284 258.142 94.7496 258.212Z" fill="#263238"/>
<path d="M48.1206 199.023C51.6066 203.081 54.1188 207.882 55.4652 213.059C56.8115 218.236 56.9564 223.653 55.8888 228.895" fill="#3EAFA9"/>
<path d="M55.8888 228.895C55.7964 228.895 56.1858 227.119 56.3508 224.275C56.4427 222.592 56.4184 220.905 56.2782 219.226C56.0902 217.174 55.7438 215.139 55.242 213.14C54.7039 211.151 54.0155 209.205 53.1828 207.319C52.4997 205.777 51.7102 204.284 50.82 202.851C49.2756 200.422 48.0744 199.082 48.18 199.023C48.4981 199.299 48.7878 199.607 49.0446 199.94C49.3777 200.304 49.6905 200.685 49.9818 201.082C50.325 201.544 50.7408 202.059 51.1236 202.673C52.0697 204.091 52.9081 205.578 53.6316 207.121C54.498 209.019 55.2045 210.986 55.7436 213.002C56.2558 215.024 56.5958 217.086 56.76 219.166C56.8939 220.864 56.8939 222.57 56.76 224.268C56.727 224.994 56.6148 225.641 56.5422 226.215C56.4815 226.705 56.3956 227.192 56.2848 227.674C56.1891 228.092 56.0566 228.5 55.8888 228.895Z" fill="#263238"/>
<path d="M65.2806 310.154C65.2456 310.095 65.2168 310.033 65.1948 309.969C65.142 309.83 65.076 309.652 64.9836 309.428C64.7988 308.92 64.5414 308.213 64.2048 307.316C63.5448 305.455 62.5746 302.801 61.3932 299.528C59.0436 292.928 55.7964 283.793 52.1994 273.682V273.643V273.603C52.1994 273.326 52.2654 273.022 52.2984 272.712C53.5128 261.842 54.6084 252.001 55.407 244.853C55.8162 241.309 56.1528 238.432 56.3904 236.412C56.5092 235.435 56.6016 234.67 56.6742 234.122L56.7534 233.528C56.7589 233.458 56.7722 233.39 56.793 233.323C56.8036 233.391 56.8036 233.46 56.793 233.528C56.793 233.686 56.793 233.884 56.7468 234.128C56.694 234.676 56.6214 235.448 56.529 236.432C56.3178 238.451 56.0208 241.329 55.6512 244.88C54.879 252.034 53.8164 261.875 52.6482 272.752C52.6482 273.055 52.5756 273.359 52.5492 273.643V273.563L61.6506 299.449L64.3566 307.27C64.6668 308.18 64.9044 308.893 65.076 309.401L65.2542 309.962C65.27 310.025 65.2789 310.089 65.2806 310.154Z" fill="#263238"/>
<path d="M121.44 198.554C122.926 200.913 124.226 203.385 125.327 205.946C125.882 207.115 126.344 208.454 126.911 209.86C127.479 211.266 127.954 212.824 128.39 214.48C128.825 216.137 129.261 217.866 129.71 219.681C129.875 220.598 130.046 221.529 130.218 222.473C130.39 223.417 130.495 224.387 130.64 225.357C131.457 232.042 131.546 238.796 130.904 245.5C130.759 246.774 130.634 247.936 130.515 248.959C130.396 249.982 130.244 250.846 130.145 251.559L129.881 253.202C129.854 253.393 129.816 253.583 129.769 253.77C129.765 253.575 129.781 253.381 129.815 253.189C129.862 252.787 129.928 252.232 130.013 251.546C130.099 250.859 130.238 249.955 130.324 248.939C130.409 247.922 130.541 246.754 130.66 245.48C131.225 238.793 131.103 232.066 130.297 225.403C130.152 224.433 130.053 223.463 129.881 222.526C129.71 221.588 129.545 220.658 129.38 219.747C128.971 217.945 128.601 216.196 128.113 214.566C127.624 212.936 127.136 211.398 126.674 209.946C126.212 208.494 125.677 207.2 125.136 206.032L124.403 204.343C124.172 203.815 123.915 203.333 123.697 202.871C123.248 201.947 122.872 201.155 122.509 200.528C122.146 199.901 121.922 199.426 121.724 199.069C121.618 198.904 121.523 198.732 121.44 198.554Z" fill="#263238"/>
<path d="M153.041 242.821C152.743 242.314 152.521 241.767 152.381 241.197C151.512 238.461 151.384 235.544 152.011 232.742C152.109 232.16 152.291 231.595 152.552 231.066C152.605 231.066 152.427 231.726 152.249 232.789C151.763 235.563 151.89 238.41 152.618 241.131C152.856 242.174 153.12 242.801 153.041 242.821Z" fill="#263238"/>
<path d="M303.996 310.154C303.996 310.246 241.758 310.325 165.007 310.325C88.2552 310.325 26.004 310.246 26.004 310.154C26.004 310.061 88.2288 309.982 165.007 309.982C241.784 309.982 303.996 310.061 303.996 310.154Z" fill="#263238"/>
</svg>
