<svg width="385" height="385" viewBox="0 0 385 385" fill="none" xmlns="http://www.w3.org/2000/svg">
<path d="M326.819 101.771C327.221 101.827 327.611 101.95 327.974 102.133C328.826 102.549 329.54 103.201 330.03 104.012C330.52 104.824 330.766 105.759 330.738 106.707C330.715 107.6 330.448 108.471 329.968 109.225C329.713 109.635 329.396 110.004 329.029 110.318C328.649 110.641 328.22 110.901 327.758 111.088C326.789 111.51 325.712 111.618 324.678 111.396C323.636 111.16 322.697 110.596 321.999 109.787C321.674 109.408 321.414 108.979 321.229 108.516C321.029 108.077 320.902 107.609 320.851 107.13C320.74 106.242 320.87 105.34 321.229 104.52C321.605 103.65 322.226 102.908 323.016 102.384C323.806 101.861 324.731 101.578 325.679 101.571C326.086 101.557 326.492 101.611 326.88 101.732C326.88 101.771 326.449 101.648 325.687 101.678C324.602 101.725 323.563 102.135 322.738 102.841C322.171 103.321 321.725 103.928 321.437 104.612C321.11 105.398 320.995 106.256 321.105 107.099C321.162 107.552 321.286 107.993 321.475 108.408C321.665 108.848 321.925 109.253 322.245 109.61C322.901 110.383 323.79 110.924 324.778 111.15C325.762 111.367 326.789 111.268 327.712 110.865C328.153 110.677 328.559 110.417 328.913 110.095C329.265 109.802 329.567 109.453 329.806 109.063C330.273 108.351 330.539 107.526 330.576 106.676C330.612 105.763 330.388 104.859 329.93 104.068C329.472 103.278 328.799 102.633 327.989 102.21C327.25 101.879 326.811 101.809 326.819 101.771Z" fill="#E0E0E0"/>
<path d="M330.73 96.5503C330.727 96.4939 330.727 96.4373 330.73 96.3809C330.73 96.25 330.73 96.0806 330.73 95.8573C330.73 95.3799 330.73 94.6946 330.73 93.8014L330.769 93.8476L326.326 92.8774L326.403 92.8389L325.233 95.326V95.3722H325.179C324.195 95.415 323.221 95.5884 322.283 95.8881H322.23H322.191L320.166 93.94H320.32L316.47 96.3886V96.25L317.394 98.8372V98.8988L317.348 98.9527C316.684 99.6768 316.117 100.484 315.661 101.355V101.417H315.584H312.843L312.959 101.317C312.651 102.71 312.312 104.212 311.973 105.76L311.904 105.613L314.383 106.784H314.453V106.861C314.492 107.841 314.661 108.812 314.953 109.748V109.825L314.891 109.887L312.951 111.835V111.665L315.384 115.515L315.223 115.454L317.81 114.53H317.887L317.956 114.584C318.672 115.251 319.475 115.818 320.343 116.27C320.382 116.324 320.274 116.147 320.42 116.393V119.134L320.312 118.996L324.747 119.997L324.593 120.074C324.986 119.235 325.363 118.411 325.772 117.587L325.81 117.517H325.895C326.873 117.48 327.841 117.312 328.775 117.017H328.852L328.913 117.079L330.861 119.019H330.692L334.542 116.593L334.488 116.74L333.564 114.153V114.083L333.618 114.022C334.286 113.302 334.856 112.497 335.312 111.627V111.565H338.13L338.022 111.658C338.376 110.118 338.708 108.624 339.023 107.215L339.085 107.338L336.605 106.152H336.552V106.091C336.518 105.108 336.352 104.134 336.059 103.195V103.142V103.103C336.767 102.395 337.399 101.756 338.007 101.155V101.263L335.589 97.4127H335.666L333.071 98.3136C332.526 97.8087 331.936 97.355 331.308 96.9584L330.83 96.6735L330.676 96.5734L330.846 96.6504L331.331 96.9122C331.975 97.297 332.579 97.7458 333.133 98.252H333.087L335.666 97.3126H335.712V97.3588L338.161 101.209L338.199 101.27L338.153 101.317L336.305 103.18V103.088C336.61 104.043 336.784 105.035 336.821 106.037L336.767 105.952L339.254 107.122L339.331 107.161V107.246C339.023 108.647 338.692 110.118 338.346 111.681V111.773H335.489L335.597 111.712C335.131 112.602 334.551 113.428 333.872 114.168V114.037C334.172 114.884 334.488 115.746 334.796 116.624L334.834 116.724L334.742 116.778L330.892 119.219L330.8 119.273L330.723 119.196L328.79 117.279H328.929C327.971 117.583 326.976 117.756 325.972 117.795L326.087 117.718C325.702 118.534 325.317 119.365 324.909 120.197L324.863 120.297H324.755L320.32 119.35H320.212V116.493C320.358 116.74 320.251 116.563 320.289 116.617C319.399 116.154 318.576 115.574 317.841 114.892H317.979L315.392 115.808L315.284 115.847L315.23 115.754L312.797 111.904L312.735 111.812L312.812 111.735L314.753 109.787V109.925C314.452 108.967 314.278 107.972 314.237 106.968L314.314 107.084L311.85 105.867L311.758 105.821V105.721L312.759 101.286V101.186H315.6L315.492 101.247C315.96 100.361 316.543 99.5407 317.225 98.8064V98.9219L316.308 96.327V96.25L316.385 96.1961L320.235 93.7706H320.305L320.358 93.8245L322.307 95.7726H322.214C323.168 95.4743 324.157 95.3059 325.156 95.2721L325.086 95.3183C325.517 94.4251 325.918 93.5858 326.272 92.8389V92.785H326.326L330.753 93.8091H330.792C330.792 94.6946 330.792 95.3491 330.792 95.8496C330.792 96.0729 330.792 96.25 330.792 96.3732C330.775 96.4334 330.754 96.4925 330.73 96.5503Z" fill="#E0E0E0"/>
<path d="M357.634 318.357C357.634 318.357 357.634 318.064 357.634 317.517C357.634 316.97 357.634 316.147 357.634 315.084C357.634 312.951 357.634 309.817 357.596 305.798C357.596 297.767 357.557 286.178 357.534 271.964L357.657 272.087L277.477 272.126L277.647 271.964C277.647 288.38 277.647 304.065 277.647 318.357L277.493 318.202L335.166 318.272L351.728 318.318H356.148H357.28H357.673H356.171H351.79L335.258 318.364L277.508 318.433H277.362V318.287C277.362 303.996 277.362 288.311 277.362 271.895V271.81H277.531H357.711H357.842V271.941C357.842 286.194 357.796 297.798 357.78 305.821C357.78 309.833 357.78 312.951 357.78 315.061C357.78 316.108 357.78 316.917 357.78 317.463C357.78 318.01 357.634 318.357 357.634 318.357Z" fill="#E0E0E0"/>
<path d="M357.665 277.577C357.665 277.67 339.732 277.739 317.625 277.739C295.518 277.739 277.585 277.67 277.585 277.577C277.585 277.485 295.511 277.416 317.625 277.416C339.739 277.416 357.665 277.485 357.665 277.577Z" fill="#E0E0E0"/>
<path d="M309.163 285.231H284.392V310.002H309.163V285.231Z" fill="#F5F5F5"/>
<path d="M351.821 289.312C351.701 289.328 351.579 289.328 351.459 289.312H350.412L346.562 289.358L333.887 289.412L321.213 289.358L317.363 289.312H316.316C316.196 289.328 316.074 289.328 315.954 289.312C316.074 289.299 316.196 289.299 316.316 289.312H317.363L321.213 289.258L333.887 289.212L346.562 289.258L350.412 289.312H351.459C351.579 289.299 351.7 289.299 351.821 289.312Z" fill="#E0E0E0"/>
<path d="M352.614 294.848C352.491 294.862 352.367 294.862 352.244 294.848H351.174L347.247 294.902L334.295 294.948L321.336 294.902L317.409 294.848H316.339C316.216 294.862 316.092 294.862 315.969 294.848C316.09 294.819 316.215 294.806 316.339 294.81H317.409L321.336 294.764L334.295 294.71L347.247 294.764L351.174 294.81H352.244C352.369 294.806 352.493 294.819 352.614 294.848Z" fill="#E0E0E0"/>
<path d="M352.614 300.377C352.491 300.394 352.367 300.394 352.244 300.377H351.174L347.247 300.423L334.295 300.477L321.336 300.423L317.409 300.377H316.339C316.216 300.394 316.092 300.394 315.969 300.377C316.092 300.364 316.216 300.364 316.339 300.377H317.409L321.336 300.323L334.295 300.277L347.27 300.3L351.197 300.354H352.267C352.383 300.35 352.499 300.357 352.614 300.377Z" fill="#E0E0E0"/>
<path d="M352.614 305.913C352.491 305.927 352.367 305.927 352.244 305.913H351.174L347.247 305.967L334.295 306.013L321.336 305.967L317.409 305.913H316.339C316.216 305.927 316.092 305.927 315.969 305.913C316.09 305.884 316.215 305.871 316.339 305.875H317.409L321.336 305.829L334.295 305.775L347.247 305.829L351.174 305.875H352.244C352.369 305.871 352.493 305.884 352.614 305.913Z" fill="#E0E0E0"/>
<path d="M102.017 65.2652C100.829 65.4777 99.6192 65.55 98.4137 65.4808C97.2082 65.5495 95.9988 65.4772 94.8101 65.2652C95.9988 65.0532 97.2082 64.9809 98.4137 65.0496C99.6192 64.9804 100.829 65.0527 102.017 65.2652Z" fill="#E0E0E0"/>
<path d="M105.767 75.9836C104.954 76.9067 104.039 77.7358 103.041 78.4553C102.127 79.2771 101.122 79.9926 100.046 80.5882C100.855 79.6605 101.77 78.8309 102.772 78.1165C103.68 77.2869 104.686 76.5707 105.767 75.9836Z" fill="#E0E0E0"/>
<path d="M115 84.2688C114.462 85.3837 113.841 86.457 113.144 87.4797C112.566 88.5757 111.91 89.6282 111.18 90.629C111.532 89.4283 112.07 88.2902 112.774 87.2564C113.356 86.1509 114.107 85.143 115 84.2688Z" fill="#E0E0E0"/>
<path d="M125.687 94.9564C125.472 93.6851 125.4 92.3938 125.471 91.1064C125.4 89.819 125.472 88.5277 125.687 87.2564C125.902 88.5277 125.974 89.819 125.903 91.1064C125.974 92.3938 125.902 93.6851 125.687 94.9564Z" fill="#E0E0E0"/>
<path d="M142.142 89.8667C140.975 89.336 139.91 88.6065 138.993 87.7107C137.986 86.9222 137.119 85.9694 136.429 84.8925C137.423 85.6715 138.374 86.5043 139.278 87.3873C140.276 88.1619 141.232 88.9896 142.142 89.8667Z" fill="#E0E0E0"/>
<path d="M149.865 81.5507C148.93 80.9218 148.079 80.1766 147.332 79.3331C146.488 78.586 145.743 77.7348 145.114 76.7998C146.047 77.4321 146.895 78.1798 147.64 79.0251C148.485 79.7698 149.233 80.6184 149.865 81.5507Z" fill="#E0E0E0"/>
<path d="M105.413 55.0011C104.579 54.4716 103.827 53.8231 103.18 53.0761C102.433 52.4295 101.784 51.6772 101.255 50.8431C102.089 51.3726 102.841 52.0211 103.488 52.7681C104.235 53.4147 104.884 54.167 105.413 55.0011Z" fill="#E0E0E0"/>
<path d="M114.946 44.9603C114.126 44.4597 113.387 43.8394 112.751 43.12C112.02 42.4785 111.389 41.731 110.88 40.9024C111.699 41.4161 112.436 42.0494 113.067 42.7812C113.798 43.4096 114.432 44.1441 114.946 44.9603Z" fill="#E0E0E0"/>
<path d="M49.049 125.187H106.029C106.029 125.187 100.993 116.024 86.3324 117.356C72.3338 118.634 71.6177 112.851 64.4952 112.135C57.3727 111.419 51.4206 116.886 49.049 125.187Z" fill="#F5F5F5"/>
<path d="M172.326 228.744H218.426C218.426 228.744 214.353 221.329 202.487 222.407C191.152 223.439 190.575 218.757 184.777 218.179C178.979 217.602 174.243 222.022 172.326 228.744Z" fill="#F5F5F5"/>
<path d="M369.715 342.511C369.715 342.619 290.405 342.712 192.508 342.712C94.6099 342.712 15.2845 342.65 15.2845 342.511C15.2845 342.373 94.5945 342.311 192.508 342.311C290.421 342.311 369.715 342.404 369.715 342.511Z" fill="#263238"/>
<path d="M350.496 111.75H238.631V186.656H350.496V111.75Z" fill="white"/>
<path d="M350.496 186.648C350.496 186.648 350.496 186.178 350.496 185.285V181.335C350.496 177.87 350.496 172.78 350.45 166.274C350.45 153.253 350.404 134.55 350.365 111.75L350.527 111.904L238.669 111.95L238.869 111.75C238.869 138.431 238.869 163.802 238.869 186.648L238.685 186.463L319.281 186.556L342.304 186.602H348.425H350.011H348.471H342.381L319.396 186.648L238.685 186.74H238.5V186.556C238.5 163.71 238.5 138.338 238.5 111.658V111.45H238.708L350.566 111.496H350.727V111.658C350.727 134.504 350.666 153.238 350.643 166.274C350.643 172.773 350.643 177.824 350.604 181.304C350.604 183.021 350.604 184.338 350.604 185.231C350.604 186.124 350.496 186.648 350.496 186.648Z" fill="#2C2C2C"/>
<path d="M238.631 118.434C238.631 118.318 263.656 118.234 294.517 118.234C325.379 118.234 350.404 118.318 350.404 118.434C350.404 118.549 325.387 118.634 294.517 118.634C263.648 118.634 238.631 118.58 238.631 118.434Z" fill="#2C2C2C"/>
<g opacity="0.3">
<path d="M243.043 115.061C243.043 115.24 242.99 115.414 242.89 115.562C242.791 115.711 242.65 115.826 242.485 115.894C242.32 115.962 242.138 115.979 241.963 115.944C241.788 115.909 241.628 115.822 241.502 115.695C241.376 115.569 241.291 115.407 241.257 115.232C241.224 115.057 241.242 114.875 241.312 114.711C241.381 114.546 241.498 114.406 241.647 114.308C241.796 114.21 241.971 114.159 242.15 114.16C242.268 114.16 242.384 114.184 242.493 114.229C242.602 114.274 242.701 114.341 242.784 114.425C242.867 114.508 242.933 114.608 242.977 114.717C243.021 114.826 243.044 114.943 243.043 115.061Z" fill="#2C2C2C"/>
</g>
<g opacity="0.3">
<path d="M246.115 115.061C246.115 115.24 246.062 115.414 245.963 115.562C245.863 115.711 245.722 115.826 245.557 115.894C245.392 115.962 245.211 115.979 245.036 115.944C244.861 115.909 244.7 115.822 244.574 115.695C244.449 115.569 244.364 115.407 244.33 115.232C244.296 115.057 244.315 114.875 244.384 114.711C244.453 114.546 244.57 114.406 244.719 114.308C244.868 114.21 245.043 114.159 245.222 114.16C245.34 114.16 245.457 114.184 245.565 114.229C245.674 114.274 245.773 114.341 245.856 114.425C245.939 114.508 246.005 114.608 246.049 114.717C246.094 114.826 246.116 114.943 246.115 115.061Z" fill="#2C2C2C"/>
</g>
<g opacity="0.3">
<path d="M249.141 115.061C249.141 115.24 249.088 115.414 248.989 115.562C248.889 115.711 248.748 115.826 248.583 115.894C248.418 115.962 248.237 115.979 248.062 115.944C247.887 115.909 247.726 115.822 247.601 115.695C247.475 115.569 247.39 115.407 247.356 115.232C247.322 115.057 247.341 114.875 247.41 114.711C247.48 114.546 247.596 114.406 247.745 114.308C247.895 114.21 248.07 114.159 248.248 114.16C248.366 114.16 248.483 114.184 248.592 114.229C248.7 114.274 248.799 114.341 248.882 114.425C248.965 114.508 249.031 114.608 249.075 114.717C249.12 114.826 249.142 114.943 249.141 115.061Z" fill="#2C2C2C"/>
</g>
<path d="M278.085 126.241H248.248V156.079H278.085V126.241Z" fill="#2C2C2C"/>
<path d="M335.158 134.673C335.158 134.788 323.515 134.873 309.163 134.873C294.81 134.873 283.167 134.788 283.167 134.673C283.167 134.557 294.81 134.473 309.163 134.473C323.515 134.473 335.158 134.565 335.158 134.673Z" fill="#2C2C2C"/>
<path d="M335.158 140.225C335.158 140.333 323.515 140.425 309.163 140.425C294.81 140.425 283.167 140.333 283.167 140.225C283.167 140.117 294.81 140.025 309.163 140.025C323.515 140.025 335.158 140.14 335.158 140.225Z" fill="#2C2C2C"/>
<path d="M335.158 145.769C335.158 145.877 323.515 145.969 309.163 145.969C294.81 145.969 283.167 145.877 283.167 145.769C283.167 145.661 294.81 145.569 309.163 145.569C323.515 145.569 335.158 145.653 335.158 145.769Z" fill="#2C2C2C"/>
<path d="M313.898 151.313C313.498 151.375 313.094 151.401 312.689 151.39L309.394 151.451C306.614 151.49 302.772 151.513 298.537 151.513C294.302 151.513 290.452 151.513 287.672 151.451L284.376 151.39C283.972 151.401 283.567 151.375 283.167 151.313C283.567 151.25 283.972 151.224 284.376 151.236L287.672 151.174C290.452 151.136 294.294 151.112 298.537 151.112C302.779 151.112 306.614 151.113 309.394 151.174L312.689 151.236C313.094 151.224 313.498 151.25 313.898 151.313Z" fill="#2C2C2C"/>
<g opacity="0.3">
<path d="M264.133 166.143H250.111V180.165H264.133V166.143Z" fill="#2C2C2C"/>
</g>
<path d="M289.566 166.143H275.544V180.165H289.566V166.143Z" fill="#2C2C2C"/>
<path d="M314.999 166.143H300.978V180.165H314.999V166.143Z" fill="#2C2C2C"/>
<path d="M340.432 166.143H326.411V180.165H340.432V166.143Z" fill="#2C2C2C"/>
<g opacity="0.3">
<path d="M278.085 126.241H248.248V156.079H278.085V126.241Z" fill="white"/>
</g>
<g opacity="0.3">
<path d="M289.566 166.143H275.544V180.165H289.566V166.143Z" fill="white"/>
</g>
<g opacity="0.3">
<path d="M314.999 166.143H300.978V180.165H314.999V166.143Z" fill="white"/>
</g>
<g opacity="0.3">
<path d="M340.432 166.143H326.411V180.165H340.432V166.143Z" fill="white"/>
</g>
<path d="M133.695 138.731H34.0417V179.21H133.695V138.731Z" fill="white"/>
<path d="M133.695 179.21C133.695 179.21 133.695 178.963 133.695 178.486C133.695 178.009 133.695 177.308 133.695 176.384C133.695 174.536 133.695 171.826 133.695 168.33C133.695 161.346 133.695 151.236 133.634 138.731L133.741 138.839L34.0956 138.885L34.2573 138.731C34.2573 152.907 34.2573 166.59 34.2573 179.21L34.1033 179.056L105.552 179.125L126.28 179.171H131.832H133.264H131.863H126.349L105.659 179.21L34.1033 179.279H33.88V138.6H34.0417L133.687 138.654H133.803V138.762C133.803 151.297 133.757 161.423 133.741 168.43C133.741 171.91 133.741 174.59 133.741 176.461C133.741 177.37 133.741 178.062 133.741 178.54C133.741 179.017 133.695 179.21 133.695 179.21Z" fill="#2C2C2C"/>
<path d="M34.1418 144.19C34.1418 144.105 56.4179 144.028 83.8838 144.028C111.35 144.028 133.641 144.105 133.641 144.19C133.641 144.275 111.365 144.344 83.8838 144.344C56.4025 144.344 34.1418 144.275 34.1418 144.19Z" fill="#2C2C2C"/>
<g opacity="0.3">
<path d="M38.3152 141.749C38.3152 141.892 38.2728 142.032 38.1932 142.151C38.1137 142.27 38.0007 142.363 37.8684 142.418C37.7361 142.473 37.5906 142.487 37.4502 142.459C37.3098 142.431 37.1808 142.362 37.0796 142.261C36.9784 142.16 36.9095 142.031 36.8815 141.891C36.8536 141.75 36.8679 141.605 36.9227 141.472C36.9775 141.34 37.0703 141.227 37.1893 141.147C37.3083 141.068 37.4483 141.025 37.5914 141.025C37.7834 141.025 37.9675 141.102 38.1032 141.237C38.239 141.373 38.3152 141.557 38.3152 141.749Z" fill="#2C2C2C"/>
</g>
<g opacity="0.3">
<path d="M40.81 141.749C40.81 141.892 40.7676 142.032 40.688 142.151C40.6085 142.27 40.4955 142.363 40.3632 142.418C40.231 142.473 40.0854 142.487 39.945 142.459C39.8046 142.431 39.6756 142.362 39.5744 142.261C39.4732 142.16 39.4043 142.031 39.3763 141.891C39.3484 141.75 39.3627 141.605 39.4175 141.472C39.4723 141.34 39.5651 141.227 39.6841 141.147C39.8031 141.068 39.9431 141.025 40.0862 141.025C40.2782 141.025 40.4623 141.102 40.598 141.237C40.7338 141.373 40.81 141.557 40.81 141.749Z" fill="#2C2C2C"/>
</g>
<g opacity="0.3">
<path d="M43.2355 141.749C43.2355 141.892 43.1931 142.032 43.1135 142.151C43.034 142.27 42.9209 142.363 42.7887 142.418C42.6564 142.473 42.5109 142.487 42.3705 142.459C42.2301 142.431 42.1011 142.362 41.9999 142.261C41.8987 142.16 41.8297 142.031 41.8018 141.891C41.7739 141.75 41.7882 141.605 41.843 141.472C41.8978 141.34 41.9906 141.227 42.1096 141.147C42.2286 141.068 42.3685 141.025 42.5117 141.025C42.7037 141.025 42.8878 141.102 43.0235 141.237C43.1592 141.373 43.2355 141.557 43.2355 141.749Z" fill="#2C2C2C"/>
</g>
<path d="M66.5819 150.766H42.5117V174.836H66.5819V150.766Z" fill="#2C2C2C"/>
<path d="M126.804 157.219C126.804 157.303 114.414 157.38 99.1375 157.38C83.8607 157.38 71.4714 157.303 71.4714 157.219C71.4714 157.134 83.8607 157.065 99.1375 157.065C114.414 157.065 126.804 157.134 126.804 157.219Z" fill="#2C2C2C"/>
<path d="M126.804 162.124C126.804 162.208 114.414 162.277 99.1375 162.277C83.8607 162.277 71.4714 162.208 71.4714 162.124C71.4714 162.039 83.8607 161.962 99.1375 161.962C114.414 161.962 126.804 162.039 126.804 162.124Z" fill="#2C2C2C"/>
<path d="M107.092 167.028C106.971 167.037 106.85 167.037 106.73 167.028H105.69L101.879 167.075L89.2815 167.121L76.692 167.075L72.842 167.028H71.8025C71.682 167.036 71.5611 167.036 71.4406 167.028C71.5606 167.011 71.6825 167.011 71.8025 167.028H72.842L76.692 166.975L89.2815 166.928L101.879 166.975L105.69 167.028H106.73C106.85 167.01 106.972 167.01 107.092 167.028Z" fill="#2C2C2C"/>
<g opacity="0.3">
<path d="M66.5819 150.766H42.5117V174.836H66.5819V150.766Z" fill="#F5F5F5"/>
</g>
<path d="M206.922 87.8647C205.251 86.7482 202.957 87.4258 201.286 88.5423C199.615 89.6588 198.206 91.1834 196.319 91.9072C192.808 93.2701 188.196 91.6531 185.47 94.2172C183.737 95.865 183.56 98.5754 182.236 100.57C180.003 103.927 174.644 105.19 174.189 109.194C173.92 111.504 175.768 113.768 178.039 114.422C179.187 114.691 180.379 114.711 181.534 114.48C182.69 114.249 183.783 113.772 184.738 113.082C187.048 111.542 188.827 109.232 191.43 108.354C194.032 107.477 197.382 108.208 199.484 106.352C201.586 104.497 201.27 101.07 202.779 98.6986C203.687 97.5066 204.763 96.4535 205.975 95.5724C207.107 94.5945 208.185 93.3856 208.377 91.8995C208.57 90.4134 207.962 87.8801 206.937 87.8262" fill="#F5F5F5"/>
<path d="M163.533 251.451C163.633 251.397 163.941 251.705 164.233 252.144C164.526 252.583 164.688 252.999 164.595 253.061C164.503 253.122 164.195 252.814 163.895 252.368C163.594 251.921 163.44 251.513 163.533 251.451Z" fill="#263238"/>
<path d="M160.237 244.506C160.652 245.009 160.964 245.59 161.153 246.215C161.457 246.791 161.643 247.422 161.7 248.071C160.972 246.996 160.474 245.782 160.237 244.506Z" fill="#263238"/>
<path d="M158.451 237.021C158.944 238.222 159.183 239.512 159.151 240.81C158.844 240.235 158.658 239.604 158.605 238.954C158.424 238.327 158.372 237.669 158.451 237.021Z" fill="#263238"/>
<path d="M158.181 229.329C158.425 230.603 158.407 231.913 158.127 233.179C157.932 232.557 157.871 231.901 157.95 231.254C157.89 230.603 157.969 229.947 158.181 229.329Z" fill="#263238"/>
<path d="M159.39 221.76C159.452 222.409 159.381 223.064 159.182 223.685C159.105 224.332 158.901 224.958 158.581 225.525C158.52 224.876 158.59 224.221 158.789 223.6C158.868 222.954 159.072 222.328 159.39 221.76Z" fill="#263238"/>
<path d="M162.193 214.56C161.936 215.827 161.411 217.025 160.653 218.072C160.73 217.424 160.937 216.798 161.261 216.231C161.7 215.254 162.093 214.507 162.193 214.56Z" fill="#263238"/>
<path d="M166.435 208.139C166.222 208.756 165.887 209.324 165.45 209.81C165.103 210.36 164.663 210.844 164.149 211.242C164.041 211.172 164.487 210.426 165.126 209.571C165.766 208.716 166.32 208.069 166.435 208.139Z" fill="#263238"/>
<path d="M171.61 202.441C171.695 202.518 171.163 203.211 170.432 203.981C169.7 204.751 169.038 205.305 168.953 205.236C168.869 205.167 169.4 204.466 170.139 203.696C170.878 202.926 171.533 202.356 171.61 202.441Z" fill="#263238"/>
<path d="M177.031 196.958C177.115 197.035 176.569 197.728 175.822 198.498C175.075 199.268 174.405 199.807 174.328 199.73C174.251 199.653 174.79 198.96 175.537 198.19C176.284 197.42 176.954 196.881 177.031 196.958Z" fill="#263238"/>
<path d="M182.097 191.153C181.853 191.758 181.489 192.308 181.027 192.77C180.349 193.601 179.733 194.209 179.649 194.132C179.9 193.53 180.263 192.982 180.719 192.515C181.389 191.73 182.005 191.091 182.097 191.153Z" fill="#263238"/>
<path d="M186.024 184.546C185.955 185.199 185.734 185.827 185.377 186.378C185.133 186.989 184.751 187.534 184.261 187.972C184.41 187.339 184.671 186.736 185.031 186.194C185.267 185.592 185.602 185.035 186.024 184.546Z" fill="#263238"/>
<path d="M187.88 177.1C188.03 177.74 188.017 178.407 187.841 179.04C187.797 179.698 187.594 180.335 187.249 180.896C187.209 180.25 187.277 179.602 187.449 178.979C187.49 178.333 187.636 177.699 187.88 177.1Z" fill="#263238"/>
<path d="M187.326 169.454C187.667 170.015 187.863 170.653 187.895 171.31C188.054 171.949 188.054 172.618 187.895 173.258C187.653 172.656 187.512 172.019 187.48 171.371C187.325 170.745 187.273 170.097 187.326 169.454Z" fill="#263238"/>
<path d="M184.299 162.408C184.392 162.347 184.954 163.017 185.462 163.948C185.829 164.496 186.056 165.125 186.124 165.781C185.7 165.292 185.357 164.738 185.108 164.141C184.752 163.608 184.479 163.024 184.299 162.408Z" fill="#263238"/>
<path d="M178.933 156.941C179.56 157.138 180.131 157.484 180.596 157.95C181.42 158.643 181.959 159.336 181.882 159.413C181.805 159.49 181.112 158.936 180.342 158.258C179.572 157.58 178.863 157.034 178.933 156.941Z" fill="#263238"/>
<path d="M171.933 153.815C172.589 153.775 173.245 153.897 173.843 154.169C174.486 154.318 175.081 154.625 175.575 155.063C174.931 154.99 174.302 154.816 173.712 154.547C173.082 154.406 172.48 154.158 171.933 153.815Z" fill="#263238"/>
<path d="M164.279 153.469C164.869 153.175 165.524 153.037 166.181 153.068C166.835 152.972 167.502 153.041 168.122 153.268C167.496 153.431 166.85 153.499 166.204 153.469C165.567 153.57 164.917 153.57 164.279 153.469Z" fill="#263238"/>
<path d="M157.18 156.31C157.111 156.218 157.773 155.64 158.72 155.132C159.265 154.758 159.901 154.537 160.56 154.493C160.059 154.899 159.501 155.231 158.905 155.478C158.375 155.84 157.793 156.12 157.18 156.31Z" fill="#263238"/>
<path d="M151.89 161.839C152.058 161.201 152.383 160.615 152.837 160.137C153.492 159.282 154.169 158.72 154.246 158.797C154.323 158.874 153.792 159.567 153.153 160.383C152.514 161.199 151.983 161.892 151.89 161.839Z" fill="#263238"/>
<path d="M149.295 169.03C149.174 168.382 149.225 167.713 149.442 167.09C149.539 166.433 149.804 165.812 150.212 165.288C150.188 165.934 150.066 166.573 149.85 167.182C149.761 167.823 149.574 168.447 149.295 169.03Z" fill="#263238"/>
<path d="M150.212 176.615C149.804 176.091 149.539 175.47 149.442 174.813C149.22 174.191 149.167 173.522 149.288 172.873C149.555 173.46 149.739 174.082 149.834 174.721C150.051 175.331 150.178 175.969 150.212 176.615Z" fill="#263238"/>
<path d="M154.115 183.206C154.031 183.283 153.392 182.682 152.768 181.805C152.332 181.311 152.023 180.719 151.867 180.08C151.967 180.026 152.475 180.719 153.091 181.574C153.519 182.058 153.865 182.61 154.115 183.206Z" fill="#263238"/>
<path d="M159.783 188.404C159.161 188.195 158.595 187.847 158.127 187.387C157.288 186.717 156.71 186.063 156.787 185.978C157.375 186.252 157.912 186.624 158.374 187.079C159.197 187.741 159.852 188.311 159.783 188.404Z" fill="#263238"/>
<path d="M166.459 192.23C165.204 191.896 164.034 191.3 163.024 190.483C163.667 190.593 164.282 190.829 164.834 191.176C165.441 191.414 165.994 191.773 166.459 192.23Z" fill="#263238"/>
<path d="M173.789 194.564C173.136 194.638 172.474 194.559 171.856 194.333C171.206 194.236 170.588 193.985 170.055 193.601C170.703 193.611 171.346 193.728 171.956 193.948C172.599 194.043 173.219 194.251 173.789 194.564Z" fill="#263238"/>
<path d="M181.458 194.956C180.207 195.341 178.874 195.367 177.608 195.033C178.233 194.868 178.881 194.81 179.526 194.864C180.17 194.787 180.824 194.819 181.458 194.956Z" fill="#263238"/>
<path d="M188.866 192.977C187.807 193.746 186.552 194.198 185.247 194.279C185.789 193.924 186.388 193.664 187.018 193.509C187.599 193.227 188.224 193.048 188.866 192.977Z" fill="#263238"/>
<path d="M195.287 188.766C195.364 188.85 194.779 189.536 193.924 190.152C193.446 190.601 192.868 190.93 192.238 191.114C192.177 191.014 192.846 190.483 193.686 189.836C194.159 189.396 194.7 189.035 195.287 188.766Z" fill="#263238"/>
<path d="M200.3 182.944C200.122 183.576 199.797 184.156 199.353 184.638C198.714 185.501 198.075 186.094 197.99 186.024C197.905 185.955 198.406 185.254 199.037 184.4C199.669 183.545 200.2 182.883 200.3 182.944Z" fill="#263238"/>
<path d="M203.634 176.014C203.632 176.672 203.471 177.319 203.164 177.901C202.764 178.902 202.294 179.641 202.194 179.587C202.287 178.947 202.488 178.328 202.787 177.755C202.972 177.132 203.258 176.544 203.634 176.014Z" fill="#263238"/>
<path d="M205.128 168.476C205.295 169.77 205.114 171.086 204.604 172.287C204.583 170.998 204.76 169.712 205.128 168.476Z" fill="#263238"/>
<path d="M204.928 160.784C205.179 161.386 205.299 162.034 205.282 162.686C205.392 163.33 205.374 163.989 205.228 164.626C204.867 163.377 204.764 162.066 204.928 160.776V160.784Z" fill="#263238"/>
<path d="M203.28 153.269C203.637 153.816 203.875 154.433 203.981 155.078C204.212 155.687 204.317 156.337 204.289 156.988C203.935 156.438 203.697 155.822 203.588 155.178C203.356 154.569 203.251 153.919 203.28 153.269Z" fill="#263238"/>
<path d="M200.308 146.154C200.408 146.1 200.87 146.839 201.332 147.801C201.658 148.369 201.862 148.999 201.932 149.649C201.195 148.586 200.645 147.403 200.308 146.154Z" fill="#263238"/>
<path d="M196.519 139.447C196.62 139.385 197.128 140.086 197.667 140.987C198.041 141.516 198.303 142.116 198.437 142.75C197.957 142.317 197.568 141.794 197.289 141.21C196.921 140.678 196.66 140.079 196.519 139.447Z" fill="#263238"/>
<path d="M192.7 132.756C192.8 132.702 193.293 133.418 193.809 134.342C194.181 134.881 194.443 135.488 194.579 136.128C194.108 135.676 193.731 135.134 193.47 134.534C193.094 134.001 192.831 133.395 192.7 132.756Z" fill="#263238"/>
<path d="M189.69 125.672C190.387 126.768 190.846 127.998 191.037 129.283C190.629 128.771 190.336 128.177 190.175 127.543C189.887 126.959 189.722 126.322 189.69 125.672Z" fill="#263238"/>
<path d="M188.38 118.103C188.607 118.711 188.722 119.355 188.719 120.005C188.853 120.637 188.877 121.289 188.789 121.93C188.485 121.347 188.327 120.7 188.327 120.043C188.193 119.401 188.212 118.736 188.38 118.103Z" fill="#263238"/>
<path d="M189.02 110.441C189.081 111.086 189.034 111.737 188.881 112.366C188.854 113.015 188.71 113.654 188.458 114.253C188.308 113.612 188.308 112.945 188.458 112.304C188.495 111.648 188.688 111.009 189.02 110.441Z" fill="#263238"/>
<path d="M191.53 103.18C191.432 103.822 191.223 104.442 190.914 105.013C190.723 105.632 190.429 106.215 190.044 106.737C190.207 105.439 190.721 104.209 191.53 103.18Z" fill="#263238"/>
<path d="M195.819 96.7967C195.903 96.8737 195.395 97.5667 194.748 98.406C194.102 99.2453 193.555 99.946 193.462 99.8459C193.645 99.2138 193.978 98.6353 194.433 98.1596C195.087 97.3126 195.742 96.7274 195.819 96.7967Z" fill="#263238"/>
<path d="M201.601 91.7301C201.663 91.8225 200.993 92.3692 200.162 93.016C199.689 93.4612 199.145 93.8231 198.552 94.0863C198.475 94.0016 199.068 93.3163 199.915 92.7003C200.393 92.249 200.971 91.9167 201.601 91.7301Z" fill="#263238"/>
<path d="M208.454 88.2497C207.936 88.6392 207.355 88.9385 206.737 89.1352C206.173 89.4523 205.558 89.6686 204.92 89.7743C204.866 89.6742 205.598 89.1968 206.583 88.7733C207.155 88.4492 207.797 88.2695 208.454 88.2497Z" fill="#263238"/>
<path d="M214.06 86.8329C214.06 86.9407 213.667 87.1101 213.151 87.2025C212.635 87.2949 212.189 87.2949 212.166 87.2025C212.143 87.1101 212.551 86.9253 213.074 86.8252C213.598 86.7251 214.06 86.7251 214.06 86.8329Z" fill="#263238"/>
<path d="M229.753 64.1641C229.753 64.1641 238.792 57.7115 251.313 61.8541C251.313 61.8541 252.337 72.2183 242.304 80.4573" fill="#3EAFA9"/>
<path d="M201.24 83.3063C201.625 83.8838 211.442 99.6611 211.442 99.6611L240.91 81.5045C242.126 80.7549 243.174 79.7609 243.986 78.5854C244.798 77.4099 245.357 76.0786 245.628 74.6758C245.898 73.2729 245.875 71.8291 245.558 70.4359C245.242 69.0426 244.64 67.7303 243.79 66.5819C242.21 64.4504 239.87 63.0097 237.256 62.5594C234.641 62.1091 231.954 62.6838 229.753 64.1641L201.24 83.3063Z" fill="#3EAFA9"/>
<path d="M211.442 99.6611L210.78 110.765C210.78 110.765 229.876 101.524 225.109 91.2373L211.442 99.6611Z" fill="#263238"/>
<path d="M214.892 74.1433C214.892 74.1433 201.94 68.4299 191.283 76.8075L201.239 83.3063L214.892 74.1433Z" fill="#263238"/>
<path d="M214.83 83.314L196.404 94.864C196.404 94.864 197.035 96.8506 197.528 96.6812C198.021 96.5118 211.796 88.3652 216.285 85.7087C216.457 85.6066 216.604 85.4686 216.718 85.3042C216.831 85.1398 216.907 84.9529 216.942 84.7562C216.976 84.5595 216.968 84.3576 216.917 84.1646C216.866 83.9715 216.774 83.7916 216.647 83.6374C216.436 83.3712 216.134 83.1913 215.8 83.1318C215.465 83.0722 215.12 83.137 214.83 83.314Z" fill="#263238"/>
<path d="M237.524 75.9274C238.27 72.7565 236.304 69.5812 233.133 68.8351C229.962 68.0891 226.787 70.0548 226.041 73.2257C225.295 76.3966 227.261 79.5719 230.432 80.318C233.602 81.064 236.778 79.0983 237.524 75.9274Z" fill="#FAFAFA"/>
<path d="M237.676 74.5745C237.63 74.5745 237.676 74.0509 237.414 73.1577C237.07 71.8932 236.311 70.7812 235.258 70.0007C234.543 69.4642 233.712 69.1029 232.833 68.9458C231.826 68.7664 230.79 68.8567 229.83 69.2076C228.756 69.5876 227.822 70.2827 227.15 71.2019C226.43 72.1788 226.041 73.3607 226.041 74.5745C226.041 75.7883 226.43 76.9702 227.15 77.9471C227.816 78.8616 228.737 79.5583 229.799 79.9491C230.759 80.2996 231.795 80.3899 232.802 80.2109C233.682 80.0538 234.512 79.6925 235.227 79.156C236.278 78.3739 237.037 77.2625 237.383 75.999C237.622 75.1058 237.599 74.5745 237.645 74.5745C237.665 74.702 237.665 74.8319 237.645 74.9595C237.643 75.3226 237.599 75.6843 237.514 76.0375C237.253 77.1587 236.673 78.1803 235.844 78.9784C235.014 79.7766 233.971 80.317 232.84 80.5343C231.715 80.7545 230.551 80.6499 229.483 80.2326C228.416 79.8154 227.489 79.1027 226.811 78.1781C226.036 77.1365 225.618 75.8728 225.618 74.5745C225.618 73.2762 226.036 72.0125 226.811 70.9709C227.524 69.9972 228.514 69.2618 229.652 68.8611C230.607 68.5154 231.633 68.4181 232.635 68.5784C233.638 68.7387 234.582 69.1513 235.381 69.7774C236.484 70.6095 237.258 71.8037 237.568 73.15C237.653 73.5031 237.697 73.8648 237.699 74.228C237.709 74.344 237.701 74.4608 237.676 74.5745Z" fill="#263238"/>
<path d="M244.86 78.54C244.783 78.54 244.698 77.3927 244.244 75.5986C243.975 74.5492 243.633 73.52 243.22 72.5186C242.194 70.0741 240.745 67.8298 238.939 65.8889C238.199 65.0993 237.404 64.3633 236.559 63.6867C235.104 62.5394 234.095 61.985 234.134 61.9157C234.391 62.0018 234.636 62.1181 234.865 62.2622C235.148 62.4091 235.424 62.571 235.689 62.7473C235.997 62.9552 236.359 63.1708 236.729 63.4634C237.614 64.1147 238.441 64.8412 239.2 65.6348C241.082 67.5755 242.563 69.8674 243.559 72.38C243.966 73.4014 244.288 74.4548 244.521 75.5293C244.637 75.9836 244.683 76.4071 244.744 76.7767C244.796 77.0903 244.829 77.4065 244.845 77.7238C244.889 77.9937 244.894 78.2686 244.86 78.54Z" fill="#263238"/>
<path d="M243.274 79.3562C243.197 79.3562 243.104 78.1935 242.642 76.3686C242.368 75.3038 242.021 74.2593 241.603 73.2424C241.078 72.0023 240.452 70.8074 239.732 69.6696C238.998 68.5423 238.174 67.4762 237.268 66.4818C236.517 65.6728 235.709 64.9188 234.85 64.2257C233.379 63.0476 232.355 62.4778 232.394 62.4085C232.664 62.497 232.923 62.6186 233.164 62.7704C233.448 62.9203 233.723 63.0874 233.988 63.2709C234.303 63.4788 234.673 63.7098 235.042 64.0409C235.93 64.7009 236.764 65.4295 237.537 66.22C238.476 67.2176 239.324 68.2974 240.071 69.4463C240.8 70.6059 241.426 71.8272 241.942 73.0961C242.354 74.1356 242.681 75.2068 242.92 76.2993C243.035 76.7613 243.081 77.1925 243.143 77.5621C243.2 77.8803 243.236 78.2018 243.251 78.5246C243.289 78.8001 243.297 79.079 243.274 79.3562Z" fill="#263238"/>
<path d="M315.269 221.575H309.902V238.916H315.269V221.575Z" fill="#555656"/>
<path d="M325.148 214.437H319.781V238.908H325.148V214.437Z" fill="#555656"/>
<path d="M335.658 211.103H330.292V238.908H335.658V211.103Z" fill="#555656"/>
<path d="M346.177 207.592H340.81V238.916H346.177V207.592Z" fill="#555656"/>
<path d="M128.99 244.09C129.393 244.146 129.783 244.269 130.145 244.452C130.997 244.868 131.711 245.52 132.201 246.332C132.692 247.143 132.938 248.078 132.91 249.026C132.886 249.919 132.62 250.79 132.14 251.544C131.607 252.382 130.838 253.044 129.93 253.445C128.954 253.879 127.865 253.986 126.823 253.752C125.781 253.518 124.843 252.954 124.147 252.144C123.825 251.764 123.565 251.335 123.377 250.874C123.178 250.435 123.05 249.967 123 249.488C122.888 248.6 123.019 247.698 123.377 246.877C123.753 246.007 124.374 245.265 125.164 244.742C125.955 244.218 126.88 243.936 127.828 243.928C128.234 243.913 128.641 243.968 129.029 244.09C129.029 244.09 128.598 244.005 127.835 244.036C126.749 244.079 125.71 244.489 124.886 245.199C124.319 245.679 123.873 246.285 123.585 246.97C123.258 247.755 123.144 248.613 123.254 249.457C123.31 249.909 123.435 250.351 123.624 250.766C123.814 251.205 124.074 251.611 124.394 251.967C125.055 252.727 125.943 253.256 126.926 253.476C127.91 253.696 128.938 253.597 129.861 253.191C130.301 253.004 130.707 252.743 131.062 252.421C131.414 252.126 131.718 251.778 131.963 251.39C132.321 250.827 132.559 250.196 132.66 249.537C132.762 248.878 132.726 248.205 132.553 247.56C132.381 246.916 132.077 246.314 131.659 245.794C131.242 245.273 130.721 244.845 130.13 244.537C129.414 244.175 128.983 244.09 128.99 244.09Z" fill="#263238"/>
<path d="M132.902 238.846C132.898 238.79 132.898 238.733 132.902 238.677C132.902 238.546 132.902 238.377 132.902 238.153C132.902 237.676 132.902 236.991 132.902 236.097L132.941 236.144L128.498 235.173L128.575 235.135L127.404 237.622V237.668H127.35C126.367 237.711 125.393 237.884 124.455 238.184H124.401L124.363 238.146L122.407 236.213H122.43L118.58 238.662L118.626 238.531L119.55 241.118V241.179L119.504 241.233C118.84 241.957 118.273 242.765 117.818 243.636V243.697H117.81H115.069L115.184 243.597C114.876 244.991 114.538 246.492 114.199 248.032L114.129 247.886L116.609 249.064L116.678 249.103V249.18C116.722 250.16 116.89 251.13 117.179 252.067V252.144L117.117 252.206L115.177 254.154V253.985L117.61 257.834L117.448 257.773L120.035 256.849H120.12L120.182 256.903C120.898 257.57 121.701 258.137 122.569 258.589C122.607 258.643 122.499 258.466 122.646 258.712V261.453L122.538 261.315L126.973 262.316L126.819 262.393C127.212 261.554 127.589 260.73 127.997 259.906L128.036 259.837H128.12C129.098 259.8 130.067 259.631 131 259.336H131.085L131.139 259.39L133.087 261.338H132.917L136.767 258.912L136.714 259.059C136.398 258.181 136.098 257.319 135.79 256.472V256.402L135.843 256.341C136.512 255.621 137.081 254.816 137.537 253.946V253.884H140.356L140.248 253.977C140.602 252.437 140.933 250.943 141.249 249.534L141.31 249.657L138.831 248.471H138.777V248.41C138.744 247.427 138.578 246.453 138.284 245.515V245.461V245.422L140.232 243.474V243.582L137.815 239.732H137.892L135.297 240.633C134.752 240.128 134.162 239.674 133.533 239.277L133.056 238.993L132.902 238.892L133.071 238.97L133.557 239.231C134.199 239.615 134.803 240.062 135.358 240.563H135.312L137.892 239.624H137.938V239.67L140.386 243.52V243.574L140.34 243.628L138.408 245.576V245.484C138.713 246.439 138.886 247.431 138.923 248.433L138.87 248.348L141.357 249.518L141.434 249.557V249.642C141.126 251.043 140.795 252.514 140.448 254.077V254.169H137.607L137.715 254.108C137.251 254.997 136.671 255.82 135.99 256.556V256.433C136.29 257.28 136.606 258.143 136.914 259.02L136.952 259.12L136.86 259.174L133.01 261.607L132.917 261.669L132.84 261.592L130.892 259.652H131.031C130.073 259.956 129.078 260.129 128.074 260.168L128.19 260.091C127.805 260.907 127.42 261.738 127.012 262.57L126.965 262.67H126.858L122.422 261.677H122.315V258.72C122.461 258.966 122.315 258.789 122.392 258.843C121.502 258.381 120.678 257.801 119.943 257.118H120.082L117.494 258.035L117.387 258.073L117.333 257.981L114.899 254.131L114.838 254.038L114.915 253.961L116.855 252.013V252.152C116.554 251.193 116.381 250.199 116.339 249.195L116.416 249.303L113.96 248.163L113.868 248.117V248.017L114.869 243.582V243.482H117.81L117.71 243.543C118.173 242.656 118.753 241.835 119.435 241.102V241.218L118.518 238.623V238.538L118.595 238.492L122.445 236.067L122.515 236.028L122.576 236.082L124.517 238.03H124.424C125.378 237.732 126.367 237.563 127.366 237.53L127.296 237.576L128.49 235.096V235.042H128.544L132.971 236.067H133.01C133.01 236.952 133.01 237.607 133.01 238.107C133.01 238.33 133.01 238.507 133.01 238.631C132.979 238.705 132.943 238.777 132.902 238.846Z" fill="#263238"/>
<path fill-rule="evenodd" clip-rule="evenodd" d="M124.524 204.304C125.497 204.812 126.398 205.446 127.204 206.191L130.068 205.174L132.756 209.417L130.615 211.573C130.943 212.622 131.132 213.709 131.177 214.807L133.918 216.108L132.817 220.99H129.784C129.273 221.963 128.636 222.864 127.889 223.67L128.913 226.534L124.663 229.221L122.507 227.15C121.461 227.478 120.376 227.667 119.281 227.712L117.979 230.453L113.075 229.352V226.318C112.101 225.809 111.2 225.172 110.395 224.424L107.531 225.448L104.836 221.198L106.984 219.05C106.657 218.001 106.468 216.913 106.422 215.816L103.681 214.514L104.774 209.609H107.8C108.306 208.636 108.941 207.735 109.687 206.93L108.678 204.05L112.921 201.355L115.077 203.503C116.125 203.175 117.213 202.986 118.311 202.941L119.612 200.2L124.517 201.301V204.335L124.524 204.304ZM120.197 210.079C119.157 209.846 118.071 209.927 117.077 210.311C116.083 210.695 115.225 211.365 114.612 212.237C113.999 213.108 113.658 214.142 113.632 215.208C113.606 216.273 113.896 217.322 114.466 218.223C115.036 219.123 115.86 219.834 116.835 220.266C117.809 220.698 118.889 220.832 119.939 220.65C120.989 220.468 121.962 219.979 122.734 219.245C123.507 218.51 124.044 217.564 124.278 216.524C124.434 215.833 124.452 215.118 124.331 214.42C124.21 213.721 123.953 213.054 123.574 212.455C123.195 211.857 122.701 211.339 122.122 210.931C121.543 210.523 120.888 210.234 120.197 210.079Z" fill="#3EAFA9"/>
<g opacity="0.8">
<path fill-rule="evenodd" clip-rule="evenodd" d="M124.524 204.304C125.497 204.812 126.398 205.446 127.204 206.191L130.068 205.174L132.756 209.417L130.615 211.573C130.943 212.622 131.132 213.709 131.177 214.807L133.918 216.108L132.817 220.99H129.784C129.273 221.963 128.636 222.864 127.889 223.67L128.913 226.534L124.663 229.221L122.507 227.15C121.461 227.478 120.376 227.667 119.281 227.712L117.979 230.453L113.075 229.352V226.318C112.101 225.809 111.2 225.172 110.395 224.424L107.531 225.448L104.836 221.198L106.984 219.05C106.657 218.001 106.468 216.913 106.422 215.816L103.681 214.514L104.774 209.609H107.8C108.306 208.636 108.941 207.735 109.687 206.93L108.678 204.05L112.921 201.355L115.077 203.503C116.125 203.175 117.213 202.986 118.311 202.941L119.612 200.2L124.517 201.301V204.335L124.524 204.304ZM120.197 210.079C119.157 209.846 118.071 209.927 117.077 210.311C116.083 210.695 115.225 211.365 114.612 212.237C113.999 213.108 113.658 214.142 113.632 215.208C113.606 216.273 113.896 217.322 114.466 218.223C115.036 219.123 115.86 219.834 116.835 220.266C117.809 220.698 118.889 220.832 119.939 220.65C120.989 220.468 121.962 219.979 122.734 219.245C123.507 218.51 124.044 217.564 124.278 216.524C124.434 215.833 124.452 215.118 124.331 214.42C124.21 213.721 123.953 213.054 123.574 212.455C123.195 211.857 122.701 211.339 122.122 210.931C121.543 210.523 120.888 210.234 120.197 210.079Z" fill="white"/>
</g>
<path fill-rule="evenodd" clip-rule="evenodd" d="M106.784 233.21C107.343 233.505 107.861 233.872 108.324 234.303L109.995 233.71L111.535 236.182L110.287 237.437C110.479 238.046 110.591 238.678 110.618 239.316L112.212 240.086L111.65 242.935H109.879C109.583 243.494 109.215 244.011 108.786 244.475L109.379 246.138L106.899 247.678L105.652 246.431C105.04 246.62 104.405 246.729 103.765 246.754L102.995 248.356L100.139 247.709V245.946C99.578 245.65 99.06 245.279 98.5985 244.845L96.9276 245.437L95.3876 242.966L96.635 241.711C96.4453 241.101 96.3366 240.47 96.3116 239.832L94.71 239.062L95.3491 236.205H97.02C97.3199 235.647 97.6899 235.129 98.1211 234.665L97.5282 233.002L99.9999 231.462L101.255 232.717C101.863 232.521 102.495 232.41 103.134 232.386L103.904 230.792L106.761 231.431V233.202L106.784 233.21ZM104.266 236.567C103.659 236.43 103.026 236.475 102.446 236.698C101.865 236.921 101.364 237.311 101.005 237.819C100.647 238.327 100.447 238.93 100.431 239.551C100.415 240.173 100.584 240.785 100.916 241.31C101.249 241.836 101.729 242.251 102.298 242.503C102.866 242.755 103.496 242.833 104.109 242.726C104.721 242.62 105.289 242.334 105.739 241.905C106.189 241.476 106.502 240.924 106.637 240.317C106.819 239.505 106.671 238.655 106.227 237.952C105.782 237.249 105.077 236.751 104.266 236.567Z" fill="#3EAFA9"/>
<g opacity="0.4">
<path fill-rule="evenodd" clip-rule="evenodd" d="M106.784 233.21C107.343 233.505 107.861 233.872 108.324 234.303L109.995 233.71L111.535 236.182L110.287 237.437C110.479 238.046 110.591 238.678 110.618 239.316L112.212 240.086L111.65 242.935H109.879C109.583 243.494 109.215 244.011 108.786 244.475L109.379 246.138L106.899 247.678L105.652 246.431C105.04 246.62 104.405 246.729 103.765 246.754L102.995 248.356L100.139 247.709V245.946C99.578 245.65 99.06 245.279 98.5985 244.845L96.9276 245.437L95.3876 242.966L96.635 241.711C96.4453 241.101 96.3366 240.47 96.3116 239.832L94.71 239.062L95.3491 236.205H97.02C97.3199 235.647 97.6899 235.129 98.1211 234.665L97.5282 233.002L99.9999 231.462L101.255 232.717C101.863 232.521 102.495 232.41 103.134 232.386L103.904 230.792L106.761 231.431V233.202L106.784 233.21ZM104.266 236.567C103.659 236.43 103.026 236.475 102.446 236.698C101.865 236.921 101.364 237.311 101.005 237.819C100.647 238.327 100.447 238.93 100.431 239.551C100.415 240.173 100.584 240.785 100.916 241.31C101.249 241.836 101.729 242.251 102.298 242.503C102.866 242.755 103.496 242.833 104.109 242.726C104.721 242.62 105.289 242.334 105.739 241.905C106.189 241.476 106.502 240.924 106.637 240.317C106.819 239.505 106.671 238.655 106.227 237.952C105.782 237.249 105.077 236.751 104.266 236.567Z" fill="white"/>
</g>
<path d="M276.838 204.874C278.453 204.409 279.866 203.418 280.853 202.058C281.839 200.697 282.342 199.046 282.282 197.366C282.19 195.826 281.628 194.394 281.689 192.885C281.789 190.575 283.345 188.565 284.515 186.533C285.685 184.5 286.463 181.828 285.1 179.918C284.222 178.679 282.659 178.124 281.589 177.046C280.519 175.968 280.049 174.528 279.479 173.15C278.909 171.772 278.193 170.347 276.9 169.616C275.606 168.884 273.627 169.2 273.096 170.594" fill="#263238"/>
<path d="M262.855 166.89C265.165 165.419 265.719 162.023 264.464 159.598C263.209 157.172 260.56 155.694 257.865 155.255C255.904 154.957 253.901 155.127 252.018 155.75C250.135 156.374 248.427 157.434 247.031 158.843C245.545 160.383 244.336 162.378 242.319 163.078C240.548 163.702 238.584 163.14 236.721 163.386C235.479 163.611 234.302 164.111 233.277 164.849C232.253 165.587 231.406 166.545 230.8 167.652C229.607 169.88 228.891 172.332 228.698 174.852C228.428 177.162 228.243 179.664 226.657 181.335C225.071 183.006 222.645 183.314 220.72 184.477C218.947 185.645 217.702 187.461 217.25 189.536C216.798 191.611 217.176 193.78 218.303 195.58C219.073 196.689 220.166 197.713 220.251 199.06C220.335 200.408 219.542 201.37 219.165 202.572C218.971 203.331 218.942 204.123 219.079 204.895C219.217 205.666 219.519 206.399 219.964 207.044C220.409 207.689 220.987 208.231 221.66 208.634C222.332 209.037 223.083 209.291 223.862 209.378C225.464 209.471 227.173 208.847 228.613 209.563C230.053 210.279 230.569 211.996 231.477 213.305C232.416 214.568 233.758 215.471 235.281 215.863C236.804 216.255 238.416 216.114 239.847 215.461C241.025 214.884 242.157 213.921 243.443 214.022C244.729 214.122 245.753 215.223 247.062 215.469C248.748 215.792 250.342 214.553 251.343 213.159C252.344 211.765 253.045 210.125 254.323 208.986C256.002 207.492 258.358 207.13 260.483 206.398C262.832 205.587 264.979 204.28 266.779 202.568C268.579 200.855 269.991 198.776 270.919 196.471C271.846 194.166 272.269 191.688 272.157 189.206C272.045 186.724 271.401 184.294 270.27 182.082" fill="#263238"/>
<path d="M267.96 169.916C268.878 170.016 269.725 170.457 270.334 171.151C270.943 171.845 271.269 172.743 271.248 173.666L269.046 223.462C268.953 229.344 260.36 232.648 254.062 232.502C247.701 232.355 247.501 229.237 247.416 223.639C247.286 214.291 247.301 210.78 247.293 210.834C247.286 210.888 239.262 209.486 237.622 198.999C236.806 193.778 237.083 185.231 237.537 178.247C237.953 171.956 242.157 164.249 248.402 164.926L267.96 169.916Z" fill="#FFBE9D"/>
<path d="M239.809 185.031C239.806 185.381 239.94 185.719 240.181 185.973C240.422 186.227 240.752 186.378 241.102 186.394C241.273 186.408 241.445 186.387 241.608 186.333C241.77 186.279 241.921 186.194 242.05 186.081C242.179 185.969 242.284 185.831 242.36 185.677C242.435 185.523 242.479 185.356 242.488 185.185C242.495 184.835 242.364 184.496 242.123 184.241C241.883 183.987 241.552 183.836 241.203 183.822C241.031 183.808 240.859 183.829 240.696 183.883C240.533 183.936 240.382 184.022 240.252 184.134C240.123 184.247 240.017 184.384 239.94 184.538C239.864 184.692 239.82 184.86 239.809 185.031Z" fill="#263238"/>
<path d="M239.347 182.698C239.516 182.875 240.533 182.12 241.98 182.128C243.428 182.136 244.483 182.86 244.644 182.683C244.806 182.505 244.552 182.29 244.09 181.951C243.465 181.515 242.719 181.284 241.957 181.289C241.205 181.283 240.471 181.517 239.863 181.959C239.416 182.297 239.262 182.621 239.347 182.698Z" fill="#263238"/>
<path d="M254.231 185.031C254.229 185.381 254.362 185.719 254.603 185.973C254.844 186.227 255.175 186.378 255.525 186.394C255.695 186.408 255.867 186.387 256.03 186.333C256.192 186.279 256.343 186.194 256.472 186.081C256.601 185.969 256.706 185.831 256.782 185.677C256.857 185.523 256.901 185.356 256.911 185.185C256.917 184.834 256.785 184.494 256.543 184.239C256.301 183.984 255.968 183.834 255.617 183.822C255.446 183.808 255.274 183.829 255.112 183.883C254.949 183.937 254.799 184.022 254.67 184.135C254.54 184.247 254.435 184.385 254.36 184.539C254.284 184.693 254.241 184.86 254.231 185.031Z" fill="#263238"/>
<path d="M253.569 182.998C253.738 183.175 254.755 182.421 256.202 182.428C257.65 182.436 258.705 183.198 258.866 182.983C259.028 182.767 258.774 182.59 258.312 182.251C257.686 181.815 256.941 181.584 256.179 181.589C255.428 181.587 254.695 181.821 254.085 182.259C253.638 182.605 253.484 182.921 253.569 182.998Z" fill="#263238"/>
<path d="M248.294 193.717C247.545 193.478 246.769 193.333 245.984 193.285C245.615 193.247 245.26 193.17 245.214 192.924C245.184 192.542 245.273 192.16 245.468 191.83C245.815 190.937 246.184 189.997 246.562 189.02C248.102 185.016 249.195 181.72 249.033 181.666C248.872 181.612 247.493 184.8 245.953 188.796C245.592 189.79 245.237 190.729 244.906 191.63C244.669 192.073 244.598 192.587 244.706 193.078C244.759 193.208 244.842 193.325 244.947 193.418C245.053 193.512 245.178 193.58 245.314 193.617C245.52 193.674 245.732 193.705 245.946 193.709C246.725 193.808 247.514 193.811 248.294 193.717Z" fill="#263238"/>
<path d="M247.255 210.834C252.191 210.922 257.055 209.64 261.307 207.13C261.307 207.13 257.75 214.522 247.255 213.513V210.834Z" fill="#EB996E"/>
<path d="M248.895 197.205C249.169 196.864 249.524 196.598 249.927 196.43C250.331 196.261 250.77 196.197 251.205 196.242C251.524 196.27 251.834 196.363 252.116 196.515C252.399 196.668 252.646 196.876 252.845 197.128C253.035 197.371 253.147 197.665 253.167 197.972C253.188 198.28 253.116 198.586 252.96 198.852C252.726 199.111 252.42 199.294 252.082 199.378C251.743 199.463 251.387 199.446 251.058 199.33C250.377 199.083 249.749 198.706 249.21 198.221C249.052 198.101 248.914 197.955 248.802 197.79C248.749 197.71 248.721 197.616 248.721 197.52C248.721 197.424 248.749 197.331 248.802 197.251" fill="#DE8579"/>
<path d="M252.56 194.725C252.321 194.725 252.314 196.265 250.966 197.397C249.619 198.529 247.948 198.329 247.94 198.552C247.94 198.645 248.31 198.853 249.018 198.876C249.938 198.894 250.834 198.583 251.544 197.998C252.229 197.442 252.671 196.641 252.776 195.765C252.83 195.11 252.652 194.718 252.56 194.725Z" fill="#263238"/>
<path d="M252.922 180.465C253.06 180.858 254.508 180.673 256.202 180.881C257.896 181.089 259.282 181.558 259.498 181.204C259.605 181.035 259.367 180.665 258.812 180.28C258.073 179.815 257.238 179.523 256.37 179.425C255.502 179.328 254.624 179.428 253.8 179.718C253.176 179.964 252.86 180.28 252.922 180.465Z" fill="#263238"/>
<path d="M239.886 178.509C240.14 178.84 241.141 178.509 242.334 178.509C243.528 178.509 244.552 178.732 244.783 178.394C244.891 178.224 244.729 177.893 244.283 177.585C243.689 177.208 242.996 177.018 242.294 177.039C241.591 177.059 240.911 177.29 240.34 177.701C239.917 178.009 239.778 178.347 239.886 178.509Z" fill="#263238"/>
<path d="M261.03 166.505C262.224 165.669 263.584 165.098 265.017 164.833C266.45 164.567 267.924 164.612 269.338 164.965C272.133 165.735 274.451 168.291 274.551 171.125C274.613 172.973 273.781 174.975 274.636 176.615C275.491 178.255 277.339 178.848 278.709 180.003C279.759 180.921 280.473 182.164 280.735 183.534C280.997 184.905 280.794 186.323 280.157 187.564C279.01 189.666 276.607 191.206 276.407 193.578C276.214 195.811 278.093 197.698 278.555 199.892C279.056 202.31 277.716 204.812 275.799 206.422C273.881 208.031 271.448 208.916 269.077 209.763C267.229 210.433 265.227 211.111 263.325 210.672C262.201 210.37 261.192 209.743 260.425 208.869C259.657 207.994 259.166 206.913 259.013 205.759C258.898 204.61 259.034 203.449 259.41 202.356C259.786 201.264 260.394 200.266 261.192 199.43C262.539 197.944 264.433 196.689 264.757 194.725C265.257 191.645 261.623 189.174 261.846 186.094C261.962 184.507 263.086 183.191 264.018 181.882C264.949 180.573 265.766 178.933 265.188 177.447C264.418 175.506 261.9 174.998 260.36 173.597C259.725 172.999 259.269 172.237 259.042 171.396C258.815 170.554 258.826 169.666 259.074 168.83C259.354 167.996 259.856 167.253 260.527 166.682C261.197 166.111 262.01 165.733 262.878 165.589" fill="#263238"/>
<path d="M262.162 164.141C262.167 165.195 261.939 166.238 261.495 167.195C261.051 168.151 260.401 168.998 259.592 169.674C258.784 170.351 257.835 170.841 256.815 171.109C255.795 171.377 254.729 171.416 253.692 171.225C252.09 170.932 250.335 170.124 248.949 170.979C247.563 171.833 247.409 174.059 246.138 175.19C244.29 176.8 241.357 175.291 239.008 175.96C237.199 176.499 236.067 178.224 234.858 179.687C233.649 181.15 231.855 182.529 230.038 181.997C230.092 180.363 230.335 178.74 230.761 177.162C231.195 175.574 232.163 174.184 233.503 173.227C234.295 172.814 235.066 172.362 235.813 171.872C237.353 170.663 237.668 168.545 238.592 166.851C239.203 165.761 240.066 164.832 241.107 164.141C242.149 163.45 243.341 163.017 244.583 162.878C246.646 162.67 248.772 163.286 250.743 162.778C252.229 162.408 253.53 161.446 255.032 161.153C257.965 160.599 260.691 162.693 262.816 164.795" fill="#263238"/>
<path d="M281.312 189.204C281.505 188.832 281.588 188.413 281.551 187.996C281.456 187.435 281.208 186.912 280.834 186.484C280.46 186.056 279.975 185.74 279.433 185.57C278.68 185.304 277.908 185.095 277.123 184.946C276.186 184.776 275.296 184.409 274.513 183.868C274.094 183.53 273.756 183.103 273.521 182.619C273.287 182.134 273.163 181.604 273.158 181.066C273.146 179.965 273.2 178.864 273.319 177.77C273.35 177.229 273.321 176.687 273.235 176.153C273.133 175.654 272.923 175.183 272.619 174.775C271.929 174.065 271.054 173.563 270.093 173.327C269.192 173.069 268.327 172.696 267.521 172.218C266.82 171.798 266.182 171.279 265.627 170.678C264.817 169.817 264.188 168.8 263.779 167.691C263.662 167.394 263.572 167.087 263.509 166.774C263.463 166.559 263.448 166.451 263.463 166.443C263.479 166.436 263.602 166.882 263.918 167.637C264.485 168.952 265.347 170.119 266.438 171.047C267.529 171.975 268.819 172.639 270.208 172.988C271.24 173.232 272.181 173.767 272.919 174.528C273.266 174.983 273.508 175.509 273.627 176.068C273.72 176.633 273.751 177.206 273.72 177.778C273.605 178.859 273.548 179.947 273.55 181.035C273.549 181.52 273.656 182 273.862 182.439C274.069 182.878 274.37 183.267 274.744 183.576C275.482 184.089 276.318 184.442 277.2 184.615C277.987 184.782 278.759 185.011 279.51 185.301C280.156 185.547 280.721 185.969 281.142 186.517C281.448 186.939 281.632 187.437 281.674 187.957C281.694 188.287 281.628 188.616 281.481 188.912C281.412 189.127 281.32 189.212 281.312 189.204Z" fill="#455A64"/>
<path d="M219.566 195.749L219.388 195.665C219.23 195.565 219.095 195.431 218.996 195.272C218.85 194.937 218.794 194.571 218.831 194.208C218.869 193.845 219 193.498 219.211 193.201C219.473 192.739 219.864 192.365 220.336 192.123C220.882 191.851 221.445 191.615 222.022 191.414C222.669 191.198 223.268 190.858 223.785 190.413C224.31 189.865 224.661 189.174 224.794 188.427C224.963 187.657 225.017 186.779 225.163 185.886C225.273 184.927 225.632 184.014 226.203 183.237C227.42 181.635 229.422 180.781 230.915 179.271C231.661 178.478 232.221 177.528 232.555 176.492C232.911 175.398 233.169 174.274 233.325 173.135C233.649 170.825 233.98 168.253 235.528 166.143C236.282 165.083 237.415 164.352 238.692 164.102C239.905 163.929 241.139 163.958 242.342 164.187C243.465 164.405 244.612 164.472 245.753 164.387C246.827 164.263 247.818 163.751 248.541 162.947C249.973 161.407 250.789 159.328 252.552 158.266C253.338 157.787 254.214 157.474 255.125 157.348C256.036 157.223 256.964 157.286 257.85 157.534C259.318 157.952 260.566 158.924 261.33 160.245C261.908 161.226 262.221 162.34 262.239 163.479C262.26 164.191 262.147 164.902 261.908 165.573C261.828 165.81 261.722 166.037 261.592 166.251C261.592 166.251 261.685 166.012 261.831 165.55C262.032 164.882 262.118 164.184 262.085 163.486C262.041 162.382 261.718 161.306 261.146 160.36C260.393 159.107 259.184 158.194 257.773 157.812C256.924 157.588 256.039 157.54 255.171 157.673C254.304 157.805 253.473 158.115 252.729 158.582C251.923 159.136 251.234 159.845 250.704 160.668C250.13 161.564 249.498 162.42 248.81 163.232C248.423 163.654 247.971 164.01 247.47 164.287C246.947 164.554 246.382 164.729 245.799 164.803C244.626 164.893 243.445 164.828 242.288 164.611C241.128 164.387 239.939 164.356 238.769 164.518C237.591 164.756 236.548 165.434 235.851 166.412C235.149 167.405 234.64 168.52 234.35 169.7C234.072 170.863 233.859 172.041 233.71 173.227C233.558 174.387 233.3 175.532 232.94 176.646C232.587 177.735 231.992 178.73 231.2 179.556C229.622 181.096 227.643 181.959 226.488 183.476C225.947 184.205 225.602 185.062 225.487 185.963C225.341 186.84 225.279 187.703 225.086 188.519C224.941 189.319 224.554 190.055 223.978 190.629C223.433 191.09 222.802 191.438 222.122 191.653C221.549 191.841 220.989 192.065 220.443 192.323C219.999 192.544 219.625 192.885 219.365 193.309C219.161 193.586 219.029 193.91 218.981 194.252C218.932 194.593 218.969 194.941 219.088 195.264C219.215 195.455 219.377 195.619 219.566 195.749Z" fill="#455A64"/>
<path d="M193.84 267.96L212.435 266.258C212.435 266.258 223.878 236.113 237.984 228.805L247.124 244.768L227.558 281.52H189.366L193.84 267.96Z" fill="#3EAFA9"/>
<path opacity="0.3" d="M193.84 267.96L212.435 266.258C212.435 266.258 223.878 236.113 237.984 228.805L247.124 244.768L227.558 281.52H189.366L193.84 267.96Z" fill="black"/>
<path d="M201.186 276.43C202.104 274.355 203.273 272.4 204.666 270.609C203.735 272.677 202.567 274.631 201.186 276.43Z" fill="#FAFAFA"/>
<path d="M214.36 276.068C212.746 274.488 211.325 272.723 210.125 270.809C210.985 271.544 211.748 272.385 212.397 273.312C213.156 274.151 213.815 275.076 214.36 276.068Z" fill="#FAFAFA"/>
<path d="M216.647 269.161C216.38 267.545 216.38 265.896 216.647 264.279C216.914 265.896 216.914 267.545 216.647 269.161Z" fill="#FAFAFA"/>
<path d="M210.102 279.933C209.453 279.752 208.848 279.441 208.323 279.017C207.399 278.409 206.706 277.847 206.783 277.754C207.431 277.944 208.035 278.258 208.562 278.678C209.44 279.279 210.164 279.841 210.102 279.933Z" fill="#FAFAFA"/>
<path d="M220.782 252.229C220.477 253.391 220.046 254.517 219.496 255.586C219.067 256.709 218.514 257.781 217.848 258.782C218.144 257.617 218.573 256.491 219.127 255.424C219.56 254.302 220.116 253.231 220.782 252.229Z" fill="#FAFAFA"/>
<path d="M228.32 240.017C228.382 240.101 227.72 240.717 226.834 241.395C226.33 241.855 225.742 242.214 225.102 242.45C225.04 242.357 225.702 241.741 226.588 241.072C227.089 240.608 227.678 240.249 228.32 240.017Z" fill="#FAFAFA"/>
<path d="M256.133 279.102L265.727 240.363C266.529 237.113 268.539 234.29 271.349 232.47C274.158 230.649 277.555 229.966 280.85 230.561C284.234 231.173 287.246 233.083 289.242 235.884C291.239 238.684 292.062 242.154 291.537 245.553L285.67 283.414C284.969 287.289 283.079 290.849 280.261 293.6C277.443 296.35 273.837 298.154 269.947 298.76L262.324 299.946L256.133 279.102Z" fill="#3EAFA9"/>
<path d="M286.363 228.059C285.362 227.24 284.192 226.653 282.937 226.341C281.579 226.026 280.167 226.026 278.809 226.341C277.156 226.759 275.621 227.549 274.32 228.651C271.51 231.008 269.985 234.041 268.93 236.213C268.414 237.299 268.022 238.192 267.744 238.808C267.617 239.137 267.46 239.454 267.275 239.755C267.35 239.412 267.458 239.076 267.598 238.754C267.837 238.115 268.183 237.214 268.668 236.09C269.237 234.785 269.896 233.522 270.64 232.309C271.564 230.818 272.714 229.48 274.051 228.343C275.393 227.19 276.989 226.369 278.709 225.949C280.12 225.628 281.588 225.646 282.99 226.003C283.932 226.245 284.817 226.671 285.593 227.258C285.8 227.419 285.993 227.596 286.171 227.789C286.309 227.982 286.371 228.051 286.363 228.059Z" fill="#263238"/>
<path d="M232.024 236.775C231.948 236.905 231.858 237.027 231.755 237.137L230.938 238.123C230.222 238.977 229.214 240.225 228.059 241.834C224.989 245.998 222.763 250.722 221.506 255.74C220.174 261.646 220.105 267.175 219.881 271.14C219.781 273.127 219.689 274.736 219.604 275.845C219.558 276.368 219.519 276.792 219.489 277.123C219.479 277.273 219.459 277.422 219.427 277.57C219.405 277.422 219.405 277.271 219.427 277.123C219.427 276.784 219.427 276.353 219.465 275.837C219.465 274.674 219.55 273.08 219.612 271.132C219.766 267.175 219.781 261.623 221.152 255.655C222.41 250.588 224.693 245.832 227.858 241.68C229.052 240.078 230.099 238.846 230.846 238.022C231.216 237.607 231.524 237.299 231.724 237.091C231.814 236.977 231.915 236.871 232.024 236.775Z" fill="#263238"/>
<path d="M293.486 236.69C292.431 229.76 288.611 228.105 284.646 225.949C283.352 225.24 277.108 223.639 272.157 222.43C271.679 219.435 270.832 214.06 270.617 212.928C270.355 211.334 245.391 215.315 245.076 215.916C244.868 216.308 244.306 222.53 243.928 226.696L237.953 228.782L230.184 238.7L226.126 244.46C223.735 247.782 222.026 251.545 221.098 255.532C220.226 259.948 219.851 264.447 219.981 268.946L218.772 294.356L271.04 309.124L275.044 283.36L288.519 265.019C289.666 257.603 294.779 245.207 293.486 236.69Z" fill="#3EAFA9"/>
<path d="M248.91 227.473C248.728 226.901 248.611 226.309 248.564 225.71C248.402 224.617 248.202 223.1 248.009 221.421C247.917 220.59 247.832 219.797 247.748 219.05C247.668 218.4 247.622 217.748 247.609 217.094C247.602 216.632 247.733 216.179 247.986 215.793C248.186 215.531 248.356 215.461 248.371 215.477C248.387 215.492 248.256 215.615 248.117 215.877C247.943 216.258 247.866 216.676 247.894 217.094C247.894 217.633 248.032 218.28 248.117 219.011C248.202 219.743 248.302 220.551 248.41 221.375C248.602 223.054 248.756 224.578 248.849 225.679C248.938 226.273 248.959 226.875 248.91 227.473Z" fill="#263238"/>
<path d="M255.571 225.903C255.311 225.392 255.124 224.848 255.016 224.286C254.32 221.619 254.06 218.858 254.246 216.108C254.251 215.538 254.334 214.97 254.493 214.422C254.616 214.422 254.393 217.017 254.693 220.189C254.993 223.362 255.694 225.872 255.571 225.903Z" fill="#263238"/>
<path d="M267.96 224.07C268.118 222.156 268.069 220.23 267.814 218.326C267.421 216.444 266.816 214.613 266.012 212.867C266.399 213.295 266.709 213.788 266.928 214.322C268.156 216.826 268.642 219.628 268.33 222.399C268.294 222.972 268.169 223.536 267.96 224.07Z" fill="#263238"/>
<path d="M232.54 246.754C233.73 244.486 235.277 242.425 237.122 240.648C235.695 242.757 234.166 244.795 232.54 246.754Z" fill="#FAFAFA"/>
<path d="M244.267 237.16C242.773 235.659 241.479 233.972 240.417 232.14C241.201 232.849 241.896 233.651 242.488 234.527C243.189 235.326 243.787 236.211 244.267 237.16Z" fill="#FAFAFA"/>
<path d="M256.556 231.169C255.805 232.062 254.983 232.894 254.1 233.657C253.312 234.518 252.46 235.318 251.551 236.051C252.171 235.05 252.937 234.147 253.823 233.372C254.616 232.503 255.538 231.76 256.556 231.169Z" fill="#FAFAFA"/>
<path d="M253.107 223.839C252.39 223.463 251.742 222.968 251.189 222.376C250.546 221.879 249.987 221.281 249.534 220.605C250.25 220.99 250.899 221.486 251.459 222.076C252.101 222.57 252.657 223.165 253.107 223.839Z" fill="#FAFAFA"/>
<path d="M263.879 218.095C263.057 218.479 262.183 218.739 261.284 218.865C260.416 219.116 259.516 219.24 258.612 219.234C259.432 218.853 260.304 218.594 261.199 218.464C262.07 218.213 262.973 218.089 263.879 218.095Z" fill="#FAFAFA"/>
<path d="M266.035 235.15C265.788 234.277 265.674 233.371 265.696 232.463C265.586 231.564 265.606 230.653 265.758 229.76C266.005 230.634 266.119 231.54 266.097 232.448C266.207 233.347 266.186 234.257 266.035 235.15Z" fill="#FAFAFA"/>
<path d="M262.108 243.32C261.537 242.35 261.083 241.316 260.753 240.24C260.306 239.195 259.98 238.102 259.783 236.983C260.795 239.009 261.571 241.146 262.093 243.351L262.108 243.32Z" fill="#FAFAFA"/>
<path d="M251.436 249.133C250.823 248.107 250.327 247.014 249.957 245.876C249.458 244.786 249.086 243.641 248.849 242.465C249.457 243.497 249.953 244.592 250.327 245.73C250.82 246.821 251.192 247.962 251.436 249.133Z" fill="#FAFAFA"/>
<path d="M241.395 255.686C240.684 253.572 240.234 251.38 240.055 249.157C240.47 250.194 240.759 251.277 240.918 252.383C241.206 253.461 241.366 254.57 241.395 255.686Z" fill="#FAFAFA"/>
<path d="M229.46 255.948C228.273 254.109 227.312 252.134 226.596 250.065C227.782 251.904 228.744 253.88 229.46 255.948Z" fill="#FAFAFA"/>
<path d="M229.206 263.602C228.228 264.297 227.181 264.888 226.08 265.365C225.032 265.957 223.922 266.43 222.769 266.774C223.745 266.07 224.796 265.476 225.903 265.003C226.948 264.415 228.056 263.944 229.206 263.602Z" fill="#FAFAFA"/>
<path d="M229.352 275.706C228.829 274.84 228.462 273.889 228.267 272.896C227.942 271.942 227.789 270.938 227.812 269.931C228.182 270.857 228.463 271.816 228.652 272.796C228.975 273.742 229.21 274.716 229.352 275.706Z" fill="#FAFAFA"/>
<path d="M226.881 284.207C225.968 283.629 225.125 282.947 224.37 282.174C223.528 281.503 222.775 280.726 222.13 279.864C223.042 280.442 223.885 281.124 224.64 281.897C225.482 282.569 226.235 283.345 226.881 284.207Z" fill="#FAFAFA"/>
<path d="M242.604 278.401C242.604 278.517 240.864 279.025 238.8 279.941C236.737 280.857 235.166 281.797 235.096 281.697C236.148 280.792 237.346 280.073 238.638 279.572C239.883 278.955 241.224 278.559 242.604 278.401Z" fill="#FAFAFA"/>
<path d="M238.007 274.189C237.511 273.365 237.13 272.476 236.875 271.548C236.49 270.667 236.231 269.737 236.105 268.784C236.599 269.606 236.978 270.492 237.229 271.417C237.619 272.3 237.881 273.233 238.007 274.189Z" fill="#FAFAFA"/>
<path d="M247.332 263.779C246.751 265.083 246.047 266.328 245.23 267.498C244.525 268.752 243.705 269.938 242.781 271.04C244.072 268.497 245.595 266.079 247.332 263.817V263.779Z" fill="#FAFAFA"/>
<path d="M257.357 264.772C256.343 263.733 255.48 262.556 254.793 261.276C253.991 260.067 253.359 258.754 252.914 257.372C253.022 257.326 253.915 259.036 255.139 261.076C256.364 263.117 257.449 264.711 257.357 264.772Z" fill="#FAFAFA"/>
<path d="M263.34 254.87C262.406 255.236 261.409 255.414 260.406 255.394C259.413 255.51 258.406 255.431 257.442 255.163C258.419 255.033 259.405 254.976 260.391 254.993C261.37 254.881 262.355 254.84 263.34 254.87Z" fill="#FAFAFA"/>
<path d="M277.608 243.62C275.165 245.09 272.586 246.322 269.908 247.301C272.356 245.84 274.934 244.608 277.608 243.62Z" fill="#FAFAFA"/>
<path d="M278.555 236.459C279.341 234.294 280.374 232.227 281.635 230.299C281.31 231.404 280.855 232.466 280.28 233.464C279.821 234.525 279.242 235.53 278.555 236.459Z" fill="#FAFAFA"/>
<path d="M287.61 242.08C287.137 240.942 286.746 239.771 286.44 238.577C286.011 237.423 285.666 236.239 285.408 235.035C286.559 237.232 287.305 239.619 287.61 242.08Z" fill="#FAFAFA"/>
<path d="M289.035 249.534C287.976 250.112 286.837 250.527 285.655 250.766C284.504 251.132 283.304 251.316 282.097 251.313C283.227 250.923 284.382 250.612 285.554 250.381C286.694 250.02 287.857 249.737 289.035 249.534Z" fill="#FAFAFA"/>
<path d="M273.512 258.635C273.396 258.635 273.727 256.741 273.82 254.408C273.912 252.075 273.758 250.181 273.874 250.165C274.229 251.555 274.346 252.995 274.22 254.423C274.227 255.858 273.988 257.282 273.512 258.635Z" fill="#FAFAFA"/>
<path d="M270.416 268.006C268.345 266.365 266.64 264.309 265.411 261.969C265.511 261.908 266.528 263.332 267.914 264.995C268.801 265.954 269.636 266.959 270.416 268.006Z" fill="#FAFAFA"/>
<path d="M285.978 266.027C284.97 266.662 283.893 267.178 282.767 267.567C281.692 268.085 280.564 268.482 279.402 268.753C281.486 267.598 283.692 266.676 285.978 266.004V266.027Z" fill="#FAFAFA"/>
<path d="M280.403 283.66C280.17 280.84 280.198 278.005 280.488 275.19C280.732 278.01 280.703 280.846 280.403 283.66Z" fill="#FAFAFA"/>
<path d="M268.461 282.644C268.655 279.698 269.378 276.811 270.593 274.12C270.701 274.158 270.116 276.03 269.531 278.378C268.946 280.727 268.576 282.667 268.461 282.644Z" fill="#FAFAFA"/>
<path d="M269.007 287.272C269.007 287.387 267.098 287.572 264.757 287.965C262.416 288.357 260.537 288.788 260.506 288.673C261.842 288.112 263.249 287.739 264.688 287.564C266.106 287.263 267.561 287.164 269.007 287.272Z" fill="#FAFAFA"/>
<path d="M255.794 284.307C256.463 283.339 257.238 282.448 258.104 281.651C258.867 280.763 259.73 279.968 260.676 279.279C260.006 280.247 259.232 281.138 258.366 281.935C257.601 282.821 256.738 283.616 255.794 284.307Z" fill="#FAFAFA"/>
<path d="M247.239 292.6C246.832 291.619 246.484 290.613 246.2 289.589C245.782 288.61 245.422 287.608 245.122 286.586C246.343 288.37 247.073 290.444 247.239 292.6Z" fill="#FAFAFA"/>
<path d="M261.03 297.389C258.404 296.519 255.869 295.394 253.461 294.032C254.789 294.407 256.078 294.907 257.311 295.526C258.606 296.031 259.851 296.655 261.03 297.389Z" fill="#FAFAFA"/>
<path d="M236.975 295.996C237.083 295.027 237.327 294.078 237.699 293.177C237.942 292.236 238.313 291.332 238.8 290.49C238.691 291.459 238.448 292.407 238.076 293.308C237.827 294.248 237.457 295.151 236.975 295.996Z" fill="#FAFAFA"/>
<path d="M252.837 298.683C252.837 298.798 250.627 298.444 247.902 298.306C245.176 298.167 242.966 298.306 242.958 298.152C244.594 297.834 246.266 297.751 247.925 297.905C249.591 297.927 251.246 298.189 252.837 298.683Z" fill="#FAFAFA"/>
<path d="M256.133 275.976C256.118 275.874 256.118 275.77 256.133 275.668C256.131 275.373 256.175 275.079 256.264 274.798C256.383 274.323 256.681 273.912 257.095 273.65C257.663 273.322 258.331 273.212 258.974 273.342L258.82 273.435C259.659 270.478 261.007 266.166 262.354 261.33C263.617 256.803 264.472 252.637 265.065 249.611C265.357 248.156 265.588 246.947 265.773 246.03C265.843 245.59 265.943 245.155 266.073 244.729C266.064 245.177 266.015 245.622 265.927 246.061C265.804 246.916 265.604 248.148 265.342 249.665C264.675 253.631 263.806 257.56 262.739 261.438C261.392 266.281 259.998 270.578 259.074 273.512L259.036 273.627H258.92C258.339 273.494 257.729 273.577 257.203 273.858C256.821 274.086 256.534 274.444 256.395 274.867C256.141 275.545 256.187 275.983 256.133 275.976Z" fill="#263238"/>
<path d="M273.396 286.686C273.335 286.686 272.857 285.67 271.856 284.115C269.29 280.054 265.671 276.765 261.384 274.597C259.744 273.773 258.658 273.396 258.682 273.327C258.945 273.369 259.203 273.438 259.452 273.535C260.148 273.761 260.83 274.031 261.492 274.343C265.919 276.401 269.615 279.759 272.087 283.968C272.459 284.599 272.791 285.252 273.08 285.924C273.226 286.16 273.333 286.417 273.396 286.686Z" fill="#263238"/>
<g opacity="0.2">
<path d="M259.144 272.765C261.908 272.834 264.646 273.33 267.259 274.236C270.024 275.267 272.58 277.254 273.596 280.026C273.761 280.339 273.835 280.691 273.809 281.044C273.783 281.397 273.659 281.735 273.45 282.02C273.253 282.19 273.013 282.302 272.756 282.344C272.499 282.386 272.236 282.357 271.995 282.259C271.513 282.057 271.078 281.759 270.717 281.381C269.023 279.841 267.259 278.424 265.511 276.915C263.764 275.406 261.207 273.835 258.928 273.473" fill="black"/>
</g>
<path d="M253.592 267.852C253.356 268.039 253.097 268.194 252.822 268.314C252.064 268.685 251.272 268.984 250.458 269.207C247.749 269.98 244.882 270.015 242.155 269.307C239.429 268.598 236.941 267.174 234.95 265.18C234.349 264.586 233.803 263.939 233.318 263.248C233.125 263.013 232.965 262.754 232.84 262.478C232.902 262.431 233.61 263.556 235.15 265.003C237.15 266.892 239.595 268.246 242.257 268.937C244.92 269.629 247.714 269.637 250.381 268.961C252.391 268.422 253.553 267.775 253.592 267.852Z" fill="#263238"/>
<g opacity="0.2">
<path d="M233.218 263.047C234.519 265.866 236.036 268.707 238.5 270.601C239.862 271.778 241.564 272.49 243.359 272.634C245.93 272.68 248.14 270.924 250.104 269.261C243.744 270.262 236.583 267.375 233.218 263.047Z" fill="black"/>
</g>
<path d="M261.692 225.317C261.569 225.317 261.692 222.669 261.4 219.442C261.107 216.216 260.453 213.652 260.568 213.621C260.822 214.145 261.001 214.703 261.099 215.277C261.432 216.633 261.664 218.013 261.792 219.404C261.93 220.796 261.966 222.196 261.9 223.593C261.907 224.174 261.837 224.754 261.692 225.317Z" fill="#263238"/>
<path d="M170.355 328.359C170.355 328.359 161.985 330.168 154.516 329.044C147.509 327.997 131.824 329.083 131.832 338.284C131.832 348.579 152.753 346.038 160.907 344.406C169.061 342.773 177.192 341.326 177.192 341.326L170.355 328.359Z" fill="#14827C"/>
<path d="M151.567 341.549C151.107 340.394 150.769 339.194 150.558 337.968C150.223 336.769 150.017 335.538 149.942 334.296C150.392 335.452 150.72 336.652 150.92 337.876C151.265 339.074 151.482 340.305 151.567 341.549Z" fill="#263238"/>
<path d="M154.424 341.688C153.818 339.262 153.477 336.779 153.407 334.28C153.774 335.475 154.012 336.707 154.116 337.953C154.348 339.184 154.451 340.435 154.424 341.688Z" fill="#263238"/>
<path d="M157.18 340.61C156.857 339.566 156.661 338.488 156.595 337.399C156.395 336.325 156.33 335.231 156.402 334.142C156.92 336.258 157.178 338.43 157.172 340.61H157.18Z" fill="#263238"/>
<path d="M161.507 339.57C160.972 338.731 160.608 337.794 160.437 336.813C160.137 335.861 160.032 334.858 160.129 333.864C160.424 334.797 160.655 335.749 160.822 336.713C161.118 337.648 161.347 338.603 161.507 339.57Z" fill="#263238"/>
<path d="M162.47 335.766C162.828 335.683 163.197 335.657 163.563 335.689C164.566 335.724 165.556 335.919 166.497 336.267C166.822 336.382 167.129 336.546 167.406 336.752C167.569 336.871 167.704 337.024 167.801 337.201C167.898 337.378 167.955 337.574 167.968 337.776C167.951 337.998 167.885 338.214 167.777 338.408C167.668 338.602 167.519 338.771 167.339 338.902C167.158 339.033 166.952 339.123 166.734 339.167C166.515 339.21 166.29 339.206 166.074 339.154C165.189 338.912 164.418 338.367 163.895 337.614C163.025 336.493 162.528 335.128 162.471 333.711C162.414 332.293 162.802 330.893 163.579 329.706C163.736 329.515 163.953 329.382 164.195 329.329C164.321 329.313 164.449 329.324 164.57 329.363C164.691 329.402 164.802 329.466 164.896 329.552C165.192 329.857 165.377 330.253 165.419 330.677C165.514 331.373 165.478 332.081 165.311 332.763C165.081 333.753 164.592 334.665 163.895 335.404C163.71 335.606 163.507 335.789 163.286 335.951C163.213 336.013 163.13 336.063 163.04 336.097C163.04 336.097 163.332 335.835 163.81 335.327C164.434 334.575 164.864 333.681 165.065 332.725C165.204 332.074 165.222 331.403 165.119 330.746C165.08 330.405 164.931 330.086 164.695 329.837C164.635 329.787 164.565 329.751 164.49 329.731C164.415 329.71 164.336 329.707 164.259 329.72C164.182 329.733 164.109 329.763 164.045 329.807C163.981 329.851 163.927 329.909 163.887 329.976C163.184 331.1 162.84 332.413 162.902 333.737C162.964 335.062 163.428 336.337 164.233 337.391C164.693 338.08 165.38 338.587 166.174 338.823C166.338 338.866 166.51 338.874 166.677 338.845C166.845 338.817 167.005 338.753 167.146 338.659C167.287 338.564 167.407 338.441 167.497 338.296C167.586 338.152 167.645 337.991 167.668 337.822C167.655 337.67 167.61 337.523 167.536 337.39C167.461 337.257 167.359 337.142 167.236 337.052C166.992 336.857 166.72 336.701 166.428 336.59C165.518 336.229 164.561 336.001 163.587 335.913C162.824 335.782 162.47 335.797 162.47 335.766Z" fill="#263238"/>
<path d="M176.369 339.963L176.161 340.032L175.529 340.186L173.104 340.74C170.994 341.202 167.929 341.857 164.125 342.588C160.322 343.32 155.779 344.128 150.681 344.845C148.013 345.283 145.303 345.42 142.604 345.253C141.167 345.156 139.748 344.884 138.377 344.444C137.672 344.205 136.992 343.901 136.344 343.536C135.667 343.173 135.064 342.687 134.565 342.103C134.286 341.847 134.043 341.554 133.841 341.233C133.449 340.558 133.207 339.805 133.134 339.028C133.061 338.25 133.158 337.465 133.418 336.729C133.922 335.307 134.859 334.079 136.098 333.218C137.263 332.396 138.549 331.76 139.909 331.331C140.579 331.138 141.226 330.908 141.888 330.761C142.55 330.615 143.205 330.453 143.859 330.361C149.103 329.537 153.869 329.953 157.842 329.953C159.829 329.991 161.623 329.953 163.194 329.845C164.537 329.748 165.873 329.579 167.198 329.337L168.645 329.029L169.685 328.736L170.324 328.559C170.396 328.534 170.471 328.518 170.547 328.513C170.547 328.513 170.478 328.551 170.339 328.598L169.708 328.813L168.676 329.144L167.236 329.491C165.906 329.759 164.561 329.952 163.209 330.068C161.631 330.184 159.829 330.261 157.819 330.238C153.846 330.276 149.08 329.883 143.905 330.723C143.259 330.815 142.619 330.992 141.965 331.131C141.31 331.269 140.679 331.508 140.017 331.693C138.695 332.111 137.445 332.732 136.313 333.533C135.143 334.348 134.257 335.508 133.78 336.852C133.541 337.533 133.452 338.258 133.518 338.977C133.585 339.696 133.805 340.392 134.165 341.018C134.349 341.302 134.569 341.56 134.819 341.788C135.29 342.32 135.85 342.766 136.475 343.104C137.098 343.458 137.753 343.751 138.431 343.982C139.772 344.407 141.161 344.665 142.565 344.752C145.238 344.92 147.921 344.794 150.566 344.375C155.648 343.705 160.199 342.896 164.002 342.203C167.806 341.51 170.878 340.894 173.004 340.479L175.445 340.001L176.076 339.886C176.178 339.89 176.278 339.916 176.369 339.963Z" fill="#263238"/>
<path d="M145.769 344.96C145.643 344.253 145.573 343.537 145.561 342.819C145.468 341.503 145.314 339.678 145.045 337.683C144.775 335.689 144.452 333.887 144.19 332.586C144.011 331.892 143.89 331.183 143.828 330.469C144.115 331.129 144.329 331.818 144.467 332.525C144.888 334.207 145.214 335.911 145.445 337.63C145.672 339.346 145.806 341.073 145.846 342.804C145.894 343.523 145.868 344.246 145.769 344.96Z" fill="#263238"/>
<path opacity="0.4" d="M167.775 328.805L173.081 342.088L177.192 341.326L169.315 328.359L167.775 328.805Z" fill="black"/>
<path d="M236.891 292.4C236.036 292.677 181.235 277.323 159.074 271.094C156.197 270.283 153.18 270.095 150.224 270.543C147.269 270.99 144.443 272.063 141.934 273.689L141.665 273.858C138.026 276.211 135.203 279.629 133.581 283.647C131.959 287.664 131.617 292.085 132.602 296.304C133.234 299.021 134.399 301.585 136.03 303.848C137.662 306.111 139.726 308.027 142.104 309.486C156.734 318.441 187.649 337.275 188.596 336.906C189.836 336.428 228.459 335.427 228.459 335.427L181.99 302.002L204.096 316.293L236.891 292.423V292.4Z" fill="#263238"/>
<path d="M191.137 275.722L202.787 269.693L214.214 276.853L256.98 278.255L263.14 299.045L201.232 284.692C201.232 284.692 189.967 285.693 189.12 283.152C188.273 280.611 191.137 275.722 191.137 275.722Z" fill="#FFBE9D"/>
<path d="M226.18 309.093L220.42 328.02L221.136 333.787C226.208 338.897 232.969 341.983 240.152 342.466C247.336 342.95 254.449 340.798 260.16 336.413C263.7 333.695 266.564 330.196 268.53 326.189C270.496 322.183 271.511 317.776 271.494 313.313L271.41 293.555L226.18 309.093Z" fill="#263238"/>
<path d="M191.884 309.217C191.822 309.301 185.139 304.427 176.961 298.329C168.784 292.23 162.201 287.21 162.27 287.125C162.339 287.041 169.015 291.907 177.2 298.005C185.385 304.104 191.953 309.124 191.884 309.217Z" fill="#455A64"/>
<path d="M202.002 273.465C200.149 274.27 198.246 274.951 196.304 275.506C194.4 276.18 192.456 276.733 190.483 277.161C192.335 276.356 194.238 275.674 196.181 275.121C198.084 274.445 200.028 273.892 202.002 273.465Z" fill="#EB996E"/>
<path d="M202.872 277.015C202.222 277.2 201.557 277.326 200.885 277.393C199.661 277.593 197.975 277.893 196.127 278.317C194.279 278.74 192.631 279.21 191.437 279.564C190.803 279.793 190.152 279.971 189.489 280.095C190.076 279.768 190.699 279.51 191.345 279.325C192.881 278.78 194.447 278.322 196.034 277.955C197.622 277.591 199.228 277.319 200.847 277.138C201.516 277.026 202.194 276.985 202.872 277.015Z" fill="#EB996E"/>
<path d="M201.894 280.28C199.789 280.906 197.647 281.4 195.48 281.758C193.338 282.252 191.167 282.614 188.981 282.844C191.09 282.222 193.234 281.728 195.403 281.366C197.543 280.874 199.71 280.511 201.894 280.28Z" fill="#EB996E"/>
<path d="M186.787 247.786L197.528 283.144C197.589 283.341 197.707 283.515 197.868 283.644C198.028 283.773 198.224 283.851 198.429 283.868L227.689 286.063C227.948 286.08 228.191 286.196 228.369 286.386C228.546 286.576 228.644 286.827 228.644 287.087V288.912C228.644 289.048 228.617 289.183 228.564 289.309C228.511 289.435 228.433 289.549 228.336 289.644C228.238 289.74 228.123 289.814 227.996 289.865C227.869 289.915 227.733 289.939 227.597 289.936L147.517 288.396C147.312 288.392 147.113 288.327 146.945 288.209C146.778 288.091 146.65 287.925 146.577 287.734L132.502 250.858C132.443 250.707 132.421 250.543 132.438 250.382C132.455 250.22 132.51 250.065 132.598 249.928C132.687 249.792 132.807 249.679 132.948 249.598C133.089 249.518 133.248 249.472 133.41 249.465L185.701 247.024C185.943 247.003 186.184 247.068 186.383 247.207C186.581 247.347 186.724 247.552 186.787 247.786Z" fill="#455A64"/>
<path d="M164.226 263.017C163.833 263.163 163.483 263.404 163.206 263.718C162.93 264.033 162.735 264.411 162.639 264.818C162.604 265.244 162.681 265.672 162.864 266.059C163.046 266.445 163.327 266.777 163.679 267.021C164.101 267.326 164.605 267.499 165.126 267.519C165.646 267.538 166.161 267.402 166.605 267.128C167.05 266.798 167.369 266.326 167.509 265.789C167.649 265.253 167.602 264.685 167.375 264.179C167.021 263.201 165.234 262.516 164.203 263.017" fill="#E0E0E0"/>
<path d="M177.192 341.326L168.722 327.404L230.938 278.64C234.809 275.465 239.543 273.526 244.529 273.073C248.161 272.743 251.822 273.211 255.253 274.445C258.685 275.68 261.806 277.65 264.396 280.218C266.986 282.786 268.982 285.889 270.246 289.31C271.509 292.732 272.009 296.388 271.71 300.023L270.717 311.919L229.46 325.217L177.192 341.326Z" fill="#263238"/>
<path d="M256.98 308.277C256.98 308.277 256.934 308.331 256.818 308.431L256.31 308.847L254.331 310.433L252.891 311.565C252.368 311.981 251.744 312.335 251.105 312.82L249.041 314.237C248.672 314.483 248.271 314.753 247.909 315.007L246.67 315.777C244.983 316.786 243.158 317.941 241.087 318.988C240.063 319.527 239.016 320.112 237.915 320.659L234.473 322.283C229.338 324.636 224.087 326.728 218.742 328.551C207.376 332.471 196.874 335.289 189.351 337.568C187.464 338.122 185.763 338.646 184.269 339.108C182.775 339.57 181.497 339.963 180.419 340.317L178.016 341.087L177.385 341.279C177.313 341.305 177.238 341.323 177.162 341.333L177.37 341.241L177.986 341.01L180.373 340.155C181.404 339.778 182.683 339.385 184.176 338.877C185.67 338.369 187.356 337.845 189.235 337.275C196.743 334.919 207.238 332.063 218.58 328.151C224.263 326.218 229.552 324.062 234.288 321.929L237.722 320.32C238.831 319.781 239.878 319.203 240.902 318.672C242.974 317.64 244.798 316.501 246.492 315.515L247.732 314.784C248.125 314.537 248.502 314.276 248.872 314.014L251.02 312.62C251.659 312.181 252.283 311.804 252.814 311.396L254.269 310.287L256.295 308.747L256.834 308.362L256.98 308.277Z" fill="#455A64"/>
<path d="M258.489 314.784C258.298 314.924 258.088 315.035 257.865 315.115C257.45 315.3 256.841 315.554 256.079 315.831C254.09 316.564 252.052 317.156 249.981 317.602C247.907 318.045 245.805 318.343 243.69 318.495C242.881 318.549 242.219 318.572 241.765 318.572C241.528 318.59 241.29 318.577 241.056 318.534C241.92 318.378 242.791 318.27 243.667 318.21C245.268 318.033 247.517 317.725 249.896 317.209C252.275 316.693 254.447 316.062 255.987 315.569C256.806 315.262 257.641 315 258.489 314.784Z" fill="#455A64"/>
<path d="M228.459 280.981C228.528 281.073 215.215 291.537 198.722 304.35C182.228 317.163 168.799 327.496 168.738 327.404C168.676 327.312 181.982 316.855 198.475 304.035C214.969 291.214 228.397 280.896 228.459 280.981Z" fill="#455A64"/>
<path d="M224.84 332.725C221.86 331.138 218.511 332.078 215.654 333.04C213.752 333.679 211.804 334.696 209.848 334.149C208.454 333.756 207.415 332.609 206.345 331.647C204.185 329.661 201.65 328.128 198.889 327.137C196.128 326.147 193.196 325.719 190.267 325.879C188.594 325.96 187.014 326.673 185.847 327.874C182.914 331.054 185.123 335.181 187.749 337.884C192.427 342.639 198.605 345.631 205.236 346.354C210.695 346.924 218.203 346.169 223.716 343.797C227.127 342.334 228.875 338.307 227.088 335.058C226.585 334.076 225.803 333.264 224.84 332.725Z" fill="#179E97"/>
<g opacity="0.4">
<path d="M224.84 335.266C221.852 333.68 218.503 334.619 215.646 335.581C213.744 336.221 211.796 337.237 209.84 336.69C208.447 336.298 207.407 335.15 206.337 334.188C204.178 332.202 201.643 330.669 198.881 329.678C196.12 328.688 193.188 328.26 190.259 328.42C188.587 328.501 187.007 329.214 185.84 330.415C185.249 331.045 184.825 331.812 184.608 332.648C185.173 334.63 186.254 336.426 187.741 337.853C192.42 342.608 198.597 345.6 205.228 346.323C210.687 346.893 218.195 346.138 223.708 343.767C224.687 343.35 225.554 342.708 226.237 341.893C226.921 341.078 227.403 340.113 227.643 339.077C227.469 338.282 227.127 337.533 226.64 336.88C226.152 336.228 225.531 335.688 224.817 335.297L224.84 335.266Z" fill="black"/>
</g>
<path d="M227.689 339.046C227.56 338.415 227.311 337.814 226.958 337.275C226.53 336.665 225.989 336.142 225.364 335.735C224.54 335.179 223.6 334.82 222.615 334.688C220.405 334.426 217.833 335.358 214.984 336.128C213.575 336.505 212.035 337.075 210.364 336.898C209.519 336.789 208.707 336.506 207.977 336.066C207.251 335.614 206.565 335.099 205.929 334.526C203.606 332.319 200.816 330.661 197.767 329.675C196.449 329.228 195.09 328.913 193.709 328.736C192.509 328.563 191.29 328.563 190.09 328.736C189.109 328.885 188.164 329.213 187.303 329.706C186.658 330.08 186.073 330.55 185.57 331.1C184.8 332.062 184.515 332.717 184.469 332.686C184.708 332.076 185.04 331.507 185.455 331C185.935 330.395 186.512 329.874 187.164 329.46C188.043 328.922 189.019 328.561 190.036 328.397C191.261 328.215 192.507 328.215 193.732 328.397C195.137 328.566 196.522 328.873 197.867 329.314C199.351 329.807 200.785 330.441 202.148 331.208C202.875 331.61 203.572 332.062 204.235 332.563C204.905 333.087 205.528 333.656 206.175 334.211C206.794 334.781 207.462 335.296 208.17 335.751C208.851 336.156 209.608 336.418 210.395 336.521C211.935 336.729 213.475 336.19 214.884 335.82C217.725 335.05 220.336 334.149 222.653 334.449C223.549 334.579 224.407 334.896 225.172 335.38C225.936 335.864 226.589 336.505 227.088 337.26C227.351 337.673 227.539 338.129 227.643 338.607C227.674 338.752 227.689 338.899 227.689 339.046Z" fill="#263238"/>
<path d="M227.689 339.046C227.56 338.415 227.311 337.814 226.958 337.275C226.53 336.665 225.989 336.142 225.364 335.735C224.54 335.179 223.6 334.82 222.615 334.688C220.405 334.426 217.833 335.358 214.984 336.128C213.575 336.505 212.035 337.075 210.364 336.898C209.519 336.789 208.707 336.506 207.977 336.066C207.251 335.614 206.565 335.099 205.929 334.526C203.606 332.319 200.816 330.661 197.767 329.675C196.449 329.228 195.09 328.913 193.709 328.736C192.509 328.563 191.29 328.563 190.09 328.736C189.109 328.885 188.164 329.213 187.303 329.706C186.658 330.08 186.073 330.55 185.57 331.1C184.8 332.062 184.515 332.717 184.469 332.686C184.708 332.076 185.04 331.507 185.455 331C185.935 330.395 186.512 329.874 187.164 329.46C188.043 328.922 189.019 328.561 190.036 328.397C191.261 328.215 192.507 328.215 193.732 328.397C195.137 328.566 196.522 328.873 197.867 329.314C199.351 329.807 200.785 330.441 202.148 331.208C202.875 331.61 203.572 332.062 204.235 332.563C204.905 333.087 205.528 333.656 206.175 334.211C206.794 334.781 207.462 335.296 208.17 335.751C208.851 336.156 209.608 336.418 210.395 336.521C211.935 336.729 213.475 336.19 214.884 335.82C217.725 335.05 220.336 334.149 222.653 334.449C223.549 334.579 224.407 334.896 225.172 335.38C225.936 335.864 226.589 336.505 227.088 337.26C227.351 337.673 227.539 338.129 227.643 338.607C227.674 338.752 227.689 338.899 227.689 339.046Z" fill="#263238"/>
<path d="M190.675 338.323C191.145 337.911 191.662 337.557 192.215 337.268C193.493 336.495 194.812 335.79 196.165 335.158C197.519 334.52 198.904 333.952 200.316 333.456C200.89 333.222 201.489 333.054 202.102 332.956C201.565 333.264 201 333.522 200.416 333.726C199.361 334.165 197.913 334.781 196.335 335.52C194.756 336.259 193.362 336.983 192.354 337.514C191.823 337.839 191.26 338.11 190.675 338.323Z" fill="#263238"/>
<path d="M191.73 341.31C193.61 340.179 195.556 339.164 197.559 338.269C199.505 337.256 201.511 336.361 203.565 335.589C201.685 336.72 199.739 337.736 197.736 338.631C195.791 339.647 193.785 340.541 191.73 341.31Z" fill="#263238"/>
<path d="M204.05 342.604C203.988 342.696 200.808 340.802 196.951 338.369C193.093 335.936 190.021 333.88 190.021 333.787C190.021 333.695 193.255 335.589 197.12 338.03C200.985 340.471 204.127 342.511 204.05 342.604Z" fill="#263238"/>
<path d="M205.852 339.508C205.308 339.21 204.792 338.862 204.312 338.469C203.38 337.791 202.087 336.86 200.639 335.859C199.191 334.858 197.875 333.972 196.912 333.333C196.363 333.021 195.848 332.655 195.372 332.24C195.958 332.464 196.518 332.75 197.043 333.094C198.044 333.672 199.407 334.527 200.893 335.528C202.379 336.529 203.619 337.506 204.512 338.246C205.009 338.609 205.459 339.034 205.852 339.508Z" fill="#263238"/>
</svg>
