<svg width="275" height="275" viewBox="0 0 275 275" fill="none" xmlns="http://www.w3.org/2000/svg">
<path d="M74.9705 69.5035C69.973 69.5035 65.1802 67.5183 61.6465 63.9845C58.1127 60.4508 56.1275 55.658 56.1275 50.6605C56.1275 45.663 58.1127 40.8702 61.6465 37.3365C65.1802 33.8027 69.973 31.8175 74.9705 31.8175C79.968 31.8175 84.7608 33.8027 88.2945 37.3365C91.8283 40.8702 93.8135 45.663 93.8135 50.6605C93.8135 55.658 91.8283 60.4508 88.2945 63.9845C84.7608 67.5183 79.968 69.5035 74.9705 69.5035Z" fill="#EBEBEB"/>
<path d="M70.323 46.464H66.4235V59.0645H70.323V46.464Z" fill="white"/>
<path d="M68.354 44.814C68.8151 44.8184 69.267 44.6857 69.6525 44.4327C70.038 44.1797 70.3396 43.8179 70.519 43.3932C70.6985 42.9685 70.7477 42.5 70.6605 42.0473C70.5732 41.5946 70.3534 41.178 70.0289 40.8504C69.7044 40.5228 69.2899 40.299 68.838 40.2075C68.3862 40.1159 67.9172 40.1607 67.4909 40.3361C67.0645 40.5115 66.6998 40.8097 66.4432 41.1927C66.1865 41.5758 66.0495 42.0265 66.0495 42.4875C66.048 43.1012 66.2897 43.6905 66.7215 44.1265C67.1534 44.5625 67.7403 44.8097 68.354 44.814Z" fill="white"/>
<path d="M76.56 52.448C76.56 50.677 77.374 49.621 78.936 49.621C80.366 49.621 81.059 50.633 81.059 52.448V59.048H84.9365V51.084C84.9365 47.707 83.028 46.079 80.355 46.079C79.5969 46.0692 78.8492 46.2555 78.1843 46.6197C77.5194 46.984 76.9599 47.5139 76.56 48.158V46.464H72.8145V59.059H76.56V52.448Z" fill="white"/>
<path d="M100.221 13.1395L102.8 17.853L107.519 20.438L102.8 23.0175L100.221 27.731L97.6415 23.0175L92.9225 20.438L97.6415 17.853L100.221 13.1395Z" fill="#F5F5F5"/>
<path d="M207.829 140.948L209.765 144.49L213.301 146.421L209.765 148.357L207.829 151.899L205.893 148.357L202.356 146.421L205.893 144.49L207.829 140.948Z" fill="#EBEBEB"/>
<path d="M213.301 123.48L214.175 125.075L215.77 125.95L214.175 126.824L213.301 128.419L212.432 126.824L210.831 125.95L212.432 125.075L213.301 123.48Z" fill="#E0E0E0"/>
<path d="M81.7905 14.9105L82.665 16.511L84.26 17.38L82.665 18.2545L81.7905 19.8495L80.9215 18.2545L79.321 17.38L80.9215 16.511L81.7905 14.9105Z" fill="#E0E0E0"/>
<path d="M38.0215 163.218C39.0363 162.753 39.8928 162.001 40.4851 161.055C41.0774 160.109 41.3796 159.01 41.3545 157.894C41.3545 154.743 38.907 152.213 35.9535 152.235C33 152.257 30.6295 154.836 30.657 157.988C30.649 159.113 30.975 160.215 31.5938 161.155C32.2126 162.095 33.0962 162.83 34.133 163.268C25.916 164.615 26.4 173.558 26.4 173.558L45.8645 173.393C45.8645 173.393 46.2 164.346 38.0215 163.218Z" fill="#E0E0E0"/>
<path d="M224.752 222.167C224.615 221.462 224.231 220.828 223.67 220.379C223.109 219.93 222.406 219.695 221.688 219.716C220.97 219.737 220.282 220.013 219.748 220.494C219.214 220.975 218.869 221.631 218.773 222.343C218.674 221.632 218.324 220.979 217.788 220.501C217.252 220.024 216.563 219.752 215.845 219.735C215.127 219.718 214.426 219.956 213.867 220.408C213.309 220.859 212.929 221.494 212.795 222.2C212.651 223.243 212.915 224.301 213.532 225.154C214.143 225.994 214.86 226.752 215.666 227.409C216.766 228.382 217.761 229.29 218.85 230.258C219.95 229.279 220.847 228.36 221.925 227.381C222.728 226.718 223.439 225.953 224.042 225.104C224.644 224.251 224.898 223.201 224.752 222.167Z" fill="#EBEBEB"/>
<path d="M237.43 106.233L239.514 105.82L242.814 98.571L241.989 94.4075C241.989 94.4075 245.173 93.5715 245.877 99.099C246.581 104.627 246.714 103.158 246.714 103.158C246.714 103.158 253.561 101.827 254.248 102.306C254.749 102.658 256.283 109.423 257.086 113.097C257.309 113.977 257.23 114.907 256.862 115.737C256.494 116.568 255.859 117.251 255.057 117.678C254.829 117.79 254.586 117.872 254.336 117.92C252.631 118.261 243.634 118.602 243.634 118.602L240.031 119.317L237.43 106.233Z" fill="#E0E0E0"/>
<path d="M231.231 106.271L235.34 120.285L238.915 119.575L236.143 105.6L231.231 106.271Z" fill="#E0E0E0"/>
<path d="M258.758 258.126C258.758 258.209 204.215 258.269 136.95 258.269C69.685 258.269 15.125 258.209 15.125 258.126C15.125 258.044 69.6575 257.983 136.95 257.983C204.243 257.983 258.758 258.049 258.758 258.126Z" fill="#263238"/>
<path d="M238.7 163.768C236.808 163.047 235.078 161.96 233.607 160.569C232.136 159.178 230.953 157.511 230.127 155.663C229.301 153.814 228.848 151.821 228.793 149.798C228.738 147.774 229.082 145.759 229.806 143.869C230.527 141.978 231.614 140.247 233.004 138.776C234.394 137.305 236.061 136.122 237.908 135.296C239.756 134.469 241.749 134.015 243.772 133.959C245.795 133.903 247.81 134.247 249.7 134.97C251.591 135.691 253.322 136.779 254.793 138.169C256.264 139.56 257.446 141.227 258.273 143.076C259.099 144.924 259.552 146.917 259.607 148.94C259.662 150.964 259.318 152.979 258.593 154.869C257.873 156.76 256.786 158.491 255.396 159.962C254.006 161.433 252.339 162.616 250.491 163.442C248.644 164.269 246.651 164.723 244.628 164.779C242.605 164.835 240.59 164.491 238.7 163.768Z" fill="#088C85"/>
<path fill-rule="evenodd" clip-rule="evenodd" d="M252.252 151.987C252.939 149.965 252.821 147.756 251.921 145.82C251.022 143.883 249.411 142.367 247.422 141.588C245.434 140.809 243.222 140.826 241.246 141.636C239.27 142.446 237.683 143.987 236.814 145.937C236.764 146.047 236.72 146.162 236.676 146.272C236.138 147.674 235.997 149.196 236.269 150.672L233.294 154.264L238.112 154.539C239.04 155.637 240.238 156.475 241.588 156.971C242.938 157.466 244.393 157.603 245.812 157.366C247.23 157.13 248.563 156.529 249.68 155.623C250.796 154.717 251.658 153.536 252.181 152.196C252.208 152.128 252.232 152.058 252.252 151.987ZM241.956 155.688C240.681 155.205 239.577 154.355 238.783 153.246L235.972 153.087L237.705 150.997C237.316 149.589 237.387 148.094 237.908 146.729C237.991 146.52 238.084 146.311 238.183 146.113C238.967 144.561 240.301 143.357 241.926 142.737C243.55 142.118 245.347 142.126 246.966 142.762C248.584 143.398 249.907 144.615 250.675 146.175C251.443 147.734 251.601 149.525 251.119 151.195C251.07 151.371 251.015 151.541 250.949 151.712C250.282 153.431 248.961 154.815 247.275 155.561C245.589 156.306 243.676 156.352 241.956 155.688Z" fill="white"/>
<path fill-rule="evenodd" clip-rule="evenodd" d="M247.39 152.13C247.23 151.965 246.477 151.151 246.323 151.03C246.169 150.909 246.059 150.821 245.861 150.964C245.663 151.107 245.129 151.388 244.975 151.47C244.821 151.553 244.7 151.525 244.546 151.36C244.07 150.924 243.674 150.409 243.375 149.837C243.108 149.299 242.923 148.724 242.825 148.132C242.792 147.901 242.924 147.835 243.056 147.78C243.188 147.725 243.331 147.631 243.469 147.56L243.573 147.494C243.645 147.438 243.713 147.377 243.776 147.312C243.823 147.271 243.859 147.218 243.879 147.16C243.899 147.101 243.904 147.038 243.892 146.977C243.892 146.867 243.853 145.789 243.837 145.354C243.82 144.92 243.639 144.92 243.529 144.876C243.419 144.832 243.298 144.766 243.171 144.722C243.074 144.686 242.971 144.672 242.868 144.678C242.765 144.685 242.664 144.713 242.572 144.76C242.281 144.882 242.019 145.063 241.801 145.291C241.583 145.519 241.415 145.789 241.307 146.086C241.227 146.303 241.177 146.531 241.158 146.762C241.127 147.291 241.189 147.822 241.34 148.33C241.389 148.489 241.857 150.92 243.496 152.416C245.135 153.912 245.239 153.659 245.602 153.758C245.891 153.814 246.187 153.807 246.472 153.737C246.757 153.666 247.024 153.535 247.252 153.351C247.486 153.119 247.645 152.822 247.709 152.499C247.648 152.394 247.544 152.295 247.39 152.13Z" fill="white"/>
<path d="M38.2965 92.532C35.1793 92.532 32.1897 91.2937 29.9855 89.0895C27.7813 86.8853 26.543 83.8957 26.543 80.7785C26.543 77.6613 27.7813 74.6718 29.9855 72.4675C32.1897 70.2633 35.1793 69.025 38.2965 69.025C39.84 69.025 41.3684 69.329 42.7944 69.9197C44.2204 70.5104 45.5161 71.3761 46.6075 72.4675C47.6989 73.559 48.5646 74.8547 49.1553 76.2807C49.746 77.7067 50.05 79.235 50.05 80.7785C50.05 82.322 49.746 83.8504 49.1553 85.2764C48.5646 86.7024 47.6989 87.9981 46.6075 89.0895C45.5161 90.1809 44.2204 91.0467 42.7944 91.6373C41.3684 92.228 39.84 92.532 38.2965 92.532Z" fill="#088C85"/>
<path d="M32.0375 84.7C33.1663 85.4201 34.4711 85.8166 35.8097 85.8463C37.1483 85.8759 38.4693 85.5376 39.6289 84.8682C40.7885 84.1987 41.7421 83.2239 42.3858 82.0499C43.0295 80.8758 43.3386 79.5476 43.2795 78.21C43.7764 77.8492 44.2063 77.4044 44.55 76.8955C44.0792 77.1021 43.5808 77.2393 43.0705 77.3025C43.6084 76.9882 44.0146 76.4901 44.2145 75.9C43.7054 76.2028 43.1468 76.4132 42.5645 76.5215C42.1788 76.0996 41.6635 75.8181 41.1001 75.7214C40.5367 75.6247 39.9571 75.7184 39.4527 75.9875C38.9484 76.2567 38.548 76.6862 38.3148 77.2081C38.0815 77.73 38.0286 78.3147 38.1645 78.87C37.1426 78.8174 36.1431 78.5509 35.2307 78.0876C34.3184 77.6243 33.5134 76.9746 32.868 76.1805C32.541 76.7471 32.4414 77.4167 32.5895 78.0539C32.7376 78.6911 33.1222 79.2482 33.6655 79.6125C33.2568 79.602 32.8567 79.4925 32.4995 79.2935C32.4927 79.8924 32.6949 80.475 33.0714 80.9408C33.4479 81.4066 33.975 81.7266 34.562 81.8455C34.1836 81.9486 33.7866 81.9637 33.4015 81.8895C33.5662 82.3991 33.8857 82.8446 34.3155 83.1641C34.7453 83.4835 35.2641 83.6609 35.7995 83.6715C34.7281 84.4929 33.3777 84.8621 32.0375 84.7Z" fill="white"/>
<path d="M59.4 224.185C54.1802 225.425 48.6818 224.542 44.1131 221.729C39.5444 218.917 36.2792 214.406 35.035 209.187C34.4182 206.6 34.3173 203.916 34.7382 201.29C35.1591 198.664 36.0935 196.146 37.488 193.881C38.8825 191.617 40.7097 189.649 42.8652 188.091C45.0206 186.532 47.4621 185.414 50.05 184.8C52.6357 184.184 55.3175 184.083 57.9423 184.503C60.567 184.923 63.0832 185.856 65.3473 187.249C67.6114 188.642 69.5789 190.467 71.1376 192.62C72.6963 194.774 73.8155 197.213 74.4315 199.798C75.0481 202.387 75.1482 205.071 74.7263 207.698C74.3043 210.326 73.3685 212.844 71.9724 215.109C70.5762 217.374 68.7472 219.341 66.5899 220.899C64.4326 222.456 61.9894 223.573 59.4 224.185Z" fill="#455A64"/>
<path d="M52.6185 195.646C55.5005 194.959 55.847 194.887 57.0185 194.667C57.7041 194.513 58.411 194.478 59.1085 194.563C59.6191 194.624 60.1095 194.799 60.544 195.074C60.9825 195.34 61.3579 195.699 61.644 196.125C62.0333 196.71 62.3197 197.357 62.491 198.039C62.8155 199.166 62.909 199.507 63.591 202.389C64.273 205.271 64.3445 205.618 64.5645 206.789C64.7214 207.474 64.7568 208.182 64.669 208.879C64.6128 209.391 64.4377 209.883 64.1575 210.315C63.8949 210.754 63.5379 211.13 63.1125 211.415C62.5252 211.804 61.8762 212.09 61.193 212.262C60.093 212.586 59.73 212.68 56.848 213.362C53.966 214.044 53.6195 214.121 52.448 214.341C51.7609 214.497 51.0518 214.533 50.3525 214.445C49.8416 214.385 49.3508 214.21 48.917 213.934C48.4829 213.659 48.1177 213.288 47.85 212.85C47.4573 212.266 47.1688 211.619 46.9975 210.936C46.6785 209.809 46.585 209.473 45.8975 206.591C45.21 203.709 45.1385 203.363 44.9185 202.191C44.7675 201.503 44.7321 200.795 44.814 200.096C44.8816 199.587 45.0557 199.098 45.3248 198.661C45.594 198.224 45.9521 197.849 46.376 197.56C46.9605 197.168 47.6079 196.88 48.29 196.708C49.39 196.389 49.7585 196.295 52.6405 195.608M52.1785 193.661C49.247 194.359 48.8785 194.458 47.74 194.788C46.8492 195.009 46.0028 195.381 45.2375 195.888C44.5883 196.337 44.0394 196.916 43.6256 197.588C43.2119 198.26 42.9423 199.011 42.834 199.793C42.7185 200.71 42.7594 201.64 42.955 202.543C43.1805 203.704 43.252 204.078 43.9505 207.009C44.649 209.941 44.748 210.309 45.0505 211.442C45.2705 212.333 45.6426 213.18 46.1505 213.945C46.5981 214.618 47.1899 215.184 47.883 215.6C48.55 216.02 49.301 216.288 50.083 216.387C50.9999 216.503 51.9299 216.462 52.833 216.266C53.9935 216.046 54.3675 215.969 57.299 215.27C60.2305 214.572 60.599 214.473 61.732 214.17C62.6215 213.945 63.4673 213.573 64.2345 213.07C64.8905 212.628 65.4423 212.048 65.8515 211.371C66.2691 210.702 66.5391 209.952 66.6435 209.171C66.7574 208.253 66.7146 207.323 66.517 206.421C66.297 205.255 66.22 204.886 65.5215 201.955C64.823 199.023 64.724 198.655 64.4215 197.516C64.1956 196.627 63.8239 195.781 63.3215 195.014C62.8789 194.359 62.2989 193.809 61.622 193.402C60.956 192.979 60.2048 192.709 59.422 192.61C58.5051 192.494 57.5751 192.535 56.672 192.731C55.506 192.957 55.1375 193.028 52.206 193.727" fill="white"/>
<path d="M53.405 198.952C52.3088 199.213 51.3147 199.793 50.5483 200.619C49.7819 201.445 49.2777 202.48 49.0995 203.593C48.9212 204.706 49.0768 205.846 49.5467 206.87C50.0166 207.895 50.7797 208.757 51.7394 209.347C52.6991 209.938 53.8124 210.23 54.9385 210.188C56.0646 210.146 57.1529 209.771 58.0659 209.111C58.9788 208.45 59.6754 207.534 60.0676 206.477C60.4597 205.421 60.5298 204.272 60.269 203.176C59.9178 201.706 58.9978 200.436 57.7108 199.644C56.4239 198.852 54.8753 198.603 53.405 198.952ZM55.605 208.098C54.8928 208.266 54.1468 208.22 53.4611 207.964C52.7755 207.708 52.181 207.255 51.7528 206.662C51.3246 206.068 51.0818 205.361 51.0553 204.63C51.0287 203.899 51.2195 203.176 51.6035 202.553C51.9875 201.93 52.5476 201.435 53.2129 201.13C53.8782 200.826 54.6189 200.725 55.3414 200.841C56.0639 200.957 56.7358 201.285 57.2721 201.782C57.8085 202.28 58.1854 202.926 58.355 203.638C58.4678 204.111 58.4862 204.602 58.409 205.083C58.3318 205.563 58.1606 206.024 57.9051 206.438C57.6497 206.852 57.3151 207.212 56.9204 207.497C56.5257 207.782 56.0787 207.986 55.605 208.098Z" fill="white"/>
<path d="M60.412 197.054C60.4721 197.31 60.4551 197.578 60.363 197.825C60.2709 198.071 60.1079 198.284 59.8945 198.438C59.6812 198.592 59.427 198.679 59.1642 198.689C58.9014 198.698 58.6417 198.629 58.4178 198.491C58.1939 198.353 58.016 198.152 57.9064 197.913C57.7967 197.674 57.7604 197.408 57.8019 197.148C57.8435 196.889 57.961 196.647 58.1397 196.454C58.3184 196.261 58.5502 196.125 58.806 196.064C58.9765 196.022 59.1536 196.015 59.3269 196.042C59.5003 196.07 59.6665 196.131 59.8159 196.223C59.9653 196.315 60.0949 196.436 60.1973 196.579C60.2996 196.722 60.3726 196.883 60.412 197.054Z" fill="white"/>
<path d="M212.745 206.371C211.506 206.372 210.278 206.128 209.132 205.654C207.986 205.18 206.945 204.485 206.068 203.609C205.191 202.732 204.496 201.691 204.021 200.546C203.546 199.401 203.302 198.173 203.302 196.933C203.302 195.693 203.546 194.465 204.021 193.32C204.496 192.175 205.191 191.134 206.068 190.257C206.945 189.381 207.986 188.686 209.132 188.212C210.278 187.738 211.506 187.494 212.745 187.495C213.986 187.493 215.215 187.735 216.362 188.209C217.509 188.682 218.552 189.377 219.43 190.254C220.308 191.13 221.005 192.171 221.48 193.317C221.955 194.464 222.2 195.692 222.2 196.933C222.2 198.174 221.955 199.402 221.48 200.549C221.005 201.695 220.308 202.736 219.43 203.613C218.552 204.489 217.509 205.184 216.362 205.657C215.215 206.131 213.986 206.373 212.745 206.371Z" fill="#455A64"/>
<path d="M211.304 202.636H213.603V196.9H215.204L215.38 194.975H213.603V193.875C213.603 193.424 213.697 193.242 214.153 193.242H215.402V191.24H213.807C212.096 191.24 211.326 191.994 211.326 193.44V194.98H210.1V196.9H211.293L211.304 202.636Z" fill="white"/>
<path d="M180.548 258.528L104.709 258.5C100.333 258.5 96.1361 256.762 93.0417 253.667C89.9474 250.573 88.209 246.376 88.209 242L88.242 51.876C88.242 49.7064 88.6699 47.5581 89.5011 45.5541C90.3324 43.5501 91.5507 41.7297 93.0864 40.1971C94.622 38.6645 96.4449 37.4498 98.4506 36.6225C100.456 35.7953 102.605 35.3717 104.775 35.376L180.609 35.42C184.985 35.42 189.182 37.1584 192.276 40.2527C195.371 43.3471 197.109 47.5439 197.109 51.92L197.076 242C197.08 244.171 196.655 246.322 195.825 248.329C194.996 250.336 193.779 252.159 192.243 253.695C190.708 255.23 188.884 256.448 186.878 257.277C184.871 258.106 182.72 258.531 180.548 258.528Z" fill="#263238"/>
<path d="M180.526 42.086H165.819C164.854 42.1091 163.937 42.513 163.269 43.2095C162.6 43.906 162.234 44.8386 162.25 45.804V48.4715C162.261 48.9509 162.177 49.4277 162.004 49.8746C161.83 50.3216 161.57 50.73 161.239 51.0763C160.907 51.4227 160.51 51.7003 160.071 51.8932C159.633 52.0861 159.16 52.1905 158.68 52.2005H130.02C129.54 52.1898 129.068 52.0847 128.629 51.8912C128.19 51.6977 127.793 51.4196 127.462 51.0728C127.13 50.726 126.87 50.3173 126.697 49.87C126.523 49.4227 126.44 48.9456 126.45 48.466V45.782C126.47 44.8142 126.105 43.8781 125.436 43.1784C124.767 42.4786 123.849 42.072 122.881 42.0475H117.7H104.835C103.316 42.0439 101.812 42.34 100.407 42.9188C99.0026 43.4976 97.726 44.3478 96.6506 45.4207C95.5752 46.4936 94.722 47.7681 94.1398 49.1712C93.5576 50.5743 93.258 52.0784 93.258 53.5975L93.2195 239.173C93.2195 242.236 94.4364 245.174 96.6024 247.34C98.7684 249.506 101.706 250.723 104.769 250.723L180.46 250.767C181.977 250.767 183.479 250.468 184.88 249.888C186.282 249.307 187.555 248.457 188.628 247.384C189.7 246.312 190.551 245.038 191.131 243.637C191.712 242.236 192.01 240.734 192.01 239.217L192.049 53.636C192.049 50.5775 190.836 47.6439 188.676 45.4786C186.516 43.3134 183.585 42.0933 180.526 42.086Z" fill="white"/>
<path d="M181.632 57.1615C181.632 57.211 179.718 57.266 177.364 57.2825C175.01 57.299 173.09 57.2825 173.09 57.233C173.09 57.1835 174.999 57.123 177.358 57.1065C179.718 57.09 181.632 57.112 181.632 57.1615Z" fill="#263238"/>
<path d="M181.648 59.345C181.648 59.3945 179.74 59.4495 177.381 59.4715C175.021 59.4935 173.107 59.4715 173.107 59.4165C173.107 59.3615 175.021 59.312 177.381 59.29C179.74 59.268 181.648 59.2955 181.648 59.345Z" fill="#263238"/>
<path d="M181.67 61.5285C181.67 61.578 179.756 61.6385 177.397 61.655C175.037 61.6715 173.129 61.655 173.123 61.6C173.118 61.545 175.037 61.4955 177.397 61.4735C179.756 61.4515 181.67 61.479 181.67 61.5285Z" fill="#263238"/>
<path d="M101.2 63.6625H101.425H102.047L104.346 63.6075L104.28 63.668C104.28 63.162 104.28 62.6065 104.252 62.018C104.252 61.71 104.252 61.4185 104.252 61.061C104.289 60.8763 104.383 60.7079 104.521 60.5803C104.66 60.4527 104.835 60.3726 105.022 60.3515C105.396 60.3515 105.721 60.3515 106.122 60.3515C106.333 60.3855 106.524 60.4933 106.662 60.6556C106.8 60.8178 106.876 61.024 106.876 61.237C106.876 62.018 106.876 62.8265 106.903 63.668L106.799 63.5635H109.697L109.587 63.6735C109.587 62.5075 109.587 61.2975 109.554 60.06C109.554 59.752 109.554 59.4495 109.554 59.1415C109.542 59.0046 109.499 58.8723 109.429 58.7542C109.358 58.6362 109.262 58.5355 109.147 58.4595L107.882 57.2055L106.656 56.001L106.067 55.418C105.864 55.22 105.704 55.0165 105.468 54.967C105.355 54.9372 105.236 54.9331 105.121 54.9549C105.006 54.9768 104.897 55.0242 104.802 55.0935C104.626 55.242 104.439 55.451 104.252 55.6435L103.207 56.694C102.553 57.3705 101.871 57.992 101.376 58.5805C101.229 58.9273 101.18 59.3077 101.233 59.6805C101.233 60.038 101.233 60.379 101.233 60.698C101.233 61.325 101.233 61.875 101.233 62.348C101.233 62.821 101.233 63.1125 101.233 63.3985C101.241 63.5249 101.241 63.6516 101.233 63.778C101.227 63.6626 101.227 63.5469 101.233 63.4315C101.233 63.151 101.233 62.8045 101.233 62.392C101.233 61.9795 101.233 61.3635 101.194 60.742C101.194 60.412 101.194 60.0655 101.194 59.697C101.194 59.51 101.194 59.323 101.194 59.147C101.193 58.9348 101.248 58.726 101.354 58.542C101.904 57.8875 102.531 57.3045 103.191 56.606L104.225 55.5445C104.412 55.363 104.56 55.1815 104.775 54.9945C104.893 54.9044 105.03 54.8422 105.176 54.8127C105.322 54.7832 105.472 54.787 105.616 54.824C105.89 54.9246 106.132 55.0975 106.315 55.3245L106.909 55.9075L108.135 57.112L109.406 58.355C109.525 58.4618 109.634 58.5797 109.73 58.707C109.826 58.853 109.879 59.0223 109.884 59.1965C109.884 59.5045 109.884 59.8125 109.884 60.1205C109.884 61.358 109.884 62.568 109.912 63.734V63.844H109.802H106.903H106.7V63.7395C106.7 62.898 106.7 62.0895 106.7 61.3085C106.704 61.1407 106.647 60.9772 106.54 60.8479C106.433 60.7186 106.283 60.6322 106.117 60.6045C105.781 60.6045 105.385 60.6045 105.061 60.6045C104.913 60.6193 104.773 60.6804 104.661 60.7792C104.55 60.8779 104.472 61.0092 104.439 61.1545C104.439 61.446 104.439 61.7815 104.439 62.0785C104.439 62.678 104.439 63.239 104.439 63.7285V63.7945H104.373H102.036H101.425C101.346 63.7585 101.27 63.7142 101.2 63.6625Z" fill="#263238"/>
<path d="M151.25 208.675C150.986 208.717 150.719 208.735 150.452 208.73L148.285 208.774C146.459 208.802 143.929 208.818 141.135 208.818C138.341 208.818 135.811 208.818 133.985 208.774L131.818 208.73C131.552 208.735 131.285 208.717 131.021 208.675C131.284 208.631 131.551 208.612 131.818 208.62L133.985 208.571C135.811 208.571 138.341 208.532 141.135 208.532C143.929 208.532 146.454 208.532 148.285 208.571L150.452 208.62C150.719 208.612 150.987 208.63 151.25 208.675Z" fill="#455A64"/>
<path d="M183.023 213.648C183.023 213.73 171.38 213.791 157.019 213.791C142.659 213.791 131.016 213.73 131.016 213.648C131.016 213.565 142.659 213.505 157.019 213.505C171.38 213.505 183.023 213.571 183.023 213.648Z" fill="#455A64"/>
<path d="M166.771 218.35C166.771 218.433 158.769 218.493 148.896 218.493C139.023 218.493 131.016 218.433 131.016 218.35C131.016 218.268 139.018 218.207 148.896 218.207C158.774 218.207 166.771 218.251 166.771 218.35Z" fill="#455A64"/>
<path d="M184.052 227.442L182.435 225.819L180.895 227.354V222.712H184.046L184.052 227.442ZM182.435 225.616L182.484 225.665L183.909 227.095V222.86H181.043V227.013L182.435 225.616Z" fill="#263238"/>
<path d="M141.025 226.836L140.475 226.583C140.147 226.738 139.773 226.764 139.426 226.658C139.079 226.551 138.785 226.318 138.6 226.006C138.415 225.693 138.354 225.323 138.428 224.968C138.502 224.613 138.706 224.298 138.999 224.085C139.293 223.872 139.656 223.776 140.017 223.816C140.377 223.856 140.71 224.03 140.95 224.302C141.189 224.575 141.319 224.927 141.312 225.29C141.306 225.653 141.164 226 140.915 226.264L141.025 226.836ZM139.7 223.745C139.324 223.772 138.972 223.94 138.716 224.217C138.46 224.494 138.32 224.858 138.323 225.235C138.327 225.612 138.474 225.974 138.735 226.246C138.996 226.518 139.351 226.68 139.727 226.699C139.979 226.682 140.222 226.604 140.437 226.473L140.86 226.66L140.761 226.248C140.955 226.036 141.083 225.772 141.129 225.489C141.175 225.206 141.138 224.915 141.021 224.653C140.904 224.39 140.713 224.168 140.472 224.013C140.23 223.857 139.949 223.776 139.661 223.778L139.7 223.745Z" fill="#263238"/>
<path d="M144.688 226.6L144.039 225.005L142.813 223.905H145.783L144.688 226.6ZM143.088 223.999L144.133 224.956L144.683 226.314L145.618 223.977L143.088 223.999Z" fill="#263238"/>
<path d="M145.721 223.869L144.098 224.925L144.158 225.017L145.781 223.961L145.721 223.869Z" fill="#263238"/>
<path d="M136.345 224.213C136.301 224.001 136.184 223.811 136.014 223.677C135.843 223.543 135.631 223.473 135.415 223.481C135.198 223.488 134.991 223.571 134.83 223.716C134.669 223.862 134.565 224.059 134.535 224.273C134.506 224.056 134.399 223.857 134.236 223.711C134.072 223.566 133.861 223.483 133.642 223.479C133.423 223.475 133.21 223.55 133.041 223.69C132.872 223.829 132.758 224.025 132.72 224.241C132.678 224.557 132.759 224.878 132.946 225.137C133.132 225.392 133.35 225.621 133.595 225.819C133.93 226.11 134.233 226.369 134.563 226.677C134.893 226.38 135.168 226.099 135.498 225.802C135.74 225.6 135.954 225.367 136.136 225.11C136.32 224.849 136.395 224.528 136.345 224.213Z" fill="#088C85"/>
<path d="M187.363 231.55C187.363 231.55 187.363 231.368 187.363 231.033C187.363 230.697 187.363 230.186 187.363 229.526C187.363 228.2 187.363 226.226 187.335 223.718C187.335 218.663 187.308 211.31 187.286 202.086L187.379 202.18L99.429 202.229L99.572 202.086C99.572 212.327 99.572 222.255 99.572 231.55L99.4345 231.412L162.371 231.473L180.741 231.511H185.691H186.967H187.407H186.983H185.724H180.823L162.481 231.55L99.451 231.616H99.308V231.55C99.308 222.255 99.308 212.327 99.308 202.086V201.943H99.462L187.412 201.993H187.506V202.086C187.506 211.332 187.467 218.707 187.456 223.778C187.456 226.297 187.456 228.239 187.456 229.564C187.456 230.213 187.456 230.708 187.456 231.049C187.456 231.39 187.363 231.55 187.363 231.55Z" fill="#263238"/>
<path d="M103.071 207.013L102.959 226.493L127.324 226.634L127.436 207.153L103.071 207.013Z" fill="#EBEBEB"/>
<path d="M127.429 207.141H126.962H125.631H120.631L103.031 207.103L103.163 206.976C103.136 212.779 103.103 219.423 103.07 226.452C103.097 226.49 102.8 226.182 102.927 226.309H104.604H106.254H109.554L115.879 226.347L127.286 226.43L127.171 226.551C127.226 220.699 127.275 215.848 127.314 212.438C127.314 210.744 127.352 209.413 127.363 208.483C127.363 208.038 127.363 207.691 127.363 207.438C127.363 207.185 127.363 207.07 127.363 207.07C127.363 207.07 127.363 207.18 127.363 207.411C127.363 207.642 127.363 207.999 127.363 208.439C127.363 209.358 127.363 210.683 127.363 212.366C127.363 215.793 127.363 220.671 127.363 226.551V226.666H127.242L115.835 226.622L109.51 226.589H106.21H104.56H102.883L102.734 226.441C102.784 219.406 102.822 212.762 102.861 206.965V206.833H102.993L120.648 206.993L125.598 207.059H126.901H127.231L127.429 207.141Z" fill="#263238"/>
<path d="M103.905 208.244L103.807 225.272L126.462 225.402L126.56 208.374L103.905 208.244Z" fill="#E0E0E0"/>
<path d="M103.796 225.258L111.771 214.72L116.633 221.369L119.977 217.849L126.45 225.39L103.796 225.258Z" fill="#F5F5F5"/>
<path d="M118.761 213.466C118.76 213.82 118.654 214.165 118.457 214.459C118.259 214.752 117.979 214.98 117.652 215.115C117.324 215.249 116.965 215.283 116.618 215.212C116.271 215.142 115.953 214.97 115.704 214.719C115.455 214.467 115.286 214.148 115.219 213.8C115.152 213.453 115.189 213.094 115.326 212.768C115.463 212.441 115.694 212.163 115.99 211.969C116.285 211.774 116.631 211.671 116.985 211.673C117.219 211.674 117.451 211.721 117.668 211.811C117.884 211.902 118.08 212.034 118.245 212.201C118.41 212.367 118.541 212.565 118.63 212.782C118.718 212.999 118.763 213.232 118.761 213.466Z" fill="#F5F5F5"/>
<path d="M144.149 80.7785C144.062 80.7932 143.973 80.7932 143.885 80.7785L143.143 80.806L140.393 80.8555C138.077 80.8555 134.893 80.894 131.34 80.894C127.787 80.894 124.602 80.894 122.287 80.8555L119.537 80.806L118.789 80.7785C118.703 80.7937 118.616 80.7937 118.53 80.7785C118.615 80.7576 118.702 80.7483 118.789 80.751H119.537L122.287 80.707C124.602 80.6795 127.787 80.663 131.34 80.663C134.893 80.663 138.077 80.663 140.393 80.707L143.143 80.751H143.885C143.974 80.7487 144.063 80.7579 144.149 80.7785Z" fill="#263238"/>
<path d="M180.142 188.458L177.744 186.049L175.45 188.331V181.434H180.136L180.142 188.458ZM177.744 185.752L177.815 185.823L179.933 187.946V181.654H175.665V187.825L177.744 185.752Z" fill="#263238"/>
<path d="M119.168 187.732L118.068 187.231C117.428 187.529 116.699 187.577 116.025 187.366C115.351 187.156 114.779 186.701 114.422 186.091C114.066 185.482 113.949 184.761 114.095 184.07C114.242 183.379 114.641 182.767 115.214 182.354C115.787 181.942 116.494 181.758 117.196 181.838C117.898 181.919 118.544 182.258 119.009 182.79C119.474 183.322 119.723 184.009 119.709 184.715C119.695 185.421 119.418 186.097 118.932 186.61L119.168 187.732ZM116.545 181.654C116.164 181.657 115.787 181.736 115.436 181.885C115.084 182.033 114.766 182.25 114.499 182.522C114.231 182.794 114.02 183.116 113.877 183.47C113.734 183.823 113.662 184.201 113.666 184.583C113.669 184.964 113.747 185.341 113.896 185.692C114.045 186.043 114.262 186.362 114.534 186.629C114.806 186.896 115.128 187.108 115.481 187.25C115.835 187.393 116.213 187.465 116.594 187.462C117.089 187.432 117.569 187.281 117.991 187.022L118.041 186.995L118.866 187.363L118.679 186.549L118.717 186.511C119.1 186.094 119.351 185.574 119.442 185.016C119.532 184.457 119.457 183.885 119.226 183.369C118.995 182.853 118.618 182.415 118.142 182.11C117.666 181.806 117.11 181.647 116.545 181.654Z" fill="#263238"/>
<path d="M126.384 187.253L125.097 184.113L122.688 181.913L128.54 181.869L126.384 187.253ZM123.233 182.122L125.29 184.008L126.39 186.681L128.227 182.083L123.233 182.122Z" fill="#263238"/>
<path d="M128.424 181.859L125.234 183.935L125.351 184.114L128.541 182.039L128.424 181.859Z" fill="#263238"/>
<path d="M109.961 182.6C109.878 182.179 109.648 181.801 109.312 181.534C108.977 181.267 108.557 181.128 108.128 181.142C107.699 181.156 107.289 181.321 106.971 181.61C106.653 181.898 106.448 182.29 106.392 182.716C106.329 182.292 106.117 181.904 105.795 181.622C105.473 181.339 105.061 181.18 104.633 181.173C104.204 181.165 103.787 181.31 103.456 181.582C103.124 181.853 102.9 182.234 102.822 182.655C102.74 183.277 102.899 183.907 103.268 184.415C103.637 184.916 104.068 185.369 104.549 185.763C105.204 186.313 105.803 186.863 106.458 187.451C107.096 186.868 107.646 186.318 108.289 185.73C108.765 185.329 109.188 184.871 109.549 184.366C109.907 183.851 110.055 183.22 109.961 182.6Z" fill="#088C85"/>
<path d="M109.428 84.7495C111.621 84.7495 113.399 82.9716 113.399 80.7785C113.399 78.5854 111.621 76.8075 109.428 76.8075C107.235 76.8075 105.457 78.5854 105.457 80.7785C105.457 82.9716 107.235 84.7495 109.428 84.7495Z" fill="#EBEBEB"/>
<path d="M178.645 165.688C178.645 165.77 162.002 165.836 141.476 165.836C120.95 165.836 104.302 165.77 104.302 165.688C104.302 165.605 120.945 165.545 141.476 165.545C162.008 165.545 178.645 165.611 178.645 165.688Z" fill="#455A64"/>
<path d="M178.645 159.5C178.645 159.577 162.002 159.643 141.476 159.643C120.95 159.643 104.302 159.577 104.302 159.5C104.302 159.423 120.945 159.357 141.476 159.357C162.008 159.357 178.645 159.423 178.645 159.5Z" fill="#455A64"/>
<path d="M144.765 171.963C144.765 172.04 135.707 172.106 124.536 172.106C113.366 172.106 104.302 172.04 104.302 171.963C104.302 171.886 113.36 171.82 124.536 171.82C135.712 171.82 144.765 171.886 144.765 171.963Z" fill="#455A64"/>
<path d="M139.777 239.41C139.772 239.722 139.674 240.026 139.496 240.283C139.318 240.54 139.068 240.739 138.778 240.854C138.487 240.97 138.169 240.996 137.863 240.931C137.558 240.866 137.278 240.712 137.06 240.488C136.841 240.265 136.694 239.981 136.636 239.674C136.579 239.367 136.613 239.05 136.736 238.762C136.858 238.474 137.063 238.229 137.324 238.058C137.585 237.886 137.891 237.796 138.204 237.798C138.413 237.8 138.62 237.844 138.812 237.926C139.005 238.008 139.179 238.127 139.325 238.277C139.471 238.427 139.586 238.604 139.664 238.798C139.741 238.993 139.78 239.2 139.777 239.41Z" fill="#263238"/>
<path d="M144.65 239.431C144.643 239.742 144.545 240.045 144.368 240.3C144.19 240.555 143.941 240.752 143.652 240.867C143.362 240.981 143.046 241.007 142.742 240.942C142.438 240.877 142.159 240.724 141.942 240.501C141.725 240.278 141.578 239.997 141.521 239.691C141.463 239.385 141.497 239.07 141.618 238.783C141.739 238.497 141.943 238.253 142.202 238.081C142.462 237.91 142.766 237.819 143.077 237.82C143.286 237.821 143.493 237.864 143.686 237.946C143.879 238.028 144.053 238.148 144.2 238.297C144.346 238.447 144.461 238.625 144.538 238.819C144.616 239.014 144.654 239.222 144.65 239.431Z" fill="#263238"/>
<path d="M149.561 239.454C149.555 239.764 149.457 240.067 149.279 240.322C149.102 240.577 148.853 240.774 148.563 240.889C148.274 241.003 147.957 241.029 147.653 240.964C147.349 240.899 147.071 240.746 146.854 240.523C146.637 240.301 146.49 240.019 146.432 239.713C146.375 239.408 146.408 239.092 146.53 238.805C146.651 238.519 146.854 238.275 147.114 238.103C147.373 237.932 147.677 237.841 147.989 237.842C148.198 237.844 148.404 237.888 148.597 237.97C148.789 238.052 148.963 238.171 149.11 238.321C149.256 238.471 149.371 238.648 149.448 238.842C149.526 239.037 149.564 239.244 149.561 239.454Z" fill="#263238"/>
<path d="M187.891 88.6326H99.9295V142.423H187.891V88.6326Z" fill="#E0E0E0"/>
<path d="M108.053 142.439L133.254 108.702L148.885 129.8L159.472 118.514L180.246 142.417L108.053 142.439Z" fill="#F5F5F5"/>
<path d="M155.507 104.561C155.508 105.686 155.175 106.786 154.551 107.722C153.927 108.657 153.039 109.387 152 109.819C150.961 110.25 149.817 110.363 148.714 110.144C147.61 109.926 146.597 109.384 145.801 108.589C145.005 107.794 144.463 106.781 144.243 105.678C144.023 104.574 144.135 103.43 144.565 102.391C144.996 101.351 145.725 100.463 146.66 99.8378C147.595 99.2127 148.695 98.879 149.82 98.879C151.327 98.879 152.773 99.4774 153.839 100.543C154.906 101.608 155.506 103.053 155.507 104.561Z" fill="#F5F5F5"/>
<path d="M187.654 192.418C187.654 191.268 187.599 142.676 187.522 70.7355L187.654 70.8675H99.704L99.847 70.7245C99.847 116.232 99.847 158.345 99.847 192.407L99.726 192.291L187.687 192.407L99.726 192.528H99.6105V192.407C99.6105 158.345 99.6105 116.232 99.583 70.7245V70.5815H99.737H187.687H187.819V70.708C187.792 106.717 187.77 137.148 187.753 158.587C187.753 169.29 187.726 177.744 187.72 183.53C187.72 186.412 187.72 188.628 187.72 190.13C187.72 190.872 187.72 191.439 187.72 191.824C187.72 192.209 187.654 192.418 187.654 192.418Z" fill="#263238"/>
<path d="M146.3 207.515L148.247 200.975C148.588 199.556 149.039 197.884 149.644 195.976C150.194 194.26 151.591 192.456 152.867 191.158C154.853 189.139 155.799 189.128 157.13 188.056C157.251 187.979 157.388 187.863 157.503 187.803C157.755 187.666 157.976 187.479 158.152 187.253C159.302 186.01 158.197 184.079 155.859 184.266C154.105 184.404 151.233 184.904 146.569 189.717C146.509 189.794 146.449 189.854 146.394 189.926C143.946 193.11 141.647 184.024 141.229 180.642C141.148 180.118 140.95 179.618 140.65 179.181C140.35 178.744 139.955 178.38 139.495 178.116C139.035 177.851 138.521 177.694 137.992 177.656C137.463 177.617 136.932 177.698 136.439 177.892L125.076 183.205C123.992 182.891 122.836 182.929 121.776 183.315C120.98 183.594 120.318 184.16 119.917 184.901C119.516 185.642 119.406 186.506 119.609 187.324L124.223 205.7L110.688 250.745H139.865L146.3 207.515Z" fill="#FFBE9D"/>
<path d="M168.74 166.144L159.72 183.821L155.21 182.567L132.55 201.008C131.625 201.765 130.442 202.131 129.251 202.028C128.06 201.926 126.957 201.362 126.175 200.458L117.54 190.432C117.54 190.432 134.948 182.935 138.165 176.731C141.383 170.527 137.665 169.114 137.665 169.114L145.854 159.808L168.74 166.144Z" fill="#088C85"/>
<path d="M157.041 130.042C157.041 130.042 143.841 127.121 125.257 109.257C106.672 91.3934 97.9495 67.6499 95.7 67.7819C93.4505 67.9139 83.4955 63.2884 64.6085 104.368C45.7215 145.447 53.163 154.968 56.9085 154.913C60.654 154.858 86.1795 147.724 102.118 149.534C118.057 151.343 138.545 159.654 138.545 159.654L157.041 130.042Z" fill="#0FC3B9"/>
<path d="M185.086 152.432L180.581 160.996L178.563 164.846C177.231 167.38 174.977 169.307 172.266 170.228C169.555 171.149 166.594 170.994 163.993 169.796L135.696 159.934L152.196 122.314L180.466 137.379C183.067 138.771 185.012 141.134 185.877 143.954C186.743 146.774 186.458 149.821 185.086 152.432Z" fill="#088C85"/>
<g opacity="0.4">
<path d="M185.086 152.432L180.581 160.996L178.563 164.846C177.231 167.38 174.977 169.307 172.266 170.228C169.555 171.149 166.594 170.994 163.993 169.796L135.696 159.934L152.196 122.314L180.466 137.379C183.067 138.771 185.012 141.134 185.877 143.954C186.743 146.774 186.458 149.821 185.086 152.432Z" fill="black"/>
</g>
<path d="M66.1155 105.116C56.067 127.369 51.8815 147.202 56.7655 149.407C61.6495 151.613 73.766 135.366 83.8145 113.107C93.863 90.8489 98.0485 71.0269 93.1645 68.8159C88.2805 66.6049 76.164 82.8629 66.1155 105.116Z" fill="#088C85"/>
<g opacity="0.5">
<path d="M66.1155 105.116C56.067 127.369 51.8815 147.202 56.7655 149.407C61.6495 151.613 73.766 135.366 83.8145 113.107C93.863 90.8489 98.0485 71.0269 93.1645 68.8159C88.2805 66.6049 76.164 82.8629 66.1155 105.116Z" fill="black"/>
</g>
<path d="M187.517 164.807L179.844 162.398L184.591 153.378L190.344 156.953L187.517 164.807Z" fill="#088C85"/>
<g opacity="0.6">
<path d="M184.591 153.378L179.844 162.398L181.423 162.893L185.278 153.802L184.591 153.378Z" fill="black"/>
</g>
<path d="M179.3 155.457C179.19 155.705 175.362 154.22 170.753 152.157C166.144 150.095 162.503 148.181 162.607 147.933C162.712 147.686 166.545 149.176 171.16 151.261C175.774 153.345 179.415 155.21 179.3 155.457Z" fill="#088C85"/>
<path d="M181.665 150.084C181.544 150.326 178.079 148.868 173.927 146.822C169.774 144.776 166.507 142.923 166.628 142.675C166.749 142.428 170.209 143.891 174.361 145.937C178.514 147.983 181.786 149.836 181.665 150.084Z" fill="#088C85"/>
<path d="M176.33 161.095C176.291 161.227 175.379 161.018 173.927 160.545C173.201 160.319 172.337 160.033 171.385 159.709C170.434 159.384 169.461 158.867 168.41 158.389C164.214 156.442 161.007 154.539 161.111 154.308C161.216 154.077 164.664 155.567 168.811 157.498C169.856 157.971 170.824 158.488 171.737 158.867C172.65 159.247 173.47 159.582 174.157 159.89C175.532 160.523 176.368 160.963 176.33 161.095Z" fill="#088C85"/>
<path d="M86.603 100.171C86.603 100.171 75.13 93.0545 68.8545 108.559C62.579 124.063 74.646 126.61 74.646 126.61C79.8569 118.404 83.8824 109.503 86.603 100.171Z" fill="#088C85"/>
<g opacity="0.5">
<path d="M98.8075 81.6914C98.879 81.6914 98.714 82.7584 98.362 84.6559C98.01 86.5534 97.482 89.2979 96.745 92.6749L95.15 98.1034C94.8603 99.0751 94.5615 100.082 94.2535 101.123L93.786 102.701C93.6155 103.251 93.39 103.752 93.192 104.285L90.6015 110.973C90.376 111.556 90.145 112.139 89.9195 112.728C89.694 113.316 89.3695 113.877 89.111 114.46L87.406 117.98L85.6955 121.495C85.404 122.045 85.1455 122.661 84.832 123.2C84.5185 123.739 84.1885 124.3 83.875 124.822L80.2175 130.999C79.9205 131.483 79.6675 131.983 79.3375 132.445L78.386 133.793L76.56 136.367L73.26 140.97C71.06 143.627 69.223 145.722 67.958 147.18C67.3367 147.969 66.6504 148.705 65.9065 149.38C66.4236 148.521 67.0123 147.708 67.6665 146.949C68.8875 145.392 70.609 143.214 72.721 140.536L75.8835 135.899L77.6545 133.32C77.9625 132.88 78.2705 132.429 78.584 131.972C78.8975 131.516 79.134 131.015 79.4365 130.526L83.05 124.355L83.9905 122.738C84.315 122.188 84.5405 121.638 84.843 121.044L86.537 117.551C87.087 116.369 87.6755 115.208 88.2365 114.059C88.5005 113.509 88.8195 112.926 89.0395 112.343L89.727 110.605L92.356 104.005C92.5595 103.455 92.7905 102.965 92.9665 102.437C93.1425 101.909 93.291 101.392 93.4505 100.875L94.3855 97.8889L96.074 92.5264L97.9825 84.6064C98.1739 83.613 98.4499 82.6378 98.8075 81.6914Z" fill="black"/>
</g>
<g opacity="0.4">
<path d="M120.279 189.2C121.33 191.103 122.397 193.05 123.942 194.551C125.488 196.053 127.6 197.12 129.8 196.9C132 196.68 134.007 194.887 134.029 192.72C135.063 193.495 136.653 193.077 137.511 192.104C138.369 191.13 138.649 189.783 138.748 188.49C140.156 189.321 142.114 188.666 143.055 187.33C143.487 186.634 143.76 185.851 143.855 185.037C143.95 184.224 143.865 183.399 143.605 182.622C143.069 181.076 142.307 179.617 141.344 178.293C142.444 178.381 143.577 178.458 144.545 177.969C145.513 177.479 146.195 176.192 145.607 175.268C145.22 174.753 144.659 174.395 144.028 174.262C142.329 173.712 141.141 173.305 139.37 173.508C138.963 173.508 140.079 178.172 128.986 184.541C122.402 188.309 120.279 189.2 120.279 189.2Z" fill="black"/>
</g>
<path d="M145.26 195.91C145.26 195.96 144.518 195.817 143.319 195.85C141.761 195.887 140.228 196.255 138.823 196.929C137.418 197.603 136.172 198.568 135.168 199.76C134.392 200.673 134.068 201.339 133.996 201.311C134.042 201.139 134.115 200.976 134.211 200.827C134.447 200.408 134.713 200.007 135.008 199.628C135.997 198.373 137.26 197.362 138.701 196.671C140.142 195.981 141.722 195.63 143.319 195.646C143.799 195.649 144.277 195.693 144.749 195.778C144.926 195.791 145.099 195.836 145.26 195.91Z" fill="#EB996E"/>
<path d="M121 186.224C122.788 187.94 124.009 189.838 125.884 191.565C126.737 192.351 128.084 193.836 129.184 194.034C130.284 194.232 131.054 194.084 131.505 193.017C131.874 192.153 131.214 190.971 130.762 190.267C129.569 188.391 128.425 186.928 127.534 185.471C127.111 184.789 127.655 184.646 127.853 184.965C128.711 185.856 129.998 186.615 130.768 187.599C131.824 188.925 132.011 190.69 134.772 190.129C135.141 190.07 135.492 189.925 135.795 189.706C136.834 188.908 136.895 187.506 136.444 186.406C136.055 185.557 135.535 184.774 134.904 184.085C136.081 185.41 137.362 186.835 139.232 186.956C139.761 187.02 140.296 186.918 140.764 186.665C141.232 186.412 141.61 186.02 141.845 185.542C142.395 184.288 141.608 183.073 140.811 182.094C139.399 180.353 137.829 178.748 136.12 177.298C135.481 176.762 134.676 176.464 133.843 176.456C132.875 176.456 131.643 176.632 131.093 177.468C130.778 177.872 130.549 178.335 130.42 178.829C130.29 179.324 130.263 179.839 130.339 180.345C130.339 180.345 127.919 179.118 125.972 180.4C124.774 181.242 123.912 182.481 123.541 183.898L121 186.224Z" fill="#FFBE9D"/>
<path d="M133.897 175.928C133.51 175.479 133.27 174.922 133.209 174.332C133.148 173.742 133.27 173.147 133.556 172.628C133.969 171.82 134.486 171.033 135.014 170.857C137.318 170.082 147.394 171.825 147.301 174.058C147.207 176.291 146.47 177.358 141.009 176.572C140.046 176.434 138.539 176.247 138.539 176.247L137.219 178.227L133.897 175.928Z" fill="#FFBE9D"/>
<path d="M135.701 185.289C134.379 183.109 132.451 181.36 130.152 180.257C130.527 180.317 130.888 180.444 131.219 180.631C132.875 181.431 134.265 182.692 135.223 184.261C135.445 184.571 135.607 184.92 135.701 185.289Z" fill="#EB996E"/>
<path d="M137.395 178.42C137.346 178.464 136.68 177.925 135.773 177.369C135.393 177.129 135 176.911 134.596 176.715C134.282 176.572 134.073 176.533 134.079 176.489C134.084 176.445 134.315 176.423 134.662 176.528C135.108 176.671 135.533 176.873 135.927 177.127C136.856 177.694 137.467 178.359 137.395 178.42Z" fill="#EB996E"/>
<path d="M139.089 176.341C138.434 176.417 137.77 176.342 137.148 176.121C136.693 175.982 136.271 175.754 135.905 175.45C135.63 175.213 135.514 175.021 135.542 174.993C136.071 175.336 136.638 175.616 137.23 175.829C137.861 175.958 138.482 176.129 139.089 176.341Z" fill="#EB996E"/>
<path d="M129.299 188.056C128.952 187.692 128.644 187.292 128.381 186.862C127.753 185.847 126.959 184.943 126.032 184.189C125.072 183.487 123.882 183.173 122.699 183.309C122.215 183.396 121.743 183.546 121.297 183.755C121.297 183.755 121.396 183.639 121.622 183.502C121.943 183.307 122.297 183.173 122.667 183.106C123.282 183.007 123.912 183.031 124.518 183.177C125.124 183.323 125.695 183.589 126.197 183.958C127.155 184.728 127.954 185.674 128.551 186.747C128.837 187.162 129.087 187.599 129.299 188.056Z" fill="#EB996E"/>
<path d="M137.005 210.331C135.648 210.619 134.274 210.816 132.891 210.919C131.516 211.119 130.128 211.222 128.738 211.227C130.097 210.939 131.473 210.743 132.858 210.639C134.232 210.443 135.617 210.34 137.005 210.331Z" fill="#EB996E"/>
<path d="M223.646 27.412L224.268 28.5505L225.401 29.172L224.268 29.7935L223.646 30.9265L223.025 29.7935L221.892 29.172L223.025 28.5505L223.646 27.412Z" fill="#088C85"/>
<path d="M236.632 55.5555L237.254 56.694L238.387 57.3155L237.254 57.937L236.632 59.07L236.01 57.937L234.872 57.3155L236.01 56.694L236.632 55.5555Z" fill="#088C85"/>
<path d="M28.545 130.641L29.1665 131.78L30.305 132.401L29.1665 133.017L28.545 134.156L27.9235 133.017L26.7905 132.401L27.9235 131.78L28.545 130.641Z" fill="#088C85"/>
<path d="M206.613 34.408L208.048 37.0315L210.672 38.467L208.048 39.897L206.613 42.5205L205.183 39.897L202.56 38.467L205.183 37.0315L206.613 34.408Z" fill="#088C85"/>
<path d="M40.183 112.805L41.613 115.417L44.231 116.847L41.613 118.283L40.183 120.895L38.753 118.283L36.135 116.847L38.753 115.417L40.183 112.805Z" fill="#088C85"/>
<path d="M240.163 175.208L241.593 177.826L244.206 179.256L241.593 180.686L240.163 183.304L238.733 180.686L236.115 179.256L238.733 177.826L240.163 175.208Z" fill="#088C85"/>
</svg>
