<svg width="438" height="393" viewBox="0 0 438 393" fill="none" xmlns="http://www.w3.org/2000/svg">
<path d="M438 345.362H0V345.626H438V345.362Z" fill="#EBEBEB"/>
<path d="M64.5349 355.405H45.955V355.668H64.5349V355.405Z" fill="#EBEBEB"/>
<path d="M224.352 352.546H149.919V352.81H224.352V352.546Z" fill="#EBEBEB"/>
<path d="M92.6633 365.204H59.2789V365.468H92.6633V365.204Z" fill="#EBEBEB"/>
<path d="M394.112 363.432H356.278V363.696H394.112V363.432Z" fill="#EBEBEB"/>
<path d="M353.413 363.432H342.928V363.696H353.413V363.432Z" fill="#EBEBEB"/>
<path d="M324.9 358.981H304.752V359.244H324.9V358.981Z" fill="#EBEBEB"/>
<path d="M294.625 358.981H252.192V359.244H294.625V358.981Z" fill="#EBEBEB"/>
<path d="M397.1 298.315H227.944C226.618 298.313 225.347 297.677 224.41 296.548C223.472 295.419 222.944 293.889 222.942 292.292V5.97053C222.956 4.38308 223.489 2.86615 224.425 1.74853C225.361 0.630923 226.626 0.0026881 227.944 0H397.1C398.416 0.00549003 399.677 0.635291 400.61 1.7529C401.543 2.8705 402.072 4.38586 402.084 5.97053V292.292C402.084 293.886 401.559 295.415 400.625 296.544C399.691 297.673 398.423 298.31 397.1 298.315ZM227.944 0.210974C226.676 0.213762 225.461 0.821465 224.564 1.90099C223.668 2.98051 223.163 4.44386 223.161 5.97053V292.292C223.163 293.819 223.668 295.282 224.564 296.362C225.461 297.441 226.676 298.049 227.944 298.052H397.1C398.367 298.049 399.583 297.441 400.479 296.362C401.376 295.282 401.88 293.819 401.883 292.292V5.97053C401.88 4.44386 401.376 2.98051 400.479 1.90099C399.583 0.821465 398.367 0.213762 397.1 0.210974H227.944Z" fill="#EBEBEB"/>
<path d="M381.445 345.362H269.624L259.699 122.733H371.52L381.445 345.362Z" fill="#EBEBEB"/>
<path d="M384.862 345.362H273.04L263.115 122.733H374.937L384.862 345.362Z" fill="#F5F5F5"/>
<path d="M328.78 322.398H318.794L319.197 145.698H329.183L328.78 322.398Z" fill="white"/>
<path d="M219 393C312.804 393 388.848 387.654 388.848 381.059C388.848 374.464 312.804 369.118 219 369.118C125.196 369.118 49.1523 374.464 49.1523 381.059C49.1523 387.654 125.196 393 219 393Z" fill="#F5F5F5"/>
<path d="M338.814 252.213L337.683 277.049L338.558 277.107L339.689 252.27L338.814 252.213Z" fill="#0C9C94"/>
<path d="M339.781 231.144L339.198 243.942L340.072 243.999L340.655 231.202L339.781 231.144Z" fill="#0C9C94"/>
<path d="M321.317 324.392H218.632C217.079 324.415 215.538 324.051 214.107 323.323C212.676 322.595 211.386 321.518 210.316 320.162C209.247 318.805 208.422 317.196 207.894 315.437C207.365 313.678 207.144 311.807 207.244 309.94L219.07 50.317C219.29 46.4261 220.72 42.778 223.074 40.0996C225.428 37.4213 228.534 35.9094 231.772 35.8654H334.466C336.015 35.8515 337.55 36.2219 338.975 36.9537C340.4 37.6854 341.685 38.7627 342.749 40.1185C343.814 41.4743 344.635 43.0796 345.161 44.8342C345.688 46.5888 345.908 48.4552 345.81 50.317L333.975 309.94C333.758 313.823 332.335 317.465 329.99 320.143C327.644 322.82 324.548 324.337 321.317 324.392Z" fill="#A6A9A8"/>
<path opacity="0.8" d="M315.106 324.392H218.632C217.079 324.414 215.538 324.05 214.107 323.323C212.676 322.595 211.386 321.518 210.316 320.161C209.247 318.804 208.422 317.196 207.894 315.437C207.365 313.678 207.144 311.807 207.244 309.94L219.07 50.3169C219.29 46.4261 220.72 42.7779 223.074 40.0996C225.428 37.4212 228.534 35.9094 231.772 35.8653H328.255C329.804 35.8498 331.34 36.2192 332.766 36.9504C334.192 37.6816 335.477 38.7589 336.541 40.1151C337.606 41.4712 338.427 43.0771 338.953 44.8324C339.479 46.5877 339.699 48.4547 339.599 50.3169L327.773 309.94C327.551 313.823 326.126 317.464 323.78 320.141C321.434 322.817 318.338 324.335 315.106 324.392Z" fill="#F5F5F5"/>
<path d="M267.294 82.9333H239.586C238.932 82.9394 238.283 82.7829 237.682 82.4735C237.08 82.1641 236.538 81.7086 236.089 81.1353C235.64 80.5621 235.294 79.8834 235.073 79.1419C234.851 78.4004 234.76 77.6118 234.803 76.8257C234.895 75.1871 235.496 73.6503 236.486 72.5206C237.476 71.391 238.783 70.7513 240.147 70.7285H267.855C268.508 70.721 269.157 70.8762 269.758 71.1844C270.36 71.4926 270.903 71.9471 271.352 72.5195C271.801 73.092 272.147 73.7699 272.368 74.5109C272.589 75.2519 272.681 76.0399 272.638 76.8257C272.545 78.4652 271.945 80.0032 270.955 81.1346C269.965 82.2659 268.658 82.9079 267.294 82.9333Z" fill="white"/>
<path d="M272.638 76.8257C272.48 79.7834 271.4 82.5598 269.612 84.597C267.824 86.6341 265.463 87.7809 263.002 87.8068C261.823 87.8232 260.654 87.5456 259.569 86.9916C258.484 86.4376 257.506 85.6191 256.696 84.5876C255.886 83.5562 255.263 82.3341 254.865 80.9982C254.466 79.6624 254.302 78.2418 254.382 76.8257C254.539 73.868 255.62 71.0916 257.407 69.0545C259.195 67.0173 261.557 65.8705 264.018 65.8446C265.196 65.8282 266.365 66.1058 267.45 66.6598C268.535 67.2138 269.513 68.0323 270.323 69.0638C271.133 70.0952 271.756 71.3173 272.155 72.6532C272.553 73.989 272.717 75.4096 272.638 76.8257Z" fill="#0C9C94"/>
<path d="M265.516 121.974H237.808C237.153 121.98 236.505 121.823 235.903 121.514C235.302 121.205 234.759 120.749 234.31 120.176C233.861 119.603 233.516 118.924 233.294 118.182C233.073 117.441 232.981 116.652 233.025 115.866C233.117 114.228 233.718 112.691 234.708 111.561C235.698 110.432 237.005 109.792 238.368 109.769H266.076C266.73 109.762 267.378 109.917 267.98 110.225C268.582 110.533 269.124 110.988 269.573 111.56C270.022 112.133 270.368 112.81 270.59 113.551C270.811 114.292 270.903 115.08 270.859 115.866C270.767 117.506 270.167 119.044 269.177 120.175C268.187 121.306 266.88 121.948 265.516 121.974Z" fill="white"/>
<path d="M255.696 123.55C259.407 119.203 259.645 112.251 256.227 108.02C252.81 103.79 247.032 103.885 243.321 108.231C239.61 112.578 239.373 119.531 242.79 123.761C246.207 127.991 251.986 127.897 255.696 123.55Z" fill="#0C9C94"/>
<path opacity="0.3" d="M255.696 123.55C259.407 119.203 259.645 112.251 256.227 108.02C252.81 103.79 247.032 103.885 243.321 108.231C239.61 112.578 239.373 119.531 242.79 123.761C246.207 127.991 251.986 127.897 255.696 123.55Z" fill="#FAFAFA"/>
<path d="M234.251 200.055H261.924C263.289 200.029 264.595 199.387 265.585 198.256C266.575 197.125 267.176 195.587 267.268 193.947C267.311 193.161 267.219 192.372 266.997 191.63C266.776 190.888 266.429 190.21 265.979 189.637C265.529 189.065 264.985 188.61 264.382 188.303C263.78 187.995 263.131 187.841 262.476 187.85H234.812C233.447 187.873 232.139 188.512 231.148 189.641C230.157 190.771 229.554 192.308 229.459 193.947C229.417 194.734 229.51 195.523 229.732 196.264C229.955 197.006 230.301 197.684 230.751 198.257C231.201 198.83 231.743 199.286 232.346 199.595C232.948 199.904 233.597 200.061 234.251 200.055Z" fill="white"/>
<path d="M244.775 201.615C248.485 197.269 248.723 190.316 245.305 186.085C241.888 181.855 236.11 181.95 232.399 186.296C228.689 190.643 228.451 197.596 231.868 201.826C235.286 206.056 241.064 205.962 244.775 201.615Z" fill="#0C9C94"/>
<path opacity="0.7" d="M244.775 201.615C248.485 197.269 248.723 190.316 245.305 186.085C241.888 181.855 236.11 181.95 232.399 186.296C228.689 190.643 228.451 197.596 231.868 201.826C235.286 206.056 241.064 205.962 244.775 201.615Z" fill="#FAFAFA"/>
<path d="M260.172 239.095H232.473C231.818 239.101 231.17 238.945 230.567 238.636C229.965 238.326 229.422 237.871 228.973 237.298C228.523 236.725 228.176 236.046 227.954 235.305C227.732 234.563 227.639 233.774 227.681 232.988C227.776 231.348 228.378 229.811 229.37 228.682C230.361 227.552 231.669 226.913 233.034 226.891H260.733C261.387 226.882 262.036 227.036 262.639 227.343C263.242 227.651 263.785 228.105 264.235 228.678C264.685 229.25 265.032 229.929 265.254 230.67C265.476 231.412 265.568 232.201 265.524 232.988C265.432 234.629 264.83 236.169 263.839 237.3C262.847 238.432 261.538 239.073 260.172 239.095Z" fill="white"/>
<path d="M265.524 232.988C265.367 235.945 264.286 238.722 262.499 240.759C260.711 242.796 258.349 243.943 255.888 243.969C254.709 243.985 253.54 243.708 252.455 243.154C251.369 242.6 250.391 241.781 249.58 240.75C248.77 239.719 248.145 238.497 247.746 237.161C247.347 235.825 247.181 234.404 247.26 232.988C247.421 230.032 248.503 227.258 250.29 225.222C252.077 223.186 254.436 222.037 256.896 222.007C258.075 221.989 259.245 222.265 260.331 222.819C261.417 223.372 262.396 224.19 263.207 225.222C264.018 226.254 264.642 227.476 265.041 228.813C265.44 230.149 265.604 231.571 265.524 232.988Z" fill="#0C9C94"/>
<path d="M236.029 161.014H263.737C265.102 160.989 266.409 160.347 267.398 159.216C268.388 158.084 268.989 156.546 269.081 154.907C269.124 154.12 269.032 153.331 268.811 152.589C268.589 151.848 268.242 151.169 267.792 150.597C267.342 150.024 266.799 149.57 266.196 149.262C265.593 148.955 264.944 148.8 264.289 148.81H236.59C235.226 148.832 233.92 149.472 232.93 150.602C231.94 151.731 231.339 153.268 231.246 154.907C231.203 155.693 231.295 156.481 231.516 157.223C231.737 157.964 232.083 158.643 232.532 159.216C232.981 159.79 233.523 160.245 234.125 160.554C234.727 160.864 235.375 161.02 236.029 161.014Z" fill="white"/>
<path d="M231.264 154.907C231.184 156.323 231.349 157.743 231.747 159.079C232.145 160.415 232.769 161.637 233.578 162.669C234.388 163.7 235.366 164.519 236.451 165.073C237.537 165.627 238.705 165.904 239.884 165.888C242.345 165.862 244.707 164.715 246.494 162.678C248.282 160.641 249.363 157.864 249.52 154.907C249.6 153.491 249.435 152.07 249.037 150.734C248.639 149.398 248.015 148.176 247.205 147.145C246.396 146.113 245.418 145.295 244.332 144.741C243.247 144.187 242.079 143.909 240.9 143.926C238.439 143.951 236.077 145.098 234.29 147.135C232.502 149.173 231.421 151.949 231.264 154.907Z" fill="#0C9C94"/>
<path opacity="0.7" d="M231.264 154.907C231.184 156.323 231.349 157.743 231.747 159.079C232.145 160.415 232.769 161.637 233.578 162.669C234.388 163.7 235.366 164.519 236.451 165.073C237.537 165.627 238.705 165.904 239.884 165.888C242.345 165.862 244.707 164.715 246.494 162.678C248.282 160.641 249.363 157.864 249.52 154.907C249.6 153.491 249.435 152.07 249.037 150.734C248.639 149.398 248.015 148.176 247.205 147.145C246.396 146.113 245.418 145.295 244.332 144.741C243.247 144.187 242.079 143.909 240.9 143.926C238.439 143.951 236.077 145.098 234.29 147.135C232.502 149.173 231.421 151.949 231.264 154.907Z" fill="#FAFAFA"/>
<path d="M327.983 75.0008H286.916C286.655 75.0014 286.396 74.9374 286.156 74.8127C285.916 74.6881 285.7 74.5053 285.521 74.2759C285.342 74.0465 285.204 73.7752 285.115 73.4789C285.027 73.1827 284.99 72.8677 285.007 72.5535C285.044 71.8984 285.284 71.2842 285.68 70.8328C286.076 70.3814 286.599 70.1258 287.144 70.1168H328.211C328.472 70.1147 328.731 70.1773 328.971 70.3008C329.211 70.4244 329.427 70.6061 329.606 70.8347C329.785 71.0633 329.923 71.3339 330.012 71.6296C330.1 71.9253 330.137 72.2398 330.121 72.5535C330.085 73.2104 329.846 73.8272 329.45 74.2809C329.053 74.7345 328.53 74.9915 327.983 75.0008Z" fill="white"/>
<path d="M314.3 83.5451H286.531C286.269 83.5472 286.009 83.4843 285.768 83.3603C285.527 83.2362 285.309 83.0537 285.129 82.8241C284.949 82.5945 284.811 82.3228 284.722 82.0258C284.633 81.7288 284.596 81.4129 284.612 81.0979C284.65 80.4428 284.89 79.8286 285.286 79.3772C285.682 78.9258 286.205 78.6702 286.75 78.6611H314.528C314.789 78.6591 315.048 78.7218 315.289 78.8452C315.529 78.9686 315.746 79.1501 315.926 79.3785C316.106 79.607 316.245 79.8774 316.334 80.1732C316.424 80.4689 316.462 80.7836 316.446 81.0979C316.409 81.7557 316.167 82.3726 315.77 82.826C315.372 83.2794 314.848 83.5361 314.3 83.5451Z" fill="white"/>
<path d="M315.684 231.163H279.768C279.507 231.163 279.248 231.099 279.008 230.975C278.768 230.85 278.552 230.667 278.373 230.438C278.194 230.208 278.056 229.937 277.967 229.641C277.879 229.345 277.842 229.03 277.858 228.716C277.894 228.06 278.134 227.444 278.53 226.992C278.927 226.54 279.45 226.285 279.996 226.279H315.868C316.13 226.277 316.388 226.339 316.629 226.463C316.869 226.586 317.086 226.768 317.266 226.996C317.446 227.225 317.585 227.495 317.674 227.791C317.764 228.087 317.802 228.401 317.787 228.716C317.75 229.365 317.515 229.974 317.126 230.426C316.738 230.878 316.224 231.141 315.684 231.163Z" fill="white"/>
<path d="M297.148 239.697H279.444C279.183 239.699 278.924 239.636 278.683 239.513C278.443 239.389 278.226 239.208 278.046 238.979C277.866 238.751 277.727 238.48 277.638 238.185C277.548 237.889 277.51 237.574 277.526 237.26C277.563 236.605 277.803 235.991 278.199 235.539C278.595 235.088 279.118 234.832 279.663 234.823H297.393C297.655 234.821 297.914 234.884 298.154 235.007C298.395 235.131 298.611 235.312 298.791 235.541C298.971 235.769 299.11 236.039 299.2 236.335C299.289 236.631 299.327 236.946 299.312 237.26C299.274 237.92 299.03 238.539 298.628 238.991C298.227 239.443 297.698 239.696 297.148 239.697Z" fill="white"/>
<path d="M326.038 117.702H284.972C284.426 117.711 283.904 117.966 283.508 118.418C283.112 118.869 282.871 119.483 282.834 120.138C282.819 120.452 282.857 120.767 282.946 121.063C283.036 121.359 283.175 121.629 283.355 121.858C283.534 122.086 283.751 122.268 283.992 122.391C284.232 122.514 284.491 122.577 284.753 122.575H325.819C326.365 122.566 326.887 122.31 327.283 121.859C327.679 121.408 327.92 120.793 327.957 120.138C327.973 119.824 327.934 119.509 327.845 119.214C327.755 118.918 327.616 118.647 327.437 118.419C327.257 118.191 327.04 118.009 326.799 117.886C326.559 117.762 326.3 117.7 326.038 117.702Z" fill="white"/>
<path d="M313.135 109.157H285.366C284.821 109.166 284.298 109.422 283.902 109.873C283.506 110.325 283.266 110.939 283.228 111.594C283.212 111.908 283.249 112.223 283.337 112.519C283.425 112.816 283.563 113.087 283.742 113.316C283.921 113.546 284.138 113.729 284.378 113.853C284.618 113.978 284.877 114.042 285.138 114.041H312.916C313.462 114.03 313.985 113.772 314.38 113.319C314.776 112.866 315.016 112.25 315.053 111.594C315.07 111.279 315.033 110.964 314.944 110.668C314.855 110.371 314.716 110.1 314.536 109.871C314.356 109.643 314.138 109.461 313.897 109.338C313.656 109.215 313.397 109.154 313.135 109.157Z" fill="white"/>
<path d="M304.428 153.082H283.404C283.142 153.083 282.883 153.019 282.643 152.894C282.403 152.769 282.187 152.586 282.008 152.357C281.829 152.128 281.691 151.856 281.603 151.56C281.514 151.264 281.477 150.949 281.494 150.635C281.529 149.979 281.769 149.363 282.166 148.911C282.562 148.459 283.086 148.204 283.631 148.198H304.655C304.919 148.191 305.181 148.251 305.424 148.372C305.668 148.494 305.888 148.675 306.071 148.904C306.253 149.132 306.395 149.404 306.486 149.702C306.577 150 306.616 150.318 306.6 150.635C306.562 151.298 306.317 151.919 305.914 152.373C305.511 152.828 304.98 153.081 304.428 153.082Z" fill="white"/>
<path d="M324.427 153.082H312.022C311.76 153.084 311.501 153.021 311.259 152.897C311.018 152.773 310.801 152.59 310.621 152.361C310.441 152.131 310.302 151.859 310.213 151.562C310.124 151.265 310.087 150.95 310.104 150.635C310.141 149.979 310.382 149.365 310.778 148.914C311.174 148.462 311.696 148.207 312.241 148.198H324.654C324.915 148.196 325.174 148.258 325.414 148.382C325.654 148.505 325.87 148.687 326.05 148.916C326.229 149.144 326.367 149.415 326.455 149.711C326.544 150.006 326.581 150.321 326.564 150.635C326.527 151.291 326.287 151.906 325.891 152.359C325.495 152.812 324.973 153.07 324.427 153.082Z" fill="white"/>
<path d="M310.744 161.616H282.948C282.687 161.618 282.428 161.555 282.187 161.432C281.947 161.308 281.73 161.127 281.55 160.898C281.37 160.67 281.231 160.399 281.142 160.104C281.052 159.808 281.014 159.493 281.03 159.179C281.067 158.524 281.307 157.91 281.703 157.458C282.099 157.007 282.622 156.751 283.167 156.742H310.98C311.241 156.74 311.5 156.803 311.741 156.926C311.981 157.05 312.198 157.231 312.378 157.46C312.558 157.688 312.697 157.958 312.786 158.254C312.876 158.55 312.914 158.865 312.898 159.179C312.861 159.838 312.618 160.455 312.218 160.907C311.819 161.359 311.292 161.612 310.744 161.616Z" fill="white"/>
<path d="M275.94 273.948H228.636C228.268 273.958 227.902 273.875 227.563 273.705C227.223 273.534 226.917 273.279 226.664 272.957C226.412 272.635 226.218 272.252 226.096 271.834C225.974 271.416 225.926 270.972 225.956 270.53C226.008 269.612 226.345 268.751 226.9 268.118C227.455 267.485 228.187 267.126 228.951 267.112H276.255C276.623 267.102 276.989 267.185 277.329 267.356C277.668 267.526 277.974 267.781 278.227 268.103C278.48 268.426 278.673 268.808 278.796 269.226C278.918 269.644 278.966 270.088 278.936 270.53C278.885 271.449 278.549 272.312 277.993 272.945C277.438 273.579 276.705 273.937 275.94 273.948Z" fill="white"/>
<path d="M318.111 273.948H289.08C288.712 273.958 288.346 273.875 288.007 273.705C287.667 273.534 287.361 273.279 287.108 272.957C286.856 272.635 286.662 272.252 286.54 271.834C286.418 271.416 286.37 270.972 286.399 270.53C286.452 269.612 286.789 268.751 287.344 268.118C287.899 267.485 288.631 267.126 289.395 267.112H318.426C318.794 267.102 319.16 267.185 319.499 267.356C319.839 267.526 320.145 267.781 320.398 268.103C320.65 268.426 320.844 268.808 320.966 269.226C321.088 269.644 321.136 270.088 321.107 270.53C321.054 271.448 320.717 272.309 320.162 272.942C319.607 273.575 318.875 273.934 318.111 273.948Z" fill="white"/>
<path d="M264.114 285.868H228.11C227.742 285.878 227.377 285.795 227.037 285.625C226.698 285.454 226.392 285.199 226.139 284.877C225.886 284.555 225.692 284.172 225.57 283.754C225.448 283.336 225.4 282.892 225.43 282.45C225.481 281.531 225.817 280.669 226.372 280.035C226.928 279.402 227.661 279.044 228.426 279.032H264.421C264.789 279.022 265.154 279.105 265.494 279.276C265.833 279.446 266.14 279.701 266.392 280.023C266.645 280.346 266.839 280.728 266.961 281.146C267.083 281.564 267.131 282.008 267.101 282.45C267.051 283.368 266.715 284.228 266.162 284.862C265.608 285.495 264.877 285.854 264.114 285.868Z" fill="white"/>
<path d="M303.21 297.851H227.567C227.199 297.862 226.834 297.779 226.494 297.608C226.154 297.437 225.848 297.183 225.596 296.86C225.343 296.538 225.149 296.156 225.027 295.738C224.905 295.32 224.857 294.875 224.887 294.434C224.937 293.516 225.273 292.655 225.826 292.022C226.38 291.389 227.111 291.03 227.874 291.016H303.517C303.884 291.006 304.25 291.088 304.59 291.259C304.929 291.43 305.235 291.684 305.488 292.007C305.741 292.329 305.935 292.711 306.057 293.129C306.179 293.548 306.227 293.992 306.197 294.434C306.147 295.351 305.811 296.212 305.258 296.845C304.704 297.478 303.973 297.837 303.21 297.851Z" fill="white"/>
<path d="M293.574 195.783H281.415C280.87 195.792 280.347 196.047 279.951 196.499C279.555 196.95 279.315 197.564 279.278 198.219C279.262 198.534 279.3 198.848 279.39 199.144C279.479 199.44 279.618 199.71 279.798 199.939C279.978 200.167 280.195 200.349 280.435 200.472C280.676 200.595 280.935 200.658 281.196 200.656H293.355C293.9 200.647 294.423 200.391 294.819 199.94C295.214 199.489 295.455 198.874 295.492 198.219C295.508 197.905 295.47 197.59 295.38 197.295C295.291 196.999 295.152 196.728 294.972 196.5C294.792 196.272 294.575 196.09 294.335 195.967C294.094 195.843 293.835 195.781 293.574 195.783Z" fill="white"/>
<path d="M315.264 195.783H301.169C300.624 195.792 300.101 196.047 299.705 196.499C299.309 196.95 299.069 197.564 299.031 198.219C299.016 198.534 299.054 198.848 299.143 199.144C299.233 199.44 299.372 199.71 299.552 199.939C299.732 200.167 299.949 200.349 300.189 200.472C300.429 200.596 300.688 200.658 300.95 200.656H315.045C315.59 200.647 316.112 200.392 316.508 199.94C316.904 199.489 317.145 198.874 317.182 198.219C317.199 197.905 317.162 197.589 317.073 197.293C316.984 196.997 316.845 196.725 316.665 196.497C316.485 196.268 316.267 196.086 316.026 195.964C315.785 195.841 315.525 195.779 315.264 195.783Z" fill="white"/>
<path d="M309.578 187.238H281.809C281.263 187.245 280.74 187.5 280.343 187.952C279.947 188.404 279.707 189.019 279.672 189.675C279.655 189.989 279.692 190.304 279.78 190.601C279.869 190.897 280.007 191.168 280.186 191.397C280.365 191.627 280.581 191.81 280.821 191.934C281.061 192.059 281.32 192.123 281.582 192.122H309.359C309.905 192.111 310.428 191.853 310.824 191.4C311.219 190.947 311.46 190.331 311.497 189.675C311.512 189.361 311.474 189.046 311.385 188.75C311.295 188.455 311.156 188.184 310.976 187.956C310.797 187.727 310.58 187.546 310.339 187.422C310.099 187.299 309.84 187.236 309.578 187.238Z" fill="white"/>
<path d="M155.928 124.611C153.063 127.47 150.103 130.582 147.378 133.704C146.012 135.276 144.68 136.869 143.445 138.514C142.247 140.061 141.149 141.715 140.16 143.462L139.994 143.757L139.915 143.926C139.843 144.059 139.781 144.2 139.731 144.348C139.608 144.675 139.494 145.086 139.372 145.519C139.138 146.477 138.957 147.453 138.828 148.441C138.555 150.643 138.38 152.861 138.303 155.086C138.119 159.643 138.119 164.401 138.189 169.053L134.089 169.791C133.062 165.019 132.359 160.154 131.987 155.244C131.791 152.695 131.742 150.133 131.838 147.576C131.908 146.194 132.054 144.82 132.276 143.462C132.399 142.696 132.565 141.942 132.775 141.204C132.907 140.793 133.003 140.413 133.178 139.98L133.424 139.348C133.511 139.158 133.572 139.042 133.643 138.873C134.715 136.539 135.967 134.332 137.383 132.28C138.695 130.311 140.09 128.424 141.562 126.626C144.445 123.071 147.523 119.755 150.777 116.7L155.928 124.611Z" fill="#F5CAC6"/>
<path d="M154.395 111.963C149.91 115.128 143.13 123.356 143.13 123.356L151.443 135.371C151.443 135.371 163.243 126.847 164.679 122.153C167.079 114.252 158.635 108.936 154.395 111.963Z" fill="#0C9C94"/>
<path d="M138.005 167.27L139.021 174.411L133.511 173.451C133.511 173.451 132.381 168.599 135.263 166.932L138.005 167.27Z" fill="#F5CAC6"/>
<path d="M136.989 178.757L132.031 176.901L133.511 173.451L139.021 174.411L136.989 178.757Z" fill="#F5CAC6"/>
<path d="M187.744 86.7309C187.744 87.4588 188.077 88.0495 188.48 88.0601C188.883 88.0706 189.19 87.4799 189.181 86.7626C189.172 86.0453 188.848 85.444 188.445 85.4335C188.042 85.4229 187.736 86.0136 187.744 86.7309Z" fill="#202A2F"/>
<path d="M188.27 85.4439L189.733 84.9693C189.733 84.9693 188.997 86.3406 188.27 85.4439Z" fill="#202A2F"/>
<path d="M188.261 87.4483C188.825 89.1195 189.573 90.6914 190.486 92.1214C190.173 92.3787 189.818 92.5515 189.445 92.6279C189.071 92.7044 188.688 92.6827 188.322 92.5644L188.261 87.4483Z" fill="#A02724"/>
<path d="M188.506 81.9102C188.449 81.9307 188.388 81.9307 188.331 81.9102C187.9 81.7205 187.437 81.6551 186.981 81.7192C186.524 81.7833 186.087 81.9752 185.703 82.2794C185.666 82.3143 185.624 82.3399 185.578 82.3546C185.533 82.3693 185.485 82.3728 185.439 82.3649C185.392 82.357 185.347 82.3379 185.307 82.3087C185.267 82.2795 185.232 82.2409 185.204 82.195C185.148 82.1038 185.123 81.9896 185.137 81.8771C185.15 81.7646 185.199 81.6628 185.274 81.5938C185.748 81.2136 186.29 80.9709 186.855 80.8849C187.42 80.7989 187.995 80.8718 188.533 81.098C188.621 81.1342 188.695 81.2107 188.737 81.3112C188.78 81.4117 188.788 81.5282 188.76 81.636C188.739 81.7025 188.705 81.7621 188.661 81.8097C188.617 81.8574 188.564 81.8918 188.506 81.9102Z" fill="#202A2F"/>
<path d="M169.891 94.4736C170.294 99.9272 168.779 108.862 165.362 111.9C165.362 111.9 167.938 117.638 176.19 118.978C185.274 120.444 181.008 114.294 181.008 114.294C176.181 112.079 176.689 107.702 177.916 103.746L169.891 94.4736Z" fill="#F5CAC6"/>
<path d="M186.019 118.535C190.337 119.949 194.875 121.309 199.325 122.522C201.568 123.103 203.81 123.577 206.053 124.157C208.295 124.738 210.547 125.107 212.78 125.455L213.656 125.592L214.235 125.666C214.637 125.666 215.111 125.666 215.549 125.666C216.567 125.58 217.579 125.415 218.579 125.17C220.749 124.631 222.892 123.951 225.001 123.134C229.319 121.51 233.699 119.548 237.983 117.522L239.928 121.921C235.89 125.103 231.652 127.9 227.252 130.286C224.976 131.525 222.635 132.582 220.244 133.451C218.966 133.908 217.663 134.26 216.346 134.506C215.619 134.625 214.888 134.699 214.156 134.727H212.964L212.088 134.643C207.264 134.24 202.466 133.472 197.722 132.343C192.992 131.282 188.314 129.916 183.706 128.25L186.019 118.535Z" fill="#F5CAC6"/>
<path d="M236.844 119.305L238.114 114.126L242.783 116.235C242.783 116.235 241.715 124.02 237.711 121.868L236.844 119.305Z" fill="#F5CAC6"/>
<path d="M240.821 110.687L245.587 111.33L242.783 116.235L238.114 114.126L240.821 110.687Z" fill="#F5CAC6"/>
<path d="M156.489 371.175L163.996 371.84L166.23 351.08L158.722 350.415L156.489 371.175Z" fill="#F5CAC6"/>
<path d="M101.125 330.932L106.224 337.746L120.467 325.89L115.369 319.086L101.125 330.932Z" fill="#F5CAC6"/>
<path d="M109.999 341.607C109.909 341.622 109.818 341.622 109.728 341.607C108.852 341.249 108.195 339.213 107.906 338.031C107.896 337.991 107.896 337.948 107.907 337.908C107.918 337.868 107.938 337.833 107.965 337.807C107.992 337.781 108.025 337.766 108.06 337.762C108.095 337.759 108.129 337.768 108.16 337.789C108.431 337.957 110.849 339.54 110.928 340.7C110.936 340.826 110.917 340.953 110.873 341.068C110.828 341.182 110.76 341.281 110.674 341.354C110.479 341.528 110.241 341.617 109.999 341.607ZM108.379 338.369C108.817 339.93 109.351 340.953 109.842 341.143C109.948 341.18 110.06 341.182 110.168 341.151C110.275 341.119 110.374 341.055 110.455 340.964C110.494 340.933 110.526 340.891 110.547 340.841C110.569 340.791 110.579 340.735 110.577 340.679C110.534 340.067 109.334 339.033 108.379 338.369Z" fill="#0C9C94"/>
<path d="M110.288 338.791C109.488 338.772 108.7 338.537 107.984 338.105C107.958 338.084 107.936 338.056 107.921 338.023C107.906 337.99 107.898 337.953 107.897 337.915C107.896 337.877 107.905 337.84 107.922 337.808C107.939 337.776 107.964 337.751 107.993 337.736C108.063 337.683 109.92 336.449 110.945 336.871C111.079 336.922 111.202 337.008 111.305 337.123C111.408 337.238 111.488 337.379 111.541 337.535C111.611 337.685 111.636 337.86 111.61 338.03C111.585 338.199 111.511 338.353 111.401 338.464C111.071 338.72 110.679 338.835 110.288 338.791ZM108.466 337.915C109.342 338.348 110.779 338.548 111.173 338.147C111.234 338.073 111.305 337.968 111.173 337.704C111.141 337.603 111.09 337.512 111.025 337.437C110.96 337.363 110.882 337.306 110.796 337.272C109.983 337.195 109.17 337.419 108.466 337.915Z" fill="#0C9C94"/>
<path d="M108.51 336.744L104.305 327.757C104.236 327.601 104.123 327.482 103.986 327.42C103.849 327.358 103.698 327.357 103.561 327.419L97.3498 330.288C97.191 330.373 97.0491 330.498 96.9336 330.654C96.8181 330.811 96.7317 330.995 96.6803 331.195C96.6288 331.395 96.6135 331.605 96.6353 331.813C96.6571 332.02 96.7156 332.22 96.8067 332.398C98.3222 335.499 99.1719 336.902 101.02 340.837C102.159 343.263 103.911 348.569 105.26 352.061C106.609 355.552 109.465 354.171 109.158 352.588C108.128 347.947 107.984 343.086 108.738 338.369C108.822 337.812 108.742 337.237 108.51 336.744Z" fill="#202A2F"/>
<path d="M167.263 372.135C166.469 372.116 165.677 372.01 164.898 371.818C164.863 371.809 164.83 371.786 164.806 371.754C164.781 371.722 164.764 371.682 164.758 371.639C164.752 371.595 164.759 371.549 164.776 371.509C164.793 371.469 164.821 371.437 164.854 371.418C165.196 371.207 168.245 369.308 169.147 369.972C169.232 370.029 169.303 370.111 169.354 370.211C169.405 370.311 169.433 370.425 169.436 370.542C169.453 370.739 169.43 370.938 169.369 371.121C169.307 371.305 169.21 371.468 169.085 371.597C168.545 372.017 167.904 372.206 167.263 372.135ZM165.511 371.513C167.167 371.84 168.402 371.755 168.875 371.259C168.954 371.174 169.016 371.068 169.054 370.949C169.092 370.829 169.106 370.701 169.094 370.574C169.095 370.527 169.086 370.481 169.068 370.441C169.049 370.4 169.022 370.366 168.989 370.342C168.472 370.015 166.747 370.795 165.494 371.513H165.511Z" fill="#0C9C94"/>
<path d="M164.933 371.818C164.899 371.832 164.862 371.832 164.828 371.818C164.802 371.798 164.782 371.77 164.77 371.736C164.757 371.702 164.753 371.665 164.758 371.628C164.758 371.46 165.117 367.768 166.799 367.768H166.948C167.43 367.82 167.57 368.116 167.605 368.358C167.745 369.413 165.923 371.344 164.977 371.829C164.962 371.828 164.947 371.825 164.933 371.818ZM166.808 368.147C165.722 368.147 165.292 370.257 165.161 371.217C166.098 370.542 167.334 369.012 167.255 368.39C167.255 368.39 167.255 368.2 166.913 368.158L166.808 368.147Z" fill="#0C9C94"/>
<path d="M164.469 370.553H156.024C155.878 370.552 155.736 370.615 155.623 370.729C155.511 370.843 155.436 371.001 155.411 371.175L154.281 379.213C154.259 379.414 154.272 379.619 154.321 379.814C154.37 380.008 154.452 380.188 154.563 380.341C154.675 380.494 154.812 380.616 154.966 380.7C155.119 380.784 155.286 380.827 155.455 380.827C158.398 380.764 159.835 380.553 163.532 380.553C165.809 380.553 170.54 380.837 173.684 380.837C176.829 380.837 177.083 377.093 175.778 376.745C169.926 375.226 167.649 373.116 165.713 371.112C165.366 370.754 164.925 370.556 164.469 370.553Z" fill="#202A2F"/>
<path opacity="0.2" d="M166.23 351.09L164.986 362.631L157.566 361.133L158.714 350.415L166.23 351.09Z" fill="black"/>
<path opacity="0.2" d="M115.36 319.086L120.459 325.9L114.572 330.795L109.29 324.139L115.36 319.086Z" fill="black"/>
<path d="M152.704 166.384L183.084 171.299C194.866 119.938 191.388 118.556 191.388 118.556C189.112 117.272 186.771 116.159 184.38 115.223L183.969 115.065C182.006 114.347 181.595 114.252 178.976 113.535C174.482 112.575 170.312 111.837 165.161 111.309C164.837 111.309 164.504 111.235 164.18 111.214C163.251 111.141 162.332 111.088 161.438 111.046C160.842 111.046 160.238 111.046 159.686 111.046H156.725C156.139 111.062 155.562 111.224 155.032 111.524C154.501 111.823 154.028 112.253 153.643 112.785C153.258 113.317 152.97 113.94 152.796 114.614C152.622 115.288 152.567 115.999 152.634 116.7C155.236 143.673 154.412 152.565 152.704 166.384Z" fill="#0C9C94"/>
<path opacity="0.2" d="M183.96 130.17C184.17 132.554 188.743 136.911 190.328 135.74C190.784 132.881 191.117 130.466 191.353 128.525C189.058 128.314 184.564 125.265 183.96 130.17Z" fill="black"/>
<path d="M179.028 118.145C178.809 109.706 195.795 118.999 199.693 121.098L195.348 135.244C195.348 135.244 189.663 135.012 186.045 132.491C183.987 130.977 182.27 128.877 181.046 126.375C179.822 123.873 179.129 121.046 179.028 118.145Z" fill="#0C9C94"/>
<path d="M167.316 84.3891C167.877 93.3132 167.955 97.1002 171.792 101.742C177.548 108.714 186.614 106.246 188.296 97.3744C189.812 89.3891 188.638 76.14 181.288 72.4691C179.71 71.6182 177.975 71.2774 176.255 71.4804C174.534 71.6834 172.887 72.4232 171.477 73.6266C170.066 74.8301 168.94 76.4558 168.211 78.3432C167.481 80.2305 167.173 82.3144 167.316 84.3891Z" fill="#F5CAC6"/>
<path d="M167.964 74.9693C160.518 72.7224 160.282 80.2436 160.439 84.2099C160.597 88.1762 155.122 90.0749 155.122 95.0433C155.122 101.52 159.178 105.381 149.314 107.343C140.966 108.999 138.39 121.563 150.742 128.915C164.416 137.037 185.046 125.603 182.541 114.727C178.704 97.9442 185.598 97.9969 184.836 88.6087C184.267 81.7942 189.628 81.4567 187.7 75.771C185.16 68.3342 167.316 61.8046 167.964 74.9693Z" fill="#202A2F"/>
<path d="M159.344 87.5538C158.319 81.0559 158.88 76.752 161.009 74.7372C163.751 72.1317 167.964 74.3891 168.139 74.4841L167.78 75.444C167.78 75.444 163.865 73.3342 161.543 75.56C159.695 77.3216 159.248 81.2879 160.203 87.3534L159.344 87.5538Z" fill="#202A2F"/>
<path d="M150.926 105.486C149.003 105.413 147.105 104.95 145.311 104.115L145.635 103.134C145.696 103.134 151.601 105.961 154.334 103.229C155.665 101.9 156.042 99.4104 155.464 95.845L156.34 95.6446C156.988 99.6425 156.506 102.48 154.912 104.083C153.759 105.095 152.35 105.591 150.926 105.486Z" fill="#202A2F"/>
<path d="M182.812 87.9862C182.742 89.651 183.1 91.3015 183.837 92.712C184.853 94.7057 186.229 94.3365 186.676 92.6487C187.122 90.9609 187.043 88.2499 185.668 86.8048C184.293 85.3596 182.953 86.1402 182.812 87.9862Z" fill="#F5CAC6"/>
<path d="M175.086 170.002C175.086 170.002 163.278 230.129 157.759 264.613C151.942 301.037 117.463 330.753 117.463 330.753L109.894 321.375C109.894 321.375 132.092 297.978 137.795 263.969C149.367 194.939 141.535 181.036 152.687 166.384L175.086 170.002Z" fill="#202A2F"/>
<path d="M118.111 332.103L108.659 320.394L111.313 316.955L122.29 328.59L118.111 332.103Z" fill="#0C9C94"/>
<path opacity="0.2" d="M168.814 183.061C159.633 192.66 160.623 226.722 161.587 242.07C165.433 220.245 170.067 195.941 172.782 181.88C171.81 181.015 170.496 181.299 168.814 183.061Z" fill="black"/>
<path d="M182.664 171.331C182.664 171.331 187.972 242.671 185.073 269.887C182.059 298.189 166.677 359.772 166.677 359.772L155.928 358.095C155.928 358.095 164.688 297.06 166.291 269.043C167.991 238.452 160.431 167.776 160.431 167.776L182.664 171.331Z" fill="#202A2F"/>
<path d="M169.024 360.521L153.589 358.116L153.826 352.63L170.575 354.582L169.024 360.521Z" fill="#0C9C94"/>
<path d="M152.424 164.179L150.76 167.206C150.637 167.449 150.865 167.744 151.215 167.797L183.084 172.998C183.355 172.998 183.601 172.913 183.636 172.713L184.196 169.548C184.24 169.327 184.012 169.095 183.715 169.042L152.923 164.073C152.839 164.039 152.75 164.03 152.662 164.049C152.575 164.067 152.493 164.112 152.424 164.179Z" fill="#0C9C94"/>
<path opacity="0.3" d="M152.424 164.179L150.76 167.206C150.637 167.449 150.865 167.744 151.215 167.797L183.084 172.998C183.355 172.998 183.601 172.913 183.636 172.713L184.196 169.548C184.24 169.327 184.012 169.095 183.715 169.042L152.923 164.073C152.839 164.039 152.75 164.03 152.662 164.049C152.575 164.067 152.493 164.112 152.424 164.179Z" fill="black"/>
<path d="M156.208 168.958L155.385 168.831C155.218 168.831 155.105 168.683 155.131 168.557L155.884 164.39C155.884 164.274 156.059 164.2 156.226 164.221L157.049 164.358C157.216 164.358 157.33 164.506 157.312 164.622L156.55 168.789C156.532 168.915 156.375 168.989 156.208 168.958Z" fill="#202A2F"/>
<path d="M177.04 172.386L176.216 172.249C176.05 172.249 175.936 172.101 175.953 171.985L176.715 167.818C176.715 167.702 176.891 167.618 177.057 167.65L177.881 167.776C178.047 167.776 178.161 167.924 178.135 168.05L177.381 172.217C177.355 172.333 177.206 172.417 177.04 172.386Z" fill="#202A2F"/>
</svg>
